<svg width="48" height="48" viewBox="0 0 48 48" fill="none" xmlns="http://www.w3.org/2000/svg">
<circle cx="24" cy="24" r="24" fill="#F3F3F1"/>
<mask id="mask0_303_39248" style="mask-type:alpha" maskUnits="userSpaceOnUse" x="0" y="0" width="48" height="48">
<circle cx="24" cy="24" r="24" fill="#F3F4F8"/>
</mask>
<g mask="url(#mask0_303_39248)">
<path d="M32 18C32 22.4183 28.4183 26 24 26C19.5817 26 16 22.4183 16 18C16 13.5817 19.5817 10 24 10C28.4183 10 32 13.5817 32 18Z" fill="#CECECE"/>
<path d="M40 42V46H8V42C8 39.8783 8.84285 37.8434 10.3431 36.3431C11.8434 34.8429 13.8783 34 16 34H32C34.1217 34 36.1566 34.8429 37.6569 36.3431C39.1571 37.8434 40 39.8783 40 42Z" fill="#CECECE"/>
<path fill-rule="evenodd" clip-rule="evenodd" d="M14 18C14 12.4772 18.4772 8 24 8C29.5228 8 34 12.4772 34 18C34 23.5228 29.5228 28 24 28C18.4772 28 14 23.5228 14 18ZM24 12C20.6863 12 18 14.6863 18 18C18 21.3137 20.6863 24 24 24C27.3137 24 30 21.3137 30 18C30 14.6863 27.3137 12 24 12ZM8.92893 34.9289C10.8043 33.0536 13.3478 32 16 32H32C34.6522 32 37.1957 33.0536 39.0711 34.9289C40.9464 36.8043 42 39.3478 42 42V46C42 47.1046 41.1046 48 40 48H8C6.89543 48 6 47.1046 6 46V42C6 39.3478 7.05357 36.8043 8.92893 34.9289ZM16 36C14.4087 36 12.8826 36.6321 11.7574 37.7574C10.6321 38.8826 10 40.4087 10 42V44H38V42C38 40.4087 37.3679 38.8826 36.2426 37.7574C35.1174 36.6321 33.5913 36 32 36H16Z" fill="#CECECE"/>
</g>
</svg>
