<svg width="78" height="81" viewBox="0 0 78 81" fill="none" xmlns="http://www.w3.org/2000/svg">
<path d="M26.9833 51.1128C12.175 53.0628 1.5 58.5003 1.5 64.917C1.5 72.9711 18.2875 79.5003 39 79.5003C59.7125 79.5003 76.5 72.9711 76.5 64.917C76.5 58.5003 65.825 53.0628 51.0167 51.1128" stroke="#DBA237" stroke-width="3" stroke-linecap="round" stroke-linejoin="round"/>
<path fill-rule="evenodd" clip-rule="evenodd" d="M39 0.333496C52.8083 0.333496 64 11.2168 64 24.6377C64 42.8668 39 62.8335 39 62.8335C39 62.8335 14 42.8668 14 24.6377C14 11.2168 25.1917 0.333496 39 0.333496ZM44.8924 31.2261C48.1468 27.9718 48.1468 22.6954 44.8924 19.441C41.638 16.1867 36.3617 16.1867 33.1073 19.441C29.8529 22.6954 29.8529 27.9718 33.1073 31.2261C36.3617 34.4805 41.638 34.4805 44.8924 31.2261Z" fill="#DBA237"/>
</svg>
