<svg width="34" height="34" viewBox="0 0 34 34" fill="none" xmlns="http://www.w3.org/2000/svg">
<path d="M17.1534 33.5115C26.2066 33.5115 33.5456 26.1724 33.5456 17.1193C33.5456 8.0661 26.2066 0.727051 17.1534 0.727051C8.10028 0.727051 0.76123 8.0661 0.76123 17.1193C0.76123 26.1724 8.10028 33.5115 17.1534 33.5115Z" fill="#34AADF"/>
<path d="M7.78842 16.76C7.78842 16.76 15.9083 13.3056 18.7244 12.0892C19.8039 11.6026 23.4649 10.0457 23.4649 10.0457C23.4649 10.0457 25.1546 9.36452 25.0138 11.0188C24.9668 11.7 24.5913 14.084 24.2159 16.6627C23.6526 20.3119 23.0425 24.3015 23.0425 24.3015C23.0425 24.3015 22.9486 25.4206 22.1507 25.6152C21.3528 25.8098 20.0386 24.9341 19.8039 24.7394C19.6161 24.5935 16.2837 22.404 15.0634 21.3336C14.7349 21.0417 14.3594 20.4579 15.1103 19.7767C16.8 18.171 18.8183 16.1762 20.0386 14.9112C20.6018 14.3273 21.165 12.965 18.8182 14.6192C15.4859 17.0033 12.2004 19.2414 12.2004 19.2414C12.2004 19.2414 11.4494 19.728 10.0413 19.2901C8.63321 18.8522 6.99046 18.2683 6.99046 18.2683C6.99046 18.2683 5.86407 17.5385 7.78842 16.76Z" fill="white"/>
</svg>
