<svg width="39" height="42" viewBox="0 0 39 42" fill="none" xmlns="http://www.w3.org/2000/svg">
<path d="M5 36.8003L7.15243 28.8041C5.41655 25.6892 4.86504 22.0544 5.59911 18.5667C6.33318 15.0789 8.30359 11.9721 11.1488 9.81652C13.9939 7.66089 17.523 6.60097 21.0884 6.83126C24.6539 7.06155 28.0164 8.56659 30.5591 11.0702C33.1018 13.5738 34.6541 16.9081 34.9311 20.4612C35.2081 24.0142 34.1912 27.5478 32.0671 30.4134C29.9429 33.2789 26.854 35.2844 23.3672 36.0616C19.8803 36.8389 16.2294 36.3359 13.0843 34.6449L5 36.8003ZM13.4741 31.6527L13.9741 31.9485C16.2521 33.2953 18.9128 33.8526 21.5416 33.5336C24.1703 33.2147 26.6194 32.0373 28.5073 30.1849C30.3951 28.3326 31.6156 25.9094 31.9786 23.2929C32.3415 20.6765 31.8266 18.0138 30.514 15.7197C29.2014 13.4256 27.1648 11.6291 24.7217 10.6101C22.2786 9.59107 19.5661 9.40679 17.007 10.086C14.448 10.7651 12.186 12.2696 10.5736 14.365C8.9613 16.4603 8.08913 19.0288 8.09306 21.6702C8.09092 23.8603 8.69817 26.0081 9.84721 27.8744L10.1608 28.39L8.95742 32.8529L13.4741 31.6527Z" fill="#00D95F"/>
<path fill-rule="evenodd" clip-rule="evenodd" d="M25.6091 23.7231C25.316 23.4874 24.9728 23.3214 24.6057 23.2379C24.2385 23.1544 23.8572 23.1556 23.4905 23.2414C22.9397 23.4696 22.5838 24.3317 22.2279 24.7628C22.1528 24.8662 22.0426 24.9386 21.9178 24.9666C21.7929 24.9947 21.6622 24.9763 21.55 24.915C19.5334 24.1271 17.8431 22.6824 16.7536 20.8155C16.6607 20.699 16.6167 20.551 16.6309 20.4028C16.6452 20.2546 16.7165 20.1177 16.8299 20.0209C17.2268 19.6289 17.5183 19.1434 17.6773 18.6093C17.7126 18.0202 17.5773 17.4334 17.2875 16.9188C17.0634 16.1974 16.6371 15.5551 16.0587 15.0677C15.7604 14.9339 15.4297 14.889 15.1064 14.9385C14.7831 14.988 14.4811 15.1298 14.2368 15.3466C13.8126 15.7117 13.476 16.1669 13.2516 16.6789C13.0272 17.1909 12.9208 17.7466 12.9402 18.305C12.9416 18.6186 12.9814 18.9309 13.0589 19.2348C13.2557 19.9651 13.5583 20.6627 13.9571 21.3057C14.2449 21.7983 14.5589 22.2751 14.8978 22.7342C15.999 24.2421 17.3833 25.5224 18.9738 26.5041C19.772 27.0029 20.625 27.4084 21.5161 27.7128C22.4417 28.1313 23.4637 28.2919 24.4735 28.1777C25.0489 28.0908 25.5941 27.8642 26.061 27.5178C26.5279 27.1715 26.9024 26.7159 27.1514 26.1913C27.2977 25.8744 27.3421 25.5201 27.2785 25.177C27.126 24.4754 26.1853 24.0613 25.6091 23.7231Z" fill="#00D95F"/>
</svg>
