<svg width="41" height="23" viewBox="0 0 41 23" fill="none" xmlns="http://www.w3.org/2000/svg">
<path fill-rule="evenodd" clip-rule="evenodd" d="M39.2576 2.03422C39.5365 1.16251 39.2576 0.521973 37.9302 0.521973H33.5407C32.4246 0.521973 31.91 1.0753 31.631 1.68547C31.631 1.68547 29.3987 6.78492 26.2365 10.0974C25.2134 11.0562 24.7484 11.3613 24.1903 11.3613C23.9113 11.3613 23.5074 11.0562 23.5074 10.1846V2.03423C23.5074 0.988171 23.1835 0.521973 22.2533 0.521973H15.3555C14.6581 0.521973 14.2386 1.00747 14.2386 1.4676C14.2386 2.45923 15.8196 2.68792 15.9826 5.47739V11.5357C15.9826 12.864 15.7267 13.1048 15.1686 13.1048C13.6805 13.1048 10.0608 7.98254 7.91398 2.12136C7.49326 0.982153 7.07127 0.521973 5.94944 0.521973H1.55992C0.305774 0.521973 0.0549316 1.0753 0.0549316 1.68547C0.0549316 2.77512 1.54307 8.17966 6.98397 15.3276C10.6112 20.209 15.7217 22.8551 20.3721 22.8551C23.1623 22.8551 23.5075 22.2674 23.5075 21.255V17.5657C23.5075 16.3902 23.7718 16.1557 24.6554 16.1557C25.3064 16.1557 26.4225 16.4607 29.0268 18.8143C32.003 21.6037 32.4937 22.8551 34.1677 22.8551H38.5573C39.8114 22.8551 40.4385 22.2674 40.0767 21.1076C39.6809 19.9516 38.2599 18.2745 36.3744 16.2864C35.3512 15.1532 33.8166 13.9329 33.3516 13.3226C32.7005 12.5381 32.8866 12.1894 33.3516 11.4921C33.3516 11.4921 38.6996 4.43134 39.2576 2.03422Z" fill="#2787F5"/>
</svg>
