<svg width="27" height="27" viewBox="0 0 27 27" fill="none" xmlns="http://www.w3.org/2000/svg">
<path fill-rule="evenodd" clip-rule="evenodd" d="M1.7998 0.9C1.7998 0.402944 2.20275 0 2.6998 0H24.2998C24.7969 0 25.1998 0.402944 25.1998 0.9V26.1C25.1998 26.4119 25.0383 26.7016 24.773 26.8656C24.5076 27.0296 24.1763 27.0445 23.8973 26.905L20.6998 25.3062L17.5023 26.905C17.2489 27.0317 16.9507 27.0317 16.6973 26.905L13.4998 25.3062L10.3023 26.905C10.0489 27.0317 9.75069 27.0317 9.49731 26.905L6.2998 25.3062L3.1023 26.905C2.82331 27.0445 2.49198 27.0296 2.22665 26.8656C1.96131 26.7016 1.7998 26.4119 1.7998 26.1V0.9ZM7.1998 9H10.7998V7.2H7.1998V9ZM14.3998 9H19.7998V7.2H14.3998V9ZM10.7998 14.4H7.1998V12.6H10.7998V14.4ZM14.3998 14.4H19.7998V12.6H14.3998V14.4ZM19.7998 19.8H14.3998V18H19.7998V19.8Z" fill="white"/>
</svg>
