<svg width="252" height="82" viewBox="0 0 252 82" fill="none" xmlns="http://www.w3.org/2000/svg">
<g clip-path="url(#clip0_17_4613)">
<path d="M28.7612 17.6387H61.5911V22.3227H33.9549V34.2288H50.6712V38.903H33.9549V53.6019H63.2888V58.2859H28.7612V17.6387Z" fill="white"/>
<path d="M84.3851 58.3153L64.213 17.6387H69.8688L85.9422 50.2603L102.016 17.6387H107.742L87.5997 58.3153H84.3851Z" fill="white"/>
<path d="M126.839 58.3153L106.717 17.6387H112.363L128.436 50.2603L144.509 17.6387H150.236L130.094 58.3153H126.839Z" fill="white"/>
<path d="M153.621 17.6387H156.333L183.457 48.0751V17.6387H188.641V58.3153H186.009L158.885 27.8789V58.3153H153.701L153.621 17.6387Z" fill="white"/>
<path d="M210.521 22.2933H192.94V17.6387H233.275V22.3227H215.704V58.3153H210.521V22.2933Z" fill="white"/>
<path d="M0 0V75.9245H148.558V71.5344H4.46035V4.35086H247.57V71.5344H223.5V75.8853H252V0H0Z" fill="white"/>
<path d="M163.376 78.0216H161.427V77.0417L161.296 77.1593C161.185 77.2583 161.068 77.35 160.944 77.4337C160.758 77.5594 160.563 77.6739 160.362 77.7767C160.107 77.8901 159.841 77.9787 159.568 78.0412C159.242 78.1322 158.903 78.1751 158.564 78.1686C157.702 78.1966 156.86 77.9101 156.203 77.3651C155.915 77.1456 155.681 76.8664 155.518 76.5478C155.355 76.2291 155.266 75.879 155.259 75.5228C155.24 74.8278 155.499 74.153 155.982 73.6414C156.519 73.1031 157.227 72.7578 157.991 72.6615L161.397 72.0833C161.401 71.856 161.355 71.6305 161.261 71.4224C161.168 71.2143 161.029 71.0285 160.854 70.878C160.47 70.5468 159.97 70.3716 159.458 70.388C158.992 70.3832 158.531 70.4838 158.112 70.682C157.793 70.8247 157.509 71.0318 157.278 71.2896L157.027 71.6129L155.761 70.388C155.81 70.3194 155.864 70.254 155.922 70.192C156.058 70.0475 156.206 69.9132 156.364 69.7903C156.596 69.5944 156.845 69.4174 157.107 69.2611C157.424 69.0859 157.761 68.9478 158.112 68.8496C158.543 68.7307 158.989 68.6713 159.438 68.6732C160.464 68.632 161.466 68.9837 162.23 69.6531C162.582 69.9567 162.863 70.3312 163.052 70.7508C163.241 71.1704 163.334 71.625 163.325 72.0833L163.376 78.0216ZM158.905 76.5028C159.247 76.5219 159.589 76.4708 159.909 76.3526C160.229 76.2344 160.52 76.0519 160.764 75.8168C161.235 75.2711 161.472 74.5691 161.427 73.857V73.6708L158.413 74.1411C158.093 74.192 157.798 74.3394 157.569 74.5625C157.463 74.6705 157.38 74.798 157.324 74.9376C157.269 75.0773 157.243 75.2262 157.248 75.3758C157.252 75.5339 157.295 75.6886 157.374 75.8269C157.452 75.9651 157.564 76.0827 157.7 76.1696C158.052 76.4084 158.476 76.5256 158.905 76.5028Z" fill="white"/>
<path d="M172.688 77.4728V76.6987L172.567 76.8163C172.453 76.9152 172.332 77.0068 172.206 77.0907C172.02 77.2186 171.826 77.3332 171.623 77.4337C171.372 77.5493 171.109 77.6412 170.84 77.708C170.513 77.7973 170.174 77.8402 169.835 77.8354C169.264 77.8347 168.701 77.7155 168.181 77.4857C167.661 77.2559 167.198 76.9208 166.821 76.5027C165.982 75.6291 165.514 74.4764 165.514 73.2788C165.514 72.0812 165.982 70.9285 166.821 70.0548C167.202 69.6419 167.666 69.3109 168.185 69.0831C168.704 68.8553 169.266 68.7357 169.835 68.7319C170.342 68.7324 170.843 68.8289 171.312 69.0161C171.677 69.1541 172.016 69.3494 172.316 69.5943L172.638 69.8686V68.8887H174.587V77.4141C174.593 78.013 174.477 78.6072 174.246 79.1618C174.014 79.7164 173.671 80.2203 173.236 80.6438C172.802 81.0673 172.286 81.402 171.717 81.6282C171.149 81.8543 170.539 81.9675 169.925 81.9609C169.412 81.9633 168.901 81.894 168.409 81.7551C167.993 81.6537 167.594 81.4953 167.223 81.2847C166.937 81.1239 166.665 80.9404 166.409 80.736C166.22 80.5989 166.051 80.4374 165.907 80.2558L165.746 80.0598L167.012 78.8349L167.133 78.9819C167.248 79.1051 167.372 79.2197 167.504 79.3249C167.686 79.491 167.885 79.6387 168.097 79.7659C168.352 79.9076 168.621 80.0226 168.901 80.1088C169.227 80.205 169.565 80.2545 169.905 80.2558C170.268 80.2663 170.63 80.2018 170.966 80.0667C171.301 79.9317 171.604 79.729 171.854 79.4719C172.391 78.9384 172.69 78.2202 172.688 77.4728ZM168.228 71.2699C167.723 71.8254 167.445 72.5417 167.445 73.2837C167.445 74.0256 167.723 74.7419 168.228 75.2974C168.455 75.5561 168.737 75.7638 169.054 75.9062C169.372 76.0486 169.717 76.1223 170.066 76.1223C170.415 76.1223 170.761 76.0486 171.078 75.9062C171.395 75.7638 171.677 75.5561 171.904 75.2974C172.409 74.7419 172.687 74.0256 172.687 73.2837C172.687 72.5417 172.409 71.8254 171.904 71.2699C171.677 71.0112 171.395 70.8035 171.078 70.6611C170.761 70.5187 170.415 70.445 170.066 70.445C169.717 70.445 169.372 70.5187 169.054 70.6611C168.737 70.8035 168.455 71.0112 168.228 71.2699Z" fill="white"/>
<path d="M185.989 74.1312H178.706C178.82 74.7876 179.178 75.3802 179.71 75.7971C180.246 76.263 180.942 76.5149 181.659 76.5026C182.596 76.4767 183.488 76.1015 184.15 75.4541L184.442 75.1013L185.697 76.336C185.646 76.4089 185.589 76.4777 185.527 76.5418C185.366 76.7053 185.194 76.8591 185.014 77.0024C184.759 77.2138 184.483 77.4009 184.191 77.561C183.832 77.7545 183.451 77.9058 183.055 78.0117C182.212 78.2724 181.31 78.2977 180.453 78.0847C179.595 77.8717 178.816 77.4289 178.203 76.8064C177.745 76.3561 177.386 75.8201 177.146 75.2307C176.906 74.6413 176.791 74.0107 176.807 73.3767C176.81 72.1473 177.311 70.9688 178.201 70.0986C179.091 69.2284 180.298 68.737 181.559 68.7318C182.163 68.717 182.764 68.8223 183.326 69.0411C183.887 69.2599 184.397 69.5878 184.824 70.0048C185.252 70.4218 185.588 70.9192 185.812 71.4669C186.037 72.0145 186.145 72.6009 186.129 73.1905L185.989 74.1312ZM181.518 70.3487C180.872 70.3299 180.242 70.5465 179.75 70.9563C179.251 71.3599 178.899 71.9097 178.746 72.5241H184.14C184.053 71.9035 183.733 71.3368 183.24 70.9346C182.748 70.5323 182.12 70.3234 181.478 70.3487H181.518Z" fill="white"/>
<path d="M190.158 68.9277V69.9076L190.278 69.79C190.393 69.6912 190.514 69.5995 190.64 69.5157C190.826 69.3886 191.021 69.274 191.223 69.1727C191.477 69.0556 191.743 68.9637 192.016 68.8983C192.343 68.8084 192.681 68.7654 193.021 68.7709C193.528 68.7528 194.034 68.8394 194.505 69.0252C194.976 69.2109 195.401 69.4916 195.753 69.8488C196.474 70.6605 196.835 71.7176 196.758 72.7886V78.09H194.819V72.72C194.83 72.4206 194.778 72.1222 194.668 71.8427C194.557 71.5631 194.39 71.3083 194.176 71.0933C193.973 70.8828 193.727 70.7164 193.453 70.605C193.18 70.4936 192.885 70.4396 192.589 70.4466C192.26 70.4306 191.932 70.4845 191.626 70.6047C191.321 70.7248 191.046 70.9083 190.821 71.1423C190.349 71.6876 190.111 72.3899 190.158 73.1022V78.0018H188.219V68.9277H190.158Z" fill="white"/>
<path d="M200.344 76.7967C199.677 76.1338 199.224 75.2943 199.042 74.3826C198.86 73.4708 198.956 72.5269 199.318 71.668C199.681 70.8091 200.294 70.0729 201.082 69.551C201.87 69.029 202.798 68.7442 203.75 68.7319C205.013 68.7525 206.221 69.2433 207.125 70.1038L207.537 70.535L206.271 71.7697C206.187 71.6364 206.09 71.5117 205.98 71.3973C205.733 71.1586 205.448 70.9601 205.136 70.8094C204.589 70.5014 203.951 70.3841 203.327 70.4767C202.702 70.5693 202.129 70.8663 201.7 71.3189C201.138 71.9008 200.825 72.6702 200.825 73.4699C200.825 74.2695 201.138 75.0389 201.7 75.6208C202.127 76.0766 202.7 76.3765 203.325 76.471C203.949 76.5655 204.589 76.4487 205.136 76.1402C205.494 75.9702 205.812 75.73 206.07 75.4346L206.372 75.0818L207.628 76.3165C207.576 76.3894 207.519 76.4582 207.457 76.5223C207.304 76.6872 207.14 76.8411 206.965 76.9829C206.718 77.1918 206.452 77.3787 206.171 77.5414C205.828 77.7322 205.464 77.8834 205.086 77.9922C204.656 78.1358 204.204 78.2087 203.75 78.2078C203.114 78.2118 202.483 78.0887 201.897 77.846C201.312 77.6033 200.783 77.2462 200.344 76.7967Z" fill="white"/>
<path d="M211.807 78.9623L212.188 77.9824L208.401 68.8887H210.41L213.133 75.5228L215.855 68.8887H217.864L213.675 78.9231C213.383 79.8051 212.919 80.6237 212.309 81.3337C212.076 81.5573 211.8 81.7325 211.496 81.8487C211.192 81.965 210.867 82.0198 210.541 82.0098C210.299 82.0095 210.057 81.9932 209.817 81.9608C209.645 81.9397 209.473 81.9069 209.305 81.8629H209.175V80.099C209.494 80.2238 209.835 80.2902 210.179 80.295C210.56 80.2688 210.922 80.1258 211.215 79.8864C211.507 79.647 211.714 79.3235 211.807 78.9623Z" fill="white"/>
</g>
<defs>
<clipPath id="clip0_17_4613">
<rect width="252" height="82" fill="white"/>
</clipPath>
</defs>
</svg>
