<svg width="99" height="50" viewBox="0 0 99 50" fill="none" xmlns="http://www.w3.org/2000/svg">
<rect x="4" y="4" width="42" height="42" rx="12" fill="#23262D"/>
<path d="M25.0557 32.3164C26.1104 32.3164 27.0186 32.1494 27.7803 31.8154C28.5479 31.4814 29.1367 31.0098 29.5469 30.4004C29.9629 29.7852 30.1709 29.0586 30.1709 28.2207V28.2119C30.1709 27.5557 30.0332 26.9932 29.7578 26.5244C29.4883 26.0557 29.0693 25.666 28.501 25.3555C27.9385 25.0449 27.2119 24.7988 26.3213 24.6172L24.9766 24.3359C24.2324 24.1836 23.6934 23.9785 23.3594 23.7207C23.0312 23.4629 22.8672 23.1289 22.8672 22.7188V22.71C22.8672 22.3936 22.958 22.1211 23.1396 21.8926C23.3213 21.6582 23.5732 21.4766 23.8955 21.3477C24.2236 21.2188 24.6074 21.1543 25.0469 21.1543C25.4863 21.1543 25.873 21.2217 26.207 21.3564C26.5469 21.4854 26.8193 21.6641 27.0244 21.8926C27.2295 22.1211 27.3555 22.3877 27.4023 22.6924L27.4199 22.7979H29.9248L29.916 22.6836C29.8633 21.9746 29.6377 21.3418 29.2393 20.7852C28.8408 20.2285 28.2871 19.792 27.5781 19.4756C26.875 19.1592 26.0312 19.001 25.0469 19.001C24.1094 19.001 23.2773 19.1621 22.5508 19.4844C21.8242 19.8066 21.2529 20.2607 20.8369 20.8467C20.4209 21.4326 20.2129 22.1182 20.2129 22.9033V22.9121C20.2129 23.8789 20.5117 24.6699 21.1094 25.2852C21.7129 25.8945 22.6709 26.334 23.9834 26.6035L25.3193 26.876C26.1104 27.04 26.6729 27.248 27.0068 27.5C27.3467 27.752 27.5166 28.0859 27.5166 28.502V28.5107C27.5166 28.833 27.4141 29.1201 27.209 29.3721C27.0098 29.6182 26.7314 29.8115 26.374 29.9521C26.0166 30.0928 25.6006 30.1631 25.126 30.1631C24.6338 30.1631 24.1973 30.0957 23.8164 29.9609C23.4355 29.8262 23.1309 29.6416 22.9023 29.4072C22.6797 29.167 22.5508 28.8857 22.5156 28.5635L22.5068 28.4844H19.9404L19.9492 28.6162C20.002 29.3721 20.2422 30.0283 20.6699 30.585C21.0977 31.1357 21.6836 31.5635 22.4277 31.8682C23.1719 32.167 24.0479 32.3164 25.0557 32.3164Z" fill="#969AA1"/>
<path fill-rule="evenodd" clip-rule="evenodd" d="M47.0455 0H47.0456V2.95455H50V2.95468H47.0456V5.90918V5.90923V8.86365V8.86373V11.8182H50V50L11.8181 50V47.0455H8.86354L8.86353 50L8.86353 47.0455H5.90906H5.90898H2.95452L2.95452 50H2.95445L2.95445 47.0455H0V47.0453H2.95445L2.95445 44.0908V44.0908L2.95445 41.1363L2.95445 38.1818H0V0H38.1819V2.95455H41.1365V0H41.1365V2.95455H44.091H44.0911H47.0455V0ZM11.8182 2.95455V3.00195e-06L8.86372 2.96672e-06L8.86364 2.96672e-06L5.90925 2.93149e-06L5.90917 2.93149e-06L2.95471 2.89626e-06V2.95455H5.90917H5.90925H8.86364H8.86372L11.8182 2.95455ZM8.86372 5.90912V2.95458H5.90925H5.90917H2.95471V5.90908V5.90912V8.86362H5.90925V5.90912H8.86372ZM2.32867e-05 2.86102e-06L2.32515e-05 2.95455H2.95457V2.89626e-06L2.32867e-05 2.86102e-06ZM2.32867e-05 5.90908V2.95458H2.95457V5.90908V5.90912V8.86362H2.32515e-05V5.90912L2.32867e-05 5.90908ZM1.16257e-05 11.8182L1.1661e-05 8.86364H2.95456V11.8182H1.16257e-05ZM47.0455 5.90923V8.86373H44.091V5.90923H41.1365V2.95468H44.091H44.0911H47.0455V5.90918V5.90923ZM41.1362 50H38.1818V47.0454H41.1362H41.1363H44.0906H44.0908H47.0452V50H44.0908H44.0906L41.1363 50L41.1362 50ZM41.1362 47.0454H44.0906H44.0908H47.0452L47.0452 44.0909L47.0452 44.0908V41.1364H44.0906V44.0908H41.1362V47.0454ZM49.9999 44.0909V47.0454H47.0454V44.0909V44.0908V41.1364H49.9999V44.0908V44.0909ZM49.9999 38.1818V41.1364H47.0454V38.1818H49.9999ZM2.95452 44.0908L2.95452 41.1363H5.90906L5.90906 44.0908H8.86353V47.0453H5.90906H5.90898H2.95452L2.95452 44.0908V44.0908ZM47.0454 47.0454V50L49.9999 50V47.0454H47.0454Z" fill="#447EF7"/>
<path d="M22 25H24V27H26V25H28V33H32V17H28V19H26V21H24V19H22V17H18V33H22V25Z" fill="white"/>
<path d="M63.888 23H66.48V15.224H67.776V23H70.368V13.928H69.072V12.632H61.296V13.928H60V23H62.592V15.224H63.888V23ZM72.9679 23H79.4479V20.408H74.2639V19.112H76.8559V16.52H74.2639V15.224H79.4479V12.632H72.9679V13.928H71.6719V21.704H72.9679V23ZM80.7422 21.704H82.0382V23H87.2222V21.704H88.5182V16.52H84.6302V19.112H85.9262V20.408H83.3342V15.224H88.5182V12.632H82.0382V13.928H80.7422V21.704ZM92.4045 19.112H94.9965V23H97.5885V13.928H96.2925V12.632H91.1085V13.928H89.8125V23H92.4045V19.112ZM92.4045 16.52V15.224H94.9965V16.52H92.4045Z" fill="white"/>
<path d="M61.008 36H65.04V34.992H66.048V32.976H64.032V33.984H62.016V29.952H64.032V30.96H66.048V28.944H65.04V27.936H61.008V28.944H60V34.992H61.008V36ZM69.0707 32.976H71.0867V36H73.1027V28.944H72.0947V27.936H68.0627V28.944H67.0547V36H69.0707V32.976ZM69.0707 30.96V29.952H71.0867V30.96H69.0707ZM74.1094 31.968H75.1174V32.976H78.1414V33.984H74.1094V36H79.1494V34.992H80.1574V31.968H79.1494V30.96H76.1254V29.952H80.1574V27.936H75.1174V28.944H74.1094V31.968ZM81.1641 36H83.1801V27.936H81.1641V36ZM88.2175 36H90.2335V28.944H89.2255V27.936H85.1935V28.944H84.1855V36H86.2015V29.952H88.2175V36ZM91.2402 34.992H92.2482V36H96.2802V34.992H97.2882V28.944H96.2802V27.936H92.2482V28.944H91.2402V34.992ZM93.2562 29.952H95.2722V33.984H93.2562V29.952Z" fill="white" fill-opacity="0.15"/>
</svg>
