<svg xmlns="http://www.w3.org/2000/svg" width="10" height="13" viewBox="0 0 10 13" fill="none">
<path d="M5 0C2.24302 0 0 2.02712 0 4.51874C0 7.65043 5.00492 13 5.00492 13C5.00492 13 10 7.49642 10 4.51874C10 2.02712 7.75707 0 5 0ZM6.5086 5.84183C6.09263 6.21769 5.54636 6.40566 5 6.40566C4.45373 6.40566 3.90729 6.21769 3.49148 5.84183C2.65961 5.09011 2.65961 3.86691 3.49148 3.11511C3.89429 2.75092 4.43011 2.55033 5 2.55033C5.56989 2.55033 6.10562 2.75099 6.5086 3.11511C7.34047 3.86691 7.34047 5.09011 6.5086 5.84183Z" fill="#D64238"/>
</svg>