<svg width="41" height="41" viewBox="0 0 41 41" fill="none" xmlns="http://www.w3.org/2000/svg">
<path d="M31.5843 40.3633C31.2013 40.3622 30.8195 40.3202 30.4454 40.238C23.3235 38.7648 16.7623 35.3105 11.517 30.2727C6.3837 25.2239 2.82345 18.7957 1.26705 11.7658C1.08353 10.8897 1.12857 9.98104 1.39784 9.12735C1.66711 8.27366 2.15155 7.50363 2.80455 6.89135L7.3601 2.50663C7.59279 2.28658 7.86925 2.11807 8.17147 2.0121C8.47368 1.90613 8.79484 1.86508 9.11399 1.89163C9.44491 1.92615 9.76425 2.03275 10.0496 2.20393C10.3349 2.37511 10.5792 2.60672 10.7654 2.88246L16.4598 11.2989C16.6734 11.6254 16.7765 12.0119 16.7539 12.4014C16.7313 12.791 16.5844 13.163 16.3345 13.4627L13.4759 16.8794C14.6144 19.3991 16.2267 21.6765 18.2251 23.5875C20.2105 25.5678 22.5572 27.149 25.1382 28.2455L28.6801 25.4325C28.9776 25.1974 29.3396 25.0584 29.718 25.0339C30.0964 25.0095 30.4732 25.1009 30.7984 25.2958L39.3971 30.8536C39.6921 31.0298 39.9435 31.2704 40.1324 31.5576C40.3212 31.8447 40.4427 32.1708 40.4876 32.5116C40.5325 32.8523 40.4997 33.1988 40.3917 33.525C40.2838 33.8513 40.1033 34.1489 39.864 34.3955L35.4223 38.7916C34.9178 39.2937 34.3189 39.691 33.6603 39.9607C33.0016 40.2305 32.296 40.3673 31.5843 40.3633ZM9.05977 3.81404L4.29233 8.10474C3.92499 8.44704 3.48861 9.05573 3.33884 9.53498C3.18908 10.0142 3.23176 10.9514 3.33884 11.442C4.78605 18.0386 8.06957 23.8582 12.8737 28.6047C17.8099 33.3443 24.2883 36.7552 30.99 38.1396C31.4973 38.2457 31.9233 38.2867 32.4202 38.1396C32.9172 37.9925 33.9594 37.5512 34.3272 37.1861L38.6179 32.8954L30.0365 27.1745L25.7458 30.5117C25.6002 30.627 25.6678 30.6034 25.4851 30.6372C25.3025 30.6709 24.9695 30.5673 24.7923 30.5117C21.6339 29.348 19.0263 27.6262 16.6648 25.2275C14.2223 22.9465 12.6514 20.2789 11.4435 17.1629C11.3924 16.9742 11.3956 16.8756 11.4435 16.6861C11.4914 16.4967 11.9202 16.2094 11.9202 16.2094L15.2574 12.3954L9.05977 3.81404Z" fill="black"/>
</svg>
