<svg width="23" height="23" viewBox="0 0 23 23" fill="none" xmlns="http://www.w3.org/2000/svg">
<path d="M17.0856 4.00261C16.9048 3.98831 16.723 4.01173 16.5516 4.07141C16.3803 4.13109 16.223 4.22572 16.0898 4.34937C15.9567 4.47302 15.8504 4.623 15.7777 4.7899C15.705 4.95679 15.6675 5.13698 15.6675 5.31915C15.6675 5.50131 15.705 5.6815 15.7777 5.84839C15.8504 6.01529 15.9567 6.16527 16.0898 6.28892C16.223 6.41257 16.3803 6.50721 16.5516 6.56688C16.723 6.62656 16.9048 6.64998 17.0856 6.63568C17.4155 6.60959 17.7234 6.45958 17.948 6.21555C18.1725 5.97153 18.2973 5.65145 18.2973 5.31915C18.2973 4.98685 18.1725 4.66676 17.948 4.42274C17.7234 4.17872 17.4155 4.0287 17.0856 4.00261Z" fill="#F2EDDF"/>
<path d="M11.2577 5.70654C10.1693 5.70654 9.10536 6.0307 8.20038 6.63801C7.2954 7.24533 6.59006 8.10852 6.17354 9.11845C5.75702 10.1284 5.64804 11.2397 5.86038 12.3118C6.07272 13.3839 6.59684 14.3688 7.36646 15.1417C8.13608 15.9147 9.11664 16.4411 10.1841 16.6543C11.2516 16.8676 12.3581 16.7582 13.3637 16.3398C14.3692 15.9215 15.2287 15.2131 15.8334 14.3042C16.4381 13.3953 16.7608 12.3267 16.7608 11.2335C16.7608 9.76769 16.1811 8.36188 15.149 7.32536C14.117 6.28885 12.7173 5.70654 11.2577 5.70654ZM11.2577 14.7715C10.561 14.7715 9.87997 14.564 9.30067 14.1752C8.72138 13.7865 8.26987 13.2339 8.00325 12.5875C7.73663 11.941 7.66687 11.2296 7.80279 10.5433C7.93872 9.85704 8.27421 9.22664 8.76686 8.73185C9.25951 8.23706 9.88719 7.9001 10.5705 7.76359C11.2538 7.62708 11.9621 7.69714 12.6058 7.96492C13.2495 8.2327 13.7996 8.68616 14.1867 9.26797C14.5738 9.84978 14.7804 10.5338 14.7804 11.2335C14.774 12.1684 14.4003 13.0628 13.7406 13.7223C13.0809 14.3819 12.1885 14.753 11.2577 14.7552V14.7715Z" fill="#F2EDDF"/>
<path d="M15.6246 22.4341H6.69625C4.91947 22.4276 3.21753 21.7147 1.96266 20.4514C0.7078 19.188 0.00213423 17.477 0 15.6924L0 6.72533C0.00643639 4.94083 0.716225 3.2315 1.97413 1.97119C3.23204 0.710874 4.93569 0.0021435 6.71249 0L15.6408 0C17.4204 0.00215731 19.1265 0.713128 20.3849 1.97696C21.6433 3.2408 22.3512 4.95431 22.3533 6.74164V15.7087C22.3469 17.4961 21.6348 19.2079 20.3734 20.4686C19.112 21.7294 17.4042 22.4362 15.6246 22.4341ZM6.71249 2.11135C5.49043 2.1135 4.31903 2.60203 3.4549 3.46991C2.59078 4.33779 2.10436 5.51427 2.10222 6.74164V15.7087C2.10436 16.9361 2.59078 18.1126 3.4549 18.9805C4.31903 19.8484 5.49043 20.3369 6.71249 20.339H15.6408C16.8629 20.3369 18.0343 19.8484 18.8984 18.9805C19.7625 18.1126 20.2489 16.9361 20.2511 15.7087V6.74164C20.2489 5.51427 19.7625 4.33779 18.8984 3.46991C18.0343 2.60203 16.8629 2.1135 15.6408 2.11135H6.71249Z" fill="#F2EDDF"/>
</svg>
