<svg width="22" height="16" viewBox="0 0 22 16" fill="none" xmlns="http://www.w3.org/2000/svg">
<path d="M18.279 0H4.00796C3.11437 0 2.25738 0.340468 1.62551 0.946506C0.99365 1.55254 0.638672 2.37451 0.638672 3.23157L0.638672 11.2269C0.638672 12.4928 1.16298 13.7069 2.09625 14.602C3.02952 15.4971 4.29531 16 5.61515 16H16.6719C17.99 15.9975 19.2533 15.4936 20.1845 14.5987C21.1157 13.7039 21.6387 12.4912 21.6387 11.2269V3.23157C21.6399 2.80764 21.554 2.38762 21.3857 1.99561C21.2174 1.60359 20.9702 1.24727 20.6581 0.947067C20.346 0.646865 19.9752 0.408683 19.567 0.246167C19.1587 0.0836519 18.7211 -1.76039e-06 18.279 0V0ZM17.7175 2.13581L12.2569 8.16251C12.1197 8.31094 11.9513 8.42977 11.7627 8.51115C11.5741 8.59254 11.3697 8.63461 11.1629 8.63461C10.9561 8.63461 10.7516 8.59254 10.563 8.51115C10.3744 8.42977 10.206 8.31094 10.0688 8.16251L4.55983 2.13581H17.7175ZM16.6719 13.8642H5.61515C4.8859 13.8642 4.18652 13.5863 3.67086 13.0918C3.1552 12.5972 2.8655 11.9264 2.8655 11.2269V3.51944L8.38417 9.56471C8.72863 9.94622 9.15461 10.2522 9.63321 10.4619C10.1118 10.6716 10.6318 10.7802 11.158 10.7802C11.6842 10.7802 12.2042 10.6716 12.6828 10.4619C13.1614 10.2522 13.5874 9.94622 13.9319 9.56471L19.4312 3.51944V11.2269C19.4312 11.574 19.3598 11.9177 19.221 12.2383C19.0822 12.5589 18.8788 12.85 18.6224 13.095C18.3661 13.3401 18.0618 13.5341 17.7271 13.6661C17.3924 13.7981 17.0338 13.8654 16.6719 13.8642Z" fill="#F2EDDF"/>
</svg>
