<svg width="17" height="25" viewBox="0 0 17 25" fill="none" xmlns="http://www.w3.org/2000/svg">
<path d="M12.5231 0H3.82404C2.86048 0 1.93638 0.410318 1.25504 1.14069C0.573693 1.87106 0.190918 2.86165 0.190918 3.89455L0.190918 20.1529C0.193627 21.1839 0.577598 22.1717 1.25865 22.8997C1.9397 23.6277 2.86225 24.0365 3.82404 24.0365H12.5231C13.4831 24.0336 14.403 23.6235 15.0819 22.8958C15.7607 22.1682 16.1433 21.182 16.146 20.1529V3.89455C16.146 2.86355 15.7646 1.87461 15.0855 1.14456C14.4063 0.414504 13.4849 0.00290423 12.5231 0V0ZM2.54477 3.89455C2.54477 3.53085 2.67955 3.18205 2.91946 2.92488C3.15937 2.66771 3.48476 2.52323 3.82404 2.52323H12.5231C12.8606 2.52612 13.1833 2.67188 13.421 2.92874C13.6587 3.1856 13.7921 3.53275 13.7921 3.89455V20.1529C13.7894 20.5128 13.6549 20.8572 13.4175 21.1117C13.1801 21.3662 12.8588 21.5104 12.5231 21.5133H3.82404C3.48653 21.5133 3.16268 21.3703 2.92306 21.1155C2.68344 20.8607 2.54747 20.5147 2.54477 20.1529V3.89455Z" fill="#F2EDDF"/>
<path d="M9.23786 20.1639H7.09893C6.78678 20.1639 6.48743 20.031 6.26671 19.7944C6.04599 19.5578 5.922 19.2369 5.922 18.9023C5.92467 18.5686 6.04953 18.2493 6.26967 18.0134C6.48981 17.7774 6.78761 17.6435 7.09893 17.6407H9.23786C9.39328 17.6392 9.54742 17.6708 9.6914 17.7335C9.83537 17.7963 9.96633 17.889 10.0767 18.0063C10.1871 18.1236 10.2747 18.2632 10.3345 18.4169C10.3943 18.5707 10.425 18.7357 10.425 18.9023C10.4264 19.0693 10.3966 19.2349 10.3373 19.3894C10.278 19.5439 10.1904 19.684 10.0798 19.8016C9.96912 19.9192 9.83762 20.0118 9.69302 20.0741C9.54842 20.1363 9.39366 20.1668 9.23786 20.1639Z" fill="#F2EDDF"/>
</svg>
