<svg width="53" height="53" viewBox="0 0 53 53" fill="none" xmlns="http://www.w3.org/2000/svg">
<path d="M47.3376 7.19862C46.9954 6.90288 46.5787 6.70647 46.1328 6.63071C45.6869 6.55494 45.2288 6.60271 44.8081 6.76882L6.59901 21.7796C6.0996 21.9759 5.67716 22.3286 5.3949 22.785C5.11265 23.2414 4.98574 23.7769 5.03316 24.3114C5.08059 24.8459 5.2998 25.3507 5.658 25.7502C6.01621 26.1498 6.49415 26.4226 7.02032 26.5279L17.3913 28.6023V41.4035C17.3862 41.896 17.5298 42.3786 17.8035 42.7881C18.0771 43.1976 18.468 43.515 18.925 43.6986C19.2311 43.8269 19.5596 43.8933 19.8915 43.8943C20.2158 43.8933 20.5368 43.8279 20.8357 43.7019C21.1345 43.5758 21.4054 43.3917 21.6326 43.1601L27.5529 37.2399L36.2881 44.927C36.7382 45.3267 37.3192 45.5478 37.9212 45.5485C38.1829 45.5482 38.443 45.507 38.692 45.4263C39.1026 45.2961 39.4718 45.0605 39.7629 44.743C40.054 44.4255 40.2567 44.0372 40.3509 43.6169L48.1382 9.63621C48.2398 9.19552 48.2189 8.73543 48.0778 8.30576C47.9367 7.87609 47.6807 7.49322 47.3376 7.19862ZM6.68265 24.1648C6.66212 23.986 6.70249 23.8054 6.79723 23.6523C6.89197 23.4993 7.03556 23.3826 7.20479 23.3212L42.2293 9.56126L18.0273 27.0405L7.34515 24.9039C7.16767 24.8732 7.00572 24.7836 6.8855 24.6495C6.76528 24.5154 6.69381 24.3446 6.68265 24.1648ZM20.4612 41.9892C20.3454 42.105 20.1978 42.1838 20.0372 42.2158C19.8765 42.2477 19.71 42.2313 19.5587 42.1686C19.4074 42.1059 19.2781 41.9997 19.1871 41.8636C19.0961 41.7274 19.0476 41.5673 19.0476 41.4035V29.7551L26.3069 36.1434L20.4612 41.9892ZM46.5237 9.26624L38.7363 43.2469C38.7042 43.3867 38.6364 43.5158 38.5395 43.6216C38.4426 43.7273 38.3198 43.8061 38.1833 43.8501C38.0468 43.8941 37.9012 43.902 37.7607 43.8728C37.6203 43.8436 37.4898 43.7785 37.3821 43.6837L19.5455 27.987L46.3898 8.5996C46.4604 8.69365 46.5091 8.80232 46.5323 8.91763C46.5555 9.03295 46.5526 9.152 46.5237 9.26603V9.26624Z" fill="black"/>
</svg>
