<svg width="53" height="53" viewBox="0 0 53 53" fill="none" xmlns="http://www.w3.org/2000/svg">
<path d="M26.5 5.79688C22.8754 5.79783 19.3146 6.75008 16.1734 8.55845C13.0322 10.3668 10.4207 12.968 8.59977 16.1019C6.77889 19.2359 5.81246 22.7929 5.79706 26.4174C5.78167 30.0419 6.71785 33.607 8.51204 36.7563L6.64772 43.2811C6.52605 43.7071 6.52051 44.1579 6.63166 44.5868C6.74282 45.0156 6.96663 45.4069 7.27991 45.7202C7.59319 46.0335 7.98454 46.2572 8.4134 46.3684C8.84227 46.4795 9.29305 46.4739 9.71903 46.3522L16.244 44.4881C18.9988 46.0587 22.0775 46.9755 25.2427 47.1679C28.4079 47.3603 31.575 46.823 34.4997 45.5977C37.4244 44.3723 40.0285 42.4915 42.1112 40.1003C44.194 37.7092 45.6997 34.8716 46.5122 31.8064C47.3247 28.7412 47.4222 25.5304 46.7974 22.4216C46.1725 19.3127 44.8419 16.3889 42.9082 13.8757C40.9745 11.3625 38.4894 9.32705 35.6445 7.92633C32.7996 6.52561 29.671 5.79706 26.5 5.79688ZM26.5 45.5469C23.0792 45.5492 19.7211 44.6289 16.7794 42.883C16.6824 42.8252 16.5746 42.788 16.4627 42.7734C16.3508 42.7589 16.237 42.7674 16.1285 42.7985L9.26398 44.7597C9.12199 44.8003 8.97175 44.8021 8.82881 44.765C8.68588 44.728 8.55546 44.6534 8.45106 44.5489C8.34666 44.4445 8.27208 44.3141 8.23504 44.1711C8.19801 44.0282 8.19986 43.878 8.24042 43.736L10.2014 36.8716C10.2324 36.7631 10.2409 36.6494 10.2264 36.5375C10.2119 36.4255 10.1746 36.3178 10.1169 36.2207C7.97165 32.6064 7.08197 28.384 7.5865 24.2113C8.09103 20.0387 9.96143 16.15 12.9063 13.1511C15.8513 10.1522 19.7053 8.21155 23.8681 7.63135C28.031 7.05115 32.2688 7.86403 35.9215 9.94335C39.5742 12.0227 42.4367 15.2517 44.0629 19.1274C45.6892 23.0031 45.988 27.3078 44.9128 31.371C43.8376 35.4342 41.4487 39.0277 38.1183 41.5918C34.7879 44.1558 30.703 45.5464 26.5 45.5469ZM36.9575 30.339L32.7217 27.9186C32.3384 27.6999 31.9039 27.5871 31.4627 27.5917C31.0215 27.5964 30.5895 27.7185 30.211 27.9453L27.3525 29.6603C25.6221 28.7836 24.2165 27.3779 23.3398 25.6474L25.0549 22.789C25.2817 22.4105 25.4036 21.9784 25.4083 21.5372C25.413 21.096 25.3001 20.6615 25.0814 20.2783L22.6612 16.0424C22.4635 15.6976 22.1784 15.411 21.8347 15.2115C21.4909 15.012 21.1005 14.9067 20.7031 14.9062C18.9504 14.9067 17.2694 15.6014 16.0277 16.8384C14.7861 18.0753 14.0851 19.7538 14.0781 21.5064C14.0748 23.7922 14.5223 26.0563 15.3948 28.1691C16.2673 30.2818 17.5477 32.2019 19.1629 33.8194C20.778 35.4369 22.6962 36.7201 24.8077 37.5956C26.9193 38.4711 29.1827 38.9218 31.4685 38.9219H31.4933C33.246 38.9149 34.9245 38.2139 36.1615 36.9723C37.3985 35.7307 38.0933 34.0495 38.0937 32.2969C38.0933 31.8994 37.988 31.5091 37.7885 31.1654C37.589 30.8216 37.3024 30.5366 36.9575 30.339ZM31.4911 37.2656H31.4687C29.4006 37.2656 27.3527 36.8579 25.4423 36.0658C23.5319 35.2737 21.7963 34.1127 20.335 32.6493C18.8736 31.1859 17.7151 29.4487 16.9257 27.5372C16.1362 25.6256 15.7314 23.5772 15.7343 21.5091C15.74 20.1951 16.266 18.9369 17.1973 18.0098C18.1285 17.0827 19.3891 16.5623 20.7031 16.5625C20.8086 16.5626 20.9123 16.5906 21.0036 16.6435C21.0949 16.6965 21.1706 16.7726 21.2231 16.8641L23.6433 21.1002C23.7162 21.2279 23.7539 21.3727 23.7523 21.5198C23.7508 21.6669 23.7102 21.8109 23.6346 21.937L21.6906 25.1767C21.6219 25.2912 21.5819 25.4207 21.574 25.554C21.5661 25.6874 21.5907 25.8206 21.6455 25.9425C22.7264 28.3481 24.6521 30.2737 27.0577 31.3545C27.1795 31.4093 27.3128 31.4339 27.4461 31.426C27.5795 31.4181 27.709 31.3781 27.8235 31.3093L31.0629 29.3653C31.1891 29.2897 31.3331 29.2491 31.4802 29.2475C31.6273 29.2459 31.7722 29.2835 31.8999 29.3564L36.1358 31.777C36.2274 31.8295 36.3035 31.9052 36.3564 31.9964C36.4094 32.0877 36.4374 32.1913 36.4375 32.2969C36.4376 33.6109 35.9173 34.8714 34.9902 35.8026C34.0632 36.7338 32.805 37.2599 31.4911 37.2656Z" fill="black"/>
</svg>
