<svg width="32" height="32" viewBox="0 0 32 32" fill="none" xmlns="http://www.w3.org/2000/svg">
<path fill-rule="evenodd" clip-rule="evenodd" d="M13.7555 0.929693L11.3469 3.33827C11.1518 3.53347 10.887 3.64313 10.611 3.64313H6.8173C5.06425 3.64313 3.64313 5.06425 3.64313 6.8173V10.611C3.64313 10.887 3.53347 11.1517 3.33827 11.3469L0.929694 13.7555C-0.309897 14.9951 -0.309898 17.0049 0.929693 18.2445L3.33827 20.6531C3.53347 20.8482 3.64313 21.113 3.64313 21.389V25.1827C3.64313 26.9358 5.06425 28.3569 6.8173 28.3569H10.611C10.887 28.3569 11.1517 28.4665 11.3469 28.6617L13.7555 31.0703C14.9951 32.3099 17.0049 32.3099 18.2445 31.0703L20.6531 28.6617C20.8483 28.4665 21.113 28.3569 21.389 28.3569H25.1827C26.9358 28.3569 28.3569 26.9357 28.3569 25.1827V21.389C28.3569 21.113 28.4665 20.8483 28.6617 20.6531L31.0703 18.2445C32.3099 17.0049 32.3099 14.9951 31.0703 13.7555L28.6617 11.3469C28.4665 11.1517 28.3569 10.887 28.3569 10.611V6.8173C28.3569 5.06425 26.9357 3.64313 25.1827 3.64313H21.389C21.113 3.64313 20.8483 3.53347 20.6531 3.33827L18.2445 0.929694C17.0049 -0.309897 14.9951 -0.309898 13.7555 0.929693ZM9.9125 20.5791L20.5792 9.91244L22.0877 11.4209L11.421 22.0876L9.9125 20.5791ZM10.6667 10.6667V12.8H12.8V10.6667H10.6667ZM19.2 21.3333H21.3333V19.2H19.2V21.3333Z" fill="#8AC44B"/>
</svg>
