<svg width="20" height="21" viewBox="0 0 20 21" fill="none" xmlns="http://www.w3.org/2000/svg">
<rect y="0.818176" width="20" height="20" rx="6" fill="#2B74B9"/>
<path d="M8.94 13.1582C8.94 12.7008 9.03333 12.2855 9.22 11.9122C9.40667 11.5295 9.63067 11.2075 9.892 10.9462C10.1533 10.6848 10.4147 10.4328 10.676 10.1902C10.9373 9.94751 11.1613 9.68151 11.348 9.39218C11.5347 9.09351 11.628 8.77618 11.628 8.44018C11.628 7.89884 11.4413 7.49284 11.068 7.22218C10.704 6.94218 10.2327 6.80218 9.654 6.80218C8.506 6.80218 7.79667 7.27351 7.526 8.21618L6.7 7.75418C6.91467 7.12884 7.288 6.65751 7.82 6.34018C8.36133 6.01351 8.97267 5.85018 9.654 5.85018C10.4753 5.85018 11.1707 6.07884 11.74 6.53618C12.3187 6.98418 12.608 7.61884 12.608 8.44018C12.608 8.84151 12.5147 9.21484 12.328 9.56018C12.1413 9.90551 11.9173 10.2088 11.656 10.4702C11.3947 10.7222 11.1333 10.9742 10.872 11.2262C10.6107 11.4782 10.3867 11.7722 10.2 12.1082C10.0133 12.4348 9.92 12.7848 9.92 13.1582H8.94ZM9.976 15.7342C9.82667 15.8835 9.64467 15.9582 9.43 15.9582C9.21533 15.9582 9.03333 15.8835 8.884 15.7342C8.73467 15.5848 8.66 15.4028 8.66 15.1882C8.66 14.9735 8.73467 14.7915 8.884 14.6422C9.03333 14.4928 9.21533 14.4182 9.43 14.4182C9.64467 14.4182 9.82667 14.4928 9.976 14.6422C10.1253 14.7915 10.2 14.9735 10.2 15.1882C10.2 15.4028 10.1253 15.5848 9.976 15.7342Z" fill="white"/>
</svg>
