<svg width="59" height="131" viewBox="0 0 59 131" fill="none" xmlns="http://www.w3.org/2000/svg">
<path d="M0 2C0 0.895433 0.895431 0 2 0H57C58.1046 0 59 0.895431 59 2V128.051C59 129.465 57.5735 130.432 56.2602 129.909L30.2398 119.55C29.7647 119.361 29.2353 119.361 28.7602 119.55L2.73978 129.909C1.42649 130.432 0 129.465 0 128.051V2Z" fill="#FCF6A0"/>
<path d="M28 27.14L35.308 27.14L28 22.1L28 21.05L37.8 21.05L37.8 22.352L30.478 22.352L37.8 27.392L37.8 28.442L28 28.442L28 27.14ZM35 35.2563L35 36.4743L28 36.4743L28 35.2563L30.926 35.2563L30.926 31.6303L28 31.6303L28 30.4123L35 30.4123L35 31.6303L32.088 31.6303L32.088 35.2563L35 35.2563ZM27.818 41.6183C27.818 40.5636 28.168 39.6863 28.868 38.9863C29.5773 38.2863 30.4547 37.9363 31.5 37.9363C32.5453 37.9363 33.418 38.2863 34.118 38.9863C34.8273 39.6863 35.182 40.5636 35.182 41.6183C35.182 42.309 35.014 42.9296 34.678 43.4803C34.3513 44.031 33.908 44.4416 33.348 44.7123L32.76 43.6903C33.1333 43.513 33.432 43.2376 33.656 42.8643C33.88 42.5003 33.992 42.085 33.992 41.6183C33.992 40.9183 33.754 40.3303 33.278 39.8543C32.802 39.3876 32.2093 39.1543 31.5 39.1543C30.8 39.1543 30.212 39.3876 29.736 39.8543C29.26 40.3303 29.022 40.9183 29.022 41.6183C29.022 42.085 29.1293 42.505 29.344 42.8783C29.568 43.2516 29.8667 43.5363 30.24 43.7323L29.638 44.7683C29.0873 44.4696 28.644 44.0403 28.308 43.4803C27.9813 42.9203 27.818 42.2996 27.818 41.6183ZM35 51.0695L33.824 51.0695L33.824 48.6895L28 48.6895L28 47.4715L33.824 47.4715L33.824 45.0775L35 45.0775L35 51.0695ZM35.182 56.0009C35.182 56.9809 34.8227 57.8162 34.104 58.5069C33.3947 59.1976 32.5267 59.5429 31.5 59.5429C30.4733 59.5429 29.6007 59.1976 28.882 58.5069C28.1727 57.8162 27.818 56.9809 27.818 56.0009C27.818 54.8436 28.28 53.9616 29.204 53.3549L25.2 53.3549L25.2 52.1369L35 52.1369L35 53.3549L33.796 53.3549C34.72 53.9616 35.182 54.8436 35.182 56.0009ZM28.994 55.8469C28.994 56.5469 29.232 57.1349 29.708 57.6109C30.1933 58.0869 30.7907 58.3249 31.5 58.3249C32.2093 58.3249 32.802 58.0869 33.278 57.6109C33.7633 57.1349 34.006 56.5469 34.006 55.8469C34.006 55.1376 33.7633 54.5449 33.278 54.0689C32.802 53.5929 32.2093 53.3549 31.5 53.3549C30.7907 53.3549 30.1933 53.5929 29.708 54.0689C29.232 54.5449 28.994 55.1376 28.994 55.8469ZM35 65.6088L35 66.9108L27.566 64.0548C26.7727 63.7562 26.1707 63.3362 25.76 62.7948C25.34 62.2535 25.1533 61.6375 25.2 60.9468L26.334 60.9468C26.2687 61.8055 26.7353 62.4355 27.734 62.8368L27.986 62.9488L35 59.9108L35 61.1988L29.512 63.5928L35 65.6088ZM28 73.8499L28 72.3379L31.318 69.1459L28 69.1459L28 67.9279L35 67.9279L35 69.1459L31.906 69.1459L35 72.1699L35 73.7379L31.612 70.3919L28 73.8499ZM29.162 80.8626L29.162 82.0106L26.124 82.0106L26.124 80.8066L28 80.8066L28 74.9826L35 74.9826L35 76.2006L29.162 76.2006L29.162 79.6446L35 79.6446L35 80.8626L29.162 80.8626ZM35 88.3908L35 89.3708L28 89.3708L28 88.1668L32.914 88.1668L28 84.2888L28 83.3088L35 83.3088L35 84.5128L30.086 84.5128L35 88.3908ZM35 96.4608L28 96.4608L28 95.2568L30.52 95.2568L30.52 94.2348L28 92.2748L28 90.7908L30.59 92.8348C30.7207 92.3121 30.982 91.8874 31.374 91.5608C31.766 91.2341 32.2233 91.0708 32.746 91.0708C33.39 91.0708 33.9267 91.2994 34.356 91.7568C34.7853 92.2141 35 92.7881 35 93.4788L35 96.4608ZM31.612 93.5208L31.612 95.2568L33.866 95.2568L33.866 93.5208C33.866 93.1754 33.7633 92.8814 33.558 92.6388C33.3527 92.3961 33.0773 92.2748 32.732 92.2748C32.396 92.2748 32.1253 92.3961 31.92 92.6388C31.7147 92.8814 31.612 93.1754 31.612 93.5208Z" fill="#62603B"/>
</svg>
