<svg width="20" height="20" viewBox="0 0 20 20" fill="none" xmlns="http://www.w3.org/2000/svg">
<g clip-path="url(#clip0_36_7010)">
<path d="M14.4699 9.20415C15.6399 8.04332 17.5366 8.04332 18.7066 9.20415C19.8766 10.3658 19.8766 12.2491 18.7066 13.41L14.1674 17.9167L9.62827 13.41C8.45827 12.2491 8.45827 10.3658 9.62827 9.20415C10.7983 8.04332 12.6949 8.04332 13.8649 9.20415L14.1674 9.50415L14.4699 9.20415ZM16.0366 3.96415C16.8199 4.74998 17.2891 5.72915 17.4441 6.74582C16.3333 6.53915 15.1616 6.73748 14.1674 7.33998C12.3758 6.25415 10.0058 6.48165 8.4541 8.02165C6.67827 9.78415 6.6291 12.6175 8.30577 14.4391L8.4541 14.5933L10.4716 16.5967L9.16744 17.9042L2.10077 10.8275C0.348272 8.86415 0.414105 5.84915 2.29827 3.96415C4.18577 2.07748 7.20494 2.01415 9.16827 3.77415C11.1258 2.01665 14.1508 2.07498 16.0366 3.96415Z" fill="#7237EC"/>
</g>
<defs>
<clipPath id="clip0_36_7010">
<rect width="20" height="20" fill="white"/>
</clipPath>
</defs>
</svg>
