<svg width="70" height="84" viewBox="0 0 70 84" fill="none" xmlns="http://www.w3.org/2000/svg">
<g clip-path="url(#clip0_696_15610)">
<path d="M35.1345 20.332C27.117 20.332 20.6191 26.8299 20.6191 34.795C20.6191 42.8125 27.117 49.3104 35.1345 49.3104C43.0996 49.3104 49.6499 42.8125 49.6499 34.795C49.6499 26.8299 43.0996 20.332 35.1345 20.332ZM35.1345 43.651C30.2611 43.651 26.2786 39.6684 26.2786 34.795C26.2786 29.9216 30.2611 25.9915 35.1345 25.9915C40.0079 25.9915 43.9905 29.9216 43.9905 34.795C43.9905 39.6684 40.0079 43.651 35.1345 43.651Z" fill="#D9232E"/>
<path d="M52.5323 52.2449L52.5847 52.1925C57.0389 47.7383 59.7638 41.6073 59.7638 34.795C59.7638 21.2229 48.707 10.166 35.1348 10.166C21.5627 10.166 10.5059 21.2229 10.5059 34.795C10.5059 41.6073 13.2832 47.7907 17.6849 52.1925C18.209 52.7165 18.9426 53.0309 19.7286 53.0309C21.3007 53.0309 22.5583 51.7733 22.5583 50.2012C22.5583 49.4152 22.1915 48.6816 21.6675 48.1575C18.2614 44.7514 16.1653 40.0352 16.1653 34.795C16.1653 24.3146 24.6544 15.8254 35.1348 15.8254C45.6153 15.8254 54.1044 24.3146 54.1044 34.795C54.1044 40.0352 52.0083 44.8038 48.5498 48.21L23.9208 72.8389L27.9558 76.8215L52.5323 52.2449Z" fill="#D9232E"/>
<path d="M69.9298 34.795C69.9298 15.6158 54.3664 0 35.1348 0C15.9033 0 0.339844 15.6158 0.339844 34.795C0.339844 44.3846 4.2176 53.1357 10.5059 59.3716C11.0299 59.8956 11.7111 60.21 12.5495 60.21C14.0692 60.21 15.3792 58.9524 15.3792 57.3803C15.3792 56.5943 15.0124 55.8606 14.4884 55.3366C9.2482 50.0964 5.99927 42.8125 5.99927 34.795C5.99927 18.76 19.0474 5.65943 35.1348 5.65943C51.2223 5.65943 64.2704 18.76 64.2704 34.795C64.2704 42.8649 61.0215 50.1488 55.7289 55.389L31.0999 80.018L35.1348 84.0006L59.7638 59.3716C66.0521 53.0833 69.9298 44.3846 69.9298 34.795Z" fill="#D9232E"/>
<path d="M2.77517 80.3767L5.17311e-06 76.3885L0.45186 75.935L3.51932 77.211L2.27257 74.108L2.72443 73.6545L6.6691 76.4691L6.0179 77.1226L3.6427 75.367L4.86227 78.3898L4.68951 78.5631L1.72926 77.3409L3.42638 79.7232L2.77517 80.3767Z" fill="#D9232E"/>
<path d="M5.92775 72.7525C6.10051 72.5792 6.28687 72.4459 6.48681 72.3528C6.68675 72.2597 6.88685 72.1933 7.11396 72.1804C7.32779 72.1808 7.52848 72.2213 7.74275 72.3019C7.95702 72.3826 8.14471 72.4899 8.31942 72.664C8.49412 72.838 8.61551 73.0388 8.69688 73.2527C8.76482 73.4533 8.81946 73.6673 8.79393 73.881C8.79511 74.0949 8.72941 74.2952 8.63697 74.4955C8.54454 74.6957 8.41194 74.8825 8.23917 75.0559C8.0664 75.2293 7.88005 75.3625 7.6801 75.4557C7.48016 75.5488 7.28007 75.6152 7.06624 75.6148C6.86585 75.6277 6.63844 75.5872 6.4376 75.5199C6.22333 75.4393 6.03549 75.3053 5.86079 75.1312C5.68609 74.9571 5.56485 74.7831 5.48347 74.5691C5.4021 74.3551 5.37418 74.1412 5.37299 73.9274C5.3718 73.7136 5.43751 73.5133 5.52994 73.313C5.62238 73.1127 5.75498 72.9259 5.92775 72.7525ZM7.68819 74.5069C7.86096 74.3335 7.95339 74.1332 7.95206 73.8927C7.95087 73.6788 7.86949 73.4649 7.69479 73.2908C7.52009 73.1167 7.31926 73.0494 7.09199 73.0356C6.85144 73.0351 6.65149 73.1282 6.46529 73.2882C6.29252 73.4616 6.21352 73.6752 6.22815 73.9025C6.22949 74.143 6.31071 74.3303 6.48541 74.5044C6.66011 74.6785 6.8611 74.7724 7.10165 74.7729C7.31548 74.7734 7.52886 74.6936 7.68819 74.5069Z" fill="#D9232E"/>
<path d="M9.38394 69.5522L9.97523 70.1414C9.85503 70.1546 9.74826 70.1811 9.62821 70.2209C9.5083 70.2875 9.40168 70.3407 9.29537 70.4474C9.10931 70.6341 9.03031 70.8478 9.04494 71.075C9.04628 71.3155 9.14079 71.4895 9.31549 71.6635C9.49019 71.8376 9.69118 71.9316 9.93173 71.9321C10.1588 71.9192 10.3588 71.8261 10.5448 71.6394C10.6246 71.5593 10.6909 71.4659 10.757 71.3458C10.8099 71.239 10.8226 71.1188 10.8219 70.9851L11.4266 71.5877C11.3872 71.7079 11.321 71.8281 11.2549 71.9482C11.1887 72.0683 11.1091 72.1751 11.0161 72.2684C10.8432 72.4151 10.6568 72.5483 10.4569 72.6415C10.2569 72.7346 10.0567 72.7743 9.8563 72.7872C9.65591 72.8002 9.45523 72.7597 9.24096 72.679C9.05341 72.5985 8.86557 72.4644 8.70431 72.3037C8.51617 72.1163 8.36805 71.9155 8.28667 71.7015C8.2053 71.4875 8.17738 71.2736 8.18948 71.0465C8.20173 70.846 8.25415 70.6591 8.33329 70.4721C8.41259 70.3119 8.5319 70.1384 8.67809 69.9918C8.7844 69.8851 8.90416 69.7918 9.02407 69.7252C9.13054 69.6452 9.26388 69.592 9.38394 69.5522Z" fill="#D9232E"/>
<path d="M9.86133 68.9375L10.4594 68.3374L11.306 69.181L11.2701 67.5238L12.0143 66.777L12.0117 68.7148L14.231 68.8797L13.4602 69.6532L11.8291 69.5162L11.8301 69.7033L12.623 70.4934L12.0249 71.0936L9.86133 68.9375Z" fill="#D9232E"/>
<path d="M13.2227 65.4303C13.3954 65.2569 13.5818 65.1237 13.7817 65.0305C13.9817 64.9374 14.1818 64.871 14.4089 64.8581C14.6227 64.8585 14.8234 64.899 15.0377 64.9797C15.2519 65.0603 15.4396 65.1676 15.6143 65.3417C15.789 65.5158 15.9104 65.7165 15.9918 65.9305C16.0597 66.1311 16.1144 66.345 16.1021 66.5454C16.09 66.7726 16.0243 66.9729 15.9319 67.1732C15.8395 67.3735 15.7069 67.5603 15.5341 67.7337C15.3613 67.907 15.175 68.0403 14.975 68.1334C14.7751 68.2265 14.5883 68.2796 14.3612 68.2925C14.1608 68.3055 13.9334 68.2649 13.7325 68.1977C13.5183 68.117 13.3304 67.983 13.1557 67.8089C12.981 67.6348 12.8598 67.4608 12.7784 67.2468C12.697 67.0329 12.6691 66.819 12.6679 66.6052C12.68 66.378 12.7324 66.191 12.8249 65.9907C12.9173 65.7905 13.0499 65.6037 13.2227 65.4303ZM14.9831 67.1846C15.1559 67.0112 15.2483 66.811 15.247 66.5704C15.2458 66.3566 15.1644 66.1426 14.9897 65.9685C14.815 65.7944 14.6142 65.7272 14.3869 65.7133C14.1464 65.7128 13.9464 65.806 13.7602 65.966C13.5874 66.1393 13.5084 66.353 13.5231 66.5802C13.5244 66.8207 13.6056 67.008 13.7803 67.1821C13.955 67.3562 14.156 67.4502 14.3966 67.4507C14.6104 67.4511 14.8238 67.3714 14.9831 67.1846Z" fill="#D9232E"/>
<path d="M14.9512 63.8311L15.8948 62.8842C16.0277 62.7508 16.1341 62.6708 16.2407 62.6176C16.3339 62.551 16.4407 62.5245 16.5474 62.498C16.6544 62.4982 16.7613 62.4984 16.8818 62.5388C16.9888 62.5657 17.0828 62.6327 17.1768 62.7265C17.2709 62.8202 17.3249 62.9272 17.3524 63.0609C17.3799 63.1946 17.3806 63.3283 17.3279 63.4618C17.3945 63.4218 17.4478 63.3952 17.5279 63.3687C17.6079 63.3421 17.6746 63.3289 17.7414 63.3156C17.8483 63.3159 17.9554 63.3428 18.0491 63.3831C18.1429 63.4234 18.2234 63.477 18.304 63.5574C18.4115 63.6645 18.4923 63.7716 18.5331 63.8919C18.5738 64.0123 18.5746 64.1459 18.5619 64.2662C18.5625 64.3731 18.5096 64.4799 18.4568 64.5867C18.4039 64.6935 18.3109 64.7868 18.2178 64.8802L17.1148 65.9871L14.9512 63.8311ZM16.4093 64.088L16.6884 63.8079L16.7814 63.7146C16.7945 63.6745 16.8077 63.6344 16.8075 63.6077C16.8207 63.5676 16.8338 63.5276 16.8202 63.4875C16.8066 63.4473 16.7798 63.4206 16.7394 63.3804C16.7126 63.3536 16.6857 63.3268 16.6455 63.3134C16.6054 63.2999 16.5652 63.2865 16.5252 63.2998C16.4984 63.2997 16.4584 63.313 16.4318 63.3397C16.4186 63.353 16.3652 63.3796 16.3121 63.433L16.033 63.713L16.4093 64.088ZM17.2425 64.9183L17.5348 64.6249C17.588 64.5715 17.6144 64.5181 17.6543 64.4781C17.6674 64.4381 17.6939 64.3847 17.707 64.3446C17.6934 64.3045 17.7066 64.2644 17.6795 64.2109C17.666 64.1708 17.6256 64.1306 17.5988 64.1038C17.5585 64.0636 17.5316 64.0369 17.4914 64.0234C17.4512 64.01 17.4112 64.0232 17.3711 64.0098C17.331 64.0231 17.291 64.0364 17.2512 64.0764C17.1978 64.103 17.158 64.143 17.1047 64.1696L16.799 64.4763L17.2425 64.9183Z" fill="#D9232E"/>
<path d="M18.8855 60.0164L19.4768 60.6056C19.3566 60.6188 19.2365 60.6586 19.1165 60.6984C19.0099 60.7517 18.89 60.8182 18.7969 60.9116C18.5976 61.1116 18.5186 61.3253 18.5332 61.5525C18.5478 61.7797 18.6291 61.967 18.8038 62.1411C18.9785 62.3152 19.1927 62.3958 19.42 62.4096C19.6471 62.3967 19.8471 62.3036 20.0331 62.1169C20.1262 62.0236 20.1925 61.9301 20.2453 61.8233C20.2982 61.7165 20.3242 61.583 20.3234 61.4493L20.9282 62.0519C20.8754 62.1855 20.8226 62.2923 20.7564 62.4124C20.6903 62.5325 20.6107 62.6393 20.5044 62.746C20.3315 62.8926 20.1451 63.0259 19.9452 63.119C19.7452 63.2121 19.545 63.2518 19.3579 63.2514C19.1575 63.2644 18.9435 63.2372 18.7425 63.1432C18.5417 63.076 18.3539 62.942 18.1926 62.7813C18.0044 62.5938 17.8696 62.3797 17.7882 62.1657C17.7069 61.9517 17.6657 61.7512 17.6778 61.524C17.69 61.3236 17.7424 61.1366 17.8216 60.9497C17.9142 60.7761 18.0202 60.616 18.1664 60.4693C18.2727 60.3626 18.3924 60.2693 18.5123 60.2027C18.6188 60.1228 18.7522 60.0696 18.8855 60.0164Z" fill="#D9232E"/>
<path d="M19.3242 59.4434L19.9223 58.8432L20.7689 59.6869L20.7197 58.043L21.4772 57.2829L21.4746 59.2206L23.6939 59.3856L22.9231 60.1591L21.292 60.0221L21.293 60.2092L22.0859 60.9993L21.4878 61.5994L19.3242 59.4434Z" fill="#D9232E"/>
<path d="M21.8223 56.9355L22.4336 56.3221L23.7775 57.6612L23.4171 55.3352L24.0284 54.7217L26.192 56.8778L25.5807 57.4912L24.2502 56.1655L24.5972 58.4781L23.9859 59.0916L21.8223 56.9355Z" fill="#D9232E"/>
<path d="M24.6395 54.1084L25.2376 53.5083L26.5814 54.8475L26.2343 52.5081L26.8324 51.908L28.996 54.064L28.3979 54.6641L27.0675 53.3384L27.4012 55.6644L26.8031 56.2645L24.6395 54.1084ZM25.0795 51.5168L25.653 51.3175C25.7611 51.5315 25.7892 51.7722 25.7371 52.0126C25.6715 52.2396 25.5391 52.4532 25.353 52.6399C25.167 52.8266 24.9672 52.9465 24.7136 53.0128C24.4868 53.0791 24.2461 53.0519 24.0317 52.9445L24.2422 52.357C24.3496 52.4374 24.4699 52.451 24.6169 52.4379C24.7504 52.4115 24.857 52.3582 24.9633 52.2515C25.0696 52.1448 25.1358 52.0247 25.1618 51.8911C25.161 51.7575 25.147 51.6372 25.0795 51.5168Z" fill="#D9232E"/>
<path d="M8.99158 78.3046L8.24735 79.0514L11.0157 81.8101L10.3778 82.4503L7.60943 79.6916L6.8652 80.4384L6.30078 79.876L8.42716 77.7422L8.99158 78.3046Z" fill="#D9232E"/>
<path d="M12.0896 80.1688L13.5275 81.6017L12.9295 82.2018L9.61016 78.8941L10.2082 78.294L10.4904 78.5752C10.4626 78.388 10.4616 78.201 10.5275 78.0274C10.5799 77.8404 10.6859 77.6802 10.8454 77.5202C11.151 77.2135 11.5111 77.0672 11.9389 77.0948C12.3532 77.109 12.715 77.2835 13.0375 77.6049C13.3735 77.9397 13.5627 78.3143 13.5784 78.7286C13.594 79.1429 13.4357 79.5168 13.1301 79.8235C12.9839 79.9702 12.8241 80.0768 12.664 80.1299C12.4907 80.1964 12.2903 80.2093 12.0896 80.1688ZM11.2101 78.2292C11.0374 78.4026 10.9584 78.6163 10.9596 78.8301C10.9742 79.0573 11.0556 79.2713 11.2436 79.432C11.4183 79.6061 11.6192 79.7001 11.8331 79.7005C12.0736 79.701 12.2603 79.6212 12.4331 79.4479C12.6058 79.2745 12.6983 79.0742 12.6836 78.847C12.6957 78.6199 12.6011 78.4192 12.4264 78.2451C12.2517 78.071 12.0507 77.9771 11.8236 77.9899C11.5963 77.9761 11.3829 78.0559 11.2101 78.2292Z" fill="#D9232E"/>
<path d="M14.3576 74.6942L14.0754 74.413L14.6734 73.8129L16.837 75.9689L16.239 76.5691L15.9568 76.2878C15.998 76.4884 15.999 76.6755 15.9331 76.8491C15.8806 77.0093 15.7879 77.1561 15.6417 77.3028C15.3227 77.6229 14.9494 77.7825 14.535 77.7683C14.1072 77.7407 13.7321 77.5795 13.4096 77.2581C13.0737 76.9233 12.8979 76.5621 12.8822 76.1478C12.8531 75.7201 12.9981 75.3596 13.3171 75.0395C13.4633 74.8928 13.6364 74.7729 13.8099 74.7332C13.9832 74.6667 14.1703 74.6671 14.3576 74.6942ZM14.0141 75.4152C13.8281 75.6019 13.7624 75.8022 13.7503 76.0294C13.7649 76.2566 13.8595 76.4572 14.0342 76.6313C14.2089 76.8054 14.4099 76.8994 14.6238 76.8998C14.8643 76.9003 15.051 76.8205 15.237 76.6338C15.4098 76.4604 15.4889 76.2735 15.4743 76.0463C15.4864 75.8191 15.3917 75.6185 15.217 75.4444C15.0423 75.2703 14.8414 75.1763 14.6141 75.1625C14.387 75.1754 14.1869 75.2418 14.0141 75.4152Z" fill="#D9232E"/>
<path d="M17.3941 75.409L15.2305 73.2529L15.8418 72.6395L16.6078 73.4028L17.4451 72.5626L16.6791 71.7993L17.2904 71.1858L19.454 73.3419L18.8427 73.9553L17.9692 73.0849L17.1319 73.9251L18.0054 74.7955L17.3941 75.409Z" fill="#D9232E"/>
<path d="M19.5382 69.0649L20.1295 69.6541C20.0093 69.6672 19.8758 69.6937 19.7692 69.7469C19.6492 69.7868 19.556 69.8534 19.4497 69.9601C19.2636 70.1468 19.1713 70.3738 19.1859 70.601C19.1871 70.8148 19.2818 71.0155 19.4564 71.1629C19.6445 71.3503 19.8455 71.4443 20.0726 71.4314C20.3131 71.4319 20.5131 71.3388 20.6991 71.1521C20.7789 71.072 20.8452 70.9786 20.898 70.8718C20.9375 70.7516 20.9769 70.6314 20.9762 70.4978L21.5674 71.087C21.5415 71.2206 21.4753 71.3408 21.4092 71.4609C21.343 71.581 21.25 71.6744 21.1569 71.7677C20.9842 71.9411 20.8111 72.061 20.6112 72.1542C20.4112 72.2473 20.211 72.287 20.0106 72.2999C19.8102 72.3129 19.6095 72.2724 19.3953 72.1917C19.2077 72.1112 19.0199 71.9771 18.8452 71.803C18.6705 71.629 18.5223 71.4282 18.441 71.2142C18.3596 71.0002 18.3317 70.7863 18.3438 70.5592C18.356 70.3587 18.3952 70.1851 18.4876 69.9848C18.5669 69.8246 18.6862 69.6511 18.8324 69.5044C18.9387 69.3978 19.0585 69.3045 19.1649 69.2245C19.2848 69.1579 19.4047 69.0914 19.5382 69.0649Z" fill="#D9232E"/>
<path d="M19.9883 68.4785L22.0216 66.4381L24.1852 68.5941L23.5739 69.2076L21.9344 67.5738L21.1104 68.4007L22.7499 70.0344L22.1519 70.6346L19.9883 68.4785Z" fill="#D9232E"/>
<path d="M23.6031 64.7177C23.7759 64.5444 23.949 64.4244 24.1489 64.3313C24.3622 64.2248 24.549 64.1718 24.7761 64.1589C24.9765 64.1459 25.2039 64.1865 25.4182 64.2671C25.619 64.3343 25.8068 64.4684 25.9815 64.6425C26.1562 64.8166 26.2909 65.0039 26.3588 65.2045C26.4402 65.4185 26.4681 65.6324 26.4693 65.8462C26.4438 66.06 26.4048 66.2604 26.2991 66.474C26.2199 66.6609 26.0739 66.8343 25.9011 67.0077C25.7284 67.1811 25.5554 67.3277 25.3555 67.4209C25.1556 67.514 24.942 67.567 24.7416 67.58C24.5145 67.5928 24.3138 67.5523 24.0996 67.4717C23.8987 67.4045 23.6976 67.2838 23.5229 67.1097C23.3482 66.9356 23.2268 66.7349 23.1589 66.5343C23.0775 66.3203 23.0229 66.1064 23.0484 65.8926C23.0472 65.6788 23.1129 65.4785 23.2053 65.2782C23.2978 65.0779 23.4304 64.8911 23.6031 64.7177ZM25.3636 66.472C25.5364 66.2987 25.6288 66.0984 25.6142 65.8712C25.6128 65.6306 25.5316 65.4434 25.3569 65.2693C25.1822 65.0952 24.9947 65.0146 24.7541 65.0141C24.5268 65.0003 24.3135 65.08 24.1407 65.2534C23.9679 65.4268 23.8889 65.6404 23.8903 65.881C23.8914 66.0948 23.9728 66.3088 24.1475 66.4829C24.3222 66.657 24.5231 66.7242 24.7503 66.738C24.9909 66.7385 25.2043 66.6588 25.3636 66.472Z" fill="#D9232E"/>
<path d="M27.8099 64.3918L29.2478 65.8247L28.6365 66.4382L25.3172 63.1304L25.9285 62.517L26.2107 62.7982C26.1697 62.6244 26.1819 62.4239 26.2345 62.2637C26.2869 62.0767 26.4062 61.9032 26.5524 61.7565C26.8714 61.4364 27.2314 61.2902 27.6592 61.3178C28.0603 61.3454 28.4354 61.5065 28.7713 61.8413C29.0938 62.1627 29.2697 62.5506 29.2854 62.9649C29.3011 63.3792 29.1561 63.7398 28.8371 64.0598C28.7042 64.1932 28.5444 64.2998 28.3711 64.3662C28.1977 64.4327 28.0106 64.4323 27.8099 64.3918ZM26.9305 62.4522C26.7577 62.6256 26.6787 62.8392 26.6799 63.0531C26.6812 63.2936 26.7759 63.4943 26.9506 63.6684C27.1253 63.8425 27.3263 63.9364 27.5534 63.9235C27.7807 63.9374 27.9806 63.8442 28.1534 63.6709C28.3261 63.4975 28.4186 63.2972 28.404 63.07C28.4028 62.8562 28.3214 62.6422 28.1333 62.4547C27.972 62.294 27.771 62.2 27.5439 62.2129C27.3166 62.1991 27.1032 62.2788 26.9305 62.4522Z" fill="#D9232E"/>
<path d="M30.201 59.2775L29.6163 59.8643L31.2558 61.4981L30.6445 62.1116L29.005 60.4778L28.4069 61.0779L27.8828 60.5557L29.6769 58.7553L30.201 59.2775Z" fill="#D9232E"/>
</g>
<defs>
<clipPath id="clip0_696_15610">
<rect width="69.93" height="84.0006" fill="white"/>
</clipPath>
</defs>
</svg>
