<svg width="180" height="74" viewBox="0 0 180 74" fill="none" xmlns="http://www.w3.org/2000/svg">
<path d="M30.7364 2.95117C19.7202 2.95117 10.7695 11.9018 10.7695 22.918C10.7695 33.9342 19.7202 42.8849 30.7364 42.8849C41.7526 42.8849 50.7033 33.9342 50.7033 22.918C50.7033 11.9018 41.7526 2.95117 30.7364 2.95117Z" fill="white"/>
<path d="M26.1623 38.7042C19.2772 36.737 14.2609 30.4421 14.2609 22.9176C14.2609 21.6881 14.4084 20.5078 14.6543 19.3275H14.7035C21.0968 19.9177 26.1623 25.1307 26.1623 31.9666V38.7042ZM37.5719 13.7702C37.9162 19.4259 34.6703 23.9504 29.654 26.3602C32.5556 31.0814 37.1785 33.7371 42.785 33.983C39.785 37.278 35.4572 39.3436 30.6376 39.3436C30.195 39.3436 29.7032 39.3436 29.2606 39.2944V26.2127C29.359 20.8521 32.2605 15.7866 37.5719 13.7702ZM15.6379 16.3276C18.1952 10.5736 23.9492 6.49169 30.6868 6.49169C34.1785 6.49169 37.4736 7.57364 40.1293 9.49164C44.3587 12.4424 47.1127 17.3603 47.1127 22.9176C47.1127 25.8192 46.3751 28.5241 45.0472 30.8847C40.6211 31.3273 36.3916 29.606 34.2277 27.1962C39.8834 23.3602 41.4079 16.3276 40.326 9.58999C33.6376 11.3605 27.5885 15.7374 26.6049 23.016C24.0968 19.3767 20.2116 16.8686 15.6379 16.3276ZM7.81836 22.9176C7.81836 10.2785 18.0477 0 30.736 0C43.3751 0 53.6536 10.2293 53.6536 22.9176C53.6536 35.5567 43.4243 45.8353 30.736 45.8353C18.0477 45.7861 7.81836 35.5567 7.81836 22.9176ZM30.6868 3.39338C19.9165 3.39338 11.2117 12.0981 11.2117 22.8684C11.2117 33.6387 19.9165 42.3435 30.6868 42.3435C41.4571 42.3435 50.1619 33.6387 50.1619 22.8684C50.1619 12.1473 41.4571 3.39338 30.6868 3.39338Z" fill="#889840"/>
<path d="M179.505 73.3755H179.062H175.817L172.62 66.933H168.784V73.3755H165.489V57.2446H174.292C176.997 57.2446 179.161 59.4085 179.161 62.1134C179.161 64.1789 177.833 65.9494 176.013 66.6871L179.505 73.3755ZM168.784 60.0479V64.3757H173.653C174.833 64.3757 175.817 63.3921 175.817 62.2118C175.817 61.0315 174.882 60.0479 173.653 60.0479H168.784ZM37.9665 64.1789H44.0156V66.933H37.9665V70.4739H46.4746V73.3755H34.6715V57.2446H46.4746V60.1462H37.9665V64.1789ZM88.523 73.3755H88.0804H84.8346L81.6379 66.933H77.8019V73.3755H74.5069V57.2446H83.3592C86.064 57.2446 88.2279 59.4085 88.2279 62.1134C88.2279 64.1789 86.9001 65.9494 85.0805 66.6871L88.523 73.3755ZM77.8511 60.0479V64.3757H82.7198C83.9001 64.3757 84.8837 63.3921 84.8837 62.2118C84.8837 61.0315 83.9493 60.0479 82.7198 60.0479H77.8511ZM94.3262 65.3101C94.3262 68.31 96.6868 70.769 99.6376 70.769C102.539 70.769 104.9 68.31 104.9 65.3101C104.9 62.3101 102.539 59.8512 99.6376 59.8512C96.6868 59.9003 94.3262 62.3101 94.3262 65.3101ZM108.244 65.3101C108.244 70.0805 104.457 73.7689 99.6376 73.7689C94.7688 73.7689 90.982 70.1296 90.982 65.3592C90.982 60.5888 94.7688 56.9004 99.6376 56.9004C104.457 56.9004 108.244 60.5888 108.244 65.3101ZM152.899 64.1789H158.997V66.933H152.899V70.4739H161.407V73.3755H149.604V57.2446H161.407V60.1462H152.899V64.1789ZM141.145 66.9822H134.555V73.4247H131.26V57.2938H134.555V64.1298H141.145V57.2938H144.44V73.4247H141.145V66.9822ZM53.2613 61.5233C53.2613 62.5068 53.4581 62.8019 56.999 63.638C59.0645 64.1298 60.0481 64.474 60.9333 65.015C62.212 65.9002 62.8513 67.0805 62.8513 68.6051C62.8513 71.8509 60.294 73.7689 56.3105 73.7689C52.2778 73.7689 49.7696 71.8018 49.5237 68.4084H52.8187C53.1138 70.1788 54.2941 71.0641 56.5564 71.0641C58.5727 71.0641 59.6055 70.1788 59.6055 68.9002C59.6055 68.2117 59.3104 67.769 58.4744 67.3264C58.1793 67.1789 57.6383 67.0313 57.1465 66.8838L56.5564 66.7363L56.2121 66.6871C54.0974 66.1461 52.5237 65.6051 51.786 65.1133C50.6548 64.3757 50.1139 63.2445 50.1139 61.8183C50.1139 58.8184 52.5728 56.9496 56.1629 56.9496C59.7039 56.9496 61.9661 58.6708 62.2612 61.72H59.0153C58.6711 60.2938 57.7367 59.6544 56.0154 59.6544C54.1958 59.6052 53.2613 60.3429 53.2613 61.5233ZM19.8685 57.2446L23.852 69.1952L27.8847 57.2446H31.3765L25.5241 73.3755H22.0324L16.2784 57.2446H19.8685ZM6.09825 73.3755V67.1297L0 57.1955H3.836L7.81953 64.1789L11.7539 57.1955H15.4915L9.44245 67.1297V73.3263H6.09825V73.3755ZM111.146 65.3592C111.146 60.5888 114.932 56.9004 119.801 56.9004C123.539 56.9004 126.637 59.1135 127.867 62.3101L128.014 62.7036H124.424C123.44 60.9823 121.768 59.9495 119.85 59.9495C116.949 59.9495 114.539 62.4085 114.539 65.4084C114.539 68.4084 116.9 70.8673 119.85 70.8673C121.768 70.8673 123.44 69.7854 124.424 68.1133H128.014L127.867 68.5067C126.637 71.7034 123.539 73.9165 119.801 73.9165C114.932 73.7689 111.146 70.1296 111.146 65.3592Z" fill="#68513F"/>
</svg>
