<svg width="179" height="51" viewBox="0 0 179 51" fill="none" xmlns="http://www.w3.org/2000/svg">
<path d="M95.2188 13.1482C94.969 13.4502 94.8277 13.7874 94.8277 14.3737V30.4952H94.7381C94.7381 30.4952 85.891 14.7637 85.4633 14.0365C85.1606 13.5206 84.8225 13.1658 84.3771 12.8991C83.9318 12.6512 83.4688 12.4914 82.5795 12.4914H79.6603C78.9828 12.4914 78.5564 12.7217 78.2537 13.0777C78.0039 13.3784 77.8613 13.7169 77.8613 14.302V37.1537C77.8613 37.74 78.0039 38.0772 78.2537 38.3792C78.5564 38.734 78.9828 38.9642 79.6603 38.9642H81.3154C81.9916 38.9642 82.4192 38.734 82.722 38.3792C82.9705 38.0772 83.1131 37.74 83.1131 37.1537V20.6409H83.2027C83.2027 20.6409 92.3879 36.8693 92.7626 37.4733C93.2785 38.3251 94.1502 38.9642 95.3966 38.9642H98.2275C98.9037 38.9642 99.3314 38.734 99.6341 38.3792C99.8827 38.0772 100.025 37.74 100.025 37.1537V16.5391H137.214C137.589 16.5391 137.872 16.4334 138.087 16.256C138.318 16.0421 138.425 15.7577 138.425 15.3324V13.7697C138.425 13.3432 138.318 13.0589 138.087 12.8462C137.872 12.6688 137.589 12.5619 137.214 12.5619H96.6254C95.9492 12.5619 95.5215 12.7934 95.2188 13.1482ZM111.455 19.2556C105.277 19.2556 101.805 24.0682 101.805 29.1464C101.805 34.5617 105.527 39.3203 111.49 39.3203C114.463 39.3203 117.383 38.2018 119.055 36.2301C119.786 35.3783 120.374 34.1881 120.374 33.4608C120.374 33.2117 120.32 32.999 120.178 32.8392C120.036 32.6618 119.821 32.5549 119.448 32.5549H116.582C116.011 32.5549 115.62 32.7675 115.335 33.1941C114.499 34.4196 113.288 35.0587 111.508 35.0587C108.837 35.0587 107.111 33.0343 106.986 30.8148H119.377C119.928 30.8148 120.32 30.6902 120.587 30.4247C120.89 30.1404 121.032 29.7315 121.032 28.9677C121.032 26.6425 120.302 24.228 118.772 22.381C117.205 20.5163 114.819 19.2556 111.455 19.2556ZM130.556 19.2556C125.678 19.2556 122.474 21.5644 122.474 25.2572C122.474 26.5708 122.955 27.6365 123.738 28.4707C124.647 29.4484 125.946 30.1228 127.833 30.6021L131.909 31.6314C133.031 31.9157 134.027 32.2529 134.027 33.2293C134.027 34.7392 132.425 35.2538 130.717 35.2538C129.879 35.2538 129.008 35.094 128.295 34.7392C127.797 34.49 127.37 34.1352 127.067 33.6558C126.8 33.2469 126.712 32.9449 126.302 32.7147C126.052 32.5725 125.749 32.5549 125.34 32.5549H123.133C122.652 32.5549 122.421 32.6971 122.261 32.8921C122.101 33.0871 122.047 33.3715 122.047 33.6558C122.047 34.3655 122.296 35.2538 122.884 36.0527C124.237 37.8633 127.067 39.3203 130.68 39.3203C134.242 39.3203 139.173 37.8457 139.173 33.0871C139.173 31.8629 138.816 30.8148 138.158 29.963C137.321 28.8796 136.129 28.1335 134.099 27.6189L130.059 26.5884C128.384 26.1632 127.601 25.8612 127.601 24.8307C127.601 23.8367 128.492 23.0378 130.556 23.0378C131.767 23.0378 132.87 23.3045 133.583 24.0506C134.17 24.6722 134.064 24.9918 134.527 25.2396C134.811 25.3818 135.131 25.3818 135.631 25.3818H137.642C137.962 25.3818 138.194 25.329 138.371 25.1327C138.515 24.9729 138.603 24.725 138.603 24.3161C138.603 23.3926 137.997 22.2036 136.93 21.2976C135.506 20.0721 133.263 19.2556 130.556 19.2556ZM141.647 19.9312H140.65C140.277 19.9312 139.992 20.0369 139.779 20.2143C139.547 20.4282 139.439 20.7126 139.439 21.1378V22.3633C139.439 22.7899 139.547 23.073 139.779 23.2869C139.992 23.4643 140.277 23.5712 140.65 23.5712H141.647V32.4303C141.647 34.7027 142.27 36.1232 143.427 37.2606C144.496 38.3074 145.884 38.9642 148.305 38.9642H149.818C150.193 38.9642 150.476 38.8585 150.691 38.6811C150.922 38.4672 151.064 38.1829 151.064 37.7576V36.2125C151.064 35.786 150.922 35.5029 150.691 35.289C150.476 35.1116 150.193 35.0046 149.818 35.0046H149.605C148.643 35.0046 147.985 34.7568 147.54 34.3302C147.006 33.8332 146.739 33.0695 146.739 32.0755V23.5712H149.979C150.353 23.5712 150.638 23.4643 150.851 23.2869C151.082 23.073 151.189 22.7899 151.189 22.3633V21.1378C151.189 20.7126 151.082 20.4282 150.851 20.2143C150.638 20.0369 150.353 19.9312 149.979 19.9312H146.756V14.1422C146.756 13.6804 146.614 13.3432 146.4 13.0777C146.133 12.7581 145.76 12.5619 145.208 12.5619H143.196C142.644 12.5619 142.27 12.7581 142.003 13.0777C141.79 13.3432 141.647 13.6804 141.647 14.1422V19.9312ZM152.543 37.3839C152.543 37.8457 152.684 38.1829 152.899 38.4496C153.165 38.7692 153.539 38.9642 154.091 38.9642H156.209C156.761 38.9642 157.135 38.7692 157.402 38.4496C157.615 38.1829 157.758 37.8457 157.758 37.3839V14.1434C157.758 13.6817 157.615 13.3445 157.402 13.0777C157.135 12.7581 156.761 12.5619 156.209 12.5619H154.091C153.539 12.5619 153.165 12.7581 152.899 13.0777C152.684 13.3445 152.543 13.6817 152.543 14.1434V37.3839ZM107.022 27.0326C107.253 24.8483 108.927 23.2152 111.472 23.2152C113.965 23.2152 115.691 24.8483 115.923 27.0326H107.022ZM177.038 16.5391C177.411 16.5391 177.697 16.4334 177.91 16.256C178.142 16.0421 178.249 15.7577 178.249 15.3324V13.6804C178.249 13.0412 178.124 12.7217 177.91 12.4914C177.714 12.2775 177.394 12.1542 177.038 12.1542C176.753 12.1542 176.469 12.1894 175.988 12.2423L161.781 13.6452C161.372 13.6804 161.177 13.805 161.034 13.9648C160.874 14.1422 160.802 14.3737 160.802 14.6933V15.6155C160.802 15.9716 160.874 16.1314 160.999 16.2736C161.158 16.451 161.39 16.5391 161.71 16.5391H177.038ZM169.188 19.2556C163.01 19.2556 159.538 24.0682 159.538 29.1464C159.538 34.5617 163.26 39.3203 169.223 39.3203C172.196 39.3203 175.115 38.2018 176.788 36.2301C177.519 35.3783 178.107 34.1881 178.107 33.4608C178.107 33.2117 178.052 32.999 177.91 32.8392C177.768 32.6618 177.554 32.5549 177.181 32.5549H174.314C173.744 32.5549 173.353 32.7675 173.068 33.1941C172.232 34.4196 171.021 35.0587 169.241 35.0587C166.57 35.0587 164.843 33.0343 164.719 30.8148H177.145C177.697 30.8148 178.089 30.6902 178.355 30.4247C178.658 30.1404 178.8 29.7315 178.8 28.9677C178.8 26.6425 178.07 24.228 176.54 22.381C174.973 20.5163 172.552 19.2556 169.188 19.2556ZM164.755 27.0326C164.987 24.8483 166.659 23.2152 169.205 23.2152C171.698 23.2152 173.424 24.8483 173.656 27.0326H164.755Z" fill="#939CA1"/>
<path d="M57.7847 16.7524C53.1764 9.89635 49.1268 7.58627 47.9877 6.49918C46.7362 5.30009 45.7825 3.94123 45.1757 3.28696C43.8259 1.8161 42.0786 0.000495911 39.2049 0.000495911C36.4308 0.000495911 34.5977 1.80352 34.0023 3.36119C33.8295 3.80534 33.6932 4.34889 33.5696 4.54643C33.2971 4.99184 32.0709 7.07921 31.5625 7.90712H33.8547L32.7395 10.0071C34.0402 9.72272 34.9686 9.5126 36.2075 9.5126C37.31 9.5126 38.1023 9.77305 38.4492 10.4638C39.0939 11.7497 39.0939 15.6401 40.1838 18.5692C41.1994 21.3222 43.677 24.016 46.4637 26.0795C46.5003 26.1034 46.5382 26.116 46.5874 26.116C46.7236 26.116 46.8107 26.0179 46.8107 25.9185C46.8107 25.8442 46.7854 25.7952 46.7236 25.7335C44.3948 23.4108 42.5 20.8416 41.4845 18.0257C40.4803 15.2828 40.6418 11.4276 39.7625 9.71014C39.1796 8.57397 37.9421 8.27829 36.8016 8.27829C35.8858 8.27829 35.0305 8.46325 34.6343 8.54881L35.6373 6.85651H33.9405C34.3 6.2274 34.6709 5.64611 34.8576 5.3001C35.0178 5.00316 35.0809 4.63324 35.279 4.12744C35.9224 2.50812 37.3466 1.48267 39.2049 1.48267C41.5337 1.48267 42.8961 2.97743 44.246 4.47219C44.8654 5.16421 45.8809 6.6099 47.0579 7.68441C47.8628 8.4255 49.3993 9.25341 51.7647 11.6881C53.1272 13.096 54.7129 14.9242 56.3844 17.3701C62.3679 26.1034 66.2938 33.7999 68.4863 39.8041L68.4497 39.8293C62.1698 35.579 56.7314 31.5641 52.3475 26.6105C49.2378 23.09 46.5382 19.0134 44.1841 13.8119C44.0227 13.4659 43.8877 13.1451 43.7388 12.8116C43.677 12.6758 43.6152 12.638 43.5155 12.638C43.3919 12.638 43.3049 12.7248 43.3049 12.8481C43.3049 12.984 43.3667 13.281 43.5029 13.8736C44.7544 19.26 48.2223 24.0903 51.9262 28.1052C55.6174 32.0963 59.7906 35.53 63.2219 38.0263L65.8977 45.6599C65.9595 45.8461 66.0339 46.0436 66.0339 46.2286C66.0339 46.3644 65.9961 46.4752 65.9103 46.5494C65.8358 46.6236 65.7374 46.6614 65.5142 46.6614H64.7093C64.3624 46.6614 64.2249 46.6111 64.1012 46.5129C63.9776 46.4135 63.8918 46.2651 63.8287 46.0927C63.5941 45.3755 62.1812 41.3605 61.91 40.5452C61.8595 40.398 61.7724 40.3477 61.674 40.3477C61.5504 40.3477 61.4634 40.4471 61.4634 40.5578C61.4634 40.6572 61.5 40.7679 61.563 41.1139C61.9213 42.9421 62.3427 44.993 62.5155 45.7718C62.5912 46.1292 62.677 46.4638 62.677 46.7105C62.677 46.9319 62.6278 47.0565 62.4423 47.2414L61.6122 48.0819C61.4142 48.2795 61.3019 48.3285 61.1417 48.3285C60.9436 48.3285 60.7821 48.1926 60.7077 47.8466C59.7666 43.4605 58.3423 38.0263 57.9702 36.5177C57.8831 36.1855 57.8213 35.9993 57.6233 35.9993C57.4504 35.9993 57.3886 36.1226 57.3886 36.2711C57.3886 36.3818 57.4126 36.5177 57.4252 36.6171C57.6485 38.1735 58.553 43.8442 59.5307 49.0205C59.7048 49.9101 60.0391 50.4033 60.8074 50.4033C61.1543 50.4033 61.4873 50.2674 61.7977 49.9718C62.3061 49.4647 62.4537 49.3288 63.0617 48.7362C63.4944 48.3159 63.7922 48.1436 64.5352 48.1436H66.3682C66.8022 48.1436 67.0368 48.0328 67.2475 47.834C67.4456 47.6491 67.5692 47.3899 67.5692 47.0187C67.5692 46.6362 67.4708 46.328 67.3345 45.9442C66.864 44.6847 65.3527 40.4219 64.9061 39.2241L64.9439 39.1989C66.4918 40.3728 68.7462 41.8676 69.7378 41.8676C70.0468 41.8676 70.2336 41.7317 70.2336 41.2498C70.2336 38.9775 66.4426 29.6252 57.7847 16.7524Z" fill="#939CA1"/>
<path d="M15.2608 2.39662C15.5206 1.82791 16.0909 1.43283 16.7721 1.43283C17.7006 1.43283 18.4436 2.15001 18.4436 3.10122C18.4436 3.6561 18.1837 4.13925 17.775 4.43493C17.8621 4.75703 17.9239 5.04013 17.9239 5.31191C17.9239 6.34993 17.3045 7.07844 16.1653 7.46219C16.0164 8.0913 15.7439 8.66001 15.2974 9.08026C14.5543 9.79618 13.7987 9.79618 13.7987 10.0931C13.7987 10.2542 13.9109 10.3523 14.22 10.3523C15.5951 10.3523 16.9449 9.58732 17.1064 8.31401C18.4196 7.86986 19.2119 6.54747 19.2119 5.49812C19.2119 5.22509 19.1867 4.99106 19.0756 4.76961C19.4352 4.42235 19.8565 3.82973 19.8565 2.95275C19.8565 2.1865 19.521 1.40892 18.9268 0.84021C18.407 0.333149 17.6753 -0.000276566 16.8213 -0.000276566C15.5825 -0.000276566 14.7776 0.667835 14.3197 1.32211C12.9686 1.32211 11.2226 2.81686 11.2226 4.95457H11.0372C10.9123 4.21348 10.1453 3.71775 9.50061 3.68126C8.98086 2.12485 7.80385 0.79114 5.87118 0.79114C5.64915 0.79114 5.37666 0.80372 5.14075 0.84021C4.5718 0.320566 3.93977 -0.000276566 3.06048 -0.000276566C1.37507 -0.000276566 0 1.34727 0 3.05089C0 4.11408 0.483167 4.84259 1.4003 5.48554C1.4003 5.48554 1.38769 5.62143 1.38769 5.68308C1.38769 7.04195 2.87377 9.16708 5.07893 9.16708C5.07893 9.51183 5.5129 9.9824 5.99607 10.068V10.2416H5.80936C2.77537 10.2416 1.48735 11.6999 1.48735 12.675C0.582828 13.0462 0 14.0464 0 14.9725C0 16.8132 1.3511 18.123 3.13491 18.123C3.72909 18.123 4.33589 17.889 4.75724 17.5669C5.06632 17.6776 5.46244 17.7393 5.87118 17.7393C6.7265 17.7393 7.68022 17.4436 8.34883 16.4672C8.44849 16.4798 8.53427 16.4798 8.63393 16.4798C9.7239 16.4798 10.665 15.7626 11.1608 14.824C11.2844 14.59 11.3336 14.405 11.3336 14.2679C11.3336 14.1332 11.2718 14.0213 11.1356 14.0213C10.9627 14.0213 10.9375 14.1823 10.6284 14.4667C9.93458 15.097 8.86858 15.3311 7.77861 15.3311C7.24625 16.1099 6.59025 16.5176 5.83459 16.5176C5.27699 16.5176 4.84429 16.3691 4.39771 16.0722C4.03817 16.4672 3.59285 16.6283 3.15888 16.6283C2.18119 16.6283 1.48735 15.9489 1.48735 14.9599C1.48735 14.2679 1.93267 13.6514 2.55208 13.4161C2.6631 12.1931 3.97635 11.3652 5.6113 11.3652C5.82198 11.3652 6.03265 11.3778 6.25594 11.4029C6.5032 11.0078 7.09739 10.5876 7.94009 10.4756C8.11418 10.4517 8.24917 10.4391 8.34883 10.3901C8.44849 10.3397 8.49769 10.2416 8.49769 10.1296C8.49769 10.0315 8.45984 9.94465 8.36144 9.883C8.2744 9.83393 8.12554 9.81002 7.95271 9.77228C7.17182 9.62381 6.24333 9.14191 5.77278 7.968C3.90192 7.968 2.52685 6.47324 2.52685 4.79352V4.6828C1.90744 4.43493 1.48735 3.84231 1.48735 3.13771C1.48735 2.21166 2.21778 1.47058 3.14626 1.47058C3.70386 1.47058 4.18703 1.74235 4.49737 2.15001C4.75724 2.07578 5.0537 2.05061 5.33881 2.05061C6.7265 2.05061 8.21258 2.92759 8.49769 4.63247C10.2815 4.79352 10.7028 6.30086 10.8139 6.93123C10.8757 7.25207 10.9249 7.52385 11.1356 7.52385C11.3588 7.52385 11.408 7.27598 11.4825 6.94255C11.6187 6.31344 11.8546 5.80638 12.3252 5.4113C12.3252 3.79198 13.5388 2.39662 15.2608 2.39662Z" fill="#939CA1"/>
<path d="M18.8654 12.0822C18.2826 12.9101 17.8625 13.3178 16.5366 14.8742C14.7907 16.9377 13.8735 18.6061 12.3496 22.3115C12.5981 22.2864 12.9577 22.2625 13.3538 22.2625C13.5519 22.2625 13.7121 22.2625 13.9732 22.2738L14.1586 21.8787C15.014 20.0505 16.1645 17.5794 17.7755 15.677L18.3331 15.0227C19.992 13.0838 21.0201 11.9338 21.6648 9.29026C21.8881 8.35163 22.0735 7.5124 22.7055 6.90594C23.2745 6.36239 23.9936 6.12836 24.724 6.12836C25.3434 6.12836 25.8026 6.27683 26.4712 6.55993C27.078 6.81912 27.3 6.86945 27.9447 6.86945C28.168 6.86945 28.3282 6.85687 28.4771 6.84429L27.6104 8.00562L28.7874 8.83352C27.3127 9.26509 26.533 10.6869 26.2719 11.3411C26.2227 11.477 26.1987 11.5639 26.1987 11.6507C26.1987 11.7501 26.2479 11.8482 26.3968 11.8482C26.557 11.8482 26.6806 11.7249 26.8913 11.477C27.6104 10.6126 28.1806 10.0188 30.8298 9.19212L28.9602 7.78292L30.3719 5.7207H29.0473C28.2046 5.7207 27.647 5.70812 26.9165 5.37469C25.925 4.91796 25.4178 4.72042 24.5385 4.72042C23.4612 4.72042 22.4822 5.10292 21.6774 5.84401C20.7476 6.69582 20.4625 7.83324 20.1295 9.08139C19.8683 10.0439 19.5593 11.1071 18.8654 12.0822Z" fill="#939CA1"/>
<path d="M21.7147 20.4954C21.0082 21.4466 20.0419 22.6935 19.2988 24.0159C19.5347 24.1279 20.3156 24.5481 20.5881 24.6953C21.4422 23.4107 22.6318 21.8304 23.4114 20.6313C24.1179 19.5442 24.403 19.0749 24.4522 17.6166C24.4648 17.37 24.4648 17.1347 24.4888 16.9007C24.5506 16.147 24.7499 15.3808 25.4677 14.6774C26.0001 14.1452 26.7684 13.8747 27.5366 13.8747C28.2797 13.8747 28.7124 14.0835 29.357 14.0835C29.815 14.0835 30.1493 13.9728 30.447 13.8621L30.6829 13.7753L30.1127 15.1354L31.4499 15.6777C30.5959 16.2087 28.725 18.4948 28.725 21.2C28.725 22.1764 28.8739 23.0772 29.0845 23.88C29.1098 23.9668 29.159 24.0536 29.2952 24.0536C29.4188 24.0536 29.5059 23.9794 29.5185 23.8435L29.5311 23.5591C29.5677 22.7312 29.6295 21.4227 29.9638 20.2488C30.5214 18.2721 32.0201 16.4188 33.5188 15.5292L31.3881 14.6032L32.3052 12.3673L31.3023 12.5774C30.6955 12.7008 30.2489 12.8115 29.7166 12.8115C29.3696 12.8115 28.9735 12.7624 28.503 12.6504C28.1434 12.5649 27.7587 12.4906 27.215 12.4906C26.236 12.4906 25.1826 12.8605 24.4648 13.5526C23.1516 14.8007 23.0771 16.147 22.9901 17.3461C22.8791 18.939 22.5813 19.3341 21.7147 20.4954Z" fill="#939CA1"/>
<path d="M53.4968 21.2489C53.4098 21.1382 53.3354 21.0878 53.237 21.0878C53.0881 21.0878 53.0137 21.1872 53.0137 21.298C53.0137 21.4716 53.1373 21.6817 53.4476 22.2014C54.3887 23.7943 55.5531 25.3997 56.99 26.9083C58.5379 28.5503 60.3583 30.0816 62.3036 31.453L62.9104 31.8733C62.9974 31.9362 63.0593 31.9727 63.1337 31.9727C63.2573 31.9727 63.3444 31.8494 63.3444 31.75C63.3444 31.6883 63.3191 31.6254 63.2447 31.5637C61.4369 29.9218 59.4916 27.9199 57.6713 25.9936C56.2457 24.4737 54.7849 22.8682 53.4968 21.2489Z" fill="#939CA1"/>
<path d="M13.6372 15.6523C13.8227 15.3441 14.3803 14.5904 14.6036 14.3551C13.6498 12.4288 12.0893 10.588 11.4081 9.85826L10.8379 10.4144C11.4951 11.3656 12.5965 13.2064 13.6372 15.6523Z" fill="#939CA1"/>
<path d="M4.56007 4.49654C4.4478 4.39714 4.42383 4.33548 4.42383 4.26125C4.42383 4.17569 4.48564 4.07629 4.62189 4.07629C4.67109 4.07629 4.72029 4.08887 4.78337 4.11404C5.69924 4.48395 6.48013 4.91678 7.17397 5.44775C7.75554 5.8919 8.32575 6.4367 8.88209 7.09097L8.36234 7.68359C7.71895 7.15137 5.63742 5.41126 4.56007 4.49654Z" fill="#939CA1"/>
<path d="M13.3405 8.63574L12.6719 8.22808C13.1046 7.20264 13.6382 6.26401 14.269 5.55941C14.7156 5.05361 15.1369 4.64469 15.6075 4.23828C15.7185 4.15147 15.7803 4.07723 15.8913 4.07723C16.0162 4.07723 16.1032 4.17663 16.1032 4.27477C16.1032 4.32384 16.078 4.38549 16.0288 4.45973C15.2732 5.63364 13.7984 7.95631 13.3405 8.63574Z" fill="#939CA1"/>
<path d="M4.94289 14.3674C4.78141 14.4291 4.70698 14.4668 4.6212 14.4668C4.48495 14.4668 4.42188 14.3548 4.42188 14.268C4.42188 14.1824 4.45972 14.1334 4.54677 14.0579C6.06944 12.8726 7.40792 12.4033 9.25355 12.0938L9.47558 12.8362L4.94289 14.3674Z" fill="#939CA1"/>
<path d="M36.7129 4.78246C36.7129 4.34964 36.9362 3.5708 37.741 3.5708C38.0135 3.5708 38.2734 3.63245 38.4841 3.73185C38.7818 3.86774 38.9799 4.06528 38.9799 4.2754C38.9799 4.49811 38.7566 4.72081 38.4223 4.99258C38.0753 5.27568 37.63 5.53613 37.2705 5.53613C36.8378 5.53613 36.7129 5.12721 36.7129 4.78246Z" fill="#939CA1"/>
<path d="M24.1406 8.3883C24.1406 7.85734 24.4623 7.27604 25.0817 7.27604C25.3542 7.27604 25.6759 7.38676 25.9118 7.61073C26.0481 7.73403 26.1099 7.86866 26.1099 8.0058C26.1099 8.30274 25.8248 8.58584 25.4905 8.78338C25.2306 8.93185 24.9581 9.03125 24.7235 9.03125C24.3387 9.03125 24.1406 8.79471 24.1406 8.3883Z" fill="#939CA1"/>
<path d="M27.0527 16.011C27.0527 15.8877 27.0653 15.7392 27.1145 15.5907C27.2142 15.2699 27.4236 14.9604 27.9446 14.9604C28.1805 14.9604 28.4392 15.022 28.6498 15.1717C28.8365 15.2951 28.911 15.4548 28.911 15.6159C28.911 16.1469 28.0191 16.7646 27.5725 16.7646C27.2508 16.7646 27.0527 16.4551 27.0527 16.011Z" fill="#939CA1"/>
<path d="M22.1717 31.6016C20.5002 31.6016 19.7559 30.8114 19.7559 29.8111C19.7559 28.0559 22.8403 26.3397 25.6144 25.2765L26.3335 26.2038C24.6241 26.882 21.1814 28.3415 21.1814 29.601C21.1814 30.0451 21.4413 30.3673 22.4808 30.3673C24.2898 30.3673 26.2351 29.489 28.0303 28.612C28.1665 28.5504 28.328 28.4887 28.4768 28.4887C28.7115 28.4887 28.8603 28.563 29.0332 28.8096L29.3309 29.2172C27.238 30.3673 24.6241 31.6016 22.1717 31.6016Z" fill="#939CA1"/>
<path d="M26.7808 32.0716C25.1459 32.985 23.4491 33.5915 21.9504 33.5915C20.2776 33.5915 18.7916 32.8743 17.5527 31.0084C17.033 30.2182 16.6242 29.2305 16.1285 28.3535C15.5343 27.3155 14.8896 26.7594 13.7631 26.7594C12.7349 26.7594 11.7307 27.1796 10.666 27.6364L10.7152 27.8716C10.8023 28.2541 10.9511 28.5259 11.3094 28.5259C11.4709 28.5259 11.6324 28.4529 11.7194 28.4278C12.3136 28.2416 12.7463 28.0805 13.3543 28.0805C14.2828 28.0805 14.7282 28.6253 15.3602 29.959L15.5961 30.4535C14.9514 30.6762 13.4401 30.7869 12.3136 30.7869H11.7812L11.8683 31.3179C11.9048 31.5406 11.9919 31.7256 12.1773 31.8124C12.3994 31.9231 12.7223 31.9357 13.2799 31.9357C14.6916 31.9357 15.7197 31.7633 16.3139 31.6136C17.8378 33.8758 19.9307 34.7402 21.9504 34.7402C23.6712 34.7402 25.4184 34.1099 27.0912 33.1964L26.7808 32.0716Z" fill="#939CA1"/>
<path d="M28.4644 32.6273L28.168 31.4899C30.7188 30.1197 33.0476 29.02 36.7641 28.6614C36.8385 30.0819 36.7388 31.8736 37.7922 31.8736C38.7573 31.8736 40.8628 29.3899 43.2912 26.2771C43.5145 26.4872 43.8728 26.7099 44.1957 26.9565L43.5763 27.7593C41.2097 30.7991 39.1912 33.3936 37.5311 33.3936C35.9832 33.3936 35.4003 31.5767 35.3764 30.2178C33.011 30.4531 30.7806 31.2433 28.4644 32.6273Z" fill="#939CA1"/>
<path d="M61.238 7.83326C60.2717 7.83326 59.9992 7.30103 59.9992 6.54862C59.9992 4.99221 60.9781 2.75636 61.5975 1.48304H60.0976C59.3179 2.99039 56.2461 7.82067 54.5859 9.82249L55.5397 10.8467C56.4316 9.85898 57.4105 8.17926 58.4752 6.52345H58.6733C58.6733 6.61027 58.662 6.70841 58.662 6.79523C58.662 8.19185 59.3798 9.22862 61.151 9.22862C62.2409 9.22862 63.9503 8.68507 65.5613 8.14152C66.8985 7.68479 68.1247 7.21547 68.7315 7.0431V5.56092C68.0377 5.76978 66.626 6.31333 65.1639 6.82039C63.6286 7.35136 62.1173 7.83326 61.238 7.83326Z" fill="#939CA1"/>
<path d="M64.5462 12.3168C66.0323 11.6877 68.6954 10.6245 70.2319 10.0683V8.561C67.1475 9.69843 61.7342 11.9343 58.043 13.9361C58.1426 14.0581 58.7873 14.9603 58.8604 15.0723C60.421 14.4293 61.8213 14.0091 63.0841 14.0091C64.8565 14.0091 66.3048 14.0091 68.7332 13.4404V12.3042C67.3708 12.5521 65.9212 12.8477 64.9801 12.8477C64.4225 12.8477 64.2611 12.7735 64.2611 12.5885C64.2611 12.4778 64.3355 12.4036 64.5462 12.3168Z" fill="#939CA1"/>
<path d="M32.8122 19.26L32.2168 20.3975H38.5472L38.0766 19.26H32.8122Z" fill="#939CA1"/>
<path d="M10.0077 26.0417C10.6764 26.0417 11.2213 25.819 11.7424 25.6102C12.2369 25.4114 12.7327 25.2138 13.4013 25.2138C14.987 25.2138 16.9437 25.9801 18.6656 26.7086C18.7653 26.7463 18.8763 26.7702 18.9873 26.7702C19.2611 26.7702 19.4718 26.6469 19.6068 26.3877L19.83 25.9801C17.9352 24.8804 14.9126 23.7065 13.3395 23.7065C12.6216 23.7065 12.1006 23.8927 11.6061 24.089C11.0485 24.3129 10.5653 24.547 10.0569 24.547C8.80676 24.547 5.59868 23.3114 5.59868 22.1136C5.59868 20.7056 10.7016 20.1621 11.2592 20.1621L11.7663 19.0121C8.06372 19.0121 3.6534 20.3093 3.6534 22.0268C3.6534 22.5212 3.93851 22.7679 3.93851 23.2246C3.93851 23.8424 3.6534 24.2626 3.6534 24.9546C3.6534 25.4114 3.92589 25.9927 4.24758 26.4997C4.5945 27.0307 5.00324 27.3754 5.00324 27.8208C5.00324 28.1543 4.78121 28.5494 4.78121 29.3282C4.78121 30.9953 5.73493 32.0094 7.59191 33.9974L7.96406 34.3925C6.42877 34.9864 3.56635 36.222 2.89774 36.505C0.581567 37.4688 0 38.6428 0 40.4961C0 41.212 4.22962e-08 42.0274 0.0491998 42.7559H0.494521C1.42427 42.7559 1.53529 42.201 1.53529 41.67C1.53529 41.3114 1.52267 40.9038 1.52267 40.4584C1.53529 39.4342 1.57313 38.5195 3.23205 37.7784C3.90192 37.4814 7.18317 36.1477 9.62424 35.1097C10.342 34.8002 11.0107 34.541 11.7537 34.541C12.5838 34.541 13.5375 34.8996 14.7271 35.6042C15.7301 36.1968 16.7834 36.9995 17.6135 37.9256L18.6656 37.1228C17.7611 36.0609 16.5109 35.1097 15.2595 34.3686C14.0081 33.6275 12.8941 33.1947 11.953 33.1947C11.5443 33.1947 11.21 33.2689 10.9249 33.3432C10.5906 33.43 10.2802 33.5281 9.88411 33.5281C9.42618 33.5281 9.04141 33.4174 8.48381 32.7744C8.27314 32.5404 6.93591 31.0205 6.6508 30.5763C6.51456 30.3662 6.2673 29.946 6.2673 29.4515C6.2673 29.2414 6.30388 28.9948 6.42877 28.7721C7.57929 29.6616 9.00482 30.2052 10.7382 30.4153L10.5035 29.2414C8.01326 28.5871 5.36278 26.4003 5.36278 24.9924C5.36278 24.6954 5.43721 24.4853 5.54949 24.2261C6.51456 25.1157 8.78153 26.0417 10.0077 26.0417Z" fill="#939CA1"/>
<path d="M27.832 26.2647C29.3925 25.1651 31.0023 25.0418 32.3029 25.0418C33.0838 25.0418 33.9997 25.1525 34.966 25.2758C35.7469 25.3752 36.4521 25.4494 37.2948 25.4494C38.9916 25.4494 40.7009 24.8316 41.444 24.5095C41.6547 24.77 42.0142 25.116 42.2993 25.3626C41.9398 25.5853 39.6614 26.8196 37.3326 26.8196C36.3045 26.8196 35.3255 26.6976 34.4828 26.5856C33.7398 26.4874 32.9349 26.4006 32.154 26.4006C31.3 26.4006 29.578 26.6472 28.5133 27.1543L27.832 26.2647Z" fill="#939CA1"/>
<path d="M50.8346 30.6746C48.9764 34.5789 46.1518 37.4199 43.2541 39.0632C41.879 39.8407 40.6402 40.3478 37.9657 40.3478H32.1803C30.1127 40.3478 28.812 40.6196 27.7965 40.8788C26.7053 41.1631 26.0127 41.4462 24.9101 41.4462C23.2752 41.4462 21.7638 40.6435 21.0334 39.8785L22.3959 38.804L21.7146 37.9006C21.3185 38.1862 16.4755 41.7557 15.4587 42.5585L15.3969 42.522C15.4221 42.2754 15.4221 42.0527 15.4221 41.83C15.4221 39.1122 14.1581 38.4567 12.2393 37.6917L10.9386 38.4567C13.5765 39.3349 14.2325 40.0383 14.2325 42.0024C14.2325 43.56 13.6749 44.1766 12.87 44.6471C12.0399 45.129 11.0118 45.3505 10.1085 45.3505C9.72377 45.3505 9.55094 45.4247 9.4147 45.5606C9.26583 45.7091 9.19141 45.9318 9.19141 46.24V46.6729H9.50174C11.1607 46.6729 12.6972 46.4137 14.3814 45.0913L19.869 40.8171C20.6487 41.7067 22.6192 42.9422 24.9467 42.9422C26.26 42.9422 27.1027 42.6201 28.3163 42.3119C29.2574 42.0766 30.1745 41.8665 32.1803 41.8665H37.9897C40.9631 41.8665 42.4 41.2487 43.9845 40.3604C47.4285 38.4328 50.3641 35.1715 52.0243 31.4271C51.5903 31.1565 51.1815 30.9087 50.8346 30.6746Z" fill="#939CA1"/>
<path d="M41.5078 35.3201C43.0065 32.9232 44.3437 30.7981 47.6262 29.0693C47.2793 28.8591 46.7848 28.5383 46.5237 28.3647C45.2482 28.9208 43.9854 30.0318 42.9081 31.1566C40.4304 33.7259 40.6525 35.2081 38.0398 36.2096C37.3826 36.4562 36.5777 36.728 35.5496 36.9633C34.9428 35.0974 33.4201 33.244 31.8091 33.244C30.6939 33.244 29.4059 33.8241 27.9198 34.4796C26.1739 35.2458 24.5755 36.1228 24.0684 36.4562L24.7496 37.371C25.2693 37.0854 26.768 36.3443 28.2667 35.7026C29.5674 35.1464 30.7444 34.6897 31.5366 34.6897C32.812 34.6897 33.6421 36.1354 34.1013 37.2955C32.4285 37.6918 29.6784 37.79 28.8496 37.79C28.4648 37.79 28.3286 37.8516 28.1923 37.9636C28.0687 38.0743 27.969 38.2718 27.9072 38.5436L27.8088 38.9639H28.6994C33.3331 38.9639 37.7055 38.2354 40.5162 36.5305C40.9136 36.6425 41.2605 36.7154 41.7059 36.7154C43.3156 36.7154 44.9758 35.8385 46.0165 35.0357C46.3874 34.7514 46.4745 34.4909 46.4745 34.2078C46.4745 34.0719 46.4618 33.9486 46.4492 33.8241L46.4 33.3434C44.9139 34.5161 43.6751 35.3943 42.1398 35.3943C41.8673 35.3943 41.6693 35.3691 41.5078 35.3201Z" fill="#939CA1"/>
</svg>
