<svg width="28" height="27" viewBox="0 0 28 27" fill="none" xmlns="http://www.w3.org/2000/svg">
<path d="M5.37646 25.4984L6.81622 26.0501C7.22948 26.209 7.68664 26.209 8.09991 26.0501L8.89891 25.7434C9.31179 25.5845 9.76863 25.5845 10.1815 25.7434L10.9805 26.0501C11.3938 26.209 11.8509 26.209 12.2642 26.0501L13.0632 25.7434C13.4761 25.5845 13.9329 25.5845 14.3458 25.7434L15.1448 26.0501C15.5581 26.209 16.0152 26.209 16.4285 26.0501L17.2275 25.7434C17.6404 25.5845 18.0972 25.5845 18.5101 25.7434L19.3091 26.0513C19.7226 26.209 20.1793 26.209 20.5928 26.0513L22.0336 25.4995V7.17696L19.952 6.37695L18.5101 6.93089C18.0972 7.08982 17.6404 7.08982 17.2275 6.93089L15.7867 6.37916L14.3458 6.93089C13.9329 7.08982 13.4761 7.08982 13.0632 6.93089L11.6224 6.37916L10.1815 6.93089C9.76863 7.08982 9.31179 7.08982 8.89891 6.93089L7.45806 6.37916L5.37646 7.17696V25.4984Z" stroke="#A3A3A3" stroke-linecap="round" stroke-linejoin="round"/>
<path d="M19.9519 6.29599V1.92383" stroke="#A3A3A3" stroke-linecap="round" stroke-linejoin="round"/>
<path d="M15.8008 6.29599V1.92383" stroke="#A3A3A3" stroke-linecap="round" stroke-linejoin="round"/>
<path d="M11.6499 6.29599V1.92383" stroke="#A3A3A3" stroke-linecap="round" stroke-linejoin="round"/>
<path d="M7.49902 6.29599V1.92383" stroke="#A3A3A3" stroke-linecap="round" stroke-linejoin="round"/>
<path d="M18.2905 21.698V9.5752" stroke="#A3A3A3" stroke-linecap="round" stroke-linejoin="round"/>
<path d="M13.9358 21.698V9.5752" stroke="#A3A3A3" stroke-linecap="round" stroke-linejoin="round"/>
<path d="M9.58105 21.698V9.5752" stroke="#A3A3A3" stroke-linecap="round" stroke-linejoin="round"/>
<path d="M5.22656 1.92383H22.6453M22.6453 3.54315H5.22656" stroke="#A3A3A3" stroke-linecap="round" stroke-linejoin="round"/>
<ellipse cx="3.04916" cy="3.01714" rx="2.17734" ry="2.18608" stroke="#A3A3A3"/>
<ellipse cx="24.8226" cy="3.01714" rx="2.17734" ry="2.18608" stroke="#A3A3A3"/>
<ellipse cx="3.04912" cy="3.01687" rx="1.08867" ry="1.09304" fill="#A3A3A3"/>
<ellipse cx="24.8226" cy="3.01687" rx="1.08867" ry="1.09304" fill="#A3A3A3"/>
</svg>
