<svg width="26" height="26" viewBox="0 0 26 26" fill="none" xmlns="http://www.w3.org/2000/svg">
<path d="M24.4174 16L20.8174 16.6" stroke="#A3A3A3" stroke-linecap="round" stroke-linejoin="round"/>
<path d="M1.61728 16L5.21729 16.6" stroke="#A3A3A3" stroke-linecap="round" stroke-linejoin="round"/>
<path d="M24.6411 24.7395V15.4391V3.40039" stroke="#A3A3A3" stroke-linecap="round" stroke-linejoin="round"/>
<path d="M1.52881 24.7395V15.4391V3.40039" stroke="#A3A3A3" stroke-linecap="round" stroke-linejoin="round"/>
<path d="M23.4823 15.3586C22.4558 13.5665 21.7827 3.40039 21.7827 3.40039" stroke="#A3A3A3" stroke-linecap="round" stroke-linejoin="round"/>
<path d="M2.68799 15.3586C3.71448 13.5665 4.38756 3.40039 4.38756 3.40039" stroke="#A3A3A3" stroke-linecap="round" stroke-linejoin="round"/>
<path d="M23.0793 16.4326L22.0142 24.0569" stroke="#A3A3A3" stroke-linecap="round" stroke-linejoin="round"/>
<path d="M3.09106 16.4326L4.15616 24.0569" stroke="#A3A3A3" stroke-linecap="round" stroke-linejoin="round"/>
<path d="M22.5546 15.6179C20.3738 14.1478 18.9287 3.40039 18.9287 3.40039" stroke="#A3A3A3" stroke-linecap="round" stroke-linejoin="round"/>
<path d="M3.61694 15.6179C5.80021 14.1478 7.24647 3.40039 7.24647 3.40039" stroke="#A3A3A3" stroke-linecap="round" stroke-linejoin="round"/>
<path d="M16.0664 3.40039C16.0664 3.40039 18.269 14.3674 21.5813 15.8521" stroke="#A3A3A3" stroke-linecap="round" stroke-linejoin="round"/>
<path d="M10.1052 3.40039C10.1052 3.40039 7.9014 14.3674 4.58911 15.8521" stroke="#A3A3A3" stroke-linecap="round" stroke-linejoin="round"/>
<path d="M18.1895 24.5845L21.5329 16.7754" stroke="#A3A3A3" stroke-linecap="round" stroke-linejoin="round"/>
<path d="M7.98187 24.5845L4.63721 16.7754" stroke="#A3A3A3" stroke-linecap="round" stroke-linejoin="round"/>
<path d="M13.2087 3.40039C13.2087 3.40039 16.2629 14.7856 20.8272 16.1261" stroke="#A3A3A3" stroke-linecap="round" stroke-linejoin="round"/>
<path d="M12.9627 3.40039C12.9627 3.40039 9.90736 14.7856 5.34302 16.1261" stroke="#A3A3A3" stroke-linecap="round" stroke-linejoin="round"/>
<path d="M18.1895 24.584L22.0142 24.0615C22.6704 24.2309 22.4605 24.7987 23.1167 24.968C23.7729 25.1374 23.9852 24.5697 24.6414 24.7391" stroke="#A3A3A3" stroke-linecap="round" stroke-linejoin="round"/>
<path d="M7.98191 24.584C7.32452 24.7586 4.15596 24.0615 4.15596 24.0615C3.49978 24.2309 3.71087 24.7987 3.05347 24.968C2.39608 25.1374 2.18499 24.5697 1.52881 24.7391" stroke="#A3A3A3" stroke-linecap="round" stroke-linejoin="round"/>
<path d="M7.98187 24.5845L4.63721 16.7754" stroke="#A3A3A3" stroke-linecap="round" stroke-linejoin="round"/>
<path d="M7.98191 24.584C7.32452 24.7586 4.15596 24.0615 4.15596 24.0615C3.49978 24.2309 3.71087 24.7987 3.05347 24.968C2.39608 25.1374 2.18499 24.5697 1.52881 24.7391" stroke="#A3A3A3" stroke-linecap="round" stroke-linejoin="round"/>
<path d="M24.4396 1H1.90622C1.4153 1 1.01733 1.39797 1.01733 1.88889C1.01733 2.37981 1.4153 2.77778 1.90623 2.77778H24.4396C24.9305 2.77778 25.3285 2.37981 25.3285 1.88889C25.3285 1.39797 24.9305 1 24.4396 1Z" stroke="#A3A3A3" stroke-linecap="round" stroke-linejoin="round"/>
</svg>
