<svg width="26" height="26" viewBox="0 0 26 26" fill="none" xmlns="http://www.w3.org/2000/svg">
<path d="M23.8066 18.3735C23.8066 18.2584 23.8522 18.148 23.9333 18.0666C24.0145 17.9852 24.1245 17.9394 24.2392 17.9394C24.3539 17.9394 24.4639 17.9852 24.5451 18.0666C24.6262 18.148 24.6717 18.2584 24.6717 18.3735C24.6717 18.4886 24.6262 18.599 24.5451 18.6804C24.4639 18.7618 24.3539 18.8075 24.2392 18.8075C24.1245 18.8075 24.0145 18.7618 23.9333 18.6804C23.8522 18.599 23.8066 18.4886 23.8066 18.3735ZM23.8066 17.0713C23.8066 16.9562 23.8522 16.8458 23.9333 16.7644C24.0145 16.683 24.1245 16.6373 24.2392 16.6373C24.3539 16.6373 24.4639 16.683 24.5451 16.7644C24.6262 16.8458 24.6717 16.9562 24.6717 17.0713C24.6717 17.1864 24.6262 17.2968 24.5451 17.3782C24.4639 17.4596 24.3539 17.5054 24.2392 17.5054C24.1245 17.5054 24.0145 17.4596 23.9333 17.3782C23.8522 17.2968 23.8066 17.1864 23.8066 17.0713ZM23.8066 15.7692C23.8066 15.6541 23.8522 15.5437 23.9333 15.4623C24.0145 15.3809 24.1245 15.3351 24.2392 15.3351C24.3539 15.3351 24.4639 15.3809 24.5451 15.4623C24.6262 15.5437 24.6717 15.6541 24.6717 15.7692C24.6717 15.8843 24.6262 15.9947 24.5451 16.0761C24.4639 16.1575 24.3539 16.2032 24.2392 16.2032C24.1245 16.2032 24.0145 16.1575 23.9333 16.0761C23.8522 15.9947 23.8066 15.8843 23.8066 15.7692ZM23.8066 14.467C23.8066 14.3519 23.8522 14.2415 23.9333 14.1601C24.0145 14.0787 24.1245 14.033 24.2392 14.033C24.3539 14.033 24.4639 14.0787 24.5451 14.1601C24.6262 14.2415 24.6717 14.3519 24.6717 14.467C24.6717 14.5822 24.6262 14.6926 24.5451 14.774C24.4639 14.8554 24.3539 14.9011 24.2392 14.9011C24.1245 14.9011 24.0145 14.8554 23.9333 14.774C23.8522 14.6926 23.8066 14.5822 23.8066 14.467ZM23.8066 13.1649C23.8066 13.0498 23.8522 12.9394 23.9333 12.858C24.0145 12.7766 24.1245 12.7308 24.2392 12.7308C24.3539 12.7308 24.4639 12.7766 24.5451 12.858C24.6262 12.9394 24.6717 13.0498 24.6717 13.1649C24.6717 13.28 24.6262 13.3904 24.5451 13.4718C24.4639 13.5532 24.3539 13.5989 24.2392 13.5989C24.1245 13.5989 24.0145 13.5532 23.9333 13.4718C23.8522 13.3904 23.8066 13.28 23.8066 13.1649ZM23.8066 11.8627C23.8066 11.7476 23.8522 11.6372 23.9333 11.5558C24.0145 11.4744 24.1245 11.4287 24.2392 11.4287C24.3539 11.4287 24.4639 11.4744 24.5451 11.5558C24.6262 11.6372 24.6717 11.7476 24.6717 11.8627C24.6717 11.9779 24.6262 12.0883 24.5451 12.1697C24.4639 12.2511 24.3539 12.2968 24.2392 12.2968C24.1245 12.2968 24.0145 12.2511 23.9333 12.1697C23.8522 12.0883 23.8066 11.9779 23.8066 11.8627ZM23.8066 10.5606C23.8066 10.4455 23.8522 10.3351 23.9333 10.2537C24.0145 10.1723 24.1245 10.1266 24.2392 10.1266C24.3539 10.1266 24.4639 10.1723 24.5451 10.2537C24.6262 10.3351 24.6717 10.4455 24.6717 10.5606C24.6717 10.6757 24.6262 10.7861 24.5451 10.8675C24.4639 10.9489 24.3539 10.9946 24.2392 10.9946C24.1245 10.9946 24.0145 10.9489 23.9333 10.8675C23.8522 10.7861 23.8066 10.6757 23.8066 10.5606ZM23.8066 9.25845C23.8066 9.14334 23.8522 9.03294 23.9333 8.95154C24.0145 8.87014 24.1245 8.82441 24.2392 8.82441C24.3539 8.82441 24.4639 8.87014 24.5451 8.95154C24.6262 9.03294 24.6717 9.14334 24.6717 9.25845C24.6717 9.37357 24.6262 9.48397 24.5451 9.56537C24.4639 9.64677 24.3539 9.6925 24.2392 9.6925C24.1245 9.6925 24.0145 9.64677 23.9333 9.56537C23.8522 9.48397 23.8066 9.37357 23.8066 9.25845ZM23.8066 7.95631C23.8066 7.84119 23.8522 7.73079 23.9333 7.64939C24.0145 7.56799 24.1245 7.52226 24.2392 7.52226C24.3539 7.52226 24.4639 7.56799 24.5451 7.64939C24.6262 7.73079 24.6717 7.84119 24.6717 7.95631C24.6717 8.07143 24.6262 8.18183 24.5451 8.26323C24.4639 8.34463 24.3539 8.39036 24.2392 8.39036C24.1245 8.39036 24.0145 8.34463 23.9333 8.26323C23.8522 8.18183 23.8066 8.07143 23.8066 7.95631ZM23.8066 6.65416C23.8066 6.53905 23.8522 6.42864 23.9333 6.34724C24.0145 6.26584 24.1245 6.22011 24.2392 6.22011C24.3539 6.22011 24.4639 6.26584 24.5451 6.34724C24.6262 6.42864 24.6717 6.53905 24.6717 6.65416C24.6717 6.76928 24.6262 6.87968 24.5451 6.96108C24.4639 7.04248 24.3539 7.08821 24.2392 7.08821C24.1245 7.08821 24.0145 7.04248 23.9333 6.96108C23.8522 6.87968 23.8066 6.76928 23.8066 6.65416ZM23.8066 5.35202C23.8066 5.2369 23.8522 5.1265 23.9333 5.0451C24.0145 4.9637 24.1245 4.91797 24.2392 4.91797C24.3539 4.91797 24.4639 4.9637 24.5451 5.0451C24.6262 5.1265 24.6717 5.2369 24.6717 5.35202C24.6717 5.46713 24.6262 5.57754 24.5451 5.65894C24.4639 5.74034 24.3539 5.78607 24.2392 5.78607C24.1245 5.78607 24.0145 5.74034 23.9333 5.65894C23.8522 5.57754 23.8066 5.46713 23.8066 5.35202Z" fill="#A3A3A3"/>
<path d="M25.128 21.7851H23.3657V20.9145C23.3657 20.6836 23.4586 20.4622 23.6238 20.2989C23.789 20.1357 24.0132 20.0439 24.2468 20.0439C24.4805 20.0439 24.7047 20.1357 24.8699 20.2989C25.0351 20.4622 25.128 20.6836 25.128 20.9145V21.7851Z" stroke="#A3A3A3" stroke-linecap="round" stroke-linejoin="round"/>
<path d="M24.0546 4.48228H2.21899M2.21899 1H24.0546" stroke="#A3A3A3" stroke-linecap="round" stroke-linejoin="round"/>
<path d="M4.94824 1C4.7166 1 4.49444 1.18344 4.33064 1.50997C4.16684 1.8365 4.07482 2.27936 4.07482 2.74114C4.07482 3.20292 4.16684 3.64579 4.33064 3.97231C4.49444 4.29884 4.7166 4.48228 4.94824 4.48228" stroke="#A3A3A3" stroke-linecap="round" stroke-linejoin="round"/>
<path d="M24.0544 1C24.2861 1 24.5082 1.18344 24.672 1.50997C24.8358 1.8365 24.9279 2.27936 24.9279 2.74114C24.9279 3.20292 24.8358 3.64579 24.672 3.97231C24.5082 4.29884 24.2861 4.48228 24.0544 4.48228" stroke="#A3A3A3" stroke-linecap="round" stroke-linejoin="round"/>
<path d="M2.12793 1C1.89628 1 1.67412 1.18344 1.51033 1.50997C1.34653 1.8365 1.25451 2.27936 1.25451 2.74114C1.25451 3.20292 1.34653 3.64579 1.51033 3.97231C1.67412 4.29884 1.89628 4.48228 2.12793 4.48228" stroke="#A3A3A3" stroke-linecap="round" stroke-linejoin="round"/>
<path d="M21.3247 1C21.5564 1 21.7785 1.18344 21.9423 1.50997C22.1061 1.8365 22.1981 2.27936 22.1981 2.74114C22.1981 3.20292 22.1061 3.64579 21.9423 3.97231C21.7785 4.29884 21.5564 4.48228 21.3247 4.48228" stroke="#A3A3A3" stroke-linecap="round" stroke-linejoin="round"/>
<path d="M21.9239 4.7002V24.0003C21.9239 24.5526 21.4762 25.0003 20.9239 25.0003H4.54053C3.98824 25.0003 3.54053 24.5526 3.54053 24.0003V4.7002" stroke="#A3A3A3" stroke-linecap="round" stroke-linejoin="round"/>
<path d="M3.54053 21.7852H21.9239" stroke="#A3A3A3" stroke-linecap="round" stroke-linejoin="round"/>
</svg>
