<svg width="26" height="26" viewBox="0 0 26 26" fill="none" xmlns="http://www.w3.org/2000/svg">
<path d="M24.0001 0.991211H2.07788C1.5256 0.991211 1.07788 1.43893 1.07788 1.99121V2.65979C1.07788 3.21207 1.5256 3.65979 2.07788 3.65979H24.0001C24.5524 3.65979 25.0001 3.21207 25.0001 2.65979V1.99121C25.0001 1.43893 24.5524 0.991211 24.0001 0.991211Z" stroke="#A3A3A3" stroke-linecap="round" stroke-linejoin="round"/>
<path d="M23.6959 3.99316L23.2244 5.43865" stroke="#A3A3A3" stroke-linecap="round" stroke-linejoin="round"/>
<path d="M21.3199 5.43865V24.0881C21.3199 24.5963 21.7318 25.0082 22.24 25.0082V25.0082C22.7481 25.0082 23.1601 24.5963 23.1601 24.0881V6.43865C23.1601 5.88637 22.7123 5.43865 22.1601 5.43865H3.79543C3.32188 5.43865 2.91326 5.10651 2.81652 4.64295L2.68091 3.99316" stroke="#A3A3A3" stroke-linecap="round" stroke-linejoin="round"/>
<path d="M2.91797 5.43848V24.088C2.91797 24.5961 3.32991 25.008 3.83805 25.008V25.008C4.3462 25.008 4.75814 24.5961 4.75814 24.088V5.43848" stroke="#A3A3A3" stroke-linecap="round" stroke-linejoin="round"/>
<path d="M4.7583 8.99707H21.3198" stroke="#A3A3A3" stroke-linecap="round" stroke-linejoin="round"/>
<path d="M4.7583 12.5547H21.3198" stroke="#A3A3A3" stroke-linecap="round" stroke-linejoin="round"/>
<path d="M4.7583 16.1133H21.3198" stroke="#A3A3A3" stroke-linecap="round" stroke-linejoin="round"/>
<path d="M4.7583 19.6709H21.3198" stroke="#A3A3A3" stroke-linecap="round" stroke-linejoin="round"/>
<path d="M4.7583 23.2295H21.3198" stroke="#A3A3A3" stroke-linecap="round" stroke-linejoin="round"/>
<path d="M23.1602 0.991211V3.65979" stroke="#A3A3A3" stroke-linecap="round" stroke-linejoin="round"/>
<path d="M2.91797 0.991211V3.65979" stroke="#A3A3A3" stroke-linecap="round" stroke-linejoin="round"/>
<path d="M4.7583 2.3252H6.13843" stroke="#A3A3A3" stroke-linecap="round" stroke-linejoin="round"/>
</svg>
