<svg width="25" height="26" viewBox="0 0 25 26" fill="none" xmlns="http://www.w3.org/2000/svg">
<path d="M23.1729 1H1.83957C1.34865 1 0.950684 1.39797 0.950684 1.88889C0.950684 2.37981 1.34865 2.77778 1.83957 2.77778H23.1729C23.6639 2.77778 24.0618 2.37981 24.0618 1.88889C24.0618 1.39797 23.6639 1 23.1729 1Z" stroke="#FF0000" stroke-linecap="round" stroke-linejoin="round"/>
<path d="M19.9506 4.55566H3.28394C2.73165 4.55566 2.28394 5.00338 2.28394 5.55566V24.0001C2.28394 24.5524 2.73165 25.0001 3.28394 25.0001H19.9506C20.5029 25.0001 20.9506 24.5524 20.9506 24.0001V5.55566C20.9506 5.00338 20.5029 4.55566 19.9506 4.55566Z" stroke="#FF0000" stroke-linecap="round" stroke-linejoin="round"/>
<path d="M18.2839 4.55566V25.0001" stroke="#FF0000" stroke-linecap="round" stroke-linejoin="round"/>
<path d="M15.6174 4.55566V25.0001" stroke="#FF0000" stroke-linecap="round" stroke-linejoin="round"/>
<path d="M12.9507 4.55566V25.0001" stroke="#FF0000" stroke-linecap="round" stroke-linejoin="round"/>
<path d="M10.2839 4.55566V25.0001" stroke="#FF0000" stroke-linecap="round" stroke-linejoin="round"/>
<path d="M7.61743 4.55566V25.0001" stroke="#FF0000" stroke-linecap="round" stroke-linejoin="round"/>
<path d="M4.95068 4.55566V25.0001" stroke="#FF0000" stroke-linecap="round" stroke-linejoin="round"/>
<path d="M19.6174 2.77734V4.55512" stroke="#FF0000" stroke-linecap="round" stroke-linejoin="round"/>
<path d="M16.9507 2.77734V4.55512" stroke="#FF0000" stroke-linecap="round" stroke-linejoin="round"/>
<path d="M14.2839 2.77734V4.55512" stroke="#FF0000" stroke-linecap="round" stroke-linejoin="round"/>
<path d="M11.6174 2.77734V4.55512" stroke="#FF0000" stroke-linecap="round" stroke-linejoin="round"/>
<path d="M8.95068 2.77734V4.55512" stroke="#FF0000" stroke-linecap="round" stroke-linejoin="round"/>
<path d="M6.28394 2.77734V4.55512" stroke="#FF0000" stroke-linecap="round" stroke-linejoin="round"/>
<path d="M3.61743 2.77734V4.55512" stroke="#FF0000" stroke-linecap="round" stroke-linejoin="round"/>
<path d="M23.1729 4.55575C23.0552 4.55411 22.9425 4.50807 22.8573 4.42686C22.8156 4.38554 22.7826 4.33639 22.76 4.28223C22.7374 4.22807 22.7258 4.16997 22.7258 4.1113C22.7258 4.05263 22.7374 3.99454 22.76 3.94038C22.7826 3.88622 22.8156 3.83706 22.8573 3.79575C22.941 3.71206 23.0545 3.66504 23.1729 3.66504C23.2912 3.66504 23.4047 3.71206 23.4884 3.79575C23.5721 3.87944 23.6191 3.99295 23.6191 4.1113C23.6191 4.22966 23.5721 4.34317 23.4884 4.42686C23.4032 4.50807 23.2905 4.55411 23.1729 4.55575V4.55575Z" fill="white"/>
<path d="M22.7285 18.7778C22.7285 18.6599 22.7753 18.5469 22.8587 18.4635C22.942 18.3802 23.0551 18.3334 23.173 18.3334C23.2908 18.3334 23.4039 18.3802 23.4872 18.4635C23.5706 18.5469 23.6174 18.6599 23.6174 18.7778C23.6174 18.8957 23.5706 19.0087 23.4872 19.0921C23.4039 19.1754 23.2908 19.2222 23.173 19.2222C23.0551 19.2222 22.942 19.1754 22.8587 19.0921C22.7753 19.0087 22.7285 18.8957 22.7285 18.7778ZM22.7285 17.4445C22.7285 17.3266 22.7753 17.2135 22.8587 17.1302C22.942 17.0468 23.0551 17 23.173 17C23.2908 17 23.4039 17.0468 23.4872 17.1302C23.5706 17.2135 23.6174 17.3266 23.6174 17.4445C23.6174 17.5623 23.5706 17.6754 23.4872 17.7587C23.4039 17.8421 23.2908 17.8889 23.173 17.8889C23.0551 17.8889 22.942 17.8421 22.8587 17.7587C22.7753 17.6754 22.7285 17.5623 22.7285 17.4445ZM22.7285 16.1111C22.7285 15.9933 22.7753 15.8802 22.8587 15.7969C22.942 15.7135 23.0551 15.6667 23.173 15.6667C23.2908 15.6667 23.4039 15.7135 23.4872 15.7969C23.5706 15.8802 23.6174 15.9933 23.6174 16.1111C23.6174 16.229 23.5706 16.3421 23.4872 16.4254C23.4039 16.5088 23.2908 16.5556 23.173 16.5556C23.0551 16.5556 22.942 16.5088 22.8587 16.4254C22.7753 16.3421 22.7285 16.229 22.7285 16.1111ZM22.7285 14.7778C22.7285 14.6599 22.7753 14.5469 22.8587 14.4635C22.942 14.3802 23.0551 14.3333 23.173 14.3333C23.2908 14.3333 23.4039 14.3802 23.4872 14.4635C23.5706 14.5469 23.6174 14.6599 23.6174 14.7778C23.6174 14.8957 23.5706 15.0087 23.4872 15.0921C23.4039 15.1754 23.2908 15.2222 23.173 15.2222C23.0551 15.2222 22.942 15.1754 22.8587 15.0921C22.7753 15.0087 22.7285 14.8957 22.7285 14.7778ZM22.7285 13.4445C22.7285 13.3266 22.7753 13.2135 22.8587 13.1302C22.942 13.0468 23.0551 13 23.173 13C23.2908 13 23.4039 13.0468 23.4872 13.1302C23.5706 13.2135 23.6174 13.3266 23.6174 13.4445C23.6174 13.5623 23.5706 13.6754 23.4872 13.7587C23.4039 13.8421 23.2908 13.8889 23.173 13.8889C23.0551 13.8889 22.942 13.8421 22.8587 13.7587C22.7753 13.6754 22.7285 13.5623 22.7285 13.4445ZM22.7285 12.1111C22.7285 11.9932 22.7753 11.8802 22.8587 11.7969C22.942 11.7135 23.0551 11.6667 23.173 11.6667C23.2908 11.6667 23.4039 11.7135 23.4872 11.7969C23.5706 11.8802 23.6174 11.9932 23.6174 12.1111C23.6174 12.229 23.5706 12.342 23.4872 12.4254C23.4039 12.5087 23.2908 12.5556 23.173 12.5556C23.0551 12.5556 22.942 12.5087 22.8587 12.4254C22.7753 12.342 22.7285 12.229 22.7285 12.1111ZM22.7285 10.7778C22.7285 10.6599 22.7753 10.5469 22.8587 10.4635C22.942 10.3802 23.0551 10.3333 23.173 10.3333C23.2908 10.3333 23.4039 10.3802 23.4872 10.4635C23.5706 10.5469 23.6174 10.6599 23.6174 10.7778C23.6174 10.8957 23.5706 11.0087 23.4872 11.0921C23.4039 11.1754 23.2908 11.2222 23.173 11.2222C23.0551 11.2222 22.942 11.1754 22.8587 11.0921C22.7753 11.0087 22.7285 10.8957 22.7285 10.7778ZM22.7285 9.44445C22.7285 9.32658 22.7753 9.21353 22.8587 9.13018C22.942 9.04683 23.0551 9.00001 23.173 9.00001C23.2908 9.00001 23.4039 9.04683 23.4872 9.13018C23.5706 9.21353 23.6174 9.32658 23.6174 9.44445C23.6174 9.56233 23.5706 9.67537 23.4872 9.75872C23.4039 9.84207 23.2908 9.8889 23.173 9.8889C23.0551 9.8889 22.942 9.84207 22.8587 9.75872C22.7753 9.67537 22.7285 9.56233 22.7285 9.44445ZM22.7285 8.11112C22.7285 7.99324 22.7753 7.8802 22.8587 7.79685C22.942 7.7135 23.0551 7.66667 23.173 7.66667C23.2908 7.66667 23.4039 7.7135 23.4872 7.79685C23.5706 7.8802 23.6174 7.99324 23.6174 8.11112C23.6174 8.22899 23.5706 8.34204 23.4872 8.42539C23.4039 8.50874 23.2908 8.55556 23.173 8.55556C23.0551 8.55556 22.942 8.50874 22.8587 8.42539C22.7753 8.34204 22.7285 8.22899 22.7285 8.11112ZM22.7285 6.77778C22.7285 6.65991 22.7753 6.54686 22.8587 6.46351C22.942 6.38016 23.0551 6.33334 23.173 6.33334C23.2908 6.33334 23.4039 6.38016 23.4872 6.46351C23.5706 6.54686 23.6174 6.65991 23.6174 6.77778C23.6174 6.89565 23.5706 7.0087 23.4872 7.09205C23.4039 7.1754 23.2908 7.22223 23.173 7.22223C23.0551 7.22223 22.942 7.1754 22.8587 7.09205C22.7753 7.0087 22.7285 6.89565 22.7285 6.77778ZM22.7285 5.44445C22.7285 5.32657 22.7753 5.21352 22.8587 5.13018C22.942 5.04683 23.0551 5 23.173 5C23.2908 5 23.4039 5.04683 23.4872 5.13018C23.5706 5.21352 23.6174 5.32657 23.6174 5.44445C23.6174 5.56232 23.5706 5.67537 23.4872 5.75872C23.4039 5.84206 23.2908 5.88889 23.173 5.88889C23.0551 5.88889 22.942 5.84206 22.8587 5.75872C22.7753 5.67537 22.7285 5.56232 22.7285 5.44445Z" fill="white"/>
<path d="M24.062 22.0219H22.2842V21.133C22.2842 20.8973 22.3778 20.6712 22.5445 20.5045C22.7112 20.3378 22.9373 20.2441 23.1731 20.2441C23.4088 20.2441 23.6349 20.3378 23.8016 20.5045C23.9683 20.6712 24.062 20.8973 24.062 21.133V22.0219Z" stroke="#FF0000" stroke-linecap="round" stroke-linejoin="round"/>
<path d="M22.2842 1V2.77778" stroke="#FF0000" stroke-linecap="round" stroke-linejoin="round"/>
<path d="M2.72852 1V2.77778" stroke="#FF0000" stroke-linecap="round" stroke-linejoin="round"/>
</svg>
