<svg width="27" height="28" viewBox="0 0 27 28" fill="none" xmlns="http://www.w3.org/2000/svg">
<path d="M25.3581 0.666992H1.6544C1.10894 0.666992 0.666748 1.10918 0.666748 1.65465C0.666748 2.20011 1.10894 2.6423 1.6544 2.6423H25.3581C25.9036 2.6423 26.3458 2.20011 26.3458 1.65465C26.3458 1.10918 25.9036 0.666992 25.3581 0.666992Z" stroke="#A3A3A3" stroke-linecap="round" stroke-linejoin="round"/>
<path d="M23.9111 2.64258L26.3803 5.11171" stroke="#A3A3A3" stroke-linecap="round" stroke-linejoin="round"/>
<path d="M3.17055 2.64258L0.701416 5.11171" stroke="#A3A3A3" stroke-linecap="round" stroke-linejoin="round"/>
<path d="M24.3704 0.666992V2.6423" stroke="#A3A3A3" stroke-linecap="round" stroke-linejoin="round"/>
<path d="M2.64209 0.666992V2.6423" stroke="#A3A3A3" stroke-linecap="round" stroke-linejoin="round"/>
<path d="M26.3804 5.11133L24.4051 7.58046H2.67672L0.701416 5.11133H26.3804Z" stroke="#A3A3A3" stroke-linecap="round" stroke-linejoin="round"/>
<path d="M2.67672 7.58105L0.701416 10.0502H26.3804L24.4051 7.58105" stroke="#A3A3A3" stroke-linecap="round" stroke-linejoin="round"/>
<path d="M26.3804 10.0498L24.4051 12.5189H2.67672L0.701416 10.0498" stroke="#A3A3A3" stroke-linecap="round" stroke-linejoin="round"/>
<path d="M24.4051 12.5186L26.3804 14.9877H0.701416L2.67672 12.5186" stroke="#A3A3A3" stroke-linecap="round" stroke-linejoin="round"/>
<path d="M26.3804 14.9883L24.4051 17.4574H2.67672L0.701416 14.9883" stroke="#A3A3A3" stroke-linecap="round" stroke-linejoin="round"/>
<path d="M24.4051 17.457L26.3804 19.9262H0.701416L2.67672 17.457" stroke="#A3A3A3" stroke-linecap="round" stroke-linejoin="round"/>
<path d="M26.3804 19.9258L24.4051 22.3949H2.67672L0.701416 19.9258" stroke="#A3A3A3" stroke-linecap="round" stroke-linejoin="round"/>
<path d="M24.4051 22.3955L26.3804 24.8646H0.701416L2.67672 22.3955" stroke="#A3A3A3" stroke-linecap="round" stroke-linejoin="round"/>
<path d="M26.3804 24.8643L24.4051 27.3334H2.67672L0.701416 24.8643" stroke="#A3A3A3" stroke-linecap="round" stroke-linejoin="round"/>
</svg>
