<svg width="24" height="26" viewBox="0 0 24 26" fill="none" xmlns="http://www.w3.org/2000/svg">
<path d="M21.8 1H2.19995C1.64767 1 1.19995 1.44771 1.19995 2V24C1.19995 24.5523 1.64767 25 2.19995 25H21.8C22.3523 25 22.8 24.5523 22.8 24V2C22.8 1.44772 22.3523 1 21.8 1Z" stroke="#A3A3A3" stroke-linecap="round" stroke-linejoin="round"/>
<path d="M19.3499 5.80078H4.6499V22.6008H19.3499V5.80078Z" stroke="#A3A3A3" stroke-linecap="round" stroke-linejoin="round"/>
<path d="M19.35 17.8008H12V22.6008H19.35V17.8008Z" stroke="#A3A3A3" stroke-linecap="round" stroke-linejoin="round"/>
<path d="M19.3499 15.4004H4.6499V17.8004H19.3499V15.4004Z" stroke="#A3A3A3" stroke-linecap="round" stroke-linejoin="round"/>
<path d="M19.3499 13H4.6499V15.4H19.3499V13Z" stroke="#A3A3A3" stroke-linecap="round" stroke-linejoin="round"/>
<path d="M19.3499 10.6006H4.6499V13.0006H19.3499V10.6006Z" stroke="#A3A3A3" stroke-linecap="round" stroke-linejoin="round"/>
<path d="M19.3499 8.2002H4.6499V10.6002H19.3499V8.2002Z" stroke="#A3A3A3" stroke-linecap="round" stroke-linejoin="round"/>
<path d="M11.9999 17.8008H4.6499V22.6008H11.9999V17.8008Z" stroke="#A3A3A3" stroke-linecap="round" stroke-linejoin="round"/>
<path d="M20.3999 3.40039H3.59985V5.80039H20.3999V3.40039Z" stroke="#A3A3A3" stroke-linecap="round" stroke-linejoin="round"/>
</svg>
