<svg width="26" height="26" viewBox="0 0 26 26" fill="none" xmlns="http://www.w3.org/2000/svg">
<path d="M24.6224 25.043V2C24.6224 1.44772 24.1746 1 23.6224 1H1.57935C1.02706 1 0.579346 1.44772 0.579346 2V25.043" stroke="#A3A3A3" stroke-linecap="round" stroke-linejoin="round"/>
<path d="M0.579342 17.8301H2.98364" stroke="#A3A3A3" stroke-linecap="round" stroke-linejoin="round"/>
<path d="M1.78149 17.8301L2.98364 25.043" stroke="#A3A3A3" stroke-linecap="round" stroke-linejoin="round"/>
<path d="M1.78149 17.8301C4.67401 17.2515 7.79225 11.8193 7.79225 11.8193" stroke="#A3A3A3" stroke-linecap="round" stroke-linejoin="round"/>
<path d="M10.1965 13.0215C10.1965 13.0215 7.31485 17.2567 2.98364 17.8301" stroke="#A3A3A3" stroke-linecap="round" stroke-linejoin="round"/>
<path d="M7.79225 25.043L2.98364 17.8301" stroke="#A3A3A3" stroke-linecap="round" stroke-linejoin="round"/>
<path d="M23.4202 17.8301L22.218 25.043" stroke="#A3A3A3" stroke-linecap="round" stroke-linejoin="round"/>
<path d="M23.4202 17.8301C20.5277 17.2515 17.4094 11.8193 17.4094 11.8193" stroke="#A3A3A3" stroke-linecap="round" stroke-linejoin="round"/>
<path d="M15.0051 13.0215C15.0051 13.0215 17.8868 17.2567 22.218 17.8301" stroke="#A3A3A3" stroke-linecap="round" stroke-linejoin="round"/>
<path d="M17.4094 25.043L22.218 17.8301" stroke="#A3A3A3" stroke-linecap="round" stroke-linejoin="round"/>
<path d="M24.621 2.20215C24.622 2.66758 24.6421 6.2425 24.4834 6.68123C24.3025 7.18498 24.0214 7.64857 23.6562 8.04514C23.0513 8.71227 22.2396 9.16662 21.3455 9.33847H21.3382C20.8077 9.44057 20.2619 9.44057 19.7314 9.33847H19.724C18.8745 9.1755 18.098 8.7573 17.5026 8.14205C17.3858 8.02176 17.2457 7.92551 17.0904 7.85895C16.9351 7.79238 16.7678 7.75684 16.5984 7.75442H16.5556C16.3861 7.75684 16.2188 7.79238 16.0635 7.85895C15.9083 7.92551 15.7681 8.02176 15.6514 8.14205C15.0559 8.7573 14.2794 9.1755 13.4299 9.33847H13.4226C13.1583 9.3901 12.8893 9.41575 12.6198 9.41504H12.6002C12.3307 9.41575 12.0618 9.3901 11.7974 9.33847H11.7901C10.9406 9.1755 10.1641 8.7573 9.56864 8.14205C9.45186 8.02176 9.31173 7.92551 9.15646 7.85895C9.00119 7.79238 8.83391 7.75684 8.66442 7.75442H8.62166C8.45217 7.75684 8.28489 7.79238 8.12962 7.85895C7.97435 7.92551 7.83421 8.02176 7.71743 8.14205C7.122 8.7573 6.3455 9.1755 5.49598 9.33847H5.48865C4.95812 9.44057 4.41236 9.44057 3.88183 9.33847H3.87205C2.98132 9.16766 2.17203 8.71643 1.56751 8.05352C1.20232 7.65695 0.921141 7.19335 0.740268 6.68961C0.579517 6.25123 0.580316 2.66792 0.579346 2.20215" stroke="#A3A3A3" stroke-linecap="round" stroke-linejoin="round"/>
<path d="M24.621 2.20215C24.622 2.66758 24.6421 9.84895 24.4834 10.2877C24.3025 10.7914 24.0214 11.255 23.6562 11.6516C23.0513 12.3187 22.2396 12.7731 21.3455 12.9449H21.3382C20.8077 13.047 20.2619 13.047 19.7314 12.9449H19.724C18.8745 12.782 18.098 12.3638 17.5026 11.7485C17.3858 11.6282 17.2457 11.532 17.0904 11.4654C16.9351 11.3988 16.7678 11.3633 16.5984 11.3609H16.5556C16.3861 11.3633 16.2188 11.3988 16.0635 11.4654C15.9083 11.532 15.7681 11.6282 15.6514 11.7485C15.0559 12.3638 14.2794 12.782 13.4299 12.9449H13.4226C13.1583 12.9966 12.8893 13.0222 12.6198 13.0215H12.6002C12.3307 13.0222 12.0618 12.9966 11.7974 12.9449H11.7901C10.9406 12.782 10.1641 12.3638 9.56864 11.7485C9.45186 11.6282 9.31173 11.532 9.15646 11.4654C9.00119 11.3988 8.83391 11.3633 8.66442 11.3609H8.62166C8.45217 11.3633 8.28489 11.3988 8.12962 11.4654C7.97435 11.532 7.83421 11.6282 7.71743 11.7485C7.122 12.3638 6.3455 12.782 5.49598 12.9449H5.48865C4.95812 13.047 4.41236 13.047 3.88183 12.9449H3.87205C2.98132 12.7741 2.17203 12.3229 1.56751 11.66C1.20232 11.2634 0.921141 10.7998 0.740268 10.2961C0.579517 9.85768 0.580316 2.66792 0.579346 2.20215" stroke="#A3A3A3" stroke-linecap="round" stroke-linejoin="round"/>
<line x1="16.7073" y1="1" x2="16.7073" y2="11.8194" stroke="#A3A3A3"/>
<line x1="8.29224" y1="1" x2="8.29224" y2="11.8194" stroke="#A3A3A3"/>
<path d="M7.79225 25.0429C6.91416 25.1725 4.73079 24.7473 4.73079 24.7473C3.58472 24.4419 4.13626 25.2943 3.25817 25.42C2.38008 25.5457 1.45583 24.9172 0.579346 25.0429" stroke="#A3A3A3" stroke-linecap="round" stroke-linejoin="round"/>
<path d="M17.4094 25.0429C18.2875 25.1725 20.4709 24.7473 20.4709 24.7473C21.6169 24.4419 21.0654 25.2943 21.9435 25.42C22.8216 25.5457 23.7458 24.9172 24.6223 25.0429" stroke="#A3A3A3" stroke-linecap="round" stroke-linejoin="round"/>
</svg>
