<svg width="15" height="16" viewBox="0 0 15 16" fill="none" xmlns="http://www.w3.org/2000/svg">
<path d="M10.4994 4.24998L3.99155 10.8672C3.7761 11.1049 3.66034 11.4165 3.66824 11.7372C3.67614 12.058 3.80709 12.3635 4.03398 12.5904C4.26087 12.8173 4.56632 12.9482 4.88709 12.9561C5.20787 12.964 5.51939 12.8482 5.75718 12.6328L13.515 4.7656C13.9459 4.29004 14.1774 3.66699 14.1616 3.02544C14.1458 2.38389 13.8839 1.77299 13.4301 1.31921C12.9764 0.865429 12.3654 0.603529 11.7239 0.587733C11.0824 0.571938 10.4593 0.803456 9.98374 1.23435L2.22592 9.10154C1.52352 9.80395 1.12891 10.7566 1.12891 11.75C1.12891 12.7433 1.52352 13.696 2.22592 14.3984C2.92833 15.1008 3.88101 15.4954 4.87436 15.4954C5.86772 15.4954 6.82039 15.1008 7.5228 14.3984L13.9369 7.99998" stroke="#717070" stroke-linecap="round" stroke-linejoin="round"/>
</svg>
