<svg width="25" height="18" viewBox="0 0 25 18" fill="none" xmlns="http://www.w3.org/2000/svg">
<g clip-path="url(#clip0_301_5864)">
<path fill-rule="evenodd" clip-rule="evenodd" d="M1.62499 1.91901H23.809C24.326 1.91901 24.746 2.33901 24.746 2.85601C24.746 3.37401 24.326 3.79401 23.809 3.79401H1.62499C1.10699 3.79401 0.687988 3.37401 0.687988 2.85601C0.687988 2.33901 1.10699 1.91901 1.62499 1.91901Z" fill="#797979"/>
<path fill-rule="evenodd" clip-rule="evenodd" d="M1.62499 8.16748H23.809C24.326 8.16748 24.746 8.58748 24.746 9.10448C24.746 9.62248 24.326 10.0425 23.809 10.0425H1.62499C1.10699 10.0425 0.687988 9.62248 0.687988 9.10448C0.687988 8.58748 1.10699 8.16748 1.62499 8.16748Z" fill="#797979"/>
<path fill-rule="evenodd" clip-rule="evenodd" d="M1.62499 14.417H23.809C24.326 14.417 24.746 14.836 24.746 15.354C24.746 15.872 24.326 16.292 23.809 16.292H1.62499C1.10699 16.292 0.687988 15.872 0.687988 15.354C0.687988 14.836 1.10699 14.417 1.62499 14.417Z" fill="#797979"/>
<path fill-rule="evenodd" clip-rule="evenodd" d="M4.12305 0.917999C4.46805 0.917999 4.74805 1.198 4.74805 1.543V4.667C4.74805 5.13 4.46805 5.292 4.12305 5.292C3.77805 5.292 3.49805 5.13 3.49805 4.667V1.543C3.49805 1.198 3.77805 0.917999 4.12305 0.917999Z" fill="#797979"/>
<path fill-rule="evenodd" clip-rule="evenodd" d="M14.123 6.918C14.468 6.918 14.748 7.198 14.748 7.543V10.667C14.748 11.13 14.468 11.292 14.123 11.292C13.778 11.292 13.498 11.13 13.498 10.667V7.543C13.498 7.198 13.778 6.918 14.123 6.918Z" fill="#797979"/>
<path fill-rule="evenodd" clip-rule="evenodd" d="M8.49902 13.167C8.84402 13.167 9.12402 13.447 9.12402 13.792V16.916C9.12402 17.262 8.84402 17.541 8.49902 17.541C8.15402 17.541 7.87402 17.262 7.87402 16.916V13.792C7.87402 13.447 8.15402 13.167 8.49902 13.167Z" fill="#797979"/>
</g>
<defs>
<clipPath id="clip0_301_5864">
<rect width="25" height="18" fill="white"/>
</clipPath>
</defs>
</svg>
