<svg width="18" height="15" viewBox="0 0 18 15" fill="none" xmlns="http://www.w3.org/2000/svg">
<path d="M9.44567 14.0547L15.7738 7.72659C17.3285 6.16409 17.555 3.60941 16.0863 1.97659C15.7179 1.56512 15.2696 1.23306 14.7686 1.00072C14.2675 0.76838 13.7244 0.640629 13.1724 0.625274C12.6203 0.609919 12.0709 0.707282 11.5578 0.911416C11.0446 1.11555 10.5785 1.42217 10.1879 1.81253L9.00035 3.00784L7.97692 1.97659C6.41442 0.421906 3.85973 0.195344 2.22691 1.66409C1.81544 2.03244 1.48338 2.48082 1.25104 2.98183C1.0187 3.48284 0.890949 4.02596 0.875594 4.57801C0.860239 5.13006 0.957603 5.67944 1.16174 6.19259C1.36587 6.70574 1.67249 7.17188 2.06285 7.56253L8.55504 14.0547C8.67354 14.1721 8.83357 14.2379 9.00035 14.2379C9.16713 14.2379 9.32717 14.1721 9.44567 14.0547Z" stroke="#717070" stroke-linecap="round" stroke-linejoin="round"/>
</svg>
