<svg width="40" height="37" viewBox="0 0 40 37" fill="none" xmlns="http://www.w3.org/2000/svg">
<path d="M21.6348 0.986566L26.4006 10.3141C26.6653 10.8437 27.1772 11.2024 27.7773 11.2878L38.4208 12.7912C39.9211 12.9962 40.5389 14.7899 39.4446 15.832L31.7488 23.0925C31.3075 23.5025 31.1134 24.0833 31.2193 24.6641L33.0373 34.9142C33.3021 36.3663 31.7135 37.4767 30.372 36.7933L20.8582 31.9587C20.3287 31.6854 19.6756 31.6854 19.146 31.9587L9.63221 36.7933C8.29074 37.4767 6.70216 36.3663 6.96692 34.9142L8.78497 24.6641C8.89088 24.0833 8.69671 23.5025 8.25544 23.0925L0.559653 15.832C-0.534702 14.807 0.0654313 13.0133 1.58341 12.7912L12.2269 11.2878C12.827 11.2024 13.3389 10.8437 13.6037 10.3141L18.3694 0.986566C19.0225 -0.328855 20.9641 -0.328855 21.6348 0.986566Z" fill="#FF2289"/>
</svg>
