<svg width="34" height="34" viewBox="0 0 34 34" fill="none" xmlns="http://www.w3.org/2000/svg">
<path d="M14.423 19.037H18.6496L16.5363 12.9789L14.423 19.037Z" fill="#FF2289"/>
<path d="M26.363 0H6.70962C3.0114 0 0 3.0114 0 6.70962V26.363C0 30.0788 3.0114 33.0726 6.70962 33.0726H26.363C30.0788 33.0726 33.0726 30.0612 33.0726 26.363V6.70962C33.0726 3.0114 30.0612 0 26.363 0ZM23.2459 26.4334C22.0836 26.4334 21.2031 25.7642 20.6924 24.4787L20.2521 23.3692H12.8205L12.3802 24.4787C11.8695 25.7642 10.989 26.4334 9.82669 26.4334C8.27696 26.4334 7.14988 25.324 7.14988 23.8623C7.14988 23.4925 7.23793 23.017 7.43165 22.5415L13.9476 6.70962C14.423 5.54732 15.3036 4.91334 16.5187 4.91334C17.7338 4.91334 18.632 5.54732 19.0898 6.70962L25.6057 22.5415C25.7995 23.017 25.8875 23.4925 25.8875 23.8623C25.9051 25.3416 24.778 26.4334 23.2459 26.4334Z" fill="#FF2289"/>
</svg>
