<svg width="36" height="42" viewBox="0 0 36 42" fill="none" xmlns="http://www.w3.org/2000/svg">
<path d="M29.233 21.9747C28.6128 21.6025 27.9925 21.2835 27.3722 21C27.9925 20.7165 28.6128 20.3797 29.233 20.0253C34.1089 17.1367 36.9863 12.8658 35.6768 10.5089C34.3502 8.1519 29.3364 8.59494 24.4432 11.4835C23.823 11.8557 23.2372 12.2456 22.6858 12.6354C22.7547 11.9443 22.7892 11.2354 22.7892 10.4911C22.7892 4.6962 20.6527 0 17.9994 0C15.3633 0 13.2096 4.6962 13.2096 10.4911C13.2096 11.2177 13.2441 11.9443 13.313 12.6354C12.7617 12.2278 12.1759 11.838 11.5556 11.4835C6.67967 8.59494 1.64867 8.1519 0.322 10.5089C-1.00467 12.8658 1.88988 17.119 6.76581 20.0253C7.38607 20.3975 8.00633 20.7165 8.62659 21C8.00633 21.2835 7.38607 21.6203 6.76581 21.9747C1.88988 24.8633 -0.987438 29.1342 0.322 31.4911C1.63144 33.8481 6.66244 33.4051 11.5556 30.5165C12.1759 30.1443 12.7617 29.7544 13.313 29.3646C13.2441 30.0557 13.2096 30.7646 13.2096 31.5089C13.2096 37.3038 15.3461 42 17.9994 42C20.6355 42 22.7892 37.3038 22.7892 31.5089C22.7892 30.7823 22.7547 30.0557 22.6858 29.3646C23.2372 29.7722 23.823 30.162 24.4432 30.5165C29.3192 33.4051 34.3502 33.8481 35.6768 31.4911C37.0035 29.1342 34.1262 24.881 29.233 21.9747Z" fill="#FF2289"/>
</svg>
