<svg width="351" height="134" viewBox="0 0 351 134" fill="none" xmlns="http://www.w3.org/2000/svg">
<path d="M346.947 24.51C346.412 23.6305 345.527 23.0331 344.508 22.8505L316.426 17.7228C316.209 17.6897 315.992 17.6565 315.775 17.6565C315.04 17.6565 314.305 17.8888 313.687 18.3036C312.885 18.8513 312.35 19.6976 312.2 20.6601L306.387 54.8612L291.435 51.9903L300.64 15.2503C300.891 14.2546 300.707 13.1926 300.105 12.3462C299.521 11.4999 298.585 10.9357 297.566 10.803L270.019 7.45089C269.869 7.43429 269.719 7.4177 269.568 7.4177C268.098 7.4177 266.829 8.33039 266.261 9.65795C265.676 8.84482 264.791 8.24742 263.722 8.13126L214.659 3.03677C214.525 3.02018 214.408 3.02018 214.274 3.02018C213.723 3.02018 213.205 3.18612 212.721 3.41844C212.053 2.6551 211.1 2.14067 209.998 2.14067H161.135C160.45 2.14067 159.832 2.38959 159.281 2.72148C158.73 2.38959 158.128 2.14067 157.427 2.14067H157.41C157.377 2.14067 157.326 2.14067 157.293 2.14067C157.176 2.14067 157.042 2.15727 156.926 2.17386L129.78 5.3434C127.842 5.57572 126.422 7.28494 126.589 9.2099L127.023 14.5035C121.811 8.47974 112.707 4.82897 100.379 4.08222C99.5601 4.03244 98.7248 4.01584 97.8729 4.01584C83.1222 4.01584 66.3335 11.3174 65.6319 11.6327C64.1953 12.2633 63.3266 13.7568 63.4937 15.3166L65.5484 34.002C65.0807 33.7862 64.5962 33.6535 64.0783 33.6535C63.8445 33.6535 63.6106 33.6701 63.36 33.7199L59.6515 34.45C59.8185 33.9854 59.9021 33.4875 59.8686 32.9897L58.8162 12.9602C58.716 11.168 57.3128 9.70773 55.5086 9.55838C55.4251 9.55838 53.4873 9.39244 49.6451 9.39244C47.4233 9.39244 45.0011 9.44222 42.4285 9.55838C31.0189 10.023 1.15005 18.3368 0.030802 50.6462C-0.336711 61.0675 2.58669 69.5472 8.68407 75.8199C18.9577 86.3906 34.2262 86.5067 34.861 86.5067C35.145 86.5067 35.3622 86.5067 35.5125 86.4902C42.3616 86.0587 58.6492 83.7521 69.7247 72.136L70.0588 75.1728C70.2592 77.0147 71.8295 78.3921 73.6671 78.3921C73.8007 78.3921 73.9177 78.3921 74.0513 78.3755L94.3147 76.2514C96.2191 76.0523 97.639 74.426 97.5555 72.5342L96.9708 57.4167L97.1378 57.4001L105.44 73.5631C106.075 74.7911 107.345 75.5378 108.664 75.5378C109.015 75.5378 109.383 75.488 109.75 75.3719L131.266 68.7009C131.35 68.6677 131.417 68.6014 131.5 68.5682L131.55 69.0992C131.701 70.991 133.288 72.4015 135.159 72.4015C135.259 72.4015 135.359 72.4015 135.443 72.4015L155.706 70.8084C157.544 70.6591 158.98 69.1656 159.047 67.3236L159.281 60.2378L159.799 69.0162C159.916 70.9246 161.503 72.4015 163.424 72.4015H207.509C208.144 72.4015 208.712 72.2023 209.229 71.9202C209.847 72.7832 210.816 73.4137 211.969 73.4635L255.87 75.5378C255.92 75.5378 255.987 75.5378 256.037 75.5378C256.104 75.5378 256.171 75.5046 256.254 75.488C256.371 76.0357 256.572 76.5667 256.923 77.0147C257.541 77.7947 258.459 78.2925 259.462 78.3755L300.523 81.8935C300.623 81.8935 300.74 81.9101 300.84 81.9101C301.208 81.9101 301.559 81.8437 301.893 81.7441C301.843 83.47 302.995 85.0298 304.749 85.3783L325.197 89.444C325.43 89.4937 325.681 89.5103 325.915 89.5103C327.485 89.5103 328.922 88.4815 329.39 86.9382L347.348 27.4306C347.615 26.4515 347.481 25.3895 346.947 24.51ZM101.565 29.6376C101.565 30.4674 99.9944 31.4298 97.9731 32.1434V26.3188C99.2761 26.4847 100.295 26.883 100.863 27.4306C101.03 27.5965 101.565 28.1275 101.565 29.6376ZM122.379 49.1693C124.651 47.6426 127.291 45.1368 129.245 41.3201L130.815 60.1216L122.379 49.1693ZM257.073 49.1195L245.513 48.0906L262.519 33.0229L259.779 50.8453C259.194 49.8994 258.259 49.2191 257.073 49.1195ZM207.525 45.2198H194.93L210.85 27.8288C211.501 28.3931 212.303 28.7581 213.189 28.7581L231.063 28.8743L210.967 47.9413C210.566 46.398 209.213 45.2198 207.525 45.2198ZM47.7741 36.823L38.0183 38.7646C40.8916 37.6196 44.3329 37.0553 47.7741 36.823ZM159.682 48.5387C159.682 48.5387 159.682 48.5553 159.665 48.5553L160.35 26.8498C160.601 26.8996 160.851 26.9991 161.119 26.9991H179.11L159.682 48.5387Z" fill="#3E327A"/>
<path d="M210.031 80.1843C210.015 80.1843 210.015 80.1843 210.015 80.1843C209.981 80.1843 209.964 80.1843 209.931 80.1843C209.898 80.1843 209.881 80.1843 209.847 80.1843L192.19 80.8812C192.04 80.5825 191.889 80.2838 191.656 80.0515C190.971 79.338 190.018 78.9397 189.033 78.9397H171.793C170.34 78.9397 169.02 79.8026 168.452 81.1468L162.973 94.0406L159.064 82.3084C158.579 80.8315 157.176 79.8358 155.623 79.8358C155.606 79.8358 155.589 79.8358 155.589 79.8358L139.051 80.0017C137.063 80.0183 135.459 81.628 135.459 83.6027V128.988C135.459 130.98 137.08 132.589 139.084 132.589H153.835C155.84 132.589 157.46 130.98 157.46 128.988V128.292C157.978 128.557 158.563 128.706 159.164 128.706H165.028C166.214 128.706 167.299 128.126 167.968 127.213V130.399C167.968 132.39 169.588 134 171.593 134H186.878C188.348 134 189.601 133.137 190.185 131.893C190.787 132.307 191.472 132.589 192.224 132.589C192.29 132.589 192.34 132.589 192.407 132.589L206.44 131.893C208.26 131.793 209.714 130.399 209.881 128.59L213.589 84.3661C213.623 84.1835 213.64 83.9844 213.64 83.7853C213.656 81.7939 212.036 80.1843 210.031 80.1843Z" fill="#3E327A"/>
<path d="M76.4402 74.4592C75.5214 74.4592 74.7363 73.7788 74.6361 72.8495L68.0542 12.9934C67.9707 12.2135 68.405 11.4667 69.1234 11.1515C69.825 10.8362 86.2628 3.68396 100.629 3.68396C101.431 3.68396 102.233 3.70055 103.018 3.75034C121.912 4.89535 132.837 13.0764 132.987 26.186C133.121 38.9803 126.188 44.4731 122.446 46.4976L134.39 61.9968C134.741 62.4614 134.858 63.0754 134.674 63.6396C134.491 64.2038 134.056 64.6353 133.488 64.8178L111.989 71.4888C111.805 71.5386 111.621 71.5718 111.454 71.5718C110.786 71.5718 110.151 71.2067 109.834 70.5927L100.98 53.3511L97.8729 53.6166L98.5244 70.4434C98.5578 71.3892 97.8562 72.2024 96.904 72.3019C96.8873 72.3351 76.4903 74.4592 76.4402 74.4592ZM97.4386 34.3173C100.412 33.6369 104.655 32.0936 104.655 29.4385C104.655 27.9118 104.254 26.7668 103.419 25.9537C101.899 24.4436 99.1759 24.2113 97.6725 24.2113C97.5889 24.2113 97.5054 24.2113 97.4386 24.2113V34.3173Z" fill="url(#paint0_linear_1_4)"/>
<path d="M100.629 5.49275C101.398 5.49275 102.166 5.50934 102.918 5.55912C113.743 6.2229 130.999 9.97324 131.183 26.2192C131.367 42.4651 119.623 45.8172 119.623 45.8172L132.954 63.1252L111.438 69.7962L102.016 51.4759L95.9686 52.0069L96.6869 70.5429L76.4236 72.667L69.8584 12.8109C69.8584 12.8109 86.4801 5.49275 100.629 5.49275ZM95.6345 36.458C95.6345 36.458 106.459 35.1968 106.476 29.4219C106.493 23.2322 100.83 22.3859 97.6892 22.3859C96.4697 22.3859 95.6345 22.5186 95.6345 22.5186V36.458ZM100.629 1.89175C85.8787 1.89175 69.09 9.1933 68.3884 9.5086C66.9517 10.1392 66.0831 11.6327 66.2501 13.1926L72.832 73.0487C73.0324 74.8906 74.6027 76.268 76.4403 76.268C76.5739 76.268 76.6909 76.268 76.8245 76.2514L97.0878 74.1273C98.9922 73.9282 100.412 72.3019 100.329 70.4101L99.744 55.2926L99.911 55.276L108.213 71.439C108.848 72.667 110.118 73.3972 111.438 73.3972C111.788 73.3972 112.156 73.3474 112.523 73.2312L134.023 66.5602C135.159 66.2118 136.044 65.3323 136.395 64.2038C136.746 63.0754 136.545 61.864 135.81 60.9181L125.119 47.0286C129.329 44.2076 134.908 38.1672 134.791 26.1694C134.641 11.9978 123.098 3.16953 103.118 1.95813C102.317 1.90835 101.481 1.89175 100.629 1.89175ZM99.2595 31.9277V26.103C100.563 26.269 101.582 26.6672 102.149 27.2149C102.317 27.3808 102.851 27.9118 102.851 29.4385C102.851 30.2516 101.264 31.2141 99.2595 31.9277Z" fill="#3E327A"/>
<path d="M137.932 68.452C136.996 68.452 136.211 67.7385 136.128 66.7926L131.15 6.95309C131.066 5.99061 131.768 5.1277 132.753 5.01154C132.753 5.01154 160.083 1.82541 160.166 1.82541C160.617 1.82541 161.052 1.99135 161.386 2.30665C161.77 2.65513 161.987 3.16956 161.971 3.68398L160.016 65.1332C159.983 66.0459 159.264 66.7926 158.346 66.8756C158.346 66.859 137.982 68.452 137.932 68.452Z" fill="url(#paint1_linear_1_4)"/>
<path d="M160.15 3.61759H160.166H160.15ZM160.15 3.61759L158.195 65.0668L137.932 66.6598L132.954 6.80372L160.15 3.61759ZM160.15 0.0165944C160.116 0.0165944 160.066 0.0165944 160.033 0.0165944C159.916 0.0165944 159.782 0.0331889 159.665 0.0497833L132.536 3.21932C130.598 3.45164 129.178 5.16087 129.345 7.10242L134.324 66.9585C134.474 68.8503 136.061 70.2608 137.932 70.2608C138.032 70.2608 138.116 70.2608 138.216 70.2442L158.479 68.6512C160.317 68.5018 161.753 67.0083 161.82 65.1663L163.758 3.99926C163.775 3.8665 163.775 3.73375 163.775 3.60099C163.775 1.60966 162.154 0 160.15 0C160.166 0.0165944 160.166 0.0165944 160.15 0.0165944Z" fill="#3E327A"/>
<path d="M166.197 68.452C165.245 68.452 164.443 67.7053 164.393 66.7594L163.324 48.9204C163.29 48.4391 163.457 47.9745 163.791 47.6094L185.959 23.0663H163.892C162.889 23.0663 162.071 22.2531 162.071 21.2575V3.61758C162.071 2.62192 162.889 1.80879 163.892 1.80879H212.771C213.773 1.80879 214.592 2.62192 214.592 3.61758V21.2741C214.592 21.7221 214.425 22.1536 214.124 22.4855L193.593 44.8879H210.282C211.284 44.8879 212.103 45.7011 212.103 46.6967V66.6432C212.103 67.6389 211.284 68.452 210.282 68.452H166.197Z" fill="url(#paint2_linear_1_4)"/>
<path d="M212.771 3.61768V21.2742L189.484 46.6968H210.282V66.6433H166.197L165.128 48.8043L190.018 21.2576H163.892V3.61768H212.771ZM212.771 0.0166931H163.892C161.887 0.0166931 160.267 1.62635 160.267 3.61768V21.2742C160.267 23.2655 161.887 24.8751 163.892 24.8751H181.883L162.422 46.4147C161.77 47.1283 161.436 48.0742 161.503 49.0366L162.572 66.8756C162.689 68.784 164.276 70.2609 166.197 70.2609H210.282C212.286 70.2609 213.907 68.6512 213.907 66.6599V46.6968C213.907 44.7055 212.286 43.0958 210.282 43.0958H197.686L215.444 23.6969C216.045 23.0332 216.396 22.1703 216.396 21.2742V3.61768C216.396 1.62635 214.776 0.0166931 212.771 0.0166931Z" fill="#3E327A"/>
<path d="M214.809 69.5141C213.84 69.4643 213.088 68.6843 213.088 67.7219V49.7003C213.088 49.2025 213.289 48.7378 213.64 48.3893L238.313 24.9746L215.962 24.8253C215.46 24.8253 214.993 24.6095 214.659 24.261C214.324 23.896 214.141 23.4147 214.174 22.9335L215.243 4.39751C215.277 3.89968 215.511 3.45163 215.878 3.13633C216.212 2.85423 216.63 2.70488 217.047 2.70488C217.114 2.70488 266.294 7.83256 266.294 7.83256C267.213 7.93213 267.915 8.69547 267.915 9.62476V25.3397C267.915 25.8541 267.697 26.3353 267.313 26.6838L243.959 47.3937L259.696 48.7876C260.665 48.8706 261.383 49.6837 261.349 50.6462L260.648 69.8459C260.631 70.3272 260.414 70.7752 260.063 71.1071C259.729 71.4058 259.295 71.5884 258.844 71.5884C258.777 71.5884 214.809 69.5141 214.809 69.5141Z" fill="url(#paint3_linear_1_4)"/>
<path d="M217.031 4.49711L266.094 9.60819V25.3231L239.616 48.8042L259.529 50.5798L258.81 69.7796L214.909 67.7053V49.7003L242.807 23.2156L215.962 23.0331L217.031 4.49711ZM217.031 0.896118C216.179 0.896118 215.344 1.19482 214.675 1.75903C213.924 2.40621 213.456 3.3189 213.406 4.29798L212.337 22.834C212.287 23.813 212.637 24.7921 213.306 25.5057C213.99 26.2192 214.926 26.6341 215.928 26.6507L233.803 26.7668L212.37 47.095C211.652 47.7754 211.251 48.7213 211.251 49.7003V67.7219C211.251 69.6468 212.771 71.2233 214.709 71.3229L258.61 73.3972C258.677 73.3972 258.727 73.3972 258.777 73.3972C259.679 73.3972 260.564 73.0653 261.233 72.4513C261.951 71.8041 262.369 70.8914 262.402 69.9289L263.12 50.7292C263.187 48.8208 261.734 47.178 259.813 47.012L248.236 45.9832L268.483 28.0446C269.251 27.3642 269.702 26.3852 269.702 25.3563V9.62479C269.702 7.78281 268.299 6.23952 266.445 6.04039L217.382 0.912713C217.281 0.912713 217.148 0.896118 217.031 0.896118Z" fill="#3E327A"/>
<path d="M262.368 74.4592C261.867 74.4094 261.416 74.1771 261.099 73.7788C260.781 73.3972 260.648 72.8827 260.731 72.3849L270.504 8.64569C270.638 7.74959 271.406 7.119 272.291 7.119C272.358 7.119 300.072 10.4877 300.072 10.4877C300.59 10.554 301.058 10.8196 301.342 11.251C301.642 11.6659 301.726 12.1969 301.609 12.7113L291.937 51.2934L310.312 54.8114C310.83 54.911 311.264 55.2263 311.532 55.6577C311.799 56.1058 311.849 56.6368 311.699 57.1346L305.301 76.7326C305.05 77.4794 304.365 77.9772 303.58 77.9772C303.53 77.9938 262.368 74.4592 262.368 74.4592Z" fill="url(#paint4_linear_1_4)"/>
<path d="M272.308 8.9112L299.855 12.2633L289.731 52.7039L309.995 56.587L303.597 76.185L262.535 72.667L272.308 8.9112ZM272.308 5.31021C270.537 5.31021 269 6.58798 268.733 8.38018L258.961 72.1194C258.81 73.0985 259.077 74.1107 259.696 74.8907C260.314 75.6706 261.232 76.1684 262.235 76.2514L303.296 79.7694C303.396 79.7694 303.513 79.786 303.613 79.786C305.167 79.786 306.57 78.7903 307.071 77.2968L313.469 57.6988C313.787 56.7197 313.67 55.6411 313.135 54.7616C312.601 53.8655 311.715 53.2515 310.696 53.0524L294.192 49.8828L303.396 13.1428C303.647 12.1471 303.463 11.0851 302.862 10.2222C302.277 9.37585 301.341 8.81164 300.322 8.69547L272.776 5.3434C272.592 5.32681 272.442 5.31021 272.308 5.31021Z" fill="#3E327A"/>
<path d="M328.655 85.5775C328.538 85.5775 328.421 85.5775 328.304 85.5443L307.857 81.4787C306.888 81.2961 306.253 80.3668 306.42 79.4044L316.727 18.8513C316.811 18.37 317.078 17.9552 317.479 17.6731C317.779 17.4573 318.147 17.3412 318.515 17.3412C318.615 17.3412 318.732 17.3578 318.849 17.3744L346.93 22.5021C347.431 22.585 347.882 22.9003 348.149 23.3318C348.417 23.7632 348.484 24.2943 348.333 24.7921L330.375 84.2997C330.158 85.0796 329.44 85.5775 328.655 85.5775Z" fill="url(#paint5_linear_1_4)"/>
<path d="M318.514 19.1666L346.596 24.2943L328.638 83.8019L308.191 79.7362L318.514 19.1666ZM318.514 15.549C317.779 15.549 317.044 15.7813 316.426 16.1962C315.624 16.7438 315.09 17.5901 314.923 18.5526L304.616 79.1222C304.282 81.0472 305.551 82.8726 307.472 83.2543L327.919 87.3199C328.153 87.3697 328.404 87.3863 328.638 87.3863C330.208 87.3863 331.645 86.3574 332.112 84.8141L350.07 25.3065C350.371 24.3274 350.238 23.2654 349.686 22.3859C349.152 21.5064 348.266 20.909 347.247 20.7265L319.183 15.6154C318.965 15.5822 318.732 15.549 318.514 15.549Z" fill="#3E327A"/>
<path d="M174.366 130.084C173.363 130.084 172.545 129.271 172.545 128.292V114.85L169.505 123.562C169.254 124.292 168.569 124.774 167.784 124.774H161.92C161.135 124.774 160.434 124.276 160.2 123.529L158.412 118.003V126.848C158.412 127.843 157.594 128.657 156.592 128.657H141.841C140.839 128.657 140.02 127.843 140.02 126.848V81.4786C140.02 80.483 140.822 79.6864 141.824 79.6698C141.824 79.6698 158.362 79.5039 158.379 79.5039C159.164 79.5039 159.849 80.0017 160.1 80.7319L165.512 97.011L172.879 79.703C173.163 79.0393 173.815 78.6078 174.55 78.6078H191.789C192.29 78.6078 192.758 78.8069 193.092 79.1554C193.426 79.5039 193.61 79.9851 193.593 80.483L191.455 128.341C191.405 129.304 190.62 130.067 189.651 130.067H174.366V130.084Z" fill="url(#paint6_linear_1_4)"/>
<path d="M191.789 80.4332L189.651 128.292H174.366V104.18L167.784 122.981H161.92L156.592 106.553V126.848H141.841V81.4787L158.362 81.3127L165.295 102.139L174.533 80.4166H191.789M191.789 76.8156H174.55C173.096 76.8156 171.777 77.6785 171.209 79.0227L165.713 91.9165L161.804 80.1843C161.302 78.7074 159.916 77.7117 158.362 77.7117C158.346 77.7117 158.329 77.7117 158.329 77.7117L141.791 77.8943C139.803 77.9108 138.199 79.5205 138.199 81.4952V126.881C138.199 128.872 139.82 130.482 141.824 130.482H156.575C158.579 130.482 160.2 128.872 160.2 126.881V126.184C160.718 126.45 161.302 126.599 161.904 126.599H167.767C168.953 126.599 170.039 126.018 170.707 125.089V128.292C170.707 130.283 172.328 131.893 174.332 131.893H189.618C191.555 131.893 193.159 130.366 193.243 128.457L195.381 80.5991C195.431 79.6201 195.063 78.6576 194.379 77.944C193.727 77.2139 192.775 76.8156 191.789 76.8156Z" fill="#3E327A"/>
<path d="M194.996 128.673C194.529 128.673 194.078 128.491 193.744 128.175C193.376 127.827 193.176 127.362 193.176 126.864V82.3748C193.176 81.4123 193.944 80.6158 194.913 80.5826C194.913 80.5826 212.737 79.8856 212.754 79.8856C213.255 79.8856 213.723 80.0847 214.057 80.4332C214.425 80.7983 214.592 81.3127 214.558 81.8272L210.816 126.317C210.749 127.213 210.014 127.926 209.096 127.976C209.112 127.96 195.013 128.673 194.996 128.673Z" fill="url(#paint7_linear_1_4)"/>
<path d="M212.771 81.6612H212.788H212.771ZM212.771 81.6612L209.029 126.151L194.997 126.848V82.3748L212.771 81.6612ZM212.771 78.0602C212.737 78.0602 212.721 78.0602 212.687 78.0602C212.654 78.0602 212.637 78.0602 212.604 78.0602L194.846 78.7572C192.908 78.8235 191.355 80.4166 191.355 82.3582V126.848C191.355 127.843 191.772 128.773 192.491 129.453C193.159 130.084 194.061 130.449 194.997 130.449C195.063 130.449 195.114 130.449 195.18 130.449L209.213 129.752C211.034 129.669 212.487 128.242 212.654 126.45L216.362 82.2254C216.396 82.0429 216.413 81.8437 216.413 81.6446C216.413 79.6533 214.792 78.0436 212.788 78.0436H212.771C212.771 78.0602 212.771 78.0602 212.771 78.0602Z" fill="#3E327A"/>
<path d="M37.6174 82.5905C36.9993 82.5905 22.4825 82.4743 12.7434 72.4513C6.99685 66.5437 4.2405 58.4954 4.59131 48.5719C5.66044 17.6399 34.3098 9.69116 45.2516 9.24311C48.1249 9.12695 50.4971 9.07716 52.3847 9.07716C56.2269 9.07716 58.0979 9.24311 58.0979 9.24311C59 9.32608 59.7016 10.0396 59.7517 10.9523L60.8208 30.9818C60.8543 31.4962 60.6538 31.9941 60.2863 32.3591C59.9522 32.691 59.4844 32.8902 59 32.8902C58.9666 32.8902 58.9332 32.8902 58.8997 32.8902C57.4798 32.8238 56.0933 32.774 54.7569 32.774C44.2994 32.774 31.8541 35.0474 31.8541 45.8504C31.8541 53.1852 35.1283 56.8027 42.1445 57.1844L42.7626 57.201C46.4043 57.201 48.5091 55.359 49.2943 54.4795L49.2442 54.0978L38.152 55.9896C38.0517 56.0062 37.9515 56.0228 37.8513 56.0228C37.4503 56.0228 37.0661 55.89 36.7487 55.6577C36.3478 55.359 36.0972 54.8944 36.0471 54.3965L34.8109 41.3367C34.7274 40.424 35.3455 39.5777 36.2643 39.3952L66.4839 33.3714C66.6008 33.3548 66.7178 33.3382 66.8347 33.3382C67.2022 33.3382 67.5697 33.4544 67.8704 33.6701C68.2713 33.9522 68.5553 34.3837 68.6221 34.8815L73.2495 65.5148C73.333 66.0126 73.1826 66.5271 72.8652 66.9253C62.2909 79.7362 45.1514 82.1424 38.2856 82.5905H37.6174Z" fill="url(#paint8_linear_1_4)"/>
<path d="M52.4014 10.8859C56.1433 10.8859 57.9642 11.0519 57.9642 11.0519L59.0333 31.0814C57.58 30.9984 56.16 30.9652 54.7902 30.9652C40.1565 30.9652 30.0666 35.3295 30.0666 45.8338C30.0666 57.3338 37.9514 58.7443 42.0609 58.9766C42.3115 58.9932 42.5453 58.9932 42.7792 58.9932C48.5759 58.9932 51.1986 54.9939 51.1986 54.9939L50.8478 51.9903L37.8679 54.1974L36.6317 41.1376L66.8346 35.1304L71.462 65.7637C60.0857 79.5371 40.7078 80.5991 38.0517 80.7651C37.9514 80.7817 37.8178 80.7817 37.634 80.7817C33.1403 80.7817 5.39309 78.1764 6.4121 48.6383C7.48123 17.922 36.7988 11.3838 45.3351 11.0353C48.175 10.9191 50.5304 10.8859 52.4014 10.8859ZM52.4014 7.26836C50.1796 7.26836 47.7573 7.31814 45.1847 7.4343C33.7751 7.91554 3.90633 16.2128 2.78709 48.5221C2.41957 58.96 5.34297 67.4232 11.4571 73.7125C21.7307 84.2831 36.9992 84.3993 37.634 84.3993C37.918 84.3993 38.1352 84.3993 38.2855 84.3827C45.5021 83.918 63.243 81.4123 74.2684 68.0703C74.9199 67.2738 75.2039 66.2616 75.0536 65.2493L70.4262 34.616C70.2759 33.6369 69.7413 32.774 68.9228 32.2098C68.3047 31.7783 67.5696 31.546 66.8346 31.546C66.6007 31.546 66.3669 31.5792 66.1163 31.6124L62.4078 32.3425C62.5748 31.8779 62.6583 31.3801 62.6249 30.8822L61.5725 10.8528C61.4723 9.06056 60.069 7.60025 58.2649 7.4509C58.1814 7.4343 56.2436 7.26836 52.4014 7.26836ZM40.7746 36.6405C43.6479 35.5121 47.0891 34.9313 50.5304 34.6989L40.7746 36.6405Z" fill="#3E327A"/>
<defs>
<linearGradient id="paint0_linear_1_4" x1="101.408" y1="74.4614" x2="101.408" y2="3.69607" gradientUnits="userSpaceOnUse">
<stop stop-color="#FDBA4D"/>
<stop offset="0.1214" stop-color="#FFC740"/>
<stop offset="0.3213" stop-color="#FFD92A"/>
<stop offset="0.5295" stop-color="#FFE604"/>
<stop offset="0.7494" stop-color="#FFEE00"/>
<stop offset="1" stop-color="#FFF200"/>
</linearGradient>
<linearGradient id="paint1_linear_1_4" x1="146.555" y1="68.4564" x2="146.555" y2="1.81944" gradientUnits="userSpaceOnUse">
<stop stop-color="#FDBA4D"/>
<stop offset="0.1214" stop-color="#FFC740"/>
<stop offset="0.3213" stop-color="#FFD92A"/>
<stop offset="0.5295" stop-color="#FFE604"/>
<stop offset="0.7494" stop-color="#FFEE00"/>
<stop offset="1" stop-color="#FFF200"/>
</linearGradient>
<linearGradient id="paint2_linear_1_4" x1="188.325" y1="68.4563" x2="188.325" y2="1.81941" gradientUnits="userSpaceOnUse">
<stop stop-color="#FDBA4D"/>
<stop offset="0.1214" stop-color="#FFC740"/>
<stop offset="0.3213" stop-color="#FFD92A"/>
<stop offset="0.5295" stop-color="#FFE604"/>
<stop offset="0.7494" stop-color="#FFEE00"/>
<stop offset="1" stop-color="#FFF200"/>
</linearGradient>
<linearGradient id="paint3_linear_1_4" x1="240.492" y1="71.5953" x2="240.492" y2="2.70339" gradientUnits="userSpaceOnUse">
<stop stop-color="#FDBA4D"/>
<stop offset="0.1214" stop-color="#FFC740"/>
<stop offset="0.3213" stop-color="#FFD92A"/>
<stop offset="0.5295" stop-color="#FFE604"/>
<stop offset="0.7494" stop-color="#FFEE00"/>
<stop offset="1" stop-color="#FFF200"/>
</linearGradient>
<linearGradient id="paint4_linear_1_4" x1="286.259" y1="77.9877" x2="286.259" y2="7.11618" gradientUnits="userSpaceOnUse">
<stop stop-color="#FDBA4D"/>
<stop offset="0.1214" stop-color="#FFC740"/>
<stop offset="0.3213" stop-color="#FFD92A"/>
<stop offset="0.5295" stop-color="#FFE604"/>
<stop offset="0.7494" stop-color="#FFEE00"/>
<stop offset="1" stop-color="#FFF200"/>
</linearGradient>
<linearGradient id="paint5_linear_1_4" x1="327.407" y1="85.5856" x2="327.407" y2="17.3556" gradientUnits="userSpaceOnUse">
<stop stop-color="#FDBA4D"/>
<stop offset="0.1214" stop-color="#FFC740"/>
<stop offset="0.3213" stop-color="#FFD92A"/>
<stop offset="0.5295" stop-color="#FFE604"/>
<stop offset="0.7494" stop-color="#FFEE00"/>
<stop offset="1" stop-color="#FFF200"/>
</linearGradient>
<linearGradient id="paint6_linear_1_4" x1="166.816" y1="130.077" x2="166.816" y2="78.6246" gradientUnits="userSpaceOnUse">
<stop stop-color="#FDBA4D"/>
<stop offset="0.1214" stop-color="#FFC740"/>
<stop offset="0.3213" stop-color="#FFD92A"/>
<stop offset="0.5295" stop-color="#FFE604"/>
<stop offset="0.7494" stop-color="#FFEE00"/>
<stop offset="1" stop-color="#FFF200"/>
</linearGradient>
<linearGradient id="paint7_linear_1_4" x1="203.877" y1="128.666" x2="203.877" y2="79.8659" gradientUnits="userSpaceOnUse">
<stop stop-color="#FDBA4D"/>
<stop offset="0.1214" stop-color="#FFC740"/>
<stop offset="0.3213" stop-color="#FFD92A"/>
<stop offset="0.5295" stop-color="#FFE604"/>
<stop offset="0.7494" stop-color="#FFEE00"/>
<stop offset="1" stop-color="#FFF200"/>
</linearGradient>
<linearGradient id="paint8_linear_1_4" x1="38.9201" y1="82.5933" x2="38.9201" y2="9.077" gradientUnits="userSpaceOnUse">
<stop stop-color="#FDBA4D"/>
<stop offset="0.1214" stop-color="#FFC740"/>
<stop offset="0.3213" stop-color="#FFD92A"/>
<stop offset="0.5295" stop-color="#FFE604"/>
<stop offset="0.7494" stop-color="#FFEE00"/>
<stop offset="1" stop-color="#FFF200"/>
</linearGradient>
</defs>
</svg>
