<svg width="32" height="32" viewBox="0 0 32 32" fill="none" xmlns="http://www.w3.org/2000/svg">
<path d="M3.77844 24.3231C3.77844 24.3275 3.77844 24.3356 3.77344 24.3469C3.77531 24.3394 3.77656 24.3312 3.77844 24.3231Z" fill="#7237EC"/>
<path d="M27.4946 25.35C27.2888 25.3456 27.0856 25.3032 26.8952 25.225L23.3464 23.9669L23.3202 23.9563C23.2428 23.924 23.1597 23.9078 23.0758 23.9088C22.9985 23.9088 22.9219 23.9228 22.8496 23.95C22.7633 23.9825 21.9864 24.2744 21.1714 24.4981C20.7296 24.6194 19.1914 25.015 17.9571 25.015C14.8021 25.015 11.8521 23.8025 9.65144 21.6006C8.57638 20.5322 7.72393 19.2611 7.14343 17.861C6.56293 16.4608 6.26591 14.9595 6.26956 13.4438C6.26954 12.654 6.35461 11.8665 6.52331 11.095C7.07269 8.55626 8.52769 6.24688 10.6202 4.59501C12.7667 2.91128 15.4165 1.9974 18.1446 2.00001C21.4077 2.00001 24.4483 3.25001 26.7071 5.51126C28.8421 7.65313 30.0121 10.4694 30.0027 13.4406C30.0008 15.6485 29.3416 17.8058 28.1089 19.6375L28.0971 19.655L28.0508 19.7175C28.0402 19.7319 28.0296 19.7456 28.0196 19.76L28.0102 19.7769C27.9853 19.8192 27.9628 19.8628 27.9427 19.9075L28.9264 23.4038C28.9699 23.548 28.9935 23.6975 28.9964 23.8481C28.9967 24.0454 28.958 24.2408 28.8826 24.4232C28.8072 24.6055 28.6966 24.7712 28.5571 24.9107C28.4176 25.0502 28.2519 25.1608 28.0696 25.2362C27.8873 25.3116 27.6919 25.3503 27.4946 25.35Z" fill="#7237EC"/>
<path d="M18.7419 26.5869C18.6773 26.4613 18.5865 26.351 18.4755 26.2637C18.3645 26.1763 18.236 26.1139 18.0988 26.0806C17.7375 25.985 17.3163 26.0012 16.9944 25.9775C13.9552 25.7662 11.0953 24.4619 8.94315 22.3056C7.02987 20.403 5.78643 17.9304 5.40003 15.26C5.31253 14.6512 5.31253 14.5 5.31253 14.5C5.31249 14.2969 5.25061 14.0986 5.13511 13.9315C5.01962 13.7645 4.85599 13.6365 4.666 13.5647C4.476 13.4929 4.26865 13.4807 4.07153 13.5297C3.87441 13.5786 3.69687 13.6864 3.56253 13.8387C3.56253 13.8387 3.07003 14.375 2.83753 14.9131C2.18546 16.4155 1.90737 18.0537 2.02711 19.6871C2.14685 21.3205 2.66084 22.9006 3.52503 24.2919C3.68753 24.5625 3.68753 24.6875 3.65128 24.9687C3.48066 25.8506 3.18191 27.4062 3.02628 28.2131C2.97475 28.4748 2.99392 28.7455 3.08181 28.9973C3.16969 29.249 3.32312 29.4729 3.52628 29.6456L3.55503 29.67C3.82379 29.8834 4.15682 29.9997 4.50003 30C4.69307 30.0002 4.88424 29.9621 5.06253 29.8881L8.4069 28.5975C8.52205 28.5537 8.64926 28.5537 8.7644 28.5975C10.0813 29.0875 11.4519 29.3475 12.7507 29.3475C14.3689 29.349 15.9675 28.9935 17.4325 28.3062C17.7738 28.1462 18.3075 27.9725 18.62 27.6112C18.7383 27.4711 18.8129 27.2994 18.8345 27.1173C18.8562 26.9353 18.824 26.7508 18.7419 26.5869Z" fill="#7237EC"/>
</svg>
