<svg width="11" height="11" viewBox="0 0 11 11" fill="none" xmlns="http://www.w3.org/2000/svg">
<path fill-rule="evenodd" clip-rule="evenodd" d="M5.55987 4.99579L1.25173 0.764561C1.12269 0.635827 0.914525 0.63592 0.785884 0.764561C0.657243 0.893202 0.65715 1.10168 0.785884 1.23041L5.05564 5.50002L0.785882 9.76978C0.657148 9.8982 0.657148 10.1069 0.785882 10.2356C0.914307 10.3641 1.12269 10.3641 1.25173 10.2356L5.55988 6.00424L9.63581 10.08C9.76424 10.2088 10.1166 10.2765 10.2625 10.08C10.3709 9.93409 10.2625 9.61449 10.2625 9.61449L6.07325 5.50001L10.2625 1.38539C10.2625 1.38539 10.3709 1.06579 10.2625 0.919851C10.1166 0.723388 9.76424 0.791117 9.63581 0.919851L5.55987 4.99579Z" fill="#CDCDCD"/>
</svg>
