<svg width="19" height="16" viewBox="0 0 19 16" fill="none" xmlns="http://www.w3.org/2000/svg">
<path d="M9.9453 14.5547L16.2734 8.22661C17.8281 6.66411 18.0547 4.10942 16.5859 2.47661C16.2176 2.06513 15.7692 1.73308 15.2682 1.50074C14.7672 1.2684 14.2241 1.14064 13.672 1.12529C13.12 1.10993 12.5706 1.2073 12.0574 1.41143C11.5443 1.61556 11.0781 1.92218 10.6875 2.31255L9.49999 3.50786L8.47655 2.47661C6.91405 0.921922 4.35936 0.695359 2.72655 2.16411C2.31507 2.53246 1.98302 2.98083 1.75068 3.48184C1.51833 3.98285 1.39058 4.52597 1.37523 5.07802C1.35987 5.63007 1.45724 6.17945 1.66137 6.6926C1.8655 7.20575 2.17212 7.6719 2.56249 8.06255L9.05467 14.5547C9.17317 14.6721 9.33321 14.7379 9.49999 14.7379C9.66677 14.7379 9.8268 14.6721 9.9453 14.5547Z" stroke="white" stroke-linecap="round" stroke-linejoin="round"/>
</svg>
