<svg width="175" height="126" viewBox="0 0 175 126" fill="none" xmlns="http://www.w3.org/2000/svg">
<path d="M78.717 112.14C76.6098 108.314 75.048 100.339 75.048 100.339L82.2353 89.6823L75.4492 61.1952L66.5238 47.2773L71.9143 32.9603L63.9894 21.5962C64.2878 19.7645 64.712 17.9556 65.259 16.1823L60.6343 12.8958L54.37 22.5607L67.1722 103.267L75.4257 118.347L78.717 112.14Z" fill="#7237EC"/>
<path opacity="0.2" d="M78.717 112.14C76.6098 108.314 75.048 100.339 75.048 100.339L82.2353 89.6823L75.4492 61.1952L66.5238 47.2773L71.9143 32.9603L63.9894 21.5962C64.2878 19.7645 64.712 17.9556 65.259 16.1823L60.6343 12.8958L54.37 22.5607L67.1722 103.267L75.4257 118.347L78.717 112.14Z" fill="black"/>
<path d="M71.3943 105.378L79.2508 93.6583L71.7941 62.3647L62.0157 47.1058L67.9372 31.3279L59.2216 18.7974C59.5509 16.7841 60.0187 14.7958 60.6215 12.8468C52.6415 7.43413 42.868 5.34023 33.371 7.00857C23.874 8.67692 15.3993 13.9765 9.74186 21.7848C4.08442 29.5932 1.68854 39.297 3.06166 48.8412C4.43479 58.3854 9.46906 67.0203 17.0983 72.9171L75.4264 118.347C73.1088 114.088 71.3943 105.378 71.3943 105.378Z" fill="#7237EC"/>
<path opacity="0.2" d="M55.4974 9.94512C54.4953 17.2696 49.3084 23.1261 47.3403 25.3476C46.8996 25.857 46.4187 26.3593 45.9971 26.8574C43.529 29.5925 40.9775 32.4133 40.4841 34.8066C40.0977 36.6152 40.7376 39.1355 41.4081 41.8027C41.5585 42.3688 41.6989 42.9356 41.8387 43.4926C42.9194 47.9804 43.9279 54.6322 40.2426 60.6189C37.7086 64.7813 33.8934 67.0469 30.5339 69.1502C28.4766 70.4132 26.3528 71.7208 25.4979 72.9664C24.6516 74.6268 24.1436 76.4388 24.0034 78.2972L17.0523 72.8313C15.2385 71.4193 13.5592 69.8424 12.036 68.1208C12.511 66.9845 13.099 65.8989 13.7912 64.8802C16.3369 61.1546 19.9281 58.9549 23.0897 57.0052C25.1944 55.709 27.3754 54.3674 28.1413 53.1282C28.9071 51.889 28.8078 49.9663 28.028 46.7499C27.9116 46.241 27.7783 45.7731 27.6484 45.2155C26.702 41.4839 25.5307 36.8434 26.5801 31.8234C27.8674 25.6919 31.892 21.2326 35.4738 17.253L36.7351 15.8486C41.3337 10.6614 41.6663 7.97132 41.4645 6.83197C41.4436 6.69574 41.4106 6.56165 41.3659 6.43125C46.2645 6.6421 51.0705 7.83713 55.4974 9.94512Z" fill="white"/>
<path d="M109.177 10.1595L104.153 9.34123L101.106 14.6554L105.882 29.1551L95.6554 42.5684L100.649 59.9888L98.843 92.1245L87.9604 101.108C87.9604 101.108 87.104 109.946 88.1117 114.684L88.2838 114.923L93.3076 115.741L112.368 89.8741L126.605 35.3651L109.177 10.1595Z" fill="#7237EC"/>
<path opacity="0.2" d="M109.177 10.1595L104.153 9.34123L101.106 14.6554L105.882 29.1551L95.6554 42.5684L100.649 59.9888L98.843 92.1245L87.9604 101.108C87.9604 101.108 87.104 109.946 88.1117 114.684L88.2838 114.923L93.3076 115.741L112.368 89.8741L126.605 35.3651L109.177 10.1595Z" fill="black"/>
<path d="M153.82 72.6899C161.84 66.9803 167.264 58.3185 168.898 48.6098C170.532 38.9011 168.243 28.941 162.533 20.9205C156.823 12.9 148.162 7.47609 138.453 5.84201C128.744 4.20794 118.784 6.49754 110.764 12.2071C110.257 11.4913 109.724 10.8114 109.179 10.1496C108.044 11.8497 107.025 13.6252 106.132 15.4637L110.907 29.9635L100.681 43.3768L105.674 60.7971L103.868 92.9328L92.9857 101.917C92.9857 101.917 92.1293 110.754 93.1369 115.492L93.3091 115.731L153.82 72.6899Z" fill="#7237EC"/>
<path opacity="0.2" d="M162.531 20.9304C161.233 19.0971 159.768 17.3879 158.155 15.8247C157.866 16.059 157.594 16.3063 157.331 16.565C155.602 18.4169 154.249 20.5861 153.345 22.9527C153.081 23.6142 152.768 24.2555 152.41 24.8712C151.779 25.844 149.679 27.5629 142.775 28.1674L140.89 28.3228C135.605 28.7387 129.619 29.2012 124.474 32.7664C120.249 35.6871 117.91 39.8601 116.027 43.2126C115.771 43.6735 115.515 44.1344 115.249 44.5938C113.606 47.4625 112.236 48.9585 110.944 49.3009C109.652 49.6433 107.029 49.1457 104.61 48.631C103.777 48.4955 102.938 48.2784 102.06 48.1152L105.708 60.833L105.577 63.2443C108.566 63.8078 111.641 63.7225 114.595 62.9941C121.393 61.1861 125.236 55.6798 127.499 51.6555L128.36 50.137C129.707 47.7326 130.971 45.4655 132.489 44.4159C134.503 43.0351 138.291 42.7372 141.958 42.4399L143.995 42.279C147.656 41.9605 158.783 40.9782 164.253 32.6407C165.047 31.3668 165.736 30.0299 166.311 28.6433C166.337 28.4866 166.444 28.3231 166.521 28.1548C165.465 25.6056 164.126 23.1824 162.531 20.9304Z" fill="white"/>
</svg>
