<svg width="144" height="125" viewBox="0 0 144 125" fill="none" xmlns="http://www.w3.org/2000/svg">
<path d="M110.77 80.0382V21.605C110.76 21.0582 110.619 20.5219 110.36 20.0402C110.101 19.5585 109.731 19.1454 109.281 18.835L102.798 14.1594L80.4301 1.24451C77.5658 -0.409629 72.9256 -0.409629 70.0652 1.24451L2.65406 40.1659C1.22781 40.991 0.512719 42.0676 0.50879 43.1481V98.8506C0.508091 100.658 0.983414 102.434 1.88695 104C2.79049 105.566 4.09038 106.866 5.65588 107.77L14.1977 112.708C17.9777 114.892 22.266 116.041 26.6312 116.041C30.9965 116.041 35.2848 114.892 39.0648 112.708L89.8363 83.3936L94.7005 86.2029C97.3841 87.7509 102.826 87.1262 106.853 84.8002C109.391 83.3347 110.759 81.5469 110.755 80.0382H110.77Z" fill="#37474F"/>
<path d="M0.50879 43.148V98.8505C0.508091 100.658 0.983414 102.434 1.88695 104C2.79049 105.566 4.09038 106.866 5.65588 107.77L14.1977 112.708C17.9773 114.891 22.2648 116.04 26.6293 116.04V54.3891L2.33581 40.3623C1.12958 41.156 0.512719 42.15 0.50879 43.148Z" fill="#263238"/>
<path d="M89.8484 83.3934L94.7126 86.2027C97.3961 87.7507 102.838 87.126 106.865 84.8C109.403 83.3345 110.771 81.5467 110.767 80.038V21.6048C110.757 21.0584 110.617 20.5222 110.358 20.0406C110.1 19.5589 109.731 19.1456 109.282 18.8348L102.799 14.1592L88.2139 24.4494V84.3325L89.8484 83.3934Z" fill="#37474F"/>
<path opacity="0.1" d="M94.7125 86.2028C95.8912 86.8825 97.6082 87.1458 99.4981 87.024V27.302L99.2663 16.666L88.2295 24.4534V84.3326L89.8483 83.3935L94.7125 86.2028Z" fill="black"/>
<path d="M93.899 27.7226C97.0422 29.5299 102.838 29.1095 106.865 26.7875C110.892 24.4654 111.973 20.8938 109.297 18.8311L102.814 14.1555L80.4458 1.24061C77.5815 -0.413535 72.9413 -0.413535 70.0809 1.24061L2.65408 40.1659C-0.210215 41.8201 -0.210215 44.4879 2.65408 46.1539L14.2095 52.8333C17.9902 55.0147 22.2782 56.163 26.643 56.163C31.0079 56.163 35.2959 55.0147 39.0766 52.8333L88.2293 24.4536L93.899 27.7226Z" fill="#455A64"/>
<path d="M76.2536 26.1547C76.0817 25.8499 75.8306 25.5974 75.5267 25.4239L46.3533 8.57995C46.0512 8.40507 45.7083 8.31299 45.3593 8.31299C45.0102 8.31299 44.6673 8.40507 44.3652 8.57995L25.1324 19.6835C24.0615 20.3776 23.2302 21.3845 22.7514 22.5675L20.1621 30.0327L49.3355 46.8727L78.5089 30.0327L76.2536 26.1547Z" fill="#455A64"/>
<path d="M76.2538 26.1548C76.0642 25.8445 75.7922 25.5928 75.468 25.428L74.5172 24.9054L72.6155 23.8603L68.8279 21.7386L61.284 17.4362L53.7874 13.0553L50.0547 10.8354C48.821 10.0849 47.5755 9.34232 46.3457 8.58008C47.6227 9.26374 48.8839 9.97098 50.153 10.6664L53.9406 12.7881L61.4844 17.0905L68.9811 21.4714L72.7098 23.6913L74.5682 24.815L75.4955 25.3769C75.8164 25.5598 76.0792 25.8294 76.2538 26.1548Z" fill="#263238"/>
<path d="M23.7612 20.9136C23.3284 21.4082 22.9854 21.9747 22.7475 22.5874L20.1582 30.0526L49.3316 46.8965L52.7538 44.932L55.6377 39.3213L23.7612 20.9136Z" fill="#37474F"/>
<path d="M51.9164 39.4312C52.3952 38.2483 53.2265 37.2414 54.2974 36.5473L73.5499 25.4437C73.7769 25.3126 74.0275 25.2276 74.2874 25.1933C74.5473 25.1591 74.8114 25.1764 75.0646 25.2443C75.3178 25.3122 75.5552 25.4293 75.7632 25.5889C75.9711 25.7485 76.1456 25.9475 76.2766 26.1745L78.5202 30.0604V31.9306L49.3311 48.7746V46.9043L51.9164 39.4312Z" fill="#263238"/>
<path d="M72.6072 27.872L55.8143 37.565C55.1716 37.9801 54.6734 38.584 54.3881 39.2938L52.9264 43.5097C52.7103 44.1345 52.9972 44.3741 53.5708 44.0441L74.8507 31.7579C74.9884 31.6809 75.1092 31.5771 75.2061 31.4525C75.3029 31.328 75.3738 31.1853 75.4144 31.0329C75.4551 30.8804 75.4648 30.7214 75.4428 30.5652C75.4209 30.409 75.3679 30.2587 75.2868 30.1234L74.2417 28.3081C74.0823 28.034 73.8209 27.8342 73.5145 27.7524C73.2082 27.6707 72.8819 27.7137 72.6072 27.872Z" fill="#37474F"/>
<path d="M78.6707 42.4288L78.2778 42.3974H77.9792H77.6295H77.5391H77.1226H77.0637C76.9262 42.3974 76.7926 42.3974 76.6708 42.4209L76.1953 42.4681C73.6849 42.8083 71.2703 43.6572 69.0994 44.9631C58.4909 51.0296 49.8234 65.8657 49.7684 78.0891C49.6949 80.6698 50.1592 83.2375 51.1318 85.629C51.3125 86.0219 51.505 86.4148 51.7094 86.7802C51.8037 86.9531 51.9019 87.1181 52.008 87.2831L52.0551 87.3578C52.1376 87.4914 52.228 87.6171 52.3144 87.7507L52.3694 87.8293L49.6466 84.187L49.5955 84.1242C49.5451 84.068 49.4978 84.0089 49.4541 83.9473L49.3166 83.7627C49.2891 83.7234 49.2615 83.688 49.238 83.6487C47.7135 81.5074 46.853 78.4899 46.8805 74.7376C46.9277 63.4611 54.9116 49.7723 64.7107 44.1733C67.5553 42.5467 70.2389 41.7844 72.6199 41.8159C73.0309 41.8165 73.4416 41.8415 73.8497 41.8905H73.8968L78.6707 42.4288Z" fill="#263238"/>
<path d="M60.955 93.6088C61.3237 93.925 61.718 94.2102 62.1338 94.4614L55.3404 90.5323C55.3258 90.5275 55.3133 90.5178 55.305 90.5048L55.2265 90.4616C51.8199 88.4224 49.7258 84.1358 49.7572 78.0772C49.8122 65.8499 58.4601 51.0137 69.0843 44.9472C72.1647 43.183 75.0761 42.3579 77.6536 42.3697C79.4056 42.3507 81.1309 42.7996 82.6514 43.6703L89.2758 47.5168C85.8497 45.7016 81.1859 46.0395 76.0388 48.9784C65.4303 55.0528 56.7863 69.8811 56.7116 82.1162C56.6744 84.1524 56.9487 86.1823 57.525 88.1356C58.1189 90.2516 59.3098 92.1517 60.955 93.6088Z" fill="#37474F"/>
<path d="M74.6357 101.51C75.0043 101.828 75.3985 102.114 75.8144 102.367L69.021 98.4378C69.0075 98.4328 68.9954 98.4248 68.9856 98.4142L68.9071 98.371C65.5006 96.3279 63.4064 92.0452 63.4339 85.9826C63.4889 73.7593 72.1407 58.9191 82.7649 52.8566C85.8453 51.0924 88.7568 50.2634 91.3342 50.2752C93.081 50.262 94.8001 50.7121 96.3163 51.5796L102.952 55.4105C99.5263 53.5913 94.8625 53.9332 89.7154 56.8682C79.1069 62.9425 70.4433 77.7709 70.3883 90.006C70.3511 92.0435 70.6254 94.0746 71.2016 96.0293C71.7928 98.1496 72.9856 100.053 74.6357 101.51Z" fill="#37474F"/>
<path d="M67.6816 97.4989C68.0495 97.8161 68.4439 98.1013 68.8603 98.3515L62.063 94.4225C62.0509 94.4153 62.0402 94.406 62.0315 94.3949L61.953 94.3517C58.5465 92.3125 56.4523 88.0259 56.4798 81.9634C56.5348 69.74 65.1866 54.9038 75.8069 48.8373C78.8873 47.0732 81.8026 46.2481 84.3762 46.2599C86.1294 46.2409 87.856 46.6898 89.3779 47.5604L96.0102 51.3873C92.584 49.5681 87.9241 49.91 82.7731 52.8489C72.1646 58.9193 63.5207 73.7516 63.446 85.9828C63.4116 88.0204 63.6872 90.0513 64.2633 92.0061C64.8505 94.1278 66.0374 96.035 67.6816 97.4989Z" fill="#455A64"/>
<path d="M57.6619 73.7672L64.6281 77.7906C64.6635 77.657 64.7028 77.5273 64.7381 77.3976L57.7719 73.3743L57.6619 73.7672ZM58.6638 70.6239L65.63 74.6277C65.6733 74.5019 65.7204 74.3723 65.7676 74.2347L58.8013 70.2114L58.6638 70.6239ZM59.8857 67.5868L66.848 71.5905L67.0131 71.229L60.0507 67.2056L59.8857 67.5868ZM61.3159 64.6714L68.2822 68.6908L68.4668 68.3372L61.5045 64.302L61.3159 64.6714ZM63.972 80.7059L57.0254 76.6708C56.9979 76.8083 56.9704 76.9458 56.9468 77.0873L63.913 81.1067C63.917 80.9692 63.9445 80.8317 63.972 80.6902V80.7059ZM57.324 88.1005C57.3868 88.2969 57.4536 88.4934 57.5204 88.678L64.4906 92.7014C64.4238 92.5128 64.3609 92.3085 64.2981 92.1317L57.324 88.1005ZM63.5162 87.9354L56.5499 83.9121C56.5499 84.0771 56.5774 84.2382 56.5932 84.3953L63.5555 88.4187C63.5398 88.2419 63.528 88.0808 63.5162 87.9197V87.9354ZM63.5162 84.195L56.5539 80.1559C56.5539 80.3052 56.5342 80.4506 56.5264 80.5999L63.4926 84.6232C63.5005 84.4739 63.5123 84.3285 63.5201 84.1792L63.5162 84.195ZM62.9347 61.8621L69.9009 65.8855L70.1131 65.5476L63.1547 61.5124L62.9347 61.8621ZM74.3683 49.7488L81.3267 53.7643L81.6999 53.5207L74.7455 49.4816L74.3683 49.7488ZM77.6648 47.9099L84.6153 51.9215C84.7646 51.8508 84.9179 51.7879 85.0672 51.7211L78.1048 47.7017C77.9634 47.7489 77.8141 47.8235 77.6687 47.9099H77.6648ZM82.3797 46.4326C82.1832 46.4601 81.9868 46.5073 81.7785 46.5426L88.7291 50.5581C88.9334 50.5189 89.122 50.4796 89.3381 50.4481L82.3797 46.4326ZM71.5354 51.839L78.4978 55.8585L78.8199 55.5834L71.8615 51.564L71.5354 51.839ZM69.0248 54.1336L75.9871 58.153L76.2818 57.8584L69.3194 53.8389L69.0248 54.1336ZM64.7617 59.155L71.724 63.1744C71.8026 63.0683 71.8773 62.9583 71.9598 62.8483L64.9935 58.8288L64.7617 59.155ZM66.7813 56.5775L73.7436 60.5969L74.0108 60.2905L67.0445 56.271L66.7813 56.5775Z" fill="#263238"/>
<path d="M83.1624 98.654C83.1035 111.581 92.1561 116.861 103.381 110.441C114.607 104.021 123.754 88.3481 123.813 75.4214C123.872 62.4947 114.819 57.2141 103.594 63.6342C92.3682 70.0543 83.2213 85.7274 83.1624 98.654Z" fill="#263238"/>
<path d="M104.143 54.2398L103.53 53.8822C99.9074 51.9609 94.9764 52.3106 89.5346 55.4264C78.3053 61.8465 69.1584 77.5274 69.1034 90.4619C69.0684 92.6148 69.3584 94.7607 69.9639 96.827C70.5989 99.0619 71.8519 101.072 73.5786 102.626C73.9709 102.96 74.3887 103.262 74.8281 103.53H74.8556C74.8775 103.545 74.9013 103.557 74.9263 103.565L75.0167 103.62L75.3506 103.813L88.9452 111.734C88.3855 111.381 87.8594 110.977 87.3736 110.528C84.7372 108.092 83.1852 104.029 83.2088 98.6462C83.2677 85.7195 92.4146 70.0308 103.64 63.6185C108.308 60.9546 112.602 60.3102 116.02 61.4064C116.592 61.5801 117.145 61.8104 117.671 62.094L104.143 54.2398Z" fill="#455A64"/>
<path d="M135.953 83.688C135.898 95.9192 127.246 110.751 116.622 116.814C113.541 118.578 110.626 119.415 108.052 119.403C106.314 119.418 104.603 118.975 103.09 118.118H103.062L91.7427 111.628L91.4598 111.47C90.9321 111.137 90.4363 110.756 89.9785 110.331C87.4836 108.029 86.0141 104.182 86.0495 99.0939C86.1005 86.8509 94.7445 72.0147 105.353 65.9482C109.769 63.4258 113.832 62.805 117.062 63.854C117.607 64.0169 118.133 64.2354 118.633 64.5063L118.72 64.5495L119.262 64.8677L130.373 71.2328C133.843 73.2484 135.976 77.5587 135.953 83.688Z" fill="#37474F"/>
<path d="M127.588 67.5044C123.934 65.3592 118.873 65.6264 113.255 68.8364C102.021 75.2526 92.8707 90.9453 92.8235 103.88C92.796 110.217 94.9609 114.7 98.4932 116.881C99.6719 117.616 107.648 121.957 108.772 122.622C112.43 124.775 117.498 124.511 123.125 121.297C134.354 114.881 143.509 99.1885 143.556 86.254C143.583 79.8653 141.383 75.3626 137.8 73.2016C136.629 72.4944 128.72 68.1645 127.588 67.5044Z" fill="#455A64"/>
<path d="M102.878 109.494C102.819 122.432 111.88 127.717 123.109 121.281C134.338 114.845 143.497 99.1723 143.54 86.2378C143.583 73.3033 134.539 68.0147 123.305 74.4506C112.072 80.8864 102.937 96.5555 102.878 109.494Z" fill="#263238"/>
<path d="M113.864 120.877C107.782 120.849 107.153 113.667 107.185 110.583C107.24 98.5362 116.119 83.3149 126.575 77.3388C129.156 75.8654 131.616 75.0875 133.682 75.0993C139.768 75.1268 140.393 82.3052 140.381 85.3934C140.326 97.436 131.447 112.661 120.988 118.633C118.406 120.111 115.946 120.885 113.88 120.877H113.864Z" fill="black"/>
<path d="M113.864 120.877C107.782 120.849 107.153 113.667 107.185 110.583C107.24 98.5362 116.119 83.3149 126.575 77.3388C129.156 75.8654 131.616 75.0875 133.682 75.0993C139.768 75.1268 140.393 82.3052 140.381 85.3934C140.326 97.436 131.447 112.661 120.988 118.633C118.406 120.111 115.946 120.885 113.88 120.877H113.864Z" fill="black"/>
<path d="M135.564 82.6233C135.564 80.7805 135.352 77.4762 133.875 75.1069H133.667C131.6 75.1069 129.14 75.8731 126.559 77.3465C116.104 83.3226 107.224 98.5635 107.169 110.59C107.169 112.433 107.381 115.737 108.858 118.107H109.063C111.133 118.107 113.589 117.321 116.174 115.863C126.63 109.887 135.509 94.6659 135.564 82.6233Z" fill="#7237EC"/>
<path opacity="0.2" d="M135.564 82.6233C135.564 80.7805 135.352 77.4762 133.875 75.1069H133.667C131.6 75.1069 129.14 75.8731 126.559 77.3465C116.104 83.3226 107.224 98.5635 107.169 110.59C107.169 112.433 107.381 115.737 108.858 118.107H109.063C111.133 118.107 113.589 117.321 116.174 115.863C126.63 109.887 135.509 94.6659 135.564 82.6233Z" fill="black"/>
<path opacity="0.1" d="M126.142 77.5898C115.868 83.7271 107.22 98.7008 107.169 110.594V110.622C109.64 112.614 113.361 112.653 117.534 110.268C125.031 105.985 131.136 95.5182 131.172 86.89C131.195 81.9433 129.227 78.6821 126.142 77.5898Z" fill="black"/>
<path opacity="0.2" d="M118.39 84.1793C114.153 88.987 110.928 94.5995 108.909 100.681C109.349 105.471 113.046 107.29 117.553 104.713C122.378 101.962 126.311 95.2121 126.339 89.6525C126.37 84.364 122.869 82.0537 118.39 84.1793Z" fill="black"/>
<path d="M122.527 83.8373C126.79 78.4623 132.149 77.5507 133.206 79.2717C134.263 80.9926 134.267 99.0231 118.409 111.765C118.409 111.765 127.532 102.296 130.247 91.4361C132.821 81.1458 127.32 79.5664 122.527 83.8373Z" fill="#7237EC"/>
<path opacity="0.3" d="M122.527 83.8373C126.79 78.4623 132.149 77.5507 133.206 79.2717C134.263 80.9926 134.267 99.0231 118.409 111.765C118.409 111.765 127.532 102.296 130.247 91.4361C132.821 81.1458 127.32 79.5664 122.527 83.8373Z" fill="white"/>
<path opacity="0.15" d="M102.878 109.494C102.883 108.333 102.958 107.173 103.102 106.021L93.0555 100.217C93.138 99.6006 93.2244 99.0387 93.3187 98.4965L86.4193 94.5124L83.4489 94.6696L69.3671 86.5403C69.4457 85.9431 69.5399 85.3616 69.6421 84.8272L47.0499 71.7827C46.9314 72.758 46.8684 73.7392 46.8613 74.7217C46.8613 78.4739 47.7022 81.4915 49.2188 83.6328C49.2423 83.6721 49.2699 83.7075 49.2974 83.7467L49.4349 83.9314C49.4786 83.993 49.5259 84.052 49.5763 84.1082L49.6274 84.1711L52.3502 87.8133L52.2952 87.7348C52.2088 87.609 52.1184 87.4833 52.0359 87.3418C52.0201 87.3192 52.0057 87.2955 51.9927 87.2711C52.7983 88.5725 53.8994 89.6656 55.2067 90.4615L55.2853 90.5087L55.3206 90.5323L62.0551 94.422L68.8524 98.3511C68.7934 98.3158 68.7345 98.2804 68.6795 98.2411L68.8995 98.3747L68.9781 98.4179L69.0134 98.4415L71.1902 99.6988C71.805 100.797 72.6022 101.783 73.5476 102.614C73.9389 102.948 74.3553 103.252 74.7931 103.522H74.8206C74.8451 103.538 74.8715 103.551 74.8992 103.561L74.9856 103.612L75.3196 103.809L88.9142 111.73C88.7571 111.631 88.6117 111.533 88.4624 111.431C90.2315 112.606 92.3193 113.208 94.4424 113.156L95.1968 113.588C96.0256 114.913 97.1431 116.033 98.4658 116.865C99.5384 117.525 106.116 121.116 108.226 122.311C104.886 120.071 102.851 115.651 102.878 109.494Z" fill="black"/>
<path d="M67.4176 14.7251C66.8739 14.4613 66.2774 14.3242 65.6731 14.3242C65.0687 14.3242 64.4723 14.4613 63.9286 14.7251H63.1152V15.7938C63.1333 16.0198 63.2118 16.2367 63.3424 16.422C63.4731 16.6072 63.6511 16.7539 63.8578 16.8468C64.4185 17.1316 65.0384 17.2799 65.6672 17.2799C66.296 17.2799 66.9159 17.1316 67.4765 16.8468C67.6838 16.7565 67.8632 16.6123 67.9958 16.4292C68.1285 16.2461 68.2097 16.0308 68.2309 15.8056V14.733L67.4176 14.7251Z" fill="#263238"/>
<path d="M63.8691 13.6646C62.8672 14.2343 62.8633 15.1694 63.8691 15.7548C64.4303 16.0377 65.05 16.1851 65.6785 16.1851C66.3069 16.1851 66.9266 16.0377 67.4878 15.7548C68.4897 15.1812 68.4936 14.2461 67.4878 13.6646C66.9272 13.3798 66.3072 13.2314 65.6785 13.2314C65.0497 13.2314 64.4298 13.3798 63.8691 13.6646Z" fill="#37474F"/>
<path d="M74.0844 12.4541V11.3696H73.2711C72.7261 11.1077 72.1293 10.9717 71.5246 10.9717C70.92 10.9717 70.3231 11.1077 69.7781 11.3696H68.9688V12.4423C68.9892 12.6681 69.0691 12.8844 69.2002 13.0693C69.3313 13.2543 69.509 13.4012 69.7153 13.4953C70.2765 13.7782 70.8962 13.9255 71.5246 13.9255C72.1531 13.9255 72.7728 13.7782 73.334 13.4953C73.5398 13.4034 73.7177 13.2587 73.8495 13.0758C73.9813 12.8929 74.0624 12.6784 74.0844 12.4541Z" fill="#263238"/>
<path d="M69.7236 10.3169C68.7217 10.8905 68.7178 11.8257 69.7236 12.4072C70.2842 12.6919 70.9042 12.8403 71.533 12.8403C72.1617 12.8403 72.7817 12.6919 73.3423 12.4072C74.3442 11.8335 74.3481 10.8984 73.3423 10.3169C72.7817 10.0322 72.1617 9.88379 71.533 9.88379C70.9042 9.88379 70.2842 10.0322 69.7236 10.3169Z" fill="#37474F"/>
<path d="M73.2437 18.1238C72.6997 17.8611 72.1034 17.7246 71.4992 17.7246C70.8951 17.7246 70.2987 17.8611 69.7547 18.1238H68.9414V19.1925C68.9587 19.4187 69.0368 19.636 69.1676 19.8213C69.2983 20.0067 69.4767 20.1533 69.684 20.2455C70.2446 20.5302 70.8645 20.6786 71.4933 20.6786C72.1221 20.6786 72.742 20.5302 73.3027 20.2455C73.51 20.1552 73.6893 20.011 73.822 19.8279C73.9547 19.6447 74.0358 19.4294 74.0571 19.2043V18.1277L73.2437 18.1238Z" fill="#263238"/>
<path d="M69.6963 17.063C68.6944 17.6327 68.6904 18.5718 69.6963 19.1533C70.2572 19.4371 70.877 19.5849 71.5056 19.5849C72.1342 19.5849 72.754 19.4371 73.3149 19.1533C74.3169 18.5796 74.3208 17.6445 73.3149 17.063C72.7543 16.7783 72.1344 16.6299 71.5056 16.6299C70.8768 16.6299 70.2569 16.7783 69.6963 17.063Z" fill="#37474F"/>
<path d="M79.9116 15.8528V14.7802H79.0983C78.554 14.5183 77.9577 14.3823 77.3538 14.3823C76.7498 14.3823 76.1535 14.5183 75.6092 14.7802H74.792V15.8528C74.8119 16.0783 74.8916 16.2943 75.0228 16.4787C75.1541 16.6631 75.3321 16.8092 75.5385 16.9019C76.0994 17.1857 76.7192 17.3336 77.3479 17.3336C77.9765 17.3336 78.5963 17.1857 79.1572 16.9019C79.3649 16.8099 79.5443 16.6642 79.6769 16.4798C79.8095 16.2954 79.8905 16.079 79.9116 15.8528Z" fill="#263238"/>
<path d="M75.5498 13.7271C74.5479 14.3007 74.5439 15.2358 75.5498 15.8173C76.1104 16.102 76.7303 16.2504 77.3591 16.2504C77.9879 16.2504 78.6078 16.102 79.1685 15.8173C80.1704 15.2437 80.1743 14.3086 79.1685 13.7271C78.6078 13.4423 77.9879 13.2939 77.3591 13.2939C76.7303 13.2939 76.1104 13.4423 75.5498 13.7271Z" fill="#37474F"/>
<path d="M31.0925 45.1599V41.2308H28.1339C24.5663 39.2663 19.0224 39.2663 15.4391 41.1758H12.4805V45.1481C12.4805 46.5233 13.3684 47.8985 15.1876 48.9672C18.8102 51.081 24.7038 51.1085 28.35 49.0261C30.1731 47.9338 31.0925 46.5547 31.0925 45.1599Z" fill="#263238"/>
<path d="M22.4053 50.5074C22.5585 50.5074 22.7078 50.5074 22.8571 50.4838V39.7653L22.4053 39.7417V50.5074Z" fill="black"/>
<path d="M26.2409 40.4017L25.7891 40.2642V50.0043C25.9423 49.965 26.0916 49.9218 26.2409 49.8747V40.4017Z" fill="black"/>
<path d="M27.9499 41.0931C27.8006 41.0184 27.6552 40.9398 27.502 40.873V49.407C27.6552 49.3402 27.8006 49.2655 27.9499 49.1909V41.0931Z" fill="black"/>
<path d="M24.5465 39.9814L24.0986 39.9028V50.3542C24.2479 50.3332 24.3972 50.3096 24.5465 50.2834V39.9814Z" fill="black"/>
<path d="M30.8604 46.3388C31.0117 45.9641 31.0904 45.5641 31.0922 45.16V41.231H30.8525L30.8604 46.3388Z" fill="black"/>
<path d="M29.1709 48.4247C29.3281 48.3069 29.4813 48.1851 29.6227 48.0593V41.207H29.1709V48.4247Z" fill="black"/>
<path d="M19.4743 39.8872L19.0264 39.9619V50.2678C19.1757 50.2966 19.325 50.3202 19.4743 50.3385V39.8872Z" fill="black"/>
<path d="M12.7122 41.1323H12.4883V45.1046C12.4892 45.5197 12.5706 45.9307 12.728 46.3148L12.7122 41.1323Z" fill="black"/>
<path d="M13.9541 48.0322C14.0916 48.158 14.2449 48.2798 14.402 48.3976V41.1406H13.9541V48.0322Z" fill="black"/>
<path d="M17.7848 40.2368C17.6316 40.2761 17.4823 40.3233 17.333 40.3704V49.8748C17.4823 49.922 17.6316 49.9652 17.7848 50.0045V40.2368Z" fill="black"/>
<path d="M21.1677 39.7378C21.0144 39.7378 20.8651 39.7378 20.7158 39.7614V50.4799C20.8651 50.4799 21.0144 50.4995 21.1677 50.5035V39.7378Z" fill="black"/>
<path d="M15.6436 49.1636C15.7889 49.2383 15.9382 49.3129 16.0954 49.3797V40.8379C15.9382 40.9086 15.7929 40.9833 15.6436 41.0579V49.1636Z" fill="black"/>
<path d="M15.2313 37.3407C11.5851 39.4232 11.5694 42.8414 15.196 44.9435C18.8225 47.0456 24.7161 47.0848 28.3584 45.0024C32.0006 42.92 32.0202 39.5017 28.3937 37.4036C24.7672 35.3055 18.8736 35.2583 15.2313 37.3407Z" fill="#37474F"/>
<path d="M21.1006 37.5529C21.0192 37.5815 20.9488 37.6347 20.8989 37.7051C20.849 37.7754 20.8223 37.8596 20.8223 37.9458C20.8223 38.0321 20.849 38.1162 20.8989 38.1866C20.9488 38.2569 21.0192 38.3101 21.1006 38.3387C21.3117 38.4463 21.5453 38.5025 21.7823 38.5025C22.0193 38.5025 22.2529 38.4463 22.464 38.3387C22.5454 38.3101 22.6159 38.2569 22.6657 38.1866C22.7156 38.1162 22.7424 38.0321 22.7424 37.9458C22.7424 37.8596 22.7156 37.7754 22.6657 37.7051C22.6159 37.6347 22.5454 37.5815 22.464 37.5529C22.2529 37.4453 22.0193 37.3892 21.7823 37.3892C21.5453 37.3892 21.3117 37.4453 21.1006 37.5529Z" fill="#E0E0E0"/>
<path d="M16.999 38.3468C16.9177 38.3755 16.8472 38.4286 16.7973 38.499C16.7475 38.5694 16.7207 38.6535 16.7207 38.7398C16.7207 38.826 16.7475 38.9101 16.7973 38.9805C16.8472 39.0509 16.9177 39.1041 16.999 39.1327C17.2102 39.2403 17.4438 39.2964 17.6807 39.2964C17.9177 39.2964 18.1513 39.2403 18.3624 39.1327C18.4457 39.106 18.5183 39.0536 18.5699 38.983C18.6214 38.9123 18.6492 38.8272 18.6492 38.7398C18.6492 38.6523 18.6214 38.5672 18.5699 38.4965C18.5183 38.4259 18.4457 38.3735 18.3624 38.3468C18.1513 38.2392 17.9177 38.1831 17.6807 38.1831C17.4438 38.1831 17.2102 38.2392 16.999 38.3468Z" fill="#E0E0E0"/>
<path d="M14.461 40.7355C14.3796 40.7641 14.3091 40.8173 14.2593 40.8877C14.2094 40.958 14.1826 41.0422 14.1826 41.1284C14.1826 41.2147 14.2094 41.2988 14.2593 41.3692C14.3091 41.4396 14.3796 41.4927 14.461 41.5213C14.6724 41.6278 14.9059 41.6832 15.1427 41.6832C15.3794 41.6832 15.6129 41.6278 15.8244 41.5213C15.9057 41.4927 15.9762 41.4396 16.0261 41.3692C16.0759 41.2988 16.1027 41.2147 16.1027 41.1284C16.1027 41.0422 16.0759 40.958 16.0261 40.8877C15.9762 40.8173 15.9057 40.7641 15.8244 40.7355C15.6132 40.6279 15.3796 40.5718 15.1427 40.5718C14.9057 40.5718 14.6721 40.6279 14.461 40.7355Z" fill="#E0E0E0"/>
<path d="M26.4913 38.3468C26.5727 38.3755 26.6432 38.4286 26.6931 38.499C26.7429 38.5694 26.7697 38.6535 26.7697 38.7398C26.7697 38.826 26.7429 38.9101 26.6931 38.9805C26.6432 39.0509 26.5727 39.1041 26.4913 39.1327C26.2802 39.2403 26.0466 39.2964 25.8097 39.2964C25.5727 39.2964 25.3391 39.2403 25.128 39.1327C25.0466 39.1041 24.9761 39.0509 24.9263 38.9805C24.8764 38.9101 24.8496 38.826 24.8496 38.7398C24.8496 38.6535 24.8764 38.5694 24.9263 38.499C24.9761 38.4286 25.0466 38.3755 25.128 38.3468C25.3391 38.2392 25.5727 38.1831 25.8097 38.1831C26.0466 38.1831 26.2802 38.2392 26.4913 38.3468Z" fill="#7237EC"/>
<path d="M21.1006 44.869C21.0192 44.8404 20.9488 44.7872 20.8989 44.7168C20.849 44.6465 20.8223 44.5623 20.8223 44.4761C20.8223 44.3898 20.849 44.3057 20.8989 44.2353C20.9488 44.1649 21.0192 44.1118 21.1006 44.0832C21.3117 43.9755 21.5453 43.9194 21.7823 43.9194C22.0193 43.9194 22.2529 43.9755 22.464 44.0832C22.5454 44.1118 22.6159 44.1649 22.6657 44.2353C22.7156 44.3057 22.7424 44.3898 22.7424 44.4761C22.7424 44.5623 22.7156 44.6465 22.6657 44.7168C22.6159 44.7872 22.5454 44.8404 22.464 44.869C22.2529 44.9766 22.0193 45.0327 21.7823 45.0327C21.5453 45.0327 21.3117 44.9766 21.1006 44.869Z" fill="#E0E0E0"/>
<path d="M16.999 44.0755C16.9177 44.0469 16.8472 43.9938 16.7973 43.9234C16.7475 43.853 16.7207 43.7689 16.7207 43.6826C16.7207 43.5964 16.7475 43.5122 16.7973 43.4419C16.8472 43.3715 16.9177 43.3183 16.999 43.2897C17.2102 43.1821 17.4438 43.126 17.6807 43.126C17.9177 43.126 18.1513 43.1821 18.3624 43.2897C18.4457 43.3164 18.5183 43.3688 18.5699 43.4394C18.6214 43.51 18.6492 43.5952 18.6492 43.6826C18.6492 43.7701 18.6214 43.8552 18.5699 43.9258C18.5183 43.9965 18.4457 44.0489 18.3624 44.0755C18.1513 44.1832 17.9177 44.2393 17.6807 44.2393C17.4438 44.2393 17.2102 44.1832 16.999 44.0755Z" fill="#E0E0E0"/>
<path d="M26.4913 44.0755C26.5727 44.0469 26.6432 43.9938 26.6931 43.9234C26.7429 43.853 26.7697 43.7689 26.7697 43.6826C26.7697 43.5964 26.7429 43.5122 26.6931 43.4419C26.6432 43.3715 26.5727 43.3183 26.4913 43.2897C26.2802 43.1821 26.0466 43.126 25.8097 43.126C25.5727 43.126 25.3391 43.1821 25.128 43.2897C25.0466 43.3183 24.9761 43.3715 24.9263 43.4419C24.8764 43.5122 24.8496 43.5964 24.8496 43.6826C24.8496 43.7689 24.8764 43.853 24.9263 43.9234C24.9761 43.9938 25.0466 44.0469 25.128 44.0755C25.3391 44.1832 25.5727 44.2393 25.8097 44.2393C26.0466 44.2393 26.2802 44.1832 26.4913 44.0755Z" fill="#E0E0E0"/>
<path d="M29.0304 40.7355C29.1137 40.7622 29.1863 40.8146 29.2379 40.8852C29.2894 40.9558 29.3172 41.041 29.3172 41.1284C29.3172 41.2159 29.2894 41.301 29.2379 41.3716C29.1863 41.4423 29.1137 41.4947 29.0304 41.5213C28.819 41.6281 28.5855 41.6836 28.3487 41.6836C28.1119 41.6836 27.8784 41.6281 27.667 41.5213C27.5856 41.4927 27.5152 41.4396 27.4653 41.3692C27.4155 41.2988 27.3887 41.2147 27.3887 41.1284C27.3887 41.0422 27.4155 40.958 27.4653 40.8877C27.5152 40.8173 27.5856 40.7641 27.667 40.7355C27.8781 40.6279 28.1117 40.5718 28.3487 40.5718C28.5857 40.5718 28.8193 40.6279 29.0304 40.7355Z" fill="#E0E0E0"/>
<path d="M21.8434 45.7018C19.675 45.752 17.5306 45.2389 15.6198 44.2127C14.1385 43.3483 13.3252 42.2481 13.3291 41.1323C13.333 40.0164 14.1582 38.9281 15.6473 38.0755C17.5256 37.0887 19.6239 36.5952 21.7452 36.6414C23.9135 36.5926 26.0575 37.1056 27.9688 38.1305C29.4501 38.9949 30.2634 40.095 30.2595 41.2109C30.2556 42.3267 29.4305 43.419 27.9413 44.2677C26.0636 45.2563 23.9649 45.7499 21.8434 45.7018ZM21.7452 36.7553C19.6432 36.7081 17.5638 37.1962 15.7023 38.1737C14.2485 39.0027 13.447 40.0557 13.4431 41.1362C13.4391 42.2167 14.2289 43.2736 15.6787 44.1145C17.5714 45.1314 19.6954 45.6404 21.8434 45.5918C23.9452 45.637 26.0242 45.1491 27.8863 44.1734C29.3362 43.3404 30.1416 42.2914 30.1456 41.2109C30.1495 40.1304 29.3597 39.0735 27.9099 38.2287C26.017 37.2127 23.8929 36.705 21.7452 36.7553Z" fill="#E0E0E0"/>
<path d="M44.7382 56.0554C44.2668 55.7842 43.5949 55.8314 42.8484 56.2597L38.3103 58.8804C36.8762 59.7094 35.7171 61.6307 35.7171 63.2023C35.688 63.4934 35.7375 63.7869 35.8606 64.0523C35.9836 64.3177 36.1756 64.5452 36.4165 64.7111C36.6954 64.8761 37.7641 65.4969 38.0431 65.6502C38.5146 65.9252 39.1825 65.878 39.9291 65.4458L44.4711 62.8251C45.9013 62 47.0603 60.0748 47.0603 58.5228C47.0897 58.2312 47.0403 57.937 46.9173 57.6709C46.7943 57.4048 46.6022 57.1766 46.361 57.0101L44.7382 56.0554Z" fill="#263238"/>
<path d="M39.9291 59.8194L44.4711 57.1947C45.9013 56.3696 47.0604 56.9551 47.0604 58.5071C47.0604 60.059 45.9013 61.9843 44.4711 62.8094L39.9291 65.4301C38.4989 66.2591 37.3359 65.6698 37.3359 64.1217C37.3359 62.5737 38.4989 60.6445 39.9291 59.8194Z" fill="#455A64"/>
<path d="M83.3731 6.73735C83.3731 6.58805 83.212 6.46624 82.8977 6.40338L76.2772 5.13429C75.8843 5.0557 75.6328 5.19322 75.6328 5.4604V6.63912C75.6402 6.77932 75.6849 6.915 75.7625 7.03203L77.5934 10.2067C77.6638 10.3288 77.7576 10.4358 77.8694 10.5216C77.9811 10.6074 78.1087 10.6703 78.2448 10.7068C78.3809 10.7433 78.5228 10.7526 78.6625 10.7342C78.8022 10.7158 78.9369 10.6701 79.059 10.5996L83.0077 8.32077C83.2434 8.18325 83.3574 8.0418 83.3574 7.92786L83.3731 6.73735Z" fill="#263238"/>
<path d="M89.3496 12.7761C89.3423 12.6365 89.299 12.5011 89.2238 12.3832L87.3929 9.21245C87.3225 9.09039 87.2287 8.98341 87.117 8.8976C87.0052 8.8118 86.8776 8.74885 86.7415 8.71237C86.6054 8.67588 86.4635 8.66657 86.3238 8.68496C86.1841 8.70335 86.0494 8.74907 85.9273 8.81954L81.9747 11.0984C81.7429 11.2359 81.625 11.3774 81.625 11.4913V12.67C81.625 12.8193 81.7861 12.9451 82.1004 13.004L88.7052 14.277C89.1178 14.3556 89.3535 14.2142 89.3535 13.947C89.3496 13.837 89.3496 12.9804 89.3496 12.7761Z" fill="#263238"/>
<path d="M79.0705 9.42508L83.0232 7.14229C83.534 6.84761 83.479 6.51757 82.8975 6.40362L76.277 5.13453C75.6955 5.02059 75.4637 5.3467 75.7623 5.85748L77.5932 9.03218C77.6636 9.1558 77.7579 9.26418 77.8706 9.35102C77.9833 9.43785 78.1121 9.5014 78.2496 9.53796C78.3871 9.57453 78.5305 9.58338 78.6714 9.564C78.8124 9.54462 78.948 9.4974 79.0705 9.42508Z" fill="#37474F"/>
<path d="M81.9745 11.0984L85.9272 8.81954C86.0492 8.74907 86.1839 8.70335 86.3236 8.68496C86.4633 8.66657 86.6053 8.67588 86.7414 8.71237C86.8775 8.74885 87.005 8.8118 87.1168 8.8976C87.2286 8.98341 87.3223 9.09039 87.3927 9.21245L89.2237 12.3832C89.5184 12.8979 89.2866 13.2201 88.705 13.1101L82.1003 11.8371C81.5188 11.7271 81.4638 11.397 81.9745 11.0984Z" fill="#37474F"/>
<path d="M104.61 18.9649C102.488 17.4875 98.8731 17.1771 96.5353 18.2733C95.3566 18.8273 94.724 19.6367 94.6651 20.4893C94.6651 20.6308 94.6061 21.2084 94.5904 21.3537C94.5119 22.2024 94.9833 23.0982 96.056 23.8408C98.1777 25.3182 101.792 25.6286 104.13 24.5324C105.309 23.9705 105.949 23.1572 106 22.2928C106 22.1592 106.059 21.5895 106.075 21.4402C106.138 20.5954 105.67 19.7035 104.61 18.9649Z" fill="#E0E0E0"/>
<path d="M106.077 21.4402C106.233 19.6197 103.804 17.9253 100.652 17.6556C97.4993 17.3859 94.8176 18.6431 94.6619 20.4635C94.5061 22.284 96.9353 23.9784 100.088 24.2481C103.24 24.5178 105.922 23.2606 106.077 21.4402Z" fill="#FAFAFA"/>
<path d="M82.5639 33.3372C83.9077 32.5514 84.996 33.1879 84.996 34.7399C84.9503 35.5832 84.7062 36.4038 84.2836 37.135C83.861 37.8661 83.2718 38.4873 82.5639 38.9479C81.2202 39.7337 80.1318 39.0972 80.1318 37.5452C80.1776 36.7019 80.4217 35.8813 80.8443 35.1501C81.2669 34.4189 81.8561 33.7978 82.5639 33.3372Z" fill="#E0E0E0"/>
<path d="M83.8449 33.023C83.3921 32.9793 82.938 33.0901 82.5561 33.3373C81.8483 33.7979 81.2591 34.419 80.8365 35.1502C80.4139 35.8814 80.1698 36.702 80.124 37.5453C80.0987 38.0127 80.2377 38.4742 80.517 38.8498C80.9697 38.8934 81.4239 38.7826 81.8057 38.5355C82.5139 38.0742 83.1032 37.4524 83.5258 36.7205C83.9484 35.9887 84.1924 35.1674 84.2378 34.3235C84.2657 33.8571 84.1263 33.396 83.8449 33.023Z" fill="#FAFAFA"/>
<path d="M112.334 34.7795V36.5829C112.334 37.8088 111.524 39.0307 109.902 39.954C106.837 41.7064 101.969 41.7693 98.7354 40.1701V38.3392C101.583 38.3726 104.39 37.6644 106.88 36.2843C107.735 35.806 108.514 35.205 109.195 34.5005C109.379 34.583 109.556 34.6734 109.725 34.7677L112.334 34.7795Z" fill="#263238"/>
<path d="M103.129 41.2816C103.262 41.2816 103.392 41.3012 103.522 41.3051V39.486C103.39 39.4859 103.259 39.478 103.129 39.4624V41.2816Z" fill="black"/>
<path d="M98.7197 38.3428V40.1619L99.0301 40.3112V38.4803L98.8651 38.4017L98.7197 38.3428Z" fill="black"/>
<path d="M105.026 39.4746C104.916 39.4746 104.798 39.4746 104.684 39.4746H104.641V41.2859H104.798H105.037L105.026 39.4746Z" fill="black"/>
<path d="M100.131 38.9087V40.7318L100.524 40.8497V39.0305H100.477C100.363 38.9833 100.245 38.948 100.131 38.9087Z" fill="black"/>
<path d="M110.625 37.663V39.4625C110.762 39.3651 110.893 39.2602 111.018 39.1482V37.3447L110.849 37.4901C110.786 37.5451 110.704 37.604 110.625 37.663Z" fill="black"/>
<path d="M112.122 35.8398V37.6C112.15 37.5294 112.173 37.4572 112.193 37.3839C112.224 37.286 112.249 37.1862 112.267 37.0853C112.269 37.0473 112.269 37.0093 112.267 36.9713C112.289 36.8415 112.301 36.7101 112.303 36.5784V34.9282C112.292 35.2399 112.231 35.5477 112.122 35.8398Z" fill="black"/>
<path d="M101.926 39.3328L101.631 39.2817V41.097L101.835 41.1323L102.032 41.1638V39.3485L101.926 39.3328Z" fill="black"/>
<path d="M109.525 38.3389L109.132 38.5275V40.3348L109.525 40.1423V38.3389Z" fill="black"/>
<path d="M107.639 40.8613L108.032 40.7473V38.936C107.902 38.9793 107.776 39.0185 107.639 39.0539V40.8613Z" fill="black"/>
<path d="M106.531 41.1131V39.3018L106.138 39.3646V41.172L106.413 41.1327L106.531 41.1131Z" fill="black"/>
<path d="M109.902 38.1349C106.829 39.8951 101.953 39.954 98.7197 38.3392C101.567 38.3722 104.374 37.6641 106.865 36.2843C109.026 35.0348 110.338 33.4357 110.676 31.8994C113.124 33.7657 112.864 36.4493 109.902 38.1349Z" fill="#455A64"/>
<path d="M53.5948 18.2417L42.2515 11.6919L29.8828 18.831L41.23 25.3808L53.5948 18.2417Z" fill="#E0E0E0"/>
<path opacity="0.2" d="M53.5948 18.2417L42.2515 11.6919L29.8828 18.831L41.23 25.3808L53.5948 18.2417Z" fill="black"/>
<path d="M53.2729 15.7548L41.9258 9.20508C42.0433 9.29682 42.1351 9.41739 42.1922 9.55508C42.2493 9.69278 42.2699 9.84291 42.2519 9.99089V11.6883L53.5951 18.238V16.5407C53.6128 16.3931 53.5925 16.2434 53.5361 16.1059C53.4798 15.9684 53.3892 15.8475 53.2729 15.7548Z" fill="#E0E0E0"/>
<path opacity="0.1" d="M53.2729 15.7548L41.9258 9.20508C42.0433 9.29682 42.1351 9.41739 42.1922 9.55508C42.2493 9.69278 42.2699 9.84291 42.2519 9.99089V11.6883L53.5951 18.238V16.5407C53.6128 16.3931 53.5925 16.2434 53.5361 16.1059C53.4798 15.9684 53.3892 15.8475 53.2729 15.7548Z" fill="black"/>
<path d="M40.6279 26.4182V24.0293C40.6566 23.414 40.8325 22.8145 41.1409 22.2812C41.4492 21.7479 41.881 21.2964 42.3999 20.9646L44.0227 20.0255V20.7171L42.6985 21.4793C42.2739 21.7626 41.9203 22.14 41.6654 22.5823C41.4106 23.0246 41.2612 23.5198 41.2291 24.0293V25.3809L53.5939 18.2418V16.5444C53.6387 16.3936 53.6315 16.2321 53.5732 16.086C53.515 15.9399 53.4092 15.8177 53.2729 15.7391C53.1367 15.6605 52.9779 15.6302 52.8222 15.6529C52.6666 15.6757 52.5232 15.7503 52.4152 15.8647L50.5017 16.9727V16.2851L52.1244 15.35C52.3247 15.189 52.5687 15.0919 52.8248 15.0715C53.0809 15.051 53.3373 15.108 53.5606 15.2351C53.7839 15.3622 53.9638 15.5535 54.0769 15.7842C54.1901 16.0149 54.2312 16.2743 54.195 16.5287V18.5718L40.6279 26.4182Z" fill="#FAFAFA"/>
<path d="M32.6642 13.4756L31.0455 14.4146C30.5265 14.7465 30.0947 15.198 29.7864 15.7313C29.478 16.2645 29.3021 16.864 29.2734 17.4793V19.8682L40.6167 26.418V24.0291C40.6454 23.4138 40.8213 22.8143 41.1296 22.281C41.4379 21.7478 41.8697 21.2962 42.3887 20.9644L44.0114 20.0254L32.6642 13.4756Z" fill="#EBEBEB"/>
<path d="M40.6284 24.0291C40.6647 23.2085 40.9651 22.4216 41.4849 21.7856L30.1378 15.2358C29.6206 15.873 29.3217 16.6595 29.2852 17.4793V19.8682L40.6284 26.418V24.0291Z" fill="#E0E0E0"/>
<path d="M39.1592 9.73535L50.5064 16.2851L50.5103 16.9727L39.1631 10.4229L39.1592 9.73535Z" fill="#F5F5F5"/>
<path d="M42.2239 8.68621C41.9955 8.57368 41.741 8.52487 41.4872 8.54492C41.2334 8.56498 40.9897 8.65316 40.7819 8.80016L39.1592 9.73528L50.5024 16.285L52.1251 15.3499C52.3338 15.203 52.5781 15.1149 52.8325 15.0948C53.0869 15.0748 53.342 15.1235 53.571 15.236L42.2239 8.68621Z" fill="#EBEBEB"/>
</svg>
