<svg width="135" height="134" viewBox="0 0 135 134" fill="none" xmlns="http://www.w3.org/2000/svg">
<g clip-path="url(#clip0_484_13185)">
<path d="M67.0246 134.134C104.014 134.134 134 104.148 134 67.1579C134 30.1682 104.014 0.182129 67.0246 0.182129C30.0349 0.182129 0.0488281 30.1682 0.0488281 67.1579C0.0488281 104.148 30.0349 134.134 67.0246 134.134Z" fill="#7237EC"/>
<path opacity="0.4" d="M67.0242 130.318C101.907 130.318 130.185 102.04 130.185 67.1575C130.185 32.2747 101.907 3.99658 67.0242 3.99658C32.1414 3.99658 3.86328 32.2747 3.86328 67.1575C3.86328 102.04 32.1414 130.318 67.0242 130.318Z" fill="white"/>
<path opacity="0.7" d="M128.657 67.1583C128.667 80.6969 124.223 93.8629 116.008 104.625C107.794 115.387 96.2666 123.147 83.2046 126.708C70.1426 130.269 56.2718 129.432 43.7321 124.328C31.1925 119.224 20.6809 110.135 13.819 98.4643C6.95705 86.7934 4.12617 73.1888 5.76306 59.7494C7.39994 46.31 13.4136 33.7827 22.8764 24.1001C32.3391 14.4175 44.725 8.11771 58.1232 6.17261C71.5215 4.22752 85.1875 6.74523 97.0129 13.3373C106.597 18.6838 114.582 26.4897 120.144 35.9503C125.707 45.4108 128.645 56.1837 128.657 67.1583Z" fill="white"/>
<path opacity="0.2" d="M67.0222 0.182617C53.7759 0.183875 40.8274 4.11301 29.8142 11.4732C18.8009 18.8333 10.2174 29.2939 5.14917 41.5323C0.0809052 53.7706 -1.24453 67.237 1.34046 80.2286C3.92545 93.2202 10.3048 105.154 19.6718 114.52C29.0387 123.886 40.9727 130.264 53.9646 132.848C66.9564 135.431 80.4227 134.105 92.6605 129.035C104.898 123.966 115.358 115.381 122.717 104.367C130.076 93.3535 134.004 80.4047 134.004 67.1584C134.004 58.3625 132.272 49.6527 128.905 41.5264C125.539 33.4001 120.605 26.0165 114.385 19.7971C108.165 13.5778 100.781 8.64449 92.6547 5.27902C84.528 1.91354 75.8181 0.181782 67.0222 0.182617ZM67.0222 132.793C54.0394 132.793 41.3482 128.943 30.5536 121.73C19.7589 114.517 11.3456 104.265 6.37758 92.2701C1.40959 80.2755 0.110059 67.077 2.64333 54.3439C5.1766 41.6107 11.4289 29.9146 20.6095 20.7349C29.7902 11.5551 41.4868 5.30398 54.2202 2.77194C66.9537 0.239904 80.152 1.54072 92.1461 6.50987C104.14 11.479 114.392 19.8933 121.603 30.6887C128.815 41.4841 132.664 54.1756 132.663 67.1584C132.663 75.7781 130.965 84.3135 127.666 92.277C124.367 100.241 119.532 107.476 113.437 113.571C107.341 119.666 100.105 124.5 92.1413 127.798C84.1774 131.096 75.6419 132.793 67.0222 132.793Z" fill="black"/>
<path d="M67.028 69.447C66.9476 69.4534 66.8668 69.4534 66.7864 69.447C66.1828 69.3845 65.6287 69.0848 65.246 68.6138C64.8633 68.1429 64.6832 67.5392 64.7455 66.9356L68.732 28.4121C68.759 28.1098 68.8459 27.8159 68.9876 27.5475C69.1293 27.2791 69.3229 27.0416 69.5573 26.8487C69.7916 26.6559 70.062 26.5115 70.3526 26.4241C70.6433 26.3367 70.9484 26.308 71.2502 26.3396C71.5521 26.3712 71.8446 26.4626 72.1109 26.6083C72.3771 26.754 72.6117 26.9512 72.8009 27.1885C72.9902 27.4257 73.1305 27.6982 73.2134 27.9902C73.2964 28.2821 73.3205 28.5876 73.2843 28.889L69.2851 67.3934C69.2259 67.9528 68.9634 68.471 68.5473 68.8496C68.1312 69.2282 67.5905 69.4408 67.028 69.447Z" fill="#263238"/>
<path d="M70.2325 37.0406H70.1562C70.0564 37.0303 69.9596 37.0004 69.8714 36.9526C69.7831 36.9048 69.7051 36.8401 69.6419 36.7621C69.5788 36.6842 69.5316 36.5945 69.5031 36.4983C69.4746 36.402 69.4654 36.3011 69.4759 36.2013L70.2643 28.5717C70.2854 28.3702 70.3857 28.1853 70.5431 28.0577C70.7004 27.9301 70.9021 27.8703 71.1036 27.8914C71.3051 27.9124 71.49 28.0127 71.6176 28.1701C71.7451 28.3275 71.805 28.5291 71.7839 28.7306L70.9955 36.3603C70.9737 36.5474 70.884 36.7201 70.7433 36.8455C70.6027 36.9709 70.421 37.0403 70.2325 37.0406Z" fill="#7237EC"/>
<g opacity="0.2">
<path d="M67.028 69.447C66.9476 69.4534 66.8668 69.4534 66.7864 69.447C66.1828 69.3845 65.6287 69.0848 65.246 68.6138C64.8633 68.1429 64.6832 67.5392 64.7455 66.9356L68.732 28.4121C68.759 28.1098 68.8459 27.8159 68.9876 27.5475C69.1293 27.2791 69.3229 27.0416 69.5573 26.8487C69.7916 26.6559 70.062 26.5115 70.3526 26.4241C70.6433 26.3367 70.9484 26.308 71.2502 26.3396C71.5521 26.3712 71.8446 26.4626 72.1109 26.6083C72.3771 26.754 72.6117 26.9512 72.8009 27.1885C72.9902 27.4257 73.1305 27.6982 73.2134 27.9902C73.2964 28.2821 73.3205 28.5876 73.2843 28.889L69.2851 67.3934C69.2259 67.9528 68.9634 68.471 68.5473 68.8496C68.1312 69.2282 67.5905 69.4408 67.028 69.447Z" fill="white"/>
<path d="M70.2325 37.0401H70.1562C70.0564 37.0298 69.9596 36.9999 69.8714 36.9521C69.7831 36.9043 69.7051 36.8396 69.6419 36.7616C69.5788 36.6837 69.5316 36.594 69.5031 36.4978C69.4746 36.4016 69.4654 36.3006 69.4759 36.2008L70.2643 28.5712C70.2854 28.3697 70.3857 28.1848 70.5431 28.0572C70.7004 27.9296 70.9021 27.8698 71.1036 27.8909C71.3051 27.9119 71.49 28.0122 71.6176 28.1696C71.7451 28.327 71.805 28.5286 71.7839 28.7301L70.9955 36.3598C70.9737 36.5469 70.884 36.7196 70.7433 36.845C70.6027 36.9704 70.421 37.0398 70.2325 37.0401Z" fill="white"/>
</g>
<path d="M67.022 16.0013C66.9377 16.0013 66.8568 15.9678 66.7972 15.9082C66.7376 15.8486 66.7041 15.7677 66.7041 15.6834V8.6387C66.7057 8.5549 66.7397 8.47498 66.799 8.41571C66.8583 8.35644 66.9382 8.32243 67.022 8.3208C67.1063 8.3208 67.1872 8.35429 67.2468 8.41391C67.3064 8.47353 67.3399 8.55439 67.3399 8.6387V15.6834C67.3399 15.7677 67.3064 15.8486 67.2468 15.9082C67.1872 15.9678 67.1063 16.0013 67.022 16.0013Z" fill="#263238"/>
<path d="M67.022 125.996C66.9382 125.994 66.8583 125.96 66.799 125.901C66.7397 125.842 66.7057 125.762 66.7041 125.678V118.627C66.7057 118.543 66.7397 118.463 66.799 118.404C66.8583 118.345 66.9382 118.311 67.022 118.309C67.1063 118.309 67.1872 118.343 67.2468 118.402C67.3064 118.462 67.3399 118.543 67.3399 118.627V125.678C67.3399 125.762 67.3064 125.843 67.2468 125.903C67.1872 125.962 67.1063 125.996 67.022 125.996Z" fill="#263238"/>
<path d="M125.541 67.4761H118.497C118.412 67.4761 118.331 67.4426 118.272 67.383C118.212 67.3234 118.179 67.2425 118.179 67.1582C118.179 67.0739 118.212 66.9931 118.272 66.9334C118.331 66.8738 118.412 66.8403 118.497 66.8403H125.541C125.626 66.8403 125.707 66.8738 125.766 66.9334C125.826 66.9931 125.859 67.0739 125.859 67.1582C125.859 67.2425 125.826 67.3234 125.766 67.383C125.707 67.4426 125.626 67.4761 125.541 67.4761Z" fill="#263238"/>
<path d="M15.554 67.4761H8.50931C8.425 67.4761 8.34414 67.4426 8.28452 67.383C8.2249 67.3234 8.19141 67.2425 8.19141 67.1582C8.19141 67.0739 8.2249 66.9931 8.28452 66.9334C8.34414 66.8738 8.425 66.8403 8.50931 66.8403H15.554C15.6384 66.8403 15.7192 66.8738 15.7788 66.9334C15.8384 66.9931 15.8719 67.0739 15.8719 67.1582C15.8719 67.2425 15.8384 67.3234 15.7788 67.383C15.7192 67.4426 15.6384 67.4761 15.554 67.4761Z" fill="#263238"/>
<path d="M41.9584 22.5182C41.9021 22.5179 41.847 22.5024 41.7989 22.4733C41.7507 22.4442 41.7114 22.4026 41.685 22.3529L38.2516 16.1983C38.2104 16.125 38.2 16.0382 38.2227 15.9572C38.2453 15.8761 38.2992 15.8074 38.3724 15.766C38.4469 15.727 38.5336 15.7185 38.6143 15.7422C38.695 15.7659 38.7632 15.82 38.8048 15.8931L42.2381 22.0477C42.2776 22.1215 42.2871 22.2076 42.2646 22.2882C42.2421 22.3688 42.1893 22.4375 42.1173 22.4801C42.0682 22.5054 42.0136 22.5185 41.9584 22.5182Z" fill="#263238"/>
<path d="M95.5189 118.589C95.4621 118.587 95.4067 118.571 95.3578 118.542C95.3089 118.513 95.2681 118.472 95.2392 118.424L91.8122 112.269C91.771 112.196 91.7606 112.109 91.7832 112.028C91.8059 111.947 91.8597 111.878 91.933 111.837C92.0063 111.795 92.0931 111.785 92.1741 111.808C92.2551 111.83 92.3239 111.884 92.3653 111.957L95.7987 118.112C95.8188 118.149 95.8315 118.189 95.836 118.231C95.8405 118.272 95.8367 118.314 95.8249 118.355C95.8131 118.395 95.7935 118.432 95.7671 118.465C95.7408 118.497 95.7083 118.524 95.6715 118.544C95.6263 118.574 95.5731 118.59 95.5189 118.589Z" fill="#263238"/>
<path d="M15.9156 95.9733C15.8585 95.9728 15.8026 95.9572 15.7535 95.9282C15.7044 95.8991 15.6638 95.8577 15.6358 95.8079C15.6146 95.7718 15.6008 95.7318 15.5954 95.6902C15.59 95.6487 15.593 95.6065 15.6043 95.5661C15.6155 95.5257 15.6349 95.488 15.661 95.4553C15.6872 95.4226 15.7197 95.3955 15.7566 95.3756L21.9112 91.9423C21.9857 91.9033 22.0724 91.8947 22.1531 91.9184C22.2338 91.9422 22.3021 91.9963 22.3436 92.0694C22.3848 92.1428 22.3952 92.2295 22.3725 92.3105C22.3499 92.3916 22.296 92.4604 22.2228 92.5018L16.0682 95.9288C16.0227 95.958 15.9697 95.9735 15.9156 95.9733Z" fill="#263238"/>
<path d="M111.966 42.413C111.91 42.4127 111.855 42.3972 111.807 42.368C111.759 42.3389 111.719 42.2973 111.693 42.2477C111.652 42.1743 111.641 42.0876 111.664 42.0065C111.687 41.9255 111.741 41.8567 111.814 41.8153L117.968 38.3883C118.042 38.3471 118.129 38.3367 118.21 38.3594C118.291 38.382 118.359 38.4359 118.401 38.5091C118.44 38.5829 118.45 38.669 118.427 38.7496C118.405 38.8302 118.352 38.8989 118.28 38.9415L112.125 42.3685C112.078 42.3979 112.023 42.4134 111.966 42.413Z" fill="#263238"/>
<path d="M92.0856 22.5182C92.0324 22.5177 91.9801 22.5047 91.933 22.4801C91.8597 22.4387 91.8059 22.3699 91.7832 22.2889C91.7606 22.2078 91.771 22.1211 91.8122 22.0477L95.2392 15.8931C95.2807 15.82 95.349 15.7659 95.4296 15.7422C95.5103 15.7185 95.597 15.727 95.6715 15.766C95.7083 15.7859 95.7408 15.813 95.7671 15.8456C95.7935 15.8781 95.8131 15.9156 95.8249 15.9557C95.8367 15.9959 95.8405 16.038 95.836 16.0797C95.8315 16.1213 95.8188 16.1616 95.7987 16.1983L92.3653 22.3529C92.3384 22.4036 92.2981 22.4458 92.2487 22.4749C92.1993 22.5041 92.1429 22.5191 92.0856 22.5182Z" fill="#263238"/>
<path d="M38.5318 118.588C38.4756 118.59 38.4203 118.574 38.3728 118.544C38.3359 118.524 38.3034 118.497 38.2772 118.464C38.2511 118.432 38.2318 118.394 38.2205 118.353C38.2092 118.313 38.2062 118.271 38.2116 118.229C38.217 118.188 38.2308 118.148 38.252 118.112L41.6854 111.957C41.7291 111.888 41.7974 111.839 41.8763 111.82C41.9552 111.8 42.0386 111.811 42.1094 111.851C42.1803 111.891 42.2331 111.956 42.2571 112.034C42.2812 112.112 42.2745 112.196 42.2385 112.269L38.8052 118.423C38.7778 118.472 38.7382 118.513 38.6903 118.542C38.6424 118.571 38.5878 118.587 38.5318 118.588Z" fill="#263238"/>
<path d="M118.134 95.973C118.08 95.9733 118.027 95.9578 117.981 95.9285L111.827 92.5015C111.753 92.4601 111.699 92.3913 111.677 92.3103C111.654 92.2293 111.665 92.1425 111.706 92.0692C111.726 92.0324 111.753 91.9999 111.785 91.9735C111.818 91.9472 111.855 91.9276 111.895 91.9157C111.936 91.9039 111.978 91.9002 112.019 91.9047C112.061 91.9092 112.101 91.9219 112.138 91.942L118.293 95.3754C118.366 95.4168 118.42 95.4855 118.442 95.5666C118.465 95.6476 118.455 95.7343 118.413 95.8077C118.386 95.8574 118.345 95.8989 118.296 95.9279C118.247 95.957 118.191 95.9725 118.134 95.973Z" fill="#263238"/>
<path d="M22.0645 42.4129C22.0104 42.4131 21.9574 42.3977 21.9119 42.3684L15.7573 38.9414C15.6888 38.8977 15.6396 38.8294 15.6199 38.7505C15.6001 38.6716 15.6114 38.5882 15.6513 38.5174C15.6912 38.4465 15.7567 38.3937 15.8344 38.3697C15.912 38.3456 15.9959 38.3523 16.0689 38.3883L22.2235 41.8152C22.2967 41.8566 22.3506 41.9254 22.3732 42.0065C22.3959 42.0875 22.3854 42.1742 22.3443 42.2476C22.3174 42.2982 22.277 42.3404 22.2276 42.3696C22.1783 42.3988 22.1218 42.4138 22.0645 42.4129Z" fill="#263238"/>
<path d="M67.022 69.4475C66.6229 69.4487 66.2304 69.3453 65.8838 69.1475C65.5372 68.9497 65.2484 68.6645 65.0464 68.3203C64.8444 67.9762 64.7362 67.585 64.7325 67.1859C64.7289 66.7869 64.8299 66.3938 65.0255 66.0459L88.3533 24.0828C88.4955 23.8131 88.6902 23.5746 88.9259 23.3812C89.1616 23.1878 89.4336 23.0434 89.7259 22.9566C90.0181 22.8698 90.3248 22.8422 90.6278 22.8755C90.9309 22.9088 91.2243 23.0024 91.4907 23.1506C91.7571 23.2989 91.9912 23.4988 92.1793 23.7388C92.3674 23.9788 92.5056 24.2539 92.5859 24.548C92.6662 24.8422 92.6869 25.1494 92.6468 25.4516C92.6067 25.7539 92.5066 26.045 92.3525 26.3081L69.0248 68.2713C68.8257 68.6277 68.5352 68.9247 68.1831 69.1314C67.8311 69.3382 67.4303 69.4473 67.022 69.4475Z" fill="#263238"/>
<path d="M70.4615 67.1585C70.4615 67.8388 70.2597 68.5038 69.8818 69.0695C69.5038 69.6351 68.9666 70.076 68.3381 70.3363C67.7095 70.5967 67.0179 70.6648 66.3507 70.5321C65.6834 70.3994 65.0706 70.0718 64.5895 69.5907C64.1085 69.1097 63.7808 68.4968 63.6481 67.8295C63.5154 67.1623 63.5835 66.4707 63.8439 65.8421C64.1042 65.2136 64.5451 64.6764 65.1107 64.2985C65.6764 63.9205 66.3414 63.7188 67.0217 63.7188C67.934 63.7188 68.8089 64.0812 69.454 64.7262C70.0991 65.3713 70.4615 66.2462 70.4615 67.1585Z" fill="#263238"/>
<path opacity="0.2" d="M67.0217 69.0722C66.6444 69.0722 66.2756 68.9603 65.962 68.7507C65.6483 68.5411 65.4038 68.2432 65.2595 67.8947C65.1151 67.5461 65.0773 67.1626 65.1509 66.7926C65.2245 66.4226 65.4062 66.0828 65.6729 65.816C65.9397 65.5492 66.2796 65.3676 66.6496 65.294C67.0196 65.2204 67.4031 65.2581 67.7516 65.4025C68.1001 65.5469 68.398 65.7914 68.6076 66.105C68.8172 66.4187 68.9291 66.7875 68.9291 67.1647C68.9291 67.6706 68.7281 68.1558 68.3704 68.5135C68.0127 68.8712 67.5276 69.0722 67.0217 69.0722Z" fill="white"/>
<path d="M86.3251 33.2255C86.1962 33.2241 86.0697 33.1914 85.9563 33.1301C85.7793 33.0323 85.6484 32.8682 85.5924 32.6738C85.5363 32.4795 85.5598 32.2709 85.6575 32.0938L89.7139 24.8583C89.7568 24.7614 89.8194 24.6745 89.8978 24.6032C89.9761 24.5318 90.0685 24.4776 90.1689 24.4439C90.2694 24.4102 90.3758 24.3978 90.4813 24.4075C90.5868 24.4172 90.6891 24.4487 90.7818 24.5002C90.8744 24.5516 90.9554 24.6217 91.0194 24.7062C91.0834 24.7906 91.1292 24.8874 91.1537 24.9905C91.1783 25.0936 91.1811 25.2006 91.162 25.3049C91.1429 25.4091 91.1023 25.5082 91.0428 25.5958L87.0181 32.8377C86.9493 32.9597 86.8483 33.0605 86.726 33.1289C86.6038 33.1973 86.4651 33.2307 86.3251 33.2255Z" fill="#7237EC"/>
</g>
<defs>
<clipPath id="clip0_484_13185">
<rect width="134" height="134" fill="white" transform="translate(0.5)"/>
</clipPath>
</defs>
</svg>
