<svg width="139" height="126" viewBox="0 0 139 126" fill="none" xmlns="http://www.w3.org/2000/svg">
<path d="M95.677 121.344L83.6513 94.6841H55.5366L59.8527 119.63C59.9084 119.952 59.8936 120.282 59.8092 120.597C59.7248 120.912 59.5729 121.205 59.3639 121.456C59.155 121.707 58.8941 121.909 58.5992 122.049C58.3043 122.189 57.9826 122.263 57.6562 122.266H45.3121C44.9961 122.266 44.693 122.392 44.4695 122.615C44.2461 122.839 44.1205 123.142 44.1205 123.458V124.787C44.1205 125.103 44.2461 125.406 44.4695 125.629C44.693 125.853 44.9961 125.978 45.3121 125.978H94.8094C95.1531 125.978 95.4827 125.842 95.7257 125.599C95.9687 125.356 96.1053 125.026 96.1053 124.682V123.304C96.1016 122.628 95.9556 121.96 95.677 121.344ZM82.6574 118.049H69.1602C68.7343 118.05 68.3218 117.9 67.9961 117.625C67.6704 117.351 67.4525 116.97 67.3811 116.55L65.3438 104.782C65.299 104.523 65.3115 104.256 65.3805 104.002C65.4496 103.747 65.5735 103.511 65.7436 103.309C65.9136 103.108 66.1257 102.946 66.365 102.835C66.6042 102.725 66.8648 102.668 67.1285 102.668H77.3365C77.6838 102.668 78.0237 102.768 78.3157 102.956C78.6078 103.144 78.8397 103.412 78.9839 103.728L84.3048 115.496C84.4283 115.771 84.481 116.073 84.4582 116.374C84.4353 116.675 84.3376 116.966 84.174 117.219C84.0103 117.473 83.7859 117.682 83.521 117.827C83.2562 117.971 82.9593 118.048 82.6574 118.049Z" fill="#7237EC"/>
<path opacity="0.2" d="M95.677 121.344L83.6513 94.6841H55.5366L59.8527 119.63C59.9084 119.952 59.8936 120.282 59.8092 120.597C59.7248 120.912 59.5729 121.205 59.3639 121.456C59.155 121.707 58.8941 121.909 58.5992 122.049C58.3043 122.189 57.9826 122.263 57.6562 122.266H45.3121C44.9961 122.266 44.693 122.392 44.4695 122.615C44.2461 122.839 44.1205 123.142 44.1205 123.458V124.787C44.1205 125.103 44.2461 125.406 44.4695 125.629C44.693 125.853 44.9961 125.978 45.3121 125.978H94.8094C95.1531 125.978 95.4827 125.842 95.7257 125.599C95.9687 125.356 96.1053 125.026 96.1053 124.682V123.304C96.1016 122.628 95.9556 121.96 95.677 121.344ZM82.6574 118.049H69.1602C68.7343 118.05 68.3218 117.9 67.9961 117.625C67.6704 117.351 67.4525 116.97 67.3811 116.55L65.3438 104.782C65.299 104.523 65.3115 104.256 65.3805 104.002C65.4496 103.747 65.5735 103.511 65.7436 103.309C65.9136 103.108 66.1257 102.946 66.365 102.835C66.6042 102.725 66.8648 102.668 67.1285 102.668H77.3365C77.6838 102.668 78.0237 102.768 78.3157 102.956C78.6078 103.144 78.8397 103.412 78.9839 103.728L84.3048 115.496C84.4283 115.771 84.481 116.073 84.4582 116.374C84.4353 116.675 84.3376 116.966 84.174 117.219C84.0103 117.473 83.7859 117.682 83.521 117.827C83.2562 117.971 82.9593 118.048 82.6574 118.049Z" fill="white"/>
<path d="M68.7154 102.641H67.1285C66.8648 102.64 66.6042 102.697 66.365 102.808C66.1257 102.919 65.9136 103.08 65.7436 103.282C65.5735 103.483 65.4496 103.72 65.3805 103.974C65.3115 104.228 65.299 104.495 65.3438 104.755L67.3811 116.522C67.4525 116.942 67.6704 117.323 67.9961 117.598C68.3218 117.872 68.7343 118.022 69.1602 118.021H70.7526C70.3267 118.022 69.9143 117.872 69.5885 117.598C69.2628 117.323 69.0449 116.942 68.9735 116.522L66.9363 104.755C66.8915 104.495 66.9039 104.229 66.9726 103.975C67.0414 103.721 67.1648 103.485 67.3342 103.284C67.5037 103.083 67.7151 102.921 67.9537 102.81C68.1923 102.698 68.4522 102.641 68.7154 102.641Z" fill="#7237EC"/>
<path d="M97.2694 121.344L85.2328 94.7061H83.6513L95.677 121.344C95.9587 121.967 96.1047 122.642 96.1053 123.326V124.704C96.1053 124.874 96.0718 125.043 96.0066 125.2C95.9415 125.357 95.846 125.5 95.7257 125.621C95.6054 125.741 95.4625 125.836 95.3053 125.901C95.1481 125.967 94.9795 126 94.8094 126H96.4018C96.572 126 96.7405 125.967 96.8977 125.901C97.0549 125.836 97.1978 125.741 97.3181 125.621C97.4385 125.5 97.5339 125.357 97.5991 125.2C97.6642 125.043 97.6977 124.874 97.6977 124.704V123.326C97.6971 122.642 97.5511 121.967 97.2694 121.344Z" fill="#7237EC"/>
<g opacity="0.2">
<path d="M68.7154 102.641H67.1284C66.8648 102.64 66.6042 102.697 66.365 102.808C66.1257 102.919 65.9136 103.08 65.7435 103.282C65.5735 103.483 65.4496 103.72 65.3805 103.974C65.3115 104.228 65.2989 104.495 65.3438 104.755L67.381 116.522C67.4524 116.942 67.6704 117.323 67.9961 117.598C68.3218 117.872 68.7342 118.022 69.1602 118.021H70.7526C70.3267 118.022 69.9142 117.872 69.5885 117.598C69.2628 117.323 69.0449 116.942 68.9735 116.522L66.9362 104.755C66.8914 104.495 66.9039 104.229 66.9726 103.975C67.0413 103.721 67.1648 103.485 67.3342 103.284C67.5037 103.083 67.7151 102.921 67.9537 102.81C68.1922 102.698 68.4522 102.641 68.7154 102.641Z" fill="black"/>
<path d="M97.2694 121.344L85.2328 94.7061H83.6513L95.6769 121.344C95.9586 121.967 96.1046 122.642 96.1053 123.326V124.704C96.1053 124.874 96.0717 125.043 96.0066 125.2C95.9415 125.357 95.846 125.5 95.7257 125.621C95.6054 125.741 95.4625 125.836 95.3053 125.901C95.148 125.967 94.9795 126 94.8094 126H96.4018C96.572 126 96.7405 125.967 96.8977 125.901C97.0549 125.836 97.1978 125.741 97.3181 125.621C97.4385 125.5 97.5339 125.357 97.599 125.2C97.6642 125.043 97.6977 124.874 97.6977 124.704V123.326C97.6971 122.642 97.5511 121.967 97.2694 121.344Z" fill="black"/>
</g>
<path opacity="0.2" d="M83.6404 94.6841H55.5257L56.6294 101.048H86.5177L83.6404 94.6841Z" fill="black"/>
<path d="M123.973 97.4789H4.02962C3.46736 97.4896 2.90932 97.38 2.39285 97.1574C1.87638 96.9349 1.41341 96.6047 1.03492 96.1888C0.656427 95.7728 0.371156 95.2808 0.198202 94.7458C0.0252483 94.2106 -0.0313955 93.6448 0.0320583 93.086L7.60985 6.41365C7.72935 5.22414 8.28119 4.11984 9.16073 3.31014C10.0403 2.50043 11.1864 2.04163 12.3817 2.02073H132.325C132.887 2.01009 133.445 2.1197 133.962 2.3422C134.478 2.56471 134.941 2.89497 135.32 3.3109C135.698 3.72682 135.983 4.21881 136.156 4.75391C136.329 5.28901 136.386 5.85488 136.322 6.41365L128.739 93.0915C128.62 94.2795 128.068 95.3824 127.19 96.1911C126.311 96.9998 125.167 97.458 123.973 97.4789Z" fill="#7237EC"/>
<path opacity="0.5" d="M123.973 97.4789H4.02962C3.46736 97.4896 2.90932 97.38 2.39285 97.1574C1.87638 96.9349 1.41341 96.6047 1.03492 96.1888C0.656427 95.7728 0.371156 95.2808 0.198202 94.7458C0.0252483 94.2106 -0.0313955 93.6448 0.0320583 93.086L7.60985 6.41365C7.72935 5.22414 8.28119 4.11984 9.16073 3.31014C10.0403 2.50043 11.1864 2.04163 12.3817 2.02073H132.325C132.887 2.01009 133.445 2.1197 133.962 2.3422C134.478 2.56471 134.941 2.89497 135.32 3.3109C135.698 3.72682 135.983 4.21881 136.156 4.75391C136.329 5.28901 136.386 5.85488 136.322 6.41365L128.739 93.0915C128.62 94.2795 128.068 95.3824 127.19 96.1911C126.311 96.9998 125.167 97.458 123.973 97.4789Z" fill="white"/>
<path d="M0.844722 83.7231L0.0265415 93.091C-0.0369123 93.6498 0.0197357 94.2157 0.19269 94.7508C0.365643 95.2859 0.650914 95.7779 1.0294 96.1938C1.40789 96.6097 1.87087 96.94 2.38734 97.1625C2.9038 97.385 3.46185 97.4946 4.0241 97.484H123.973C125.168 97.4629 126.313 97.0039 127.192 96.1941C128.07 95.3843 128.621 94.2801 128.739 93.091L129.563 83.7231H0.844722Z" fill="#7237EC"/>
<path opacity="0.7" d="M0.844722 83.7231L0.0265415 93.091C-0.0369123 93.6498 0.0197357 94.2157 0.19269 94.7508C0.365643 95.2859 0.650914 95.7779 1.0294 96.1938C1.40789 96.6097 1.87087 96.94 2.38734 97.1625C2.9038 97.385 3.46185 97.4946 4.0241 97.484H123.973C125.168 97.4629 126.313 97.0039 127.192 96.1941C128.07 95.3843 128.621 94.2801 128.739 93.091L129.563 83.7231H0.844722Z" fill="white"/>
<path d="M125.329 81.0714H5.53968C5.23513 81.0772 4.93285 81.0179 4.65303 80.8976C4.37321 80.7772 4.12228 80.5986 3.91699 80.3735C3.7117 80.1485 3.55678 79.8822 3.46257 79.5926C3.36836 79.3029 3.33703 78.9965 3.37067 78.6937L9.63608 7.06165C9.70179 6.4176 10.0013 5.81997 10.4779 5.38183C10.9545 4.94368 11.5751 4.69541 12.2224 4.68398H132.012C132.316 4.67821 132.619 4.73748 132.899 4.85782C133.178 4.97817 133.429 5.15681 133.635 5.38185C133.84 5.60689 133.995 5.87313 134.089 6.1628C134.183 6.45247 134.215 6.75891 134.181 7.06165L127.916 78.6937C127.85 79.3378 127.55 79.9354 127.074 80.3736C126.597 80.8117 125.976 81.06 125.329 81.0714Z" fill="#7237EC"/>
<path opacity="0.8" d="M125.329 81.0714H5.53968C5.23513 81.0772 4.93285 81.0179 4.65303 80.8976C4.37321 80.7772 4.12228 80.5986 3.91699 80.3735C3.7117 80.1485 3.55678 79.8822 3.46257 79.5926C3.36836 79.3029 3.33703 78.9965 3.37067 78.6937L9.63608 7.06165C9.70179 6.4176 10.0013 5.81997 10.4779 5.38183C10.9545 4.94368 11.5751 4.69541 12.2224 4.68398H132.012C132.316 4.67821 132.619 4.73748 132.899 4.85782C133.178 4.97817 133.429 5.15681 133.635 5.38185C133.84 5.60689 133.995 5.87313 134.089 6.1628C134.183 6.45247 134.215 6.75891 134.181 7.06165L127.916 78.6937C127.85 79.3378 127.55 79.9354 127.074 80.3736C126.597 80.8117 125.976 81.06 125.329 81.0714Z" fill="white"/>
<path d="M134.977 2.03733H132.325C132.887 2.0267 133.445 2.1363 133.962 2.35881C134.478 2.58131 134.941 2.91158 135.32 3.3275C135.698 3.74342 135.983 4.23541 136.156 4.77051C136.329 5.30561 136.386 5.87148 136.322 6.43025L128.739 93.0916C128.621 94.2807 128.07 95.3849 127.192 96.1947C126.313 97.0045 125.168 97.4635 123.973 97.4845H126.625C127.82 97.4635 128.965 97.0045 129.844 96.1947C130.722 95.3849 131.273 94.2807 131.391 93.0916L138.975 6.41927C139.036 5.86136 138.979 5.29669 138.805 4.76293C138.631 4.22916 138.346 3.73857 137.967 3.32389C137.589 2.9092 137.127 2.57996 136.611 2.3581C136.095 2.13625 135.538 2.02689 134.977 2.03733Z" fill="#7237EC"/>
<path opacity="0.2" d="M134.977 2.03733H132.325C132.887 2.0267 133.445 2.1363 133.962 2.35881C134.478 2.58131 134.941 2.91158 135.32 3.3275C135.698 3.74342 135.983 4.23541 136.156 4.77051C136.329 5.30561 136.386 5.87148 136.322 6.43025L128.739 93.0916C128.621 94.2807 128.07 95.3849 127.192 96.1947C126.313 97.0045 125.168 97.4635 123.973 97.4845H126.625C127.82 97.4635 128.965 97.0045 129.844 96.1947C130.722 95.3849 131.273 94.2807 131.391 93.0916L138.975 6.41927C139.036 5.86136 138.979 5.29669 138.805 4.76293C138.631 4.22916 138.346 3.73857 137.967 3.32389C137.589 2.9092 137.127 2.57996 136.611 2.3581C136.095 2.13625 135.538 2.02689 134.977 2.03733Z" fill="white"/>
<path d="M62.6587 48.2511C62.7203 47.5206 62.7332 46.7868 62.6971 46.0546L65.5855 44.5226C65.4916 43.6563 65.3374 42.7976 65.1242 41.9527L61.9723 42.0076C61.5365 40.6515 60.9057 39.3659 60.0998 38.1913L61.9503 35.4896C61.4257 34.8194 60.8512 34.1898 60.2316 33.6062L57.3927 35.2261C56.2969 34.3229 55.0762 33.5831 53.7685 33.0296L54.098 29.8832C53.2792 29.594 52.4405 29.3646 51.5885 29.1968L49.8149 31.9424C49.087 31.8423 48.3531 31.7928 47.6184 31.7941C46.8838 31.7945 46.15 31.844 45.4219 31.9424L44.1315 29.1968C43.2404 29.3666 42.3617 29.5959 41.5013 29.8832L41.2761 33.0296C39.8543 33.5933 38.5079 34.3311 37.2676 35.2261L34.7087 33.6062C33.9885 34.1919 33.3045 34.8209 32.6605 35.4896L34.0443 38.1913C33.041 39.3525 32.1869 40.6345 31.5019 42.0076L28.3609 41.9527C28.0017 42.7887 27.6972 43.6471 27.4494 44.5226L30.0687 46.0546C29.9061 46.7785 29.7905 47.5122 29.7227 48.2511C29.6595 48.9814 29.6448 49.7152 29.6788 50.4475L26.796 51.9741C26.8862 52.8409 27.0404 53.6999 27.2572 54.5439L30.4091 54.4945C30.8425 55.8603 31.4733 57.1552 32.2816 58.3383L30.4256 61.0345C30.9523 61.7047 31.5286 62.3343 32.1498 62.9179L34.9888 61.3036C36.0826 62.2066 37.3014 62.9465 38.6074 63.5L38.2835 66.6464C39.1023 66.9356 39.9409 67.165 40.7929 67.3328L42.5665 64.5873C43.2946 64.6849 44.0284 64.7344 44.763 64.7355C45.4976 64.7324 46.2312 64.6829 46.9595 64.5873L48.2499 67.3328C49.141 67.163 50.0197 66.9337 50.8802 66.6464L51.1053 63.5C52.5265 62.9351 53.8728 62.1974 55.1138 61.3036L57.6672 62.9179C58.39 62.3351 59.0742 61.706 59.7154 61.0345L58.3371 58.3383C59.3423 57.1686 60.1965 55.8772 60.8795 54.4945L64.0205 54.5439C64.3814 53.7087 64.6859 52.8501 64.932 51.9741L62.3127 50.4475C62.4751 49.7236 62.5907 48.9899 62.6587 48.2511ZM45.6965 53.8521C44.9789 53.8658 44.2667 53.7263 43.6073 53.4429C42.9479 53.1595 42.3566 52.7387 41.8727 52.2086C41.3889 51.6785 41.0237 51.0513 40.8015 50.3689C40.5793 49.6864 40.5052 48.9644 40.5842 48.2511C40.7396 46.7347 41.4449 45.3276 42.5669 44.2957C43.6888 43.2638 45.1498 42.6784 46.6739 42.6501C47.3913 42.6373 48.1031 42.7774 48.762 43.0611C49.421 43.3448 50.012 43.7656 50.4956 44.2954C50.9793 44.8253 51.3445 45.4522 51.5671 46.1342C51.7896 46.8163 51.8643 47.5379 51.7862 48.2511C51.632 49.768 50.927 51.1757 49.8048 52.2078C48.6826 53.24 47.221 53.8249 45.6965 53.8521Z" fill="#7237EC"/>
<path opacity="0.4" d="M62.6587 48.2511C62.7203 47.5206 62.7332 46.7868 62.6971 46.0546L65.5855 44.5226C65.4916 43.6563 65.3374 42.7976 65.1242 41.9527L61.9723 42.0076C61.5365 40.6515 60.9057 39.3659 60.0998 38.1913L61.9503 35.4896C61.4257 34.8194 60.8512 34.1898 60.2316 33.6062L57.3927 35.2261C56.2969 34.3229 55.0762 33.5831 53.7685 33.0296L54.098 29.8832C53.2792 29.594 52.4405 29.3646 51.5885 29.1968L49.8149 31.9424C49.087 31.8423 48.3531 31.7928 47.6184 31.7941C46.8838 31.7945 46.15 31.844 45.4219 31.9424L44.1315 29.1968C43.2404 29.3666 42.3617 29.5959 41.5013 29.8832L41.2761 33.0296C39.8543 33.5933 38.5079 34.3311 37.2676 35.2261L34.7087 33.6062C33.9885 34.1919 33.3045 34.8209 32.6605 35.4896L34.0443 38.1913C33.041 39.3525 32.1869 40.6345 31.5019 42.0076L28.3609 41.9527C28.0017 42.7887 27.6972 43.6471 27.4494 44.5226L30.0687 46.0546C29.9061 46.7785 29.7905 47.5122 29.7227 48.2511C29.6595 48.9814 29.6448 49.7152 29.6788 50.4475L26.796 51.9741C26.8862 52.8409 27.0404 53.6999 27.2572 54.5439L30.4091 54.4945C30.8425 55.8603 31.4733 57.1552 32.2816 58.3383L30.4256 61.0345C30.9523 61.7047 31.5286 62.3343 32.1498 62.9179L34.9888 61.3036C36.0826 62.2066 37.3014 62.9465 38.6074 63.5L38.2835 66.6464C39.1023 66.9356 39.9409 67.165 40.7929 67.3328L42.5665 64.5873C43.2946 64.6849 44.0284 64.7344 44.763 64.7355C45.4976 64.7324 46.2312 64.6829 46.9595 64.5873L48.2499 67.3328C49.141 67.163 50.0197 66.9337 50.8802 66.6464L51.1053 63.5C52.5265 62.9351 53.8728 62.1974 55.1138 61.3036L57.6672 62.9179C58.39 62.3351 59.0742 61.706 59.7154 61.0345L58.3371 58.3383C59.3423 57.1686 60.1965 55.8772 60.8795 54.4945L64.0205 54.5439C64.3814 53.7087 64.6859 52.8501 64.932 51.9741L62.3127 50.4475C62.4751 49.7236 62.5907 48.9899 62.6587 48.2511ZM45.6965 53.8521C44.9789 53.8658 44.2667 53.7263 43.6073 53.4429C42.9479 53.1595 42.3566 52.7387 41.8727 52.2086C41.3889 51.6785 41.0237 51.0513 40.8015 50.3689C40.5793 49.6864 40.5052 48.9644 40.5842 48.2511C40.7396 46.7347 41.4449 45.3276 42.5669 44.2957C43.6888 43.2638 45.1498 42.6784 46.6739 42.6501C47.3913 42.6373 48.1031 42.7774 48.762 43.0611C49.421 43.3448 50.012 43.7656 50.4956 44.2954C50.9793 44.8253 51.3445 45.4522 51.5671 46.1342C51.7896 46.8163 51.8643 47.5379 51.7862 48.2511C51.632 49.768 50.927 51.1757 49.8048 52.2078C48.6826 53.24 47.221 53.8249 45.6965 53.8521Z" fill="white"/>
<path d="M107.609 30.7394C107.656 30.1916 107.675 29.6418 107.664 29.0921L112.463 26.5496C112.375 25.8424 112.248 25.1403 112.085 24.4465L106.84 24.5344C106.481 23.5132 106.002 22.5382 105.413 21.6296L108.499 17.1378C108.059 16.5994 107.59 16.0861 107.093 15.6003L102.371 18.291C101.524 17.6265 100.602 17.0626 99.6251 16.6107L100.174 11.3776C99.5003 11.1566 98.8147 10.9733 98.1205 10.8285L95.1828 15.3642C94.6357 15.3032 94.0858 15.272 93.5354 15.2708C92.9722 15.2715 92.4094 15.3027 91.8496 15.3642L89.7081 10.79C88.9835 10.9362 88.2668 11.1195 87.561 11.3392L87.1876 16.5722C86.1162 17.0286 85.0934 17.5915 84.1346 18.2525L79.8789 15.5619C79.2968 16.0506 78.7422 16.5612 78.2316 17.0994L80.5269 21.5911C79.789 22.4938 79.1416 23.4667 78.594 24.496L73.3664 24.4081C73.0863 25.0945 72.8173 25.7919 72.6196 26.5112L76.9741 29.0536C76.8683 29.5985 76.7895 30.1483 76.738 30.701C76.6899 31.2597 76.6715 31.8206 76.6831 32.3813L71.8838 34.9237C71.9699 35.6295 72.0964 36.3299 72.2627 37.0213L77.5012 36.9389C77.8632 37.9591 78.3423 38.9339 78.9289 39.8437L75.8429 44.33C76.2824 44.8701 76.7518 45.3852 77.2486 45.873L81.971 43.1769C82.817 43.8429 83.7385 44.4069 84.7166 44.8572L84.1675 50.0902C84.8388 50.3137 85.5227 50.497 86.2157 50.6393L89.1425 46.1146C89.6895 46.1755 90.2394 46.2066 90.7898 46.208C91.353 46.2074 91.9158 46.1763 92.4756 46.1146L94.6227 50.6942C95.3477 50.5499 96.0644 50.3666 96.7697 50.1451L97.1431 44.9121C98.215 44.4567 99.2379 43.8937 100.196 43.2318L104.446 45.9279C105.028 45.4392 105.588 44.9285 106.121 44.3849L103.82 39.8986C104.562 38.9987 105.209 38.0254 105.753 36.9938L110.981 37.0762C111.266 36.3906 111.516 35.6904 111.728 34.9786L107.373 32.4362C107.483 31.8754 107.562 31.309 107.609 30.7394ZM91.5641 37.3288C90.7214 37.3446 89.8851 37.18 89.1113 36.8459C88.3376 36.5118 87.6442 36.0161 87.0778 35.392C86.5114 34.7679 86.0851 34.0298 85.8275 33.2273C85.5699 32.4249 85.4869 31.5766 85.5842 30.7394C85.7654 28.9623 86.5922 27.3133 87.9078 26.1049C89.2235 24.8966 90.9366 24.2127 92.7227 24.183C93.5615 24.1694 94.3937 24.3345 95.1638 24.6672C95.934 25 96.6245 25.4928 97.1895 26.1129C97.7546 26.733 98.1813 27.4662 98.4412 28.2639C98.7011 29.0616 98.7883 29.9054 98.6971 30.7394C98.5236 32.5215 97.7009 34.1777 96.3857 35.3927C95.0704 36.6077 93.3544 37.2968 91.5641 37.3288Z" fill="#7237EC"/>
<path opacity="0.3" d="M107.609 30.7394C107.656 30.1916 107.675 29.6418 107.664 29.0921L112.463 26.5496C112.375 25.8424 112.248 25.1403 112.085 24.4465L106.84 24.5344C106.481 23.5132 106.002 22.5382 105.413 21.6296L108.499 17.1378C108.059 16.5994 107.59 16.0861 107.093 15.6003L102.371 18.291C101.524 17.6265 100.602 17.0626 99.6251 16.6107L100.174 11.3776C99.5003 11.1566 98.8147 10.9733 98.1205 10.8285L95.1828 15.3642C94.6357 15.3032 94.0858 15.272 93.5354 15.2708C92.9722 15.2715 92.4094 15.3027 91.8496 15.3642L89.7081 10.79C88.9835 10.9362 88.2668 11.1195 87.561 11.3392L87.1876 16.5722C86.1162 17.0286 85.0934 17.5915 84.1346 18.2525L79.8789 15.5619C79.2968 16.0506 78.7422 16.5612 78.2316 17.0994L80.5269 21.5911C79.789 22.4938 79.1416 23.4667 78.594 24.496L73.3664 24.4081C73.0863 25.0945 72.8173 25.7919 72.6196 26.5112L76.9741 29.0536C76.8683 29.5985 76.7895 30.1483 76.738 30.701C76.6899 31.2597 76.6715 31.8206 76.6831 32.3813L71.8838 34.9237C71.9699 35.6295 72.0964 36.3299 72.2627 37.0213L77.5012 36.9389C77.8632 37.9591 78.3423 38.9339 78.9289 39.8437L75.8429 44.33C76.2824 44.8701 76.7518 45.3852 77.2486 45.873L81.971 43.1769C82.817 43.8429 83.7385 44.4069 84.7166 44.8572L84.1675 50.0902C84.8388 50.3137 85.5227 50.497 86.2157 50.6393L89.1425 46.1146C89.6895 46.1755 90.2394 46.2066 90.7898 46.208C91.353 46.2074 91.9158 46.1763 92.4756 46.1146L94.6227 50.6942C95.3477 50.5499 96.0644 50.3666 96.7697 50.1451L97.1431 44.9121C98.215 44.4567 99.2379 43.8937 100.196 43.2318L104.446 45.9279C105.028 45.4392 105.588 44.9285 106.121 44.3849L103.82 39.8986C104.562 38.9987 105.209 38.0254 105.753 36.9938L110.981 37.0762C111.266 36.3906 111.516 35.6904 111.728 34.9786L107.373 32.4362C107.483 31.8754 107.562 31.309 107.609 30.7394ZM91.5641 37.3288C90.7214 37.3446 89.8851 37.18 89.1113 36.8459C88.3376 36.5118 87.6442 36.0161 87.0778 35.392C86.5114 34.7679 86.0851 34.0298 85.8275 33.2273C85.5699 32.4249 85.4869 31.5766 85.5842 30.7394C85.7654 28.9623 86.5922 27.3133 87.9078 26.1049C89.2235 24.8966 90.9366 24.2127 92.7227 24.183C93.5615 24.1694 94.3937 24.3345 95.1638 24.6672C95.934 25 96.6245 25.4928 97.1895 26.1129C97.7546 26.733 98.1813 27.4662 98.4412 28.2639C98.7011 29.0616 98.7883 29.9054 98.6971 30.7394C98.5236 32.5215 97.7009 34.1777 96.3857 35.3927C95.0704 36.6077 93.3544 37.2968 91.5641 37.3288Z" fill="white"/>
<path d="M85.9576 61.6929C85.9888 61.3277 86.0016 60.9612 85.996 60.5947L89.1864 58.9034C89.126 58.4312 89.0381 57.9644 88.9338 57.5087L85.4524 57.5691C85.2095 56.8911 84.8908 56.2427 84.5025 55.6362L86.5507 52.6545C86.2599 52.2959 85.9482 51.9548 85.6172 51.6331L82.4817 53.4177C81.9141 52.9831 81.2988 52.6146 80.6477 52.3195L81.0101 48.8436C80.5636 48.6935 80.1089 48.5688 79.6483 48.4702L77.6934 51.5123C77.3289 51.4704 76.9621 51.4503 76.5952 51.4519C76.2283 51.4507 75.8616 51.4709 75.497 51.5123L74.0748 48.4702C73.5926 48.5694 73.1161 48.6941 72.6471 48.8436L72.4 52.3195C71.6883 52.6181 71.0078 52.9859 70.3682 53.4177L67.5128 51.6057C67.123 51.9296 66.755 52.2701 66.4146 52.627L67.9411 55.6087C67.4516 56.209 67.023 56.8565 66.6617 57.5416L63.1858 57.4812C62.9991 57.937 62.8344 58.4037 62.6916 58.8759L65.5854 60.5672C65.513 60.9302 65.4598 61.2968 65.4262 61.6655C65.3948 62.0307 65.382 62.3972 65.3878 62.7637L62.1974 64.4495C62.2579 64.9184 62.3422 65.3839 62.45 65.8442L65.9369 65.7893C66.1757 66.4681 66.4926 67.1167 66.8813 67.7222L64.8331 70.7039C65.1254 71.0611 65.437 71.4021 65.7666 71.7253L68.9021 69.9351C69.4684 70.3717 70.0839 70.7403 70.7361 71.0334L70.3737 74.5148C70.8185 74.6575 71.2688 74.7838 71.7355 74.8882L73.6904 71.846C74.0551 71.8852 74.4217 71.9054 74.7886 71.9065C75.1555 71.905 75.522 71.8849 75.8868 71.846L77.3145 74.8882C77.7978 74.7838 78.27 74.6575 78.7422 74.5148L78.9838 71.0334C79.6965 70.737 80.3772 70.369 81.0156 69.9351L83.838 71.7253C84.2279 71.4013 84.5958 71.0608 84.9363 70.7039L83.4097 67.7222C83.901 67.1221 84.3314 66.4746 84.6946 65.7893L88.1651 65.8442C88.3559 65.389 88.5209 64.9233 88.6593 64.4495L85.7654 62.7637C85.8473 62.4102 85.9114 62.0528 85.9576 61.6929ZM75.151 67.7661C74.3741 67.7775 73.6035 67.6239 72.8904 67.3153C72.1772 67.0068 71.5377 66.5505 71.014 65.9764C70.4903 65.4024 70.0944 64.7237 69.8524 63.9853C69.6105 63.2469 69.528 62.4656 69.6104 61.6929C69.7789 60.051 70.5417 58.5274 71.7554 57.4088C72.969 56.2903 74.5497 55.654 76.1998 55.6197C76.9768 55.6083 77.7473 55.762 78.4605 56.0705C79.1736 56.379 79.8132 56.8354 80.3369 57.4094C80.8606 57.9834 81.2565 58.6621 81.4984 59.4005C81.7404 60.1389 81.8229 60.9203 81.7404 61.6929C81.572 63.3348 80.8091 64.8584 79.5955 65.977C78.3818 67.0956 76.8011 67.7319 75.151 67.7661Z" fill="#7237EC"/>
<path opacity="0.5" d="M85.9576 61.6929C85.9888 61.3277 86.0016 60.9612 85.996 60.5947L89.1864 58.9034C89.126 58.4312 89.0381 57.9644 88.9338 57.5087L85.4524 57.5691C85.2095 56.8911 84.8908 56.2427 84.5025 55.6362L86.5507 52.6545C86.2599 52.2959 85.9482 51.9548 85.6172 51.6331L82.4817 53.4177C81.9141 52.9831 81.2988 52.6146 80.6477 52.3195L81.0101 48.8436C80.5636 48.6935 80.1089 48.5688 79.6483 48.4702L77.6934 51.5123C77.3289 51.4704 76.9621 51.4503 76.5952 51.4519C76.2283 51.4507 75.8616 51.4709 75.497 51.5123L74.0748 48.4702C73.5926 48.5694 73.1161 48.6941 72.6471 48.8436L72.4 52.3195C71.6883 52.6181 71.0078 52.9859 70.3682 53.4177L67.5128 51.6057C67.123 51.9296 66.755 52.2701 66.4146 52.627L67.9411 55.6087C67.4516 56.209 67.023 56.8565 66.6617 57.5416L63.1858 57.4812C62.9991 57.937 62.8344 58.4037 62.6916 58.8759L65.5854 60.5672C65.513 60.9302 65.4598 61.2968 65.4262 61.6655C65.3948 62.0307 65.382 62.3972 65.3878 62.7637L62.1974 64.4495C62.2579 64.9184 62.3422 65.3839 62.45 65.8442L65.9369 65.7893C66.1757 66.4681 66.4926 67.1167 66.8813 67.7222L64.8331 70.7039C65.1254 71.0611 65.437 71.4021 65.7666 71.7253L68.9021 69.9351C69.4684 70.3717 70.0839 70.7403 70.7361 71.0334L70.3737 74.5148C70.8185 74.6575 71.2688 74.7838 71.7355 74.8882L73.6904 71.846C74.0551 71.8852 74.4217 71.9054 74.7886 71.9065C75.1555 71.905 75.522 71.8849 75.8868 71.846L77.3145 74.8882C77.7978 74.7838 78.27 74.6575 78.7422 74.5148L78.9838 71.0334C79.6965 70.737 80.3772 70.369 81.0156 69.9351L83.838 71.7253C84.2279 71.4013 84.5958 71.0608 84.9363 70.7039L83.4097 67.7222C83.901 67.1221 84.3314 66.4746 84.6946 65.7893L88.1651 65.8442C88.3559 65.389 88.5209 64.9233 88.6593 64.4495L85.7654 62.7637C85.8473 62.4102 85.9114 62.0528 85.9576 61.6929ZM75.151 67.7661C74.3741 67.7775 73.6035 67.6239 72.8904 67.3153C72.1772 67.0068 71.5377 66.5505 71.014 65.9764C70.4903 65.4024 70.0944 64.7237 69.8524 63.9853C69.6105 63.2469 69.528 62.4656 69.6104 61.6929C69.7789 60.051 70.5417 58.5274 71.7554 57.4088C72.969 56.2903 74.5497 55.654 76.1998 55.6197C76.9768 55.6083 77.7473 55.762 78.4605 56.0705C79.1736 56.379 79.8132 56.8354 80.3369 57.4094C80.8606 57.9834 81.2565 58.6621 81.4984 59.4005C81.7404 60.1389 81.8229 60.9203 81.7404 61.6929C81.572 63.3348 80.8091 64.8584 79.5955 65.977C78.3818 67.0956 76.8011 67.7319 75.151 67.7661Z" fill="white"/>
<path d="M63.1529 18.1979C63.0385 19.3855 62.4912 20.4895 61.6152 21.2996C60.7393 22.1097 59.596 22.5693 58.403 22.5908C57.8412 22.6016 57.2835 22.4921 56.7675 22.2695C56.2515 22.0469 55.7891 21.7164 55.4115 21.3002C55.0338 20.8841 54.7496 20.3919 54.578 19.8568C54.4064 19.3217 54.3513 18.756 54.4164 18.1979C54.5308 17.0102 55.0782 15.9062 55.9541 15.0961C56.83 14.286 57.9734 13.8264 59.1663 13.8049C59.7282 13.7941 60.2858 13.9036 60.8018 14.1262C61.3178 14.3488 61.7802 14.6793 62.1578 15.0955C62.5355 15.5116 62.8197 16.0038 62.9913 16.5389C63.1629 17.074 63.218 17.6397 63.1529 18.1979Z" fill="#7237EC"/>
<path opacity="0.4" d="M63.1529 18.1979C63.0385 19.3855 62.4912 20.4895 61.6152 21.2996C60.7393 22.1097 59.596 22.5693 58.403 22.5908C57.8412 22.6016 57.2835 22.4921 56.7675 22.2695C56.2515 22.0469 55.7891 21.7164 55.4115 21.3002C55.0338 20.8841 54.7496 20.3919 54.578 19.8568C54.4064 19.3217 54.3513 18.756 54.4164 18.1979C54.5308 17.0102 55.0782 15.9062 55.9541 15.0961C56.83 14.286 57.9734 13.8264 59.1663 13.8049C59.7282 13.7941 60.2858 13.9036 60.8018 14.1262C61.3178 14.3488 61.7802 14.6793 62.1578 15.0955C62.5355 15.5116 62.8197 16.0038 62.9913 16.5389C63.1629 17.074 63.218 17.6397 63.1529 18.1979Z" fill="white"/>
<path d="M104.984 70.5831C104.868 71.7707 104.319 72.8742 103.442 73.6839C102.566 74.4937 101.422 74.9535 100.229 74.976C99.6675 74.986 99.1103 74.8758 98.5947 74.6529C98.0791 74.43 97.6172 74.0995 97.2397 73.6835C96.8622 73.2676 96.578 72.7758 96.406 72.2411C96.234 71.7064 96.1783 71.1411 96.2425 70.5831C96.3569 69.3955 96.9042 68.2914 97.7802 67.4813C98.6561 66.6712 99.7995 66.2116 100.992 66.1902C101.554 66.1794 102.112 66.289 102.629 66.5116C103.145 66.7341 103.607 67.0645 103.986 67.4805C104.364 67.8966 104.648 68.3886 104.821 68.9238C104.993 69.4589 105.049 70.0246 104.984 70.5831Z" fill="#7237EC"/>
<path opacity="0.7" d="M104.984 70.5831C104.868 71.7707 104.319 72.8742 103.442 73.6839C102.566 74.4937 101.422 74.9535 100.229 74.976C99.6675 74.986 99.1103 74.8758 98.5947 74.6529C98.0791 74.43 97.6172 74.0995 97.2397 73.6835C96.8622 73.2676 96.578 72.7758 96.406 72.2411C96.234 71.7064 96.1783 71.1411 96.2425 70.5831C96.3569 69.3955 96.9042 68.2914 97.7802 67.4813C98.6561 66.6712 99.7995 66.2116 100.992 66.1902C101.554 66.1794 102.112 66.289 102.629 66.5116C103.145 66.7341 103.607 67.0645 103.986 67.4805C104.364 67.8966 104.648 68.3886 104.821 68.9238C104.993 69.4589 105.049 70.0246 104.984 70.5831Z" fill="white"/>
<path d="M112.894 60.7502C115.657 58.1057 115.931 53.909 113.506 51.3765C111.082 48.8441 106.878 48.9349 104.115 51.5794C101.353 54.2239 101.078 58.4206 103.503 60.9531C105.927 63.4855 110.132 63.3947 112.894 60.7502Z" fill="#7237EC"/>
<path opacity="0.6" d="M112.894 60.7502C115.657 58.1057 115.931 53.909 113.506 51.3765C111.082 48.8441 106.878 48.9349 104.115 51.5794C101.353 54.2239 101.078 58.4206 103.503 60.9531C105.927 63.4855 110.132 63.3947 112.894 60.7502Z" fill="white"/>
<path d="M33.6308 27.1544C37.6595 23.2978 38.0608 17.179 34.5271 13.4876C30.9935 9.79631 24.863 9.93033 20.8343 13.787C16.8056 17.6436 16.4043 23.7624 19.9379 27.4538C23.4716 31.1451 29.6021 31.0111 33.6308 27.1544Z" fill="#7237EC"/>
<path opacity="0.6" d="M33.6308 27.1544C37.6595 23.2978 38.0608 17.179 34.5271 13.4876C30.9935 9.79631 24.863 9.93033 20.8343 13.787C16.8056 17.6436 16.4043 23.7624 19.9379 27.4538C23.4716 31.1451 29.6021 31.0111 33.6308 27.1544Z" fill="white"/>
<g opacity="0.3">
<path d="M84.8155 4.68359H80.2084L63.9711 81.0765H68.5781L84.8155 4.68359Z" fill="white"/>
<path d="M59.3145 81.0765L75.5519 4.68359H58.2437L42.0064 81.0765H59.3145Z" fill="white"/>
</g>
<path d="M25.5385 0.411836H53.45C53.4988 0.403834 53.5432 0.37873 53.5753 0.34101C53.6073 0.30329 53.6249 0.255411 53.6249 0.205918C53.6249 0.156426 53.6073 0.108546 53.5753 0.0708263C53.5432 0.0331064 53.4988 0.00800231 53.45 0H25.5385C25.4896 0.00800231 25.4452 0.0331064 25.4132 0.0708263C25.3811 0.108546 25.3635 0.156426 25.3635 0.205918C25.3635 0.255411 25.3811 0.30329 25.4132 0.34101C25.4452 0.37873 25.4896 0.403834 25.5385 0.411836Z" fill="#7237EC"/>
<path d="M57.4805 0.411836H62.5214C62.5702 0.403834 62.6146 0.37873 62.6467 0.34101C62.6787 0.30329 62.6963 0.255411 62.6963 0.205918C62.6963 0.156426 62.6787 0.108546 62.6467 0.0708263C62.6146 0.0331064 62.5702 0.00800231 62.5214 0H57.4805C57.4316 0.00800231 57.3872 0.0331064 57.3552 0.0708263C57.3232 0.108546 57.3056 0.156426 57.3056 0.205918C57.3056 0.255411 57.3232 0.30329 57.3552 0.34101C57.3872 0.37873 57.4316 0.403834 57.4805 0.411836Z" fill="#7237EC"/>
<path d="M49.5128 84.0588H77.4463C77.4952 84.0508 77.5396 84.0257 77.5716 83.988C77.6036 83.9503 77.6212 83.9024 77.6212 83.8529C77.6212 83.8034 77.6036 83.7555 77.5716 83.7178C77.5396 83.6801 77.4952 83.655 77.4463 83.647H49.5128C49.464 83.655 49.4196 83.6801 49.3875 83.7178C49.3555 83.7555 49.3379 83.8034 49.3379 83.8529C49.3379 83.9024 49.3555 83.9503 49.3875 83.988C49.4196 84.0257 49.464 84.0508 49.5128 84.0588Z" fill="#7237EC"/>
<path d="M81.4549 84.0588H86.4957C86.5446 84.0508 86.589 84.0257 86.621 83.988C86.6531 83.9503 86.6707 83.9024 86.6707 83.8529C86.6707 83.8034 86.6531 83.7555 86.621 83.7178C86.589 83.6801 86.5446 83.655 86.4957 83.647H81.4549C81.406 83.655 81.3616 83.6801 81.3296 83.7178C81.2975 83.7555 81.2799 83.8034 81.2799 83.8529C81.2799 83.9024 81.2975 83.9503 81.3296 83.988C81.3616 84.0257 81.406 84.0508 81.4549 84.0588Z" fill="#7237EC"/>
<path d="M90.2902 52.2592C90.2912 52.575 90.3859 52.8834 90.5621 53.1454C90.7384 53.4075 90.9883 53.6114 91.2804 53.7315C91.5725 53.8516 91.8936 53.8825 92.2032 53.8202C92.5128 53.758 92.797 53.6053 93.0199 53.3816C93.2428 53.158 93.3945 52.8732 93.4557 52.5634C93.5169 52.2536 93.485 51.9326 93.3639 51.6409C93.2428 51.3493 93.0379 51.1 92.7753 50.9247C92.5126 50.7493 92.2039 50.6558 91.8881 50.6558V52.2592H90.2902Z" fill="#7237EC"/>
<path opacity="0.2" d="M90.2902 52.2592C90.2912 52.575 90.3859 52.8834 90.5621 53.1454C90.7384 53.4075 90.9883 53.6114 91.2804 53.7315C91.5725 53.8516 91.8936 53.8825 92.2032 53.8202C92.5128 53.758 92.797 53.6053 93.0199 53.3816C93.2428 53.158 93.3945 52.8732 93.4557 52.5634C93.5169 52.2536 93.485 51.9326 93.3639 51.6409C93.2428 51.3493 93.0379 51.1 92.7753 50.9247C92.5126 50.7493 92.2039 50.6558 91.8881 50.6558V52.2592H90.2902Z" fill="black"/>
<path d="M90.7569 57.69C88.522 60.0512 84.2829 63.0219 81.3176 60.2544C80.796 59.7712 80.0052 60.5564 80.5269 61.0451C84.0138 64.2904 88.8405 61.3307 91.5422 58.4753C92.0364 57.9591 91.2511 57.1684 90.7569 57.69Z" fill="#7237EC"/>
<g opacity="0.6">
<path d="M90.7569 57.69C88.522 60.0512 84.2829 63.0219 81.3176 60.2544C80.796 59.7712 80.0052 60.5564 80.5269 61.0451C84.0138 64.2904 88.8405 61.3307 91.5422 58.4753C92.0364 57.9591 91.2511 57.1684 90.7569 57.69Z" fill="black"/>
</g>
<path d="M98.1096 51.9081C100.965 49.2064 103.919 44.3797 100.674 40.8983C100.185 40.3492 99.4 41.1619 99.8887 41.6835C102.634 44.6487 99.68 48.8879 97.3243 51.1228C96.8027 51.617 97.5879 52.4023 98.1096 51.9081Z" fill="#7237EC"/>
<g opacity="0.6">
<path d="M98.1096 51.9081C100.965 49.2064 103.919 44.3797 100.674 40.8983C100.185 40.3492 99.4 41.1619 99.8887 41.6835C102.634 44.6487 99.68 48.8879 97.3243 51.1228C96.8027 51.617 97.5879 52.4023 98.1096 51.9081Z" fill="black"/>
</g>
<path d="M91.2402 61.583C90.2572 65.3994 90.3012 71.0278 94.8973 72.2908C95.0429 72.3279 95.1973 72.3057 95.3265 72.229C95.4558 72.1522 95.5492 72.0273 95.5864 71.8817C95.6235 71.736 95.6013 71.5816 95.5246 71.4524C95.4478 71.3232 95.3229 71.2297 95.1773 71.1926C91.2566 70.0943 91.4982 65.0205 92.3164 61.8576C92.3535 61.712 92.3313 61.5575 92.2546 61.4283C92.1779 61.2991 92.053 61.2056 91.9073 61.1685C91.7617 61.1313 91.6073 61.1536 91.478 61.2303C91.3488 61.307 91.2553 61.4319 91.2182 61.5775L91.2402 61.583Z" fill="#7237EC"/>
<g opacity="0.6">
<path d="M91.2402 61.583C90.2572 65.3994 90.3012 71.0278 94.8973 72.2908C95.0429 72.3279 95.1973 72.3057 95.3265 72.229C95.4558 72.1522 95.5492 72.0273 95.5864 71.8817C95.6235 71.736 95.6013 71.5816 95.5246 71.4524C95.4478 71.3232 95.3229 71.2297 95.1773 71.1926C91.2566 70.0943 91.4982 65.0205 92.3164 61.8576C92.3535 61.712 92.3313 61.5575 92.2546 61.4283C92.1779 61.2991 92.053 61.2056 91.9073 61.1685C91.7617 61.1313 91.6073 61.1536 91.478 61.2303C91.3488 61.307 91.2553 61.4319 91.2182 61.5775L91.2402 61.583Z" fill="black"/>
</g>
<path d="M101.662 52.5174C104.842 51.6993 109.938 51.4577 110.997 55.3783C111.034 55.524 111.128 55.6489 111.257 55.7256C111.386 55.8023 111.541 55.8246 111.686 55.7874C111.832 55.7503 111.957 55.6568 112.034 55.5276C112.11 55.3983 112.133 55.2439 112.096 55.0983C110.833 50.5077 105.204 50.4638 101.388 51.4412C101.242 51.4783 101.117 51.5718 101.041 51.701C100.964 51.8303 100.942 51.9847 100.979 52.1303C101.016 52.276 101.109 52.4009 101.239 52.4776C101.368 52.5543 101.522 52.5765 101.668 52.5394L101.662 52.5174Z" fill="#7237EC"/>
<g opacity="0.6">
<path d="M101.662 52.5174C104.842 51.6993 109.938 51.4577 110.997 55.3783C111.034 55.524 111.128 55.6489 111.257 55.7256C111.386 55.8023 111.541 55.8246 111.686 55.7874C111.832 55.7503 111.957 55.6568 112.034 55.5276C112.11 55.3983 112.133 55.2439 112.096 55.0983C110.833 50.5077 105.204 50.4638 101.388 51.4412C101.242 51.4783 101.117 51.5718 101.041 51.701C100.964 51.8303 100.942 51.9847 100.979 52.1303C101.016 52.276 101.109 52.4009 101.239 52.4776C101.368 52.5543 101.522 52.5765 101.668 52.5394L101.662 52.5174Z" fill="black"/>
</g>
<path d="M90.0156 61.8029C90.6025 62.9886 91.3797 64.07 92.3164 65.0043C96.3689 69.0568 102.415 69.5839 105.814 66.1849C109.213 62.7859 108.691 56.7401 104.639 52.6821C103.703 51.7467 102.622 50.9696 101.437 50.3813L90.0156 61.8029Z" fill="#7237EC"/>
<path opacity="0.3" d="M90.0156 61.8029C90.6025 62.9886 91.3797 64.07 92.3164 65.0043C96.3689 69.0568 102.415 69.5839 105.814 66.1849C109.213 62.7859 108.691 56.7401 104.639 52.6821C103.703 51.7467 102.622 50.9696 101.437 50.3813L90.0156 61.8029Z" fill="black"/>
<path d="M91.1578 60.6603L100.295 51.5231C97.4122 50.1009 94.123 50.3535 92.0583 52.4236C89.9937 54.4938 89.7356 57.7775 91.1578 60.6603Z" fill="#7237EC"/>
<path opacity="0.5" d="M91.1578 60.6603L100.295 51.5231C97.4122 50.1009 94.123 50.3535 92.0583 52.4236C89.9937 54.4938 89.7356 57.7775 91.1578 60.6603Z" fill="black"/>
<path opacity="0.2" d="M90.0156 61.8026C90.6025 62.9882 91.3797 64.0697 92.3164 65.0039C96.3689 69.0564 102.415 69.5835 105.814 66.1845L95.7319 56.0918L90.0156 61.8026Z" fill="black"/>
<path d="M82.63 56.6853C83.0342 55.6952 83.6316 54.7954 84.3872 54.0386C86.364 52.0782 88.7801 52.4681 90.8393 54.077C90.9766 54.1868 91.1742 53.9946 91.037 53.8848C89.137 52.4187 86.8582 51.7323 84.8045 53.2973C83.7199 54.1668 82.8782 55.3016 82.3609 56.5919C82.2895 56.7567 82.5641 56.8281 82.63 56.6633V56.6853Z" fill="#263238"/>
<path d="M96.2481 42.7266C94.9563 43.2439 93.821 44.0878 92.9534 45.1757C91.3884 47.2294 92.0693 49.5027 93.5354 51.4026C93.6453 51.5454 93.8429 51.3477 93.7331 51.205C92.1297 49.1293 91.7288 46.7242 93.6892 44.7583C94.4478 44.0035 95.347 43.4046 96.3359 42.9957C96.5007 42.9298 96.4348 42.6607 96.27 42.7266H96.2481Z" fill="#263238"/>
<path d="M95.8472 60.4631C96.0793 60.6928 96.238 60.9863 96.303 61.3063C96.368 61.6264 96.3364 61.9585 96.2122 62.2605C96.088 62.5626 95.8769 62.8209 95.6056 63.0027C95.3343 63.1844 95.0151 63.2815 94.6886 63.2815C94.362 63.2815 94.0428 63.1844 93.7715 63.0027C93.5002 62.8209 93.2891 62.5626 93.165 62.2605C93.0408 61.9585 93.0092 61.6264 93.0742 61.3063C93.1392 60.9863 93.2978 60.6928 93.5299 60.4631C93.8384 60.158 94.2547 59.9868 94.6886 59.9868C95.1224 59.9868 95.5388 60.158 95.8472 60.4631Z" fill="white"/>
<path d="M102.415 53.8957C102.647 54.1254 102.805 54.4189 102.87 54.7389C102.935 55.059 102.904 55.3911 102.78 55.6931C102.655 55.9952 102.444 56.2535 102.173 56.4353C101.902 56.6171 101.583 56.7141 101.256 56.7141C100.929 56.7141 100.61 56.6171 100.339 56.4353C100.068 56.2535 99.8565 55.9952 99.7324 55.6931C99.6082 55.3911 99.5766 55.059 99.6416 54.7389C99.7066 54.4189 99.8652 54.1254 100.097 53.8957C100.406 53.5906 100.822 53.4194 101.256 53.4194C101.69 53.4194 102.106 53.5906 102.415 53.8957Z" fill="white"/>
<path d="M100.981 64.0212C101.214 64.2509 101.372 64.5444 101.437 64.8644C101.502 65.1845 101.471 65.5166 101.346 65.8186C101.222 66.1207 101.011 66.379 100.74 66.5608C100.469 66.7426 100.149 66.8396 99.8228 66.8396C99.4962 66.8396 99.177 66.7426 98.9058 66.5608C98.6345 66.379 98.4234 66.1207 98.2992 65.8186C98.175 65.5166 98.1434 65.1845 98.2084 64.8644C98.2734 64.5444 98.432 64.2509 98.6642 64.0212C98.9726 63.7161 99.3889 63.5449 99.8228 63.5449C100.257 63.5449 100.673 63.7161 100.981 64.0212Z" fill="white"/>
<path d="M105.973 59.03C106.205 59.2597 106.364 59.5532 106.429 59.8732C106.494 60.1933 106.462 60.5254 106.338 60.8274C106.214 61.1294 106.003 61.3878 105.731 61.5696C105.46 61.7513 105.141 61.8484 104.814 61.8484C104.488 61.8484 104.169 61.7513 103.897 61.5696C103.626 61.3878 103.415 61.1294 103.291 60.8274C103.166 60.5254 103.135 60.1933 103.2 59.8732C103.265 59.5532 103.423 59.2597 103.656 59.03C103.964 58.7249 104.38 58.5537 104.814 58.5537C105.248 58.5537 105.664 58.7249 105.973 59.03Z" fill="white"/>
<path d="M23.6825 73.4771C23.4118 73.476 23.147 73.5553 22.9214 73.7048C22.6958 73.8544 22.5197 74.0676 22.4154 74.3173C22.311 74.5671 22.2832 74.8421 22.3353 75.1077C22.3874 75.3733 22.5172 75.6175 22.7082 75.8092C22.8992 76.001 23.1429 76.1318 23.4082 76.185C23.6736 76.2382 23.9488 76.2114 24.199 76.1081C24.4491 76.0048 24.663 75.8295 24.8135 75.6046C24.964 75.3796 25.0443 75.115 25.0443 74.8444H23.6825V73.4771Z" fill="#7237EC"/>
<path opacity="0.2" d="M23.6825 73.4771C23.4118 73.476 23.147 73.5553 22.9214 73.7048C22.6958 73.8544 22.5197 74.0676 22.4154 74.3173C22.311 74.5671 22.2832 74.8421 22.3353 75.1077C22.3874 75.3733 22.5172 75.6175 22.7082 75.8092C22.8992 76.001 23.1429 76.1318 23.4082 76.185C23.6736 76.2382 23.9488 76.2114 24.199 76.1081C24.4491 76.0048 24.663 75.8295 24.8135 75.6046C24.964 75.3796 25.0443 75.115 25.0443 74.8444H23.6825V73.4771Z" fill="black"/>
<path d="M19.037 73.8779C17.0217 71.967 14.4848 68.3483 16.8405 65.8114C17.2578 65.3667 16.5879 64.7132 16.1651 65.1415C13.3921 68.1177 15.9235 72.2361 18.3616 74.5479C18.8009 74.9707 19.4598 74.3008 19.0315 73.8779H19.037Z" fill="#7237EC"/>
<g opacity="0.6">
<path d="M19.037 73.8779C17.0217 71.967 14.4848 68.3483 16.8405 65.8114C17.2578 65.3667 16.5879 64.7132 16.1651 65.1415C13.3921 68.1177 15.9235 72.2361 18.3616 74.5479C18.8009 74.9707 19.4598 74.3008 19.0315 73.8779H19.037Z" fill="black"/>
</g>
<path d="M23.979 80.1595C26.2853 82.5976 30.4091 85.1015 33.3854 82.356C33.8356 81.9386 33.1602 81.2577 32.7154 81.686C30.1785 84.0472 26.5598 81.5103 24.6489 79.4896C24.2261 79.0448 23.5507 79.7147 23.979 80.1595Z" fill="#7237EC"/>
<g opacity="0.6">
<path d="M23.979 80.1595C26.2853 82.5976 30.4091 85.1015 33.3854 82.356C33.8356 81.9386 33.1602 81.2577 32.7154 81.686C30.1785 84.0472 26.5598 81.5103 24.6489 79.4896C24.2261 79.0448 23.5507 79.7147 23.979 80.1595Z" fill="black"/>
</g>
<path d="M15.7148 74.29C12.4531 73.4553 7.63731 73.4883 6.56654 77.4144C6.55067 77.4747 6.54682 77.5374 6.55521 77.5991C6.56359 77.6608 6.58405 77.7203 6.61541 77.7741C6.64677 77.8278 6.68842 77.8749 6.73797 77.9126C6.78753 77.9503 6.84403 77.9779 6.90424 77.9938C6.96446 78.0096 7.02721 78.0135 7.08891 78.0051C7.15061 77.9967 7.21005 77.9763 7.26385 77.9449C7.31764 77.9135 7.36473 77.8719 7.40242 77.8223C7.44012 77.7728 7.46769 77.7163 7.48356 77.6561C8.40058 74.3065 12.7551 74.5151 15.4732 75.207C15.5334 75.2229 15.5961 75.2267 15.6578 75.2183C15.7195 75.21 15.779 75.1895 15.8328 75.1581C15.8866 75.1268 15.9337 75.0851 15.9714 75.0356C16.0091 74.986 16.0366 74.9295 16.0525 74.8693C16.0684 74.8091 16.0722 74.7463 16.0638 74.6846C16.0555 74.6229 16.035 74.5635 16.0036 74.5097C15.9723 74.4559 15.9306 74.4088 15.8811 74.3711C15.8315 74.3334 15.775 74.3058 15.7148 74.29Z" fill="#7237EC"/>
<g opacity="0.6">
<path d="M15.7148 74.29C12.4531 73.4553 7.63731 73.4883 6.56654 77.4144C6.55067 77.4747 6.54682 77.5374 6.55521 77.5991C6.56359 77.6608 6.58405 77.7203 6.61541 77.7741C6.64677 77.8278 6.68842 77.8749 6.73797 77.9126C6.78753 77.9503 6.84403 77.9779 6.90424 77.9938C6.96446 78.0096 7.02721 78.0135 7.08891 78.0051C7.15061 77.9967 7.21005 77.9763 7.26385 77.9449C7.31764 77.9135 7.36473 77.8719 7.40242 77.8223C7.44012 77.7728 7.46769 77.7163 7.48356 77.6561C8.40058 74.3065 12.7551 74.5151 15.4732 75.207C15.5334 75.2229 15.5961 75.2267 15.6578 75.2183C15.7195 75.21 15.779 75.1895 15.8328 75.1581C15.8866 75.1268 15.9337 75.0851 15.9714 75.0356C16.0091 74.986 16.0366 74.9295 16.0525 74.8693C16.0684 74.8091 16.0722 74.7463 16.0638 74.6846C16.0555 74.6229 16.035 74.5635 16.0036 74.5097C15.9723 74.4559 15.9306 74.4088 15.8811 74.3711C15.8315 74.3334 15.775 74.3058 15.7148 74.29Z" fill="black"/>
</g>
<path d="M23.4574 83.1964C24.1547 85.909 24.3634 90.2635 21.0138 91.186C20.8922 91.2181 20.7883 91.2971 20.725 91.4057C20.6616 91.5144 20.6441 91.6437 20.6761 91.7653C20.7081 91.887 20.7872 91.9908 20.8958 92.0542C21.0045 92.1175 21.1338 92.1351 21.2554 92.103C25.1761 91.0048 25.2145 86.2165 24.3799 82.9548C24.3418 82.8393 24.2612 82.7427 24.1544 82.6846C24.0476 82.6264 23.9227 82.6112 23.8051 82.6421C23.6875 82.6729 23.586 82.7474 23.5214 82.8504C23.4568 82.9533 23.4339 83.0771 23.4574 83.1964Z" fill="#7237EC"/>
<g opacity="0.6">
<path d="M23.4574 83.1964C24.1547 85.909 24.3634 90.2635 21.0138 91.186C20.8922 91.2181 20.7883 91.2971 20.725 91.4057C20.6616 91.5144 20.6441 91.6437 20.6761 91.7653C20.7081 91.887 20.7872 91.9908 20.8958 92.0542C21.0045 92.1175 21.1338 92.1351 21.2554 92.103C25.1761 91.0048 25.2145 86.2165 24.3799 82.9548C24.3418 82.8393 24.2612 82.7427 24.1544 82.6846C24.0476 82.6264 23.9227 82.6112 23.8051 82.6421C23.6875 82.6729 23.586 82.7474 23.5214 82.8504C23.4568 82.9533 23.4339 83.0771 23.4574 83.1964Z" fill="black"/>
</g>
<path d="M15.5226 73.2412C14.5064 73.7447 13.579 74.4106 12.7771 75.2125C9.31763 78.672 8.86187 83.8391 11.7722 86.744C14.6825 89.6488 19.8387 89.1985 23.3036 85.7391C24.1065 84.9392 24.7709 84.0113 25.2694 82.9935L15.5226 73.2412Z" fill="#7237EC"/>
<path opacity="0.3" d="M15.5226 73.2412C14.5064 73.7447 13.579 74.4106 12.7771 75.2125C9.31763 78.672 8.86187 83.8391 11.7722 86.744C14.6825 89.6488 19.8387 89.1985 23.3036 85.7391C24.1065 84.9392 24.7709 84.0113 25.2694 82.9935L15.5226 73.2412Z" fill="black"/>
<path d="M16.5 74.2181L24.3085 82.0266C25.522 79.561 25.3079 76.7551 23.5397 74.9869C21.7715 73.2187 18.9656 73.0211 16.5 74.2181Z" fill="#7237EC"/>
<path opacity="0.5" d="M16.5 74.2181L24.3085 82.0266C25.522 79.561 25.3079 76.7551 23.5397 74.9869C21.7715 73.2187 18.9656 73.0211 16.5 74.2181Z" fill="black"/>
<path opacity="0.2" d="M15.5226 73.2412C14.5064 73.7447 13.579 74.4106 12.7771 75.2125C9.31763 78.672 8.86187 83.8391 11.7722 86.744L20.3933 78.1229L15.5226 73.2412Z" fill="black"/>
<path d="M19.8991 66.9319C20.7453 67.2788 21.5143 67.7902 22.1614 68.4364C23.8088 70.1222 23.4958 72.1649 22.123 73.9276C22.0297 74.0429 22.1999 74.2131 22.2932 74.0923C23.5452 72.4725 24.1273 70.5286 22.7929 68.7714C22.0435 67.8426 21.0678 67.1221 19.9595 66.6793C19.8167 66.6244 19.7563 66.855 19.8991 66.9099V66.9319Z" fill="#263238"/>
<path d="M31.8259 78.5677C31.3844 77.4587 30.6637 76.4826 29.7337 75.7343C27.9766 74.3999 26.0327 74.982 24.4128 76.234C24.292 76.3273 24.4567 76.4975 24.5775 76.4042C26.3567 75.0314 28.4213 74.6909 30.0687 76.3657C30.7119 77.0154 31.2229 77.7837 31.5733 78.6281C31.6282 78.7709 31.8588 78.7105 31.8039 78.5677H31.8259Z" fill="#263238"/>
<path d="M16.6593 78.2269C16.4633 78.4224 16.2138 78.5555 15.9423 78.6092C15.6708 78.663 15.3894 78.6351 15.1337 78.5291C14.878 78.423 14.6595 78.2435 14.5057 78.0133C14.352 77.7831 14.2699 77.5125 14.2699 77.2357C14.2699 76.9589 14.352 76.6883 14.5057 76.4581C14.6595 76.2279 14.878 76.0484 15.1337 75.9423C15.3894 75.8362 15.6708 75.8084 15.9423 75.8621C16.2138 75.9159 16.4633 76.049 16.6593 76.2445C16.9198 76.5086 17.0659 76.8647 17.0659 77.2357C17.0659 77.6067 16.9198 77.9628 16.6593 78.2269Z" fill="white"/>
<path d="M22.2768 83.8387C22.0808 84.0342 21.8313 84.1673 21.5598 84.2211C21.2882 84.2749 21.0069 84.247 20.7512 84.1409C20.4955 84.0348 20.2769 83.8553 20.1232 83.6251C19.9695 83.3949 19.8874 83.1243 19.8874 82.8475C19.8874 82.5707 19.9695 82.3001 20.1232 82.0699C20.2769 81.8397 20.4955 81.6602 20.7512 81.5541C21.0069 81.4481 21.2882 81.4202 21.5598 81.474C21.8313 81.5278 22.0808 81.6608 22.2768 81.8564C22.4071 81.9864 22.5105 82.1409 22.5811 82.311C22.6516 82.4811 22.6879 82.6634 22.6879 82.8475C22.6879 83.0316 22.6516 83.214 22.5811 83.384C22.5105 83.5541 22.4071 83.7086 22.2768 83.8387Z" fill="white"/>
<path d="M13.6282 82.6089C13.4326 82.8052 13.1831 82.939 12.9113 82.9935C12.6396 83.0479 12.3578 83.0204 12.1016 82.9146C11.8455 82.8087 11.6265 82.6293 11.4724 82.3989C11.3184 82.1685 11.2361 81.8976 11.2361 81.6205C11.2361 81.3433 11.3184 81.0724 11.4724 80.842C11.6265 80.6116 11.8455 80.4322 12.1016 80.3263C12.3578 80.2205 12.6396 80.1931 12.9113 80.2475C13.1831 80.3019 13.4326 80.4357 13.6282 80.632C13.8897 80.8945 14.0366 81.2499 14.0366 81.6205C14.0366 81.991 13.8897 82.3464 13.6282 82.6089Z" fill="white"/>
<path d="M17.8948 86.8811C17.6989 87.0767 17.4494 87.2097 17.1778 87.2635C16.9063 87.3173 16.6249 87.2894 16.3692 87.1834C16.1135 87.0773 15.895 86.8978 15.7413 86.6676C15.5875 86.4374 15.5055 86.1668 15.5055 85.89C15.5055 85.6132 15.5875 85.3426 15.7413 85.1124C15.895 84.8822 16.1135 84.7027 16.3692 84.5966C16.6249 84.4905 16.9063 84.4626 17.1778 84.5164C17.4494 84.5702 17.6989 84.7033 17.8948 84.8988C18.1554 85.1629 18.3015 85.519 18.3015 85.89C18.3015 86.261 18.1554 86.617 17.8948 86.8811Z" fill="white"/>
<path d="M41.6825 16.556C41.506 16.4476 41.3014 16.3939 41.0945 16.4016C40.8875 16.4093 40.6875 16.4781 40.5196 16.5994C40.3517 16.7206 40.2235 16.8888 40.151 17.0828C40.0786 17.2768 40.0652 17.4879 40.1125 17.6895C40.1599 17.8911 40.2658 18.0741 40.4171 18.2156C40.5683 18.3571 40.758 18.4506 40.9623 18.4844C41.1666 18.5182 41.3764 18.4908 41.5651 18.4056C41.7538 18.3204 41.9131 18.1812 42.0229 18.0056L41.1333 17.4565L41.6825 16.556Z" fill="#7237EC"/>
<path opacity="0.2" d="M41.6825 16.556C41.506 16.4476 41.3014 16.3939 41.0945 16.4016C40.8875 16.4093 40.6875 16.4781 40.5196 16.5994C40.3517 16.7206 40.2235 16.8888 40.151 17.0828C40.0786 17.2768 40.0652 17.4879 40.1125 17.6895C40.1599 17.8911 40.2658 18.0741 40.4171 18.2156C40.5683 18.3571 40.758 18.4506 40.9623 18.4844C41.1666 18.5182 41.3764 18.4908 41.5651 18.4056C41.7538 18.3204 41.9131 18.1812 42.0229 18.0056L41.1333 17.4565L41.6825 16.556Z" fill="black"/>
<path d="M38.4866 14.9416C37.9375 12.8769 37.7453 9.47789 40.3152 8.77502C40.7655 8.64872 40.6007 7.94036 40.145 8.06117C37.1303 8.89033 37.1138 12.6078 37.7728 15.1063C37.8936 15.5621 38.6074 15.3973 38.4866 14.9416Z" fill="#7237EC"/>
<g opacity="0.6">
<path d="M38.4866 14.9416C37.9375 12.8769 37.7453 9.47789 40.3152 8.77502C40.7655 8.64872 40.6007 7.94036 40.145 8.06117C37.1303 8.89033 37.1138 12.6078 37.7728 15.1063C37.8936 15.5621 38.6074 15.3973 38.4866 14.9416Z" fill="black"/>
</g>
<path d="M39.173 21.0476C39.7221 23.579 41.3695 26.9011 44.4445 26.2916C44.9058 26.1983 44.7355 25.4844 44.2798 25.5778C41.6605 26.1269 40.3207 22.9695 39.8869 20.8773C39.7935 20.4161 39.0797 20.5863 39.173 21.0476Z" fill="#7237EC"/>
<g opacity="0.6">
<path d="M39.173 21.0476C39.7221 23.579 41.3695 26.9011 44.4445 26.2916C44.9058 26.1983 44.7355 25.4844 44.2798 25.5778C41.6605 26.1269 40.3207 22.9695 39.8869 20.8773C39.7935 20.4161 39.0797 20.5863 39.173 21.0476Z" fill="black"/>
</g>
<path d="M36.1419 13.8652C34.3463 11.9982 31.1999 10.0763 28.8936 12.2178C28.5531 12.5363 29.0528 13.069 29.3988 12.7669C31.3536 10.9494 34.1212 12.8438 35.6148 14.4143C35.9387 14.7492 36.4714 14.2496 36.1639 13.9091L36.1419 13.8652Z" fill="#7237EC"/>
<g opacity="0.6">
<path d="M36.1419 13.8652C34.3463 11.9982 31.1999 10.0763 28.8936 12.2178C28.5531 12.5363 29.0528 13.069 29.3988 12.7669C31.3536 10.9494 34.1212 12.8438 35.6148 14.4143C35.9387 14.7492 36.4714 14.2496 36.1639 13.9091L36.1419 13.8652Z" fill="black"/>
</g>
<path d="M37.608 22.8212C36.9656 24.8803 35.3402 27.8126 32.7758 27.0603C32.6834 27.0319 32.5834 27.0414 32.4979 27.0867C32.4124 27.1321 32.3485 27.2095 32.3201 27.3019C32.2917 27.3944 32.3012 27.4944 32.3465 27.5799C32.3918 27.6653 32.4692 27.7293 32.5617 27.7577C35.5653 28.6418 37.5367 25.5118 38.3054 23.0353C38.3195 22.9895 38.3244 22.9414 38.3199 22.8937C38.3153 22.846 38.3015 22.7997 38.279 22.7574C38.2566 22.7151 38.226 22.6776 38.1891 22.6471C38.1522 22.6166 38.1096 22.5936 38.0638 22.5795C37.9713 22.5512 37.8714 22.5606 37.7859 22.606C37.7004 22.6513 37.6364 22.7287 37.608 22.8212Z" fill="#7237EC"/>
<g opacity="0.6">
<path d="M37.608 22.8216C36.9656 24.8808 35.3402 27.8131 32.7758 27.0608C32.6833 27.0324 32.5834 27.0419 32.4979 27.0872C32.4124 27.1325 32.3485 27.21 32.3201 27.3024C32.2917 27.3949 32.3012 27.4949 32.3465 27.5803C32.3918 27.6658 32.4692 27.7298 32.5617 27.7582C35.5653 28.6423 37.5366 25.5123 38.3054 23.0358C38.3195 22.99 38.3244 22.9419 38.3198 22.8942C38.3153 22.8465 38.3014 22.8002 38.279 22.7579C38.2566 22.7156 38.226 22.6781 38.1891 22.6476C38.1522 22.617 38.1096 22.5941 38.0638 22.58C37.9713 22.5516 37.8714 22.5611 37.7859 22.6064C37.7004 22.6518 37.6364 22.7292 37.608 22.8216Z" fill="black"/>
</g>
<path d="M36.4275 13.1021C35.5612 13.0218 34.6877 13.083 33.8411 13.2833C30.173 14.1454 27.8009 17.3412 28.5147 20.4218C29.2286 23.5023 32.8033 25.2924 36.4714 24.4303C37.3176 24.2297 38.126 23.8941 38.8655 23.4364L36.4275 13.1021Z" fill="#7237EC"/>
<path opacity="0.3" d="M36.4275 13.1021C35.5612 13.0218 34.6877 13.083 33.8411 13.2833C30.173 14.1454 27.8009 17.3412 28.5147 20.4218C29.2286 23.5023 32.8033 25.2924 36.4714 24.4303C37.3176 24.2297 38.126 23.8941 38.8655 23.4364L36.4275 13.1021Z" fill="black"/>
<path d="M36.6855 14.1343L38.6239 22.404C40.414 21.3057 41.4134 19.3564 40.9686 17.4619C40.5238 15.5675 38.7886 14.3374 36.6855 14.1343Z" fill="#7237EC"/>
<path opacity="0.5" d="M36.6855 14.1343L38.6239 22.404C40.414 21.3057 41.4134 19.3564 40.9686 17.4619C40.5238 15.5675 38.7886 14.3374 36.6855 14.1343Z" fill="black"/>
<path opacity="0.2" d="M36.4275 13.1021C35.5612 13.0218 34.6877 13.083 33.8411 13.2833C30.173 14.1454 27.8009 17.3412 28.5147 20.4218L37.6465 18.2692L36.4275 13.1021Z" fill="black"/>
<path d="M41.8582 10.7409C42.2715 11.3105 42.5682 11.9562 42.7313 12.6408C43.1431 14.4254 42.0943 15.6225 40.4744 16.232C40.3701 16.2759 40.4085 16.4517 40.5184 16.4132C41.9955 15.8641 43.1651 14.8208 43.0004 13.1185C42.8878 12.2067 42.5395 11.3399 41.99 10.6036C41.9241 10.5102 41.7923 10.6365 41.8582 10.7299V10.7409Z" fill="#263238"/>
<path d="M44.9552 23.1781C45.115 22.2751 45.0374 21.346 44.7301 20.482C44.1261 18.895 42.616 18.4942 41.0455 18.6534C40.9302 18.6534 40.9741 18.8456 41.0895 18.8346C42.8082 18.6534 44.2853 19.2575 44.7081 21.0311C44.8691 21.717 44.8933 22.4279 44.7795 23.1232C44.7795 23.2385 44.9333 23.288 44.9552 23.1727V23.1781Z" fill="#263238"/>
<path d="M35.1755 16.8249C34.9633 16.8791 34.7398 16.8686 34.5337 16.7949C34.3275 16.7211 34.1481 16.5874 34.0185 16.4109C33.8889 16.2344 33.815 16.0232 33.8063 15.8044C33.7977 15.5856 33.8546 15.3693 33.9698 15.183C34.0849 14.9968 34.2532 14.8493 34.4528 14.7594C34.6525 14.6695 34.8744 14.6414 35.0902 14.6786C35.306 14.7157 35.5057 14.8166 35.6638 14.9681C35.8218 15.1197 35.931 15.315 35.9772 15.529C36.0372 15.8068 35.9872 16.097 35.8377 16.3386C35.6882 16.5803 35.4508 16.7546 35.1755 16.8249Z" fill="white"/>
<path d="M36.5757 22.7663C36.3636 22.8205 36.1401 22.81 35.9339 22.7362C35.7278 22.6625 35.5484 22.5288 35.4188 22.3523C35.2892 22.1758 35.2153 21.9646 35.2066 21.7458C35.1979 21.527 35.2548 21.3107 35.37 21.1244C35.4852 20.9382 35.6534 20.7907 35.8531 20.7008C36.0527 20.6109 36.2747 20.5828 36.4905 20.62C36.7062 20.6571 36.906 20.758 37.064 20.9095C37.2221 21.0611 37.3312 21.2564 37.3774 21.4704C37.4374 21.7482 37.3874 22.0384 37.2379 22.28C37.0884 22.5217 36.8511 22.696 36.5757 22.7663Z" fill="white"/>
<path d="M31.414 18.4614C31.2018 18.517 30.9777 18.5077 30.7708 18.4348C30.5639 18.3618 30.3836 18.2286 30.2531 18.0522C30.1226 17.8758 30.0479 17.6644 30.0387 17.4452C30.0294 17.226 30.0861 17.009 30.2013 16.8223C30.3165 16.6356 30.485 16.4877 30.6851 16.3976C30.8851 16.3075 31.1076 16.2794 31.3238 16.317C31.5399 16.3545 31.7399 16.4559 31.8979 16.6081C32.0559 16.7603 32.1647 16.9564 32.2102 17.171C32.2689 17.4472 32.2188 17.7354 32.0706 17.9757C31.9223 18.216 31.6872 18.39 31.414 18.4614Z" fill="white"/>
<path d="M32.4793 22.9808C32.2673 23.0361 32.0436 23.0266 31.8369 22.9537C31.6303 22.8808 31.4502 22.7477 31.3198 22.5716C31.1894 22.3955 31.1146 22.1844 31.1052 21.9655C31.0957 21.7466 31.1519 21.5298 31.2666 21.3431C31.3813 21.1564 31.5493 21.0083 31.7489 20.9178C31.9484 20.8273 32.1705 20.7986 32.3865 20.8354C32.6026 20.8721 32.8027 20.9727 32.9611 21.124C33.1195 21.2754 33.229 21.4707 33.2755 21.6849C33.3357 21.9619 33.2865 22.2514 33.1381 22.493C32.9897 22.7345 32.7536 22.9093 32.4793 22.9808Z" fill="white"/>
</svg>
