<svg width="56" height="55" viewBox="0 0 56 55" fill="none" xmlns="http://www.w3.org/2000/svg">
<path d="M40.2901 25.5709C43.5076 22.4105 48.7235 22.4105 51.941 25.5709C55.1585 28.7335 55.1585 33.8609 51.941 37.0213L39.4583 49.2907L26.9755 37.0213C23.758 33.8609 23.758 28.7335 26.9755 25.5709C30.1931 22.4105 35.4089 22.4105 38.6264 25.5709L39.4583 26.3876L40.2901 25.5709ZM44.5985 11.305C46.7526 13.4444 48.0428 16.1102 48.4691 18.8781C45.4143 18.3154 42.1922 18.8554 39.4583 20.4957C34.5312 17.5395 28.0137 18.1589 23.7466 22.3515C18.863 27.1499 18.7278 34.8637 23.3387 39.8232L23.7466 40.2429L29.2947 45.697L25.7083 49.2566L6.27493 29.9904C1.45555 24.6452 1.63659 16.4369 6.81805 11.305C12.0087 6.16855 20.3114 5.99612 25.7106 10.7877C31.0937 6.00293 39.4124 6.16174 44.5985 11.305Z" fill="#7237EC"/>
</svg>
