<svg width="33" height="32" viewBox="0 0 33 32" fill="none" xmlns="http://www.w3.org/2000/svg">
<g clip-path="url(#clip0_1_4215)">
<path d="M16.5003 17.3332C18.7097 17.3332 20.5003 19.1238 20.5003 21.3332C20.5003 22.4665 20.0297 23.4878 19.2737 24.2158L16.727 26.6665H19.167C19.9034 26.6665 20.5003 27.2635 20.5003 27.9998V27.9998C20.5003 28.7362 19.9034 29.3332 19.167 29.3332H14.113C13.2223 29.3332 12.5003 28.6112 12.5003 27.7205V27.7205C12.5003 27.2822 12.6788 26.8627 12.9946 26.5587L17.4243 22.2945C17.6777 22.0505 17.8337 21.7105 17.8337 21.3332C17.8337 20.5972 17.2363 19.9998 16.5003 19.9998C16.1393 19.9998 15.8117 20.1435 15.5716 20.3768C15.149 20.7873 14.6894 21.3332 14.1003 21.3332V21.3332C13.2167 21.3332 12.4706 20.5889 12.815 19.7752C13.4224 18.34 14.8437 17.3332 16.5003 17.3332ZM23.167 17.3332C23.9034 17.3332 24.5003 17.9301 24.5003 18.6665V22.6665H27.167V18.6665C27.167 17.9301 27.7639 17.3332 28.5003 17.3332V17.3332C29.2367 17.3332 29.8337 17.9301 29.8337 18.6665V28.7877C29.8337 29.089 29.5894 29.3332 29.2882 29.3332H27.7003C27.4058 29.3332 27.167 29.0944 27.167 28.7998V25.3332H22.5145C22.1385 25.3332 21.8337 25.0283 21.8337 24.6523V18.6665C21.8337 17.9301 22.4306 17.3332 23.167 17.3332V17.3332ZM4.50033 15.9998C5.2367 15.9998 5.82489 16.5992 5.91575 17.33C6.23661 19.9107 7.47893 22.205 9.30319 23.8735C9.62903 24.1715 9.83366 24.5848 9.83366 25.0264V25.0264C9.83366 26.1471 8.62933 26.8209 7.7817 26.0878C5.27035 23.9156 3.57857 20.8217 3.23261 17.3312C3.15998 16.5984 3.76395 15.9998 4.50033 15.9998V15.9998ZM16.5003 2.6665C22.9011 2.6665 28.2493 7.17781 29.5372 13.194C29.7044 13.9745 29.0747 14.6665 28.2765 14.6665V14.6665C27.5955 14.6665 27.0302 14.1559 26.8708 13.4938C25.7436 8.81221 21.5287 5.33317 16.5003 5.33317C12.8337 5.33317 9.59899 7.1825 7.68033 9.99984H9.83366C10.57 9.99984 11.167 10.5968 11.167 11.3332V11.3332C11.167 12.0695 10.57 12.6665 9.83366 12.6665H4.16699C3.61471 12.6665 3.16699 12.2188 3.16699 11.6665V5.99984C3.16699 5.26346 3.76395 4.6665 4.50033 4.6665V4.6665C5.2367 4.6665 5.83366 5.26346 5.83366 5.99984V7.99984C8.26566 4.75984 12.139 2.6665 16.5003 2.6665Z" fill="#7237EC"/>
</g>
<defs>
<clipPath id="clip0_1_4215">
<rect width="32" height="32" fill="white" transform="translate(0.5)"/>
</clipPath>
</defs>
</svg>
