<svg width="33" height="32" viewBox="0 0 33 32" fill="none" xmlns="http://www.w3.org/2000/svg">
<g clip-path="url(#clip0_1_1304)">
<path d="M2.91962 25.248C2.91962 25.2529 2.91962 25.2619 2.91406 25.2744C2.91615 25.2661 2.91753 25.2571 2.91962 25.248Z" fill="#7237EC"/>
<path d="M29.2709 26.3888C29.0422 26.3839 28.8165 26.3368 28.6049 26.2499L24.6618 24.852L24.6327 24.8402C24.5467 24.8043 24.4543 24.7864 24.3611 24.7874C24.2753 24.7875 24.1901 24.803 24.1098 24.8332C24.0139 24.8693 23.1507 25.1936 22.2452 25.4423C21.7542 25.577 20.0452 26.0166 18.6736 26.0166C15.1681 26.0166 11.8903 24.6693 9.44518 22.2228C8.25067 21.0356 7.3035 19.6233 6.6585 18.0676C6.0135 16.5119 5.68348 14.8437 5.68754 13.1596C5.68751 12.2821 5.78204 11.4072 5.96948 10.5499C6.5799 7.72907 8.19656 5.16309 10.5216 3.32768C12.9065 1.45687 15.8508 0.441446 18.882 0.444342C22.5077 0.444342 25.8861 1.83323 28.3959 4.34573C30.7681 6.72559 32.0681 9.85476 32.0577 13.1561C32.0556 15.6093 31.3231 18.0063 29.9535 20.0416L29.9403 20.061L29.8889 20.1305C29.8771 20.1464 29.8653 20.1617 29.8542 20.1777L29.8438 20.1964C29.8162 20.2434 29.7911 20.2919 29.7688 20.3416L30.8618 24.2263C30.9102 24.3866 30.9363 24.5527 30.9396 24.72C30.9399 24.9393 30.8969 25.1564 30.8132 25.359C30.7294 25.5616 30.6065 25.7456 30.4515 25.9006C30.2965 26.0556 30.1124 26.1786 29.9098 26.2623C29.7072 26.3461 29.4901 26.3891 29.2709 26.3888Z" fill="#7237EC"/>
<path d="M19.5464 27.7634C19.4747 27.6239 19.3737 27.5014 19.2504 27.4043C19.1271 27.3073 18.9844 27.2379 18.8319 27.2009C18.4305 27.0947 17.9624 27.1127 17.6048 27.0863C14.2279 26.8515 11.0502 25.4023 8.65895 23.0065C6.53308 20.8925 5.15148 18.1451 4.72215 15.178C4.62493 14.5016 4.62493 14.3336 4.62493 14.3336C4.62488 14.1079 4.55612 13.8876 4.4278 13.7019C4.29947 13.5163 4.11766 13.3741 3.90655 13.2944C3.69545 13.2146 3.46506 13.201 3.24604 13.2554C3.02702 13.3098 2.82975 13.4296 2.68048 13.5988C2.68048 13.5988 2.13326 14.1947 1.87493 14.7926C1.1504 16.4619 0.841417 18.2821 0.974459 20.097C1.1075 21.9119 1.6786 23.6676 2.63881 25.2134C2.81937 25.5141 2.81937 25.653 2.77909 25.9655C2.58951 26.9454 2.25756 28.6738 2.08465 29.5704C2.0274 29.8611 2.04869 30.1618 2.14634 30.4416C2.24399 30.7214 2.41447 30.9701 2.6402 31.162L2.67215 31.1891C2.97077 31.4263 3.34081 31.5555 3.72215 31.5558C3.93664 31.556 4.14905 31.5137 4.34715 31.4315L8.06312 29.9974C8.19106 29.9488 8.3324 29.9488 8.46034 29.9974C9.92354 30.5419 11.4465 30.8308 12.8895 30.8308C14.6875 30.8325 16.4638 30.4374 18.0916 29.6738C18.4708 29.4961 19.0638 29.303 19.411 28.9016C19.5424 28.7459 19.6253 28.5551 19.6494 28.3528C19.6734 28.1505 19.6377 27.9456 19.5464 27.7634Z" fill="#7237EC"/>
</g>
<defs>
<clipPath id="clip0_1_1304">
<rect width="32" height="32" fill="white" transform="translate(0.5)"/>
</clipPath>
</defs>
</svg>
