<svg width="32" height="32" viewBox="0 0 32 32" fill="none" xmlns="http://www.w3.org/2000/svg">
<g clip-path="url(#clip0_1_4222)">
<path d="M23.1505 14.7266C25.0225 12.8693 28.0572 12.8693 29.9292 14.7266C31.8012 16.5853 31.8012 19.5986 29.9292 21.456L22.6665 28.6666L15.4039 21.456C13.5319 19.5986 13.5319 16.5853 15.4039 14.7266C17.2759 12.8693 20.3105 12.8693 22.1825 14.7266L22.6665 15.2066L23.1505 14.7266ZM25.6572 6.34264C26.9105 7.59997 27.6612 9.16664 27.9092 10.7933C26.1319 10.4626 24.2572 10.78 22.6665 11.744C19.7999 10.0066 16.0079 10.3706 13.5252 12.8346C10.6839 15.6546 10.6052 20.188 13.2879 23.1026L13.5252 23.3493L16.7532 26.5546L14.6665 28.6466L3.35987 17.324C0.555868 14.1826 0.661201 9.35864 3.67587 6.34264C6.69587 3.32397 11.5265 3.22264 14.6679 6.03864C17.7999 3.22664 22.6399 3.31997 25.6572 6.34264Z" fill="#7237EC"/>
</g>
<defs>
<clipPath id="clip0_1_4222">
<rect width="32" height="32" fill="white"/>
</clipPath>
</defs>
</svg>
