<svg width="115" height="105" viewBox="0 0 115 105" fill="none" xmlns="http://www.w3.org/2000/svg">
<path d="M83.3143 30.5382L86.055 32.9078L70.2281 51.2134L67.1421 48.5111L83.3143 30.5382Z" fill="#A981FA"/>
<path d="M91.4829 51.9816L87.9272 32.9759L86.5782 32.2402L70.1475 51.2459L75.2975 63.8755L91.4829 51.9816Z" fill="#B591FF"/>
<rect x="27.5156" y="31.1982" width="3.62309" height="22.4472" transform="rotate(10.878 27.5156 31.1982)" fill="#A981FA"/>
<path d="M10.1865 41.5635L39.7781 63.5356L30.9698 86.8617H20.1094L10.1865 41.5635Z" fill="#A780F8"/>
<rect x="6.63867" y="42.791" width="3.72227" height="45.6824" transform="rotate(-12.5435 6.63867 42.791)" fill="#976DEE"/>
<circle cx="6.11175" cy="39.0829" r="5.31585" fill="#B591FF"/>
<path fill-rule="evenodd" clip-rule="evenodd" d="M10.4596 42.142C9.78369 42.4534 9.03123 42.627 8.23822 42.627C5.30236 42.627 2.92237 40.247 2.92237 37.3112C2.92237 36.1723 3.28051 35.1171 3.89032 34.252C2.0638 35.0933 0.795898 36.94 0.795898 39.0828C0.795898 42.0187 3.17588 44.3987 6.11175 44.3987C7.90873 44.3987 9.49746 43.507 10.4596 42.142Z" fill="#976DEE"/>
<path d="M104.811 41.5635L75.219 63.5356L84.0272 86.8617H94.8876L104.811 41.5635Z" fill="#A780F8"/>
<rect width="3.72227" height="45.6824" transform="matrix(-0.976131 -0.217181 -0.217181 0.976131 108.358 42.792)" fill="#976DEE"/>
<circle cx="5.31585" cy="5.31585" r="5.31585" transform="matrix(-1 0 0 1 114.204 33.7666)" fill="#B591FF"/>
<path fill-rule="evenodd" clip-rule="evenodd" d="M104.54 42.1417C105.216 42.4526 105.968 42.6259 106.76 42.6259C109.696 42.6259 112.076 40.2459 112.076 37.3101C112.076 36.1712 111.718 35.1161 111.108 34.251C112.935 35.0919 114.204 36.9391 114.204 39.0826C114.204 42.0184 111.824 44.3984 108.888 44.3984C107.091 44.3984 105.502 43.5067 104.54 42.1417Z" fill="#976DEE"/>
<circle cx="28.7889" cy="27.8174" r="5.31585" transform="rotate(16.1384 28.7889 27.8174)" fill="#B591FF"/>
<path fill-rule="evenodd" clip-rule="evenodd" d="M32.1864 31.9091C31.9419 31.8742 31.697 31.8219 31.453 31.7513C28.6328 30.9352 27.0082 27.9875 27.8242 25.1673C28.1319 24.1042 28.7425 23.2109 29.535 22.5542C26.9541 22.1861 24.4298 23.7647 23.6844 26.3408C22.8683 29.161 24.493 32.1087 27.3132 32.9248C29.0702 33.4332 30.8767 32.9943 32.1864 31.9091Z" fill="#A981FA"/>
<circle cx="86.1984" cy="27.7785" r="5.31585" transform="rotate(46.2937 86.1984 27.7785)" fill="#B591FF"/>
<path fill-rule="evenodd" clip-rule="evenodd" d="M85.9361 33.0881C85.6577 32.892 85.3941 32.6662 85.1499 32.4107C83.1213 30.2884 83.1973 26.9234 85.3196 24.8948C86.4168 23.8461 87.8462 23.3598 89.2513 23.4281C87.2168 21.9954 84.3885 22.1514 82.5217 23.9358C80.3994 25.9643 80.3234 29.3293 82.352 31.4516C83.3318 32.4767 84.6234 33.0244 85.9361 33.0881Z" fill="#A981FA"/>
<path d="M30.9967 31.5986L26.6807 53.9819L39.7011 63.4911L46.4308 47.1791L32.6058 31.5986H30.9967Z" fill="#B591FF"/>
<rect x="54.3867" y="26.6426" width="5.08971" height="64.8411" transform="rotate(21.7154 54.3867 26.6426)" fill="#A981FA"/>
<path d="M59.4827 27.6631H60.7788L85.1208 86.6323H35.7383L59.4827 27.6631Z" fill="#B591FF"/>
<rect x="57.5059" y="11.9849" width="13.4298" height="13.4298" rx="3" transform="rotate(45 57.5059 11.9849)" fill="#B591FF"/>
<path fill-rule="evenodd" clip-rule="evenodd" d="M59.627 14.1067C58.4554 12.9351 56.5559 12.9351 55.3843 14.1067L50.1306 19.3604C48.9591 20.532 48.9591 22.4315 50.1306 23.603L55.3843 28.8567C56.5559 30.0283 58.4554 30.0283 59.627 28.8567L60.7763 27.7074L56.672 23.603C55.5004 22.4315 55.5004 20.532 56.672 19.3604L60.7763 15.2561L59.627 14.1067Z" fill="#A981FA"/>
<path d="M51.1347 63.2441L56.069 56.5965C56.8621 55.528 58.4579 55.5175 59.265 56.5754L64.3368 63.2234C64.8746 63.9284 64.884 64.9033 64.36 65.6186L59.2885 72.5403C58.483 73.6398 56.8378 73.6291 56.0467 72.5192L51.1121 65.597C50.6086 64.8908 50.6178 63.9405 51.1347 63.2441Z" fill="#8959EC"/>
<path fill-rule="evenodd" clip-rule="evenodd" d="M56.0715 56.5965L51.1372 63.2441C50.6203 63.9406 50.6111 64.8908 51.1146 65.5971L56.0492 72.5193C56.8403 73.6291 58.4855 73.6398 59.291 72.5404L60.4105 71.0126L56.55 65.5971C56.0465 64.8908 56.0557 63.9406 56.5726 63.2441L60.4105 58.0737L59.2675 56.5755C58.4604 55.5176 56.8645 55.5281 56.0715 56.5965Z" fill="#8152E2"/>
<rect x="27.3721" y="86.5718" width="71.2324" height="18.4283" fill="#8959EC"/>
<circle cx="32.1512" cy="95.7855" r="1.76157" fill="#B591FF"/>
<circle cx="44.3221" cy="95.7855" r="1.76157" fill="#B591FF"/>
<circle cx="56.4979" cy="95.7855" r="1.76157" fill="#B591FF"/>
<circle cx="68.6717" cy="95.7855" r="1.76157" fill="#B591FF"/>
<circle cx="80.8407" cy="95.7855" r="1.76157" fill="#B591FF"/>
<circle cx="93.0155" cy="95.7855" r="1.76157" fill="#B591FF"/>
<rect x="16.3867" y="86.5718" width="10.9861" height="18.4283" fill="#8152E2"/>
<path d="M37.8818 1.79847C38.2498 1.05929 39.3043 1.0593 39.6723 1.79848L39.9677 2.39203C40.9374 4.33998 42.5159 5.9185 44.4638 6.88813L45.0574 7.18358C45.7966 7.55152 45.7966 8.60609 45.0574 8.97403L44.4638 9.26949C42.5159 10.2391 40.9374 11.8176 39.9677 13.7656L39.6723 14.3591C39.3043 15.0983 38.2498 15.0983 37.8818 14.3591L37.5864 13.7656C36.6167 11.8176 35.0382 10.2391 33.0903 9.26949L32.4967 8.97403C31.7575 8.60609 31.7575 7.55152 32.4967 7.18358L33.0903 6.88813C35.0382 5.9185 36.6167 4.33998 37.5864 2.39203L37.8818 1.79847Z" fill="#8152E2"/>
<path d="M75.3379 8.43568C75.7058 7.6965 76.7604 7.6965 77.1283 8.43568L77.4238 9.02924C78.3934 10.9772 79.9719 12.5557 81.9199 13.5253L82.5134 13.8208C83.2526 14.1887 83.2526 15.2433 82.5134 15.6112L81.9199 15.9067C79.9719 16.8763 78.3934 18.4548 77.4238 20.4028L77.1283 20.9963C76.7604 21.7355 75.7058 21.7355 75.3379 20.9963L75.0424 20.4028C74.0728 18.4548 72.4943 16.8763 70.5463 15.9067L69.9528 15.6112C69.2136 15.2433 69.2136 14.1887 69.9528 13.8208L70.5463 13.5253C72.4943 12.5557 74.0728 10.9772 75.0424 9.02924L75.3379 8.43568Z" fill="#8152E2"/>
<path fill-rule="evenodd" clip-rule="evenodd" d="M39.67 1.79853C39.302 1.05935 38.2475 1.05934 37.8795 1.79852L37.5841 2.39208C37.2533 3.0566 36.8517 3.67812 36.3887 4.24715C39.5335 5.37298 41.5123 8.41684 41.3754 11.6557C42.2321 10.6716 43.2787 9.8583 44.4615 9.26954L45.0551 8.97408C45.7943 8.60614 45.7943 7.55158 45.0551 7.18364L44.4615 6.88818C42.5136 5.91856 40.9351 4.34003 39.9654 2.39208L39.67 1.79853Z" fill="#8959EC"/>
</svg>
