<svg width="16" height="16" viewBox="0 0 16 16" fill="none" xmlns="http://www.w3.org/2000/svg">
<path d="M5.64664 3.85366C5.60015 3.80722 5.56328 3.75207 5.53811 3.69138C5.51295 3.63068 5.5 3.56561 5.5 3.49991C5.5 3.4342 5.51295 3.36913 5.53811 3.30843C5.56328 3.24774 5.60015 3.19259 5.64664 3.14616L7.64664 1.14616C7.69308 1.09967 7.74822 1.06279 7.80892 1.03763C7.86962 1.01246 7.93469 0.999512 8.00039 0.999512C8.0661 0.999512 8.13116 1.01246 8.19186 1.03763C8.25256 1.06279 8.30771 1.09967 8.35414 1.14616L10.3541 3.14616C10.448 3.23998 10.5007 3.36722 10.5007 3.49991C10.5007 3.63259 10.448 3.75983 10.3541 3.85366C10.2603 3.94748 10.1331 4.00018 10.0004 4.00018C9.86771 4.00018 9.74046 3.94748 9.64664 3.85366L8.50039 2.70678V5.99991C8.50039 6.13251 8.44772 6.25969 8.35395 6.35346C8.26018 6.44723 8.133 6.49991 8.00039 6.49991C7.86779 6.49991 7.74061 6.44723 7.64684 6.35346C7.55307 6.25969 7.50039 6.13251 7.50039 5.99991V2.70678L6.35414 3.85366C6.30771 3.90014 6.25256 3.93702 6.19186 3.96218C6.13116 3.98735 6.0661 4.0003 6.00039 4.0003C5.93469 4.0003 5.86962 3.98735 5.80892 3.96218C5.74822 3.93702 5.69308 3.90014 5.64664 3.85366ZM9.64664 12.1462L8.50039 13.293V9.9999C8.50039 9.8673 8.44772 9.74012 8.35395 9.64635C8.26018 9.55258 8.133 9.4999 8.00039 9.4999C7.86779 9.4999 7.74061 9.55258 7.64684 9.64635C7.55307 9.74012 7.50039 9.8673 7.50039 9.9999V13.293L6.35414 12.1462C6.26032 12.0523 6.13308 11.9996 6.00039 11.9996C5.86771 11.9996 5.74046 12.0523 5.64664 12.1462C5.55282 12.24 5.50012 12.3672 5.50012 12.4999C5.50012 12.6326 5.55282 12.7598 5.64664 12.8537L7.64664 14.8537C7.69308 14.9001 7.74822 14.937 7.80892 14.9622C7.86962 14.9873 7.93469 15.0003 8.00039 15.0003C8.0661 15.0003 8.13116 14.9873 8.19186 14.9622C8.25256 14.937 8.30771 14.9001 8.35414 14.8537L10.3541 12.8537C10.448 12.7598 10.5007 12.6326 10.5007 12.4999C10.5007 12.3672 10.448 12.24 10.3541 12.1462C10.2603 12.0523 10.1331 11.9996 10.0004 11.9996C9.86771 11.9996 9.74046 12.0523 9.64664 12.1462ZM14.8541 7.64615L12.8541 5.64615C12.7603 5.55233 12.6331 5.49963 12.5004 5.49963C12.3677 5.49963 12.2405 5.55233 12.1466 5.64615C12.0528 5.73998 12.0001 5.86722 12.0001 5.99991C12.0001 6.13259 12.0528 6.25984 12.1466 6.35366L13.2935 7.49991H10.0004C9.86778 7.49991 9.74061 7.55258 9.64684 7.64635C9.55307 7.74012 9.50039 7.8673 9.50039 7.99991C9.50039 8.13251 9.55307 8.25969 9.64684 8.35346C9.74061 8.44723 9.86778 8.49991 10.0004 8.49991H13.2935L12.1466 9.64615C12.0528 9.73997 12.0001 9.86722 12.0001 9.9999C12.0001 10.1326 12.0528 10.2598 12.1466 10.3537C12.2405 10.4475 12.3677 10.5002 12.5004 10.5002C12.6331 10.5002 12.7603 10.4475 12.8541 10.3537L14.8541 8.35366C14.9006 8.30722 14.9375 8.25207 14.9627 8.19138C14.9878 8.13068 15.0008 8.06561 15.0008 7.99991C15.0008 7.9342 14.9878 7.86913 14.9627 7.80843C14.9375 7.74774 14.9006 7.69259 14.8541 7.64615ZM2.70727 8.49991H6.00039C6.133 8.49991 6.26018 8.44723 6.35395 8.35346C6.44771 8.25969 6.50039 8.13251 6.50039 7.99991C6.50039 7.8673 6.44771 7.74012 6.35395 7.64635C6.26018 7.55258 6.133 7.49991 6.00039 7.49991H2.70727L3.85414 6.35366C3.94796 6.25984 4.00067 6.13259 4.00067 5.99991C4.00067 5.86722 3.94796 5.73998 3.85414 5.64615C3.76032 5.55233 3.63308 5.49963 3.50039 5.49963C3.36771 5.49963 3.24046 5.55233 3.14664 5.64615L1.14664 7.64615C1.10016 7.69259 1.06328 7.74774 1.03811 7.80843C1.01295 7.86913 1 7.9342 1 7.99991C1 8.06561 1.01295 8.13068 1.03811 8.19138C1.06328 8.25207 1.10016 8.30722 1.14664 8.35366L3.14664 10.3537C3.24046 10.4475 3.36771 10.5002 3.50039 10.5002C3.63308 10.5002 3.76032 10.4475 3.85414 10.3537C3.94796 10.2598 4.00067 10.1326 4.00067 9.9999C4.00067 9.86722 3.94796 9.73997 3.85414 9.64615L2.70727 8.49991Z" fill="white"/>
</svg>
