<svg width="155" height="112" viewBox="0 0 155 112" fill="none" xmlns="http://www.w3.org/2000/svg">
<path d="M95.0697 62.9999L96.8683 64.555L86.4817 76.5682L84.4566 74.7947L95.0697 62.9999Z" fill="#A981FA"/>
<path d="M100.43 77.0721L98.0968 64.5995L97.2115 64.1167L86.4287 76.5893L89.8084 84.8776L100.43 77.0721Z" fill="#B591FF"/>
<rect x="58.4512" y="63.4331" width="2.37768" height="14.7312" transform="rotate(10.878 58.4512 63.4331)" fill="#A981FA"/>
<path d="M47.0791 70.2354L66.4988 84.6548L60.7183 99.9626H53.5911L47.0791 70.2354Z" fill="#A780F8"/>
<rect x="44.751" y="71.041" width="2.44276" height="29.9794" transform="rotate(-12.5435 44.751 71.041)" fill="#976DEE"/>
<circle cx="44.4056" cy="68.6072" r="3.48856" fill="#B591FF"/>
<path fill-rule="evenodd" clip-rule="evenodd" d="M47.2584 70.6152C46.8151 70.8193 46.3216 70.9331 45.8015 70.9331C43.8748 70.9331 42.3129 69.3712 42.3129 67.4445C42.3129 66.6969 42.5481 66.0042 42.9485 65.4363C41.7494 65.9883 40.9169 67.2004 40.9169 68.607C40.9169 70.5337 42.4788 72.0956 44.4055 72.0956C45.5845 72.0956 46.627 71.5107 47.2584 70.6152Z" fill="#976DEE"/>
<path d="M109.177 70.2354L89.7571 84.6548L95.5376 99.9626H102.665L109.177 70.2354Z" fill="#A780F8"/>
<rect width="2.44276" height="29.9794" transform="matrix(-0.976131 -0.217181 -0.217181 0.976131 111.505 71.0415)" fill="#976DEE"/>
<circle cx="3.48856" cy="3.48856" r="3.48856" transform="matrix(-1 0 0 1 115.341 65.1187)" fill="#B591FF"/>
<path fill-rule="evenodd" clip-rule="evenodd" d="M108.998 70.6144C109.442 70.8187 109.936 70.9327 110.456 70.9327C112.383 70.9327 113.945 69.3708 113.945 67.4441C113.945 66.697 113.71 66.0048 113.31 65.4371C114.509 65.9893 115.341 67.2012 115.341 68.6074C115.341 70.5341 113.779 72.096 111.852 72.096C110.673 72.096 109.63 71.5106 108.998 70.6144Z" fill="#976DEE"/>
<circle cx="59.2867" cy="61.2143" r="3.48856" transform="rotate(16.1384 59.2867 61.2143)" fill="#B591FF"/>
<path fill-rule="evenodd" clip-rule="evenodd" d="M61.5156 63.8994C61.3554 63.8765 61.1948 63.8422 61.0349 63.7959C59.1841 63.2603 58.1179 61.3259 58.6535 59.4751C58.8554 58.7773 59.2562 58.191 59.7764 57.7601C58.0825 57.5182 56.4256 58.5542 55.9363 60.245C55.4008 62.0957 56.467 64.0302 58.3177 64.5658C59.4707 64.8994 60.6561 64.6114 61.5156 63.8994Z" fill="#A981FA"/>
<circle cx="96.9619" cy="61.1887" r="3.48856" transform="rotate(46.2937 96.9619 61.1887)" fill="#B591FF"/>
<path fill-rule="evenodd" clip-rule="evenodd" d="M96.7901 64.6731C96.6074 64.5444 96.4344 64.3962 96.2742 64.2285C94.9429 62.8357 94.9928 60.6274 96.3855 59.2962C97.1055 58.608 98.0435 58.2889 98.9655 58.3336C97.6304 57.3934 95.7743 57.4957 94.5492 58.6667C93.1564 59.998 93.1065 62.2063 94.4378 63.5991C95.0808 64.2718 95.9285 64.6313 96.7901 64.6731Z" fill="#A981FA"/>
<path d="M60.7357 63.6958L57.9033 78.385L66.4481 84.6255L70.8645 73.9206L61.7917 63.6958H60.7357Z" fill="#B591FF"/>
<rect x="76.0859" y="60.4434" width="3.34016" height="42.5525" transform="rotate(21.7154 76.0859 60.4434)" fill="#A981FA"/>
<path d="M79.4301 61.1133H80.2807L96.2553 99.8123H63.8477L79.4301 61.1133Z" fill="#B591FF"/>
<rect x="78.1328" y="50.8242" width="8.81343" height="8.81343" rx="3" transform="rotate(45 78.1328 50.8242)" fill="#B591FF"/>
<path fill-rule="evenodd" clip-rule="evenodd" d="M80.2543 52.9461C79.0827 51.7745 77.1832 51.7745 76.0116 52.9461L74.0222 54.9355C72.8507 56.107 72.8507 58.0065 74.0222 59.1781L76.0116 61.1675C77.1832 62.3391 79.0827 62.3391 80.2543 61.1675L80.2793 61.1425L78.3149 59.1781C77.1433 58.0065 77.1433 56.107 78.3149 54.9355L80.2793 52.9711L80.2543 52.9461Z" fill="#A981FA"/>
<path d="M74.25 84.0616L76.6455 80.8343C77.4386 79.7658 79.0345 79.7553 79.8416 80.8132L82.3041 84.041C82.8419 84.746 82.8513 85.7209 82.3273 86.4361L79.8651 89.7966C79.0596 90.8961 77.4144 90.8854 76.6232 89.7755L74.2273 86.4146C73.7239 85.7084 73.733 84.7581 74.25 84.0616Z" fill="#8959EC"/>
<path fill-rule="evenodd" clip-rule="evenodd" d="M76.6461 80.8343L74.2505 84.0617C73.7336 84.7582 73.7244 85.7084 74.2279 86.4147L76.6238 89.7756C77.4149 90.8854 79.0601 90.8961 79.8656 89.7967L80.0386 89.5607L77.7959 86.4147C77.2925 85.7084 77.3016 84.7582 77.8185 84.0617L80.0386 81.0708L79.8421 80.8133C79.035 79.7554 77.4391 79.7659 76.6461 80.8343Z" fill="#8152E2"/>
<rect x="58.3574" y="99.7725" width="46.7468" height="12.0937" fill="#8959EC"/>
<circle cx="61.4939" cy="105.819" r="1.15604" fill="#B591FF"/>
<circle cx="69.4812" cy="105.819" r="1.15604" fill="#B591FF"/>
<circle cx="77.4715" cy="105.819" r="1.15604" fill="#B591FF"/>
<circle cx="85.4607" cy="105.819" r="1.15604" fill="#B591FF"/>
<circle cx="93.4471" cy="105.819" r="1.15604" fill="#B591FF"/>
<circle cx="101.436" cy="105.819" r="1.15604" fill="#B591FF"/>
<rect x="51.1484" y="99.7725" width="7.2097" height="12.0937" fill="#8152E2"/>
<path d="M65.1817 44.2852C65.453 43.7401 66.2306 43.7401 66.502 44.2852V44.2852C67.217 45.7216 68.381 46.8856 69.8174 47.6006V47.6006C70.3625 47.8719 70.3625 48.6496 69.8174 48.9209V48.9209C68.381 49.6359 67.217 50.7999 66.502 52.2363V52.2363C66.2306 52.7814 65.453 52.7814 65.1817 52.2363V52.2363C64.4667 50.7999 63.3027 49.6359 61.8662 48.9209V48.9209C61.3212 48.6496 61.3212 47.8719 61.8662 47.6006V47.6006C63.3027 46.8856 64.4667 45.7216 65.1817 44.2852V44.2852Z" fill="#8152E2"/>
<path d="M89.7627 48.6411C90.0341 48.0961 90.8117 48.0961 91.083 48.6411V48.6411C91.798 50.0776 92.962 51.2416 94.3984 51.9566V51.9566C94.9435 52.2279 94.9435 53.0055 94.3984 53.2769V53.2769C92.962 53.9919 91.798 55.1559 91.083 56.5923V56.5923C90.8117 57.1374 90.0341 57.1374 89.7627 56.5923V56.5923C89.0477 55.1559 87.8837 53.9919 86.4473 53.2769V53.2769C85.9022 53.0055 85.9022 52.2279 86.4473 51.9566V51.9566C87.8837 51.2416 89.0477 50.0776 89.7627 48.6411V48.6411Z" fill="#8152E2"/>
<path fill-rule="evenodd" clip-rule="evenodd" d="M66.4998 44.2853C66.2285 43.7402 65.4508 43.7402 65.1795 44.2853C64.9203 44.806 64.6022 45.2908 64.2334 45.7315C66.3431 46.466 67.6652 48.5107 67.5439 50.6754C68.1749 49.952 68.9451 49.3541 69.8152 48.921C70.3603 48.6497 70.3603 47.872 69.8152 47.6007C68.3788 46.8857 67.2148 45.7217 66.4998 44.2853Z" fill="#8959EC"/>
<path d="M10.3189 65.5352C10.3567 65.486 15.969 69.6897 22.8451 74.9282C29.7212 80.1667 35.2736 84.4535 35.2357 84.5027C35.1979 84.5519 29.5899 80.3476 22.7094 75.1097C15.829 69.8718 10.281 65.5845 10.3189 65.5352Z" fill="#263238"/>
<path d="M13.5904 83.3223C21.0303 83.3223 27.0616 77.2911 27.0616 69.8511C27.0616 62.4112 21.0303 56.3799 13.5904 56.3799C6.15041 56.3799 0.119141 62.4112 0.119141 69.8511C0.119141 77.2911 6.15041 83.3223 13.5904 83.3223Z" fill="#8152E2"/>
<path d="M27.0619 69.8505C27.0509 69.7777 27.0436 69.7045 27.04 69.631C27.04 69.4774 27.0136 69.2667 26.9961 68.9902C26.9961 68.8497 26.9961 68.6917 26.9654 68.5205C26.9346 68.3493 26.9127 68.1605 26.882 67.9586C26.8209 67.4899 26.7256 67.0263 26.5966 66.5716C26.2833 65.3131 25.7801 64.1098 25.1042 63.0029C24.2198 61.5315 23.0621 60.2427 21.6936 59.2061C20.0371 57.9462 18.1083 57.0923 16.062 56.7129C15.5038 56.6088 14.9392 56.5428 14.372 56.5153C14.0823 56.5153 13.7926 56.4802 13.4941 56.4846L12.6162 56.5285C12.4714 56.5285 12.3221 56.5285 12.1773 56.5592L11.7383 56.6295C11.4399 56.6777 11.137 56.7128 10.8605 56.7743C10.2556 56.9092 9.66031 57.0837 9.07834 57.2966C8.47604 57.5118 7.88937 57.7685 7.32256 58.0648C7.04163 58.2184 6.77388 58.394 6.49295 58.5608C6.2103 58.7264 5.94034 58.9127 5.68529 59.1183C5.15342 59.514 4.64759 59.9436 4.17093 60.4044C3.69715 60.8902 3.25717 61.4079 2.85409 61.9539C2.02452 63.0697 1.37982 64.3117 0.944682 65.6322C0.0259741 68.3664 0.0259741 71.3258 0.944682 74.06C1.37797 75.3827 2.0228 76.6264 2.85409 77.7427C3.6315 78.8376 4.58527 79.7958 5.67651 80.5783C5.93156 80.7839 6.20152 80.9702 6.48417 81.1358C6.76071 81.3026 7.03285 81.4781 7.31378 81.6318C7.88059 81.9281 8.46726 82.1847 9.06956 82.3999C9.65153 82.6129 10.2468 82.7873 10.8517 82.9223C11.1545 82.9837 11.4574 83.0188 11.7296 83.0715L12.1685 83.1374C12.3178 83.1593 12.467 83.1593 12.6075 83.1681L13.4853 83.212C13.7794 83.212 14.0691 83.19 14.3632 83.1813C14.9304 83.1538 15.495 83.0878 16.0532 82.9837C17.9191 82.6334 19.6897 81.8917 21.2483 80.8075C22.8068 79.7233 24.118 78.3213 25.0955 76.6936C25.7713 75.5868 26.2746 74.3835 26.5879 73.125C26.7168 72.6703 26.8122 72.2067 26.8732 71.7379C26.9039 71.536 26.939 71.3473 26.9566 71.1761C26.9741 71.0049 26.9785 70.8469 26.9873 70.7064C26.9873 70.4343 27.018 70.2192 27.0312 70.0656C27.0345 69.9935 27.0419 69.9217 27.0531 69.8505C27.0531 69.8505 27.0531 69.9207 27.0531 70.0656L27.0312 70.7064C27.0312 70.8513 27.0312 71.0093 27.0312 71.1805C27.0312 71.3517 26.9829 71.5448 26.9566 71.7467C26.9036 72.2194 26.8156 72.6874 26.6932 73.147C26.3895 74.4189 25.8936 75.637 25.2227 76.7595C24.2437 78.4129 22.9247 79.8396 21.353 80.9451C19.7814 82.0506 17.9929 82.8098 16.1059 83.1725C15.5389 83.278 14.9655 83.3455 14.3896 83.3744C14.0999 83.3744 13.8058 83.4139 13.5117 83.4139L12.6338 83.37C12.4846 83.37 12.3309 83.37 12.1949 83.3393L11.7559 83.2734C11.453 83.2208 11.1458 83.1856 10.8429 83.1242C10.2278 82.9884 9.62217 82.8125 9.03005 82.5975C8.42731 82.3799 7.8406 82.1203 7.27427 81.8205C6.98896 81.6669 6.71242 81.4869 6.42711 81.3201C6.14246 81.1501 5.86969 80.9609 5.61067 80.7539C5.06825 80.3481 4.55218 79.9083 4.06558 79.437C3.59198 78.9417 3.15206 78.4153 2.74875 77.8612C1.86863 76.7336 1.1805 75.4686 0.712042 74.117C-0.224326 71.3362 -0.224326 68.3253 0.712042 65.5444C1.15175 64.2001 1.80862 62.9367 2.65657 61.8046C3.05988 61.2506 3.49981 60.7241 3.97341 60.2288C4.46 59.7575 4.97607 59.3177 5.51849 58.912C5.77828 58.7039 6.05258 58.5147 6.33932 58.3457C6.62024 58.1789 6.89678 57.999 7.18209 57.8453C7.74843 57.5455 8.33513 57.2859 8.93788 57.0684C9.52999 56.8534 10.1356 56.6774 10.7507 56.5417C11.0536 56.4802 11.3609 56.4451 11.6637 56.3968L12.1027 56.3266C12.2519 56.3266 12.4055 56.3266 12.5416 56.3002L13.4195 56.2563C13.7136 56.2563 14.0121 56.2783 14.2974 56.2915C14.8734 56.3204 15.4467 56.3878 16.0137 56.4934C17.9007 56.856 19.6892 57.6152 21.2608 58.7208C22.8325 59.8263 24.1515 61.253 25.1306 62.9064C25.8015 64.0288 26.2973 65.247 26.601 66.5189C26.7234 66.9785 26.8114 67.4465 26.8644 67.9191C26.8907 68.1254 26.9259 68.3098 26.939 68.4854C26.9522 68.6609 26.939 68.8146 26.939 68.9594C26.939 69.2316 26.939 69.4467 26.961 69.6003C26.9829 69.7539 27.0619 69.8505 27.0619 69.8505Z" fill="#263238"/>
<path d="M110.3 45.6327C110.348 45.6704 113.833 42.3172 118.088 38.1484C122.343 33.9796 125.757 30.5655 125.718 30.526C125.678 30.4865 122.189 33.8407 117.931 38.0141C113.673 42.1876 110.257 45.5941 110.3 45.6327Z" fill="#263238"/>
<path d="M127.402 41.0479C134.842 41.0479 140.873 35.0167 140.873 27.5767C140.873 20.1367 134.842 14.1055 127.402 14.1055C119.962 14.1055 113.931 20.1367 113.931 27.5767C113.931 35.0167 119.962 41.0479 127.402 41.0479Z" fill="#8152E2"/>
<path d="M113.931 27.5769C113.931 27.5769 113.931 27.5023 113.931 27.3575C113.931 27.2126 113.931 26.9931 113.953 26.7166C113.953 26.5761 113.953 26.4181 113.953 26.2425C113.953 26.0669 114.001 25.8826 114.027 25.6763C114.08 25.2037 114.168 24.7356 114.291 24.2761C114.594 23.0053 115.09 21.7885 115.761 20.6679C116.739 19.0085 118.059 17.5768 119.634 16.4686C121.21 15.3604 123.003 14.6012 124.896 14.2418C125.462 14.1326 126.036 14.0636 126.612 14.0355C126.902 14.0355 127.2 13.996 127.49 14.0003L128.39 14.0442C128.539 14.0442 128.692 14.0442 128.828 14.0706L129.267 14.1408C129.57 14.1891 129.878 14.2242 130.18 14.2857C130.795 14.4235 131.4 14.5994 131.993 14.8124C132.595 15.0336 133.181 15.2931 133.749 15.5893C134.034 15.743 134.311 15.9229 134.592 16.0941C134.879 16.26 135.154 16.4479 135.413 16.656C136.524 17.4498 137.496 18.4229 138.288 19.5354C139.134 20.6686 139.791 21.9317 140.232 23.2753C141.169 26.0561 141.169 29.067 140.232 31.8479C139.792 33.1932 139.135 34.4579 138.288 35.5921C137.883 36.1438 137.443 36.6687 136.971 37.1635C136.486 37.6369 135.97 38.0769 135.426 38.4803C135.168 38.6874 134.895 38.8752 134.609 39.0422C134.324 39.209 134.048 39.3933 133.762 39.547C133.194 39.8432 132.608 40.1027 132.006 40.3239C131.414 40.5369 130.808 40.7128 130.194 40.8506C129.891 40.9121 129.583 40.9472 129.281 40.9955L128.842 41.0657C128.692 41.0657 128.539 41.0657 128.403 41.092L127.503 41.1359C127.204 41.1359 126.91 41.1096 126.625 41.1008C126.049 41.0726 125.475 41.0037 124.909 40.8945C123.021 40.5343 121.231 39.776 119.659 38.6703C118.087 37.5645 116.769 36.1366 115.792 34.4815C115.12 33.3609 114.624 32.1441 114.321 30.8734C114.199 30.4138 114.111 29.9458 114.058 29.4732C114.032 29.2669 113.997 29.0781 113.983 28.9069C113.97 28.7357 113.983 28.5733 113.983 28.4329L113.961 27.792C113.961 27.6472 113.961 27.5725 113.961 27.5725C113.972 27.6453 113.98 27.7185 113.983 27.792C113.983 27.9456 114.01 28.1563 114.027 28.4285C114.027 28.5689 114.027 28.727 114.058 28.8981C114.089 29.0693 114.111 29.2581 114.141 29.46C114.202 29.9302 114.298 30.3952 114.427 30.8515C114.741 32.1082 115.244 33.31 115.919 34.4157C116.897 36.0432 118.208 37.4454 119.767 38.5303C121.325 39.6151 123.095 40.358 124.961 40.7102C125.519 40.8149 126.084 40.8795 126.651 40.9033C126.941 40.9033 127.231 40.9428 127.529 40.9384L128.407 40.8901C128.556 40.8901 128.706 40.8901 128.846 40.8638L129.285 40.7936C129.583 40.7453 129.882 40.7102 130.163 40.6487C130.768 40.5123 131.363 40.3363 131.945 40.122C132.547 39.9083 133.134 39.6531 133.701 39.3582C133.982 39.2046 134.254 39.0246 134.53 38.8578C134.812 38.6922 135.082 38.5074 135.338 38.3047C135.872 37.9099 136.378 37.4787 136.852 37.0142C137.326 36.5284 137.766 36.0107 138.169 35.4648C139 34.35 139.645 33.1077 140.079 31.7864C140.997 29.0523 140.997 26.0928 140.079 23.3587C139.644 22.0367 138.999 20.7933 138.169 19.6759C137.765 19.1323 137.325 18.6161 136.852 18.1308C136.377 17.6674 135.871 17.2363 135.338 16.8403C135.081 16.6377 134.811 16.4515 134.53 16.2829C134.249 16.1204 133.982 15.9405 133.701 15.7868C133.134 15.492 132.547 15.2368 131.945 15.0231C131.363 14.8087 130.768 14.6328 130.163 14.4964C129.864 14.4349 129.562 14.3998 129.285 14.3515L128.846 14.2813C128.697 14.2813 128.548 14.2813 128.407 14.2549L127.529 14.2066C127.235 14.2066 126.945 14.2066 126.651 14.2418C126.084 14.2656 125.519 14.3301 124.961 14.4349C123.096 14.7876 121.327 15.5303 119.768 16.6142C118.21 17.6982 116.898 19.099 115.919 20.725C115.244 21.8322 114.741 23.0354 114.427 24.2936C114.298 24.7498 114.202 25.2149 114.141 25.6851C114.115 25.887 114.076 26.0713 114.058 26.2469L114.027 26.7166C114.027 26.9887 113.997 27.1994 113.983 27.3531C113.97 27.4286 113.952 27.5033 113.931 27.5769Z" fill="#263238"/>
<path d="M146.236 67.5352C146.198 67.486 140.586 71.6897 133.71 76.9282C126.833 82.1667 121.281 86.4535 121.319 86.5027C121.357 86.5519 126.965 82.3476 133.845 77.1097C140.726 71.8718 146.274 67.5845 146.236 67.5352Z" fill="#263238"/>
<g clip-path="url(#clip0_484_15541)">
<path d="M130.898 26.9508C131.806 26.0504 133.277 26.0504 134.185 26.9508C135.092 27.8519 135.092 29.3127 134.185 30.2132L130.664 33.7089L127.143 30.2132C126.235 29.3127 126.235 27.8519 127.143 26.9508C128.05 26.0504 129.522 26.0504 130.429 26.9508L130.664 27.1835L130.898 26.9508ZM132.114 22.8862C132.721 23.4958 133.085 24.2553 133.205 25.0439C132.344 24.8836 131.435 25.0374 130.664 25.5048C129.274 24.6625 127.436 24.839 126.232 26.0335C124.855 27.4007 124.816 29.5985 126.117 31.0115L126.232 31.1311L127.797 32.685L126.785 33.6992L121.304 28.21C119.945 26.6871 119.996 24.3484 121.457 22.8862C122.921 21.4227 125.263 21.3736 126.786 22.7388C128.304 21.3756 130.651 21.4208 132.114 22.8862Z" fill="white"/>
</g>
<path d="M141.491 83.0914C148.931 83.0914 154.962 77.0601 154.962 69.6202C154.962 62.1802 148.931 56.1489 141.491 56.1489C134.051 56.1489 128.02 62.1802 128.02 69.6202C128.02 77.0601 134.051 83.0914 141.491 83.0914Z" fill="#8152E2"/>
<path d="M128.023 69.6199C128.023 69.6199 128.023 69.5453 128.023 69.4004C128.023 69.2556 128.023 69.0317 128.045 68.7596C128.045 68.6191 128.045 68.4611 128.045 68.2855C128.045 68.1099 128.094 67.9256 128.12 67.7193C128.175 67.247 128.263 66.7791 128.383 66.319C128.687 65.0464 129.184 63.828 129.858 62.7065C130.838 61.0494 132.16 59.6202 133.736 58.5144C135.312 57.4085 137.105 56.6514 138.997 56.2935C139.562 56.1877 140.134 56.1203 140.709 56.0916C141.003 56.0916 141.297 56.0521 141.587 56.0565L142.465 56.1004C142.614 56.1004 142.768 56.1004 142.904 56.1267L143.343 56.197C143.641 56.2452 143.948 56.2804 144.256 56.3418C144.869 56.4776 145.473 56.6535 146.064 56.8685C146.666 57.0871 147.253 57.3467 147.82 57.6455C148.105 57.7991 148.382 57.9791 148.667 58.1503C148.954 58.3172 149.228 58.505 149.488 58.7121C150.03 59.1167 150.545 59.5566 151.029 60.0289C151.503 60.5217 151.943 61.0467 152.345 61.6004C153.193 62.733 153.849 63.9962 154.29 65.3402C155.223 68.1215 155.223 71.1315 154.29 73.9128C153.872 75.2489 153.244 76.5099 152.429 77.6482C151.635 78.7607 150.664 79.7351 149.554 80.5321C149.293 80.7377 149.019 80.9254 148.733 81.0939C148.448 81.2607 148.171 81.4407 147.886 81.5987C147.319 81.8961 146.732 82.1542 146.13 82.3713C145.54 82.5883 144.936 82.7643 144.321 82.898C144.014 82.9638 143.707 82.999 143.404 83.0472L142.965 83.1131C142.816 83.135 142.662 83.135 142.526 83.1438L141.626 83.1877C141.332 83.1877 141.038 83.1614 140.748 83.1526C140.172 83.1222 139.599 83.0533 139.032 82.9463C137.145 82.5836 135.357 81.8244 133.785 80.7189C132.213 79.6134 130.894 78.1867 129.915 76.5333C129.244 75.4108 128.749 74.1927 128.445 72.9208C128.324 72.4609 128.236 71.993 128.181 71.5205C128.155 71.3186 128.124 71.1299 128.107 70.9543C128.089 70.7787 128.107 70.6251 128.107 70.4846L128.085 69.8438C128.085 69.6989 128.085 69.6243 128.085 69.6243C128.096 69.6956 128.103 69.7674 128.107 69.8394C128.107 69.993 128.133 70.2081 128.151 70.4802L128.181 70.9499C128.181 71.1211 128.239 71.3098 128.269 71.5118C128.33 71.9801 128.424 72.4436 128.55 72.8988C128.865 74.1566 129.369 75.3597 130.043 76.4674C131.021 78.095 132.332 79.4972 133.89 80.582C135.449 81.6669 137.219 82.4098 139.085 82.7619C139.645 82.8645 140.211 82.9291 140.779 82.9551C141.065 82.9551 141.354 82.9946 141.657 82.9902L142.535 82.9419C142.684 82.9419 142.833 82.9419 142.974 82.9156L143.413 82.8453C143.711 82.797 144.014 82.7619 144.313 82.7005C144.918 82.5646 145.513 82.3887 146.095 82.1737C146.697 81.9601 147.284 81.7049 147.851 81.41C148.132 81.2563 148.404 81.0764 148.68 80.9096C148.962 80.745 149.232 80.5602 149.488 80.3565C150.578 79.5694 151.533 78.6102 152.315 77.5165C153.144 76.4007 153.789 75.1587 154.224 73.8382C155.14 71.1021 155.14 68.1421 154.224 65.406C153.79 64.0851 153.145 62.843 152.315 61.7277C151.911 61.1825 151.471 60.6648 150.998 60.1782C150.522 59.7163 150.016 59.2867 149.483 58.8921C149.229 58.6855 148.959 58.4991 148.676 58.3346C148.399 58.1678 148.127 57.9922 147.846 57.8386C147.279 57.5441 146.692 57.2875 146.09 57.0705C145.508 56.859 144.913 56.6845 144.308 56.5481C144.01 56.4867 143.707 56.4515 143.408 56.4033L142.97 56.333C142.82 56.333 142.671 56.333 142.531 56.3023L141.653 56.2584C141.363 56.2584 141.069 56.2804 140.775 56.2935C140.206 56.3173 139.64 56.3819 139.08 56.4867C137.215 56.8362 135.445 57.5777 133.887 58.662C132.329 59.7462 131.018 61.1487 130.043 62.7767C129.366 63.8839 128.862 65.0871 128.546 66.3454C128.421 66.8008 128.327 67.2642 128.265 67.7324C128.234 67.9387 128.195 68.1231 128.177 68.2943C128.16 68.4655 128.177 68.6235 128.146 68.7683C128.146 69.0405 128.116 69.2512 128.102 69.4048C128.08 69.4779 128.054 69.5497 128.023 69.6199Z" fill="#263238"/>
<path d="M143.915 67.9231C143.915 68.116 143.838 68.301 143.702 68.4373C143.566 68.5737 143.381 68.6503 143.188 68.6503C142.995 68.6503 142.81 68.5737 142.674 68.4373C142.537 68.301 142.461 68.116 142.461 67.9231C142.461 67.7303 142.537 67.5453 142.674 67.4089C142.81 67.2725 142.995 67.1959 143.188 67.1959C143.381 67.1959 143.566 67.2725 143.702 67.4089C143.838 67.5453 143.915 67.7303 143.915 67.9231ZM147.793 65.2567V73.0136V73.9832C147.793 74.2403 147.691 74.4869 147.509 74.6688C147.328 74.8506 147.081 74.9528 146.824 74.9528H136.158C135.901 74.9528 135.654 74.8506 135.472 74.6688C135.291 74.4869 135.188 74.2403 135.188 73.9832V72.0439V65.2567C135.188 64.9996 135.291 64.7529 135.472 64.5711C135.654 64.3893 135.901 64.2871 136.158 64.2871H146.824C147.081 64.2871 147.328 64.3893 147.509 64.5711C147.691 64.7529 147.793 64.9996 147.793 65.2567ZM146.824 71.844V65.2567H136.158V70.8744L138.382 68.6503C138.565 68.4705 138.811 68.3696 139.067 68.3696C139.323 68.3696 139.569 68.4705 139.752 68.6503L142.461 71.3592L143.715 70.1047C143.897 69.9249 144.143 69.8241 144.4 69.8241C144.656 69.8241 144.902 69.9249 145.085 70.1047L146.824 71.844Z" fill="white"/>
<path d="M45.3896 50.1547C45.3332 50.1887 42.6443 45.9441 39.3791 40.6796C36.1139 35.4151 33.5093 31.1146 33.5575 31.0774C33.6058 31.0401 36.2987 35.2863 39.5663 40.5566C42.834 45.8268 45.4419 50.1191 45.3896 50.1547Z" fill="#263238"/>
<path d="M78.6487 38.6027C78.5829 38.6011 78.5898 33.5766 78.6571 27.382C78.7245 21.1874 78.8324 16.1609 78.8931 16.1553C78.9538 16.1498 78.9495 21.1779 78.8811 27.3786C78.8127 33.5793 78.712 38.6007 78.6487 38.6027Z" fill="#263238"/>
<path d="M16.2575 69.3665C16.2575 69.8939 16.1011 70.4094 15.8081 70.8479C15.5151 71.2864 15.0987 71.6281 14.6115 71.83C14.1242 72.0318 13.5881 72.0846 13.0709 71.9817C12.5536 71.8788 12.0785 71.6249 11.7056 71.252C11.3327 70.8791 11.0788 70.4039 10.9759 69.8867C10.873 69.3695 10.9258 68.8333 11.1276 68.3461C11.3294 67.8589 11.6712 67.4425 12.1097 67.1495C12.5482 66.8565 13.0637 66.7001 13.5911 66.7001C14.2982 66.7001 14.9765 66.981 15.4765 67.4811C15.9766 67.9811 16.2575 68.6593 16.2575 69.3665ZM19.4087 65.0033V74.6993C19.4087 74.9565 19.3065 75.2031 19.1247 75.385C18.9429 75.5668 18.6962 75.669 18.4391 75.669H8.74304C8.48589 75.669 8.23926 75.5668 8.05743 75.385C7.87559 75.2031 7.77344 74.9565 7.77344 74.6993V65.0033C7.77344 64.7461 7.87559 64.4995 8.05743 64.3177C8.23926 64.1358 8.48589 64.0337 8.74304 64.0337H18.4391C18.6962 64.0337 18.9429 64.1358 19.1247 64.3177C19.3065 64.4995 19.4087 64.7461 19.4087 65.0033ZM18.4391 74.6993V65.0033H8.74304V74.6993H8.96545C9.25403 73.7888 9.80331 72.9829 10.5453 72.3814C10.6697 72.2812 10.7982 72.1879 10.9307 72.1014C10.9749 72.0726 11.0272 72.0589 11.0798 72.0626C11.1324 72.0662 11.1824 72.0868 11.2222 72.1214C11.8806 72.6898 12.7213 73.0025 13.5911 73.0025C14.4608 73.0025 15.3016 72.6898 15.9599 72.1214C15.9997 72.0868 16.0497 72.0662 16.1023 72.0626C16.1549 72.0589 16.2073 72.0726 16.2514 72.1014C16.3839 72.1883 16.5124 72.2816 16.6368 72.3814C17.3788 72.9829 17.9281 73.7888 18.2167 74.6993H18.4391Z" fill="white"/>
<path d="M30.5347 41.0435C37.9747 41.0435 44.0059 35.0123 44.0059 27.5723C44.0059 20.1324 37.9747 14.1011 30.5347 14.1011C23.0948 14.1011 17.0635 20.1324 17.0635 27.5723C17.0635 35.0123 23.0948 41.0435 30.5347 41.0435Z" fill="#8152E2"/>
<g clip-path="url(#clip1_484_15541)">
<path d="M30.5353 28.2188C31.6064 28.2188 32.4745 29.087 32.4745 30.158C32.4745 30.7075 32.2464 31.2026 31.8798 31.5556L30.6452 32.7437H31.8281C32.1851 32.7437 32.4745 33.0331 32.4745 33.3901V33.3901C32.4745 33.7471 32.1851 34.0365 31.8281 34.0365H29.3779C28.9461 34.0365 28.5961 33.6864 28.5961 33.2547V33.2547C28.5961 33.0421 28.6826 32.8388 28.8357 32.6914L30.9833 30.6241C31.1061 30.5058 31.1817 30.341 31.1817 30.158C31.1817 29.8012 30.8921 29.5116 30.5353 29.5116C30.3603 29.5116 30.2015 29.5813 30.0851 29.6944C29.8802 29.8934 29.6574 30.158 29.3718 30.158V30.158C28.9434 30.158 28.5817 29.7972 28.7487 29.4027C29.0432 28.7069 29.7322 28.2188 30.5353 28.2188ZM33.7673 28.2188C34.1243 28.2188 34.4137 28.5082 34.4137 28.8652V30.8044H35.7065V28.8652C35.7065 28.5082 35.996 28.2188 36.353 28.2188V28.2188C36.7099 28.2188 36.9994 28.5082 36.9994 28.8652V33.772C36.9994 33.9181 36.881 34.0365 36.7349 34.0365H35.9651C35.8223 34.0365 35.7065 33.9207 35.7065 33.7779V32.0973H33.451C33.2687 32.0973 33.1209 31.9495 33.1209 31.7672V28.8652C33.1209 28.5082 33.4103 28.2188 33.7673 28.2188V28.2188ZM24.7177 27.5724C25.0747 27.5724 25.3598 27.863 25.4039 28.2173C25.5594 29.4684 26.1617 30.5807 27.0461 31.3896C27.2041 31.5341 27.3033 31.7344 27.3033 31.9485V31.9485C27.3033 32.4918 26.7194 32.8185 26.3085 32.4631C25.091 31.41 24.2708 29.9101 24.1031 28.2179C24.0679 27.8626 24.3607 27.5724 24.7177 27.5724V27.5724ZM30.5353 21.1084C33.6385 21.1084 36.2312 23.2955 36.8557 26.2121C36.9367 26.5906 36.6314 26.926 36.2444 26.926V26.926C35.9143 26.926 35.6402 26.6785 35.563 26.3575C35.0165 24.0879 32.9731 22.4012 30.5353 22.4012C28.7577 22.4012 27.1895 23.2978 26.2594 24.6636H27.3033C27.6603 24.6636 27.9497 24.953 27.9497 25.31V25.31C27.9497 25.667 27.6603 25.9564 27.3033 25.9564H25.0713C24.519 25.9564 24.0713 25.5087 24.0713 24.9564V22.7244C24.0713 22.3674 24.3607 22.078 24.7177 22.078V22.078C25.0747 22.078 25.3641 22.3674 25.3641 22.7244V23.694C26.5431 22.1233 28.4209 21.1084 30.5353 21.1084Z" fill="white"/>
</g>
<path d="M78.9986 27.0435C86.4385 27.0435 92.4698 21.0123 92.4698 13.5723C92.4698 6.13235 86.4385 0.101074 78.9986 0.101074C71.5586 0.101074 65.5273 6.13235 65.5273 13.5723C65.5273 21.0123 71.5586 27.0435 78.9986 27.0435Z" fill="#8152E2"/>
<path d="M43.9911 27.5722C43.9801 27.4995 43.9728 27.4262 43.9692 27.3527C43.9692 27.1991 43.9429 26.9884 43.9253 26.7162C43.9253 26.5758 43.9253 26.4178 43.8946 26.2466C43.8638 26.0754 43.8419 25.8866 43.8112 25.6847C43.7502 25.2146 43.6548 24.7495 43.5259 24.2933C43.211 23.0354 42.7078 21.8322 42.0335 20.7246C41.0541 19.0986 39.7423 17.6978 38.1841 16.6139C36.6259 15.5299 34.8563 14.7873 32.9912 14.4346C32.4332 14.3298 31.8684 14.2652 31.3012 14.2414C31.0115 14.2414 30.7218 14.2019 30.4233 14.2063L29.5455 14.2546C29.3962 14.2546 29.247 14.2546 29.1065 14.2809L28.6676 14.3512C28.3691 14.3994 28.0706 14.4346 27.7897 14.496C27.1848 14.6324 26.5894 14.8084 26.0076 15.0227C25.4053 15.2364 24.8187 15.4916 24.2518 15.7865C23.9709 15.9401 23.7031 16.1201 23.4222 16.2825C23.1415 16.4511 22.8717 16.6373 22.6145 16.84C22.0816 17.236 21.5757 17.6671 21.1001 18.1305C20.6275 18.6158 20.1875 19.1319 19.7833 19.6756C18.9537 20.793 18.309 22.0364 17.8739 23.3583C16.9552 26.0925 16.9552 29.0519 17.8739 31.7861C18.3073 33.1074 18.9521 34.3496 19.7833 35.4644C20.1864 36.0104 20.6264 36.5281 21.1001 37.0139C21.5747 37.4784 22.0807 37.9096 22.6145 38.3044C22.8717 38.5071 23.1415 38.6932 23.4222 38.8619C23.7031 39.0243 23.9709 39.2042 24.2518 39.3579C24.8187 39.6528 25.4053 39.908 26.0076 40.1216C26.5894 40.336 27.1848 40.5119 27.7897 40.6484C28.0925 40.7098 28.3954 40.7449 28.6676 40.7932L29.1065 40.8635C29.2558 40.8635 29.405 40.8635 29.5455 40.8898L30.4233 40.9381C30.7174 40.9381 31.0071 40.9381 31.3012 40.903C31.8684 40.8791 32.4332 40.8146 32.9912 40.7098C34.857 40.3577 36.6273 39.6148 38.1857 38.5299C39.7441 37.4451 41.0554 36.0429 42.0335 34.4153C42.7084 33.3096 43.2116 32.1079 43.5259 30.8511C43.6548 30.3949 43.7502 29.9298 43.8112 29.4597C43.8419 29.2577 43.877 29.0734 43.8946 28.8978L43.9253 28.4281C43.9253 28.156 43.956 27.9453 43.9692 27.7917C43.9728 27.7182 43.9801 27.6449 43.9911 27.5722C43.9911 27.5722 43.9911 27.6468 43.9911 27.7917L43.9692 28.4325C43.9692 28.573 43.9692 28.731 43.9692 28.9066C43.9692 29.0822 43.9209 29.2665 43.8946 29.4728C43.8416 29.9454 43.7536 30.4135 43.6312 30.8731C43.3281 32.1438 42.8322 33.3606 42.1607 34.4812C41.1836 36.1362 39.8652 37.5642 38.2932 38.6699C36.7212 39.7757 34.9317 40.5339 33.0438 40.8942C32.4773 41.0034 31.9038 41.0723 31.3276 41.1005C31.0379 41.1005 30.7438 41.14 30.4497 41.1356L29.5718 41.0917C29.4225 41.0917 29.2689 41.0917 29.1328 41.0654L28.6939 40.9951C28.391 40.9468 28.0838 40.9117 27.7809 40.8503C27.1663 40.7125 26.5608 40.5366 25.9681 40.3235C25.3668 40.1024 24.7803 39.8428 24.2123 39.5466C23.927 39.393 23.6504 39.213 23.3651 39.0418C23.0489 38.8744 22.7466 38.6822 22.4609 38.4668C21.9175 38.0623 21.4013 37.6224 20.9158 37.15C20.4433 36.6552 20.0034 36.1303 19.599 35.5785C18.7518 34.4443 18.095 33.1797 17.6544 31.8343C16.7181 29.0535 16.7181 26.0426 17.6544 23.2617C18.0955 21.9264 18.7491 20.671 19.5902 19.5439C19.9946 18.9921 20.4345 18.4672 20.907 17.9725C21.3926 17.5001 21.9087 17.0602 22.4521 16.6556C22.7109 16.4475 22.9853 16.2597 23.2729 16.0938C23.5539 15.9226 23.8304 15.7426 24.1157 15.589C24.6838 15.2927 25.2702 15.0332 25.8715 14.812C26.4643 14.599 27.0697 14.4231 27.6843 14.2853C27.9872 14.2239 28.2945 14.1887 28.5973 14.1405L29.0363 14.0702C29.1855 14.0702 29.3391 14.0702 29.4752 14.0439L30.3531 14C30.6472 14 30.9457 14.0263 31.231 14.0351C31.8072 14.0633 32.3808 14.1322 32.9473 14.2414C34.8352 14.6017 36.6247 15.3599 38.1967 16.4657C39.7687 17.5714 41.0871 18.9994 42.0642 20.6544C42.7356 21.775 43.2316 22.9918 43.5346 24.2625C43.657 24.7221 43.745 25.1901 43.798 25.6628C43.8243 25.8691 43.8595 26.0578 43.8726 26.229C43.8858 26.4002 43.8726 26.5626 43.8726 26.7031C43.8726 26.9796 43.8726 27.1903 43.8946 27.3439C43.9165 27.4976 43.9911 27.5722 43.9911 27.5722Z" fill="#263238"/>
<path d="M92.4648 13.5722C92.4537 13.4995 92.4464 13.4262 92.4428 13.3527C92.4428 13.1991 92.4165 12.9884 92.3989 12.7162C92.3989 12.5758 92.3989 12.4178 92.3682 12.2466C92.3375 12.0754 92.3155 11.8866 92.2848 11.6847C92.2238 11.2146 92.1285 10.7495 91.9995 10.2933C91.6846 9.03535 91.1814 7.83224 90.5071 6.72464C89.5277 5.09865 88.216 3.69783 86.6577 2.61387C85.0995 1.52992 83.3299 0.787275 81.4648 0.434555C80.9068 0.329784 80.3421 0.265238 79.7749 0.241418C79.4852 0.241418 79.1955 0.201915 78.897 0.206305L78.0191 0.254586C77.8698 0.254586 77.7206 0.254588 77.5801 0.280925L77.1412 0.351154C76.8427 0.399438 76.5442 0.434555 76.2633 0.496007C75.6584 0.632448 75.0631 0.808402 74.4812 1.02274C73.879 1.23641 73.2923 1.49162 72.7254 1.78651C72.4445 1.94014 72.1767 2.1201 71.8958 2.28251C71.6151 2.45113 71.3453 2.63732 71.0881 2.83998C70.5552 3.23598 70.0493 3.6671 69.5738 4.13047C69.1011 4.61576 68.6612 5.13193 68.2569 5.67556C67.4273 6.79296 66.7827 8.03639 66.3475 9.35831C65.4288 12.0925 65.4288 15.0519 66.3475 17.7861C66.7809 19.1074 67.4257 20.3496 68.2569 21.4644C68.66 22.0104 69.1 22.5281 69.5738 23.0139C70.0483 23.4784 70.5543 23.9096 71.0881 24.3044C71.3453 24.5071 71.6151 24.6932 71.8958 24.8619C72.1767 25.0243 72.4445 25.2042 72.7254 25.3579C73.2923 25.6528 73.879 25.908 74.4812 26.1216C75.0631 26.336 75.6584 26.5119 76.2633 26.6484C76.5662 26.7098 76.8691 26.7449 77.1412 26.7932L77.5801 26.8635C77.7294 26.8635 77.8786 26.8635 78.0191 26.8898L78.897 26.9381C79.1911 26.9381 79.4808 26.9381 79.7749 26.903C80.3421 26.8791 80.9068 26.8146 81.4648 26.7098C83.3307 26.3577 85.1009 25.6148 86.6593 24.5299C88.2177 23.4451 89.529 22.0429 90.5071 20.4153C91.1821 19.3096 91.6853 18.1079 91.9995 16.8511C92.1285 16.3949 92.2238 15.9298 92.2848 15.4597C92.3155 15.2577 92.3506 15.0734 92.3682 14.8978L92.3989 14.4281C92.3989 14.156 92.4297 13.9453 92.4428 13.7917C92.4464 13.7182 92.4537 13.6449 92.4648 13.5722C92.4648 13.5722 92.4648 13.6468 92.4648 13.7917L92.4428 14.4325C92.4428 14.573 92.4428 14.731 92.4428 14.9066C92.4428 15.0822 92.3945 15.2665 92.3682 15.4728C92.3152 15.9454 92.2272 16.4135 92.1048 16.8731C91.8018 18.1438 91.3058 19.3606 90.6344 20.4812C89.6573 22.1362 88.3389 23.5642 86.7669 24.6699C85.1949 25.7757 83.4054 26.5339 81.5175 26.8942C80.951 27.0034 80.3774 27.0723 79.8012 27.1005C79.5115 27.1005 79.2174 27.14 78.9233 27.1356L78.0454 27.0917C77.8962 27.0917 77.7426 27.0917 77.6065 27.0654L77.1675 26.9951C76.8647 26.9468 76.5574 26.9117 76.2545 26.8503C75.6399 26.7125 75.0345 26.5366 74.4417 26.3235C73.8404 26.1024 73.254 25.8428 72.6859 25.5466C72.4006 25.393 72.1241 25.213 71.8387 25.0418C71.5226 24.8744 71.2202 24.6822 70.9345 24.4668C70.3911 24.0623 69.875 23.6224 69.3894 23.15C68.9169 22.6552 68.4771 22.1303 68.0726 21.5785C67.2254 20.4443 66.5686 19.1797 66.1281 17.8343C65.1917 15.0535 65.1917 12.0426 66.1281 9.26175C66.5691 7.9264 67.2228 6.67097 68.0638 5.54388C68.4683 4.99212 68.9081 4.4672 69.3806 3.97245C69.8662 3.50005 70.3823 3.06016 70.9257 2.65562C71.1845 2.44753 71.4589 2.2597 71.7466 2.09377C72.0275 1.92258 72.304 1.74261 72.5893 1.58898C73.1574 1.29275 73.7439 1.03324 74.3451 0.812048C74.9379 0.599036 75.5433 0.42312 76.158 0.285315C76.4608 0.223863 76.7681 0.188746 77.071 0.140462L77.5099 0.0702295C77.6592 0.0702295 77.8128 0.0702306 77.9489 0.0438939L78.8267 0C79.1208 0 79.4193 0.0263342 79.7046 0.0351131C80.2809 0.0632958 80.8544 0.132237 81.4209 0.241418C83.3088 0.601656 85.0983 1.3599 86.6703 2.46566C88.2423 3.57143 89.5607 4.99936 90.5378 6.65441C91.2093 7.775 91.7052 8.99182 92.0083 10.2625C92.1306 10.7221 92.2187 11.1901 92.2716 11.6628C92.298 11.8691 92.3331 12.0578 92.3463 12.229C92.3594 12.4002 92.3463 12.5626 92.3463 12.7031C92.3463 12.9796 92.3463 13.1903 92.3682 13.3439C92.3902 13.4976 92.4648 13.5722 92.4648 13.5722Z" fill="#263238"/>
<g clip-path="url(#clip2_484_15541)">
<path d="M72.4148 18.0557C72.4148 18.058 72.4148 18.0624 72.4121 18.0685C72.4131 18.0644 72.4138 18.06 72.4148 18.0557Z" fill="white"/>
<path d="M85.1901 18.6087C85.0793 18.6063 84.9698 18.5835 84.8672 18.5414L82.9556 17.8636L82.9415 17.8579C82.8998 17.8405 82.855 17.8318 82.8099 17.8323C82.7682 17.8324 82.727 17.8399 82.688 17.8546C82.6415 17.8721 82.2231 18.0293 81.784 18.1498C81.546 18.2151 80.7175 18.4282 80.0526 18.4282C78.353 18.4282 76.764 17.7751 75.5786 16.589C74.9995 16.0135 74.5403 15.3288 74.2276 14.5746C73.9149 13.8204 73.7549 13.0116 73.7569 12.1952C73.7568 11.7697 73.8027 11.3456 73.8935 10.93C74.1895 9.56242 74.9732 8.31843 76.1004 7.42861C77.2566 6.52164 78.684 6.02936 80.1536 6.03076C81.9113 6.03076 83.5492 6.7041 84.7659 7.92217C85.916 9.07593 86.5462 10.593 86.5412 12.1935C86.5402 13.3828 86.185 14.5449 85.5211 15.5315L85.5147 15.541L85.4897 15.5746C85.484 15.5824 85.4783 15.5898 85.4729 15.5975L85.4679 15.6066C85.4545 15.6294 85.4423 15.6529 85.4315 15.677L85.9614 17.5603C85.9848 17.638 85.9975 17.7185 85.9991 17.7997C85.9993 17.906 85.9784 18.0112 85.9378 18.1094C85.8972 18.2076 85.8376 18.2969 85.7625 18.372C85.6873 18.4472 85.5981 18.5068 85.4999 18.5474C85.4017 18.588 85.2964 18.6088 85.1901 18.6087Z" fill="white"/>
<path d="M80.4764 19.275C80.4416 19.2073 80.3926 19.148 80.3329 19.1009C80.2731 19.0538 80.2039 19.0202 80.1299 19.0023C79.9353 18.9508 79.7084 18.9595 79.535 18.9467C77.8979 18.8329 76.3574 18.1303 75.1981 16.9688C74.1674 15.9439 73.4976 14.612 73.2895 13.1735C73.2424 12.8456 73.2424 12.7642 73.2424 12.7642C73.2423 12.6547 73.209 12.5479 73.1468 12.4579C73.0846 12.3679 72.9964 12.299 72.8941 12.2604C72.7918 12.2217 72.6801 12.2151 72.5739 12.2415C72.4677 12.2678 72.3721 12.3259 72.2997 12.408C72.2997 12.408 72.0344 12.6968 71.9092 12.9867C71.5579 13.796 71.4081 14.6784 71.4726 15.5583C71.5371 16.4382 71.814 17.2893 72.2795 18.0387C72.367 18.1845 72.367 18.2518 72.3475 18.4034C72.2556 18.8784 72.0947 19.7164 72.0108 20.151C71.9831 20.2919 71.9934 20.4377 72.0407 20.5734C72.0881 20.709 72.1707 20.8296 72.2802 20.9226L72.2957 20.9358C72.4404 21.0507 72.6198 21.1134 72.8047 21.1135C72.9087 21.1136 73.0117 21.0931 73.1077 21.0533L74.9092 20.358C74.9712 20.3345 75.0398 20.3345 75.1018 20.358C75.8111 20.622 76.5495 20.762 77.2491 20.762C78.1207 20.7629 78.9819 20.5714 79.771 20.2012C79.9549 20.115 80.2424 20.0214 80.4107 19.8268C80.4744 19.7513 80.5146 19.6588 80.5263 19.5607C80.5379 19.4626 80.5206 19.3633 80.4764 19.275Z" fill="white"/>
</g>
<defs>
<clipPath id="clip0_484_15541">
<rect width="15.5137" height="15.5137" fill="white" transform="translate(119.675 19.811)"/>
</clipPath>
<clipPath id="clip1_484_15541">
<rect width="15.5137" height="15.5137" fill="white" transform="translate(22.7783 19.8154)"/>
</clipPath>
<clipPath id="clip2_484_15541">
<rect width="15.5137" height="15.5137" fill="white" transform="translate(71.2422 5.81543)"/>
</clipPath>
</defs>
</svg>
