<svg width="20" height="20" viewBox="0 0 20 20" fill="none" xmlns="http://www.w3.org/2000/svg">
<path d="M18.7504 4.37479V8.12479C18.7504 8.29055 18.6846 8.44952 18.5674 8.56673C18.4501 8.68394 18.2912 8.74979 18.1254 8.74979H14.3754C14.2097 8.74979 14.0507 8.68394 13.9335 8.56673C13.8163 8.44952 13.7504 8.29055 13.7504 8.12479C13.7504 7.95903 13.8163 7.80005 13.9335 7.68284C14.0507 7.56563 14.2097 7.49979 14.3754 7.49979H16.516L14.4387 5.59666L14.4192 5.57791C13.5505 4.70954 12.4452 4.11639 11.2413 3.87256C10.0375 3.62872 8.78847 3.74501 7.65033 4.20689C6.51219 4.66878 5.53538 5.45579 4.84193 6.4696C4.14847 7.48341 3.76911 8.67908 3.75124 9.90724C3.73337 11.1354 4.07779 12.3416 4.74145 13.3752C5.40512 14.4087 6.35862 15.2238 7.48284 15.7186C8.60706 16.2134 9.85215 16.366 11.0626 16.1573C12.273 15.9486 13.3951 15.3878 14.2887 14.5451C14.4092 14.4311 14.57 14.3697 14.7358 14.3743C14.9016 14.3789 15.0587 14.4492 15.1727 14.5697C15.2866 14.6902 15.3481 14.851 15.3435 15.0168C15.3388 15.1826 15.2686 15.3397 15.1481 15.4537C13.7586 16.7714 11.9154 17.5041 10.0004 17.4998H9.89729C8.66896 17.483 7.46357 17.1647 6.38705 16.5729C5.31054 15.9811 4.39587 15.134 3.72343 14.1059C3.05099 13.0779 2.64137 11.9004 2.53057 10.6769C2.41977 9.4535 2.61119 8.22157 3.088 7.08944C3.56481 5.9573 4.31241 4.95962 5.26509 4.18408C6.21778 3.40853 7.34638 2.87888 8.5517 2.64166C9.75703 2.40443 11.0022 2.46691 12.1777 2.8236C13.3532 3.18029 14.4231 3.82027 15.2934 4.68729L17.5004 6.70291V4.37479C17.5004 4.20903 17.5663 4.05005 17.6835 3.93284C17.8007 3.81563 17.9597 3.74979 18.1254 3.74979C18.2912 3.74979 18.4501 3.81563 18.5674 3.93284C18.6846 4.05005 18.7504 4.20903 18.7504 4.37479Z" fill="white"/>
</svg>
