<svg width="249" height="249" viewBox="0 0 249 249" fill="none" xmlns="http://www.w3.org/2000/svg">
<path opacity="0.7" fill-rule="evenodd" clip-rule="evenodd" d="M23 1H1V23H12V13V12H13H23V1ZM1 24H12V225H1H0V226V248V249H1H23H24V248V237H225V248V249H226H248H249V248V226V225H248H237V24H248H249V23V1V0H248H226H225V1V12H24V1V0H23H1H0V1V23V24H1ZM236 225V24H226H225V23V13H24V23V24H23H13V225H23H24V226V236H225V226V225H226H236ZM226 236V226H236V236H226ZM226 237H236H237V236V226H248V248H226V237ZM248 23H237V13V12H236H226V1H248V23ZM236 13H226V23H236V13ZM13 226H23V236H13V226ZM12 226V236V237H13H23V248H1V226H12ZM23 23V13H13V23H23Z" fill="white"/>
</svg>
