<svg width="24" height="24" viewBox="0 0 24 24" fill="none" xmlns="http://www.w3.org/2000/svg">
<rect x="1" y="13" width="17.6359" height="13.4369" rx="2" transform="rotate(-45 1 13)" stroke="black" stroke-width="1.4"/>
<circle cx="10.501" cy="13" r="5.03883" transform="rotate(-45 10.501 13)" stroke="black" stroke-width="1.4"/>
<circle cx="0.839805" cy="0.839805" r="0.839805" transform="matrix(0.707107 -0.707107 -0.707107 -0.707107 10.501 14.1877)" stroke="black" stroke-width="1.4"/>
<path d="M9.54904 9.77579C9.54904 9.77579 8.58055 10.7442 9.75179 12.561" stroke="black" stroke-width="1.4"/>
<path d="M13.7248 12.0487C13.7248 12.0487 12.7564 11.0802 10.9396 12.2514" stroke="black" stroke-width="1.4"/>
<path d="M11.4529 16.2242C11.4529 16.2242 12.4214 15.2558 11.2502 13.439" stroke="black" stroke-width="1.4"/>
<path d="M7.27713 13.9513C7.27713 13.9513 8.24558 14.9198 10.0623 13.7486" stroke="black" stroke-width="1.4"/>
<path d="M12.2236 5.5177L14.0942 3.64713" stroke="black" stroke-width="1.4"/>
<path d="M14.0938 7.38818L15.9643 5.51761" stroke="black" stroke-width="1.4"/>
<path d="M12.876 21.3137L14.3606 19.8291" stroke="black"/>
<path d="M20.5967 13.594L22.0813 12.1094" stroke="black"/>
<path d="M15.9648 9.25879L17.8354 7.38822" stroke="black" stroke-width="1.4"/>
</svg>
