<svg width="24" height="24" viewBox="0 0 24 24" fill="none" xmlns="http://www.w3.org/2000/svg">
<g clip-path="url(#clip0_21_25964)">
<circle cx="12.328" cy="12.0992" r="6.66563" transform="rotate(-45 12.328 12.0992)" stroke="black" stroke-width="1.4"/>
<path d="M8.55664 13.0417L13.27 8.32844L16.0979 11.1564L11.3846 15.8697L8.55664 13.0417Z" stroke="black" stroke-width="1.4"/>
<path d="M15.4422 6.57098L17.4535 4.55972M17.4535 4.55972L16.649 3.75522L18.258 2.14621L19.4647 2.54846L20.6715 1.34171M17.4535 4.55972L19.4647 6.57098" stroke="black" stroke-width="1.4"/>
<path d="M6.78888 15.3301L4.77762 17.3414M4.77762 17.3414L3.97311 16.5369L2.36411 18.1459L2.76636 19.3527L1.5596 20.5594M4.77762 17.3414L6.78888 19.3527" stroke="black" stroke-width="1.4"/>
<path d="M17.8557 8.98431L19.8669 6.97305L20.6714 7.77756L22.2804 6.16855L21.8782 4.96179L23.0849 3.75504" stroke="black" stroke-width="1.4"/>
<path d="M9.20233 17.7433L7.19107 19.7546L7.99558 20.5591L6.38657 22.1681L5.17981 21.7659L3.97305 22.9726" stroke="black" stroke-width="1.4"/>
</g>
<defs>
<clipPath id="clip0_21_25964">
<rect width="24" height="24" fill="white"/>
</clipPath>
</defs>
</svg>
