<svg width="24" height="24" viewBox="0 0 24 24" fill="none" xmlns="http://www.w3.org/2000/svg">
<g clip-path="url(#clip0_21_25931)">
<path d="M5.41829 6.95408C1.77251 9.05897 1.49276 11.3809 2.66214 13.4064C3.59765 15.0267 5.69135 16.1584 6.62126 16.5217L8.49227 19.7624L8.0881 19.9958C6.87278 20.6974 7.40325 22.5516 8.51 23.533L17.0168 18.6216C16.627 17.9465 16.1082 16.5806 14.8032 16.6589C13.968 16.7091 12.2731 17.5796 11.733 17.8914L10.4382 13.7779C11.9959 11.7983 13.008 9.15818 13.606 7.94874C15.2264 7.01323 15.8999 5.72416 15.9932 4.95016L14.3929 2.85284C13.2124 3.028 12.225 3.59807 11.1522 4.72385C10.4561 4.76563 8.33491 5.27016 5.41829 6.95408Z" stroke="black" stroke-width="1.4"/>
<path d="M3.75274 10.6161L4.75092 13.2805" stroke="black" stroke-width="1.4"/>
<path d="M5.37286 9.68055L6.37104 12.3449" stroke="black" stroke-width="1.4"/>
<path d="M6.99298 8.745L7.99115 11.4094" stroke="black" stroke-width="1.4"/>
<path d="M11.1533 4.72323L13.6633 8.13513M15.153 3.93305L18.6866 1.04904M6.62239 16.5211L10.8445 13.5434M10.7233 13.6288L12.0139 15.5688L11.4376 16.4417" stroke="black" stroke-width="1.4"/>
<path d="M8.49316 19.7618L11.7339 17.8908" stroke="black" stroke-width="1.4"/>
</g>
<defs>
<clipPath id="clip0_21_25931">
<rect width="24" height="24" fill="white"/>
</clipPath>
</defs>
</svg>
