<svg width="24" height="24" viewBox="0 0 24 24" fill="none" xmlns="http://www.w3.org/2000/svg">
<path d="M5.04012 19.1998C4.16474 19.7428 2.901 19.0132 2.7069 18.3769C3.55147 12.0499 7.70041 9.72754 8.3488 9.57769C8.06416 7.73592 8.14422 7.01331 8.21983 6.88223L8.86806 6.73229L10.5203 8.73463L11.8495 7.40523C11.2667 5.49616 11.8189 1.62134 15.4486 2.14434L14.8964 6.01917L16.1602 6.74879L18.8185 4.09C19.8553 5.21278 19.984 7.90806 17.1315 9.93057C6.14424 11.4501 5.5921 15.3249 5.04012 19.1998Z" stroke="black" stroke-width="1.4"/>
<path d="M15.2603 11.8268L18.0103 12.5349C18.0889 12.5803 17.3488 13.0966 15.6114 13.771C15.8059 14.4074 15.8691 19.1617 10.812 23.0566C10.1639 23.2067 8.90021 22.477 8.93277 21.4474C11.3315 19.5661 13.7721 17.9563 12.7418 12.3615" stroke="black" stroke-width="1.4"/>
<path d="M14.8733 8.35747C14.748 8.5746 14.4577 8.64173 14.2251 8.50741C13.9924 8.37309 13.9055 8.08819 14.0308 7.87106C14.1562 7.65392 14.4464 7.58679 14.6791 7.72111C14.9117 7.85543 14.9987 8.14034 14.8733 8.35747Z" stroke="black"/>
</svg>
