<svg width="24" height="24" viewBox="0 0 24 24" fill="none" xmlns="http://www.w3.org/2000/svg">
<g clip-path="url(#clip0_21_25925)">
<path d="M9 14.9999L11.5 7.49988M10.5 15.9999L15 9.49988M6.57812 20.8436C6.25265 20.6557 5.57812 19.9374 5.93782 19.1878C5.33877 18.2074 4.78811 17.7339 5.50032 16.5003C5.73772 16.0891 7.05685 13.6382 7.05685 13.6382L7.45567 13.8685C8.53315 10.6927 6 8.99988 8.12212 5.3458C9.54652 2.87866 12.8036 0.921378 16.7918 3.22398C20.7801 5.52659 20.5063 9.55192 19.0819 12.0191C16.7654 16.0314 14.2459 14.3365 12.0343 16.8576L12.4331 17.0878C12.4331 17.0878 11.2377 19.5891 11.0003 20.0003C10.5003 20.5883 8.9066 20.6721 8.28507 20.5883C7.43785 21.0471 6.9036 21.0315 6.57812 20.8436Z" stroke="black" stroke-width="1.4"/>
<path d="M6.76562 14.0087L12.3491 17.2323" stroke="black" stroke-width="1.4"/>
</g>
<defs>
<clipPath id="clip0_21_25925">
<rect width="24" height="24" fill="white"/>
</clipPath>
</defs>
</svg>
