<svg width="5" height="35" viewBox="0 0 5 35" fill="none" xmlns="http://www.w3.org/2000/svg">
<path d="M2.5 11C3.32843 11 4 10.3284 4 9.5C4 8.67157 3.32843 8 2.5 8C1.67157 8 1 8.67157 1 9.5C1 10.3284 1.67157 11 2.5 11Z" fill="#A3A3A3" stroke="#A3A3A3" stroke-linecap="round" stroke-linejoin="round"/>
<path d="M2.5 19C3.32843 19 4 18.3284 4 17.5C4 16.6716 3.32843 16 2.5 16C1.67157 16 1 16.6716 1 17.5C1 18.3284 1.67157 19 2.5 19Z" fill="#A3A3A3" stroke="#A3A3A3" stroke-linecap="round" stroke-linejoin="round"/>
<path d="M2.5 27C3.32843 27 4 26.3284 4 25.5C4 24.6716 3.32843 24 2.5 24C1.67157 24 1 24.6716 1 25.5C1 26.3284 1.67157 27 2.5 27Z" fill="#A3A3A3" stroke="#A3A3A3" stroke-linecap="round" stroke-linejoin="round"/>
</svg>
