<svg width="16" height="16" viewBox="0 0 16 16" fill="none" xmlns="http://www.w3.org/2000/svg">
<g clip-path="url(#clip0_21_23994)">
<path d="M7.044 2.45083C7.33301 1.50843 8.6671 1.50843 8.95611 2.45083L9.72909 4.97135C9.85791 5.39139 10.2458 5.67816 10.6851 5.67816H13.1649C14.1336 5.67816 14.5364 6.91777 13.7527 7.48717L11.7362 8.95222C11.3857 9.20686 11.2391 9.65823 11.3729 10.0702L12.1431 12.4407C12.4425 13.362 11.388 14.1282 10.6043 13.5588L8.58784 12.0937C8.23736 11.8391 7.76276 11.8391 7.41228 12.0937L5.39582 13.5588C4.6121 14.1282 3.55763 13.362 3.85698 12.4407L4.6272 10.0702C4.76107 9.65823 4.61441 9.20686 4.26392 8.95222L2.24747 7.48717C1.46375 6.91777 1.86653 5.67816 2.83525 5.67816H5.31498C5.75433 5.67816 6.14222 5.39139 6.27103 4.97135L7.044 2.45083Z" fill="#EF7800"/>
</g>
<defs>
<clipPath id="clip0_21_23994">
<rect width="16" height="16" fill="white"/>
</clipPath>
</defs>
</svg>
