<svg width="20" height="20" viewBox="0 0 20 20" fill="none" xmlns="http://www.w3.org/2000/svg">
<path d="M17.5 5.99233L14.0078 2.50014C13.8923 2.38345 13.7548 2.29082 13.6033 2.2276C13.4517 2.16439 13.2892 2.13184 13.125 2.13184C12.9608 2.13184 12.7983 2.16439 12.6467 2.2276C12.4952 2.29082 12.3577 2.38345 12.2422 2.50014L10.1797 4.55483L2.86719 11.8751C2.7507 11.9907 2.65828 12.1283 2.59525 12.2798C2.53223 12.4313 2.49985 12.5938 2.5 12.758V16.2501C2.5 16.5817 2.6317 16.8996 2.86612 17.134C3.10054 17.3684 3.41848 17.5001 3.75 17.5001H7.24219C7.4063 17.5003 7.56881 17.4679 7.72034 17.4049C7.87186 17.3419 8.0094 17.2494 8.125 17.133L17.5 7.75795C17.7319 7.52262 17.8619 7.20551 17.8619 6.87514C17.8619 6.54477 17.7319 6.22766 17.5 5.99233ZM4.00781 12.5001L11.25 5.25795L12.5547 6.56264L5.3125 13.8048L4.00781 12.5001ZM3.75 14.008L5.99219 16.2501H3.75V14.008ZM7.5 15.9923L6.19531 14.6876L13.4375 7.44545L14.7422 8.75014L7.5 15.9923Z" fill="#717070"/>
</svg>
