<svg width="85" height="87" viewBox="0 0 85 87" fill="none" xmlns="http://www.w3.org/2000/svg">
<path d="M42.5573 81.7592C41.3094 81.7592 40.1126 81.2634 39.2302 80.381C38.3478 79.4986 37.8521 78.3018 37.8521 77.0539V30.196H47.295V77.0539C47.2951 77.6746 47.1723 78.2891 46.9338 78.8621C46.6953 79.4351 46.3458 79.9552 45.9055 80.3926C45.4651 80.8299 44.9425 81.1758 44.3679 81.4104C43.7933 81.6449 43.178 81.7634 42.5573 81.7592V81.7592Z" stroke="#EA6419" stroke-width="2" stroke-miterlimit="10"/>
<path d="M37.8578 30.1919C34.948 26.2829 33.2415 21.61 32.9474 16.7458C32.9015 9.54083 42.5616 1.85404 42.5616 1.85404C42.5616 1.85404 52.1988 9.56378 52.2217 16.6999C51.9111 21.5607 50.2062 26.229 47.3114 30.146" stroke="#EA6419" stroke-width="2" stroke-miterlimit="10"/>
<path d="M47.2661 43.9143L37.8583 43.7766" stroke="#EA6419" stroke-width="2" stroke-miterlimit="10"/>
</svg>
