<svg width="67" height="69" viewBox="0 0 67 69" fill="none" xmlns="http://www.w3.org/2000/svg">
<path d="M24.0502 55.2438V58.4231H42.7516V55.2438C42.7389 53.7679 43.0428 52.3064 43.6428 50.9579C44.2429 49.6094 45.1251 48.4052 46.2301 47.4266C49.1925 44.8133 51.2889 41.3599 52.2404 37.5258C53.1919 33.6917 52.9533 29.6588 51.5563 25.9637C50.1594 22.2685 47.6704 19.0863 44.4205 16.8406C41.1706 14.5948 37.3139 13.3918 33.3635 13.3918C29.4131 13.3918 25.5564 14.5948 22.3065 16.8406C19.0566 19.0863 16.5676 22.2685 15.1707 25.9637C13.7738 29.6588 13.5352 33.6917 14.4866 37.5258C15.4381 41.3599 17.5345 44.8133 20.497 47.4266C21.6007 48.4106 22.4868 49.6141 23.0987 50.9602C23.7105 52.3063 24.0346 53.7653 24.0502 55.2438V55.2438Z" stroke="#EA6419" stroke-width="2" stroke-miterlimit="10"/>
<path d="M24.0499 57.564V67.5879H42.6391V58.4242" stroke="#EA6419" stroke-width="2" stroke-miterlimit="10"/>
<path d="M33.3633 7.59276V0" stroke="#EA6419" stroke-width="2" stroke-miterlimit="10"/>
<path d="M7.59276 33.0271H0" stroke="#EA6419" stroke-width="2" stroke-miterlimit="10"/>
<path d="M12.9414 14.9612L7.59283 9.5752" stroke="#EA6419" stroke-width="2" stroke-miterlimit="10"/>
<path d="M55.0193 14.9612L60.3679 9.5752" stroke="#EA6419" stroke-width="2" stroke-miterlimit="10"/>
<path d="M59.1712 33.0271H66.7266" stroke="#EA6419" stroke-width="2" stroke-miterlimit="10"/>
</svg>
