<svg width="53" height="76" viewBox="0 0 53 76" fill="none" xmlns="http://www.w3.org/2000/svg">
<path d="M8.41785 67.8174C8.41785 71.6145 16.3948 74.6758 26.0789 74.6758C35.763 74.6758 43.7399 71.7322 43.7399 67.8174" stroke="#EA6419" stroke-width="2" stroke-miterlimit="10"/>
<path d="M21.369 30.4352C22.9291 30.4352 24.5186 30.2585 26.1964 30.2585C27.8742 30.2585 29.4931 30.2585 31.0237 30.4352" stroke="#EA6419" stroke-width="2" stroke-miterlimit="10"/>
<path d="M38.2352 31.4363C41.7674 32.231 43.9456 33.379 43.9456 34.6447C43.9456 37.0289 35.9981 38.9717 26.2846 38.9717C16.571 38.9717 8.62354 37.0289 8.62354 34.6447C8.62354 33.379 10.8312 32.231 14.5105 31.4363" stroke="#EA6419" stroke-width="2" stroke-miterlimit="10"/>
<path d="M8.41785 67.8173V42.0322" stroke="#EA6419" stroke-width="2" stroke-miterlimit="10"/>
<path d="M43.9458 67.8173V42.0322" stroke="#EA6419" stroke-width="2" stroke-miterlimit="10"/>
<path d="M21.5454 25.2845C23.0466 25.2845 24.4889 25.1079 26.1962 25.1079C27.9034 25.1079 29.3163 25.1079 30.8175 25.2845" stroke="#EA6419" stroke-width="2" stroke-miterlimit="10"/>
<path d="M39.4128 26.5785C46.5949 28.3152 51.3634 31.4353 51.3634 34.9969C51.3634 40.4719 40.1192 44.8871 26.1964 44.8871C12.2736 44.8871 1 40.4719 1 34.9969C1 31.4353 5.79792 28.2857 13.0095 26.5491" stroke="#EA6419" stroke-width="2" stroke-miterlimit="10"/>
<path d="M15.7763 37.9411L10.3308 15.5999C9.44304 11.924 9.68933 8.06544 11.0372 4.53227L11.2433 3.94357C11.5666 3.08008 12.1455 2.33571 12.9029 1.80979C13.6602 1.28386 14.5599 1.00139 15.4819 1.00006V1.00006C16.2735 0.995988 17.0522 1.20063 17.7395 1.59338C18.4268 1.98612 18.9984 2.55308 19.3968 3.23712V3.23712C21.2156 6.33516 22.1045 9.89108 21.9576 13.4805L21.1923 34.5855C24.4121 33.3411 27.9891 33.3938 31.1708 34.7326L30.4055 13.5983C30.287 10.0211 31.1742 6.48241 32.9663 3.3843V3.3843C33.367 2.70226 33.9391 2.13693 34.6259 1.74448C35.3127 1.35204 36.0902 1.14613 36.8812 1.14723V1.14723C37.8032 1.14856 38.7029 1.43104 39.4603 1.95696C40.2176 2.48288 40.7966 3.22725 41.1199 4.09074L41.3553 4.67944C42.7027 8.20251 42.949 12.0515 42.0618 15.7176L36.6163 38.0588" stroke="#EA6419" stroke-width="2" stroke-miterlimit="10"/>
</svg>
