<svg width="57" height="57" viewBox="0 0 57 57" fill="none" xmlns="http://www.w3.org/2000/svg">
<path d="M28.0468 55.0935C42.9843 55.0935 55.0935 42.9843 55.0935 28.0468C55.0935 13.1092 42.9843 1 28.0468 1C13.1092 1 1 13.1092 1 28.0468C1 42.9843 13.1092 55.0935 28.0468 55.0935Z" stroke="#EA6419" stroke-width="2" stroke-miterlimit="10"/>
<path d="M1 28.0469H55.0935" stroke="#EA6419" stroke-width="2" stroke-miterlimit="10"/>
<path d="M28.0467 1V55.0935" stroke="#EA6419" stroke-width="2" stroke-miterlimit="10"/>
<path d="M10.305 7.76074C15.2287 13.3909 18.0236 20.5686 18.2036 28.0458C17.9903 35.5382 15.1524 42.7176 10.1853 48.3309" stroke="#EA6419" stroke-width="2" stroke-miterlimit="10"/>
<path d="M45.5793 7.76074C40.6121 13.374 37.7742 20.5535 37.561 28.0458C37.7742 35.5382 40.6121 42.7176 45.5793 48.3309" stroke="#EA6419" stroke-width="2" stroke-miterlimit="10"/>
</svg>
