<svg width="28" height="28" viewBox="0 0 28 28" fill="none" xmlns="http://www.w3.org/2000/svg">
<path d="M11.0836 24.8898C11.6205 24.8898 12.0558 24.4545 12.0558 23.9175C12.0558 23.3806 11.6205 22.9453 11.0836 22.9453C10.5466 22.9453 10.1113 23.3806 10.1113 23.9175C10.1113 24.4545 10.5466 24.8898 11.0836 24.8898Z" stroke="#A3A3A3" stroke-width="2" stroke-linecap="round" stroke-linejoin="round"/>
<path d="M21.7779 24.8898C22.3148 24.8898 22.7501 24.4545 22.7501 23.9175C22.7501 23.3806 22.3148 22.9453 21.7779 22.9453C21.2409 22.9453 20.8057 23.3806 20.8057 23.9175C20.8057 24.4545 21.2409 24.8898 21.7779 24.8898Z" stroke="#A3A3A3" stroke-width="2" stroke-linecap="round" stroke-linejoin="round"/>
<path d="M8.16678 9.33377L9.80011 17.4907C9.88901 17.9383 10.1325 18.3404 10.488 18.6266C10.8435 18.9127 11.2883 19.0647 11.7446 19.056H21.1946C21.6508 19.0647 22.0956 18.9127 22.4511 18.6266C22.8066 18.3404 23.0501 17.9383 23.139 17.4907L24.6946 9.33377H8.16678Z" fill="#A3A3A3"/>
<path d="M3.30566 4.47266H7.19455L9.80011 17.4907M9.80011 17.4907C9.88901 17.9383 10.1325 18.3404 10.488 18.6266C10.8435 18.9127 11.2883 19.0647 11.7446 19.056H21.1946C21.6508 19.0647 22.0956 18.9127 22.4511 18.6266C22.8066 18.3404 23.0501 17.9383 23.139 17.4907L24.6946 9.33377H8.16678L9.80011 17.4907Z" stroke="#A3A3A3" stroke-width="2" stroke-linecap="round" stroke-linejoin="round"/>
</svg>
