<svg width="22" height="20" viewBox="0 0 22 20" fill="none" xmlns="http://www.w3.org/2000/svg">
<path d="M15.3382 0.666016C14.5553 0.666016 13.7801 0.82123 13.0568 1.12279C12.3336 1.42432 11.6766 1.86627 11.1231 2.42338L10.7996 2.74898L10.476 2.42338C9.35807 1.29848 7.84185 0.666509 6.26088 0.666509C4.6799 0.666509 3.16368 1.29848 2.04576 2.42338C0.927844 3.54829 0.299805 5.07399 0.299805 6.66485C0.299805 8.25571 0.927844 9.78141 2.04576 10.9063L10.1512 19.0624C10.5093 19.4228 11.0898 19.4228 11.4479 19.0624L19.5532 10.9065C20.1069 10.3496 20.5462 9.68824 20.8459 8.96051C21.1456 8.23272 21.2998 7.45265 21.2998 6.66485C21.2998 5.87706 21.1456 5.09698 20.8459 4.36919C20.5462 3.64153 20.1071 2.9804 19.5535 2.42354C19.0001 1.8665 18.3428 1.4243 17.6196 1.12279C16.8964 0.82123 16.1211 0.666016 15.3382 0.666016Z" fill="#A3A3A3"/>
</svg>
