<svg width="28" height="28" viewBox="0 0 28 28" fill="none" xmlns="http://www.w3.org/2000/svg">
<path fill-rule="evenodd" clip-rule="evenodd" d="M18.083 8.81416C18.083 11.1051 16.2548 12.9623 13.9997 12.9623C11.7445 12.9623 9.91634 11.1051 9.91634 8.81416C9.91634 6.5232 11.7445 4.66602 13.9997 4.66602C16.2548 4.66602 18.083 6.5232 18.083 8.81416ZM22.1663 21.2586V23.3327H5.83301V21.2586C5.83301 20.1585 6.26321 19.1034 7.02899 18.3254C7.79476 17.5475 8.83337 17.1105 9.91634 17.1105H18.083C19.166 17.1105 20.2046 17.5475 20.9704 18.3254C21.7361 19.1034 22.1663 20.1585 22.1663 21.2586Z" fill="#A3A3A3"/>
<path d="M22.1663 23.3327V24.3327C22.7186 24.3327 23.1663 23.885 23.1663 23.3327H22.1663ZM5.83301 23.3327H4.83301C4.83301 23.885 5.28072 24.3327 5.83301 24.3327V23.3327ZM7.02899 18.3254L6.31634 17.6239L6.31634 17.6239L7.02899 18.3254ZM20.9704 18.3254L21.683 17.6239L21.683 17.6239L20.9704 18.3254ZM13.9997 13.9623C16.8219 13.9623 19.083 11.6425 19.083 8.81416H17.083C17.083 10.5677 15.6878 11.9623 13.9997 11.9623V13.9623ZM8.91634 8.81416C8.91634 11.6425 11.1774 13.9623 13.9997 13.9623V11.9623C12.3116 11.9623 10.9163 10.5677 10.9163 8.81416H8.91634ZM13.9997 3.66602C11.1774 3.66602 8.91634 5.98583 8.91634 8.81416H10.9163C10.9163 7.06058 12.3116 5.66602 13.9997 5.66602V3.66602ZM19.083 8.81416C19.083 5.98583 16.8219 3.66602 13.9997 3.66602V5.66602C15.6878 5.66602 17.083 7.06058 17.083 8.81416H19.083ZM23.1663 23.3327V21.2586H21.1663V23.3327H23.1663ZM5.83301 24.3327H22.1663V22.3327H5.83301V24.3327ZM4.83301 21.2586V23.3327H6.83301V21.2586H4.83301ZM6.31634 17.6239C5.36481 18.5905 4.83301 19.8983 4.83301 21.2586H6.83301C6.83301 20.4186 7.16162 19.6162 7.74164 19.0269L6.31634 17.6239ZM9.91634 16.1105C8.56303 16.1105 7.26839 16.6567 6.31634 17.6239L7.74164 19.0269C8.32113 18.4383 9.10372 18.1105 9.91634 18.1105V16.1105ZM18.083 16.1105H9.91634V18.1105H18.083V16.1105ZM21.683 17.6239C20.731 16.6567 19.4363 16.1105 18.083 16.1105V18.1105C18.8956 18.1105 19.6782 18.4383 20.2577 19.0269L21.683 17.6239ZM23.1663 21.2586C23.1663 19.8983 22.6345 18.5905 21.683 17.6239L20.2577 19.0269C20.8377 19.6162 21.1663 20.4186 21.1663 21.2586H23.1663Z" fill="#A3A3A3"/>
</svg>
