<svg width="20" height="22" viewBox="0 0 20 22" fill="none" xmlns="http://www.w3.org/2000/svg">
<path fill-rule="evenodd" clip-rule="evenodd" d="M14.083 5.81416C14.083 8.10512 12.2548 9.96231 9.99967 9.96231C7.74451 9.96231 5.91634 8.10512 5.91634 5.81416C5.91634 3.5232 7.74451 1.66602 9.99967 1.66602C12.2548 1.66602 14.083 3.5232 14.083 5.81416ZM18.1663 18.2586V20.3327H1.83301V18.2586C1.83301 17.1585 2.26321 16.1034 3.02899 15.3254C3.79476 14.5475 4.83337 14.1105 5.91634 14.1105H14.083C15.166 14.1105 16.2046 14.5475 16.9704 15.3254C17.7361 16.1034 18.1663 17.1585 18.1663 18.2586Z" fill="#A3A3A3"/>
<path d="M18.1663 20.3327V21.3327C18.7186 21.3327 19.1663 20.885 19.1663 20.3327H18.1663ZM1.83301 20.3327H0.833008C0.833008 20.885 1.28072 21.3327 1.83301 21.3327L1.83301 20.3327ZM3.02899 15.3254L2.31634 14.6239L2.31634 14.6239L3.02899 15.3254ZM16.9704 15.3254L17.683 14.6239L17.683 14.6239L16.9704 15.3254ZM9.99967 10.9623C12.8219 10.9623 15.083 8.6425 15.083 5.81416H13.083C13.083 7.56774 11.6878 8.96231 9.99967 8.96231V10.9623ZM4.91634 5.81416C4.91634 8.6425 7.17744 10.9623 9.99967 10.9623V8.96231C8.31158 8.96231 6.91634 7.56774 6.91634 5.81416H4.91634ZM9.99967 0.666016C7.17744 0.666016 4.91634 2.98583 4.91634 5.81416H6.91634C6.91634 4.06058 8.31158 2.66602 9.99967 2.66602V0.666016ZM15.083 5.81416C15.083 2.98583 12.8219 0.666016 9.99967 0.666016V2.66602C11.6878 2.66602 13.083 4.06058 13.083 5.81416H15.083ZM19.1663 20.3327V18.2586H17.1663V20.3327H19.1663ZM1.83301 21.3327H18.1663V19.3327H1.83301V21.3327ZM0.833008 18.2586V20.3327H2.83301V18.2586H0.833008ZM2.31634 14.6239C1.36481 15.5905 0.833008 16.8983 0.833008 18.2586H2.83301C2.83301 17.4186 3.16162 16.6162 3.74164 16.0269L2.31634 14.6239ZM5.91634 13.1105C4.56303 13.1105 3.26839 13.6567 2.31634 14.6239L3.74164 16.0269C4.32113 15.4383 5.10372 15.1105 5.91634 15.1105V13.1105ZM14.083 13.1105H5.91634V15.1105H14.083V13.1105ZM17.683 14.6239C16.731 13.6567 15.4363 13.1105 14.083 13.1105V15.1105C14.8956 15.1105 15.6782 15.4383 16.2577 16.0269L17.683 14.6239ZM19.1663 18.2586C19.1663 16.8983 18.6345 15.5905 17.683 14.6239L16.2577 16.0269C16.8377 16.6162 17.1663 17.4186 17.1663 18.2586H19.1663Z" fill="#A3A3A3"/>
</svg>
