<svg width="24" height="24" viewBox="0 0 24 24" fill="none" xmlns="http://www.w3.org/2000/svg">
<g clip-path="url(#clip0_21_25982)">
<path d="M5.05002 11.4396L15.0097 17.1899C16.7403 18.189 18.2403 15.5909 19.2403 13.8589C19.6545 13.1414 19.9903 12.5598 18.6912 11.8098L12.196 8.05982C10.464 7.05982 12.147 5.14476 13.446 5.89476C15.6111 7.14476 19.0749 9.14528 20.8073 10.1448C22.5396 11.1442 23.7904 8.98036 22.0573 7.97971C20.7086 7.20107 18.144 5.76055 15.5458 4.26046C11.2156 1.76046 8.08094 3.19003 6 6.79422C4.87482 8.74302 4.184 10.9396 5.05002 11.4396Z" stroke="black" stroke-width="1.4"/>
<path d="M15.1299 3.98229L16.9959 2.75024" stroke="black" stroke-width="1.4"/>
<path d="M6.3483 12.1916L5.0983 14.3567M5.0983 14.3567C5.0983 14.3567 4.2322 13.8567 3.36609 13.3566C2.39784 12.7976 1.29925 17.9368 2.59829 18.6868C3.89733 19.4368 7.7986 15.9157 6.83035 15.3567C5.96432 14.8567 5.0983 14.3567 5.0983 14.3567Z" stroke="black" stroke-width="1.4"/>
<path d="M8.9463 13.6916L7.6963 15.8567C7.6963 15.8567 8.56232 16.3567 9.42835 16.8567C10.3966 17.4157 6.49533 20.9368 5.19629 20.1868" stroke="black" stroke-width="1.4"/>
</g>
<defs>
<clipPath id="clip0_21_25982">
<rect width="24" height="24" fill="white"/>
</clipPath>
</defs>
</svg>
