<svg width="24" height="24" viewBox="0 0 24 24" fill="none" xmlns="http://www.w3.org/2000/svg">
<g clip-path="url(#clip0_21_25974)">
<path d="M15.0668 1.61104C15.6959 1.8066 16.3674 2.09899 17.081 2.51097C21.6417 5.14411 20.8802 9.09625 19.9293 10.7432L17.6489 9.42661M15.0668 1.61104C10.6695 0.244264 8.3394 3.60842 8.14744 3.94091L10.4278 5.25747M15.0668 1.61104C16.207 2.26933 17.5629 4.30943 17.2258 6.64859M10.4278 5.25747L17.6489 9.42661M10.4278 5.25747L5.67071 22.2741L8.74205 18.9799M17.6489 9.42661L15.5979 11.6265M14.2705 13.0503L12.7348 14.6974M11.5063 16.0151L10.0756 17.5495" stroke="black" stroke-width="1.4"/>
<path d="M9.98926 6.01764L15.1768 14.5869" stroke="black" stroke-width="1.4"/>
<path d="M7.79492 9.81854L12.4637 17.5308" stroke="black" stroke-width="1.4"/>
<path d="M9.84471 20.6298L6.11914 14.4756" stroke="black" stroke-width="1.4"/>
</g>
<defs>
<clipPath id="clip0_21_25974">
<rect width="24" height="24" fill="white"/>
</clipPath>
</defs>
</svg>
