<svg width="24" height="24" viewBox="0 0 24 24" fill="none" xmlns="http://www.w3.org/2000/svg">
<g clip-path="url(#clip0_21_26012)">
<path d="M23.5605 2.70465C20.979 3.39452 17.7737 9.79105 16.4859 12.4414M16.4859 12.4414L7.21288 7.08864C6.89839 7.63335 6.58318 8.21528 6.1638 8.9057M16.4859 12.4414C16.1714 12.9861 15.6834 13.6731 15.4364 14.2592M11.3629 22.5744C11.6778 22.029 11.9511 20.2959 12.7069 18.9868C13.4584 17.6853 15.6873 16.3439 15.4364 14.2592M0.999406 16.591C1.62923 15.5001 2.80451 14.7242 3.43433 13.6333C4.22162 12.2696 4.15672 10.414 6.1638 8.9057M15.4364 14.2592L6.1638 8.9057" stroke="black" stroke-width="1.4"/>
<path d="M21.3789 1.44507C19.4277 1.04577 16.4473 3.68863 16.824 6.81516" stroke="black" stroke-width="1.4"/>
<path d="M15.7952 9.85725C14.8731 6.41581 9.87966 4.98739 8.15894 5.44845" stroke="black" stroke-width="1.4"/>
</g>
<defs>
<clipPath id="clip0_21_26012">
<rect width="24" height="24" fill="white"/>
</clipPath>
</defs>
</svg>
