<svg width="24" height="24" viewBox="0 0 24 24" fill="none" xmlns="http://www.w3.org/2000/svg">
<g clip-path="url(#clip0_21_25990)">
<path d="M8 17L7 19.5M10.5309 18.1658L9.5 21M12.6105 19.2149L11.6305 22.2156M11.6305 22.2156L4.39362 19.0788C4.39362 19.0788 5.34256 16.9724 6.37156 16.0677C8.13523 15.36 11.0599 5.91389 12.3577 5.47475C13.7278 6.23531 16.5465 7.46271 17.9361 8.14983C18.4736 9.08075 14.0087 16.9337 14.6902 20.2639L13.9033 23.2007L11.6305 22.2156Z" stroke="black" stroke-width="1.4"/>
<path d="M13.7625 4.67094C13.8412 4.37727 14.9405 2.23243 15.4803 1.19673L19.3216 3.0129L18.338 6.68385" stroke="black" stroke-width="1.4"/>
</g>
<defs>
<clipPath id="clip0_21_25990">
<rect width="24" height="24" fill="white"/>
</clipPath>
</defs>
</svg>
