<svg width="24" height="24" viewBox="0 0 24 24" fill="none" xmlns="http://www.w3.org/2000/svg">
<path d="M15.002 9.77682C15.002 9.77682 14.157 17.0754 12.4974 22.5C12.3437 23.0021 11.9881 23.2952 10.7551 22.967C9.00049 22.5001 6.00051 20.5001 4.00051 18.5001C2.79785 17.2974 3.19776 17.0546 3.53311 16.7573L12.7926 8.50121M15.002 9.77682L12.7926 8.50121M15.002 9.77682C15.4277 9.04066 17.2842 6.6756 18.2333 6.73256C18.9925 6.77813 18.8711 5.62784 18.7154 5.047L13.9283 2.28318L13.7727 1.70234L12.668 1.06453L11.3924 3.27396L12.4971 3.91176L13.0779 3.75613L13.4462 3.96873C13.5339 4.1269 13.6231 4.34239 13.6933 4.60238M12.7926 8.50121C13.9522 7.02326 13.9436 5.52974 13.6933 4.60238M13.6933 4.60238C12.964 5.65428 11.3771 6.70202 9.8472 6.80069" stroke="black" stroke-width="1.4"/>
</svg>
