<svg width="162" height="47" viewBox="0 0 162 47" fill="none" xmlns="http://www.w3.org/2000/svg">
<rect x="0.980835" y="0.380554" width="161.019" height="46.3805" rx="8" fill="black"/>
<path d="M82.5816 27.3093C79.7786 27.3093 77.489 29.4572 77.489 32.4001C77.489 35.3291 79.7786 37.4909 82.5816 37.4909C85.3846 37.4909 87.6742 35.3291 87.6742 32.4001C87.6742 29.4572 85.3846 27.3093 82.5816 27.3093ZM82.5816 35.4964C81.0413 35.4964 79.7231 34.2272 79.7231 32.4001C79.7231 30.559 81.0552 29.3038 82.5816 29.3038C84.108 29.3038 85.4401 30.559 85.4401 32.4001C85.454 34.2272 84.1219 35.4964 82.5816 35.4964ZM71.4806 27.3093C68.6776 27.3093 66.388 29.4572 66.388 32.4001C66.388 35.3291 68.6776 37.4909 71.4806 37.4909C74.2836 37.4909 76.5732 35.3291 76.5732 32.4001C76.5732 29.4572 74.2836 27.3093 71.4806 27.3093ZM71.4806 35.4964C69.9403 35.4964 68.6221 34.2272 68.6221 32.4001C68.6221 30.559 69.9542 29.3038 71.4806 29.3038C73.0209 29.3038 74.3391 30.559 74.3391 32.4001C74.3391 34.2272 73.0209 35.4964 71.4806 35.4964ZM58.2704 28.8714V31.0333H63.4185C63.2659 32.2467 62.8635 33.1393 62.2529 33.753C61.5036 34.5062 60.338 35.343 58.2704 35.343C55.1066 35.343 52.6228 32.7767 52.6228 29.5827C52.6228 26.3887 55.1066 23.8224 58.2704 23.8224C59.9772 23.8224 61.2261 24.4919 62.1558 25.3706L63.6683 23.8503C62.3778 22.609 60.671 21.6745 58.2704 21.6745C53.9272 21.6745 50.2777 25.2311 50.2777 29.5967C50.2777 33.9622 53.9272 37.5188 58.2704 37.5188C60.6155 37.5188 62.3778 36.7517 63.7654 35.3012C65.1808 33.8785 65.6248 31.8701 65.6248 30.2382C65.6248 29.7361 65.5832 29.2759 65.5138 28.8853H58.2704V28.8714ZM112.291 30.559C111.874 29.4153 110.584 27.3093 107.947 27.3093C105.339 27.3093 103.16 29.3735 103.16 32.4001C103.16 35.2593 105.311 37.4909 108.197 37.4909C110.528 37.4909 111.86 36.0683 112.429 35.2314L110.695 34.0738C110.112 34.9246 109.335 35.4825 108.197 35.4825C107.059 35.4825 106.254 34.9664 105.741 33.9343L112.527 31.1169L112.291 30.559ZM105.38 32.2606C105.325 30.294 106.893 29.2898 108.031 29.2898C108.919 29.2898 109.668 29.7361 109.918 30.3777L105.38 32.2606ZM99.8714 37.198H102.105V22.2185H99.8714V37.198ZM96.2219 28.453H96.1387C95.6391 27.8532 94.6817 27.3093 93.4744 27.3093C90.9351 27.3093 88.6178 29.5548 88.6178 32.428C88.6178 35.2872 90.949 37.5049 93.4744 37.5049C94.6817 37.5049 95.6391 36.9609 96.1387 36.3472H96.2219V37.0865C96.2219 39.0391 95.1812 40.0852 93.5161 40.0852C92.1562 40.0852 91.3098 39.0949 90.9629 38.272L89.0202 39.0809C89.5752 40.4338 91.06 42.0936 93.5161 42.0936C96.1248 42.0936 98.345 40.5454 98.345 36.7796V27.6301H96.2358V28.453H96.2219ZM93.6687 35.4964C92.1285 35.4964 90.838 34.1993 90.838 32.428C90.838 30.6288 92.1285 29.3177 93.6687 29.3177C95.1812 29.3177 96.3746 30.6288 96.3746 32.428C96.3746 34.1993 95.1812 35.4964 93.6687 35.4964ZM122.739 22.2185H117.411V37.198H119.631V31.5214H122.739C125.209 31.5214 127.624 29.7222 127.624 26.863C127.624 24.0037 125.196 22.2185 122.739 22.2185ZM122.795 29.4432H119.631V24.3106H122.795C124.46 24.3106 125.404 25.6914 125.404 26.8769C125.404 28.0345 124.46 29.4432 122.795 29.4432ZM136.546 27.2814C134.937 27.2814 133.272 27.9927 132.578 29.5688L134.548 30.3917C134.964 29.5688 135.755 29.2898 136.588 29.2898C137.74 29.2898 138.905 29.9872 138.933 31.2146V31.368C138.531 31.1309 137.67 30.7961 136.616 30.7961C134.493 30.7961 132.314 31.9677 132.314 34.1714C132.314 36.1799 134.062 37.463 136.019 37.463C137.518 37.463 138.336 36.7936 138.864 35.9986H138.947V37.1562H141.098V31.4098C141.07 28.7738 139.1 27.2814 136.546 27.2814ZM136.269 35.4964C135.533 35.4964 134.52 35.1338 134.52 34.2272C134.52 33.0696 135.783 32.6233 136.879 32.6233C137.851 32.6233 138.322 32.8325 138.919 33.1254C138.753 34.5201 137.559 35.4964 136.269 35.4964ZM148.896 27.6161L146.343 34.1156H146.26L143.609 27.6161H141.209L145.177 36.6959L142.915 41.7449H145.233L151.352 27.6161H148.896ZM128.859 37.198H131.079V22.2185H128.859V37.198Z" fill="white"/>
<path d="M54.2426 11.963C54.0273 13.1111 53.7482 13.9642 53.4054 14.5224H56.5867V9.0448H54.7449C54.6811 9.41954 54.6213 9.7584 54.5655 10.0614C54.5176 10.3564 54.4698 10.6514 54.422 10.9464C54.3741 11.2414 54.3143 11.5803 54.2426 11.963ZM52.8911 15.6944V17.9429H51.6593L51.5277 15.3835V14.5224H51.8865C52.0061 14.4825 52.1257 14.3749 52.2453 14.1995C52.3649 14.0161 52.4885 13.729 52.616 13.3384C52.7436 12.9477 52.8712 12.4254 52.9988 11.7716C53.0944 11.2853 53.1742 10.8467 53.238 10.456C53.3017 10.0654 53.3655 9.67069 53.4293 9.27203C53.5011 8.8654 53.5808 8.39897 53.6685 7.87274H57.974V14.5224H58.8949V15.3835L58.7634 17.9429H57.5315V15.6944H52.8911Z" fill="white"/>
<path d="M62.782 15.8379C62.2957 15.8379 61.8412 15.7183 61.4186 15.4791C60.996 15.232 60.6532 14.8812 60.3901 14.4267C60.127 13.9642 59.9954 13.4101 59.9954 12.7643C59.9954 12.1105 60.127 11.5563 60.3901 11.1019C60.6532 10.6394 60.996 10.2886 61.4186 10.0494C61.8412 9.80225 62.2957 9.67867 62.782 9.67867C63.2764 9.67867 63.7348 9.80225 64.1574 10.0494C64.58 10.2886 64.9228 10.6394 65.1859 11.1019C65.4491 11.5563 65.5806 12.1105 65.5806 12.7643C65.5806 13.4101 65.4491 13.9642 65.1859 14.4267C64.9228 14.8812 64.58 15.232 64.1574 15.4791C63.7348 15.7183 63.2764 15.8379 62.782 15.8379ZM62.782 14.7137C63.2126 14.7137 63.5514 14.5343 63.7986 14.1755C64.0458 13.8167 64.1694 13.3463 64.1694 12.7643C64.1694 12.1743 64.0458 11.6999 63.7986 11.3411C63.5514 10.9823 63.2126 10.8029 62.782 10.8029C62.3515 10.8029 62.0126 10.9823 61.7655 11.3411C61.5263 11.6999 61.4067 12.1743 61.4067 12.7643C61.4067 13.3463 61.5263 13.8167 61.7655 14.1755C62.0126 14.5343 62.3515 14.7137 62.782 14.7137Z" fill="white"/>
<path d="M69.6329 15.8379C69.0987 15.8379 68.6163 15.7183 68.1858 15.4791C67.7632 15.232 67.4243 14.8812 67.1692 14.4267C66.922 13.9642 66.7985 13.4101 66.7985 12.7643C66.7985 12.1105 66.934 11.5563 67.2051 11.1019C67.4762 10.6394 67.835 10.2886 68.2815 10.0494C68.7359 9.80225 69.2223 9.67867 69.7406 9.67867C70.1153 9.67867 70.4422 9.74245 70.7213 9.87002C71.0003 9.99759 71.2475 10.1531 71.4628 10.3365L70.793 11.2334C70.6415 11.0979 70.486 10.9942 70.3266 10.9225C70.1671 10.8427 69.9957 10.8029 69.8123 10.8029C69.3419 10.8029 68.9552 10.9823 68.6522 11.3411C68.3572 11.6999 68.2097 12.1743 68.2097 12.7643C68.2097 13.3463 68.3532 13.8167 68.6403 14.1755C68.9353 14.5343 69.314 14.7137 69.7764 14.7137C70.0077 14.7137 70.2229 14.6659 70.4223 14.5702C70.6296 14.4666 70.8169 14.347 70.9844 14.2114L71.5465 15.1204C71.2754 15.3596 70.9724 15.5389 70.6375 15.6585C70.3027 15.7781 69.9678 15.8379 69.6329 15.8379Z" fill="white"/>
<path d="M74.1076 15.6944V10.9105H72.2658V9.82218H77.3368V10.9105H75.495V15.6944H74.1076Z" fill="white"/>
<path d="M79.1497 18.1103C78.9902 18.1103 78.8507 18.0983 78.7311 18.0744C78.6115 18.0505 78.4959 18.0226 78.3843 17.9907L78.6354 16.9143C78.6912 16.9303 78.755 16.9462 78.8268 16.9622C78.9065 16.9861 78.9823 16.998 79.054 16.998C79.365 16.998 79.6122 16.9024 79.7955 16.711C79.9869 16.5276 80.1304 16.2884 80.2261 15.9934L80.3337 15.6227L78.0255 9.82218H79.4248L80.4414 12.7045C80.5291 12.9596 80.6128 13.2307 80.6925 13.5177C80.7802 13.7968 80.8679 14.0759 80.9556 14.3549H81.0035C81.0752 14.0838 81.147 13.8088 81.2187 13.5297C81.2985 13.2427 81.3742 12.9676 81.446 12.7045L82.331 9.82218H83.6585L81.5297 15.9575C81.2825 16.6193 80.9835 17.1416 80.6327 17.5243C80.2819 17.915 79.7876 18.1103 79.1497 18.1103Z" fill="white"/>
<path d="M84.9157 15.6944V9.82218H89.9029V15.6944H88.5276V10.9105H86.2911V15.6944H84.9157Z" fill="white"/>
<path d="M91.9056 15.6944V9.82218H93.281V12.0706H95.6251V9.82218H97.0005V15.6944H95.6251V13.2786H93.281V15.6944H91.9056Z" fill="white"/>
<path d="M101.393 15.8379C100.907 15.8379 100.452 15.7183 100.029 15.4791C99.6069 15.232 99.2641 14.8812 99.0009 14.4267C98.7378 13.9642 98.6063 13.4101 98.6063 12.7643C98.6063 12.1105 98.7378 11.5563 99.0009 11.1019C99.2641 10.6394 99.6069 10.2886 100.029 10.0494C100.452 9.80225 100.907 9.67867 101.393 9.67867C101.887 9.67867 102.346 9.80225 102.768 10.0494C103.191 10.2886 103.534 10.6394 103.797 11.1019C104.06 11.5563 104.191 12.1105 104.191 12.7643C104.191 13.4101 104.06 13.9642 103.797 14.4267C103.534 14.8812 103.191 15.232 102.768 15.4791C102.346 15.7183 101.887 15.8379 101.393 15.8379ZM101.393 14.7137C101.823 14.7137 102.162 14.5343 102.409 14.1755C102.657 13.8167 102.78 13.3463 102.78 12.7643C102.78 12.1743 102.657 11.6999 102.409 11.3411C102.162 10.9823 101.823 10.8029 101.393 10.8029C100.962 10.8029 100.623 10.9823 100.376 11.3411C100.137 11.6999 100.018 12.1743 100.018 12.7643C100.018 13.3463 100.137 13.8167 100.376 14.1755C100.623 14.5343 100.962 14.7137 101.393 14.7137Z" fill="white"/>
<path d="M108.426 15.6944V9.82218H110.806C111.244 9.82218 111.631 9.87002 111.966 9.9657C112.308 10.0614 112.58 10.2208 112.779 10.4441C112.978 10.6673 113.078 10.9663 113.078 11.3411C113.078 11.6281 112.994 11.8832 112.827 12.1065C112.667 12.3218 112.424 12.4772 112.097 12.5729V12.6208C112.448 12.7005 112.739 12.852 112.97 13.0752C113.201 13.2905 113.317 13.6015 113.317 14.0081C113.317 14.3988 113.209 14.7217 112.994 14.9768C112.787 15.224 112.504 15.4074 112.145 15.527C111.786 15.6386 111.38 15.6944 110.925 15.6944H108.426ZM109.777 12.2022H110.674C111.057 12.2022 111.332 12.1384 111.499 12.0108C111.667 11.8832 111.75 11.7078 111.75 11.4846C111.75 11.2534 111.671 11.074 111.511 10.9464C111.352 10.8188 111.085 10.755 110.71 10.755H109.777V12.2022ZM109.777 14.7616H110.829C111.228 14.7616 111.515 14.6858 111.691 14.5343C111.874 14.3828 111.966 14.1795 111.966 13.9244C111.966 13.6852 111.866 13.4938 111.667 13.3503C111.475 13.2068 111.18 13.135 110.782 13.135H109.777V14.7616Z" fill="white"/>
<path fill-rule="evenodd" clip-rule="evenodd" d="M13.4249 8.73641C13.0814 9.09769 12.8755 9.67822 12.8755 10.4097V36.7929C12.8755 37.5285 13.0837 38.0975 13.4307 38.4722L13.5139 38.5555L13.5221 38.5473C14.0821 39.0468 14.9423 39.0795 15.9145 38.5278L33.3321 28.6323L33.3227 28.623L33.3314 28.6176L39.1604 25.3006C40.8258 24.3569 40.8258 22.8025 39.1604 21.8587L33.3314 18.5417L33.2204 18.4724L33.2083 18.4845L15.9028 8.66055C14.8757 8.07765 13.9736 8.14705 13.4185 8.72995L13.4249 8.73641Z" fill="white"/>
</svg>
