<svg width="71" height="10" viewBox="0 0 71 10" fill="none" xmlns="http://www.w3.org/2000/svg">
<path fill-rule="evenodd" clip-rule="evenodd" d="M22.802 0.0679256C24.5181 -0.0226448 29.3455 -0.0226389 31.0616 0.0679256C34.1107 0.22884 35.3816 1.20846 35.3474 4.3726C35.3264 6.1404 35.348 9.67704 35.348 9.67704H33.131C33.131 9.67704 33.1522 6.5662 33.1323 5.14747C33.088 2.22767 32.9045 2.20134 29.8246 2.06875C28.7728 2.02347 25.0908 2.02347 24.039 2.06875C20.9853 2.20022 20.7756 2.22757 20.7314 5.14747C20.7116 6.5662 20.7326 9.67704 20.7326 9.67704H18.5156C18.5156 9.67704 18.5372 6.1404 18.5163 4.3726C18.4823 1.20867 19.8544 0.223494 22.802 0.0679256ZM13.1243 7.57393C13.7916 7.56673 14.298 7.56126 14.53 7.56126V0.0225868H16.7643V9.59605C16.385 9.59605 15.726 9.59967 14.8935 9.60423L14.8928 9.60424H14.8926H14.8925C11.9594 9.62032 6.87421 9.6482 4.2865 9.57153C1.13366 9.47812 -0.0332843 8.1442 0.000719897 5.26686C0.0215002 3.49906 9.01903e-05 0.0225868 9.01903e-05 0.0225868H2.21708C2.21708 0.0225868 2.19609 3.45063 2.21603 4.86936C2.25144 7.38887 2.64171 7.4242 5.20783 7.56126C6.73615 7.64289 10.858 7.5984 13.1243 7.57393H13.1243ZM70.9987 9.64635L70.8938 0.0426914C70.8938 0.0426914 65.1975 -0.018912 61.7063 0.072879C59.3666 0.134395 57.6019 0.41436 56.7216 2.67858C55.8414 4.94281 54.2344 9.64635 54.2344 9.64635H56.7216C56.7216 9.64635 57.9776 5.422 58.7568 3.65883C59.2567 2.52763 60.0053 2.32143 61.1356 2.24918C63.2216 2.11583 68.6888 2.15296 68.6888 2.15296V9.64635H70.9987ZM53.8188 3.87248C53.6844 1.34318 52.2303 0.228259 49.5629 0.086778C47.9462 0.00102199 43.0152 0.00102181 41.341 0.086778C38.6451 0.224864 37.2193 1.34318 37.0849 3.87248H37.0787C37.0801 3.88794 37.0814 3.92451 37.0824 3.99618L37.082 4.00894V4.00905C37.0775 4.12821 37.0731 4.24702 37.0745 4.37186C37.0768 4.56493 37.0785 4.73 37.0799 4.87793C37.0785 5.02566 37.0768 5.19073 37.0745 5.38379C37.0731 5.50882 37.0775 5.6278 37.082 5.74694L37.0824 5.75927C37.0814 5.83115 37.0801 5.86751 37.0787 5.88318H37.0849C37.2193 8.41248 38.7256 9.54597 41.341 9.66888C43.5274 9.77164 47.8152 9.74642 49.5629 9.66888C52.1839 9.55259 53.6844 8.41248 53.8188 5.88318H53.8251C53.8236 5.86751 53.8221 5.83115 53.8211 5.75927L53.8219 5.73687L53.8219 5.73665C53.8263 5.62094 53.8306 5.50522 53.8292 5.38379C53.8269 5.19073 53.8253 5.02566 53.8238 4.87793C53.8253 4.73 53.8269 4.56493 53.8292 4.37186C53.8306 4.25049 53.8263 4.13483 53.8219 4.019L53.8211 3.99618C53.8221 3.92451 53.8236 3.88794 53.8251 3.87248H53.8188ZM48.2873 7.64689C46.7397 7.70692 44.1504 7.70692 42.6187 7.64689C39.8218 7.53727 39.3125 7.49373 39.25 4.87772C39.3125 2.26149 39.7836 2.22026 42.6187 2.10833C43.7048 2.06545 47.0231 2.06545 48.2873 2.10833C51.0949 2.20356 51.5935 2.26149 51.656 4.87772C51.5935 7.49373 51.1326 7.53652 48.2873 7.64689Z" fill="black"/>
</svg>
