<svg width="24" height="25" viewBox="0 0 24 25" fill="none" xmlns="http://www.w3.org/2000/svg">
<path d="M4 6.64873C5.10457 6.64873 6 5.7775 6 4.70278C6 3.62807 5.10457 2.75684 4 2.75684C2.89543 2.75684 2 3.62807 2 4.70278C2 5.7775 2.89543 6.64873 4 6.64873Z" fill="#38BE76"/>
<path d="M12 6.64873C13.1046 6.64873 14 5.7775 14 4.70278C14 3.62807 13.1046 2.75684 12 2.75684C10.8954 2.75684 10 3.62807 10 4.70278C10 5.7775 10.8954 6.64873 12 6.64873Z" fill="#38BE76"/>
<path d="M20 6.64873C21.1046 6.64873 22 5.7775 22 4.70278C22 3.62807 21.1046 2.75684 20 2.75684C18.8954 2.75684 18 3.62807 18 4.70278C18 5.7775 18.8954 6.64873 20 6.64873Z" fill="#38BE76"/>
<path d="M4 14.4319C5.10457 14.4319 6 13.5607 6 12.486C6 11.4113 5.10457 10.54 4 10.54C2.89543 10.54 2 11.4113 2 12.486C2 13.5607 2.89543 14.4319 4 14.4319Z" fill="#38BE76"/>
<path d="M12 14.4319C13.1046 14.4319 14 13.5607 14 12.486C14 11.4113 13.1046 10.54 12 10.54C10.8954 10.54 10 11.4113 10 12.486C10 13.5607 10.8954 14.4319 12 14.4319Z" fill="#38BE76"/>
<path d="M20 14.4319C21.1046 14.4319 22 13.5607 22 12.486C22 11.4113 21.1046 10.54 20 10.54C18.8954 10.54 18 11.4113 18 12.486C18 13.5607 18.8954 14.4319 20 14.4319Z" fill="#38BE76"/>
<path d="M4 22.2161C5.10457 22.2161 6 21.3449 6 20.2702C6 19.1954 5.10457 18.3242 4 18.3242C2.89543 18.3242 2 19.1954 2 20.2702C2 21.3449 2.89543 22.2161 4 22.2161Z" fill="#38BE76"/>
<path d="M12 22.2161C13.1046 22.2161 14 21.3449 14 20.2702C14 19.1954 13.1046 18.3242 12 18.3242C10.8954 18.3242 10 19.1954 10 20.2702C10 21.3449 10.8954 22.2161 12 22.2161Z" fill="#38BE76"/>
<path d="M20 22.2161C21.1046 22.2161 22 21.3449 22 20.2702C22 19.1954 21.1046 18.3242 20 18.3242C18.8954 18.3242 18 19.1954 18 20.2702C18 21.3449 18.8954 22.2161 20 22.2161Z" fill="#38BE76"/>
</svg>
