<svg width="24" height="25" viewBox="0 0 24 25" fill="none" xmlns="http://www.w3.org/2000/svg">
<path d="M6 10.5406C8.20914 10.5406 10 8.79816 10 6.64873C10 4.4993 8.20914 2.75684 6 2.75684C3.79086 2.75684 2 4.4993 2 6.64873C2 8.79816 3.79086 10.5406 6 10.5406Z" fill="#CECECE"/>
<path d="M18 10.5406C20.2091 10.5406 22 8.79816 22 6.64873C22 4.4993 20.2091 2.75684 18 2.75684C15.7909 2.75684 14 4.4993 14 6.64873C14 8.79816 15.7909 10.5406 18 10.5406Z" fill="#CECECE"/>
<path d="M6 22.2164C8.20914 22.2164 10 20.4739 10 18.3245C10 16.1751 8.20914 14.4326 6 14.4326C3.79086 14.4326 2 16.1751 2 18.3245C2 20.4739 3.79086 22.2164 6 22.2164Z" fill="#CECECE"/>
<path d="M18 22.2164C20.2091 22.2164 22 20.4739 22 18.3245C22 16.1751 20.2091 14.4326 18 14.4326C15.7909 14.4326 14 16.1751 14 18.3245C14 20.4739 15.7909 22.2164 18 22.2164Z" fill="#CECECE"/>
</svg>
