<svg width="16" height="16" viewBox="0 0 16 16" fill="none" xmlns="http://www.w3.org/2000/svg">
<path fill-rule="evenodd" clip-rule="evenodd" d="M7.99984 15.3337C12.0499 15.3337 15.3332 12.0504 15.3332 8.00033C15.3332 3.95024 12.0499 0.666992 7.99984 0.666992C3.94975 0.666992 0.666504 3.95024 0.666504 8.00033C0.666504 12.0504 3.94975 15.3337 7.99984 15.3337ZM10.7069 5.29322C11.0975 5.68374 11.0975 6.31691 10.7069 6.70743L9.41405 8.00033L10.7069 9.29322C11.0975 9.68374 11.0975 10.3169 10.7069 10.7074C10.3164 11.098 9.68326 11.098 9.29273 10.7074L7.99984 9.41454L6.70694 10.7074C6.31642 11.098 5.68325 11.098 5.29273 10.7074C4.90221 10.3169 4.90221 9.68374 5.29273 9.29322L6.58562 8.00033L5.29273 6.70743C4.90221 6.31691 4.90221 5.68374 5.29273 5.29322C5.68325 4.90269 6.31642 4.90269 6.70694 5.29322L7.99984 6.58611L9.29273 5.29322C9.68326 4.90269 10.3164 4.90269 10.7069 5.29322Z" fill="#A3A3A3"/>
</svg>
