<svg width="175" height="45" viewBox="0 0 175 45" fill="none" xmlns="http://www.w3.org/2000/svg">
<g style="mix-blend-mode:luminosity">
<g style="mix-blend-mode:luminosity">
<path fill-rule="evenodd" clip-rule="evenodd" d="M32.8998 3.72637C39.8377 7.33497 44.577 14.5295 44.577 22.8225C44.577 31.1156 39.8377 38.3328 32.8998 41.9192V39.4534C35.5531 37.8836 37.7974 35.6871 39.4306 33.0874L32.8998 30.4656V26.4759L40.0648 32.0122C41.5614 29.2775 42.4003 26.1617 42.4003 22.822C42.4003 15.784 38.5905 9.59835 32.8998 6.19108V3.72637ZM22.8099 1.2832C26.4379 1.2832 29.8613 2.15771 32.8998 3.72637V6.19222C30.1107 4.53282 26.8456 3.54716 23.3994 3.43487L25.8932 21.0746L32.8998 26.4765V30.4662L22.764 26.409L12.6964 30.4883V26.5207L19.7484 21.0741L22.2198 3.4343C18.7277 3.54659 15.4855 4.53282 12.6964 6.19108V3.72637C15.7126 2.15771 19.1589 1.2832 22.8099 1.2832ZM32.8998 41.9192C29.8613 43.4879 26.4374 44.384 22.8099 44.384C19.1595 44.384 15.7132 43.4879 12.697 41.9414V39.4534C15.6449 41.2234 19.1136 42.2323 22.8099 42.2323C26.4832 42.2323 29.9301 41.2234 32.8998 39.4534V41.9192ZM12.697 41.9414C5.7356 38.3328 0.996826 31.1156 0.996826 22.8225C0.996826 14.5295 5.7356 7.33497 12.697 3.72637V6.19222C6.9828 9.59892 3.17354 15.7624 3.17354 22.8225C3.17354 26.1617 4.0354 29.3229 5.53204 32.057L12.697 26.5207V30.4883L6.18918 33.1322C7.82172 35.7109 10.0437 37.8842 12.697 39.4534V41.9414Z" fill="#7B7B7B"/>
</g>
<g style="mix-blend-mode:luminosity">
<path d="M111.456 15.8545C110.457 16.1169 109.558 16.2748 108.44 16.3936V16.7293C109.698 16.7293 109.858 16.8685 109.858 17.8963V21.352C109.119 20.1671 108.539 19.8122 107.461 19.8122C105.323 19.8122 103.826 21.8062 103.826 24.6511C103.826 27.496 105.343 29.4917 107.521 29.4917C108.66 29.4917 109.438 28.9791 109.997 27.8728C110.077 28.6227 110.078 28.7019 110.278 29.4529C111.096 29.1957 111.435 29.1158 112.615 28.9784L112.913 28.938V28.6023C111.575 28.5631 111.456 28.4639 111.456 27.2594V15.8545ZM57.561 15.9981C56.8016 16.0777 56.4014 16.0982 55.663 16.0982C55.1031 16.0982 54.8042 16.079 54.0261 16.0191V16.5114C55.4037 16.591 55.6826 16.7887 55.6826 17.6978V17.8172L55.2631 27.5161C55.2234 28.5832 55.0248 28.7404 53.6263 28.8396V29.3141C54.6655 29.2346 55.0634 29.2157 55.6222 29.2157C56.182 29.2157 56.5807 29.2346 57.6002 29.3141V28.8396C56.2016 28.7404 55.942 28.5624 55.942 27.6936V27.5161L56.3419 17.2636L59.6173 26.015L59.8572 26.7058L60.1379 27.4757L60.417 28.2472L60.6373 28.88H60.9376L61.1563 28.2279L61.4157 27.4757L61.6948 26.7462L61.9347 26.0925L65.2313 17.2829L65.4109 27.5161V27.6145C65.4109 28.5432 65.1116 28.7601 63.7528 28.8396V29.3141C65.0114 29.1953 65.4904 29.156 66.2497 29.156C67.008 29.156 67.4881 29.1954 68.7467 29.3141V28.8396C67.3084 28.7404 67.128 28.5832 67.1081 27.5161L66.8895 17.8172V17.6784C66.8895 16.789 67.1887 16.591 68.5476 16.5114V16.0191C67.7882 16.0791 67.4687 16.0982 66.9694 16.0982C66.3699 16.0982 65.9511 16.0777 65.0518 15.9982L61.277 25.9956L57.561 15.9981ZM135.262 16.0772V16.5727C136.7 16.6513 136.9 16.8082 136.9 17.8753V27.4563C136.9 28.5234 136.741 28.6611 135.262 28.7799V29.2544H140.316C141.794 29.2544 142.593 29.077 143.432 28.5636C144.431 27.9314 145.09 26.7255 145.09 25.4807C145.09 24.4147 144.63 23.4476 143.851 22.8547C143.431 22.5386 142.991 22.3604 142.273 22.2219C143.711 21.6889 144.471 20.681 144.471 19.2989C144.471 18.2711 144.031 17.3613 143.272 16.789C142.593 16.2953 141.813 16.0772 140.515 16.0772L135.262 16.0772ZM138.578 16.6906H140.275C141.954 16.6906 142.692 17.4999 142.692 19.3376C142.692 20.2456 142.474 20.8983 142.035 21.4117C141.595 21.9055 141.055 22.0638 139.936 22.0638H138.578V16.6906ZM92.6374 19.5152L92.0972 20.5223C91.458 19.9098 90.919 19.6927 90.0605 19.6927C87.7031 19.6927 86.1045 21.7081 86.1045 24.6511C86.1045 27.5352 87.6835 29.4723 90.0001 29.4723C91.7987 29.4723 92.9365 28.3254 93.1955 26.2119H92.3763C92.1371 27.9504 91.3971 28.8202 90.1584 28.8202C88.6209 28.8202 87.8426 27.4175 87.8426 24.6511C87.8426 21.8259 88.7226 20.227 90.2204 20.227C91.4393 20.227 92.1769 21.0561 92.5362 22.7739H92.9769V19.5152L92.6374 19.5152ZM128.429 19.5749L128.089 20.3835C127.41 19.9301 126.832 19.7524 126.052 19.7524C124.295 19.7524 123.056 20.8193 123.056 22.3801C123.056 23.5257 123.517 24.0787 124.974 24.7512L125.893 25.1644L126.651 25.5001C127.63 25.935 128.011 26.3895 128.011 27.0609C128.011 28.0691 127.131 28.8396 125.953 28.8396C124.554 28.8396 123.715 27.9706 123.355 26.1732L122.917 26.1925V29.4917H123.276L123.755 28.6023C124.514 29.1953 125.233 29.432 126.152 29.432C128.03 29.432 129.369 28.248 129.369 26.588C129.369 25.4228 128.828 24.7897 127.311 24.1378L126.472 23.7827C124.653 22.9925 124.355 22.7362 124.355 21.9459C124.355 21.0173 125.174 20.3061 126.232 20.3061C127.491 20.3061 128.149 21.0573 128.329 22.6368H128.789V19.5749H128.429ZM157.956 19.5749C157.159 19.8517 156.478 20.0092 155.319 20.1673V20.503C155.419 20.503 155.521 20.5223 155.58 20.5223C156.58 20.5223 156.698 20.6422 156.718 21.452V21.7474V27.8518C156.718 28.7009 156.52 28.8598 155.301 28.9187V29.3141C156.34 29.215 156.758 29.1963 157.457 29.1963C158.177 29.1963 158.577 29.215 159.616 29.3141V28.9187C158.577 28.8794 158.317 28.6813 158.317 27.8921V23.1097C158.317 21.4899 159.036 20.6418 160.394 20.6418C161.672 20.6418 162.191 21.3327 162.191 23.0516V27.8921C162.191 28.6814 161.932 28.8794 160.853 28.9187V29.3141C161.891 29.215 162.291 29.1963 163.03 29.1963C163.749 29.1963 164.15 29.215 165.209 29.3141V28.9187C163.99 28.8598 163.789 28.7009 163.789 27.8518V23.1097C163.789 22.3597 163.689 21.8068 163.489 21.3326C163.09 20.3647 162.051 19.7524 160.853 19.7524C159.696 19.7524 158.875 20.2268 158.155 21.2939C158.115 20.5429 158.056 20.0294 157.956 19.5749V19.5749ZM81.0813 19.6136C80.2613 19.8502 79.5824 19.9696 78.444 20.0688V20.4239H78.7034C79.7417 20.4435 79.8423 20.5432 79.8622 21.3923V21.7087V27.8518C79.8622 28.7009 79.6433 28.8598 78.4244 28.9187V29.3141C79.5231 29.2149 79.9422 29.1947 80.6618 29.1947C81.3606 29.1947 81.7803 29.2149 82.8781 29.3141V28.9187C81.6602 28.8598 81.4599 28.7009 81.4599 27.8518V23.723C81.4599 21.7665 82.1189 20.524 83.1571 20.524C83.5165 20.524 83.7577 20.72 83.7577 20.9969V21.1744L83.717 21.373C83.6972 21.4525 83.6778 21.5306 83.6778 21.5699C83.6778 21.9655 84.0375 22.2413 84.497 22.2413C84.9963 22.2413 85.3359 21.8656 85.3359 21.2923C85.3359 20.345 84.5963 19.6927 83.5978 19.6927C82.5596 19.6927 81.6995 20.3454 81.2608 21.4714V21.2535C81.2202 20.6606 81.1804 20.345 81.0813 19.6136ZM73.5986 19.6927C71.2015 19.6927 69.7046 21.6089 69.7046 24.6511C69.7046 27.6933 71.2014 29.4723 73.7781 29.4723C75.7354 29.4723 77.0137 28.2663 77.2738 26.2313H76.4758C76.2355 27.9109 75.3564 28.8202 73.938 28.8202C72.1206 28.8202 71.3222 27.4382 71.3024 24.3557H77.2542C77.2145 21.3135 75.9559 19.6927 73.5986 19.6927ZM98.5142 19.6927C96.1171 19.6927 94.6186 21.6089 94.6186 24.6511C94.6186 27.6933 96.117 29.4723 98.6937 29.4723C100.651 29.4723 101.93 28.2663 102.189 26.2313H101.39C101.151 27.9109 100.272 28.8202 98.8536 28.8202C97.0363 28.8202 96.2362 27.4382 96.2163 24.3557H102.17C102.129 21.3135 100.872 19.6927 98.5142 19.6927ZM117.566 19.6927C115.169 19.6927 113.671 21.6089 113.671 24.6511C113.671 27.6933 115.169 29.4723 117.746 29.4723C119.703 29.4723 120.981 28.2663 121.241 26.2313H120.442C120.201 27.9109 119.324 28.8202 117.906 28.8202C116.088 28.8202 115.288 27.4382 115.268 24.3557H121.222C121.181 21.3135 119.922 19.6927 117.566 19.6927ZM150.607 19.6927C148.21 19.6927 146.712 21.6089 146.712 24.6511C146.712 27.6933 148.21 29.4723 150.787 29.4723C152.744 29.4723 154.023 28.2663 154.283 26.2313H153.483C153.244 27.9109 152.366 28.8202 150.948 28.8202C149.13 28.8202 148.331 27.4382 148.311 24.3557H154.263C154.222 21.3135 152.965 19.6927 150.607 19.6927ZM166.665 19.93L166.203 22.4979H166.604C167.323 20.7202 167.642 20.4432 168.941 20.4432H171.396L165.984 29.2544H172.855L173.375 26.4104H172.956C172.355 28.2078 171.798 28.7411 170.438 28.7411H168.102L173.535 19.93L166.665 19.93ZM73.579 20.206C74.8773 20.206 75.5364 21.3125 75.6565 23.6439H71.3415C71.541 21.3724 72.3005 20.206 73.579 20.206ZM98.493 20.206C99.7913 20.206 100.45 21.3125 100.571 23.6439H96.2555C96.455 21.3724 97.2145 20.206 98.493 20.206ZM117.546 20.206C118.845 20.206 119.504 21.3125 119.624 23.6439H115.309C115.509 21.3724 116.268 20.206 117.546 20.206ZM150.588 20.206C151.886 20.206 152.545 21.3125 152.665 23.6439H148.35C148.55 21.3724 149.309 20.206 150.588 20.206ZM107.64 20.3642C109.118 20.3642 109.878 21.8668 109.878 24.7705C109.878 27.5163 109.139 28.938 107.701 28.938C106.262 28.938 105.504 27.457 105.504 24.6317C105.504 21.7672 106.202 20.3642 107.64 20.3642ZM138.578 22.6771H140.476C141.535 22.6771 142.133 22.8537 142.593 23.3082C143.052 23.7627 143.311 24.6115 143.311 25.5598C143.311 27.5349 142.312 28.6427 140.535 28.6427H139.817C138.758 28.6427 138.578 28.4833 138.578 27.6145V22.6771ZM130.567 23.4599V24.4816H135.03V23.4599H130.567Z" fill="#7B7B7B"/>
</g>
</g>
</svg>
