<svg width="52" height="30" viewBox="0 0 52 30" fill="none" xmlns="http://www.w3.org/2000/svg">
<path d="M5.49897 0.917969V10.8711H3.45503V0.917969H5.49897ZM8.56147 0.917969V2.52441H0.44038V0.917969H8.56147ZM13.6064 7.32324H11.0703V5.72363H13.6064C13.9983 5.72363 14.3173 5.65983 14.5634 5.53223C14.8095 5.40007 14.9895 5.21777 15.1035 4.98535C15.2174 4.75293 15.2744 4.49089 15.2744 4.19922C15.2744 3.90299 15.2174 3.62728 15.1035 3.37207C14.9895 3.11686 14.8095 2.91178 14.5634 2.75684C14.3173 2.60189 13.9983 2.52441 13.6064 2.52441H11.7812V10.8711H9.73042V0.917969H13.6064C14.3857 0.917969 15.0533 1.05924 15.6093 1.3418C16.1699 1.61979 16.5983 2.00488 16.8945 2.49707C17.1907 2.98926 17.3388 3.55208 17.3388 4.18555C17.3388 4.82812 17.1907 5.38411 16.8945 5.85352C16.5983 6.32292 16.1699 6.68522 15.6093 6.94043C15.0533 7.19564 14.3857 7.32324 13.6064 7.32324ZM25.4326 9.27148V10.8711H20.1347V9.27148H25.4326ZM20.8046 0.917969V10.8711H18.7539V0.917969H20.8046ZM24.7421 4.97168V6.53027H20.1347V4.97168H24.7421ZM25.4257 0.917969V2.52441H20.1347V0.917969H25.4257ZM33.2666 4.97168V6.57129H28.0712V4.97168H33.2666ZM28.6796 0.917969V10.8711H26.6289V0.917969H28.6796ZM34.7294 0.917969V10.8711H32.6855V0.917969H34.7294ZM43.1923 9.27148V10.8711H37.8945V9.27148H43.1923ZM38.5644 0.917969V10.8711H36.5136V0.917969H38.5644ZM42.5019 4.97168V6.53027H37.8945V4.97168H42.5019ZM43.1855 0.917969V2.52441H37.8945V0.917969H43.1855ZM48.2646 7.32324H45.7285V5.72363H48.2646C48.6565 5.72363 48.9755 5.65983 49.2216 5.53223C49.4677 5.40007 49.6477 5.21777 49.7617 4.98535C49.8756 4.75293 49.9326 4.49089 49.9326 4.19922C49.9326 3.90299 49.8756 3.62728 49.7617 3.37207C49.6477 3.11686 49.4677 2.91178 49.2216 2.75684C48.9755 2.60189 48.6565 2.52441 48.2646 2.52441H46.4394V10.8711H44.3886V0.917969H48.2646C49.0439 0.917969 49.7115 1.05924 50.2675 1.3418C50.8281 1.61979 51.2565 2.00488 51.5527 2.49707C51.8489 2.98926 51.997 3.55208 51.997 4.18555C51.997 4.82812 51.8489 5.38411 51.5527 5.85352C51.2565 6.32292 50.8281 6.68522 50.2675 6.94043C49.7115 7.19564 49.0439 7.32324 48.2646 7.32324Z" fill="#172321"/>
<path d="M10.4345 18.918V28.8711H8.38374V20.5244H4.38472V28.8711H2.33393V18.918H10.4345ZM16.1015 25.3232H13.5654V23.7236H16.1015C16.4934 23.7236 16.8125 23.6598 17.0585 23.5322C17.3046 23.4001 17.4847 23.2178 17.5986 22.9854C17.7125 22.7529 17.7695 22.4909 17.7695 22.1992C17.7695 21.903 17.7125 21.6273 17.5986 21.3721C17.4847 21.1169 17.3046 20.9118 17.0585 20.7568C16.8125 20.6019 16.4934 20.5244 16.1015 20.5244H14.2763V28.8711H12.2255V18.918H16.1015C16.8808 18.918 17.5485 19.0592 18.1044 19.3418C18.665 19.6198 19.0934 20.0049 19.3896 20.4971C19.6858 20.9893 19.8339 21.5521 19.8339 22.1855C19.8339 22.8281 19.6858 23.3841 19.3896 23.8535C19.0934 24.3229 18.665 24.6852 18.1044 24.9404C17.5485 25.1956 16.8808 25.3232 16.1015 25.3232ZM29.4248 23.6621V24.1338C29.4248 24.8903 29.3222 25.5693 29.1171 26.1709C28.9121 26.7725 28.6227 27.2852 28.249 27.709C27.8753 28.1283 27.4287 28.4495 26.9091 28.6729C26.3942 28.8962 25.8222 29.0078 25.1933 29.0078C24.569 29.0078 23.997 28.8962 23.4775 28.6729C22.9625 28.4495 22.5159 28.1283 22.1376 27.709C21.7594 27.2852 21.4654 26.7725 21.2558 26.1709C21.0507 25.5693 20.9482 24.8903 20.9482 24.1338V23.6621C20.9482 22.901 21.0507 22.222 21.2558 21.625C21.4609 21.0234 21.7503 20.5107 22.124 20.0869C22.5022 19.6631 22.9488 19.3395 23.4638 19.1162C23.9833 18.8929 24.5553 18.7812 25.1796 18.7812C25.8085 18.7812 26.3805 18.8929 26.8955 19.1162C27.415 19.3395 27.8616 19.6631 28.2353 20.0869C28.6136 20.5107 28.9052 21.0234 29.1103 21.625C29.3199 22.222 29.4248 22.901 29.4248 23.6621ZM27.3535 24.1338V23.6484C27.3535 23.1198 27.3056 22.6549 27.2099 22.2539C27.1142 21.8529 26.9729 21.5156 26.7861 21.2422C26.5992 20.9688 26.3714 20.7637 26.1025 20.627C25.8336 20.4857 25.526 20.415 25.1796 20.415C24.8333 20.415 24.5257 20.4857 24.2568 20.627C23.9925 20.7637 23.7669 20.9688 23.58 21.2422C23.3977 21.5156 23.2587 21.8529 23.163 22.2539C23.0673 22.6549 23.0195 23.1198 23.0195 23.6484V24.1338C23.0195 24.6579 23.0673 25.1227 23.163 25.5283C23.2587 25.9294 23.4 26.2689 23.5869 26.5469C23.7737 26.8203 24.0016 27.0277 24.2705 27.1689C24.5393 27.3102 24.847 27.3809 25.1933 27.3809C25.5397 27.3809 25.8473 27.3102 26.1162 27.1689C26.385 27.0277 26.6106 26.8203 26.7929 26.5469C26.9752 26.2689 27.1142 25.9294 27.2099 25.5283C27.3056 25.1227 27.3535 24.6579 27.3535 24.1338ZM34.6474 19.8135H36.8623C37.4547 19.8135 38.0016 19.9115 38.5029 20.1074C39.0042 20.2988 39.4394 20.5768 39.8085 20.9414C40.1822 21.3014 40.4716 21.7367 40.6767 22.2471C40.8818 22.7529 40.9843 23.318 40.9843 23.9424C40.9843 24.5531 40.8818 25.109 40.6767 25.6104C40.4716 26.1071 40.1822 26.5332 39.8085 26.8887C39.4394 27.2441 39.0042 27.5176 38.5029 27.709C38.0016 27.9004 37.4547 27.9961 36.8623 27.9961H34.6474C34.0504 27.9961 33.5013 27.9004 33 27.709C32.4986 27.5176 32.0611 27.2464 31.6875 26.8955C31.3138 26.54 31.0221 26.1139 30.8125 25.6172C30.6074 25.1204 30.5048 24.5667 30.5048 23.9561C30.5048 23.3317 30.6074 22.7666 30.8125 22.2607C31.0221 21.7503 31.3138 21.3128 31.6875 20.9482C32.0611 20.5837 32.4986 20.3034 33 20.1074C33.5013 19.9115 34.0504 19.8135 34.6474 19.8135ZM34.6474 21.4541C34.2099 21.4541 33.8248 21.5498 33.4921 21.7412C33.1595 21.9326 32.902 22.2152 32.7197 22.5889C32.5374 22.958 32.4462 23.4137 32.4462 23.9561C32.4462 24.348 32.4986 24.6943 32.6035 24.9951C32.7128 25.2913 32.8655 25.5397 33.0615 25.7402C33.2574 25.9408 33.4899 26.0934 33.7587 26.1982C34.0276 26.3031 34.3238 26.3555 34.6474 26.3555H36.8759C37.3089 26.3555 37.6871 26.262 38.0107 26.0752C38.3388 25.8883 38.594 25.6149 38.7763 25.2549C38.9586 24.8949 39.0498 24.4574 39.0498 23.9424C39.0498 23.5368 38.9973 23.179 38.8925 22.8691C38.7877 22.5592 38.6396 22.2995 38.4482 22.0898C38.2568 21.8802 38.0266 21.723 37.7578 21.6182C37.4934 21.5088 37.1995 21.4541 36.8759 21.4541H34.6474ZM36.7392 18.5078V29.2812H34.7705V18.5078H36.7392ZM44.3066 25.6445L48.3056 18.918H50.3564V28.8711H48.3056V22.1445L44.3066 28.8711H42.2558V18.918H44.3066V25.6445Z" fill="#FF6600"/>
</svg>
