<svg width="38" height="47" viewBox="0 0 38 47" fill="none" xmlns="http://www.w3.org/2000/svg">
<path d="M18.9646 11.959C14.7031 11.959 11.2493 15.5353 11.2493 19.9192C11.2493 24.3319 14.7031 27.9082 18.9646 27.9082C23.1983 27.9082 26.6799 24.3319 26.6799 19.9192C26.6799 15.5353 23.1983 11.959 18.9646 11.959ZM18.9646 24.7933C16.3743 24.7933 14.2574 22.6014 14.2574 19.9192C14.2574 17.2369 16.3743 15.0738 18.9646 15.0738C21.5549 15.0738 23.6718 17.2369 23.6718 19.9192C23.6718 22.6014 21.5549 24.7933 18.9646 24.7933Z" fill="#D9232E"/>
<path d="M28.212 29.5228L28.2399 29.494C30.6074 27.0425 32.0558 23.668 32.0558 19.9187C32.0558 12.4488 26.1787 6.36328 18.9648 6.36328C11.7508 6.36328 5.87378 12.4488 5.87378 19.9187C5.87378 23.668 7.35 27.0713 9.68966 29.494C9.9682 29.7824 10.3581 29.9554 10.7759 29.9554C11.6115 29.9554 12.28 29.2633 12.28 28.398C12.28 27.9654 12.085 27.5616 11.8065 27.2732C9.99605 25.3985 8.88192 22.8028 8.88192 19.9187C8.88192 14.1504 13.3941 9.47814 18.9648 9.47814C24.5354 9.47814 29.0476 14.1504 29.0476 19.9187C29.0476 22.8028 27.9335 25.4274 26.0952 27.302L13.0042 40.8574L15.1489 43.0494L28.212 29.5228Z" fill="#D9232E"/>
<path d="M37.4592 19.9182C37.4592 9.36228 29.1868 0.767578 18.9647 0.767578C8.74261 0.767578 0.470215 9.36228 0.470215 19.9182C0.470215 25.1961 2.53135 30.0126 5.87373 33.4447C6.15226 33.7332 6.51436 33.9062 6.96001 33.9062C7.76775 33.9062 8.46408 33.214 8.46408 32.3488C8.46408 31.9162 8.26911 31.5124 7.99057 31.224C5.20526 28.3398 3.47836 24.3309 3.47836 19.9182C3.47836 11.0928 10.4138 3.88244 18.9647 3.88244C27.5157 3.88244 34.4511 11.0928 34.4511 19.9182C34.4511 24.3597 32.7242 28.3687 29.911 31.2528L16.82 44.8082L18.9647 47.0001L32.0557 33.4447C35.3981 29.9838 37.4592 25.1961 37.4592 19.9182Z" fill="#D9232E"/>
<path d="M1.76473 45.0059L0.289522 42.8108L0.529681 42.5613L2.16017 43.2636L1.49738 41.5557L1.73754 41.3062L3.83435 42.8554L3.48823 43.2151L2.22569 42.2487L2.87403 43.9125L2.7822 44.0079L1.2087 43.3351L2.11085 44.6463L1.76473 45.0059Z" fill="#D9232E"/>
<path d="M3.44013 40.8091C3.53195 40.7137 3.631 40.6404 3.73727 40.5891C3.84355 40.5379 3.9499 40.5013 4.07062 40.4942C4.18427 40.4945 4.29094 40.5168 4.40484 40.5612C4.51873 40.6056 4.6185 40.6646 4.71136 40.7604C4.80423 40.8563 4.86876 40.9667 4.91202 41.0845C4.94813 41.1949 4.97719 41.3127 4.96362 41.4303C4.96426 41.548 4.92934 41.6583 4.88021 41.7685C4.83109 41.8787 4.76061 41.9815 4.66879 42.0769C4.57696 42.1724 4.47791 42.2457 4.37164 42.2969C4.26537 42.3482 4.15902 42.3847 4.04536 42.3845C3.93885 42.3916 3.81797 42.3693 3.71122 42.3323C3.59733 42.2879 3.49748 42.2141 3.40461 42.1183C3.31175 42.0225 3.2473 41.9267 3.20404 41.8089C3.16078 41.6911 3.14593 41.5734 3.1453 41.4557C3.14466 41.3381 3.17958 41.2278 3.2287 41.1176C3.27783 41.0074 3.3483 40.9045 3.44013 40.8091ZM4.37591 41.7747C4.46774 41.6793 4.51686 41.5691 4.51614 41.4367C4.5155 41.319 4.47224 41.2012 4.37938 41.1054C4.28652 41.0096 4.17976 40.9726 4.05897 40.965C3.9311 40.9647 3.82483 41.0159 3.72586 41.104C3.63404 41.1994 3.59205 41.317 3.59984 41.442C3.60056 41.5744 3.64374 41.6775 3.7366 41.7733C3.82946 41.8691 3.93629 41.9209 4.06416 41.9211C4.17781 41.9214 4.29123 41.8775 4.37591 41.7747Z" fill="#D9232E"/>
<path d="M5.27705 39.0488L5.59136 39.3731C5.52747 39.3803 5.47072 39.3949 5.40691 39.4168C5.34318 39.4535 5.28651 39.4828 5.23 39.5415C5.13111 39.6442 5.08913 39.7618 5.09692 39.8869C5.09763 40.0193 5.14788 40.115 5.24074 40.2108C5.3336 40.3066 5.44043 40.3584 5.56829 40.3586C5.68901 40.3516 5.79528 40.3003 5.89417 40.1975C5.93655 40.1535 5.97179 40.1021 6.00695 40.036C6.03504 39.9772 6.04178 39.911 6.04138 39.8375L6.36283 40.1692C6.34188 40.2353 6.30673 40.3014 6.27157 40.3675C6.23641 40.4337 6.19411 40.4924 6.14467 40.5438C6.05276 40.6245 5.95371 40.6978 5.84744 40.7491C5.74117 40.8003 5.63474 40.8222 5.52823 40.8293C5.42172 40.8364 5.31505 40.8141 5.20115 40.7697C5.10147 40.7254 5.00162 40.6516 4.9159 40.5631C4.8159 40.46 4.73716 40.3495 4.6939 40.2317C4.65064 40.1139 4.6358 39.9962 4.64222 39.8712C4.64872 39.7608 4.67658 39.6579 4.71864 39.5551C4.76078 39.4669 4.82419 39.3714 4.90189 39.2907C4.9584 39.232 5.02205 39.1806 5.08578 39.144C5.14237 39.1 5.21324 39.0707 5.27705 39.0488Z" fill="#D9232E"/>
<path d="M5.53125 38.709L5.84911 38.3787L6.29914 38.8431L6.27998 37.931L6.67554 37.52L6.67423 38.5865L7.85388 38.6773L7.44419 39.103L6.57717 39.0276L6.57773 39.1305L6.99919 39.5654L6.68133 39.8957L5.53125 38.709Z" fill="#D9232E"/>
<path d="M7.31781 36.7798C7.40964 36.6844 7.50869 36.6111 7.61496 36.5598C7.72123 36.5086 7.82758 36.472 7.9483 36.4649C8.06196 36.4652 8.16863 36.4875 8.28252 36.5319C8.39642 36.5763 8.49619 36.6353 8.58905 36.7311C8.68191 36.827 8.74644 36.9374 8.7897 37.0552C8.82582 37.1656 8.85487 37.2834 8.84837 37.3937C8.84194 37.5187 8.80703 37.629 8.7579 37.7392C8.70877 37.8494 8.6383 37.9522 8.54647 38.0476C8.45465 38.1431 8.3556 38.2164 8.24933 38.2676C8.14306 38.3189 8.04377 38.3481 7.92305 38.3552C7.81654 38.3623 7.69566 38.34 7.58891 38.303C7.47501 38.2586 7.37516 38.1848 7.2823 38.089C7.18944 37.9932 7.12499 37.8974 7.08173 37.7796C7.03847 37.6618 7.02362 37.5441 7.02298 37.4264C7.02941 37.3014 7.05726 37.1985 7.10639 37.0883C7.15551 36.9781 7.22599 36.8752 7.31781 36.7798ZM8.2536 37.7454C8.34542 37.65 8.39455 37.5398 8.39383 37.4074C8.39319 37.2897 8.34993 37.1719 8.25706 37.0761C8.1642 36.9803 8.05745 36.9433 7.93665 36.9357C7.80879 36.9354 7.70252 36.9866 7.60355 37.0747C7.51172 37.1701 7.46974 37.2877 7.47752 37.4127C7.47824 37.5451 7.52142 37.6482 7.61429 37.744C7.70715 37.8398 7.81398 37.8916 7.94184 37.8918C8.0555 37.8921 8.16891 37.8482 8.2536 37.7454Z" fill="#D9232E"/>
<path d="M8.23657 35.8984L8.73808 35.3773C8.80871 35.3039 8.8653 35.2599 8.92197 35.2306C8.97149 35.194 9.02824 35.1794 9.08499 35.1648C9.14181 35.1649 9.19864 35.165 9.26269 35.1872C9.3196 35.2021 9.36952 35.239 9.41953 35.2906C9.46953 35.3422 9.49826 35.4011 9.51287 35.4747C9.52747 35.5482 9.52787 35.6218 9.49986 35.6953C9.53526 35.6733 9.56359 35.6586 9.60613 35.644C9.64867 35.6294 9.68415 35.6221 9.71963 35.6149C9.77645 35.615 9.83336 35.6298 9.8832 35.652C9.93305 35.6742 9.97583 35.7037 10.0187 35.7479C10.0758 35.8069 10.1188 35.8658 10.1404 35.9321C10.1621 35.9983 10.1625 36.0719 10.1558 36.138C10.1561 36.1969 10.128 36.2557 10.0999 36.3144C10.0718 36.3732 10.0224 36.4246 9.97292 36.476L9.38665 37.0852L8.23657 35.8984ZM9.0116 36.0399L9.15993 35.8858L9.20938 35.8344C9.21636 35.8123 9.22335 35.7903 9.22327 35.7756C9.23025 35.7535 9.23723 35.7315 9.23001 35.7094C9.22279 35.6873 9.2085 35.6726 9.18707 35.6505C9.17278 35.6357 9.1585 35.621 9.13715 35.6136C9.1158 35.6062 9.09445 35.5988 9.07318 35.6061C9.05897 35.606 9.0377 35.6134 9.02357 35.628C9.01651 35.6354 8.98818 35.65 8.95992 35.6794L8.81159 35.8335L9.0116 36.0399ZM9.45449 36.4969L9.60988 36.3354C9.63814 36.3061 9.65219 36.2767 9.67338 36.2547C9.68036 36.2326 9.69441 36.2032 9.70139 36.1812C9.69417 36.1591 9.70115 36.137 9.68678 36.1076C9.67956 36.0855 9.65813 36.0634 9.64384 36.0486C9.62241 36.0265 9.60813 36.0118 9.58678 36.0044C9.56543 35.997 9.54416 36.0043 9.52281 35.9969C9.50154 36.0042 9.48027 36.0115 9.45908 36.0335C9.43074 36.0482 9.40955 36.0702 9.38122 36.0848L9.21876 36.2537L9.45449 36.4969Z" fill="#D9232E"/>
<path d="M10.3281 33.7992L10.6424 34.1236C10.5785 34.1308 10.5147 34.1527 10.4509 34.1746C10.3942 34.2039 10.3305 34.2406 10.281 34.2919C10.1751 34.402 10.1331 34.5196 10.1409 34.6447C10.1486 34.7697 10.1918 34.8728 10.2847 34.9686C10.3775 35.0645 10.4914 35.1088 10.6122 35.1165C10.733 35.1094 10.8392 35.0581 10.9381 34.9554C10.9876 34.904 11.0228 34.8526 11.0509 34.7938C11.079 34.735 11.0928 34.6615 11.0924 34.5879L11.4138 34.9196C11.3858 34.9931 11.3577 35.0519 11.3226 35.118C11.2874 35.1841 11.2451 35.2429 11.1886 35.3016C11.0967 35.3823 10.9977 35.4556 10.8914 35.5069C10.7851 35.5581 10.6787 35.58 10.5792 35.5798C10.4727 35.5869 10.359 35.5719 10.2522 35.5202C10.1454 35.4832 10.0456 35.4094 9.95985 35.321C9.85984 35.2178 9.78817 35.0999 9.74491 34.9821C9.70165 34.8644 9.67974 34.754 9.68617 34.629C9.69267 34.5187 9.72052 34.4157 9.76258 34.3129C9.81179 34.2174 9.86814 34.1292 9.94584 34.0485C10.0023 33.9898 10.066 33.9384 10.1297 33.9018C10.1863 33.8578 10.2572 33.8285 10.3281 33.7992Z" fill="#D9232E"/>
<path d="M10.5608 33.4844L10.8786 33.1541L11.3287 33.6185L11.3025 32.7137L11.7051 32.2953L11.7038 33.3619L12.8834 33.4527L12.4737 33.8784L11.6067 33.803L11.6073 33.9059L12.0287 34.3408L11.7109 34.6711L10.5608 33.4844Z" fill="#D9232E"/>
<path d="M11.8887 32.1055L12.2136 31.7678L12.9279 32.5049L12.7363 31.2247L13.0612 30.8871L14.2113 32.0738L13.8864 32.4114L13.1792 31.6817L13.3637 32.9546L13.0388 33.2922L11.8887 32.1055Z" fill="#D9232E"/>
<path d="M13.3862 30.5487L13.704 30.2184L14.4183 30.9555L14.2338 29.6679L14.5516 29.3376L15.7017 30.5243L15.3838 30.8546L14.6767 30.1249L14.8541 31.4051L14.5362 31.7354L13.3862 30.5487ZM13.6199 29.1223L13.9248 29.0126C13.9822 29.1304 13.9972 29.2629 13.9695 29.3952C13.9346 29.5201 13.8642 29.6377 13.7653 29.7404C13.6665 29.8432 13.5603 29.9091 13.4255 29.9456C13.3049 29.9821 13.177 29.9671 13.063 29.908L13.1749 29.5847C13.232 29.6289 13.296 29.6364 13.3741 29.6292C13.445 29.6147 13.5017 29.5854 13.5582 29.5267C13.6147 29.468 13.6499 29.4018 13.6637 29.3283C13.6633 29.2548 13.6558 29.1886 13.6199 29.1223Z" fill="#D9232E"/>
<path d="M5.06859 43.8657L4.67304 44.2767L6.14456 45.7951L5.80551 46.1474L4.334 44.629L3.93845 45.04L3.63843 44.7305L4.76857 43.5561L5.06859 43.8657Z" fill="#D9232E"/>
<path d="M6.7152 44.8928L7.47954 45.6815L7.16168 46.0118L5.39729 44.1912L5.71514 43.8609L5.86515 44.0157C5.85039 43.9127 5.84983 43.8097 5.88483 43.7141C5.91268 43.6112 5.96903 43.5231 6.05379 43.435C6.21625 43.2662 6.4076 43.1857 6.63499 43.2009C6.85523 43.2088 7.04754 43.3048 7.21898 43.4817C7.39756 43.666 7.49813 43.8722 7.50647 44.1002C7.51481 44.3282 7.43069 44.534 7.26823 44.7028C7.19053 44.7835 7.10561 44.8422 7.02053 44.8714C6.92838 44.908 6.82187 44.9151 6.7152 44.8928ZM6.2477 43.8253C6.15587 43.9207 6.11389 44.0383 6.11453 44.156C6.12231 44.281 6.16557 44.3988 6.2655 44.4873C6.35836 44.5831 6.46519 44.6348 6.57884 44.6351C6.7067 44.6354 6.80591 44.5914 6.89774 44.496C6.98956 44.4006 7.03868 44.2904 7.0309 44.1653C7.03733 44.0403 6.987 43.9299 6.89414 43.8341C6.80128 43.7382 6.69445 43.6865 6.57373 43.6936C6.45293 43.686 6.33952 43.7299 6.2477 43.8253Z" fill="#D9232E"/>
<path d="M7.92085 41.8791L7.77083 41.7243L8.08869 41.394L9.23878 42.5807L8.92092 42.911L8.77091 42.7562C8.79282 42.8666 8.79338 42.9696 8.75838 43.0651C8.73044 43.1533 8.68116 43.2341 8.60346 43.3148C8.43394 43.491 8.23552 43.5788 8.01527 43.571C7.78788 43.5558 7.58851 43.4671 7.41707 43.2902C7.23848 43.1059 7.14506 42.9071 7.13672 42.6791C7.12123 42.4437 7.19829 42.2452 7.36782 42.0691C7.44551 41.9883 7.5375 41.9223 7.62972 41.9005C7.72187 41.8639 7.82132 41.8641 7.92085 41.8791ZM7.73831 42.2758C7.63942 42.3786 7.60451 42.4888 7.59808 42.6139C7.60586 42.7389 7.65619 42.8494 7.74905 42.9452C7.84191 43.041 7.94875 43.0927 8.0624 43.093C8.19026 43.0933 8.28947 43.0494 8.38836 42.9466C8.48019 42.8512 8.52225 42.7483 8.51447 42.6233C8.52089 42.4982 8.47057 42.3878 8.3777 42.292C8.28484 42.1961 8.17801 42.1444 8.05721 42.1368C7.93649 42.1439 7.83014 42.1804 7.73831 42.2758Z" fill="#D9232E"/>
<path d="M9.53534 42.2707L8.38525 41.084L8.71018 40.7464L9.11735 41.1665L9.56235 40.7041L9.15518 40.284L9.4801 39.9463L10.6302 41.1331L10.3053 41.4707L9.84094 40.9916L9.39594 41.454L9.86026 41.9331L9.53534 42.2707Z" fill="#D9232E"/>
<path d="M10.6745 38.7792L10.9888 39.1036C10.9249 39.1108 10.854 39.1253 10.7973 39.1546C10.7335 39.1766 10.684 39.2132 10.6275 39.2719C10.5286 39.3747 10.4795 39.4996 10.4873 39.6247C10.488 39.7424 10.5383 39.8528 10.6311 39.9339C10.7311 40.0371 10.8379 40.0888 10.9586 40.0817C11.0865 40.082 11.1927 40.0308 11.2916 39.928C11.334 39.884 11.3692 39.8326 11.3973 39.7738C11.4183 39.7076 11.4392 39.6415 11.4388 39.5679L11.7532 39.8923C11.7393 39.9658 11.7042 40.0319 11.669 40.098C11.6339 40.1641 11.5844 40.2155 11.535 40.2669C11.4432 40.3623 11.3512 40.4283 11.2449 40.4795C11.1386 40.5308 11.0322 40.5526 10.9257 40.5598C10.8192 40.5669 10.7125 40.5446 10.5986 40.5002C10.4989 40.4558 10.3991 40.3821 10.3062 40.2862C10.2134 40.1904 10.1346 40.0799 10.0914 39.9621C10.0481 39.8444 10.0333 39.7266 10.0397 39.6016C10.0462 39.4913 10.067 39.3957 10.1161 39.2855C10.1582 39.1974 10.2217 39.1019 10.2994 39.0211C10.3559 38.9624 10.4195 38.9111 10.4761 38.8671C10.5398 38.8304 10.6036 38.7938 10.6745 38.7792Z" fill="#D9232E"/>
<path d="M10.9143 38.459L11.995 37.336L13.1451 38.5227L12.8202 38.8604L11.9487 37.9611L11.5108 38.4162L12.3822 39.3154L12.0644 39.6457L10.9143 38.459Z" fill="#D9232E"/>
<path d="M12.8349 36.3877C12.9267 36.2923 13.0187 36.2263 13.125 36.1751C13.2383 36.1165 13.3376 36.0873 13.4583 36.0802C13.5648 36.0731 13.6857 36.0954 13.7996 36.1398C13.9063 36.1768 14.0062 36.2506 14.0991 36.3464C14.1919 36.4422 14.2635 36.5453 14.2996 36.6557C14.3429 36.7735 14.3577 36.8912 14.3584 37.0089C14.3448 37.1266 14.3241 37.2369 14.2679 37.3544C14.2259 37.4573 14.1482 37.5528 14.0564 37.6482C13.9646 37.7436 13.8727 37.8243 13.7664 37.8755C13.6601 37.9268 13.5466 37.956 13.4401 37.9631C13.3194 37.9702 13.2127 37.9479 13.0988 37.9035C12.9921 37.8665 12.8852 37.8 12.7923 37.7042C12.6994 37.6084 12.6349 37.4979 12.5988 37.3875C12.5555 37.2697 12.5265 37.152 12.5401 37.0343C12.5394 36.9166 12.5743 36.8064 12.6235 36.6962C12.6726 36.586 12.7431 36.4831 12.8349 36.3877ZM13.7707 37.3533C13.8625 37.2579 13.9116 37.1477 13.9038 37.0226C13.9031 36.8902 13.8599 36.7872 13.7671 36.6913C13.6742 36.5955 13.5745 36.5512 13.4467 36.5509C13.3259 36.5433 13.2124 36.5871 13.1206 36.6826C13.0288 36.778 12.9868 36.8956 12.9875 37.028C12.9882 37.1457 13.0314 37.2634 13.1243 37.3593C13.2172 37.4551 13.3239 37.4921 13.4447 37.4997C13.5726 37.5 13.686 37.4561 13.7707 37.3533Z" fill="#D9232E"/>
<path d="M15.0716 36.2097L15.836 36.9984L15.5111 37.336L13.7467 35.5154L14.0716 35.1777L14.2216 35.3325C14.1998 35.2369 14.2063 35.1266 14.2342 35.0384C14.262 34.9354 14.3255 34.84 14.4032 34.7592C14.5727 34.5831 14.764 34.5026 14.9914 34.5178C15.2046 34.533 15.404 34.6217 15.5826 34.806C15.754 34.9829 15.8475 35.1964 15.8558 35.4244C15.8642 35.6524 15.7871 35.8509 15.6176 36.027C15.547 36.1004 15.462 36.1591 15.3699 36.1956C15.2778 36.2322 15.1783 36.232 15.0716 36.2097ZM14.6041 35.1421C14.5123 35.2376 14.4703 35.3552 14.471 35.4728C14.4717 35.6052 14.522 35.7157 14.6149 35.8115C14.7077 35.9073 14.8146 35.959 14.9353 35.9519C15.0561 35.9596 15.1623 35.9083 15.2542 35.8129C15.346 35.7175 15.3951 35.6073 15.3873 35.4822C15.3867 35.3645 15.3434 35.2468 15.2434 35.1436C15.1577 35.0551 15.0509 35.0034 14.9302 35.0105C14.8094 35.0029 14.696 35.0467 14.6041 35.1421Z" fill="#D9232E"/>
<path d="M16.3423 33.3923L16.0315 33.7153L16.903 34.6145L16.578 34.9522L15.7066 34.0529L15.3887 34.3832L15.1101 34.0957L16.0637 33.1049L16.3423 33.3923Z" fill="#D9232E"/>
</svg>
