<svg width="102" height="38" viewBox="0 0 102 38" fill="none" xmlns="http://www.w3.org/2000/svg">
<path d="M0 31H6.048V6.808H0V31ZM9.06445 12.856H21.1605V15.88H12.0885V18.904H9.06445V31H27.2085V24.952H15.1125V21.928H24.1845V18.904H27.2085V9.832H24.1845V6.808H9.06445V12.856Z" fill="white"/>
<path opacity="0.65" d="M46.696 15.728C47 15.728 47.248 15.684 47.44 15.596C47.64 15.5 47.792 15.376 47.896 15.224C48.008 15.064 48.084 14.884 48.124 14.684C48.164 14.476 48.184 14.264 48.184 14.048V13.832H49.768V14.048C49.768 15.048 49.504 15.82 48.976 16.364C48.456 16.9 47.696 17.168 46.696 17.168C45.736 17.168 44.976 16.876 44.416 16.292C43.856 15.708 43.576 14.856 43.576 13.736V11.864C43.576 11.328 43.648 10.848 43.792 10.424C43.936 9.992 44.144 9.632 44.416 9.344C44.688 9.048 45.016 8.824 45.4 8.672C45.784 8.512 46.216 8.432 46.696 8.432C47.192 8.432 47.632 8.504 48.016 8.648C48.4 8.792 48.72 9 48.976 9.272C49.24 9.544 49.436 9.872 49.564 10.256C49.7 10.64 49.768 11.072 49.768 11.552V11.768H48.184V11.552C48.184 11.352 48.16 11.152 48.112 10.952C48.064 10.752 47.984 10.572 47.872 10.412C47.76 10.252 47.608 10.124 47.416 10.028C47.224 9.924 46.984 9.872 46.696 9.872C46.432 9.872 46.204 9.924 46.012 10.028C45.82 10.124 45.66 10.26 45.532 10.436C45.404 10.604 45.308 10.804 45.244 11.036C45.188 11.26 45.16 11.496 45.16 11.744V13.856C45.16 14.128 45.188 14.38 45.244 14.612C45.3 14.836 45.388 15.032 45.508 15.2C45.628 15.368 45.784 15.5 45.976 15.596C46.176 15.684 46.416 15.728 46.696 15.728ZM50.9957 11.048H53.5157V11.912H53.7317C53.8437 11.584 54.0317 11.332 54.2957 11.156C54.5677 10.972 54.8917 10.88 55.2677 10.88C55.8597 10.88 56.3357 11.068 56.6957 11.444C57.0557 11.812 57.2357 12.376 57.2357 13.136V13.4L55.6757 13.544V13.376C55.6757 13.048 55.5917 12.788 55.4237 12.596C55.2557 12.396 55.0037 12.296 54.6677 12.296C54.3317 12.296 54.0677 12.412 53.8757 12.644C53.6837 12.876 53.5877 13.208 53.5877 13.64V15.56H54.9557V17H50.8517V15.56H52.0757V12.488H50.9957V11.048ZM62.6633 11.048H64.1753V18.464C64.1753 18.736 64.0873 18.96 63.9113 19.136C63.7433 19.312 63.5233 19.4 63.2513 19.4H59.7113V17.96H62.3393C62.5553 17.96 62.6633 17.84 62.6633 17.6V16.136H62.4473C62.1833 16.824 61.6153 17.168 60.7433 17.168C60.4473 17.168 60.1713 17.12 59.9153 17.024C59.6593 16.928 59.4353 16.78 59.2433 16.58C59.0513 16.38 58.8993 16.132 58.7873 15.836C58.6833 15.532 58.6313 15.176 58.6313 14.768V11.048H60.1433V14.456C60.1433 14.88 60.2433 15.212 60.4433 15.452C60.6433 15.684 60.9433 15.8 61.3433 15.8C61.7993 15.8 62.1313 15.656 62.3393 15.368C62.5553 15.072 62.6633 14.672 62.6633 14.168V11.048ZM67.179 19.4H65.667V11.048H67.179V11.912H67.395C67.555 11.584 67.787 11.332 68.091 11.156C68.395 10.972 68.783 10.88 69.255 10.88C69.607 10.88 69.939 10.948 70.251 11.084C70.571 11.22 70.847 11.42 71.079 11.684C71.319 11.94 71.507 12.256 71.643 12.632C71.787 13.008 71.859 13.436 71.859 13.916V14.132C71.859 14.62 71.791 15.052 71.655 15.428C71.519 15.804 71.335 16.124 71.103 16.388C70.871 16.644 70.595 16.84 70.275 16.976C69.963 17.104 69.623 17.168 69.255 17.168C68.983 17.168 68.747 17.14 68.547 17.084C68.347 17.028 68.171 16.952 68.019 16.856C67.875 16.76 67.751 16.652 67.647 16.532C67.551 16.404 67.467 16.272 67.395 16.136H67.179V19.4ZM68.763 15.728C69.235 15.728 69.615 15.584 69.903 15.296C70.199 15 70.347 14.6 70.347 14.096V13.952C70.347 13.448 70.199 13.052 69.903 12.764C69.615 12.468 69.235 12.32 68.763 12.32C68.291 12.32 67.907 12.472 67.611 12.776C67.323 13.072 67.179 13.464 67.179 13.952V14.096C67.179 14.584 67.323 14.98 67.611 15.284C67.907 15.58 68.291 15.728 68.763 15.728ZM73.1586 11.048H74.9226V8.6H76.4346V11.048H78.5826V12.488H76.4346V15.2C76.4346 15.44 76.5426 15.56 76.7586 15.56H78.3666V17H75.8466C75.5746 17 75.3506 16.912 75.1746 16.736C75.0066 16.56 74.9226 16.336 74.9226 16.064V12.488H73.1586V11.048ZM86.5063 14.096C86.5063 14.592 86.4223 15.032 86.2543 15.416C86.0863 15.792 85.8583 16.112 85.5703 16.376C85.2823 16.632 84.9503 16.828 84.5743 16.964C84.2063 17.1 83.8183 17.168 83.4103 17.168C83.0023 17.168 82.6103 17.1 82.2343 16.964C81.8663 16.828 81.5383 16.632 81.2503 16.376C80.9623 16.112 80.7343 15.792 80.5663 15.416C80.3983 15.032 80.3143 14.592 80.3143 14.096V13.952C80.3143 13.464 80.3983 13.032 80.5663 12.656C80.7343 12.272 80.9623 11.948 81.2503 11.684C81.5383 11.42 81.8663 11.22 82.2343 11.084C82.6103 10.948 83.0023 10.88 83.4103 10.88C83.8183 10.88 84.2063 10.948 84.5743 11.084C84.9503 11.22 85.2823 11.42 85.5703 11.684C85.8583 11.948 86.0863 12.272 86.2543 12.656C86.4223 13.032 86.5063 13.464 86.5063 13.952V14.096ZM83.4103 15.728C83.6263 15.728 83.8303 15.692 84.0223 15.62C84.2143 15.548 84.3823 15.444 84.5263 15.308C84.6703 15.172 84.7823 15.008 84.8623 14.816C84.9503 14.616 84.9943 14.392 84.9943 14.144V13.904C84.9943 13.656 84.9503 13.436 84.8623 13.244C84.7823 13.044 84.6703 12.876 84.5263 12.74C84.3823 12.604 84.2143 12.5 84.0223 12.428C83.8303 12.356 83.6263 12.32 83.4103 12.32C83.1943 12.32 82.9903 12.356 82.7983 12.428C82.6063 12.5 82.4383 12.604 82.2943 12.74C82.1503 12.876 82.0343 13.044 81.9463 13.244C81.8663 13.436 81.8263 13.656 81.8263 13.904V14.144C81.8263 14.392 81.8663 14.616 81.9463 14.816C82.0343 15.008 82.1503 15.172 82.2943 15.308C82.4383 15.444 82.6063 15.548 82.7983 15.62C82.9903 15.692 83.1943 15.728 83.4103 15.728ZM45.448 31H43.936V25.048H45.448V25.936H45.664C45.8 25.6 46.02 25.34 46.324 25.156C46.628 24.972 46.984 24.88 47.392 24.88C47.68 24.88 47.948 24.928 48.196 25.024C48.452 25.112 48.676 25.252 48.868 25.444C49.06 25.636 49.208 25.88 49.312 26.176C49.424 26.472 49.48 26.824 49.48 27.232V31H47.968V27.616C47.968 27.192 47.864 26.86 47.656 26.62C47.456 26.372 47.164 26.248 46.78 26.248C46.332 26.248 45.996 26.4 45.772 26.704C45.556 27 45.448 27.4 45.448 27.904V31ZM52.6157 28.516C52.6237 28.692 52.6637 28.856 52.7357 29.008C52.8157 29.152 52.9197 29.28 53.0477 29.392C53.1837 29.496 53.3357 29.58 53.5037 29.644C53.6797 29.7 53.8637 29.728 54.0557 29.728C54.4317 29.728 54.7197 29.664 54.9197 29.536C55.1197 29.4 55.2637 29.24 55.3517 29.056L56.6477 29.776C56.5757 29.928 56.4757 30.088 56.3477 30.256C56.2197 30.416 56.0517 30.564 55.8437 30.7C55.6437 30.836 55.3957 30.948 55.0997 31.036C54.8117 31.124 54.4717 31.168 54.0797 31.168C53.6317 31.168 53.2237 31.096 52.8557 30.952C52.4877 30.808 52.1677 30.6 51.8957 30.328C51.6317 30.056 51.4237 29.724 51.2717 29.332C51.1277 28.94 51.0557 28.496 51.0557 28V27.928C51.0557 27.472 51.1317 27.056 51.2837 26.68C51.4437 26.304 51.6597 25.984 51.9317 25.72C52.2037 25.456 52.5197 25.252 52.8797 25.108C53.2477 24.956 53.6397 24.88 54.0557 24.88C54.5677 24.88 55.0077 24.972 55.3757 25.156C55.7437 25.332 56.0477 25.56 56.2877 25.84C56.5277 26.112 56.7037 26.416 56.8157 26.752C56.9277 27.08 56.9837 27.4 56.9837 27.712V28.516H52.6157ZM54.0437 26.248C53.6597 26.248 53.3477 26.348 53.1077 26.548C52.8677 26.74 52.7117 26.964 52.6397 27.22H55.4477C55.3997 26.94 55.2477 26.708 54.9917 26.524C54.7437 26.34 54.4277 26.248 54.0437 26.248ZM58.4633 25.048H60.2273V22.6H61.7393V25.048H63.8873V26.488H61.7393V29.2C61.7393 29.44 61.8473 29.56 62.0633 29.56H63.6713V31H61.1513C60.8793 31 60.6553 30.912 60.4793 30.736C60.3113 30.56 60.2273 30.336 60.2273 30.064V26.488H58.4633V25.048ZM71.811 31H69.195L68.859 26.488V25.768H68.571V26.488L68.235 31H65.619L65.223 25.048H66.615L66.879 29.56V30.28H67.167V29.56L67.467 25.048H69.963L70.263 29.56V30.28H70.551V29.56L70.815 25.048H72.207L71.811 31ZM79.1586 28.096C79.1586 28.592 79.0746 29.032 78.9066 29.416C78.7386 29.792 78.5106 30.112 78.2226 30.376C77.9346 30.632 77.6026 30.828 77.2266 30.964C76.8586 31.1 76.4706 31.168 76.0626 31.168C75.6546 31.168 75.2626 31.1 74.8866 30.964C74.5186 30.828 74.1906 30.632 73.9026 30.376C73.6146 30.112 73.3866 29.792 73.2186 29.416C73.0506 29.032 72.9666 28.592 72.9666 28.096V27.952C72.9666 27.464 73.0506 27.032 73.2186 26.656C73.3866 26.272 73.6146 25.948 73.9026 25.684C74.1906 25.42 74.5186 25.22 74.8866 25.084C75.2626 24.948 75.6546 24.88 76.0626 24.88C76.4706 24.88 76.8586 24.948 77.2266 25.084C77.6026 25.22 77.9346 25.42 78.2226 25.684C78.5106 25.948 78.7386 26.272 78.9066 26.656C79.0746 27.032 79.1586 27.464 79.1586 27.952V28.096ZM76.0626 29.728C76.2786 29.728 76.4826 29.692 76.6746 29.62C76.8666 29.548 77.0346 29.444 77.1786 29.308C77.3226 29.172 77.4346 29.008 77.5146 28.816C77.6026 28.616 77.6466 28.392 77.6466 28.144V27.904C77.6466 27.656 77.6026 27.436 77.5146 27.244C77.4346 27.044 77.3226 26.876 77.1786 26.74C77.0346 26.604 76.8666 26.5 76.6746 26.428C76.4826 26.356 76.2786 26.32 76.0626 26.32C75.8466 26.32 75.6426 26.356 75.4506 26.428C75.2586 26.5 75.0906 26.604 74.9466 26.74C74.8026 26.876 74.6866 27.044 74.5986 27.244C74.5186 27.436 74.4786 27.656 74.4786 27.904V28.144C74.4786 28.392 74.5186 28.616 74.5986 28.816C74.6866 29.008 74.8026 29.172 74.9466 29.308C75.0906 29.444 75.2586 29.548 75.4506 29.62C75.6426 29.692 75.8466 29.728 76.0626 29.728ZM80.3863 25.048H82.9063V25.912H83.1223C83.2343 25.584 83.4223 25.332 83.6863 25.156C83.9583 24.972 84.2823 24.88 84.6583 24.88C85.2503 24.88 85.7263 25.068 86.0863 25.444C86.4463 25.812 86.6263 26.376 86.6263 27.136V27.4L85.0663 27.544V27.376C85.0663 27.048 84.9823 26.788 84.8143 26.596C84.6463 26.396 84.3943 26.296 84.0583 26.296C83.7223 26.296 83.4583 26.412 83.2663 26.644C83.0743 26.876 82.9783 27.208 82.9783 27.64V29.56H84.3463V31H80.2423V29.56H81.4663V26.488H80.3863V25.048ZM90.0139 27.232H90.3019L91.8859 25.048H93.5419V25.12L91.6219 27.844V28.06L93.7339 30.928V31H92.0059L90.3019 28.672H90.0139V31H88.5019V22.6H90.0139V27.232ZM97.2656 26.728C97.2656 26.92 97.3656 27.06 97.5656 27.148C97.7656 27.228 98.1296 27.296 98.6576 27.352C99.2656 27.416 99.7616 27.6 100.146 27.904C100.53 28.2 100.722 28.616 100.722 29.152V29.224C100.722 29.816 100.506 30.288 100.074 30.64C99.6416 30.992 99.0336 31.168 98.2496 31.168C97.7856 31.168 97.3896 31.108 97.0616 30.988C96.7336 30.868 96.4616 30.72 96.2456 30.544C96.0296 30.36 95.8616 30.16 95.7416 29.944C95.6296 29.72 95.5536 29.504 95.5136 29.296L96.9056 28.84C96.9696 29.096 97.1016 29.32 97.3016 29.512C97.5096 29.704 97.8256 29.8 98.2496 29.8C98.6256 29.8 98.8816 29.744 99.0176 29.632C99.1616 29.512 99.2336 29.384 99.2336 29.248C99.2336 29.168 99.2136 29.096 99.1736 29.032C99.1416 28.96 99.0776 28.896 98.9816 28.84C98.8856 28.776 98.7536 28.724 98.5856 28.684C98.4256 28.644 98.2216 28.612 97.9736 28.588C97.3016 28.532 96.7656 28.36 96.3656 28.072C95.9736 27.776 95.7776 27.344 95.7776 26.776V26.704C95.7776 26.408 95.8416 26.148 95.9696 25.924C96.0976 25.7 96.2656 25.512 96.4736 25.36C96.6816 25.2 96.9216 25.08 97.1936 25C97.4656 24.92 97.7456 24.88 98.0336 24.88C98.4096 24.88 98.7336 24.928 99.0056 25.024C99.2856 25.112 99.5216 25.232 99.7136 25.384C99.9056 25.528 100.062 25.692 100.182 25.876C100.302 26.052 100.394 26.224 100.458 26.392L99.0896 26.944C99.0176 26.728 98.8936 26.56 98.7176 26.44C98.5416 26.312 98.3136 26.248 98.0336 26.248C97.7776 26.248 97.5856 26.296 97.4576 26.392C97.3296 26.48 97.2656 26.592 97.2656 26.728Z" fill="white"/>
</svg>
