<svg width="207" height="28" viewBox="0 0 207 28" fill="none" xmlns="http://www.w3.org/2000/svg">
<g style="mix-blend-mode:luminosity" clip-path="url(#clip0_17_4520)">
<path d="M24.9841 0H3.60401C1.61357 0 0 1.58038 0 3.52987V24.4701C0 26.4196 1.61357 28 3.60401 28H24.9841C26.9745 28 28.5881 26.4196 28.5881 24.4701V3.52987C28.5881 1.58038 26.9745 0 24.9841 0Z" fill="#7B7B7B"/>
<path fill-rule="evenodd" clip-rule="evenodd" d="M20.3028 4.66369L16.8302 6.36426C16.0175 6.76219 15.5043 7.57568 15.5043 8.46592V19.9375L18.9761 18.2377C19.7889 17.839 20.3028 17.0255 20.3028 16.1358V4.66369Z" fill="white"/>
<path fill-rule="evenodd" clip-rule="evenodd" d="M13.1051 14.6506L9.63246 16.3512C8.81987 16.7491 8.30663 17.5626 8.30663 18.4529V23.4629L11.7784 21.7623C12.5911 21.3642 13.1051 20.5507 13.1051 19.6605V14.6506Z" fill="white"/>
<path fill-rule="evenodd" clip-rule="evenodd" d="M64.2354 -7.68724e-05L60.4387 1.86055C59.5487 2.29866 58.9863 3.18595 58.9863 4.16059V5.14502L62.7824 3.28439C63.673 2.84955 64.2354 1.95835 64.2354 0.98435V-7.68724e-05Z" fill="#7B7B7B"/>
<path fill-rule="evenodd" clip-rule="evenodd" d="M44.6879 7.0161C43.7972 7.44964 43.2361 8.34019 43.2361 9.31093V16.7978C43.2361 17.1283 43.2155 17.4608 43.1782 17.792C43.0451 18.9068 42.3974 19.6389 41.2592 19.7087H36.239V23.9404C36.2969 23.9404 39.4201 23.9437 39.4633 23.9437C40.517 23.9437 41.574 23.958 42.6311 23.9359C43.346 23.9215 44.0555 23.8185 44.7504 23.6268C46.2215 23.2122 47.3511 22.3966 47.9747 20.9871C48.3695 20.0822 48.4846 19.12 48.4846 18.1466V17.764V17.7033V5.15482L44.6879 7.0161Z" fill="#7B7B7B"/>
<path fill-rule="evenodd" clip-rule="evenodd" d="M67.7309 5.14464H62.4871L58.9965 12.5474H58.9765L55.486 5.14464H50.2368L56.3626 18.1319V24H61.6151V18.1136L67.7309 5.14464Z" fill="#7B7B7B"/>
<path fill-rule="evenodd" clip-rule="evenodd" d="M83.4816 18.2297V17.997H83.4716C83.453 17.4604 83.3572 16.9245 83.2007 16.3867C82.9671 15.6226 82.5378 14.9967 81.938 14.4935C81.8428 14.4146 81.743 14.335 81.6378 14.2653C80.905 13.7509 80.0809 13.4106 79.205 13.2157C77.9849 12.9438 76.7514 12.7254 75.522 12.4829C74.885 12.3564 73.9425 12.2312 73.3561 11.9372C72.98 11.7501 72.6651 11.4893 72.5706 11.0838C72.4887 10.7526 72.4834 10.398 72.5653 10.104C72.7364 9.54002 73.1411 9.20884 73.8846 9.03542C74.3552 8.92785 74.9416 8.86396 75.4701 8.84962C75.6185 8.84506 75.7656 8.84506 75.9187 8.84962H75.9367C76.404 8.86722 76.8659 8.92785 77.3285 9.03542C78.3277 9.26817 78.723 9.79167 78.7377 10.78V11.1399H83.4816C83.4816 10.617 83.4863 10.235 83.4397 9.72583C83.2766 8.13966 82.4479 6.96943 80.9955 6.19493C79.7468 5.53191 78.3756 5.2946 76.9711 5.1916C76.5611 5.15965 76.1517 5.14922 75.7417 5.14466H75.6039H75.4701C75.0614 5.14922 74.652 5.15965 74.242 5.1916C72.8362 5.2946 71.4643 5.53191 70.2169 6.19493C68.7639 6.96943 67.9358 8.13966 67.7734 9.72583C67.7408 10.0433 67.7361 10.3132 67.7361 10.604C67.7308 10.7657 67.7361 10.9345 67.7455 11.0982V11.1399C67.7781 11.6249 67.8686 12.1093 68.0157 12.595C68.2453 13.3552 68.6733 13.9856 69.2731 14.4935C69.3696 14.5684 69.4694 14.6473 69.5753 14.7177C70.3075 15.2308 71.1315 15.5711 72.0082 15.7673C73.2276 16.0372 74.4597 16.2569 75.6891 16.4995C76.3281 16.6259 77.3332 16.7511 77.9183 17.0451C78.295 17.2309 78.6046 17.493 78.7044 17.8992C78.7423 18.053 78.7616 18.2023 78.767 18.3516C78.7616 18.4814 78.7523 18.5981 78.733 18.7108C78.723 18.7623 78.719 18.8086 78.7044 18.8601H78.7091C78.562 19.5166 78.1326 19.9104 77.3285 20.0962C76.8613 20.2083 76.2715 20.2729 75.7417 20.2872C75.5939 20.2924 75.4421 20.2924 75.2944 20.2872H75.2744C74.8085 20.2683 74.3465 20.2083 73.8846 20.0962C72.8835 19.8667 72.4887 19.3406 72.4741 18.3562V17.997H67.7308C67.7308 18.5185 67.7215 18.9019 67.7734 19.4104C67.9358 20.9965 68.7639 22.1668 70.2169 22.9419C71.4643 23.6036 72.8362 23.8416 74.242 23.9439C74.652 23.9772 75.0614 23.987 75.4701 23.9902H75.6039H75.7417C76.1517 23.987 76.5611 23.9772 76.9711 23.9439C78.3756 23.8416 79.7468 23.6036 80.9955 22.9419C82.4479 22.1668 83.2766 20.9965 83.4397 19.4104C83.4816 18.986 83.4816 18.6502 83.4816 18.2486V18.2297Z" fill="#7B7B7B"/>
<path fill-rule="evenodd" clip-rule="evenodd" d="M99.2555 23.9951H104.505L96.627 5.14498H91.3598L83.4821 23.9951H88.7293L89.8016 21.4258H98.1792L99.2555 23.9951ZM91.2354 17.9966L93.9931 11.4016L96.7514 17.9966H91.2354Z" fill="#7B7B7B"/>
<path fill-rule="evenodd" clip-rule="evenodd" d="M121.974 23.9948H122.845V5.14404H121.974V23.9948Z" fill="#7B7B7B"/>
<path fill-rule="evenodd" clip-rule="evenodd" d="M117.597 5.14449V15.7763C117.369 15.3838 111.477 5.14449 111.477 5.14449H106.228V23.9946H111.477V13.3589C111.539 13.4665 117.382 23.6172 117.597 23.9946H122.851V5.14449H117.597Z" fill="#7B7B7B"/>
<path fill-rule="evenodd" clip-rule="evenodd" d="M163.844 23.9946H169.096L161.214 5.13398H155.944L148.061 23.9946H153.312L154.389 21.4226H162.771L163.844 23.9946ZM155.819 17.9922L158.578 11.3928L161.338 17.9922H155.819V17.9922Z" fill="#7B7B7B"/>
<path fill-rule="evenodd" clip-rule="evenodd" d="M200.538 23.9946H207L199.08 13.6602L206.977 5.13398H200L194.748 10.8051V5.13398H189.497V23.9946H194.748V18.3372L195.545 17.4788L200.538 23.9946Z" fill="#7B7B7B"/>
<path fill-rule="evenodd" clip-rule="evenodd" d="M148.051 17.8663C148.032 17.5303 147.995 17.1937 147.909 16.8676C147.598 15.6582 146.812 14.8233 145.697 14.2675C145.626 14.2303 145.559 14.1931 145.449 14.1325C145.535 14.0855 145.574 14.062 145.611 14.0438C146.599 13.5252 147.159 12.7046 147.384 11.64C147.556 10.8181 147.551 9.98775 147.423 9.16129C147.264 8.15805 146.807 7.3081 146.007 6.64601C145.129 5.91739 144.087 5.55797 142.981 5.3525C142.071 5.18029 141.146 5.12941 140.222 5.13398H137.558H132.306V23.9946H137.558V23.9901C138.617 23.9901 139.674 23.9901 140.732 23.9855C141.479 23.9803 142.232 23.9294 142.981 23.8505C143.962 23.752 144.901 23.4813 145.764 22.996C146.96 22.3234 147.708 21.3339 147.961 19.9947C148.094 19.2889 148.089 18.576 148.051 17.8663ZM140.617 20.5694C140.599 20.5694 140.585 20.5642 140.559 20.5642C140.194 20.574 139.66 20.5642 139.307 20.5642C138.758 20.5642 138.106 20.559 137.558 20.5642V16.2792H140.617C141.827 16.2792 142.809 17.2368 142.809 18.422C142.809 19.6072 141.827 20.5694 140.617 20.5694ZM140.622 12.8494H140.617H137.558V8.55921C138.134 8.56378 139.789 8.56378 140.585 8.56378H140.622C141.827 8.56378 142.809 9.52136 142.809 10.7066C142.809 11.8873 141.827 12.8494 140.622 12.8494Z" fill="#7B7B7B"/>
<path fill-rule="evenodd" clip-rule="evenodd" d="M182.201 5.13398V15.7704C181.967 15.379 176.073 5.13398 176.073 5.13398H170.821V23.9946H176.073V13.3569C176.138 13.4593 181.985 23.6156 182.201 23.9946H187.453V5.13398H182.201Z" fill="#7B7B7B"/>
</g>
<defs>
<clipPath id="clip0_17_4520">
<rect width="207" height="28" fill="white"/>
</clipPath>
</defs>
</svg>
