<svg width="95" height="28" viewBox="0 0 95 28" fill="none" xmlns="http://www.w3.org/2000/svg">
<path d="M50.7122 7.24949C50.5801 7.4157 50.5054 7.60129 50.5054 7.924V16.7971H50.458C50.458 16.7971 45.7792 8.13867 45.553 7.7384C45.3929 7.45448 45.2141 7.25919 44.9786 7.11238C44.7431 6.97596 44.4983 6.88801 44.0279 6.88801H42.4841C42.1258 6.88801 41.9003 7.01474 41.7402 7.21072C41.6081 7.37622 41.5327 7.56251 41.5327 7.88452V20.4618C41.5327 20.7845 41.6081 20.9701 41.7402 21.1363C41.9003 21.3316 42.1258 21.4583 42.4841 21.4583H43.3594C43.717 21.4583 43.9432 21.3316 44.1033 21.1363C44.2347 20.9701 44.3101 20.7845 44.3101 20.4618V11.3734H44.3575C44.3575 11.3734 49.2151 20.3053 49.4132 20.6377C49.6861 21.1065 50.1471 21.4583 50.8063 21.4583H52.3034C52.661 21.4583 52.8872 21.3316 53.0473 21.1363C53.1787 20.9701 53.2541 20.7845 53.2541 20.4618V9.1158H72.9214C73.1196 9.1158 73.2697 9.05763 73.3831 8.95998C73.5052 8.84226 73.5619 8.68575 73.5619 8.45168V7.59159C73.5619 7.35683 73.5052 7.20033 73.3831 7.08329C73.2697 6.98565 73.1196 6.92679 72.9214 6.92679H51.4561C51.0985 6.92679 50.8723 7.05421 50.7122 7.24949ZM59.2986 10.6109C56.0315 10.6109 54.1955 13.2597 54.1955 16.0547C54.1955 19.0352 56.1636 21.6543 59.3173 21.6543C60.8898 21.6543 62.4336 21.0387 63.3183 19.9535C63.7046 19.4847 64.0155 18.8296 64.0155 18.4293C64.0155 18.2922 63.9868 18.1751 63.912 18.0872C63.8367 17.9896 63.7232 17.9307 63.5258 17.9307H62.01C61.7084 17.9307 61.5016 18.0477 61.3508 18.2825C60.9085 18.957 60.268 19.3088 59.3266 19.3088C57.9142 19.3088 57.0016 18.1945 56.9355 16.973H63.4884C63.7799 16.973 63.9868 16.9044 64.1282 16.7583C64.2883 16.6018 64.3637 16.3767 64.3637 15.9564C64.3637 14.6766 63.9774 13.3477 63.1682 12.3311C62.3395 11.3048 61.0779 10.6109 59.2986 10.6109ZM69.4001 10.6109C66.8209 10.6109 65.1263 11.8817 65.1263 13.9142C65.1263 14.6371 65.3805 15.2237 65.7948 15.6828C66.2751 16.2209 66.9623 16.5921 67.9604 16.8559L70.116 17.4224C70.7091 17.5789 71.2362 17.7645 71.2362 18.3019C71.2362 19.1329 70.3889 19.4161 69.4855 19.4161C69.0425 19.4161 68.5815 19.3282 68.2046 19.1329C67.941 18.9958 67.7155 18.8005 67.5554 18.5366C67.414 18.3116 67.3673 18.1454 67.1505 18.0186C67.0184 17.9404 66.8582 17.9307 66.6421 17.9307H65.4745C65.2203 17.9307 65.0983 18.0089 65.0135 18.1163C64.9288 18.2236 64.9001 18.3801 64.9001 18.5366C64.9001 18.9272 65.0322 19.4161 65.3431 19.8559C66.0583 20.8524 67.5554 21.6543 69.4662 21.6543C71.3496 21.6543 73.9575 20.8427 73.9575 18.2236C73.9575 17.5498 73.7687 16.973 73.4205 16.5041C72.9781 15.9079 72.3477 15.4972 71.2742 15.214L69.1373 14.6468C68.2519 14.4128 67.8376 14.2466 67.8376 13.6794C67.8376 13.1323 68.3086 12.6926 69.4001 12.6926C70.0406 12.6926 70.6244 12.8394 71.0013 13.2501C71.3115 13.5922 71.2555 13.768 71.5004 13.9045C71.6505 13.9827 71.8199 13.9827 72.0841 13.9827H73.1476C73.317 13.9827 73.4398 13.9536 73.5332 13.8456C73.6093 13.7577 73.656 13.6212 73.656 13.3962C73.656 12.8879 73.3357 12.2335 72.7713 11.7349C72.0181 11.0604 70.8319 10.6109 69.4001 10.6109ZM75.2658 10.9828H74.7388C74.5413 10.9828 74.3905 11.041 74.2778 11.1386C74.155 11.2563 74.0983 11.4128 74.0983 11.6469V12.3214C74.0983 12.5562 74.155 12.712 74.2778 12.8297C74.3905 12.9273 74.5413 12.9862 74.7388 12.9862H75.2658V17.8621C75.2658 19.1128 75.5954 19.8946 76.2072 20.5207C76.7723 21.0968 77.5068 21.4583 78.7871 21.4583H79.587C79.7852 21.4583 79.9353 21.4001 80.0487 21.3025C80.1708 21.1848 80.2462 21.0283 80.2462 20.7942V19.9438C80.2462 19.709 80.1708 19.5532 80.0487 19.4355C79.9353 19.3379 79.7852 19.279 79.587 19.279H79.4743C78.9659 19.279 78.6177 19.1426 78.3821 18.9078C78.0999 18.6343 77.9585 18.2139 77.9585 17.6669V12.9862H79.6724C79.8699 12.9862 80.0207 12.9273 80.1334 12.8297C80.2555 12.712 80.3122 12.5562 80.3122 12.3214V11.6469C80.3122 11.4128 80.2555 11.2563 80.1334 11.1386C80.0207 11.041 79.8699 10.9828 79.6724 10.9828H77.9678V7.79657C77.9678 7.54243 77.8924 7.35683 77.7797 7.21072C77.6383 7.03482 77.4408 6.92679 77.1492 6.92679H76.0851C75.7929 6.92679 75.5954 7.03482 75.454 7.21072C75.3412 7.35683 75.2658 7.54243 75.2658 7.79657V10.9828ZM81.0281 20.5885C81.0281 20.8427 81.1028 21.0283 81.2163 21.1751C81.357 21.351 81.5552 21.4583 81.8467 21.4583H82.9669C83.2591 21.4583 83.4566 21.351 83.598 21.1751C83.7108 21.0283 83.7862 20.8427 83.7862 20.5885V7.79727C83.7862 7.54312 83.7108 7.35753 83.598 7.21072C83.4566 7.03482 83.2591 6.92679 82.9669 6.92679H81.8467C81.5552 6.92679 81.357 7.03482 81.2163 7.21072C81.1028 7.35753 81.0281 7.54312 81.0281 7.79727V20.5885ZM56.9542 14.8913C57.0763 13.6891 57.9616 12.7902 59.3079 12.7902C60.6263 12.7902 61.5389 13.6891 61.6617 14.8913H56.9542ZM93.9824 9.1158C94.1799 9.1158 94.3307 9.05763 94.4434 8.95998C94.5662 8.84226 94.6229 8.68575 94.6229 8.45168V7.54243C94.6229 7.19063 94.5569 7.01474 94.4434 6.88801C94.34 6.77028 94.1706 6.70242 93.9824 6.70242C93.8316 6.70242 93.6815 6.72181 93.4273 6.75089L85.9138 7.52304C85.6976 7.54243 85.5942 7.61098 85.5188 7.69893C85.4341 7.79657 85.396 7.924 85.396 8.09989V8.6075C85.396 8.80348 85.4341 8.89142 85.5001 8.96968C85.5842 9.06732 85.7069 9.1158 85.8764 9.1158H93.9824ZM89.8307 10.6109C86.5636 10.6109 84.7275 13.2597 84.7275 16.0547C84.7275 19.0352 86.6957 21.6543 89.8493 21.6543C91.4219 21.6543 92.9657 21.0387 93.8503 19.9535C94.2366 19.4847 94.5475 18.8296 94.5475 18.4293C94.5475 18.2922 94.5188 18.1751 94.4434 18.0872C94.3687 17.9896 94.2553 17.9307 94.0578 17.9307H92.542C92.2405 17.9307 92.0336 18.0477 91.8829 18.2825C91.4405 18.957 90.8001 19.3088 89.8587 19.3088C88.4463 19.3088 87.533 18.1945 87.4676 16.973H94.0391C94.3307 16.973 94.5382 16.9044 94.6789 16.7583C94.8391 16.6018 94.9145 16.3767 94.9145 15.9564C94.9145 14.6766 94.5282 13.3477 93.7189 12.3311C92.8903 11.3048 91.61 10.6109 89.8307 10.6109ZM87.4863 14.8913C87.609 13.6891 88.4937 12.7902 89.84 12.7902C91.1583 12.7902 92.071 13.6891 92.1938 14.8913H87.4863Z" fill="#939CA1"/>
<path d="M30.9145 9.23286C28.4774 5.4594 26.3358 4.18796 25.7333 3.58963C25.0715 2.92967 24.5671 2.18177 24.2462 1.82167C23.5324 1.01213 22.6083 0.0128422 21.0886 0.0128422C19.6215 0.0128422 18.6521 1.0052 18.3372 1.86252C18.2458 2.10698 18.1737 2.40614 18.1083 2.51487C17.9642 2.76001 17.3157 3.90888 17.0469 4.36454H18.2591L17.6693 5.52033C18.3572 5.36383 18.8482 5.24818 19.5034 5.24818C20.0865 5.24818 20.5054 5.39153 20.6889 5.77172C21.0298 6.47946 21.0298 8.62068 21.6063 10.2328C22.1433 11.748 23.4536 13.2307 24.9274 14.3664C24.9468 14.3796 24.9668 14.3865 24.9928 14.3865C25.0648 14.3865 25.1109 14.3325 25.1109 14.2778C25.1109 14.2369 25.0975 14.2099 25.0648 14.176C23.8333 12.8976 22.8312 11.4835 22.2941 9.93367C21.7631 8.42401 21.8484 6.30217 21.3834 5.3569C21.0752 4.73157 20.4207 4.56883 19.8176 4.56883C19.3332 4.56883 18.8809 4.67063 18.6714 4.71772L19.2018 3.7863H18.3045C18.4946 3.44005 18.6908 3.12011 18.7895 2.92967C18.8742 2.76624 18.9076 2.56265 19.0123 2.28426C19.3526 1.39301 20.1058 0.828615 21.0886 0.828615C22.3201 0.828615 23.0407 1.65131 23.7545 2.47401C24.0821 2.85488 24.6192 3.65057 25.2416 4.24197C25.6673 4.64986 26.4799 5.10553 27.7308 6.44552C28.4514 7.22044 29.29 8.22665 30.174 9.57288C33.3383 14.3796 35.4145 18.6156 36.5741 21.9202L36.5547 21.9341C33.2336 19.5948 30.3575 17.385 28.0391 14.6586C26.3945 12.721 24.9668 10.4773 23.7218 7.61447C23.6364 7.42403 23.5651 7.24744 23.4863 7.06393C23.4536 6.98914 23.421 6.96836 23.3682 6.96836C23.3029 6.96836 23.2568 7.01615 23.2568 7.08401C23.2568 7.1588 23.2895 7.32224 23.3616 7.64841C24.0234 10.613 25.8574 13.2715 27.8162 15.4813C29.7683 17.678 31.9753 19.5678 33.79 20.9417L35.2051 25.1432C35.2378 25.2457 35.2771 25.3544 35.2771 25.4562C35.2771 25.531 35.2571 25.5919 35.2117 25.6328C35.1724 25.6736 35.1203 25.6944 35.0022 25.6944H34.5766C34.3931 25.6944 34.3204 25.6667 34.255 25.6127C34.1896 25.558 34.1443 25.4763 34.1109 25.3814C33.9868 24.9867 33.2396 22.7769 33.0962 22.3281C33.0695 22.2471 33.0234 22.2194 32.9714 22.2194C32.906 22.2194 32.86 22.2741 32.86 22.3351C32.86 22.3898 32.8793 22.4507 32.9127 22.6411C33.1022 23.6473 33.325 24.7761 33.4164 25.2048C33.4564 25.4015 33.5018 25.5857 33.5018 25.7214C33.5018 25.8433 33.4758 25.9118 33.3777 26.0136L32.9387 26.4762C32.834 26.585 32.7746 26.612 32.6899 26.612C32.5851 26.612 32.4997 26.5372 32.4603 26.3467C31.9626 23.9327 31.2094 20.9417 31.0126 20.1114C30.9666 19.9286 30.9339 19.8261 30.8291 19.8261C30.7377 19.8261 30.705 19.894 30.705 19.9757C30.705 20.0366 30.7177 20.1114 30.7244 20.1661C30.8425 21.0228 31.3208 24.1439 31.8379 26.9928C31.93 27.4824 32.1068 27.7539 32.5131 27.7539C32.6965 27.7539 32.8727 27.6791 33.0368 27.5164C33.3056 27.2373 33.3837 27.1625 33.7053 26.8363C33.9341 26.605 34.0916 26.5102 34.4845 26.5102H35.4539C35.6834 26.5102 35.8075 26.4492 35.9189 26.3398C36.0237 26.238 36.0891 26.0954 36.0891 25.8911C36.0891 25.6805 36.037 25.5109 35.965 25.2997C35.7161 24.6065 34.9168 22.2603 34.6807 21.601L34.7007 21.5871C35.5193 22.2333 36.7115 23.056 37.2359 23.056C37.3994 23.056 37.4981 22.9812 37.4981 22.7159C37.4981 21.4653 35.4933 16.3179 30.9145 9.23286Z" fill="#939CA1"/>
<path d="M8.42688 1.33266C8.56431 1.01965 8.86587 0.802201 9.22614 0.802201C9.71717 0.802201 10.1101 1.19693 10.1101 1.72046C10.1101 2.02586 9.97269 2.29178 9.75653 2.45452C9.80257 2.6318 9.83526 2.78761 9.83526 2.93719C9.83526 3.50851 9.50768 3.90947 8.90523 4.12069C8.82651 4.46694 8.6824 4.77995 8.44622 5.01125C8.05326 5.40528 7.65363 5.40528 7.65363 5.56871C7.65363 5.65735 7.71301 5.71137 7.87647 5.71137C8.60367 5.71137 9.31754 5.29033 9.40294 4.58951C10.0975 4.34506 10.5164 3.61723 10.5164 3.03969C10.5164 2.88941 10.5031 2.76061 10.4444 2.63872C10.6345 2.44759 10.8574 2.12142 10.8574 1.63875C10.8574 1.21701 10.6799 0.789043 10.3657 0.476031C10.0908 0.196951 9.70382 0.0134382 9.25216 0.0134382C8.597 0.0134382 8.17135 0.381158 7.92917 0.741261C7.21464 0.741261 6.29129 1.56396 6.29129 2.74052H6.19321C6.12716 2.33264 5.72153 2.05979 5.38061 2.03971C5.10574 1.18308 4.48327 0.449023 3.46118 0.449023C3.34376 0.449023 3.19965 0.455948 3.07489 0.476031C2.774 0.190026 2.43975 0.0134382 1.97474 0.0134382C1.08341 0.0134382 0.356201 0.755111 0.356201 1.69276C0.356201 2.27793 0.611724 2.67889 1.09675 3.03276C1.09675 3.03276 1.09008 3.10755 1.09008 3.14148C1.09008 3.88939 1.876 5.05903 3.0422 5.05903C3.0422 5.24878 3.2717 5.50777 3.52723 5.55486V5.65043H3.42849C1.82396 5.65043 1.14279 6.45304 1.14279 6.98973C0.664431 7.19402 0.356201 7.74456 0.356201 8.25425C0.356201 9.26738 1.07073 9.98828 2.0141 9.98828C2.32834 9.98828 2.64924 9.85948 2.87207 9.68219C3.03553 9.74313 3.24502 9.77707 3.46118 9.77707C3.91352 9.77707 4.41789 9.61433 4.77149 9.07694C4.82419 9.08387 4.86956 9.08387 4.92227 9.08387C5.4987 9.08387 5.9964 8.68914 6.25859 8.17253C6.32398 8.04373 6.35 7.94193 6.35 7.86645C6.35 7.79235 6.3173 7.73072 6.24525 7.73072C6.15385 7.73072 6.14051 7.81936 5.97705 7.97586C5.61011 8.32281 5.04636 8.45161 4.46993 8.45161C4.18839 8.88027 3.84146 9.10464 3.44183 9.10464C3.14694 9.10464 2.91811 9.02293 2.68193 8.8595C2.49179 9.07695 2.25628 9.16559 2.02678 9.16559C1.50973 9.16559 1.14279 8.79163 1.14279 8.24732C1.14279 7.86645 1.3783 7.52712 1.70587 7.39762C1.76458 6.72451 2.4591 6.26884 3.32374 6.26884C3.43516 6.26884 3.54658 6.27576 3.66466 6.28961C3.79543 6.07217 4.10966 5.84087 4.55533 5.77924C4.6474 5.76608 4.71878 5.75915 4.77149 5.73215C4.82419 5.70444 4.85021 5.65043 4.85021 5.5888C4.85021 5.53478 4.8302 5.487 4.77816 5.45307C4.73213 5.42606 4.6534 5.4129 4.562 5.39213C4.14902 5.31041 3.65799 5.04518 3.40914 4.39907C2.41974 4.39907 1.69253 3.57638 1.69253 2.65188V2.59094C1.36495 2.45452 1.14279 2.12835 1.14279 1.74055C1.14279 1.23086 1.52907 0.822976 2.02011 0.822976C2.31499 0.822976 2.57052 0.972557 2.73464 1.19693C2.87207 1.15607 3.02886 1.14222 3.17964 1.14222C3.91352 1.14222 4.69943 1.6249 4.85021 2.56324C5.79358 2.65188 6.01641 3.4815 6.07512 3.82845C6.10782 4.00504 6.13383 4.15462 6.24525 4.15462C6.36334 4.15462 6.38936 4.01819 6.42872 3.83468C6.50077 3.48843 6.62553 3.20935 6.87439 2.9919C6.87439 2.10065 7.5162 1.33266 8.42688 1.33266Z" fill="#939CA1"/>
<path d="M10.3326 6.6629C10.0244 7.11857 9.80222 7.34294 9.10103 8.19957C8.17768 9.33528 7.69265 10.2535 6.88672 12.293C7.01815 12.2791 7.20829 12.266 7.41778 12.266C7.52253 12.266 7.60726 12.266 7.74536 12.2722L7.84343 12.0547C8.29577 11.0485 8.90422 9.68846 9.75619 8.64139L10.0511 8.28129C10.9284 7.21414 11.4721 6.58119 11.8131 5.12623C11.9311 4.60962 12.0292 4.14772 12.3635 3.81394C12.6644 3.51477 13.0446 3.38597 13.4309 3.38597C13.7585 3.38597 14.0013 3.46768 14.3549 3.6235C14.6758 3.76615 14.7933 3.79385 15.1342 3.79385C15.2523 3.79385 15.337 3.78693 15.4157 3.78L14.9574 4.41918L15.5799 4.87485C14.7999 5.11238 14.3876 5.89491 14.2495 6.25502C14.2235 6.32981 14.2108 6.37759 14.2108 6.42537C14.2108 6.48008 14.2369 6.5341 14.3156 6.5341C14.4003 6.5341 14.4657 6.46623 14.5771 6.32981C14.9574 5.85406 15.259 5.52719 16.66 5.07222L15.6713 4.29661L16.4178 3.16159H15.7173C15.2716 3.16159 14.9767 3.15467 14.5905 2.97116C14.0661 2.71978 13.7979 2.61105 13.3329 2.61105C12.7631 2.61105 12.2454 2.82158 11.8197 3.22946C11.328 3.69829 11.1772 4.32431 11.0011 5.01128C10.863 5.54104 10.6996 6.12621 10.3326 6.6629Z" fill="#939CA1"/>
<path d="M11.8391 11.2939C11.4655 11.8174 10.9545 12.5037 10.5615 13.2315C10.6863 13.2931 11.0993 13.5244 11.2434 13.6055C11.695 12.8984 12.3242 12.0286 12.7365 11.3687C13.1101 10.7704 13.2609 10.512 13.2869 9.70944C13.2936 9.5737 13.2936 9.44421 13.3062 9.3154C13.3389 8.90059 13.4443 8.47885 13.824 8.09174C14.1055 7.79881 14.5118 7.64993 14.9181 7.64993C15.3111 7.64993 15.5399 7.76488 15.8808 7.76488C16.123 7.76488 16.2998 7.70394 16.4572 7.643L16.582 7.59522L16.2804 8.34382L16.9876 8.64229C16.536 8.93452 15.5466 10.1928 15.5466 11.6817C15.5466 12.2191 15.6253 12.7149 15.7367 13.1567C15.7501 13.2045 15.7761 13.2523 15.8481 13.2523C15.9135 13.2523 15.9595 13.2114 15.9662 13.1366L15.9729 12.9801C15.9922 12.5245 16.0249 11.8043 16.2017 11.1582C16.4966 10.0702 17.2892 9.05017 18.0818 8.56057L16.9549 8.05089L17.44 6.8203L16.9096 6.93595C16.5887 7.00382 16.3525 7.06476 16.071 7.06476C15.8875 7.06476 15.678 7.03775 15.4291 6.97612C15.239 6.92903 15.0355 6.88817 14.748 6.88817C14.2303 6.88817 13.6732 7.09177 13.2936 7.47264C12.599 8.15961 12.5597 8.90059 12.5136 9.56055C12.4549 10.4373 12.2975 10.6547 11.8391 11.2939Z" fill="#939CA1"/>
<path d="M28.6481 11.7072C28.6021 11.6462 28.5627 11.6185 28.5107 11.6185C28.4319 11.6185 28.3926 11.6732 28.3926 11.7342C28.3926 11.8297 28.458 11.9454 28.6221 12.2314C29.1199 13.1081 29.7358 13.9917 30.4958 14.822C31.3145 15.7258 32.2773 16.5685 33.3063 17.3234L33.6272 17.5547C33.6733 17.5893 33.7059 17.6094 33.7453 17.6094C33.8107 17.6094 33.8567 17.5415 33.8567 17.4868C33.8567 17.4529 33.8434 17.4182 33.804 17.3843C32.8479 16.4806 31.8189 15.3788 30.8561 14.3186C30.1021 13.482 29.3294 12.5984 28.6481 11.7072Z" fill="#939CA1"/>
<path d="M7.56902 8.62695C7.66715 8.45729 7.96223 8.04248 8.08039 7.91298C7.5757 6.85275 6.74989 5.83962 6.3894 5.43797L6.08765 5.74405C6.43546 6.26759 7.01826 7.28072 7.56902 8.62695Z" fill="#939CA1"/>
<path d="M2.76717 2.48612C2.70775 2.43141 2.69507 2.39748 2.69507 2.35662C2.69507 2.30953 2.72778 2.25482 2.79988 2.25482C2.82592 2.25482 2.85195 2.26175 2.88533 2.2756C3.37 2.47919 3.78323 2.71742 4.15041 3.00965C4.45816 3.25411 4.75991 3.55396 5.05432 3.91406L4.77927 4.24023C4.4388 3.9473 3.33729 2.98957 2.76717 2.48612Z" fill="#939CA1"/>
<path d="M7.41144 4.76758L7.05762 4.54321C7.2866 3.97881 7.56899 3.46221 7.90278 3.0744C8.13911 2.79602 8.36208 2.57095 8.61109 2.34727C8.66984 2.29949 8.70255 2.25863 8.7613 2.25863C8.82739 2.25863 8.87345 2.31334 8.87345 2.36736C8.87345 2.39436 8.8601 2.4283 8.83406 2.46915C8.43418 3.11526 7.65377 4.39363 7.41144 4.76758Z" fill="#939CA1"/>
<path d="M2.97005 7.9199C2.8846 7.95383 2.84521 7.97461 2.79981 7.97461C2.72772 7.97461 2.69434 7.91298 2.69434 7.86519C2.69434 7.8181 2.71436 7.7911 2.76043 7.74955C3.5662 7.09721 4.27451 6.8389 5.25119 6.66855L5.36869 7.07712L2.97005 7.9199Z" fill="#939CA1"/>
<path d="M19.7717 2.64378C19.7717 2.40556 19.8899 1.9769 20.3161 1.9769C20.4603 1.9769 20.5979 2.01083 20.7095 2.06554C20.8671 2.14033 20.972 2.24906 20.972 2.3647C20.972 2.48728 20.8537 2.60985 20.6768 2.75943C20.4931 2.91525 20.2573 3.05859 20.0669 3.05859C19.8379 3.05859 19.7717 2.83353 19.7717 2.64378Z" fill="#939CA1"/>
<path d="M13.123 4.62855C13.123 4.33631 13.2934 4.01638 13.6213 4.01638C13.7656 4.01638 13.9359 4.07732 14.0608 4.20058C14.1329 4.26845 14.1657 4.34255 14.1657 4.41803C14.1657 4.58146 14.0147 4.73728 13.8377 4.846C13.7001 4.92771 13.5559 4.98242 13.4316 4.98242C13.2279 4.98242 13.123 4.85223 13.123 4.62855Z" fill="#939CA1"/>
<path d="M14.6628 8.82542C14.6628 8.75756 14.6695 8.67584 14.6956 8.59413C14.7483 8.41754 14.8592 8.24718 15.1351 8.24718C15.26 8.24718 15.3969 8.28111 15.5084 8.36352C15.6073 8.43139 15.6467 8.51934 15.6467 8.60798C15.6467 8.90021 15.1745 9.24023 14.938 9.24023C14.7677 9.24023 14.6628 9.06988 14.6628 8.82542Z" fill="#939CA1"/>
<path d="M12.0818 17.4043C11.1976 17.4043 10.804 16.9694 10.804 16.4189C10.804 15.4528 12.4354 14.5082 13.9027 13.9231L14.283 14.4334C13.3789 14.8067 11.558 15.61 11.558 16.3032C11.558 16.5477 11.6954 16.7249 12.2452 16.7249C13.2021 16.7249 14.231 16.2416 15.1805 15.7589C15.2526 15.725 15.338 15.691 15.4167 15.691C15.5408 15.691 15.6195 15.7319 15.711 15.8676L15.8684 16.092C14.7615 16.7249 13.3789 17.4043 12.0818 17.4043Z" fill="#939CA1"/>
<path d="M14.5187 17.664C13.654 18.1668 12.7567 18.5006 11.9641 18.5006C11.0795 18.5006 10.2935 18.1058 9.63838 17.0788C9.36351 16.6439 9.14735 16.1003 8.88516 15.6177C8.57092 15.0463 8.23 14.7403 7.63422 14.7403C7.09049 14.7403 6.55942 14.9715 5.99634 15.2229L6.02236 15.3524C6.06839 15.5629 6.14712 15.7125 6.33659 15.7125C6.42199 15.7125 6.50739 15.6724 6.55342 15.6585C6.86765 15.556 7.09649 15.4674 7.41806 15.4674C7.9091 15.4674 8.1446 15.7672 8.47885 16.5013L8.60361 16.7734C8.26269 16.896 7.46343 16.957 6.86765 16.957H6.58611L6.63214 17.2492C6.65149 17.3718 6.69753 17.4736 6.7956 17.5214C6.91302 17.5823 7.08381 17.5892 7.3787 17.5892C8.12526 17.5892 8.66899 17.4943 8.98323 17.4119C9.78916 18.6571 10.896 19.1328 11.9641 19.1328C12.8741 19.1328 13.7981 18.7859 14.6828 18.2831L14.5187 17.664Z" fill="#939CA1"/>
<path d="M15.409 17.9708L15.2522 17.3448C16.6012 16.5907 17.8328 15.9854 19.7982 15.7881C19.8376 16.5699 19.7849 17.556 20.342 17.556C20.8524 17.556 21.9659 16.189 23.2502 14.4758C23.3682 14.5914 23.5577 14.714 23.7285 14.8497L23.4009 15.2915C22.1493 16.9646 21.0819 18.3926 20.2039 18.3926C19.3853 18.3926 19.077 17.3926 19.0644 16.6447C17.8134 16.7742 16.6339 17.2091 15.409 17.9708Z" fill="#939CA1"/>
<path d="M32.7421 4.32387C32.231 4.32387 32.0869 4.03094 32.0869 3.61682C32.0869 2.7602 32.6046 1.52961 32.9322 0.828798H32.139C31.7267 1.65842 30.1021 4.31695 29.2241 5.41872L29.7285 5.98242C30.2002 5.43881 30.7179 4.51431 31.281 3.60297H31.3857C31.3857 3.65076 31.3797 3.70477 31.3797 3.75255C31.3797 4.52124 31.7593 5.09186 32.696 5.09186C33.2725 5.09186 34.1765 4.7927 35.0284 4.49354C35.7356 4.24216 36.3841 3.98385 36.705 3.88898V3.07321C36.3381 3.18816 35.5915 3.48733 34.8183 3.76641C34.0063 4.05864 33.2071 4.32387 32.7421 4.32387Z" fill="#939CA1"/>
<path d="M34.4907 6.79005C35.2767 6.4438 36.685 5.85863 37.4976 5.55255V4.72293C35.8664 5.34895 33.0036 6.57953 31.0515 7.68131C31.1042 7.74848 31.4451 8.24501 31.4838 8.30664C32.3091 7.95277 33.0497 7.72147 33.7175 7.72147C34.6549 7.72147 35.4208 7.72147 36.7051 7.40846V6.78313C35.9845 6.91955 35.2179 7.08229 34.7202 7.08229C34.4254 7.08229 34.34 7.04143 34.34 6.93964C34.34 6.87869 34.3793 6.83784 34.4907 6.79005Z" fill="#939CA1"/>
<path d="M17.7086 10.6142L17.3936 11.2402H20.7425L20.4936 10.6142H17.7086Z" fill="#939CA1"/>
<path d="M5.6493 14.3457C6.00289 14.3457 6.29111 14.2231 6.56665 14.1082C6.82817 13.9987 7.09037 13.89 7.44396 13.89C8.28259 13.89 9.31736 14.3117 10.228 14.7127C10.2807 14.7335 10.3395 14.7466 10.3982 14.7466C10.5429 14.7466 10.6544 14.6788 10.7257 14.5361L10.8438 14.3118C9.84175 13.7065 8.24323 13.0604 7.41127 13.0604C7.03166 13.0604 6.75612 13.1629 6.49459 13.2709C6.19971 13.3942 5.94418 13.523 5.67531 13.523C5.01416 13.523 3.31756 12.8429 3.31756 12.1837C3.31756 11.4088 6.01624 11.1096 6.31112 11.1096L6.57932 10.4767C4.6212 10.4767 2.28879 11.1906 2.28879 12.1359C2.28879 12.4081 2.43957 12.5438 2.43957 12.7952C2.43957 13.1352 2.28879 13.3665 2.28879 13.7474C2.28879 13.9987 2.4329 14.3187 2.60303 14.5978C2.7865 14.89 3.00266 15.0797 3.00266 15.3249C3.00266 15.5084 2.88524 15.7258 2.88524 16.1545C2.88524 17.0721 3.38961 17.6302 4.37168 18.7244L4.56849 18.9418C3.75655 19.2687 2.24276 19.9487 1.88916 20.1046C0.664252 20.635 0.356689 21.2811 0.356689 22.3012C0.356689 22.6952 0.356689 23.144 0.382709 23.5449H0.618218C1.10992 23.5449 1.16863 23.2395 1.16863 22.9473C1.16863 22.7499 1.16196 22.5256 1.16196 22.2804C1.16863 21.7167 1.18864 21.2133 2.06596 20.8054C2.42023 20.6419 4.15552 19.9079 5.44648 19.3366C5.82609 19.1662 6.17969 19.0236 6.57265 19.0236C7.01164 19.0236 7.51602 19.2209 8.14515 19.6087C8.67555 19.9349 9.23263 20.3767 9.67162 20.8864L10.228 20.4446C9.74968 19.8601 9.08852 19.3366 8.4267 18.9287C7.76487 18.5208 7.17577 18.2826 6.67806 18.2826C6.4619 18.2826 6.2851 18.3234 6.13432 18.3643C5.95752 18.4121 5.7934 18.4661 5.58391 18.4661C5.34173 18.4661 5.13825 18.4051 4.84336 18.0513C4.73195 17.9225 4.02475 17.0859 3.87397 16.8415C3.80192 16.7258 3.67116 16.4945 3.67116 16.2224C3.67116 16.1067 3.6905 15.971 3.75655 15.8484C4.36501 16.338 5.1189 16.6372 6.03558 16.7528L5.91149 16.1067C4.59451 15.7466 3.1928 14.543 3.1928 13.7681C3.1928 13.6047 3.23216 13.4891 3.29154 13.3464C3.80192 13.836 5.00081 14.3457 5.6493 14.3457Z" fill="#939CA1"/>
<path d="M15.0754 14.4694C15.9007 13.8641 16.752 13.7963 17.4399 13.7963C17.8528 13.7963 18.3372 13.8572 18.8482 13.9251C19.2612 13.9798 19.6342 14.0206 20.0798 14.0206C20.9772 14.0206 21.8812 13.6806 22.2741 13.5033C22.3855 13.6467 22.5757 13.8371 22.7265 13.9729C22.5363 14.0954 21.3314 14.7748 20.0998 14.7748C19.5561 14.7748 19.0384 14.7076 18.5927 14.646C18.1998 14.592 17.7741 14.5442 17.3611 14.5442C16.9095 14.5442 15.9988 14.6799 15.4357 14.959L15.0754 14.4694Z" fill="#939CA1"/>
<path d="M27.2399 16.896C26.2571 19.0448 24.7633 20.6085 23.2309 21.5129C22.5037 21.9409 21.8485 22.2199 20.4341 22.2199H17.3745C16.281 22.2199 15.5932 22.3695 15.0561 22.5122C14.479 22.6687 14.1128 22.8245 13.5297 22.8245C12.665 22.8245 11.8657 22.3827 11.4795 21.9616L12.2 21.3702L11.8397 20.873C11.6302 21.0302 9.069 22.9949 8.53126 23.4367L8.49857 23.4166C8.51192 23.2809 8.51192 23.1583 8.51192 23.0357C8.51192 21.5399 7.84342 21.1791 6.82866 20.7581L6.14082 21.1791C7.53586 21.6625 7.88278 22.0496 7.88278 23.1306C7.88278 23.9879 7.58789 24.3272 7.16224 24.5862C6.72325 24.8515 6.17951 24.9733 5.70182 24.9733C5.49834 24.9733 5.40694 25.0142 5.33488 25.089C5.25616 25.1707 5.2168 25.2933 5.2168 25.463V25.7012H5.38092C6.25824 25.7012 7.07084 25.5585 7.96151 24.8307L10.8637 22.4783C11.276 22.9679 12.3181 23.6479 13.549 23.6479C14.2435 23.6479 14.6892 23.4706 15.331 23.3009C15.8287 23.1714 16.3137 23.0558 17.3745 23.0558H20.4468C22.0193 23.0558 22.7792 22.7158 23.6172 22.2269C25.4385 21.166 26.991 19.371 27.869 17.3101C27.6395 17.1612 27.4233 17.0248 27.2399 16.896Z" fill="#939CA1"/>
<path d="M22.3073 19.4535C23.0999 18.1343 23.8071 16.9646 25.5431 16.0131C25.3596 15.8975 25.0981 15.7209 24.96 15.6253C24.2855 15.9314 23.6176 16.5429 23.0479 17.162C21.7376 18.5761 21.855 19.3919 20.4733 19.9431C20.1257 20.0788 19.7001 20.2284 19.1563 20.3579C18.8354 19.3309 18.0302 18.3109 17.1782 18.3109C16.5884 18.3109 15.9072 18.6301 15.1213 18.9909C14.198 19.4126 13.3527 19.8953 13.0845 20.0788L13.4447 20.5823C13.7196 20.4251 14.5122 20.0172 15.3048 19.664C15.9926 19.3579 16.6151 19.1065 17.0341 19.1065C17.7086 19.1065 18.1476 19.9022 18.3904 20.5407C17.5058 20.7589 16.0513 20.8129 15.613 20.8129C15.4095 20.8129 15.3375 20.8468 15.2654 20.9084C15.2 20.9694 15.1473 21.0781 15.1147 21.2277L15.0626 21.459H15.5336C17.9841 21.459 20.2965 21.058 21.7829 20.1197C21.9931 20.1813 22.1766 20.2215 22.4121 20.2215C23.2634 20.2215 24.1414 19.7388 24.6918 19.297C24.8879 19.1405 24.934 18.9971 24.934 18.8413C24.934 18.7665 24.9273 18.6987 24.9206 18.6301L24.8946 18.3656C24.1087 19.011 23.4535 19.4943 22.6416 19.4943C22.4975 19.4943 22.3927 19.4805 22.3073 19.4535Z" fill="#939CA1"/>
</svg>
