<svg width="130" height="87" viewBox="0 0 130 87" fill="none" xmlns="http://www.w3.org/2000/svg">
<g style="mix-blend-mode:luminosity">
<path d="M86.4671 24.0396H82.2522V32.3441C82.2522 35.0509 85.132 37.3635 88.6924 37.3635C92.2527 37.3635 95.3681 35.0246 95.3681 32.3441V24.0396H91.1532V31.5294C91.1532 32.7645 90.106 33.7632 88.8233 33.7632C87.5143 33.7632 86.4671 32.7645 86.4671 31.5031V24.0396ZM19.6051 19.4669V36.7065H15.2332V15.9191H23.1131C26.5426 15.9191 29.3438 18.7047 29.3438 22.0949C29.3438 24.9857 27.328 27.4034 24.6054 28.0341L30.679 36.7065H25.4693L21.0973 29.9V24.9331H22.1183C23.7414 24.9331 25.0504 23.7242 25.0504 22.2263C25.0504 20.7283 23.82 19.4669 22.1969 19.4669H19.6051ZM59.8427 36.7065V14.9204H55.7064V25.1959C54.6069 24.1184 53.2194 23.514 51.6224 23.514C48.2191 23.514 45.4441 26.5362 45.4441 30.2942C45.4441 34.026 48.2191 37.0745 51.6224 37.0745C53.2455 37.0745 54.7639 36.4437 55.7064 35.2874V36.7065H59.8427ZM52.8005 33.5267C51.125 33.5267 49.7637 32.0287 49.7637 30.1891C49.7637 28.3495 51.125 26.8515 52.8005 26.8515C54.476 26.8515 55.8373 28.3495 55.8373 30.1891C55.8111 32.0287 54.4498 33.5267 52.8005 33.5267ZM77.2258 25.4061C78.3515 24.3549 79.0584 22.9358 79.0584 21.3853C79.0584 19.9662 78.5086 18.6785 77.5661 17.6535C76.5713 16.5761 74.8435 15.9191 72.4874 15.9191H65.4451V36.7065H74.5555C78.0374 36.654 80.8647 33.9997 80.8647 30.741C80.8386 28.3758 80.0008 26.6939 77.2258 25.4061M73.7178 33.1062H69.7647V19.6508H72.5397C73.744 19.6508 74.765 20.5706 74.765 21.8058C74.765 23.0409 73.744 24.0396 72.5397 24.0396H71.0737V27.7976H73.7701C75.2362 27.7976 76.3357 29.0065 76.3357 30.4782C76.2834 31.9499 75.3147 33.0273 73.7178 33.1062" fill="#4B4B4B"/>
<path d="M34.344 28.7437C34.344 27.3509 35.4697 26.2208 36.8572 26.2208C38.2447 26.2208 39.3704 27.3509 39.3704 28.7437H34.344ZM43.4544 31.1089C43.4806 30.8198 43.5068 30.5307 43.5068 30.2417C43.5591 25.7478 40.627 23.3037 36.8572 23.3037C33.0874 23.3037 30.0244 26.4048 30.0244 30.2417C30.0244 34.0785 33.0874 37.1796 36.8572 37.1796C39.7369 37.1796 41.9884 35.8656 43.1403 33.8157L39.7893 32.2652C39.3704 33.185 38.3756 33.842 37.1976 33.842C35.653 33.842 34.3702 32.6594 34.3702 31.1089H43.4544M97.3053 14.9204H101.442V36.7065H97.3053V14.9204ZM104.348 14.9204H108.484V36.7065H104.348V14.9204Z" fill="#4B4B4B"/>
<path d="M52.3553 51.1079C52.3553 45.4839 56.8844 40.9375 62.4867 40.9375C68.0891 40.9375 72.6181 45.4839 72.6181 51.1079C72.6181 56.7318 68.0891 61.2782 62.4867 61.2782C56.8844 61.2782 52.3553 56.7055 52.3553 51.1079Z" fill="#AAAAAA"/>
<path fill-rule="evenodd" clip-rule="evenodd" d="M54.345 45.0636C54.5021 45.1425 54.6591 45.2213 54.8424 45.3264C55.6016 45.852 56.099 46.2988 57.2509 47.2711C57.5912 47.6128 57.9839 48.1647 58.2719 48.5063C58.9002 49.2947 59.3452 49.8466 59.4238 50.5036C59.607 51.8176 59.7903 52.5534 60.2877 53.8937C60.3401 54.0251 60.5495 54.2091 60.6804 54.3667C60.9945 54.7609 61.1254 55.3917 61.7014 55.7333C62.0155 55.9173 62.0679 55.9435 62.1726 56.0224C62.3297 56.1538 62.0679 56.6268 61.2563 56.5217C61.6752 56.7319 61.6228 57.205 61.0207 57.2313C59.8427 57.2838 59.1096 56.6005 58.9526 56.4166C58.874 56.3377 58.6384 56.6531 58.2195 56.8108C57.8007 57.021 57.2247 56.8108 56.7797 56.8896C56.3608 56.9685 55.811 57.2313 55.366 57.2575C54.5806 57.2838 54.4759 56.7319 54.4759 56.2589V56.0487C54.3974 56.3377 54.1094 56.8371 54.1094 56.8371C54.0047 57.0736 53.8476 57.3627 53.5596 57.4678L52.7219 57.5729C52.0674 57.862 51.4129 58.0722 50.7322 58.3087C50.3396 58.3876 49.8945 58.3087 49.6065 58.0722C49.3709 57.8883 49.24 57.6517 49.1091 57.4152C48.9782 57.3627 48.795 57.4152 48.6379 57.3627C48.507 57.3364 48.4285 57.2313 48.3499 57.1524L47.774 56.1801C47.7216 56.0487 47.7216 55.8647 47.774 55.7333C47.8787 55.5231 48.1143 55.4179 48.3499 55.4179C48.7688 55.3917 49.24 55.2603 49.6589 55.4179C49.8422 55.2077 50.1301 55.234 50.3919 55.1814C50.2872 55.0237 50.1301 54.9449 49.9992 54.8135C49.24 54.9975 48.4023 54.8661 47.6693 54.7347C46.9886 54.577 46.4127 54.9712 45.732 54.8661L45.5226 55.3128C45.2084 55.6545 45.1822 56.2326 44.711 56.4691C44.3707 56.548 44.1089 56.7845 43.8209 56.9422C43.2973 57.2313 42.5905 57.0999 42.0145 56.9947C41.7789 56.9685 41.6218 56.9947 41.4124 57.0736C41.2292 57.205 41.0197 57.4152 40.8103 57.5729C40.4699 57.7043 40.182 57.9934 39.8155 58.0197C39.606 58.0197 39.3966 57.8883 39.1872 57.9408C38.9254 58.2299 38.7945 58.7029 38.3756 58.8343C37.9567 58.9657 37.4331 58.8606 37.0143 58.7555C36.8834 58.8081 36.8048 58.9132 36.6478 58.8869C36.3598 58.8081 36.0718 58.7292 35.81 58.5715C35.7053 58.4664 35.6791 58.335 35.653 58.2299C35.653 58.0459 35.81 57.8883 35.8886 57.7306C35.9147 57.5466 35.9147 57.2838 35.9933 57.0999C36.1242 56.8108 36.4122 56.6268 36.7001 56.4954C36.7263 56.2852 36.8572 56.1012 37.0405 55.9961C37.3808 55.8121 37.7473 55.3917 38.1923 55.6282L38.6636 56.0224C39.0824 55.8384 38.9777 55.4179 39.1872 55.0763C39.2919 54.8398 39.4228 54.577 39.6846 54.577C39.8678 54.5507 40.0773 54.6033 40.2605 54.577C40.5223 54.4981 40.8103 54.393 40.9935 54.1828L40.9674 54.0251C40.7056 53.5258 40.627 52.9213 40.6008 52.3169C40.1296 52.3695 39.6322 52.4483 39.1348 52.3432C38.4018 52.2381 37.6949 51.6599 37.407 50.9241C37.0928 50.2145 37.2237 49.2159 37.7211 48.6114C38.1138 48.1384 38.5589 47.7179 39.0301 47.35C38.873 47.2974 38.6898 47.3237 38.5327 47.2711C37.852 47.166 37.1714 46.5616 37.0143 45.8783C36.9096 45.4315 37.0143 45.0111 37.2237 44.6431C37.3023 44.5643 37.3808 44.4855 37.5117 44.538C37.852 44.6694 37.9567 44.8534 38.2709 45.0111L38.4541 45.1162C39.3181 45.4053 40.4699 45.4053 40.8103 46.4827C41.0197 47.3237 40.4961 47.9544 39.894 48.4275C39.4228 48.7691 38.9515 49.1896 38.7159 49.6889C38.6112 50.0568 38.6636 50.4247 38.9777 50.6875C39.2919 51.0029 39.8416 51.0029 40.2343 50.8452C40.9674 50.5299 41.648 50.0568 42.3025 49.5575C42.9308 49.0845 43.69 48.9005 44.5016 48.8742C44.8681 48.7954 45.1822 48.6377 45.4702 48.4012C45.9676 47.9281 46.4912 47.5339 47.1195 47.3763C47.4075 47.3237 47.6954 47.2974 47.9834 47.2711C48.219 47.166 48.3761 46.8769 48.5594 46.7455C49.4233 45.9834 50.5752 46.0097 51.4914 45.4053C52.015 45.0111 52.591 44.7483 53.2716 44.7745C53.5858 44.8008 53.8738 44.8534 54.1356 44.9585L54.345 45.0636ZM55.2089 53.9988C54.633 54.0251 54.2665 54.1565 53.8738 54.2091C53.8999 54.577 54.1094 54.8923 54.3974 55.2865C54.5544 54.6821 55.0518 54.4456 55.2089 53.9988ZM69.9479 54.1302C70.2097 54.5244 70.3667 54.9186 70.6024 55.3391C70.838 54.8923 71.0474 54.4719 71.2568 54.2091C71.2307 54.1828 70.55 54.2616 69.9479 54.1302M70.4976 56.0749C70.4715 56.1538 70.4191 56.1801 70.3144 56.1801C70.3929 56.548 70.1311 57.2313 69.4766 57.2575C69.0316 57.2838 68.2986 56.8371 67.8797 56.8108C67.4347 56.7845 66.6231 57.1261 66.1519 56.4166C65.5236 57.1787 64.7905 57.3889 64.1622 57.3627C63.7957 57.3627 63.403 57.1524 63.9528 56.6794C62.7486 57.0736 62.7486 56.2589 62.958 56.1012C63.0889 55.9961 63.246 55.9173 63.691 55.4705C65.3665 53.7097 64.7382 50.6613 66.5707 48.6377C67.2776 47.8493 67.8535 47.4025 69.2934 46.3776C69.7908 46.036 70.2882 45.5367 70.7594 45.195L70.7856 45.2476V45.2213C71.0736 45.0111 71.3354 44.8008 71.6495 44.722C72.304 44.6431 72.9061 44.8534 73.4035 45.195C73.6653 45.379 73.8748 45.5892 74.0842 45.852C74.2413 46.0097 74.4769 46.0097 74.6863 46.0885C75.2885 46.1937 75.812 46.4302 76.3095 46.7455C76.6498 46.9558 76.9378 47.3237 77.3566 47.3763C77.854 47.4551 78.2991 47.6128 78.7441 47.8756C79.2677 48.2172 79.7389 48.6377 80.3672 48.7428C81.6239 48.8742 82.671 49.5838 83.6658 50.2933C84.2418 50.635 84.9224 51.0292 85.6293 50.7927C85.8387 50.7138 85.9958 50.5299 86.0482 50.3459C86.1005 49.8729 85.8125 49.5049 85.5246 49.1633C84.9225 48.4537 83.8753 47.8493 84.0062 46.8244C84.1894 46.0623 85.0272 45.6155 85.6817 45.4053C86.0482 45.2739 86.4932 45.3264 86.8074 45.0111C86.9644 44.9059 87.043 44.538 87.3048 44.6694C87.5142 44.8008 87.5404 45.0636 87.5666 45.3001C87.6713 46.036 87.5142 46.7718 86.8335 47.1923C86.5194 47.4025 86.1791 47.4814 85.8125 47.5602C86.3623 48.007 86.9121 48.5589 87.2262 49.1896C87.4095 49.5575 87.5142 49.8729 87.5404 50.2933C87.5142 51.0817 87.043 51.765 86.3623 52.1592C85.9696 52.3695 85.5246 52.4483 85.0534 52.4483C84.8701 52.4483 84.713 52.3957 84.5559 52.3957C84.6345 52.7637 84.6345 53.263 84.5559 53.6835C84.5298 53.8937 84.3989 54.1302 84.3989 54.393C84.5036 54.5244 84.6607 54.5244 84.7916 54.5244C85.1319 54.5244 85.5508 54.4981 85.734 54.8661C85.8911 55.2077 85.9696 55.6019 86.1005 55.9435C86.1529 55.9961 86.1791 56.1275 86.2576 56.1012C86.4932 55.891 86.7288 55.6019 87.0692 55.6807C87.3833 55.891 87.6975 56.1275 88.0116 56.364C88.0901 56.4429 88.1163 56.548 88.1425 56.6794C88.4043 56.7845 88.7446 56.9685 88.8232 57.2838C88.8755 57.4941 88.8493 57.7043 88.9017 57.8883C88.9802 58.0985 89.1897 58.3613 89.0326 58.6241L88.9279 58.7029L87.9331 59.0183C87.8545 59.0183 87.776 58.9657 87.6975 58.8869C87.1739 58.8606 86.5456 59.0183 86.1267 58.6504C85.9434 58.4927 85.8125 58.3087 85.6817 58.0985C85.3675 58.2562 84.9225 58.3613 84.6083 58.1511C83.9538 57.6517 83.2993 57.1524 82.4092 57.1787C82.0165 57.2575 81.5453 57.3627 81.1526 57.205C80.7861 56.9422 80.3672 56.8108 80.0793 56.4166C79.6604 55.9698 79.6604 55.4442 79.5033 54.8923C78.9274 55.0237 78.2991 54.9449 77.7231 54.9186C77.2519 54.8923 76.8069 54.9712 76.3618 55.0763C75.812 55.1814 75.2099 55.234 74.634 55.2077L74.346 55.4179C74.4769 55.4442 74.6078 55.4442 74.7125 55.5493L74.8172 55.6545C75.2885 55.707 75.8382 55.6282 76.2833 55.7333C76.388 55.7596 76.4927 55.8647 76.5451 55.9698C76.5974 56.1012 76.5974 56.2589 76.5189 56.364C76.2833 56.6794 76.1524 57.0473 75.8382 57.3101C75.7597 57.4152 75.5241 57.2838 75.4979 57.4678C75.3932 57.9408 74.9481 58.335 74.5031 58.4401C74.3198 58.4664 74.1104 58.4401 73.9533 58.3876C73.4035 58.2036 72.8538 58.0459 72.304 57.8883C72.1208 57.8357 71.9637 57.6517 71.8066 57.5466C71.571 57.5466 71.2307 57.6255 71.0736 57.4152C70.995 57.3627 70.9165 57.1787 70.8903 57.0999C70.7071 56.8633 70.5762 56.4429 70.4976 56.0749" fill="#AAAAAA"/>
<path fill-rule="evenodd" clip-rule="evenodd" d="M54.0832 48.3749C54.2403 48.7691 54.2403 49.2947 54.1355 49.7151C54.1094 49.7414 54.0832 49.7414 54.057 49.7151C53.9785 49.3472 53.8999 48.9793 53.769 48.6114C53.6905 48.4011 53.4287 48.2172 53.5334 47.9807C53.5858 47.9281 53.6905 47.9281 53.769 47.9544C53.8999 48.0858 53.9785 48.2172 54.0832 48.3749M58.2719 52.0541C58.5598 52.3957 58.7693 52.7636 58.6646 53.2104C58.6122 53.2892 58.6384 53.4469 58.5075 53.4732C58.4551 53.4995 58.4028 53.4469 58.4028 53.3943C58.3766 53.1578 58.3766 52.895 58.2457 52.7111C58.0886 52.5534 57.9054 52.238 57.6436 52.238C57.4603 52.2906 57.3294 52.5008 57.2247 52.6322C57.2247 52.6585 57.1985 52.6585 57.1723 52.6322C57.0676 52.3694 57.2771 52.1592 57.3556 51.9489C57.5127 51.7913 57.4865 51.3445 57.8268 51.4759C58.0624 51.6336 58.1148 51.8964 58.2719 52.0541M57.7221 55.1814C57.7483 55.3391 57.7483 55.5756 57.5912 55.6807C57.4341 55.7333 57.2247 55.7595 57.0414 55.7333C56.9891 55.707 56.9367 55.6807 56.9629 55.6281C57.0414 55.3916 57.2771 55.1288 57.5389 55.0763C57.5912 55.0763 57.6959 55.0763 57.7221 55.1814M38.6112 45.5892C39.2395 45.7469 39.9202 45.7469 40.3914 46.2462C40.6532 46.5615 40.6794 47.1134 40.4699 47.4288C40.1034 48.0595 39.3704 48.3749 38.9253 48.9267C38.4803 49.2947 38.3232 49.8728 38.4541 50.451C38.6112 50.9503 39.1086 51.2919 39.606 51.3182C40.3914 51.3445 40.9673 50.9503 41.5956 50.5824C42.2239 50.1356 42.7999 49.5575 43.5067 49.3735C43.978 49.2158 44.5015 49.2947 44.9728 49.1107C45.4702 49.0056 45.8629 48.5851 46.2556 48.2172C46.7006 47.8493 47.2242 47.639 47.8001 47.6653C48.3237 47.7441 48.6117 47.2711 48.9782 46.9557C49.5803 46.4039 50.3657 46.3513 51.0726 46.0359C51.57 45.8783 51.9627 45.5103 52.4339 45.2738C52.8789 45.0899 53.4811 45.0373 53.9261 45.2213C54.2141 45.3527 54.5282 45.4841 54.79 45.6943L56.9105 47.4813C56.9367 47.5602 57.0153 47.6127 57.0676 47.639C57.6697 48.3749 58.298 49.0844 58.7955 49.8991C58.9525 50.1882 59.0311 50.4773 59.1096 50.7926C59.2143 52.0015 59.5285 53.0527 59.9212 54.1039C60.0259 54.2616 60.2353 54.393 60.34 54.5507C60.6804 55.0237 60.8898 55.6281 61.4396 55.9435L61.7537 56.1012C61.7799 56.1275 61.7799 56.18 61.7537 56.2063L61.7014 56.2589C61.0469 56.364 60.5495 55.9698 60.2091 55.4967C59.9997 55.0763 59.7117 54.6295 59.2405 54.4455C59.2143 54.4455 59.1881 54.4718 59.1881 54.4718C59.2405 54.6295 59.3976 54.7346 59.4499 54.866C59.6332 55.1551 59.7903 55.4705 59.8688 55.7858C59.9735 56.1275 60.34 56.364 60.628 56.548L61.0469 56.7582C61.0992 56.7845 61.1254 56.8633 61.0731 56.9159L61.0207 56.9422C60.3139 56.9684 59.6856 56.7319 59.1881 56.2063C59.0834 56.0749 58.9264 55.9698 58.7431 55.9698C58.4289 56.2589 58.1148 56.5217 57.6959 56.548C57.2509 56.4691 56.7796 56.4691 56.387 56.6268C56.0204 56.7582 55.6539 56.9159 55.2612 56.9159C55.078 56.9159 54.8686 56.837 54.79 56.6531C54.79 56.4165 54.6329 56.1538 54.7638 55.9172L55.0256 55.523C55.0256 55.4705 54.9995 55.4179 54.9471 55.4179C54.8424 55.3916 54.6591 55.5756 54.6068 55.3916C54.6329 54.9974 55.0256 54.7346 55.2874 54.4718C55.3398 54.1565 55.4707 53.8674 55.7063 53.6046C55.7063 53.5783 55.6801 53.5257 55.6278 53.5257C55.2874 53.5783 54.9471 53.6571 54.5806 53.6571C54.2926 53.8148 53.9261 53.9199 53.5858 53.8148C53.5072 53.7623 53.5334 53.6834 53.5596 53.6309C53.9261 53.1315 54.057 52.5008 53.9523 51.8964C53.9261 51.8701 53.9261 51.8175 53.8737 51.8175C53.8214 51.8175 53.8214 51.8701 53.7952 51.8964C53.7167 52.4745 53.5334 52.9213 53.2193 53.4206C52.9836 53.6571 52.6171 53.6571 52.303 53.736C52.2244 53.7623 52.1459 53.8411 52.1459 53.9199C52.1459 54.1302 52.2768 54.2616 52.3553 54.4455L53.036 55.707C53.0622 56.0486 52.9051 56.3903 52.8266 56.7056C52.8528 56.7582 52.9051 56.7319 52.9575 56.7056C53.1931 56.4954 53.3502 56.2063 53.4549 55.8909C53.4811 55.7595 53.4287 55.6019 53.3763 55.4967L52.6695 54.0776C52.7219 53.9988 52.8266 53.9988 52.9051 53.9725C53.0622 53.9725 53.2193 54.0513 53.3763 54.1039C53.5334 54.5244 53.7167 54.9711 54.0046 55.3391C54.057 55.5756 54.1355 55.8909 53.9785 56.0749C53.8214 56.3903 53.6643 56.6531 53.4549 56.9422C53.2716 57.1261 53.0098 57.0998 52.748 57.1261H52.6695C52.0412 57.4678 51.3867 57.678 50.706 57.8882C50.4181 58.0196 50.0777 57.9145 49.8421 57.7306C49.6065 57.5466 49.5018 57.2838 49.3447 57.0473C49.1615 56.8107 48.8735 57.021 48.6641 56.8896C48.4808 56.6005 48.2975 56.3114 48.1405 55.9961C48.1405 55.9172 48.1405 55.8384 48.219 55.7858C48.4546 55.707 48.7164 55.707 48.9782 55.6807C49.2138 55.6544 49.4756 55.707 49.6327 55.8647C49.9468 56.2326 50.0777 56.7319 50.549 56.9684C50.9155 56.9947 51.2296 56.8896 51.5438 56.7319C51.727 56.6268 51.9365 56.4691 51.9365 56.2326C51.9103 55.7596 51.5961 55.3916 51.2034 55.1288C50.8108 54.9186 50.3919 54.6295 50.1039 54.2616C49.9468 54.0513 49.9207 53.8148 49.8421 53.6046C49.8159 53.552 49.7112 53.552 49.6851 53.5783C49.528 53.7097 49.6589 53.9462 49.6589 54.1039C49.6851 54.209 49.7374 54.3404 49.6851 54.4193C49.4494 54.6032 49.1353 54.4981 48.8473 54.5244C48.2714 54.4981 47.7216 54.2616 47.1195 54.3141C46.5435 54.3404 45.7582 54.7346 45.3393 54.1565C45.1298 53.6046 45.1822 52.9476 45.2869 52.3957C45.2869 52.3431 45.2346 52.2906 45.1822 52.2906C45.1298 52.2643 45.0775 52.2906 45.0513 52.3431C44.8942 52.895 44.8681 53.4995 44.7372 54.0776C44.5277 54.577 44.1612 55.1025 43.6638 55.3653C43.2188 55.6019 42.6952 55.6807 42.1454 55.7333C41.1506 55.7595 40.2343 55.9435 39.606 56.8108C39.5536 56.8896 39.4751 56.9684 39.5013 57.0736C39.5275 57.0998 39.606 57.1261 39.6322 57.0998C40.3128 56.3377 41.1768 56.0223 42.1716 56.0749C43.114 56.0749 44.0565 55.9172 44.6586 55.1025C44.8157 54.9186 44.9204 54.7346 45.0513 54.5244C45.156 54.5244 45.2346 54.6558 45.3131 54.7083C45.3393 54.9974 45.1037 55.1814 44.9989 55.4179C44.8681 55.6807 44.7372 55.9961 44.4754 56.1537C44.1612 56.2326 43.8994 56.4428 43.6114 56.6005C43.3235 56.7319 42.957 56.7845 42.6166 56.7056C42.1978 56.6268 41.6218 56.5217 41.2029 56.7056C40.9935 56.837 40.8103 57.0736 40.6008 57.205C40.3129 57.3364 40.0511 57.5729 39.7107 57.5466C39.4751 57.494 39.1871 57.3364 38.9777 57.5466C38.7159 57.7831 38.6636 58.2036 38.3232 58.3613C37.9305 58.5715 37.5117 58.3613 37.119 58.335C37.1713 57.9408 37.2237 57.5729 37.4855 57.2838C37.6426 57.2575 37.7735 57.2312 37.9044 57.1261C38.0614 56.9947 38.1661 56.8108 38.2709 56.6268C38.6112 56.4166 39.0039 56.2589 39.2133 55.8909C39.3704 55.5493 39.3704 55.2339 39.6322 54.9186L39.7631 54.866L40.4699 54.8135C40.7579 54.6821 41.0197 54.5507 41.2815 54.3404C41.36 54.2616 41.3862 54.1302 41.36 53.9988C41.2291 53.6571 41.1244 53.4206 41.0459 53.0527C40.9673 52.6848 41.0197 52.3169 40.9673 51.8964C40.9412 51.8701 40.915 51.7913 40.8626 51.7913C40.3914 51.8964 39.9463 52.0278 39.4228 51.9489C38.7159 51.8701 37.9829 51.3971 37.7211 50.6875C37.4855 50.0831 37.5378 49.2158 37.9829 48.7165C38.4018 48.1909 38.9253 47.7967 39.4489 47.3499C39.5275 47.2974 39.5275 47.1923 39.5537 47.1134C39.5537 47.0083 39.4489 46.9295 39.3704 46.8769C39.0562 46.7981 38.6897 46.9032 38.3756 46.7718C37.8258 46.5878 37.4069 46.0622 37.3284 45.4841C37.3022 45.2213 37.3546 45.011 37.4855 44.8008C37.9044 45.1687 38.2185 45.4841 38.6112 45.5892M37.0404 57.3364V57.4152C36.9095 57.7306 36.831 58.0985 36.7263 58.4664C36.4907 58.4401 36.2812 58.3613 36.098 58.2824C36.0456 58.2299 36.098 58.1773 36.098 58.1248C36.3336 57.9145 36.2551 57.6517 36.3074 57.3626C36.3336 57.205 36.4907 57.0735 36.6477 56.9947C36.831 57.021 36.9357 57.205 37.0404 57.3364M38.1923 56.2326C38.0614 56.4954 37.8782 56.8108 37.5902 56.9684C37.4855 56.9947 37.3546 56.9947 37.2499 56.9422C37.1975 56.8896 37.0928 56.837 37.0928 56.7319C37.119 56.6268 37.0666 56.4954 37.1713 56.4428C37.3808 56.3114 37.5902 56.18 37.7996 55.9961C37.852 55.9698 37.9567 55.9435 37.9829 55.9961C38.0876 56.0749 38.1661 56.1275 38.1923 56.2326M51.3082 56.1275C51.3343 56.2326 51.4914 56.364 51.3867 56.4691C51.1773 56.6268 50.9417 56.7319 50.6537 56.7056C50.4443 56.548 50.4704 56.2589 50.2872 56.0486C50.2348 55.891 49.9992 55.8909 50.0516 55.7333L50.1301 55.6807C50.4181 55.6807 50.706 55.6807 50.994 55.6281C51.282 55.6019 51.2035 55.9435 51.3082 56.1275M67.8535 51.8438C68.0106 52.0541 68.1415 52.2643 68.2462 52.5271C68.2724 52.5797 68.2462 52.6322 68.22 52.6848C68.1938 52.7373 68.1415 52.7899 68.0629 52.7373C67.8797 52.6848 67.9059 52.3957 67.6702 52.422C67.5132 52.422 67.4085 52.5534 67.2776 52.6322C67.0419 52.8425 66.7278 53.0527 66.6754 53.3681C66.6231 53.4732 66.6493 53.6571 66.5445 53.7097C66.4922 53.736 66.4136 53.6834 66.4136 53.6309C66.3875 53.2104 66.5184 52.8162 66.8063 52.5271C67.0943 52.2906 67.3037 51.9489 67.5394 51.6599C67.6964 51.6336 67.8011 51.7387 67.8535 51.8438ZM67.9582 55.3391C68.0106 55.4442 68.1153 55.5756 68.0368 55.707C67.932 55.7858 67.7488 55.7333 67.6179 55.7333C67.4608 55.6544 67.4085 55.4442 67.4085 55.2602C67.4085 55.2077 67.4085 55.1814 67.4608 55.1288C67.6441 55.1288 67.8273 55.1814 67.9582 55.3391ZM71.8851 47.2974C71.9637 47.4025 71.8851 47.5076 71.8328 47.5865C71.4662 47.9281 71.0212 48.296 70.7594 48.7165C70.6547 48.8479 70.5762 49.0056 70.5238 49.1633C70.5238 49.1895 70.4976 49.1895 70.4714 49.1895C70.3929 48.9793 70.4976 48.7428 70.55 48.5325C70.7332 48.0332 71.1521 47.5602 71.5971 47.2185C71.6495 47.1923 71.8328 47.166 71.8851 47.2974M73.3773 45.6155C73.6653 45.7994 73.77 46.1936 74.1104 46.2725C74.6863 46.4039 75.2623 46.5353 75.7858 46.7981C76.1524 46.982 76.4927 47.2448 76.833 47.5339C77.1472 47.6916 77.5399 47.6916 77.8802 47.7967C78.3776 47.9281 78.7703 48.296 79.2153 48.5851C79.7913 49.0319 80.6028 48.9793 81.2573 49.2684C82.3045 49.61 83.1422 50.4247 84.1109 50.8977C84.6083 51.1605 85.3675 51.2657 85.8649 50.9766C86.2052 50.7401 86.4146 50.4247 86.3361 49.9779C86.1529 48.9005 84.9748 48.3486 84.425 47.4551C84.3203 47.2448 84.2418 46.9557 84.2941 46.7192C84.5036 46.1936 85.0533 45.9045 85.5245 45.7206C85.8911 45.5366 86.3623 45.5892 86.7026 45.3789C86.8335 45.3001 86.9382 45.195 87.0168 45.1161C87.0953 45.1161 87.0953 45.195 87.1215 45.2475C87.2262 45.8783 87.1215 46.5353 86.5717 46.9032C86.3623 47.0609 86.1005 47.1134 85.8649 47.166C85.6554 47.2448 85.2366 47.0871 85.2628 47.4551C85.3151 47.639 85.4722 47.7441 85.6031 47.8755C86.3361 48.48 87.0168 49.2684 87.0953 50.2145C87.1215 50.9503 86.6241 51.581 85.9958 51.8964C85.5245 52.0803 84.9486 52.1592 84.4512 52.0278C84.3203 52.0015 84.1109 51.8701 84.0062 52.0541C83.98 52.2643 84.1109 52.422 84.1109 52.6059C84.1632 52.9476 84.1632 53.3943 84.0585 53.736C84.0061 53.9988 83.7444 54.3141 83.98 54.5769C84.2156 54.9449 84.6868 54.8397 85.0795 54.8923C85.2889 54.9186 85.3675 55.1551 85.4198 55.3128C85.4984 55.523 85.4984 55.7596 85.5769 55.9172C85.5769 56.3114 86.022 56.4691 86.2314 56.7319C86.4932 57.021 86.7288 57.5203 87.1738 57.494C87.3309 57.8094 87.4095 58.0985 87.4618 58.4664L87.4095 58.519C87.043 58.519 86.5455 58.6241 86.2837 58.3613C85.9696 58.151 85.8649 57.5729 85.3937 57.7306C85.1842 57.8882 84.8962 57.9408 84.6606 57.8357C84.425 57.7568 84.2679 57.5466 84.0585 57.4152C83.4302 56.9422 82.5925 56.7056 81.7809 56.8896C81.3097 57.021 80.9432 56.6793 80.5767 56.4691C80.0793 56.2589 79.9484 55.7333 79.8436 55.2865L79.7651 54.7346C79.7651 54.6821 79.8175 54.6295 79.8698 54.6032H79.9484C80.2363 55.2602 80.7861 55.9961 81.4929 56.2326C82.1474 56.4954 82.7495 56.1537 83.4564 56.2851C84.1109 56.364 84.6345 56.7845 85.1319 57.1787C85.1842 57.1787 85.2104 57.1524 85.2366 57.0998V57.0473C84.6345 56.2851 83.7967 55.891 82.8281 55.9698C82.0165 56.1275 81.2311 55.8647 80.7599 55.1814C80.4981 54.7872 80.3149 54.3667 80.2363 53.9199C80.1578 53.3943 80.0531 52.8162 79.8698 52.3431C79.8175 52.3169 79.7651 52.2643 79.7127 52.2906L79.6604 52.3694C79.7389 52.8687 79.896 53.4732 79.7127 53.9988C79.5818 54.4193 79.163 54.577 78.7703 54.6032C78.3776 54.6295 78.0111 54.5507 77.5922 54.5507C76.6498 54.5244 75.812 54.8923 74.8434 54.8135C74.9219 54.5769 75.079 54.3404 75.0005 54.0776C74.9743 54.0251 74.8957 54.0251 74.8434 54.0251C74.6601 54.1302 74.6863 54.3667 74.5816 54.5244C74.3722 54.866 73.9795 55.1814 73.5868 55.2602C73.2988 55.4705 73.037 55.7595 72.8014 56.0223C72.7229 56.1012 72.7229 56.2589 72.749 56.364C72.9323 56.837 73.4821 56.8896 73.9009 57.021C74.1104 57.0473 74.2936 56.9684 74.3983 56.7845C74.5816 56.4954 74.6078 56.0224 75.0266 55.9698H75.9429C76.0215 55.9961 76.0738 56.0486 76.1262 56.1275L76.1 56.2589C75.8906 56.4954 75.812 56.837 75.5502 56.9947C75.3931 57.0473 75.2099 56.9947 75.1052 57.1261C75.0528 57.4415 74.9743 57.7831 74.6601 57.9408C74.4245 58.151 74.0842 58.0459 73.8224 57.9671C73.325 57.7831 72.8276 57.678 72.3302 57.5203C72.1207 57.4678 72.0422 57.205 71.8066 57.1524C71.5971 57.0998 71.3615 57.2575 71.1783 57.0736C71.0736 56.837 71.0212 56.6794 70.9688 56.4166C70.8903 56.2589 70.8379 56.0749 70.8118 55.8909C70.7856 55.7333 70.8118 55.6281 70.8641 55.4967L71.5448 54.2616C71.5971 54.1827 71.6495 54.1039 71.728 54.0776C71.8851 54.1039 72.0684 54.1827 72.2254 54.2616L72.1993 54.3404L71.4924 55.4179C71.3354 55.7595 71.4924 56.1538 71.6495 56.4428C71.6757 56.4691 71.7019 56.5217 71.728 56.4954C71.7019 56.2852 71.6757 56.0749 71.728 55.8384C71.7804 55.6282 71.9113 55.4442 72.016 55.2602L72.5658 54.4455C72.6181 54.3141 72.6181 54.1039 72.5134 53.9725C72.2778 53.736 71.9375 53.6571 71.728 53.3418C71.283 52.7373 71.2306 52.0278 71.1783 51.2657C71.1783 51.2131 71.1259 51.1343 71.0474 51.108C70.995 51.0817 70.9427 51.1605 70.9165 51.1868C70.7856 51.6861 70.8641 52.2906 70.995 52.7373C71.0736 53.079 71.2306 53.4206 71.3877 53.736C71.4139 53.7885 71.3615 53.8674 71.3092 53.8937C70.9427 53.9199 70.5762 53.8937 70.2358 53.8411C69.7646 53.7623 69.4243 53.3943 69.0316 53.1053C68.9792 53.079 68.953 53.1315 68.9269 53.1578C69.0316 53.6834 69.6075 53.9988 69.7908 54.4718C69.8955 54.866 70.2882 55.1551 70.3667 55.5756C70.3667 55.6282 70.3144 55.707 70.262 55.7333C70.1311 55.7595 70.0002 55.6807 69.8693 55.7595C69.8431 55.9961 70.0002 56.2326 69.8955 56.4428C69.7646 56.6531 69.5813 56.8896 69.3457 56.8896C68.8745 56.7319 68.4033 56.5217 67.932 56.3903C67.5917 56.364 67.2514 56.4166 66.9372 56.4428C66.6231 56.3903 66.4136 56.1012 66.178 55.9435C66.0995 55.9172 66.021 55.9172 65.9686 55.9698C65.445 56.4954 64.8691 57.0735 64.0837 57.0473C64.0313 57.0473 64.0051 56.9947 64.0051 56.9422V56.8896C64.3455 56.5742 64.7643 56.2589 64.9214 55.8121C65.0261 55.4442 65.3403 55.1814 65.4712 54.8397C65.4974 54.7872 65.445 54.7609 65.3926 54.7346L65.3141 54.7872C64.9214 55.1814 64.6334 55.6282 64.3455 56.0486C64.0575 56.3377 63.6386 56.5217 63.1936 56.4166C63.1412 56.3903 63.1412 56.3114 63.1674 56.2589C64.7905 55.2602 64.9738 53.4732 65.4188 51.8438C65.733 50.7663 65.9686 49.6626 66.8063 48.7953C68.0629 47.4025 69.6337 46.5878 71.0212 45.3789C71.2306 45.195 71.4401 45.011 71.7019 45.011C72.3825 44.9585 72.9061 45.2213 73.3773 45.6155M88.3257 57.2312C88.4566 57.4152 88.4043 57.7043 88.4566 57.9145C88.4828 58.0722 88.6923 58.2036 88.5875 58.3613L88.0116 58.5452C87.9069 58.5452 87.9592 58.4138 87.9069 58.3613C87.8545 58.0196 87.776 57.7831 87.6713 57.4678C87.6451 57.2838 87.8283 57.1524 87.9592 57.0473C88.0901 56.9947 88.1948 57.1524 88.3257 57.2312M86.9906 56.0486C87.2 56.2326 87.488 56.364 87.6451 56.6005C87.6713 56.7056 87.5927 56.8108 87.5404 56.8896C87.4618 56.9684 87.3571 57.021 87.2262 57.021C87.0953 57.021 86.9906 56.9422 86.9121 56.837C86.7812 56.6268 86.5979 56.4428 86.5455 56.2326C86.6241 56.1012 86.8073 55.891 86.9906 56.0486M74.3722 55.8384C74.346 56.1012 74.2674 56.3377 74.1627 56.5742C74.0842 56.7319 73.8486 56.6793 73.6915 56.6531C73.5344 56.6005 73.2726 56.5742 73.2464 56.3377C73.2203 56.1275 73.325 55.9172 73.4297 55.7595C73.6653 55.7333 73.9533 55.7858 74.1889 55.7333C74.2936 55.7333 74.3722 55.7596 74.3722 55.8384" fill="#4B4B4B"/>
<path d="M24.1079 71.4488H21.3067V68.8734H24.0032V68.1112H21.3067V66.2191H24.1079V65.457H20.469V72.2109H24.1079V71.4488ZM28.506 67.1652L33.5848 72.5V65.457H32.7471V70.4502L27.6683 65.1153V72.2109H28.506V67.1652ZM40.8103 71.4488H38.0353V68.8734H40.7318V68.1112H38.0353V66.2191H40.8103V65.457H37.1976V72.2109H40.8103V71.4488ZM46.308 69.2676C47.2766 69.1624 47.9311 68.3478 47.9311 67.3754C47.9311 66.7184 47.617 66.0877 47.041 65.746C46.5174 65.4307 45.8629 65.4307 45.2608 65.4307H44.2398V72.2109H45.0776V69.3464H45.4179L47.4075 72.2109H48.4285L46.308 69.2676ZM45.0776 66.1928H45.3132C46.1509 66.1928 47.1457 66.3505 47.1457 67.4017C47.1457 68.4792 46.2033 68.6368 45.3655 68.6368H45.1037V66.1928H45.0776ZM54.4759 68.7945V69.5566H56.23C56.2038 70.6604 55.0781 71.5539 54.0309 71.5539C52.5649 71.5539 51.413 70.2136 51.413 68.7945C51.413 67.2703 52.591 66.0351 54.1094 66.0351C54.9472 66.0351 55.7587 66.4819 56.23 67.1389L56.8321 66.5607C56.1776 65.7198 55.1304 65.2467 54.0833 65.2467C52.146 65.2467 50.5752 66.8498 50.5752 68.7945C50.5752 70.6604 52.0936 72.316 53.9785 72.316C55.8635 72.316 57.1724 70.8969 57.1724 69.031V68.7682H54.4759V68.7945ZM62.6177 72.2109V69.2676L64.8168 65.457H63.8481L62.1988 68.3478L60.5234 65.457H59.5547L61.78 69.2676V72.2109H62.6177ZM70.6024 72.2109H71.9637C74.0843 72.2109 75.7859 71.1072 75.7859 68.7945C75.7859 66.5344 74.0581 65.4307 71.9899 65.4307H70.6024V72.2109ZM71.4402 66.2191H71.7281C73.456 66.2191 74.922 66.8498 74.922 68.8471C74.922 70.8181 73.4298 71.4488 71.7281 71.4488H71.4402V66.2191ZM81.048 69.2676C82.0166 69.1624 82.6711 68.3478 82.6711 67.3754C82.6711 66.7184 82.3569 66.0877 81.781 65.746C81.2574 65.4307 80.6029 65.4307 80.0008 65.4307H78.9798V72.2109H79.8175V69.3464H80.1579L82.1475 72.2109H83.1685L81.048 69.2676ZM79.8175 66.1928H80.0532C80.8909 66.1928 81.8857 66.3505 81.8857 67.4017C81.8857 68.4792 80.9433 68.6368 80.1055 68.6368H79.8437V66.1928H79.8175ZM85.8126 65.457H86.6503V72.2372H85.8126V65.457ZM90.8652 67.1652L95.9178 72.5V65.457H95.0801V70.4502L90.0275 65.1153V72.2109H90.8652V67.1652ZM99.3211 65.457V72.2109H100.159V69.399L100.499 69.0573L103.039 72.2109H104.164L101.075 68.4792L104.112 65.457H103.012L100.159 68.374V65.457H99.3211ZM112.803 14.7891C113.275 14.7891 113.667 14.9468 113.982 15.2884C114.296 15.6038 114.479 16.0242 114.479 16.471C114.479 16.944 114.322 17.3382 113.982 17.6536C113.667 17.9952 113.249 18.1529 112.803 18.1529C112.332 18.1529 111.94 17.9952 111.599 17.6536C111.285 17.3382 111.102 16.9178 111.102 16.471C111.102 15.998 111.259 15.6038 111.599 15.2884C111.94 14.973 112.332 14.7891 112.803 14.7891ZM114.767 16.471C114.767 15.9454 114.584 15.4724 114.191 15.0782C113.798 14.7102 113.353 14.5 112.803 14.5C112.254 14.5 111.809 14.684 111.416 15.0782C111.023 15.4724 110.84 15.9191 110.84 16.471C110.84 17.0229 111.023 17.4696 111.416 17.8638C111.809 18.258 112.254 18.442 112.803 18.442C113.353 18.442 113.798 18.258 114.191 17.8638C114.558 17.4959 114.767 17.0229 114.767 16.471M113.327 16.0505C113.327 16.2082 113.249 16.3396 113.091 16.3922C113.013 16.4184 112.882 16.4447 112.725 16.4447H112.385V15.6563H112.699C112.908 15.6563 113.065 15.6826 113.17 15.7352C113.275 15.814 113.327 15.8928 113.327 16.0505M112.018 15.3935V17.5485H112.385V16.7075H112.673C112.882 16.7075 113.013 16.7338 113.091 16.7864C113.222 16.8652 113.301 17.0229 113.301 17.2857V17.5485H113.667L113.641 17.5222C113.641 17.4959 113.615 17.4696 113.615 17.4171V17.1017C113.615 16.9966 113.563 16.8915 113.51 16.7601C113.432 16.655 113.301 16.5761 113.144 16.5498C113.275 16.5236 113.379 16.4973 113.458 16.4447C113.589 16.3659 113.667 16.2082 113.667 16.0242C113.667 15.7614 113.563 15.5775 113.327 15.4724C113.196 15.4198 113.013 15.3935 112.725 15.3935H112.018Z" fill="#4B4B4B"/>
</g>
</svg>
