<svg width="102" height="38" viewBox="0 0 102 38" fill="none" xmlns="http://www.w3.org/2000/svg">
<path d="M0 31H6.048V6.808H0V31ZM9.06445 27.976H12.0885V31H24.1845V27.976H27.2085V9.832H24.1845V6.808H12.0885V9.832H9.06445V27.976ZM15.1125 21.928H21.1605V24.952H15.1125V21.928ZM15.1125 12.856H21.1605V15.88H15.1125V12.856Z" fill="white"/>
<path opacity="0.65" d="M46.696 15.728C47 15.728 47.248 15.684 47.44 15.596C47.64 15.5 47.792 15.376 47.896 15.224C48.008 15.064 48.084 14.884 48.124 14.684C48.164 14.476 48.184 14.264 48.184 14.048V13.832H49.768V14.048C49.768 15.048 49.504 15.82 48.976 16.364C48.456 16.9 47.696 17.168 46.696 17.168C45.736 17.168 44.976 16.876 44.416 16.292C43.856 15.708 43.576 14.856 43.576 13.736V11.864C43.576 11.328 43.648 10.848 43.792 10.424C43.936 9.992 44.144 9.632 44.416 9.344C44.688 9.048 45.016 8.824 45.4 8.672C45.784 8.512 46.216 8.432 46.696 8.432C47.192 8.432 47.632 8.504 48.016 8.648C48.4 8.792 48.72 9 48.976 9.272C49.24 9.544 49.436 9.872 49.564 10.256C49.7 10.64 49.768 11.072 49.768 11.552V11.768H48.184V11.552C48.184 11.352 48.16 11.152 48.112 10.952C48.064 10.752 47.984 10.572 47.872 10.412C47.76 10.252 47.608 10.124 47.416 10.028C47.224 9.924 46.984 9.872 46.696 9.872C46.432 9.872 46.204 9.924 46.012 10.028C45.82 10.124 45.66 10.26 45.532 10.436C45.404 10.604 45.308 10.804 45.244 11.036C45.188 11.26 45.16 11.496 45.16 11.744V13.856C45.16 14.128 45.188 14.38 45.244 14.612C45.3 14.836 45.388 15.032 45.508 15.2C45.628 15.368 45.784 15.5 45.976 15.596C46.176 15.684 46.416 15.728 46.696 15.728ZM50.9957 11.048H53.5157V11.912H53.7317C53.8437 11.584 54.0317 11.332 54.2957 11.156C54.5677 10.972 54.8917 10.88 55.2677 10.88C55.8597 10.88 56.3357 11.068 56.6957 11.444C57.0557 11.812 57.2357 12.376 57.2357 13.136V13.4L55.6757 13.544V13.376C55.6757 13.048 55.5917 12.788 55.4237 12.596C55.2557 12.396 55.0037 12.296 54.6677 12.296C54.3317 12.296 54.0677 12.412 53.8757 12.644C53.6837 12.876 53.5877 13.208 53.5877 13.64V15.56H54.9557V17H50.8517V15.56H52.0757V12.488H50.9957V11.048ZM62.6633 11.048H64.1753V18.464C64.1753 18.736 64.0873 18.96 63.9113 19.136C63.7433 19.312 63.5233 19.4 63.2513 19.4H59.7113V17.96H62.3393C62.5553 17.96 62.6633 17.84 62.6633 17.6V16.136H62.4473C62.1833 16.824 61.6153 17.168 60.7433 17.168C60.4473 17.168 60.1713 17.12 59.9153 17.024C59.6593 16.928 59.4353 16.78 59.2433 16.58C59.0513 16.38 58.8993 16.132 58.7873 15.836C58.6833 15.532 58.6313 15.176 58.6313 14.768V11.048H60.1433V14.456C60.1433 14.88 60.2433 15.212 60.4433 15.452C60.6433 15.684 60.9433 15.8 61.3433 15.8C61.7993 15.8 62.1313 15.656 62.3393 15.368C62.5553 15.072 62.6633 14.672 62.6633 14.168V11.048ZM67.179 19.4H65.667V11.048H67.179V11.912H67.395C67.555 11.584 67.787 11.332 68.091 11.156C68.395 10.972 68.783 10.88 69.255 10.88C69.607 10.88 69.939 10.948 70.251 11.084C70.571 11.22 70.847 11.42 71.079 11.684C71.319 11.94 71.507 12.256 71.643 12.632C71.787 13.008 71.859 13.436 71.859 13.916V14.132C71.859 14.62 71.791 15.052 71.655 15.428C71.519 15.804 71.335 16.124 71.103 16.388C70.871 16.644 70.595 16.84 70.275 16.976C69.963 17.104 69.623 17.168 69.255 17.168C68.983 17.168 68.747 17.14 68.547 17.084C68.347 17.028 68.171 16.952 68.019 16.856C67.875 16.76 67.751 16.652 67.647 16.532C67.551 16.404 67.467 16.272 67.395 16.136H67.179V19.4ZM68.763 15.728C69.235 15.728 69.615 15.584 69.903 15.296C70.199 15 70.347 14.6 70.347 14.096V13.952C70.347 13.448 70.199 13.052 69.903 12.764C69.615 12.468 69.235 12.32 68.763 12.32C68.291 12.32 67.907 12.472 67.611 12.776C67.323 13.072 67.179 13.464 67.179 13.952V14.096C67.179 14.584 67.323 14.98 67.611 15.284C67.907 15.58 68.291 15.728 68.763 15.728ZM73.1586 11.048H74.9226V8.6H76.4346V11.048H78.5826V12.488H76.4346V15.2C76.4346 15.44 76.5426 15.56 76.7586 15.56H78.3666V17H75.8466C75.5746 17 75.3506 16.912 75.1746 16.736C75.0066 16.56 74.9226 16.336 74.9226 16.064V12.488H73.1586V11.048ZM86.5063 14.096C86.5063 14.592 86.4223 15.032 86.2543 15.416C86.0863 15.792 85.8583 16.112 85.5703 16.376C85.2823 16.632 84.9503 16.828 84.5743 16.964C84.2063 17.1 83.8183 17.168 83.4103 17.168C83.0023 17.168 82.6103 17.1 82.2343 16.964C81.8663 16.828 81.5383 16.632 81.2503 16.376C80.9623 16.112 80.7343 15.792 80.5663 15.416C80.3983 15.032 80.3143 14.592 80.3143 14.096V13.952C80.3143 13.464 80.3983 13.032 80.5663 12.656C80.7343 12.272 80.9623 11.948 81.2503 11.684C81.5383 11.42 81.8663 11.22 82.2343 11.084C82.6103 10.948 83.0023 10.88 83.4103 10.88C83.8183 10.88 84.2063 10.948 84.5743 11.084C84.9503 11.22 85.2823 11.42 85.5703 11.684C85.8583 11.948 86.0863 12.272 86.2543 12.656C86.4223 13.032 86.5063 13.464 86.5063 13.952V14.096ZM83.4103 15.728C83.6263 15.728 83.8303 15.692 84.0223 15.62C84.2143 15.548 84.3823 15.444 84.5263 15.308C84.6703 15.172 84.7823 15.008 84.8623 14.816C84.9503 14.616 84.9943 14.392 84.9943 14.144V13.904C84.9943 13.656 84.9503 13.436 84.8623 13.244C84.7823 13.044 84.6703 12.876 84.5263 12.74C84.3823 12.604 84.2143 12.5 84.0223 12.428C83.8303 12.356 83.6263 12.32 83.4103 12.32C83.1943 12.32 82.9903 12.356 82.7983 12.428C82.6063 12.5 82.4383 12.604 82.2943 12.74C82.1503 12.876 82.0343 13.044 81.9463 13.244C81.8663 13.436 81.8263 13.656 81.8263 13.904V14.144C81.8263 14.392 81.8663 14.616 81.9463 14.816C82.0343 15.008 82.1503 15.172 82.2943 15.308C82.4383 15.444 82.6063 15.548 82.7983 15.62C82.9903 15.692 83.1943 15.728 83.4103 15.728ZM46.696 29.728C47 29.728 47.248 29.684 47.44 29.596C47.64 29.5 47.792 29.376 47.896 29.224C48.008 29.064 48.084 28.884 48.124 28.684C48.164 28.476 48.184 28.264 48.184 28.048V27.832H49.768V28.048C49.768 29.048 49.504 29.82 48.976 30.364C48.456 30.9 47.696 31.168 46.696 31.168C45.736 31.168 44.976 30.876 44.416 30.292C43.856 29.708 43.576 28.856 43.576 27.736V25.864C43.576 25.328 43.648 24.848 43.792 24.424C43.936 23.992 44.144 23.632 44.416 23.344C44.688 23.048 45.016 22.824 45.4 22.672C45.784 22.512 46.216 22.432 46.696 22.432C47.192 22.432 47.632 22.504 48.016 22.648C48.4 22.792 48.72 23 48.976 23.272C49.24 23.544 49.436 23.872 49.564 24.256C49.7 24.64 49.768 25.072 49.768 25.552V25.768H48.184V25.552C48.184 25.352 48.16 25.152 48.112 24.952C48.064 24.752 47.984 24.572 47.872 24.412C47.76 24.252 47.608 24.124 47.416 24.028C47.224 23.924 46.984 23.872 46.696 23.872C46.432 23.872 46.204 23.924 46.012 24.028C45.82 24.124 45.66 24.26 45.532 24.436C45.404 24.604 45.308 24.804 45.244 25.036C45.188 25.26 45.16 25.496 45.16 25.744V27.856C45.16 28.128 45.188 28.38 45.244 28.612C45.3 28.836 45.388 29.032 45.508 29.2C45.628 29.368 45.784 29.5 45.976 29.596C46.176 29.684 46.416 29.728 46.696 29.728ZM55.3157 25.048H56.8277V31H55.3157V30.136H55.0997C54.8357 30.824 54.2677 31.168 53.3957 31.168C53.0997 31.168 52.8237 31.12 52.5677 31.024C52.3117 30.928 52.0877 30.78 51.8957 30.58C51.7037 30.38 51.5517 30.132 51.4397 29.836C51.3357 29.532 51.2837 29.176 51.2837 28.768V25.048H52.7957V28.456C52.7957 28.88 52.8957 29.212 53.0957 29.452C53.2957 29.684 53.5957 29.8 53.9957 29.8C54.4517 29.8 54.7837 29.656 54.9917 29.368C55.2077 29.072 55.3157 28.672 55.3157 28.168V25.048ZM58.3433 25.048H60.8633V25.912H61.0793C61.1913 25.584 61.3793 25.332 61.6433 25.156C61.9153 24.972 62.2393 24.88 62.6153 24.88C63.2073 24.88 63.6833 25.068 64.0433 25.444C64.4033 25.812 64.5833 26.376 64.5833 27.136V27.4L63.0233 27.544V27.376C63.0233 27.048 62.9393 26.788 62.7713 26.596C62.6033 26.396 62.3513 26.296 62.0153 26.296C61.6793 26.296 61.4153 26.412 61.2233 26.644C61.0313 26.876 60.9353 27.208 60.9353 27.64V29.56H62.3033V31H58.1993V29.56H59.4233V26.488H58.3433V25.048ZM65.691 25.048H68.211V25.912H68.427C68.539 25.584 68.727 25.332 68.991 25.156C69.263 24.972 69.587 24.88 69.963 24.88C70.555 24.88 71.031 25.068 71.391 25.444C71.751 25.812 71.931 26.376 71.931 27.136V27.4L70.371 27.544V27.376C70.371 27.048 70.287 26.788 70.119 26.596C69.951 26.396 69.699 26.296 69.363 26.296C69.027 26.296 68.763 26.412 68.571 26.644C68.379 26.876 68.283 27.208 68.283 27.64V29.56H69.651V31H65.547V29.56H66.771V26.488H65.691V25.048ZM74.6586 28.516C74.6666 28.692 74.7066 28.856 74.7786 29.008C74.8586 29.152 74.9626 29.28 75.0906 29.392C75.2266 29.496 75.3786 29.58 75.5466 29.644C75.7226 29.7 75.9066 29.728 76.0986 29.728C76.4746 29.728 76.7626 29.664 76.9626 29.536C77.1626 29.4 77.3066 29.24 77.3946 29.056L78.6906 29.776C78.6186 29.928 78.5186 30.088 78.3906 30.256C78.2626 30.416 78.0946 30.564 77.8866 30.7C77.6866 30.836 77.4386 30.948 77.1426 31.036C76.8546 31.124 76.5146 31.168 76.1226 31.168C75.6746 31.168 75.2666 31.096 74.8986 30.952C74.5306 30.808 74.2106 30.6 73.9386 30.328C73.6746 30.056 73.4666 29.724 73.3146 29.332C73.1706 28.94 73.0986 28.496 73.0986 28V27.928C73.0986 27.472 73.1746 27.056 73.3266 26.68C73.4866 26.304 73.7026 25.984 73.9746 25.72C74.2466 25.456 74.5626 25.252 74.9226 25.108C75.2906 24.956 75.6826 24.88 76.0986 24.88C76.6106 24.88 77.0506 24.972 77.4186 25.156C77.7866 25.332 78.0906 25.56 78.3306 25.84C78.5706 26.112 78.7466 26.416 78.8586 26.752C78.9706 27.08 79.0266 27.4 79.0266 27.712V28.516H74.6586ZM76.0866 26.248C75.7026 26.248 75.3906 26.348 75.1506 26.548C74.9106 26.74 74.7546 26.964 74.6826 27.22H77.4906C77.4426 26.94 77.2906 26.708 77.0346 26.524C76.7866 26.34 76.4706 26.248 76.0866 26.248ZM82.1863 31H80.6743V25.048H82.1863V25.936H82.4023C82.5383 25.6 82.7583 25.34 83.0623 25.156C83.3663 24.972 83.7223 24.88 84.1303 24.88C84.4183 24.88 84.6863 24.928 84.9343 25.024C85.1903 25.112 85.4143 25.252 85.6063 25.444C85.7983 25.636 85.9463 25.88 86.0503 26.176C86.1623 26.472 86.2183 26.824 86.2183 27.232V31H84.7063V27.616C84.7063 27.192 84.6023 26.86 84.3943 26.62C84.1943 26.372 83.9023 26.248 83.5183 26.248C83.0703 26.248 82.7343 26.4 82.5103 26.704C82.2943 27 82.1863 27.4 82.1863 27.904V31ZM93.8299 28.816C93.6939 29.52 93.3699 30.088 92.8579 30.52C92.3539 30.952 91.6779 31.168 90.8299 31.168C90.3899 31.168 89.9779 31.1 89.5939 30.964C89.2179 30.828 88.8899 30.632 88.6099 30.376C88.3299 30.12 88.1099 29.804 87.9499 29.428C87.7899 29.052 87.7099 28.624 87.7099 28.144V28C87.7099 27.52 87.7899 27.088 87.9499 26.704C88.1099 26.32 88.3299 25.992 88.6099 25.72C88.8979 25.448 89.2299 25.24 89.6059 25.096C89.9899 24.952 90.3979 24.88 90.8299 24.88C91.6619 24.88 92.3339 25.096 92.8459 25.528C93.3659 25.96 93.6939 26.528 93.8299 27.232L92.3419 27.616C92.2939 27.264 92.1419 26.96 91.8859 26.704C91.6299 26.448 91.2699 26.32 90.8059 26.32C90.5899 26.32 90.3859 26.36 90.1939 26.44C90.0019 26.52 89.8339 26.636 89.6899 26.788C89.5459 26.932 89.4299 27.112 89.3419 27.328C89.2619 27.536 89.2219 27.772 89.2219 28.036V28.108C89.2219 28.372 89.2619 28.608 89.3419 28.816C89.4299 29.016 89.5459 29.184 89.6899 29.32C89.8339 29.456 90.0019 29.56 90.1939 29.632C90.3859 29.696 90.5899 29.728 90.8059 29.728C91.2699 29.728 91.6219 29.612 91.8619 29.38C92.1099 29.148 92.2699 28.836 92.3419 28.444L93.8299 28.816ZM99.4016 25.048H100.914V32.464C100.914 32.736 100.826 32.96 100.65 33.136C100.482 33.312 100.262 33.4 99.9896 33.4H96.4496V31.96H99.0776C99.2936 31.96 99.4016 31.84 99.4016 31.6V30.136H99.1856C98.9216 30.824 98.3536 31.168 97.4816 31.168C97.1856 31.168 96.9096 31.12 96.6536 31.024C96.3976 30.928 96.1736 30.78 95.9816 30.58C95.7896 30.38 95.6376 30.132 95.5256 29.836C95.4216 29.532 95.3696 29.176 95.3696 28.768V25.048H96.8816V28.456C96.8816 28.88 96.9816 29.212 97.1816 29.452C97.3816 29.684 97.6816 29.8 98.0816 29.8C98.5376 29.8 98.8696 29.656 99.0776 29.368C99.2936 29.072 99.4016 28.672 99.4016 28.168V25.048Z" fill="white"/>
</svg>
