<svg width="181" height="49" viewBox="0 0 181 49" fill="none" xmlns="http://www.w3.org/2000/svg">
<g style="mix-blend-mode:luminosity">
<path d="M179.479 44.8502C179.479 47.4465 177.096 47.6094 177.096 47.6094H175.138H174.395H28.8428C11.4802 47.6094 5.10964 38.4362 2.79885 32.5017C1.6933 29.6339 1.52112 27.4899 1.52112 27.4899V24.6041V4.14084C1.52112 1.54449 3.90441 1.3907 3.90441 1.3907H168.686H175.338H177.096C177.096 1.3907 179.479 1.54449 179.479 4.14084V43.2128V44.8502Z" fill="white"/>
<path d="M179.479 44.8502C179.479 47.4465 177.096 47.6094 177.096 47.6094H175.138H174.395H28.8428C11.4802 47.6094 5.10964 38.4362 2.79885 32.5017C1.6933 29.6339 1.52112 27.4899 1.52112 27.4899V24.6041V4.14084C1.52112 1.54449 3.90441 1.3907 3.90441 1.3907H168.686H175.338H177.096C177.096 1.3907 179.479 1.54449 179.479 4.14084V43.2128V44.8502Z" stroke="white" stroke-width="0.60625"/>
<path d="M34.9795 7.40129L32.1069 26.7518L29.3792 7.40129H26.706L23.8696 26.7518C23.8696 26.7518 21.5226 10.0157 21.3685 9.13822C21.2054 8.26071 21.0423 7.40129 19.5471 7.40129H15.1702V7.97122C16.6473 7.97122 17.4447 8.95729 17.6531 10.6399L21.3685 36.6396H24.2502L26.9144 17.2891L29.2886 36.6396H32.3244L36.1576 10.7304C36.5744 8.75827 37.0547 7.97122 38.5771 7.97122V7.40129H34.9795Z" fill="white"/>
<path d="M41.3374 13.6909C42.452 13.6909 43.322 12.6868 43.322 11.4474C43.322 10.2442 42.452 9.24908 41.3374 9.24908C40.2228 9.24908 39.3076 10.2442 39.3076 11.4474C39.3076 12.6868 40.2228 13.6909 41.3374 13.6909Z" fill="white"/>
<path d="M90.2672 35.8388C88.337 35.8388 87.7389 32.8625 87.7389 26.2676C87.7389 19.6908 88.337 16.7054 90.2672 16.7054C92.2155 16.7054 92.8498 19.6908 92.8498 26.2676C92.8498 32.8625 92.2155 35.8388 90.2672 35.8388ZM90.2672 15.5203C86.7149 15.5203 84.0326 19.8898 84.0326 26.2676C84.0326 32.6816 86.7149 37.0239 90.2672 37.0239C93.8738 37.0239 96.529 32.6816 96.529 26.2676C96.529 19.8898 93.8738 15.5203 90.2672 15.5203Z" fill="white"/>
<path d="M43.1253 33.7714V15.9045H38.2137V16.5378C39.428 16.5378 39.5549 17.2887 39.5549 18.917V33.8709C39.5186 35.4631 39.4008 35.9607 38.105 35.9607V36.6392H44.4936V35.9969C43.225 35.9969 43.1253 35.4631 43.1253 33.7714Z" fill="white"/>
<path d="M65.7629 19.8572C65.7629 20.6805 66.1163 21.558 66.8775 22.1822C67.6115 22.8607 68.4542 23.5392 69.741 24.5343C72.6046 26.7507 73.3205 28.759 73.3205 31.0297C73.3205 34.5126 70.5385 36.9009 67.3034 36.9009C65.3551 36.9009 64.3039 36.5752 62.999 36.34V30.0888H64.0955C64.2495 32.8933 64.6845 35.6796 67.3849 35.6796C69.0161 35.6796 70.1669 34.4402 70.1669 32.5043C70.1669 31.3101 69.8226 30.2245 68.9617 29.3561C68.4361 28.7771 67.1584 27.592 65.9803 26.6783C63.5064 24.7966 62.7271 23.4668 62.7271 20.9609C62.7271 17.876 65.0288 15.6416 68.1733 15.6416C69.886 15.6416 70.9916 15.922 72.3237 16.2386V21.8656H71.2362C71.0006 19.1968 70.3301 16.8628 68.2005 16.8628C66.66 16.8628 65.7629 18.0479 65.7629 19.8572Z" fill="white"/>
<path d="M59.4258 33.3829V20.2654C59.4258 17.3977 58.2206 15.516 55.1849 15.516C53.9343 15.516 52.0857 16.2036 51.1432 16.882L51.0526 15.905H46.3676V16.5383C47.6363 16.5383 47.7903 17.1444 47.7903 18.9175V33.7176C47.7903 35.2646 47.7903 35.9612 46.4764 35.9612V36.6396H52.6928V35.9973C51.6054 35.9973 51.3426 35.4907 51.3426 33.799V19.8583C51.3426 18.4742 52.3485 17.1625 53.9071 17.1625C55.3389 17.1625 55.8645 18.3114 55.8645 20.0031V33.3467C55.8645 35.9069 56.2088 36.6396 58.3384 36.6396H61.0117V35.9612C59.7702 35.7712 59.4258 34.9027 59.4258 33.3829Z" fill="white"/>
<path d="M110.957 33.3829V20.2654C110.957 17.3977 109.77 15.516 106.734 15.516C105.475 15.516 103.626 16.2036 102.693 16.882L102.611 15.905H97.9263V16.5383C99.1859 16.5383 99.3218 17.1444 99.3218 18.9175V33.7176C99.3218 35.2646 99.3218 35.9612 98.0078 35.9612V36.6396H104.224V35.9973C103.155 35.9973 102.901 35.4907 102.892 33.799V19.8583C102.892 18.4742 103.88 17.1625 105.466 17.1625C106.87 17.1625 107.405 18.3114 107.405 20.0031V33.3467C107.405 35.9069 107.74 36.6396 109.879 36.6396H112.543V35.9612C111.311 35.7712 110.957 34.9027 110.957 33.3829Z" fill="white"/>
<path d="M78.8373 11.8446C78.194 14.3505 76.5175 16.0965 74.4423 16.5398V17.4716H75.4482C76.0191 17.4716 76.3 17.6887 76.3 18.5029V32.0546C76.3 36.0712 78.0852 36.623 80.7313 36.623H83.5949V35.6008C80.7766 35.6008 79.8795 34.6238 79.8795 31.9189V18.3129C79.8795 17.5801 80.0245 17.2906 80.7041 17.2906H83.5224V15.9246H80.7041C79.952 15.9246 79.8795 15.6623 79.8795 14.7214V11.5009H79.6982C79.4082 11.5009 78.9552 11.4466 78.8373 11.8446Z" fill="white"/>
<path d="M155.333 23.4177C155.314 23.5625 155.26 23.5625 155.188 23.5082C154.825 23.3092 153.855 23.7977 153.149 24.2048C152.342 24.6571 151.454 25.2813 150.72 26.0503C150.575 26.186 150.475 26.1226 150.475 26.0865C150.475 25.6613 150.493 25.408 150.358 25.408C150.176 25.408 149.161 25.8874 149.053 25.7517C148.89 25.5527 149.37 24.8833 149.225 24.7385C149.025 24.4943 147.775 24.8109 147.775 24.8109C147.594 23.9877 148.382 21.7713 149.08 21.8255C149.759 21.8979 152.052 21.8255 152.569 21.7894C152.668 21.7713 152.995 21.7351 153.14 21.7351C153.33 21.7713 153.502 21.9703 153.176 22.0427C152.252 22.1784 151.228 22.6126 151.363 22.7211C151.708 23.0106 153.493 23.2368 153.72 22.4588C153.729 22.4045 153.729 22.0969 153.756 22.0969C154.309 21.9884 155.287 21.9522 155.323 22.7211C155.333 22.9473 155.342 23.1916 155.333 23.4177ZM167.068 22.3774C166.769 22.4769 165.79 22.7754 165.409 22.7754C165.292 22.7754 165.283 22.6669 165.355 22.6307C166.089 22.0969 166.47 21.4637 166.47 21.2556C166.47 21.2013 166.433 21.1471 166.361 21.1471C165.672 21.1471 164.259 23.2097 157.172 23.2278C156.719 23.2278 156.293 23.2097 155.867 23.1916C155.894 22.1241 155.731 21.4275 153.765 21.4999C153.701 21.129 152.641 21.2013 151.826 21.2556C149.406 21.4275 142.12 21.717 136.148 13.0323C135.424 13.2947 136.185 15.104 135.623 14.724C135.106 14.3531 132.261 10.6079 131.708 7.39634C130.014 7.57727 131.201 12.3629 130.521 11.7568C129.225 10.5536 128.111 7.39634 128.02 7.39634C127.422 7.35111 127.05 8.63571 127.467 9.85699C127.839 10.9607 128.89 12.9419 128.111 12.2815C127.05 11.4492 126.353 10.5174 125.673 9.56751C124.576 8.0115 124.531 8.98853 124.676 9.85699C124.993 11.7206 127.857 14.0093 127.15 13.9551C126.606 13.937 124.975 12.7881 124.096 12.001C123.226 11.2683 123.027 11.7025 123.589 12.6705C124.613 14.4074 127.367 16.2891 126.679 16.3253C125.129 16.4157 123.444 15.3301 123.426 15.8006C123.426 15.8006 123.426 16.4157 124.413 17.2118C124.866 17.5737 125.401 17.9265 126.09 18.2069C126.434 18.3426 126.434 18.6774 125.972 18.6774C125.863 18.6774 125.32 18.5417 125.256 18.5417C124.477 18.5417 125.682 19.8172 126.144 20.3148C128.446 22.9111 135.695 25.9779 138.178 24.829C138.423 24.7385 138.55 24.9466 138.36 25.0913C137.979 25.3718 137.136 25.5708 137.055 25.5889C134.635 26.2493 131.563 25.3718 131.11 25.8874C130.838 26.2222 131.201 26.4302 131.527 26.6202C131.753 26.7649 131.772 27.0002 131.273 27.0906C129.878 27.3077 129.425 28.1219 130.449 28.3662C131.137 28.52 130.956 28.7642 130.521 28.8999C129.443 29.2708 129.008 30.3926 130.902 30.6097C133.131 30.8902 132.261 31.1435 131.726 31.4691C131.01 31.9124 131.772 32.7537 132.95 32.4643C134.137 32.1295 134.563 32.0933 134.327 32.7356C134.11 33.2965 135.967 33.6313 137.118 32.808C137.372 32.618 137.707 32.3557 138.033 32.3557C138.523 32.3557 138.532 32.8442 139.284 32.9347H139.293C139.293 32.9347 140.109 33.0342 141.006 32.1114C141.839 31.2882 142.718 29.6689 142.845 29.4608C144.368 29.3522 146.796 28.918 148.065 28.0857C159.691 27.9681 168.418 23.5987 169.089 21.7894C169.215 21.4275 167.276 22.305 167.068 22.3774" fill="white"/>
<path d="M179.479 24.601V4.13774C179.479 1.54139 177.096 1.39665 177.096 1.39665H173.725H3.90441C3.90441 1.39665 1.52112 1.54139 1.52112 4.13774V22.9726C1.52112 24.0401 2.93479 42.4136 25.7255 42.4136H179.479V24.601Z" fill="#2C2C2C"/>
<path d="M177.094 47.6069C177.094 47.6069 179.477 47.4441 179.477 44.8477V44.5854L26.7658 44.5492C12.1671 44.5492 5.67875 37.9181 2.79706 32.4992C5.10785 38.4338 11.4784 47.6069 28.8501 47.6069H176.786H177.094Z" fill="#4B4B4B"/>
<path d="M34.9795 7.40129L32.1069 26.7518L29.3792 7.40129H26.706L23.8696 26.7518C23.8696 26.7518 21.5226 10.0157 21.3685 9.13822C21.2054 8.26071 21.0423 7.40129 19.5471 7.40129H15.1702V7.97122C16.6473 7.97122 17.4447 8.95729 17.6531 10.6399L21.3685 36.6396H24.2502L26.9144 17.2891L29.2886 36.6396H32.3244L36.1576 10.7304C36.5744 8.75827 37.0547 7.97122 38.5771 7.97122V7.40129H34.9795Z" fill="white"/>
<path d="M41.3374 13.6909C42.452 13.6909 43.322 12.6868 43.322 11.4474C43.322 10.2442 42.452 9.24908 41.3374 9.24908C40.2228 9.24908 39.3076 10.2442 39.3076 11.4474C39.3076 12.6868 40.2228 13.6909 41.3374 13.6909Z" fill="white"/>
<path d="M90.2672 35.8388C88.337 35.8388 87.7389 32.8625 87.7389 26.2676C87.7389 19.6908 88.337 16.7054 90.2672 16.7054C92.2155 16.7054 92.8498 19.6908 92.8498 26.2676C92.8498 32.8625 92.2155 35.8388 90.2672 35.8388ZM90.2672 15.5203C86.7149 15.5203 84.0326 19.8898 84.0326 26.2676C84.0326 32.6816 86.7149 37.0239 90.2672 37.0239C93.8738 37.0239 96.529 32.6816 96.529 26.2676C96.529 19.8898 93.8738 15.5203 90.2672 15.5203Z" fill="white"/>
<path d="M43.1253 33.7714V15.9045H38.2137V16.5378C39.428 16.5378 39.5549 17.2887 39.5549 18.917V33.8709C39.5186 35.4631 39.4008 35.9607 38.105 35.9607V36.6392H44.4936V35.9969C43.225 35.9969 43.1253 35.4631 43.1253 33.7714Z" fill="white"/>
<path d="M65.7629 19.8572C65.7629 20.6805 66.1163 21.558 66.8775 22.1822C67.6115 22.8607 68.4542 23.5392 69.741 24.5343C72.6046 26.7507 73.3205 28.759 73.3205 31.0297C73.3205 34.5126 70.5385 36.9009 67.3034 36.9009C65.3551 36.9009 64.3039 36.5752 62.999 36.34V30.0888H64.0955C64.2495 32.8933 64.6845 35.6796 67.3849 35.6796C69.0161 35.6796 70.1669 34.4402 70.1669 32.5043C70.1669 31.3101 69.8226 30.2245 68.9617 29.3561C68.4361 28.7771 67.1584 27.592 65.9803 26.6783C63.5064 24.7966 62.7271 23.4668 62.7271 20.9609C62.7271 17.876 65.0288 15.6416 68.1733 15.6416C69.886 15.6416 70.9916 15.922 72.3237 16.2386V21.8656H71.2362C71.0006 19.1968 70.3301 16.8628 68.2005 16.8628C66.66 16.8628 65.7629 18.0479 65.7629 19.8572Z" fill="white"/>
<path d="M59.4258 33.3829V20.2654C59.4258 17.3977 58.2206 15.516 55.1849 15.516C53.9343 15.516 52.0857 16.2036 51.1432 16.882L51.0526 15.905H46.3676V16.5383C47.6363 16.5383 47.7903 17.1444 47.7903 18.9175V33.7176C47.7903 35.2646 47.7903 35.9612 46.4764 35.9612V36.6396H52.6928V35.9973C51.6054 35.9973 51.3426 35.4907 51.3426 33.799V19.8583C51.3426 18.4742 52.3485 17.1625 53.9071 17.1625C55.3389 17.1625 55.8645 18.3114 55.8645 20.0031V33.3467C55.8645 35.9069 56.2088 36.6396 58.3384 36.6396H61.0117V35.9612C59.7702 35.7712 59.4258 34.9027 59.4258 33.3829Z" fill="white"/>
<path d="M110.957 33.3829V20.2654C110.957 17.3977 109.77 15.516 106.734 15.516C105.475 15.516 103.626 16.2036 102.693 16.882L102.611 15.905H97.9263V16.5383C99.1859 16.5383 99.3218 17.1444 99.3218 18.9175V33.7176C99.3218 35.2646 99.3218 35.9612 98.0078 35.9612V36.6396H104.224V35.9973C103.155 35.9973 102.901 35.4907 102.892 33.799V19.8583C102.892 18.4742 103.88 17.1625 105.466 17.1625C106.87 17.1625 107.405 18.3114 107.405 20.0031V33.3467C107.405 35.9069 107.74 36.6396 109.879 36.6396H112.543V35.9612C111.311 35.7712 110.957 34.9027 110.957 33.3829Z" fill="white"/>
<path d="M78.8373 11.8446C78.194 14.3505 76.5175 16.0965 74.4423 16.5398V17.4716H75.4482C76.0191 17.4716 76.3 17.6887 76.3 18.5029V32.0546C76.3 36.0712 78.0852 36.623 80.7313 36.623H83.5949V35.6008C80.7766 35.6008 79.8795 34.6238 79.8795 31.9189V18.3129C79.8795 17.5801 80.0245 17.2906 80.7041 17.2906H83.5224V15.9246H80.7041C79.952 15.9246 79.8795 15.6623 79.8795 14.7214V11.5009H79.6982C79.4082 11.5009 78.9552 11.4466 78.8373 11.8446Z" fill="white"/>
<path d="M155.333 23.4177C155.314 23.5625 155.26 23.5625 155.188 23.5082C154.825 23.3092 153.855 23.7977 153.149 24.2048C152.342 24.6571 151.454 25.2813 150.72 26.0503C150.575 26.186 150.475 26.1226 150.475 26.0865C150.475 25.6613 150.493 25.408 150.358 25.408C150.176 25.408 149.161 25.8874 149.053 25.7517C148.89 25.5527 149.37 24.8833 149.225 24.7385C149.025 24.4943 147.775 24.8109 147.775 24.8109C147.594 23.9877 148.382 21.7713 149.08 21.8255C149.759 21.8979 152.052 21.8255 152.569 21.7894C152.668 21.7713 152.995 21.7351 153.14 21.7351C153.33 21.7713 153.502 21.9703 153.176 22.0427C152.252 22.1784 151.228 22.6126 151.363 22.7211C151.708 23.0106 153.493 23.2368 153.72 22.4588C153.729 22.4045 153.729 22.0969 153.756 22.0969C154.309 21.9884 155.287 21.9522 155.323 22.7211C155.333 22.9473 155.342 23.1916 155.333 23.4177ZM167.068 22.3774C166.769 22.4769 165.79 22.7754 165.409 22.7754C165.292 22.7754 165.283 22.6669 165.355 22.6307C166.089 22.0969 166.47 21.4637 166.47 21.2556C166.47 21.2013 166.433 21.1471 166.361 21.1471C165.672 21.1471 164.259 23.2097 157.172 23.2278C156.719 23.2278 156.293 23.2097 155.867 23.1916C155.894 22.1241 155.731 21.4275 153.765 21.4999C153.701 21.129 152.641 21.2013 151.826 21.2556C149.406 21.4275 142.12 21.717 136.148 13.0323C135.424 13.2947 136.185 15.104 135.623 14.724C135.106 14.3531 132.261 10.6079 131.708 7.39634C130.014 7.57727 131.201 12.3629 130.521 11.7568C129.225 10.5536 128.111 7.39634 128.02 7.39634C127.422 7.35111 127.05 8.63571 127.467 9.85699C127.839 10.9607 128.89 12.9419 128.111 12.2815C127.05 11.4492 126.353 10.5174 125.673 9.56751C124.576 8.0115 124.531 8.98853 124.676 9.85699C124.993 11.7206 127.857 14.0093 127.15 13.9551C126.606 13.937 124.975 12.7881 124.096 12.001C123.226 11.2683 123.027 11.7025 123.589 12.6705C124.613 14.4074 127.367 16.2891 126.679 16.3253C125.129 16.4157 123.444 15.3301 123.426 15.8006C123.426 15.8006 123.426 16.4157 124.413 17.2118C124.866 17.5737 125.401 17.9265 126.09 18.2069C126.434 18.3426 126.434 18.6774 125.972 18.6774C125.863 18.6774 125.32 18.5417 125.256 18.5417C124.477 18.5417 125.682 19.8172 126.144 20.3148C128.446 22.9111 135.695 25.9779 138.178 24.829C138.423 24.7385 138.55 24.9466 138.36 25.0913C137.979 25.3718 137.136 25.5708 137.055 25.5889C134.635 26.2493 131.563 25.3718 131.11 25.8874C130.838 26.2222 131.201 26.4302 131.527 26.6202C131.753 26.7649 131.772 27.0002 131.273 27.0906C129.878 27.3077 129.425 28.1219 130.449 28.3662C131.137 28.52 130.956 28.7642 130.521 28.8999C129.443 29.2708 129.008 30.3926 130.902 30.6097C133.131 30.8902 132.261 31.1435 131.726 31.4691C131.01 31.9124 131.772 32.7537 132.95 32.4643C134.137 32.1295 134.563 32.0933 134.327 32.7356C134.11 33.2965 135.967 33.6313 137.118 32.808C137.372 32.618 137.707 32.3557 138.033 32.3557C138.523 32.3557 138.532 32.8442 139.284 32.9347H139.293C139.293 32.9347 140.109 33.0342 141.006 32.1114C141.839 31.2882 142.718 29.6689 142.845 29.4608C144.368 29.3522 146.796 28.918 148.065 28.0857C159.691 27.9681 168.418 23.5987 169.089 21.7894C169.215 21.4275 167.276 22.305 167.068 22.3774" fill="white"/>
</g>
</svg>
