<svg width="96" height="41" viewBox="0 0 96 41" fill="none" xmlns="http://www.w3.org/2000/svg">
<path d="M16.5442 1.86719C10.6887 1.86719 5.93103 6.79361 5.93103 12.8569C5.93103 18.9202 10.6887 23.8466 16.5442 23.8466C22.3998 23.8466 27.1574 18.9202 27.1574 12.8569C27.1574 6.79361 22.3998 1.86719 16.5442 1.86719Z" fill="white"/>
<path d="M14.3679 21.3547C10.6125 20.2817 7.8765 16.8482 7.8765 12.7441C7.8765 12.0735 7.95697 11.4298 8.09109 10.786H8.11791C11.605 11.1079 14.3679 13.9512 14.3679 17.6798V21.3547ZM20.5911 7.75487C20.7789 10.8396 19.0085 13.3074 16.2724 14.6218C17.855 17.1969 20.3765 18.6454 23.4344 18.7795C21.7982 20.5768 19.4377 21.7034 16.8089 21.7034C16.5675 21.7034 16.2992 21.7034 16.0578 21.6765V14.5413C16.1115 11.6175 17.6941 8.85465 20.5911 7.75487ZM8.62757 9.14972C10.0224 6.01131 13.1608 3.78491 16.8357 3.78491C18.7402 3.78491 20.5374 4.37504 21.9859 5.42118C24.2928 7.03062 25.795 9.71303 25.795 12.7441C25.795 14.3268 25.3926 15.8021 24.6683 17.0896C22.2542 17.331 19.9473 16.3922 18.7671 15.0778C21.8518 12.9856 22.6834 9.14972 22.0932 5.47483C18.4452 6.44049 15.1458 8.82783 14.6093 12.7978C13.2413 10.8128 11.1222 9.44478 8.62757 9.14972ZM4.36255 12.7441C4.36255 5.85036 9.94195 0.244141 16.8625 0.244141C23.7563 0.244141 29.3625 5.82354 29.3625 12.7441C29.3625 19.6379 23.7831 25.2441 16.8625 25.2441C9.94195 25.2173 4.36255 19.6379 4.36255 12.7441ZM16.8357 2.095C10.9613 2.095 6.21341 6.84285 6.21341 12.7173C6.21341 18.5918 10.9613 23.3396 16.8357 23.3396C22.7102 23.3396 27.458 18.5918 27.458 12.7173C27.458 6.86968 22.7102 2.095 16.8357 2.095Z" fill="#889840"/>
<path d="M95.6206 40.6284H95.3853H93.66L91.9608 37.0825H89.9219V40.6284H88.1704V31.75H92.8496C94.2874 31.75 95.4376 32.941 95.4376 34.4298C95.4376 35.5666 94.7318 36.5411 93.7646 36.9471L95.6206 40.6284ZM89.9219 33.2929V35.6749H92.5098C93.1372 35.6749 93.66 35.1335 93.66 34.4839C93.66 33.8343 93.1633 33.2929 92.5098 33.2929H89.9219ZM20.3871 35.5666H23.6024V37.0825H20.3871V39.0314H24.9094V40.6284H18.6356V31.75H24.9094V33.347H20.3871V35.5666ZM47.2599 40.6284H47.0246H45.2993L43.6002 37.0825H41.5612V40.6284H39.8098V31.75H44.5151C45.9529 31.75 47.1031 32.941 47.1031 34.4298C47.1031 35.5666 46.3973 36.5411 45.43 36.9471L47.2599 40.6284ZM41.5873 33.2929V35.6749H44.1753C44.8027 35.6749 45.3255 35.1335 45.3255 34.4839C45.3255 33.8343 44.8288 33.2929 44.1753 33.2929H41.5873ZM50.3445 36.1892C50.3445 37.8404 51.5993 39.1938 53.1678 39.1938C54.7101 39.1938 55.9648 37.8404 55.9648 36.1892C55.9648 34.538 54.7101 33.1846 53.1678 33.1846C51.5993 33.2117 50.3445 34.538 50.3445 36.1892ZM57.7424 36.1892C57.7424 38.8148 55.7296 40.8449 53.1678 40.8449C50.5798 40.8449 48.567 38.8419 48.567 36.2163C48.567 33.5907 50.5798 31.5605 53.1678 31.5605C55.7296 31.5605 57.7424 33.5907 57.7424 36.1892ZM81.4783 35.5666H84.7198V37.0825H81.4783V39.0314H86.0007V40.6284H79.7269V31.75H86.0007V33.347H81.4783V35.5666ZM75.2307 37.1095H71.7278V40.6555H69.9763V31.7771H71.7278V35.5396H75.2307V31.7771H76.9821V40.6555H75.2307V37.1095ZM28.5169 34.105C28.5169 34.6463 28.6215 34.8087 30.5036 35.2689C31.6015 35.5396 32.1243 35.7291 32.5949 36.0268C33.2745 36.514 33.6144 37.1637 33.6144 38.0028C33.6144 39.7893 32.255 40.8449 30.1376 40.8449C27.9941 40.8449 26.6609 39.7622 26.5302 37.8945H28.2816C28.4385 38.869 29.0658 39.3562 30.2683 39.3562C31.3401 39.3562 31.8891 38.869 31.8891 38.1652C31.8891 37.7862 31.7322 37.5426 31.2878 37.299C31.131 37.2178 30.8434 37.1366 30.582 37.0554L30.2683 36.9742L30.0853 36.9471C28.9613 36.6494 28.1248 36.3516 27.7327 36.0809C27.1314 35.6749 26.8439 35.0523 26.8439 34.2674C26.8439 32.6162 28.1509 31.5876 30.0592 31.5876C31.9413 31.5876 33.1438 32.535 33.3007 34.2132H31.5754C31.3924 33.4283 30.8957 33.0764 29.9808 33.0764C29.0136 33.0493 28.5169 33.4553 28.5169 34.105ZM10.7672 31.75L12.8846 38.3276L15.0282 31.75H16.8842L13.7734 40.6284H11.9174L8.85893 31.75H10.7672ZM3.44777 40.6284V37.1907L0.206299 31.7229H2.24529L4.3627 35.5666L6.45397 31.7229H8.44068L5.22535 37.1907V40.6013H3.44777V40.6284ZM59.2847 36.2163C59.2847 33.5907 61.2976 31.5605 63.8855 31.5605C65.8722 31.5605 67.5191 32.7786 68.1726 34.5381L68.251 34.7546H66.3428C65.8199 33.8072 64.9312 33.2388 63.9117 33.2388C62.3694 33.2388 61.0884 34.5922 61.0884 36.2433C61.0884 37.8945 62.3432 39.2479 63.9117 39.2479C64.9312 39.2479 65.8199 38.6524 66.3428 37.7321H68.251L68.1726 37.9486C67.5191 39.7081 65.8722 40.9261 63.8855 40.9261C61.2976 40.8449 59.2847 38.8419 59.2847 36.2163Z" fill="#68513F"/>
</svg>
