<svg width="96" height="96" viewBox="0 0 96 96" fill="none" xmlns="http://www.w3.org/2000/svg">
<path d="M45.0432 3.24532C46.6298 1.50391 49.3702 1.50391 50.9568 3.24533L56.2116 9.01288C57.2641 10.1681 58.893 10.6045 60.3821 10.1304L67.8167 7.76291C70.0614 7.0481 72.4347 8.41831 72.938 10.7197L74.605 18.342C74.9389 19.8687 76.1313 21.0611 77.658 21.395L85.2803 23.062C87.5817 23.5653 88.9519 25.9386 88.2371 28.1833L85.8696 35.6179C85.3955 37.107 85.8319 38.7359 86.9871 39.7884L92.7547 45.0432C94.4961 46.6298 94.4961 49.3702 92.7547 50.9568L86.9871 56.2116C85.8319 57.2641 85.3955 58.893 85.8696 60.3821L88.2371 67.8167C88.9519 70.0614 87.5817 72.4347 85.2803 72.938L77.658 74.605C76.1313 74.9389 74.9389 76.1313 74.605 77.658L72.938 85.2803C72.4347 87.5817 70.0614 88.9519 67.8167 88.2371L60.3821 85.8696C58.893 85.3955 57.2641 85.8319 56.2116 86.9871L50.9568 92.7547C49.3702 94.4961 46.6298 94.4961 45.0432 92.7547L39.7884 86.9871C38.7359 85.8319 37.107 85.3955 35.6179 85.8696L28.1833 88.2371C25.9386 88.9519 23.5653 87.5817 23.062 85.2803L21.395 77.658C21.0611 76.1313 19.8687 74.9389 18.342 74.605L10.7197 72.938C8.4183 72.4347 7.0481 70.0614 7.76291 67.8167L10.1304 60.3821C10.6045 58.893 10.1681 57.2641 9.01287 56.2116L3.24532 50.9568C1.50391 49.3702 1.50391 46.6298 3.24533 45.0432L9.01288 39.7884C10.1681 38.7359 10.6045 37.107 10.1304 35.6179L7.76291 28.1833C7.0481 25.9386 8.41831 23.5653 10.7197 23.062L18.342 21.395C19.8687 21.0611 21.0611 19.8687 21.395 18.342L23.062 10.7197C23.5653 8.4183 25.9386 7.0481 28.1833 7.76291L35.6179 10.1304C37.107 10.6045 38.7359 10.1681 39.7884 9.01287L45.0432 3.24532Z" fill="#FCBF87"/>
<path d="M61.3327 39L42.9993 57.3333L34.666 49" stroke="white" stroke-width="5" stroke-linecap="round" stroke-linejoin="round"/>
</svg>
