<svg width="25" height="24" viewBox="0 0 25 24" fill="none" xmlns="http://www.w3.org/2000/svg">
<path d="M20.6513 8.56471C20.4668 7.95294 19.9264 7.47059 19.2411 7.30588C17.989 7 12.9808 7 12.9808 7C12.9808 7 7.97258 7 6.72053 7.29412C6.04838 7.45882 5.49484 7.95294 5.31032 8.56471C4.98083 9.68235 4.98083 12 4.98083 12C4.98083 12 4.98083 14.3294 5.31032 15.4353C5.49484 16.0471 6.0352 16.5294 6.72053 16.6941C7.98576 17 12.9808 17 12.9808 17C12.9808 17 17.989 17 19.2411 16.7059C19.9264 16.5412 20.4668 16.0588 20.6513 15.4471C20.9808 14.3294 20.9808 12.0118 20.9808 12.0118C20.9808 12.0118 20.9939 9.68235 20.6513 8.56471Z" fill="#898989"/>
<path d="M10.9808 14.5L16.3142 12L10.9808 9.5V14.5Z" fill="white"/>
</svg>
