<svg width="52" height="47" viewBox="0 0 52 47" fill="none" xmlns="http://www.w3.org/2000/svg">
<path fill-rule="evenodd" clip-rule="evenodd" d="M39.3003 12.9082H45.3822V45.0885C43.4391 44.8296 41.2667 44.6185 39.3003 44.4357V12.9082Z" fill="#FB5D49"/>
<path fill-rule="evenodd" clip-rule="evenodd" d="M33.2358 7.68359H39.5131V44.436C37.5021 44.251 35.266 44.103 33.2358 44.0007V7.68359Z" fill="#EC1831"/>
<path fill-rule="evenodd" clip-rule="evenodd" d="M45.3813 12.9082H51.5397V46.0417C49.4982 45.679 47.4455 45.3584 45.3813 45.0798V12.9082Z" fill="#FEA477"/>
<path fill-rule="evenodd" clip-rule="evenodd" d="M13.0689 12.9062H6.98486V45.0996C8.93005 44.8385 11.1025 44.6231 13.0689 44.4468V12.9062Z" fill="#C4E022"/>
<path fill-rule="evenodd" clip-rule="evenodd" d="M19.1306 7.67969H12.8555V44.4407C14.8665 44.2558 17.1026 44.1034 19.1306 44.0055V7.67969Z" fill="#30A66B"/>
<path fill-rule="evenodd" clip-rule="evenodd" d="M18.9185 0.779297H33.4487V43.9991C31.0422 43.8786 28.6202 43.8177 26.1825 43.8163C23.7449 43.8148 21.3235 43.8757 18.9185 43.9991V0.779297Z" fill="#4F1F31"/>
<path d="M23.426 10.1602H22.0669V12.7476H23.426V10.1602Z" fill="#161314"/>
<path d="M23.6832 12.7266H21.8081V12.8853H23.6832V12.7266Z" fill="#161314"/>
<path d="M26.8449 11.4375H25.4858V14.0249H26.8449V11.4375Z" fill="#161314"/>
<path d="M27.1017 14.0039H25.2266V14.1627H27.1017V14.0039Z" fill="#161314"/>
<path d="M30.2971 12.752H28.938V15.3394H30.2971V12.752Z" fill="#DE822A"/>
<path d="M30.5543 15.3164H28.6792V15.4752H30.5543V15.3164Z" fill="#161314"/>
<path d="M23.426 14.9238H22.0669V17.5112H23.426V14.9238Z" fill="#161314"/>
<path d="M23.6832 17.4922H21.8081V17.651H23.6832V17.4922Z" fill="#161314"/>
<path d="M26.843 16.2109H25.4839V18.7983H26.843V16.2109Z" fill="#161314"/>
<path d="M27.1017 18.7754H25.2266V18.9342H27.1017V18.7754Z" fill="#161314"/>
<path d="M30.2971 17.1211H28.938V19.7085H30.2971V17.1211Z" fill="#161314"/>
<path d="M30.5567 19.6875H28.6816V19.8463H30.5567V19.6875Z" fill="#161314"/>
<path d="M23.4284 24.4707H22.0693V27.0581H23.4284V24.4707Z" fill="#161314"/>
<path d="M23.6857 27.0352H21.8105V27.1939H23.6857V27.0352Z" fill="#161314"/>
<path d="M26.8469 25.7441H25.4878V28.3315H26.8469V25.7441Z" fill="#161314"/>
<path d="M27.1066 28.3125H25.2314V28.4713H27.1066V28.3125Z" fill="#161314"/>
<path d="M30.3 27.0605H28.9409V29.6479H30.3V27.0605Z" fill="#161314"/>
<path d="M30.5587 29.627H28.6836V29.7857H30.5587V29.627Z" fill="#161314"/>
<path d="M23.4284 29.2344H22.0693V31.8218H23.4284V29.2344Z" fill="#DE822A"/>
<path d="M23.6857 31.8027H21.8105V31.9615H23.6857V31.8027Z" fill="#161314"/>
<path d="M26.8449 30.5195H25.4858V33.1069H26.8449V30.5195Z" fill="#161314"/>
<path d="M27.1036 33.0859H25.2285V33.2447H27.1036V33.0859Z" fill="#161314"/>
<path d="M30.3 31.4316H28.9409V34.019H30.3V31.4316Z" fill="#161314"/>
<path d="M30.5587 33.998H28.6836V34.1568H30.5587V33.998Z" fill="#161314"/>
<path d="M23.426 19.7129H22.0669V22.3003H23.426V19.7129Z" fill="#161314"/>
<path d="M23.6832 22.2793H21.8081V22.4381H23.6832V22.2793Z" fill="#161314"/>
<path d="M26.8449 20.9883H25.4858V23.5757H26.8449V20.9883Z" fill="#161314"/>
<path d="M27.1036 23.5566H25.2285V23.7154H27.1036V23.5566Z" fill="#161314"/>
<path d="M30.302 22.3047H28.9429V24.8921H30.302V22.3047Z" fill="#161314"/>
<path d="M30.5587 24.8711H28.6836V25.0299H30.5587V24.8711Z" fill="#161314"/>
<path d="M23.426 34.0391H22.0669V36.6265H23.426V34.0391Z" fill="#161314"/>
<path d="M23.6857 36.6074H21.8105V36.7662H23.6857V36.6074Z" fill="#161314"/>
<path d="M26.8449 35.3164H25.4858V37.9038H26.8449V35.3164Z" fill="#161314"/>
<path d="M27.1036 37.8828H25.2285V38.0416H27.1036V37.8828Z" fill="#161314"/>
<path d="M30.2971 36.6309H28.938V39.2183H30.2971V36.6309Z" fill="#161314"/>
<path d="M30.5567 39.1953H28.6816V39.3541H30.5567V39.1953Z" fill="#161314"/>
<path d="M23.4245 5.40234H22.0654V7.98974H23.4245V5.40234Z" fill="#161314"/>
<path d="M23.6813 7.9707H21.8062V8.12948H23.6813V7.9707Z" fill="#161314"/>
<path d="M26.843 6.67969H25.4839V9.26709H26.843V6.67969Z" fill="#161314"/>
<path d="M27.1017 9.24609H25.2266V9.40486H27.1017V9.24609Z" fill="#161314"/>
<path d="M30.2971 7.99805H28.938V10.5854H30.2971V7.99805Z" fill="#161314"/>
<path d="M30.5567 10.5625H28.6816V10.7213H30.5567V10.5625Z" fill="#161314"/>
<path d="M33.8307 0.779297H18.4829V2.4105H33.8307V0.779297Z" fill="#4F1F31"/>
<path d="M33.4487 2.41016H18.9185V3.12354H33.4487V2.41016Z" fill="#161314"/>
<path fill-rule="evenodd" clip-rule="evenodd" d="M6.98549 12.9062H0.827148V46.0615C2.86577 45.6973 4.91855 45.3767 6.98549 45.0996V12.9062Z" fill="#E3F383"/>
</svg>
