<svg width="16" height="16" viewBox="0 0 16 16" fill="none" xmlns="http://www.w3.org/2000/svg">
<path d="M13.3332 6.78658C13.3332 11.029 7.99984 14.6654 7.99984 14.6654C7.99984 14.6654 2.6665 11.029 2.6665 6.78658C2.6665 5.33994 3.22841 3.95256 4.2286 2.92963C5.22879 1.9067 6.58535 1.33203 7.99984 1.33203C9.41432 1.33203 10.7709 1.9067 11.7711 2.92963C12.7713 3.95256 13.3332 5.33994 13.3332 6.78658Z" stroke="#161314" stroke-linecap="round" stroke-linejoin="round"/>
<path d="M8 8.66797C9.10457 8.66797 10 7.77254 10 6.66797C10 5.5634 9.10457 4.66797 8 4.66797C6.89543 4.66797 6 5.5634 6 6.66797C6 7.77254 6.89543 8.66797 8 8.66797Z" stroke="#161314" stroke-linecap="round" stroke-linejoin="round"/>
</svg>
