<svg width="205" height="53" viewBox="0 0 205 53" fill="none" xmlns="http://www.w3.org/2000/svg">
<path d="M14.016 6.312C12.9493 5.77867 11.52 5.512 9.728 5.512C6.95467 5.512 5.568 6.536 5.568 8.584C5.568 9.56533 6.432 10.6 8.16 11.688C9.58933 12.6053 10.7093 13.3307 11.52 13.864C12.3307 14.3973 12.8213 14.7493 12.992 14.92C14.72 16.4347 15.584 18.184 15.584 20.168C15.584 22.3867 14.7307 24.1253 13.024 25.384C11.5733 26.4507 9.83467 26.984 7.808 26.984C5.78133 26.984 3.92533 26.6107 2.24 25.864L2.656 22.312C4.256 23.208 6.016 23.656 7.936 23.656C10.7733 23.656 12.192 22.408 12.192 19.912C12.192 18.9307 11.328 17.864 9.6 16.712C8.04267 15.6667 6.85867 14.8667 6.048 14.312C5.25867 13.7573 4.832 13.4587 4.768 13.416C3.06133 11.944 2.208 10.3333 2.208 8.584C2.208 6.6 2.976 5.01067 4.512 3.816C5.89867 2.74933 7.648 2.216 9.76 2.216C11.5093 2.216 13.12 2.49333 14.592 3.048L14.016 6.312ZM35.5175 18.984H24.7335C24.7975 20.52 25.2135 21.7147 25.9815 22.568C26.7708 23.4853 27.8588 23.944 29.2455 23.944C31.1655 23.944 32.8615 23.528 34.3335 22.696V25.928C32.6268 26.568 30.8988 26.888 29.1495 26.888C26.3975 26.888 24.3495 26.0133 23.0055 24.264C21.8322 22.7067 21.2455 20.5307 21.2455 17.736C21.2455 15.048 21.8962 12.8613 23.1975 11.176C24.4988 9.49067 26.2482 8.648 28.4455 8.648C30.8988 8.648 32.7335 9.52267 33.9495 11.272C34.9948 12.7653 35.5175 14.7387 35.5175 17.192V18.984ZM32.0295 15.944C32.0295 14.7493 31.7202 13.7467 31.1015 12.936C30.4615 12.0827 29.6188 11.656 28.5735 11.656C27.5068 11.656 26.6002 12.0933 25.8535 12.968C25.1068 13.8427 24.7335 14.8347 24.7335 15.944H32.0295ZM51.003 26.536V24.84C49.9577 26.2053 48.4537 26.888 46.491 26.888C44.3577 26.888 42.779 26.2907 41.755 25.096C41.0297 24.2213 40.667 23.1547 40.667 21.896C40.667 17.544 43.867 15.368 50.267 15.368H50.747V14.792C50.747 12.7013 49.7763 11.656 47.835 11.656C46.0857 11.656 44.3577 12.1147 42.651 13.032V9.896C44.2723 9.064 46.0643 8.648 48.027 8.648C50.075 8.648 51.5683 9.128 52.507 10.088C53.5097 11.1333 54.011 12.7547 54.011 14.952V22.408C54.011 24.3707 54.075 25.7467 54.203 26.536H51.003ZM50.747 18.344H50.075C48.411 18.344 47.131 18.4933 46.235 18.792C44.8057 19.2613 44.091 20.1893 44.091 21.576C44.091 23.112 44.9763 23.88 46.747 23.88C49.4137 23.88 50.747 22.2587 50.747 19.016V18.344ZM69.5925 12.2C69.3152 12.1573 69.0592 12.1253 68.8245 12.104C68.5898 12.0613 68.3552 12.04 68.1205 12.04C66.8832 12.04 65.9658 12.648 65.3685 13.864C64.8138 14.9307 64.5365 16.2533 64.5365 17.832V26.504H61.1125V13.32C61.1125 12.5093 61.0912 11.752 61.0485 11.048C61.0272 10.3227 60.9952 9.65067 60.9525 9.032H64.4085V11.176C65.3898 9.49067 66.6378 8.648 68.1525 8.648C68.6218 8.648 69.1018 8.712 69.5925 8.84V12.2ZM86.8175 26.216C85.6228 26.6 84.0975 26.792 82.2415 26.792C79.6175 26.792 77.5482 25.8747 76.0335 24.04C74.6682 22.3973 73.9855 20.296 73.9855 17.736C73.9855 15.112 74.7748 12.9467 76.3535 11.24C77.9535 9.55467 79.9695 8.712 82.4015 8.712C84.0228 8.712 85.4948 8.936 86.8175 9.384L86.5615 12.488C85.3028 11.976 83.9908 11.72 82.6255 11.72C80.9615 11.72 79.6602 12.2747 78.7215 13.384C77.8042 14.472 77.3455 15.9227 77.3455 17.736C77.3455 19.4427 77.8148 20.8827 78.7535 22.056C79.6708 23.208 80.8868 23.784 82.4015 23.784C83.7882 23.784 85.1748 23.528 86.5615 23.016L86.8175 26.216ZM106.606 26.376H103.182V16.136C103.182 14.5787 103 13.4587 102.638 12.776C102.147 11.9653 101.294 11.56 100.078 11.56C98.7335 11.56 97.6988 12.1147 96.9735 13.224C96.3548 14.2267 96.0455 15.4853 96.0455 17V26.376H92.6215V0.903999H96.0455V10.536C96.4722 9.832 97.0908 9.29867 97.9015 8.936C98.6908 8.552 99.5335 8.36 100.43 8.36C102.67 8.36 104.28 9.04267 105.262 10.408C106.158 11.624 106.606 13.4907 106.606 16.008V26.376Z" fill="#03C6FE"/>
<path d="M126.268 26.376H114.236V2.696H117.692V23.08H126.268V26.376ZM140.872 26.536V24.84C139.826 26.2053 138.322 26.888 136.36 26.888C134.226 26.888 132.648 26.2907 131.624 25.096C130.898 24.2213 130.536 23.1547 130.536 21.896C130.536 17.544 133.736 15.368 140.136 15.368H140.616V14.792C140.616 12.7013 139.645 11.656 137.704 11.656C135.954 11.656 134.226 12.1147 132.52 13.032V9.896C134.141 9.064 135.933 8.648 137.896 8.648C139.944 8.648 141.437 9.128 142.376 10.088C143.378 11.1333 143.88 12.7547 143.88 14.952V22.408C143.88 24.3707 143.944 25.7467 144.072 26.536H140.872ZM140.616 18.344H139.944C138.28 18.344 137 18.4933 136.104 18.792C134.674 19.2613 133.96 20.1893 133.96 21.576C133.96 23.112 134.845 23.88 136.616 23.88C139.282 23.88 140.616 22.2587 140.616 19.016V18.344ZM165.061 26.504H161.733V15.784C161.733 13.032 160.731 11.656 158.725 11.656C157.36 11.656 156.325 12.2 155.621 13.288C155.045 14.2267 154.757 15.432 154.757 16.904V26.504H151.429V13.48C151.429 12.648 151.408 11.8693 151.365 11.144C151.344 10.3973 151.312 9.69333 151.269 9.032H154.469V10.792C155.515 9.36267 157.061 8.648 159.109 8.648C163.077 8.648 165.061 10.856 165.061 15.272V26.504ZM184.468 26.216C183.273 26.6 181.748 26.792 179.892 26.792C177.268 26.792 175.198 25.8747 173.684 24.04C172.318 22.3973 171.636 20.296 171.636 17.736C171.636 15.112 172.425 12.9467 174.004 11.24C175.604 9.55467 177.62 8.712 180.052 8.712C181.673 8.712 183.145 8.936 184.468 9.384L184.212 12.488C182.953 11.976 181.641 11.72 180.276 11.72C178.612 11.72 177.31 12.2747 176.372 13.384C175.454 14.472 174.996 15.9227 174.996 17.736C174.996 19.4427 175.465 20.8827 176.404 22.056C177.321 23.208 178.537 23.784 180.052 23.784C181.438 23.784 182.825 23.528 184.212 23.016L184.468 26.216ZM203.488 18.984H192.704C192.768 20.52 193.184 21.7147 193.952 22.568C194.741 23.4853 195.829 23.944 197.216 23.944C199.136 23.944 200.832 23.528 202.304 22.696V25.928C200.597 26.568 198.869 26.888 197.12 26.888C194.368 26.888 192.32 26.0133 190.976 24.264C189.802 22.7067 189.216 20.5307 189.216 17.736C189.216 15.048 189.866 12.8613 191.168 11.176C192.469 9.49067 194.218 8.648 196.416 8.648C198.869 8.648 200.704 9.52267 201.92 11.272C202.965 12.7653 203.488 14.7387 203.488 17.192V18.984ZM200 15.944C200 14.7493 199.69 13.7467 199.072 12.936C198.432 12.0827 197.589 11.656 196.544 11.656C195.477 11.656 194.57 12.0933 193.824 12.968C193.077 13.8427 192.704 14.8347 192.704 15.944H200Z" fill="white"/>
<path d="M9.44344 39.325C8.87344 39.325 8.35844 39.425 7.89844 39.625C7.43844 39.815 7.04844 40.1 6.72844 40.48C6.40844 40.85 6.16344 41.305 5.99344 41.845C5.82344 42.375 5.73844 42.975 5.73844 43.645C5.73844 44.525 5.87344 45.29 6.14344 45.94C6.42344 46.59 6.83344 47.09 7.37344 47.44C7.92344 47.79 8.60844 47.965 9.42844 47.965C9.89844 47.965 10.3434 47.925 10.7634 47.845C11.1834 47.765 11.5934 47.665 11.9934 47.545V48.715C11.5934 48.865 11.1784 48.975 10.7484 49.045C10.3284 49.115 9.82344 49.15 9.23344 49.15C8.14344 49.15 7.23344 48.925 6.50344 48.475C5.77344 48.025 5.22344 47.385 4.85344 46.555C4.49344 45.725 4.31344 44.75 4.31344 43.63C4.31344 42.82 4.42344 42.08 4.64344 41.41C4.87344 40.74 5.20344 40.16 5.63344 39.67C6.07344 39.18 6.61344 38.805 7.25344 38.545C7.89344 38.275 8.62844 38.14 9.45844 38.14C10.0084 38.14 10.5384 38.195 11.0484 38.305C11.5584 38.415 12.0134 38.57 12.4134 38.77L11.8734 39.91C11.5434 39.76 11.1734 39.625 10.7634 39.505C10.3634 39.385 9.92344 39.325 9.44344 39.325ZM17.256 40.81C17.946 40.81 18.536 40.96 19.026 41.26C19.526 41.56 19.906 41.985 20.166 42.535C20.436 43.075 20.571 43.71 20.571 44.44V45.235H15.066C15.086 46.145 15.316 46.84 15.756 47.32C16.206 47.79 16.831 48.025 17.631 48.025C18.141 48.025 18.591 47.98 18.981 47.89C19.381 47.79 19.791 47.65 20.211 47.47V48.625C19.801 48.805 19.396 48.935 18.996 49.015C18.596 49.105 18.121 49.15 17.571 49.15C16.811 49.15 16.136 48.995 15.546 48.685C14.966 48.375 14.511 47.915 14.181 47.305C13.861 46.685 13.701 45.93 13.701 45.04C13.701 44.16 13.846 43.405 14.136 42.775C14.436 42.145 14.851 41.66 15.381 41.32C15.921 40.98 16.546 40.81 17.256 40.81ZM17.241 41.89C16.611 41.89 16.111 42.095 15.741 42.505C15.381 42.905 15.166 43.465 15.096 44.185H19.191C19.191 43.725 19.121 43.325 18.981 42.985C18.841 42.645 18.626 42.38 18.336 42.19C18.056 41.99 17.691 41.89 17.241 41.89ZM26.4428 40.81C27.4328 40.81 28.2278 41.155 28.8278 41.845C29.4378 42.535 29.7428 43.575 29.7428 44.965C29.7428 45.875 29.6028 46.645 29.3228 47.275C29.0528 47.895 28.6678 48.365 28.1678 48.685C27.6778 48.995 27.0978 49.15 26.4278 49.15C26.0178 49.15 25.6528 49.095 25.3328 48.985C25.0128 48.875 24.7378 48.735 24.5078 48.565C24.2878 48.385 24.0978 48.19 23.9378 47.98H23.8478C23.8678 48.15 23.8878 48.365 23.9078 48.625C23.9278 48.885 23.9378 49.11 23.9378 49.3V52.6H22.6178V40.96H23.6978L23.8778 42.055H23.9378C24.0978 41.825 24.2878 41.615 24.5078 41.425C24.7378 41.235 25.0078 41.085 25.3178 40.975C25.6378 40.865 26.0128 40.81 26.4428 40.81ZM26.2028 41.92C25.6628 41.92 25.2278 42.025 24.8978 42.235C24.5678 42.435 24.3278 42.74 24.1778 43.15C24.0278 43.56 23.9478 44.08 23.9378 44.71V44.965C23.9378 45.625 24.0078 46.185 24.1478 46.645C24.2878 47.105 24.5228 47.455 24.8528 47.695C25.1928 47.935 25.6528 48.055 26.2328 48.055C26.7228 48.055 27.1228 47.92 27.4328 47.65C27.7528 47.38 27.9878 47.015 28.1378 46.555C28.2978 46.085 28.3778 45.55 28.3778 44.95C28.3778 44.03 28.1978 43.295 27.8378 42.745C27.4878 42.195 26.9428 41.92 26.2028 41.92ZM38.3113 42.985C38.3113 43.485 38.1613 43.875 37.8613 44.155C37.5613 44.435 37.1763 44.625 36.7063 44.725V44.785C37.2063 44.855 37.6413 45.035 38.0113 45.325C38.3813 45.605 38.5663 46.045 38.5663 46.645C38.5663 46.985 38.5013 47.3 38.3713 47.59C38.2513 47.88 38.0613 48.13 37.8013 48.34C37.5413 48.55 37.2063 48.715 36.7963 48.835C36.3863 48.945 35.8913 49 35.3113 49H31.8463V40.96H35.2963C35.8663 40.96 36.3763 41.025 36.8263 41.155C37.2863 41.275 37.6463 41.485 37.9063 41.785C38.1763 42.075 38.3113 42.475 38.3113 42.985ZM37.2013 46.645C37.2013 46.185 37.0263 45.855 36.6763 45.655C36.3263 45.455 35.8113 45.355 35.1313 45.355H33.1663V47.935H35.1613C35.8213 47.935 36.3263 47.84 36.6763 47.65C37.0263 47.45 37.2013 47.115 37.2013 46.645ZM36.9763 43.15C36.9763 42.77 36.8363 42.495 36.5563 42.325C36.2863 42.145 35.8413 42.055 35.2213 42.055H33.1663V44.26H34.9813C35.6313 44.26 36.1263 44.17 36.4663 43.99C36.8063 43.81 36.9763 43.53 36.9763 43.15ZM41.7339 45.865C41.7339 45.955 41.7289 46.085 41.7189 46.255C41.7189 46.415 41.7139 46.59 41.7039 46.78C41.6939 46.96 41.6839 47.135 41.6739 47.305C41.6639 47.465 41.6539 47.595 41.6439 47.695L45.9489 40.96H47.5689V49H46.3389V44.26C46.3389 44.1 46.3389 43.89 46.3389 43.63C46.3489 43.37 46.3589 43.115 46.3689 42.865C46.3789 42.605 46.3889 42.41 46.3989 42.28L42.1239 49H40.4889V40.96H41.7339V45.865ZM53.3525 49.15C52.6425 49.15 52.0075 49.005 51.4475 48.715C50.8975 48.425 50.4625 47.975 50.1425 47.365C49.8325 46.755 49.6775 45.975 49.6775 45.025C49.6775 44.035 49.8425 43.23 50.1725 42.61C50.5025 41.99 50.9475 41.535 51.5075 41.245C52.0775 40.955 52.7225 40.81 53.4425 40.81C53.8525 40.81 54.2475 40.855 54.6275 40.945C55.0075 41.025 55.3175 41.125 55.5575 41.245L55.1525 42.34C54.9125 42.25 54.6325 42.165 54.3125 42.085C53.9925 42.005 53.6925 41.965 53.4125 41.965C52.8725 41.965 52.4275 42.08 52.0775 42.31C51.7275 42.54 51.4675 42.88 51.2975 43.33C51.1275 43.78 51.0425 44.34 51.0425 45.01C51.0425 45.65 51.1275 46.195 51.2975 46.645C51.4675 47.095 51.7225 47.435 52.0625 47.665C52.4025 47.895 52.8275 48.01 53.3375 48.01C53.7775 48.01 54.1625 47.965 54.4925 47.875C54.8325 47.785 55.1425 47.675 55.4225 47.545V48.715C55.1525 48.855 54.8525 48.96 54.5225 49.03C54.2025 49.11 53.8125 49.15 53.3525 49.15ZM67.528 40.96V49H66.208V42.085H62.053V49H60.733V40.96H67.528ZM77.0834 44.965C77.0834 45.635 76.9934 46.23 76.8134 46.75C76.6434 47.26 76.3934 47.695 76.0634 48.055C75.7434 48.415 75.3484 48.69 74.8784 48.88C74.4184 49.06 73.9034 49.15 73.3334 49.15C72.8034 49.15 72.3134 49.06 71.8634 48.88C71.4134 48.69 71.0234 48.415 70.6934 48.055C70.3634 47.695 70.1034 47.26 69.9134 46.75C69.7334 46.23 69.6434 45.635 69.6434 44.965C69.6434 44.075 69.7934 43.325 70.0934 42.715C70.3934 42.095 70.8234 41.625 71.3834 41.305C71.9434 40.975 72.6084 40.81 73.3784 40.81C74.1084 40.81 74.7484 40.975 75.2984 41.305C75.8584 41.625 76.2934 42.095 76.6034 42.715C76.9234 43.325 77.0834 44.075 77.0834 44.965ZM71.0084 44.965C71.0084 45.595 71.0884 46.145 71.2484 46.615C71.4184 47.075 71.6784 47.43 72.0284 47.68C72.3784 47.93 72.8234 48.055 73.3634 48.055C73.9034 48.055 74.3484 47.93 74.6984 47.68C75.0484 47.43 75.3034 47.075 75.4634 46.615C75.6334 46.145 75.7184 45.595 75.7184 44.965C75.7184 44.325 75.6334 43.78 75.4634 43.33C75.2934 42.88 75.0334 42.535 74.6834 42.295C74.3434 42.045 73.8984 41.92 73.3484 41.92C72.5284 41.92 71.9334 42.19 71.5634 42.73C71.1934 43.27 71.0084 44.015 71.0084 44.965ZM80.4204 45.865C80.4204 45.955 80.4154 46.085 80.4054 46.255C80.4054 46.415 80.4004 46.59 80.3904 46.78C80.3804 46.96 80.3704 47.135 80.3604 47.305C80.3504 47.465 80.3404 47.595 80.3304 47.695L84.6354 40.96H86.2554V49H85.0254V44.26C85.0254 44.1 85.0254 43.89 85.0254 43.63C85.0354 43.37 85.0454 43.115 85.0554 42.865C85.0654 42.605 85.0754 42.41 85.0854 42.28L80.8104 49H79.1754V40.96H80.4204V45.865ZM92.0391 49.15C91.3291 49.15 90.6941 49.005 90.1341 48.715C89.5841 48.425 89.1491 47.975 88.8291 47.365C88.5191 46.755 88.3641 45.975 88.3641 45.025C88.3641 44.035 88.5291 43.23 88.8591 42.61C89.1891 41.99 89.6341 41.535 90.1941 41.245C90.7641 40.955 91.4091 40.81 92.1291 40.81C92.5391 40.81 92.9341 40.855 93.3141 40.945C93.6941 41.025 94.0041 41.125 94.2441 41.245L93.8391 42.34C93.5991 42.25 93.3191 42.165 92.9991 42.085C92.6791 42.005 92.3791 41.965 92.0991 41.965C91.5591 41.965 91.1141 42.08 90.7641 42.31C90.4141 42.54 90.1541 42.88 89.9841 43.33C89.8141 43.78 89.7291 44.34 89.7291 45.01C89.7291 45.65 89.8141 46.195 89.9841 46.645C90.1541 47.095 90.4091 47.435 90.7491 47.665C91.0891 47.895 91.5141 48.01 92.0241 48.01C92.4641 48.01 92.8491 47.965 93.1791 47.875C93.5191 47.785 93.8291 47.675 94.1091 47.545V48.715C93.8391 48.855 93.5391 48.96 93.2091 49.03C92.8891 49.11 92.4991 49.15 92.0391 49.15ZM100.776 40.96H102.216L98.7811 44.83L102.501 49H100.971L97.3411 44.92V49H96.0211V40.96H97.3411V44.86L100.776 40.96ZM107.006 40.825C107.986 40.825 108.711 41.04 109.181 41.47C109.651 41.9 109.886 42.585 109.886 43.525V49H108.926L108.671 47.86H108.611C108.381 48.15 108.141 48.395 107.891 48.595C107.651 48.785 107.371 48.925 107.051 49.015C106.741 49.105 106.361 49.15 105.911 49.15C105.431 49.15 104.996 49.065 104.606 48.895C104.226 48.725 103.926 48.465 103.706 48.115C103.486 47.755 103.376 47.305 103.376 46.765C103.376 45.965 103.691 45.35 104.321 44.92C104.951 44.48 105.921 44.24 107.231 44.2L108.596 44.155V43.675C108.596 43.005 108.451 42.54 108.161 42.28C107.871 42.02 107.461 41.89 106.931 41.89C106.511 41.89 106.111 41.955 105.731 42.085C105.351 42.205 104.996 42.345 104.666 42.505L104.261 41.515C104.611 41.325 105.026 41.165 105.506 41.035C105.986 40.895 106.486 40.825 107.006 40.825ZM107.396 45.115C106.396 45.155 105.701 45.315 105.311 45.595C104.931 45.875 104.741 46.27 104.741 46.78C104.741 47.23 104.876 47.56 105.146 47.77C105.426 47.98 105.781 48.085 106.211 48.085C106.891 48.085 107.456 47.9 107.906 47.53C108.356 47.15 108.581 46.57 108.581 45.79V45.07L107.396 45.115ZM118.812 40.825C119.792 40.825 120.517 41.04 120.987 41.47C121.457 41.9 121.692 42.585 121.692 43.525V49H120.732L120.477 47.86H120.417C120.187 48.15 119.947 48.395 119.697 48.595C119.457 48.785 119.177 48.925 118.857 49.015C118.547 49.105 118.167 49.15 117.717 49.15C117.237 49.15 116.802 49.065 116.412 48.895C116.032 48.725 115.732 48.465 115.512 48.115C115.292 47.755 115.182 47.305 115.182 46.765C115.182 45.965 115.497 45.35 116.127 44.92C116.757 44.48 117.727 44.24 119.037 44.2L120.402 44.155V43.675C120.402 43.005 120.257 42.54 119.967 42.28C119.677 42.02 119.267 41.89 118.737 41.89C118.317 41.89 117.917 41.955 117.537 42.085C117.157 42.205 116.802 42.345 116.472 42.505L116.067 41.515C116.417 41.325 116.832 41.165 117.312 41.035C117.792 40.895 118.292 40.825 118.812 40.825ZM119.202 45.115C118.202 45.155 117.507 45.315 117.117 45.595C116.737 45.875 116.547 46.27 116.547 46.78C116.547 47.23 116.682 47.56 116.952 47.77C117.232 47.98 117.587 48.085 118.017 48.085C118.697 48.085 119.262 47.9 119.712 47.53C120.162 47.15 120.387 46.57 120.387 45.79V45.07L119.202 45.115ZM130.64 42.985C130.64 43.485 130.49 43.875 130.19 44.155C129.89 44.435 129.505 44.625 129.035 44.725V44.785C129.535 44.855 129.97 45.035 130.34 45.325C130.71 45.605 130.895 46.045 130.895 46.645C130.895 46.985 130.83 47.3 130.7 47.59C130.58 47.88 130.39 48.13 130.13 48.34C129.87 48.55 129.535 48.715 129.125 48.835C128.715 48.945 128.22 49 127.64 49H124.175V40.96H127.625C128.195 40.96 128.705 41.025 129.155 41.155C129.615 41.275 129.975 41.485 130.235 41.785C130.505 42.075 130.64 42.475 130.64 42.985ZM129.53 46.645C129.53 46.185 129.355 45.855 129.005 45.655C128.655 45.455 128.14 45.355 127.46 45.355H125.495V47.935H127.49C128.15 47.935 128.655 47.84 129.005 47.65C129.355 47.45 129.53 47.115 129.53 46.645ZM129.305 43.15C129.305 42.77 129.165 42.495 128.885 42.325C128.615 42.145 128.17 42.055 127.55 42.055H125.495V44.26H127.31C127.96 44.26 128.455 44.17 128.795 43.99C129.135 43.81 129.305 43.53 129.305 43.15ZM138.368 42.07H135.743V49H134.438V42.07H131.843V40.96H138.368V42.07ZM146.795 44.965C146.795 45.635 146.705 46.23 146.525 46.75C146.355 47.26 146.105 47.695 145.775 48.055C145.455 48.415 145.06 48.69 144.59 48.88C144.13 49.06 143.615 49.15 143.045 49.15C142.515 49.15 142.025 49.06 141.575 48.88C141.125 48.69 140.735 48.415 140.405 48.055C140.075 47.695 139.815 47.26 139.625 46.75C139.445 46.23 139.355 45.635 139.355 44.965C139.355 44.075 139.505 43.325 139.805 42.715C140.105 42.095 140.535 41.625 141.095 41.305C141.655 40.975 142.32 40.81 143.09 40.81C143.82 40.81 144.46 40.975 145.01 41.305C145.57 41.625 146.005 42.095 146.315 42.715C146.635 43.325 146.795 44.075 146.795 44.965ZM140.72 44.965C140.72 45.595 140.8 46.145 140.96 46.615C141.13 47.075 141.39 47.43 141.74 47.68C142.09 47.93 142.535 48.055 143.075 48.055C143.615 48.055 144.06 47.93 144.41 47.68C144.76 47.43 145.015 47.075 145.175 46.615C145.345 46.145 145.43 45.595 145.43 44.965C145.43 44.325 145.345 43.78 145.175 43.33C145.005 42.88 144.745 42.535 144.395 42.295C144.055 42.045 143.61 41.92 143.06 41.92C142.24 41.92 141.645 42.19 141.275 42.73C140.905 43.27 140.72 44.015 140.72 44.965Z" fill="white"/>
</svg>
