<svg width="32" height="32" viewBox="0 0 32 32" fill="none" xmlns="http://www.w3.org/2000/svg">
<path d="M26.6673 13.5751C26.6673 22.06 16.0006 29.3327 16.0006 29.3327C16.0006 29.3327 5.33398 22.06 5.33398 13.5751C5.33398 10.6818 6.45779 7.90707 8.45818 5.86121C10.4586 3.81536 13.1717 2.66602 16.0006 2.66602C18.8296 2.66602 21.5427 3.81536 23.5431 5.86121C25.5435 7.90707 26.6673 10.6818 26.6673 13.5751Z" stroke="#161314" stroke-width="2" stroke-linecap="round" stroke-linejoin="round"/>
<path d="M16 17.334C18.2091 17.334 20 15.5431 20 13.334C20 11.1248 18.2091 9.33398 16 9.33398C13.7909 9.33398 12 11.1248 12 13.334C12 15.5431 13.7909 17.334 16 17.334Z" stroke="#161314" stroke-width="2" stroke-linecap="round" stroke-linejoin="round"/>
</svg>
