<svg width="16" height="16" viewBox="0 0 16 16" fill="none" xmlns="http://www.w3.org/2000/svg">
<path d="M14.0006 7.66668C14.0031 8.54659 13.7861 9.4146 13.3673 10.2C12.8708 11.1412 12.1075 11.9328 11.1629 12.4862C10.2183 13.0396 9.12977 13.3329 8.01916 13.3333C7.09037 13.3356 6.17413 13.13 5.34509 12.7333L1.33398 14L2.67102 10.2C2.25227 9.4146 2.03527 8.54659 2.03769 7.66668C2.03812 6.61452 2.34775 5.58325 2.9319 4.68838C3.51604 3.79352 4.35164 3.0704 5.34509 2.60002C6.17413 2.20331 7.09037 1.99772 8.01916 2.00002H8.37101C9.83777 2.07668 11.2231 2.66319 12.2619 3.64726C13.3006 4.63132 13.9197 5.94378 14.0006 7.33334V7.66668Z" stroke="#38BE76" stroke-width="2" stroke-linecap="round" stroke-linejoin="round"/>
<path fill-rule="evenodd" clip-rule="evenodd" d="M13.3673 10.2C13.7861 9.4146 14.0031 8.54659 14.0006 7.66668V7.33334C13.9197 5.94378 13.3006 4.63132 12.2619 3.64726C11.2231 2.66319 9.83777 2.07668 8.37101 2.00002H8.01916C7.09036 1.99772 6.17413 2.20331 5.34509 2.60002C4.35164 3.0704 3.51604 3.79352 2.9319 4.68838C2.34775 5.58325 2.03812 6.61452 2.03769 7.66668C2.03527 8.54659 2.25227 9.4146 2.67102 10.2L1.33398 14L5.34509 12.7333C6.17413 13.13 7.09036 13.3356 8.01916 13.3333C9.12977 13.3329 10.2183 13.0396 11.1629 12.4862C12.1075 11.9328 12.8708 11.1412 13.3673 10.2ZM5.00049 9C5.55277 9 6.00049 8.55228 6.00049 8C6.00049 7.44772 5.55277 7 5.00049 7C4.4482 7 4.00049 7.44772 4.00049 8C4.00049 8.55228 4.4482 9 5.00049 9ZM9.00049 8C9.00049 8.55228 8.55277 9 8.00049 9C7.4482 9 7.00049 8.55228 7.00049 8C7.00049 7.44772 7.4482 7 8.00049 7C8.55277 7 9.00049 7.44772 9.00049 8ZM11.0005 9C11.5528 9 12.0005 8.55228 12.0005 8C12.0005 7.44772 11.5528 7 11.0005 7C10.4482 7 10.0005 7.44772 10.0005 8C10.0005 8.55228 10.4482 9 11.0005 9Z" fill="#38BE76"/>
</svg>
