<svg width="469" height="397" viewBox="0 0 469 397" fill="none" xmlns="http://www.w3.org/2000/svg">
<g clip-path="url(#clip0_1_8)">
<path d="M343.016 281.075C343.016 281.075 271.595 286.494 267.653 279.647C263.71 272.801 307.83 270.785 293.487 267.845C279.144 264.905 37.2835 259.528 76.0767 290.778C93.2716 304.638 85.0516 304.512 57.7915 303.042C30.5313 301.572 -43.8678 310.939 35.8156 329.419C115.499 347.9 171.11 356.174 149.931 362.307C128.752 368.397 133.407 402.922 199.46 394.102C265.514 385.282 459.69 355.838 452.141 348.824C444.592 341.81 385.374 341.18 417.667 331.267C449.96 321.313 394.685 307.326 373.17 308.376C351.614 309.468 343.016 281.075 343.016 281.075Z" fill="#D5E9D8"/>
<path d="M212.671 361.215L246.18 397L330.309 383.811L330.225 380.913L291.683 351.722L212.629 358.316L212.671 361.215Z" fill="#249842"/>
<path d="M212.629 358.316L246.096 394.144L330.225 380.913L291.599 348.866L212.629 358.316Z" fill="#33AA52"/>
<path d="M212.629 358.316L212.042 336.056L291.012 326.563L324.312 359.492L323.725 381.963L246.096 394.144L212.629 358.316Z" fill="#E9FFEF"/>
<path d="M335.048 248.23L340.71 286.494L387.178 314.887L391.33 314.173L378.203 268.937L335.048 248.23Z" fill="#148932"/>
<path d="M336.558 290.778L267.652 292.962V296.532L320.411 333.199L392.043 317.407L391.33 314.173L336.558 290.778Z" fill="#148932"/>
<path d="M454.615 0V308.418L276.627 222.861V76.1911L454.615 0Z" fill="#33AA52"/>
<path d="M454.615 0H461.074C461.074 0 468.958 86.9855 468.958 154.188C468.958 221.391 459.857 306.486 459.857 306.486L454.573 308.418V0H454.615Z" fill="#148932"/>
<path d="M454.615 242.266V308.418L276.627 222.861V197.702L454.615 242.266Z" fill="#249842"/>
<path d="M281.157 198.836V81.2313L441.698 24.445V239.032L281.157 198.836Z" fill="#E9FFEF"/>
<path d="M387.178 314.887L359.079 299.514H359.037L336.558 287.208L330.896 248.944L352.914 259.528L374.009 269.693L387.178 314.887Z" fill="#33AA52"/>
<path d="M336.558 287.208L267.652 292.962L320.411 329.629L387.178 314.887L336.558 287.208Z" fill="#33AA52"/>
<path d="M212.126 338.912L245.593 374.739L329.764 361.551L329.68 358.652L291.096 329.461L212.042 336.056L212.126 338.912Z" fill="#249842"/>
<path d="M212.042 336.056L245.509 371.883L329.68 358.652L291.012 326.563L212.042 336.056Z" fill="#33AA52"/>
<path d="M324.102 367.851L309.633 369.279L324.102 365.667V367.851Z" fill="#33AA52"/>
<path d="M323.976 371.211L306.865 373.185L318.44 373.395L300.532 376.755L323.892 375.285L323.976 371.211Z" fill="#33AA52"/>
<path d="M365.621 290.778C369.186 280.235 353.291 259.99 352.914 259.528L374.009 269.693L387.136 314.887L359.037 299.514C359.414 299.682 362.266 300.732 365.621 290.778Z" fill="#249842"/>
<path d="M198.747 270.449C198.747 270.449 193.715 278.051 194.26 279.731C194.805 281.411 208.267 281.033 208.267 281.033L203.235 267.845L198.747 270.449Z" fill="#249842"/>
<path d="M220.639 271.751C220.639 271.751 216.32 279.815 217.41 281.075C218.5 282.335 228.733 282.041 229.237 281.075C229.782 280.109 225.127 270.071 225.127 270.071L220.639 271.751Z" fill="#249842"/>
<path d="M229.279 270.827C222.694 275.657 217.2 270.827 217.2 270.827C217.2 270.827 214.6 257.302 212.629 246.676C211.497 240.712 210.574 235.713 210.406 234.453C209.861 230.925 205.374 207.824 205.374 207.824L204.367 194.468L202.857 174.517L222.233 173.047C222.233 173.047 224.582 175.819 225.882 179.095C227.224 182.329 226.175 193.124 226.175 193.124C226.175 193.124 226.175 225.423 226.007 227.859C225.84 230.169 229.279 270.827 229.279 270.827Z" fill="#141414"/>
<path d="M212.629 246.676C211.497 240.712 210.574 235.714 210.406 234.453C209.861 230.925 205.374 207.824 205.374 207.824L204.367 194.468C207.051 193.04 209.316 191.822 209.316 191.822C209.316 191.822 211.119 197.912 209.316 203.162C207.512 208.286 212.629 246.676 212.629 246.676Z" fill="#333333"/>
<path d="M195.308 271.583C195.308 271.583 204.283 273.263 206.254 270.113C206.254 270.113 203.738 234.243 203.738 229.623C203.738 225.003 207.303 203.078 207.303 202.532C207.303 201.986 209.274 198.836 209.274 197.156C209.274 195.476 208.393 180.271 208.393 180.271C208.393 180.271 189.018 179.599 188.64 182.371C188.263 185.101 187.004 223.869 187.55 228.321C188.179 232.689 195.308 271.583 195.308 271.583Z" fill="#333333"/>
<path d="M228.062 177.163C228.062 177.163 231.963 164.605 232.592 162.001C233.221 159.396 226.72 149.106 225.924 148.602C225.127 148.098 222.862 127.979 224.665 127.685C226.469 127.391 244.67 158.892 244.335 162.043C243.957 165.193 231.124 184.555 231.124 184.555L228.062 177.163Z" fill="#249842"/>
<path d="M226.972 178.717C226.091 179.305 208.771 181.321 197.154 182.035C191.366 182.413 187.004 182.413 186.795 181.825C186.292 180.481 184.195 152.802 183.649 136.8C183.398 130.499 183.398 126.047 183.817 125.627C184.866 124.619 198.496 124.997 209.274 125.711C220.052 126.467 224.246 127.013 224.707 127.643C225.127 128.315 228.272 177.877 226.972 178.717Z" fill="#249842"/>
<path d="M200.383 180.649C200.383 180.649 199.041 181.237 197.112 182.035C191.324 182.413 186.963 182.413 186.753 181.825C186.25 180.481 184.153 152.802 183.607 136.8C184.782 133.355 185.537 131.087 185.537 131.087C185.537 131.087 185.243 150.24 187.382 151.794C189.521 153.348 189.898 159.942 187.969 161.623C186.04 163.303 189.143 179.011 200.383 180.649Z" fill="#249842"/>
<path d="M129.087 103.072C129.087 103.072 139.488 101.224 141.291 101.728C143.095 102.232 149.889 109.54 150.14 110.506C150.392 111.514 145.359 113.573 145.108 113.657C144.856 113.741 143.43 110.758 142.466 110.758C141.501 110.758 138.272 111.01 138.02 110.632C137.768 110.254 141.837 109.162 142.088 108.154C142.34 107.146 139.32 105.802 138.481 105.172C137.727 104.584 129.087 105.088 129.087 103.072Z" fill="#E9FFEF"/>
<path d="M142.759 113.657C142.759 113.657 150.434 108.028 151.273 108.91C152.111 109.792 153.286 113.657 153.286 113.657C153.286 113.657 145.863 118.823 144.898 117.647C143.933 116.471 142.759 113.657 142.759 113.657Z" fill="#249842"/>
<path d="M145.611 117.815C145.611 117.815 158.528 138.48 162.135 138.984C165.742 139.488 183.733 140.244 183.733 140.244C183.733 140.244 187.717 128.231 183.775 125.627C183.775 125.627 165.49 126.971 164.861 126.761C164.274 126.509 153.244 113.699 153.244 113.699C153.244 113.699 147.54 116.093 145.611 117.815Z" fill="#249842"/>
<path d="M186.753 181.825C186.753 181.825 185.872 186.32 187.885 187.832L226.93 178.759C226.972 178.717 191.114 181.195 186.753 181.825Z" fill="#E9FFEF"/>
<path d="M221.688 180.145C221.688 180.145 221.772 189.134 225.714 190.352L229.237 185.899L226.93 178.759C226.972 178.717 224.582 178.885 221.688 180.145Z" fill="#E9FFEF"/>
<path d="M225.924 179.011C225.924 179.011 228.901 183.967 227.979 187.538C227.979 187.538 230.327 187.118 231.124 184.555C231.124 184.555 229.95 177.163 228.062 177.163C226.175 177.163 225.924 179.011 225.924 179.011Z" fill="#249842"/>
<path d="M212.587 119.495C212.587 119.495 210.868 119.999 210.868 122.099V123.821C210.868 125.291 210.868 126.467 210.868 126.467L199.964 125.963L203.402 109.666H210.364L211.245 113.573L212.587 119.495Z" fill="#E9FFEF"/>
<path d="M212.587 119.495C212.587 119.495 210.868 119.999 210.868 122.099V123.821C209.526 124.073 208.477 124.199 208.477 124.199C208.477 124.199 209.945 120.671 208.477 119.495C207.009 118.319 205.374 114.035 205.374 114.035L211.245 113.573L212.587 119.495Z" fill="#E9FFEF"/>
<path d="M198.034 125.585C198.034 125.585 197.741 119.831 198.454 119.831C199.167 119.831 212.377 120.335 212.587 121.385C212.797 122.435 212.587 126.383 212.587 126.383C212.587 126.383 206.59 129.449 198.034 125.585Z" fill="#249842"/>
<path d="M220.262 100.678C220.262 100.678 220.262 110.716 218.123 113.951C215.984 117.185 213.971 119.579 212.587 119.495C211.161 119.411 205.499 114.917 204.619 112.901C203.696 110.926 200.467 108.112 200.467 108.112C200.467 108.112 200.97 98.2 201.683 98.0739C202.396 97.9899 218.752 93.1598 218.752 93.1598C218.752 93.1598 220.346 97.5279 220.262 100.678Z" fill="#E9FFEF"/>
<path d="M209.568 103.114C209.568 103.114 216.781 103.366 218.92 100.384C221.059 97.4019 219.255 95.9739 218.668 96.0579C218.081 96.1419 206.59 96.8559 206.254 97.2339C205.919 97.5699 209.568 103.114 209.568 103.114Z" fill="#E9FFEF"/>
<path d="M205.415 107.482C205.415 107.482 205.499 104.752 203.78 104.878C202.06 104.962 202.689 111.557 204.577 111.557L202.228 115.043C202.228 115.043 193.966 101.434 194.05 99.46C194.134 97.4859 198.915 88.4976 200.425 88.2876C201.935 88.0776 203.444 84.5074 204.241 84.6334C205.038 84.7174 204.661 86.7335 204.661 86.7335C204.661 86.7335 218.375 86.4395 221.31 89.9676C224.246 93.5378 220.01 105.55 220.01 105.13C220.052 104.71 218.458 98.242 217.871 98.116C217.871 98.116 212.545 103.576 208.183 103.24C205.416 102.988 205.415 107.482 205.415 107.482Z" fill="#090B33"/>
<path d="M203.361 106.306C203.361 106.306 205.08 106.558 204.828 108.196C204.828 108.196 204.535 107.062 203.361 106.306Z" fill="#E8BAA6"/>
<path d="M119.777 169.855V278.219H108.999V169.729L114.87 166.411L119.777 169.855Z" fill="#249842"/>
<path d="M114.87 100.552C95.6621 100.552 80.0609 116.177 80.0609 135.413C80.0609 154.65 95.6621 170.275 114.87 170.275C134.078 170.275 149.679 154.65 149.679 135.413C149.679 116.177 134.078 100.552 114.87 100.552ZM114.87 163.345C99.4785 163.345 86.9808 150.828 86.9808 135.413C86.9808 119.999 99.4785 107.482 114.87 107.482C130.261 107.482 142.759 119.999 142.759 135.413C142.759 150.87 130.261 163.345 114.87 163.345Z" fill="#249842"/>
<path opacity="0.42" d="M114.87 163.345C130.273 163.345 142.759 150.839 142.759 135.413C142.759 119.988 130.273 107.482 114.87 107.482C99.4672 107.482 86.9808 119.988 86.9808 135.413C86.9808 150.839 99.4672 163.345 114.87 163.345Z" fill="#E9FFEF"/>
<path d="M131.981 146.082C131.016 145.284 130.807 143.856 131.478 142.806C134.33 138.396 134.497 133.397 131.981 127.937C130.639 125.081 128.878 122.729 127.619 121.301C126.781 120.335 126.823 118.907 127.703 117.941L127.745 117.899C128.752 116.807 130.513 116.849 131.478 117.941C136.804 123.989 142.466 135.161 135.714 145.536C134.875 146.796 133.113 147.048 131.981 146.082Z" fill="#E9FFEF"/>
<path d="M173.878 368.859C173.878 368.859 170.816 368.817 171.99 369.615C173.165 370.413 176.981 369.993 175.933 369.489C174.674 368.943 173.878 368.859 173.878 368.859Z" fill="#E9FFEF"/>
<path d="M402.611 351.47C402.611 351.47 399.55 351.428 400.724 352.226C401.898 353.024 405.715 352.604 404.666 352.1C403.45 351.512 402.611 351.47 402.611 351.47Z" fill="#E9FFEF"/>
<path d="M366.124 176.785L323.515 172.795C322.424 172.711 321.628 171.661 321.669 170.485C321.711 169.309 322.634 168.385 323.724 168.427L366.46 169.939C367.592 169.981 368.473 171.031 368.431 172.249L368.305 174.727C368.263 175.945 367.257 176.869 366.124 176.785Z" fill="#148932"/>
<path d="M313.659 150.786L301.036 118.739C300.323 116.975 301.203 114.959 303.007 114.245C304.768 113.531 306.781 114.413 307.494 116.219L320.118 148.266C320.831 150.03 319.95 152.046 318.147 152.76C316.343 153.432 314.33 152.55 313.659 150.786Z" fill="#148932"/>
<path d="M301.12 150.03C299.4 149.148 298.771 147.048 299.61 145.368L315.337 114.749C316.217 113.027 318.314 112.397 319.992 113.237C321.711 114.119 322.341 116.219 321.502 117.899L305.775 148.518C304.894 150.24 302.797 150.912 301.12 150.03Z" fill="#148932"/>
<path d="M395.314 156.75L372.331 109.75C371.493 108.028 372.206 105.97 373.925 105.13C375.645 104.29 377.7 105.004 378.538 106.726L401.521 153.726C402.359 155.448 401.647 157.506 399.927 158.346C398.249 159.186 396.153 158.472 395.314 156.75Z" fill="#148932"/>
<path d="M372.877 155.154C371.157 154.23 370.486 151.962 371.367 150.156L393.51 103.66C394.391 101.854 396.446 101.098 398.166 102.064C399.885 102.988 400.556 105.256 399.675 107.062L377.532 153.558C376.651 155.364 374.554 156.12 372.877 155.154Z" fill="#148932"/>
</g>
<defs>
<clipPath id="clip0_1_8">
<rect width="469" height="397" fill="white"/>
</clipPath>
</defs>
</svg>
