<svg width="559" height="345" viewBox="0 0 559 345" fill="none" xmlns="http://www.w3.org/2000/svg">
<path d="M507.192 262.207C576.32 199.345 566.141 98.0436 518.642 73.1962C471.143 48.3488 418.555 60.2416 401.167 95.2828C383.567 130.324 344.974 142.642 344.974 142.642C344.974 142.642 298.536 165.578 232.801 143.703C166.853 122.042 124.868 131.386 98.3617 163.879C76.9448 190.213 66.5545 242.668 108.328 278.984H485.351C493.408 273.887 500.618 268.153 507.192 262.207Z" fill="#D5E9D8"/>
<path d="M314.015 68.0993C314.015 68.0993 477.929 126.714 404.56 188.939C322.709 258.172 392.473 281.957 438.7 296.823C489.804 313.176 60.6172 285.143 60.6172 285.143L67.8268 139.244L112.357 85.9385L248.492 75.3199L314.015 68.0993Z" fill="#D5E9D8"/>
<path d="M318.256 27.1116C318.256 27.1116 307.654 29.8725 309.774 40.491L312.743 48.1364L368.088 47.0745L357.485 27.5364C354.305 21.8023 348.155 18.6168 341.794 19.4663L326.314 21.3776L318.256 27.1116Z" fill="black"/>
<path d="M331.615 28.3858C329.707 29.4477 327.374 28.8106 326.314 26.8993L319.953 15.2188L326.95 11.3961L333.312 22.8642C334.372 24.7755 333.524 27.324 331.615 28.3858Z" fill="#DFB48F"/>
<path d="M324.194 26.6869C319.528 29.2353 313.591 27.5364 311.047 22.8642L305.109 12.2456L322.073 2.90131L328.01 13.5199C330.555 18.192 328.859 24.1384 324.194 26.6869Z" fill="#E5BE9C"/>
<path d="M325.042 12.8827C325.042 12.8827 321.861 13.0951 321.013 9.48478C320.165 5.87447 315.288 6.72398 315.288 6.72398L319.953 1.83944C319.953 1.83944 327.162 -0.921404 327.374 9.06005L325.042 12.8827Z" fill="#282C3C"/>
<path d="M320.589 7.14872L307.654 14.3693C305.957 15.2188 303.837 15.2188 302.141 13.9446C300.232 12.458 299.384 10.5467 300.868 6.72399C302.989 0.989962 305.109 5.23736 305.109 5.23736C305.109 5.23736 318.68 -6.01829 321.013 4.60027L320.589 7.14872Z" fill="#282C3C"/>
<path d="M326.95 13.9446C328.59 13.9446 329.919 12.6135 329.919 10.9714C329.919 9.32936 328.59 7.9982 326.95 7.9982C325.311 7.9982 323.981 9.32936 323.981 10.9714C323.981 12.6135 325.311 13.9446 326.95 13.9446Z" fill="#E5BE9C"/>
<path d="M315.288 23.7137L322.073 19.891C322.073 19.891 323.345 22.6518 319.529 24.5632C316.56 26.0498 315.288 23.7137 315.288 23.7137Z" fill="white"/>
<path d="M519.49 249.889C520.551 250.739 531.153 233.536 534.546 211.237C534.546 211.237 536.242 200.194 525.428 205.291C525.428 205.291 538.575 157.508 509.524 159.844C504.435 160.268 501.678 161.118 498.71 164.091C494.681 168.126 492.136 174.922 496.165 184.903C504.435 205.079 512.069 213.149 507.616 223.343C503.163 233.749 504.223 236.934 519.49 249.889Z" fill="#249842"/>
<path d="M515.037 281.108C514.401 280.895 514.189 280.471 514.189 279.833C522.459 247.765 515.462 192.761 514.401 190.213C513.977 189.788 514.189 189.151 514.825 188.726C515.249 188.514 515.886 188.514 516.31 189.151C518.218 191.912 524.368 249.252 516.31 280.258C516.31 280.895 515.674 281.108 515.037 281.108Z" fill="#141414"/>
<path d="M2.30371 279.621H556.811" stroke="#93C59A" stroke-width="0.4318" stroke-miterlimit="10" stroke-linecap="round" stroke-linejoin="round"/>
<path d="M120.203 50.8972C123.596 46.6498 125.716 41.3405 125.716 35.3941C125.716 22.0147 114.902 11.1838 101.542 11.1838H84.5786C71.2195 11.1838 60.405 22.0147 60.405 35.3941C60.405 48.7735 71.2195 59.6044 84.5786 59.6044H101.542C105.359 59.6044 108.964 58.755 112.357 57.056L124.444 63.6395L120.203 50.8972Z" fill="#249842"/>
<path d="M105.572 31.7838H103.027C102.815 31.1467 102.603 30.2972 102.179 29.6601L104.087 27.7487C104.511 27.324 104.511 26.4745 104.087 25.8374L101.967 23.7137C101.543 23.289 100.694 23.289 100.058 23.7137L98.1498 25.625C97.5136 25.2003 96.8775 24.9879 96.0293 24.7756V22.2271C96.0293 21.59 95.3931 20.9529 94.757 20.9529H91.5763C90.9401 20.9529 90.304 21.59 90.304 22.2271V24.7756C89.6679 24.9879 88.8197 25.2003 88.1835 25.625L86.2751 23.7137C85.851 23.289 85.0028 23.289 84.3666 23.7137L82.2461 25.8374C81.822 26.2622 81.822 27.1116 82.2461 27.7487L84.1546 29.6601C83.7305 30.2972 83.5184 30.9343 83.3064 31.7838H80.7618C80.1257 31.7838 79.4895 32.4209 79.4895 33.058V36.2436C79.4895 36.8807 80.1257 37.5178 80.7618 37.5178H83.3064C83.5184 38.1549 83.7305 39.0044 84.1546 39.6415L82.2461 41.5529C81.822 41.9776 81.822 42.8271 82.2461 43.4642L84.3666 45.5879C84.7907 46.0127 85.6389 46.0127 86.2751 45.5879L88.1835 43.6766C88.8197 44.1013 89.4558 44.3137 90.304 44.5261V47.0745C90.304 47.7117 90.9401 48.3487 91.5763 48.3487H94.757C95.3931 48.3487 96.0293 47.7117 96.0293 47.0745V44.5261C96.6655 44.3137 97.5136 44.1013 98.1498 43.6766L100.058 45.5879C100.482 46.0127 101.331 46.0127 101.967 45.5879L104.087 43.4642C104.511 43.0395 104.511 42.19 104.087 41.5529L102.179 39.6415C102.603 39.0044 102.815 38.3673 103.027 37.5178H105.572C106.208 37.5178 106.844 36.8807 106.844 36.2436V33.058C107.056 32.4209 106.42 31.7838 105.572 31.7838ZM93.2727 40.2786C90.304 40.2786 87.7594 37.7302 87.7594 34.757C87.7594 31.7838 90.304 29.2353 93.2727 29.2353C96.2414 29.2353 98.7859 31.7838 98.7859 34.757C98.7859 37.7302 96.2414 40.2786 93.2727 40.2786Z" fill="white"/>
<path d="M312.743 236.297H263.124V267.516H312.743V236.297Z" fill="white"/>
<path d="M322.285 267.516H249.34C242.767 267.516 237.466 272.825 237.466 279.409H333.948C334.16 272.825 328.859 267.516 322.285 267.516Z" fill="white"/>
<path d="M413.89 238.421H168.762C158.796 238.421 150.526 230.351 150.526 220.157V59.1797C150.526 49.1982 158.583 40.9158 168.762 40.9158H413.89C423.856 40.9158 432.126 48.9859 432.126 59.1797V220.157C431.914 230.139 423.856 238.421 413.89 238.421Z" fill="#BBD1C1"/>
<path d="M403.5 238.421H158.371C148.405 238.421 140.135 230.351 140.135 220.157V59.1797C140.135 49.1982 148.193 40.9158 158.371 40.9158H403.5C413.466 40.9158 421.736 48.9859 421.736 59.1797V220.157C421.736 230.139 413.466 238.421 403.5 238.421Z" fill="white"/>
<path d="M397.439 60.0292H165.28C162.518 60.0292 160.28 62.2678 160.28 65.0292V208.574C160.28 211.335 162.518 213.574 165.28 213.574H397.439C400.201 213.574 402.439 211.335 402.439 208.574V65.0292C402.439 62.2678 400.201 60.0292 397.439 60.0292Z" fill="#E1EEE4"/>
<path d="M285.177 233.749C280.724 233.749 276.907 230.139 276.907 225.466C276.907 221.007 280.512 217.184 285.177 217.184C289.63 217.184 293.447 220.794 293.447 225.466C293.447 230.139 289.63 233.749 285.177 233.749ZM285.177 218.67C281.36 218.67 278.391 221.644 278.391 225.466C278.391 229.289 281.36 232.262 285.177 232.262C288.994 232.262 291.962 229.289 291.962 225.466C291.962 221.856 288.781 218.67 285.177 218.67Z" fill="#249842"/>
<path opacity="0.23" d="M263.124 238.421L312.743 267.516V238.421H263.124Z" fill="white"/>
<path d="M277.331 113.759H179.577C177.668 113.759 175.972 112.06 175.972 110.149V80.6292C175.972 78.7178 177.668 77.0189 179.577 77.0189H277.331C279.239 77.0189 280.936 78.7178 280.936 80.6292V110.149C280.936 112.273 279.451 113.759 277.331 113.759Z" fill="#249842"/>
<path d="M247.008 132.235H178.728C177.032 132.235 175.76 130.961 175.76 129.262C175.76 127.563 177.032 126.289 178.728 126.289H247.008C248.704 126.289 249.977 127.563 249.977 129.262C249.977 130.961 248.704 132.235 247.008 132.235Z" fill="#249842"/>
<path d="M223.683 145.615H178.728C177.032 145.615 175.76 144.341 175.76 142.642C175.76 140.943 177.032 139.668 178.728 139.668H223.683C225.379 139.668 226.651 140.943 226.651 142.642C226.651 144.128 225.379 145.615 223.683 145.615Z" fill="#249842"/>
<path d="M223.683 159.419H178.728C177.032 159.419 175.76 158.145 175.76 156.446C175.76 154.747 177.032 153.473 178.728 153.473H223.683C225.379 153.473 226.651 154.747 226.651 156.446C226.651 158.145 225.379 159.419 223.683 159.419Z" fill="#249842"/>
<path d="M383.567 195.734H300.02C297.687 195.734 295.779 193.823 295.779 191.487V81.4787C295.779 79.1426 297.687 77.2313 300.02 77.2313H383.779C386.112 77.2313 388.02 79.1426 388.02 81.4787V191.487C388.02 193.823 386.112 195.734 383.567 195.734Z" fill="#E9FFEF"/>
<path d="M194.632 106.963C200.839 106.963 205.87 101.924 205.87 95.7076C205.87 89.4912 200.839 84.4519 194.632 84.4519C188.425 84.4519 183.393 89.4912 183.393 95.7076C183.393 101.924 188.425 106.963 194.632 106.963Z" fill="white"/>
<path d="M266.304 92.0972H218.169C217.745 92.0972 217.533 91.8849 217.533 91.4601C217.533 91.0354 217.745 90.823 218.169 90.823H266.304C266.728 90.823 266.94 91.0354 266.94 91.4601C266.94 91.8849 266.728 92.0972 266.304 92.0972Z" fill="white"/>
<path d="M266.304 100.804H218.169C217.745 100.804 217.533 100.592 217.533 100.167C217.533 99.7426 217.745 99.5302 218.169 99.5302H266.304C266.728 99.5302 266.94 99.7426 266.94 100.167C266.94 100.38 266.728 100.804 266.304 100.804Z" fill="white"/>
<path d="M310.622 159.207H347.095" stroke="#249842" stroke-width="2.2127" stroke-miterlimit="10" stroke-linecap="round" stroke-linejoin="round"/>
<path d="M310.622 173.223H371.268" stroke="#249842" stroke-width="2.2127" stroke-miterlimit="10" stroke-linecap="round" stroke-linejoin="round"/>
<path d="M308.078 98.0436V137.332C308.078 140.306 310.41 142.854 313.591 142.854H368.512C371.48 142.854 374.025 140.518 374.025 137.332V98.0436C374.025 95.0704 371.692 92.522 368.512 92.522H313.591C310.41 92.7343 308.078 95.0704 308.078 98.0436Z" fill="#249842"/>
<path d="M315.288 112.06C315.288 118.856 320.801 124.59 327.798 124.59C334.584 124.59 340.309 119.068 340.309 112.06C340.309 105.264 334.796 99.5302 327.798 99.5302C320.801 99.5302 315.288 105.264 315.288 112.06Z" fill="#141414"/>
<path d="M308.078 133.51V137.545C308.078 140.518 310.41 143.066 313.591 143.066H368.512C371.48 143.066 374.025 140.73 374.025 137.545V133.51L354.517 113.971L341.157 127.351L327.798 113.971L308.078 133.51Z" fill="white"/>
<path d="M66.3424 166.002L65.4942 166.215C61.4653 167.489 58.2846 170.675 57.8605 174.71L55.3159 211.237C70.3714 216.759 87.5473 207.202 87.5473 207.202L87.1232 174.285C87.1232 170.462 85.2148 166.852 80.9738 166.002H66.3424Z" fill="#249842"/>
<path d="M86.4871 218.246L88.8196 227.59L61.0413 229.077L61.8894 217.396L86.4871 218.246Z" fill="#3D415B"/>
<path d="M75.0364 224.192L86.487 251.8L90.94 293.213L100.058 290.24L98.1497 251.163L88.1834 225.042L75.0364 224.192Z" fill="#141414"/>
<path opacity="0.44" d="M76.7329 228.227L82.6703 227.59L78.8534 233.324L76.7329 228.227Z" fill="#CACACA"/>
<path d="M61.0414 227.165L59.1329 252.862L51.2871 295.337L61.0414 297.248L70.5836 253.924L73.7643 224.405L61.0414 227.165Z" fill="#141414"/>
<path d="M98.7858 293.213L93.4846 293.85L94.3328 301.495L109.6 299.796C109.388 298.522 108.328 297.673 107.268 297.673L99.422 296.823L98.7858 293.213Z" fill="#29323D"/>
<path d="M94.3099 302.727L109.48 301.002L109.336 299.736L94.1664 301.461L94.3099 302.727Z" fill="#C9CDEA"/>
<path d="M58.2848 296.186L52.9836 295.549L51.9233 303.194L67.1908 305.106C67.1908 303.831 66.5547 302.769 65.4944 302.345L58.2848 299.584V296.186Z" fill="#29323D"/>
<path d="M51.7164 304.366L66.8511 306.374L67.0181 305.11L51.8834 303.103L51.7164 304.366Z" fill="#C9CDEA"/>
<path d="M101.663 288.542L89.5686 290.776L90.3379 294.953L102.433 292.719L101.663 288.542Z" fill="#535975"/>
<path d="M50.8289 291.328L50.0129 295.496L62.0818 297.866L62.8977 293.698L50.8289 291.328Z" fill="#535975"/>
<path d="M68.887 169.188H76.7328V152.198H68.887V169.188Z" fill="#DFB48F"/>
<path d="M78.6414 164.303C83.9426 164.303 88.3956 160.056 88.3956 154.747L88.6076 142.854L69.3112 142.642L69.0992 154.534C68.8871 159.844 73.1281 164.091 78.6414 164.303Z" fill="#E5BE9C"/>
<path d="M69.099 151.349H71.8557C72.7038 151.349 73.128 150.712 73.128 149.862C72.7039 147.951 72.4918 144.553 73.7641 144.128C75.6726 143.491 85.4268 146.252 88.8196 143.916C93.4846 140.518 90.3039 134.571 86.0629 134.359C81.822 133.934 82.4581 139.031 77.3689 138.819C72.4918 138.607 64.8581 136.483 68.0388 149.862L69.099 151.349Z" fill="#282C3C"/>
<path d="M88.6076 154.959C88.6076 154.959 87.7595 154.959 86.0631 153.26C84.3667 151.774 80.1257 151.561 77.5811 153.897C74.8245 156.233 72.916 148.8 72.916 148.8L71.4317 151.136C71.4317 151.136 72.0678 154.747 68.675 154.747C68.675 154.747 69.3112 165.578 80.1257 164.516C80.3377 164.516 87.9715 163.242 88.6076 154.959Z" fill="#282C3C"/>
<path d="M65.7063 151.774C65.7063 153.473 66.9786 154.747 68.675 154.747C70.3714 154.747 71.6437 153.473 71.6437 151.774C71.6437 150.075 70.3714 148.8 68.675 148.8C67.1906 148.8 65.7063 150.075 65.7063 151.774Z" fill="#E5BE9C"/>
<path d="M68.887 165.79L75.2484 170.675L76.7328 165.79H68.887Z" fill="#DFB48F"/>
<path d="M75.2484 170.675L68.887 172.798V165.79L75.2484 170.675Z" fill="#141414"/>
<path d="M75.2485 170.675L78.4293 172.161L76.7329 165.79L75.2485 170.675Z" fill="#141414"/>
<path d="M25.8411 187.664V216.972C25.8411 219.732 27.9616 221.856 30.7182 221.856H110.024C112.781 221.856 114.902 219.732 114.902 216.972V187.664C114.902 184.903 112.781 182.78 110.024 182.78H30.7182C27.9616 182.78 25.8411 184.903 25.8411 187.664Z" fill="#E9FFEF"/>
<path d="M25.8411 187.664V190.425H114.902V187.664C114.902 184.903 112.781 182.78 110.024 182.78H30.7182C27.9616 182.78 25.8411 184.903 25.8411 187.664Z" fill="#141414"/>
<path d="M109.6 186.815C109.6 187.452 110.024 187.877 110.66 187.877C111.296 187.877 111.721 187.452 111.721 186.815C111.721 186.178 111.296 185.753 110.66 185.753C110.024 185.753 109.6 186.39 109.6 186.815Z" fill="white"/>
<path d="M105.359 186.815C105.359 187.452 105.783 187.877 106.419 187.877C107.056 187.877 107.48 187.452 107.48 186.815C107.48 186.178 107.056 185.753 106.419 185.753C105.995 185.753 105.359 186.39 105.359 186.815Z" fill="white"/>
<path d="M101.33 186.815C101.33 187.452 101.754 187.877 102.391 187.877C103.027 187.877 103.451 187.452 103.451 186.815C103.451 186.178 103.027 185.753 102.391 185.753C101.754 185.753 101.33 186.39 101.33 186.815Z" fill="white"/>
<path d="M33.687 209.326H79.4895C80.3377 209.326 80.9738 208.689 80.9738 207.84V196.372C80.9738 195.522 80.3377 194.885 79.4895 194.885H33.687C32.8388 194.885 32.2026 195.522 32.2026 196.372V207.84C32.4147 208.689 33.0508 209.326 33.687 209.326Z" fill="#249842"/>
<path d="M33.4748 216.122H95.6051C96.2412 216.122 96.6653 215.697 96.6653 215.06C96.6653 214.423 96.2412 213.998 95.6051 213.998H33.4748C32.8386 213.998 32.4146 214.423 32.4146 215.06C32.4146 215.485 32.8386 216.122 33.4748 216.122Z" fill="#249842"/>
<path d="M59.5567 216.759C57.2241 218.033 56.3759 221.007 57.8603 223.343C59.1326 225.679 62.1012 226.528 64.4338 225.042C66.7663 223.767 67.6145 220.794 66.1302 218.458C64.8579 216.122 61.8892 215.273 59.5567 216.759Z" fill="#E2B176"/>
<path d="M55.9518 215.273L58.4964 219.732C59.1325 220.794 60.6169 221.219 61.8891 220.582C62.9494 219.945 63.3735 218.458 62.7374 217.184L60.1927 212.724C59.5566 211.662 58.0723 211.238 56.8 211.875C55.5277 212.512 55.1036 213.998 55.9518 215.273Z" fill="#E2B176"/>
<path d="M55.5278 218.458L63.5856 214.423L52.347 192.124L66.7664 175.347C68.2507 173.435 68.0386 170.462 66.1302 168.976C64.2218 167.489 61.2531 167.701 59.7687 169.613L43.441 188.726C42.3808 190.213 42.1687 192.124 42.8049 193.611L55.5278 218.458Z" fill="#249842"/>
<path d="M124.868 162.817L124.232 160.693L123.596 162.817C122.959 164.516 121.475 166.002 119.567 166.852C121.475 167.701 122.959 169.188 123.596 170.887L124.232 173.011L124.868 170.887C125.504 169.188 126.988 167.701 128.897 166.852C126.776 166.002 125.504 164.516 124.868 162.817Z" fill="white"/>
<path d="M495.953 103.565L494.681 100.167L493.408 103.565C492.348 106.538 490.016 108.875 486.835 110.361C490.016 111.848 492.56 114.184 493.408 117.157L494.681 120.555L495.953 117.157C497.013 114.184 499.346 111.848 502.527 110.361C499.346 108.875 497.013 106.326 495.953 103.565Z" fill="white"/>
<path d="M271.606 188.514L268.637 182.355C268.213 181.506 267.365 181.081 266.516 181.081L256.762 182.143C255.278 182.355 253.793 181.506 253.369 180.019L251.885 176.409C251.249 174.922 251.885 173.011 253.369 172.374C254.43 171.736 255.49 171.312 255.49 171.099L256.126 172.161C255.914 172.161 254.854 172.798 254.006 173.435C253.157 173.86 252.733 175.134 253.157 175.984L254.642 179.594C255.066 180.444 255.914 181.081 256.762 180.868L266.516 179.807C268.001 179.594 269.273 180.444 269.909 181.718L272.878 187.877L271.606 188.514Z" fill="#C9CDEA"/>
<path d="M271.818 161.33L254.642 168.339C253.581 168.763 253.157 170.037 253.581 171.099L254.854 174.073C255.278 175.134 256.338 175.559 257.398 175.134L274.786 168.551C275.847 168.126 276.483 166.852 275.847 165.79L274.362 162.392C273.938 161.543 272.666 161.118 271.818 161.33Z" fill="#249842"/>
<path d="M270.757 185.328C269.909 185.753 269.485 186.815 269.697 187.664L273.302 198.283C273.938 199.982 275.847 200.831 277.543 199.982C279.027 199.132 279.451 197.433 278.603 195.947L273.09 186.178C272.878 185.328 271.818 184.904 270.757 185.328Z" fill="#333333"/>
<path d="M213.928 262.419L197.601 244.155C196.328 242.456 196.116 240.12 197.176 238.421L212.02 216.972L220.926 222.281L207.991 240.757L222.198 256.26L213.928 262.419Z" fill="#141414"/>
<path d="M271.393 197.221C273.302 198.92 276.271 198.708 278.179 196.796C279.875 194.885 279.663 191.912 277.755 190C275.846 188.301 272.878 188.514 270.969 190.425C269.273 192.549 269.485 195.522 271.393 197.221Z" fill="#E5BE9C"/>
<path d="M271.181 201.256L274.362 197.433C275.21 196.372 274.998 194.885 274.15 194.035C273.09 193.186 271.606 193.398 270.757 194.248L267.577 198.071C266.728 199.132 266.94 200.619 267.789 201.468C268.849 202.318 270.333 202.106 271.181 201.256Z" fill="#E5BE9C"/>
<path d="M221.35 215.06L229.62 214.848L229.196 199.132H220.926L221.35 215.06Z" fill="#DFB48F"/>
<path d="M227.499 208.901C232.588 208.901 236.617 204.654 236.617 199.557L236.405 188.089L217.957 188.301L218.169 199.769C218.169 204.866 222.41 208.901 227.499 208.901Z" fill="#E5BE9C"/>
<path d="M230.892 194.248V202.743C230.892 206.141 228.347 208.901 225.167 208.901H223.47C217.957 208.901 213.292 204.229 213.292 198.495V190.85L230.468 190.638L230.892 194.248Z" fill="#282C3C"/>
<path d="M230.044 193.186C230.044 193.186 234.497 193.398 237.042 192.761C240.434 192.124 241.707 185.328 238.95 183.205C238.738 183.205 238.738 182.992 238.526 182.992C235.345 180.656 231.104 185.541 231.316 185.753C231.316 186.178 230.044 193.186 230.044 193.186Z" fill="#282C3C"/>
<path d="M234.497 187.452C234.497 187.452 227.075 181.081 218.805 185.116C218.805 185.116 216.048 185.753 213.504 190.85L229.62 194.673L234.497 187.452Z" fill="#282C3C"/>
<path d="M228.135 198.708C228.135 200.194 229.408 201.468 230.892 201.468C232.376 201.468 233.649 200.194 233.649 198.708C233.649 197.221 232.376 195.947 230.892 195.947C229.408 195.947 228.135 197.221 228.135 198.708Z" fill="#E5BE9C"/>
<path d="M235.345 199.769H236.617C237.253 199.769 237.89 199.132 237.89 198.495C237.89 197.858 237.253 197.221 236.617 197.221H235.345V199.769Z" fill="#E5BE9C"/>
<path d="M231.528 213.998H218.381C211.808 213.998 209.475 219.52 210.747 225.254L213.292 239.483L214.564 252.862H238.314L240.858 223.555C240.646 218.246 238.738 213.998 231.528 213.998Z" fill="#141414"/>
<path d="M238.102 252.862L246.796 296.823L247.008 334.2L240.858 334.413L235.345 298.097L223.894 266.666L224.53 298.734L215.2 334.2H208.839L213.716 298.734L209.899 271.339C209.899 271.339 208.839 259.233 214.352 252.65H238.102V252.862Z" fill="#249842"/>
<path d="M217.435 270.838H228.674V262.344H217.435V270.838Z" fill="#249842"/>
<path d="M246.796 334.2L247.008 339.51H241.494L240.646 334.413L246.796 334.2Z" fill="#E5BE9C"/>
<path d="M214.988 334.413L213.928 339.935L207.991 339.722L208.839 334.413H214.988Z" fill="#E5BE9C"/>
<path opacity="0.44" d="M223.47 270.701H217.321C217.321 270.701 222.834 276.86 223.894 283.019L223.47 270.701Z" fill="#C8C8C8"/>
<path d="M246.796 339.51H250.401C252.521 339.51 254.854 340.147 255.49 342.695L255.702 344.394H240.858C240.858 344.394 239.798 341.633 241.282 339.51H246.796Z" fill="#29323D"/>
<path d="M213.292 339.51H216.897C219.017 339.51 221.35 340.147 221.986 342.695L222.198 344.394H207.355C207.355 344.394 206.294 341.633 207.779 339.51H213.292Z" fill="#29323D"/>
<path d="M231.528 224.405L230.68 213.998L252.733 212.087L266.516 195.947L274.362 202.743L259.307 220.582C258.458 221.644 257.186 222.281 255.702 222.493L231.528 224.405Z" fill="#141414"/>
<path opacity="0.44" d="M240.434 223.767L234.497 224.192L239.374 236.934L240.434 223.767Z" fill="#C8C8C8"/>
<path d="M217.533 189.363C217.533 191.487 215.837 193.186 213.716 193.186C211.596 193.186 209.899 191.487 209.899 189.363C209.899 187.24 211.596 185.541 213.716 185.541C215.837 185.541 217.533 187.24 217.533 189.363Z" fill="#DF7383"/>
<path d="M214.988 187.877C214.988 187.877 206.719 182.567 203.538 193.611C200.569 204.017 208.839 216.547 210.535 225.891C210.747 226.953 211.596 227.802 212.868 227.802H221.774C223.046 227.802 224.107 226.741 224.107 225.254C223.894 220.794 221.562 212.299 214.776 201.893C214.776 201.893 207.567 192.124 214.988 190.85C214.988 190.85 216.473 188.938 214.988 187.877Z" fill="#2E3343"/>
<path d="M501.042 313.813C500.194 313.813 499.558 313.388 499.346 312.539L444.849 91.8848C444.637 91.0354 445.273 90.1859 446.122 90.1859C446.97 89.9735 448.03 90.6106 448.242 91.2477L502.739 311.901C502.951 312.751 502.314 313.6 501.466 313.6C501.254 313.813 501.042 313.813 501.042 313.813Z" fill="#333333"/>
<path d="M460.965 313.813C460.117 313.813 459.481 313.388 459.268 312.539L404.56 91.8848C404.348 91.0354 404.984 90.1859 405.832 90.1859C406.68 89.9735 407.741 90.6106 407.953 91.2477L462.661 311.901C462.873 312.751 462.237 313.6 461.389 313.6C461.177 313.813 461.177 313.813 460.965 313.813Z" fill="#333333"/>
<path d="M449.302 104.84H409.225C408.377 104.84 407.529 104.202 407.529 103.353C407.529 102.503 408.377 101.866 409.225 101.866H449.302C450.15 101.866 450.999 102.503 450.999 103.353C450.999 104.202 450.362 104.84 449.302 104.84Z" fill="#333333"/>
<path d="M453.755 122.466H413.678C412.83 122.466 411.982 121.829 411.982 120.98C411.982 120.13 412.83 119.493 413.678 119.493H453.755C454.604 119.493 455.452 120.13 455.452 120.98C455.452 121.829 454.604 122.466 453.755 122.466Z" fill="#333333"/>
<path d="M458.208 140.093H418.131C417.283 140.093 416.435 139.456 416.435 138.607C416.435 137.757 417.283 137.12 418.131 137.12H458.208C459.056 137.12 459.905 137.757 459.905 138.607C459.905 139.456 459.056 140.093 458.208 140.093Z" fill="#333333"/>
<path d="M462.449 157.932H422.372C421.524 157.932 420.676 157.295 420.676 156.446C420.676 155.596 421.524 154.959 422.372 154.959H462.449C463.297 154.959 464.146 155.596 464.146 156.446C464.146 157.083 463.509 157.932 462.449 157.932Z" fill="#333333"/>
<path d="M466.902 175.559H426.825C425.977 175.559 425.129 174.922 425.129 174.073C425.129 173.223 425.977 172.586 426.825 172.586H466.902C467.75 172.586 468.599 173.223 468.599 174.073C468.599 174.922 467.75 175.559 466.902 175.559Z" fill="#333333"/>
<path d="M471.143 193.186H431.066C430.218 193.186 429.37 192.549 429.37 191.699C429.37 190.85 430.218 190.213 431.066 190.213H471.143C471.991 190.213 472.84 190.85 472.84 191.699C472.84 192.549 472.203 193.186 471.143 193.186Z" fill="#333333"/>
<path d="M475.596 210.813H435.519C434.671 210.813 433.823 210.176 433.823 209.326C433.823 208.477 434.671 207.84 435.519 207.84H475.596C476.445 207.84 477.293 208.477 477.293 209.326C477.293 210.176 476.657 210.813 475.596 210.813Z" fill="#333333"/>
<path d="M480.049 228.44H439.972C439.124 228.44 438.276 227.802 438.276 226.953C438.276 226.103 439.124 225.466 439.972 225.466H480.049C480.897 225.466 481.746 226.103 481.746 226.953C481.746 227.802 480.897 228.44 480.049 228.44Z" fill="#333333"/>
<path d="M484.29 246.066H444.213C443.365 246.066 442.517 245.429 442.517 244.58C442.517 243.73 443.365 243.093 444.213 243.093H484.29C485.138 243.093 485.987 243.73 485.987 244.58C485.987 245.429 485.35 246.066 484.29 246.066Z" fill="#333333"/>
<path d="M488.743 263.693H448.666C447.818 263.693 446.97 263.056 446.97 262.207C446.97 261.357 447.818 260.72 448.666 260.72H488.743C489.592 260.72 490.44 261.357 490.44 262.207C490.44 263.056 489.592 263.693 488.743 263.693Z" fill="#333333"/>
<path d="M493.196 281.32H453.119C452.271 281.32 451.423 280.683 451.423 279.833C451.423 278.984 452.271 278.347 453.119 278.347H493.196C494.044 278.347 494.893 278.984 494.893 279.833C494.893 280.683 494.044 281.32 493.196 281.32Z" fill="#333333"/>
<path d="M437.004 215.697L443.789 214.423L446.758 225.466L427.461 226.741L427.249 225.254C427.037 223.767 427.885 222.281 429.37 221.644L438.488 219.945L437.004 215.697Z" fill="#29323D"/>
<path d="M463.297 123.103H455.24L455.028 105.477H463.085L463.297 123.103Z" fill="#DFB48F"/>
<path d="M453.331 118.007C447.818 118.007 443.365 113.547 443.365 108.025L443.153 95.7075L463.086 95.4952L463.298 107.813C463.086 113.547 458.845 118.007 453.331 118.007Z" fill="#E5BE9C"/>
<path d="M462.873 104.627H460.117C459.269 104.627 458.845 103.99 458.845 103.141C459.269 101.017 459.481 97.6189 458.208 97.1941C456.3 96.557 446.122 99.5302 442.729 96.9818C437.852 93.3715 441.245 87.4251 445.486 87.0003C449.939 86.5756 449.302 91.6725 454.392 91.6725C459.481 91.4601 467.327 89.3364 464.146 102.928L462.873 104.627Z" fill="#282C3C"/>
<path d="M466.478 105.264C466.478 106.963 465.206 108.45 463.298 108.45C461.601 108.45 460.117 107.176 460.117 105.264C460.117 103.565 461.389 102.079 463.298 102.079C464.994 102.079 466.478 103.565 466.478 105.264Z" fill="#E5BE9C"/>
<path d="M476.869 235.023L483.654 234.174L487.047 245.854L467.751 246.279L467.539 244.792C467.539 243.306 468.387 241.819 469.871 241.394L478.565 240.12L476.869 235.023Z" fill="#29323D"/>
<path d="M446.97 162.817L427.673 168.763C424.281 169.4 422.16 172.798 423.008 176.196L435.095 217.184L446.758 215.91L436.367 178.32L464.994 172.161C469.235 171.736 472.416 168.339 472.416 164.091V162.817H446.97Z" fill="#141414"/>
<path d="M467.751 167.701L472.204 196.372L485.139 236.51L475.172 237.147L460.753 197.433L452.271 167.701H467.751Z" fill="#141414"/>
<path d="M454.603 121.404C449.09 121.404 444.637 126.501 444.637 132.66L446.97 162.817L474.748 164.091L472.416 131.811C472.416 126.077 468.387 121.404 463.085 121.404H454.603Z" fill="#249842"/>
<path d="M445.698 110.361H452.907C452.907 110.361 452.695 113.334 448.666 113.122C445.697 112.91 445.698 110.361 445.698 110.361Z" fill="white"/>
<path d="M395.018 135.421C392.685 137.545 389.08 137.545 386.748 135.209C384.627 132.873 384.627 129.262 386.96 126.926C389.293 124.802 392.897 124.802 395.23 127.138C397.562 129.475 397.35 133.085 395.018 135.421Z" fill="#E5BE9C"/>
<path d="M456.724 129.899L429.794 141.792L392.049 131.174" stroke="#E5BE9C" stroke-width="4.0246" stroke-miterlimit="10" stroke-linejoin="round"/>
<path d="M439.548 129.05L446.122 142.854L457.996 136.27C461.177 134.572 462.237 130.324 460.329 127.351C458.845 124.802 455.452 123.528 452.695 124.59L439.548 129.05Z" fill="#249842"/>
<path d="M444.637 108.025C442.517 108.025 440.82 106.326 440.82 104.202C440.82 102.079 442.517 100.38 444.637 100.38C446.758 100.38 448.454 102.079 448.454 104.202C448.454 106.326 446.546 108.025 444.637 108.025ZM444.637 101.442C443.153 101.442 441.881 102.716 441.881 104.202C441.881 105.689 443.153 106.963 444.637 106.963C446.122 106.963 447.394 105.689 447.394 104.202C447.394 102.716 446.122 101.442 444.637 101.442Z" fill="#282C3C"/>
<path d="M452.695 108.025C450.575 108.025 448.878 106.326 448.878 104.202C448.878 102.079 450.575 100.38 452.695 100.38C454.816 100.38 456.512 102.079 456.512 104.202C456.512 106.326 454.603 108.025 452.695 108.025ZM452.695 101.442C451.211 101.442 449.938 102.716 449.938 104.202C449.938 105.689 451.211 106.963 452.695 106.963C454.179 106.963 455.452 105.689 455.452 104.202C455.452 102.716 454.179 101.442 452.695 101.442Z" fill="#282C3C"/>
<path d="M449.514 102.503H447.606V103.565H449.514V102.503Z" fill="#282C3C"/>
<path d="M458.632 103.353H455.452V104.415H458.632V103.353Z" fill="#282C3C"/>
<path d="M303.625 41.1281C303.625 41.1281 302.353 36.8807 295.355 37.0931C288.357 37.5178 286.025 41.9776 288.357 44.7384C290.69 47.4993 296.627 45.5879 300.444 40.9158L303.625 41.1281Z" fill="#E5BE9C"/>
<path d="M352.184 41.1281C352.184 41.1281 350.912 36.8807 343.914 37.0931C336.916 37.5178 334.584 41.9776 336.916 44.7384C339.249 47.4993 345.186 45.5879 349.003 40.9158L352.184 41.1281Z" fill="#E5BE9C"/>
</svg>
