<svg width="32" height="32" viewBox="0 0 32 32" fill="none" xmlns="http://www.w3.org/2000/svg">
<path d="M18.3575 8.84197C19.5421 9.07265 20.6308 9.65089 21.4842 10.5027C22.3376 11.3545 22.917 12.4411 23.1481 13.6234M18.3575 4C20.8186 4.27289 23.1137 5.37291 24.8657 7.11945C26.6178 8.86599 27.7228 11.1552 27.9993 13.6113M26.7865 23.271V26.9025C26.7879 27.2396 26.7187 27.5733 26.5834 27.8822C26.4481 28.1911 26.2496 28.4684 26.0007 28.6963C25.7518 28.9242 25.458 29.0977 25.138 29.2057C24.8181 29.3137 24.479 29.3539 24.1426 29.3235C20.4106 28.9188 16.8257 27.6459 13.6761 25.6073C10.7457 23.7488 8.26126 21.2691 6.39919 18.3443C4.34951 15.1864 3.07396 11.591 2.67586 7.84937C2.64555 7.51463 2.68541 7.17725 2.7929 6.85873C2.90038 6.54021 3.07314 6.24751 3.30017 5.99928C3.52721 5.75104 3.80354 5.55271 4.11157 5.41691C4.41961 5.28111 4.7526 5.21081 5.08935 5.21049H8.72779C9.31637 5.20471 9.88698 5.41274 10.3333 5.79581C10.7795 6.17887 11.071 6.71083 11.1534 7.29254C11.307 8.45469 11.5918 9.59578 12.0024 10.694C12.1656 11.1273 12.2009 11.5982 12.1041 12.0508C12.0074 12.5035 11.7827 12.919 11.4566 13.2482L9.91634 14.7855C11.6428 17.816 14.1569 20.3252 17.1932 22.0484L18.7335 20.5111C19.0632 20.1857 19.4795 19.9614 19.9331 19.8648C20.3866 19.7683 20.8584 19.8035 21.2925 19.9664C22.3929 20.3762 23.5361 20.6605 24.7005 20.8137C25.2896 20.8967 25.8277 21.1929 26.2123 21.646C26.5969 22.099 26.8013 22.6774 26.7865 23.271Z" stroke="black" stroke-width="2" stroke-linecap="round" stroke-linejoin="round"/>
</svg>
