<svg width="12" height="12" viewBox="0 0 12 12" fill="none" xmlns="http://www.w3.org/2000/svg">
<circle cx="6" cy="6" r="5.5" stroke="#2B74B9"/>
<path d="M5.56 7.12C5.56 6.88533 5.62933 6.66133 5.768 6.448C5.912 6.23467 6.06667 6.064 6.232 5.936C6.39733 5.80267 6.54933 5.648 6.688 5.472C6.832 5.296 6.904 5.12 6.904 4.944C6.904 4.75733 6.84 4.61333 6.712 4.512C6.584 4.41067 6.40533 4.36 6.176 4.36C5.728 4.36 5.41067 4.59733 5.224 5.072L4.28 4.528C4.44 4.13333 4.69333 3.82933 5.04 3.616C5.392 3.39733 5.784 3.288 6.216 3.288C6.70133 3.288 7.12 3.42933 7.472 3.712C7.82933 3.98933 8.008 4.37333 8.008 4.864C8.008 5.088 7.96 5.296 7.864 5.488C7.77333 5.68 7.66133 5.84533 7.528 5.984C7.4 6.11733 7.26933 6.24533 7.136 6.368C7.008 6.48533 6.896 6.608 6.8 6.736C6.70933 6.864 6.664 6.992 6.664 7.12H5.56ZM6.592 8.904C6.45867 9.03733 6.29867 9.104 6.112 9.104C5.92533 9.104 5.76533 9.03733 5.632 8.904C5.49867 8.77067 5.432 8.61067 5.432 8.424C5.432 8.23733 5.49867 8.07733 5.632 7.944C5.76533 7.81067 5.92533 7.744 6.112 7.744C6.29867 7.744 6.45867 7.81067 6.592 7.944C6.72533 8.07733 6.792 8.23733 6.792 8.424C6.792 8.61067 6.72533 8.77067 6.592 8.904Z" fill="#2B74B9"/>
</svg>
