<svg width="24" height="34" viewBox="0 0 24 34" fill="none" xmlns="http://www.w3.org/2000/svg">
<path fill-rule="evenodd" clip-rule="evenodd" d="M11.8841 0.49558C11.8819 0.81375 10.6605 3.40058 9.89978 4.69817C9.46455 5.44052 8.3669 7.17984 7.4605 8.56332C3.03376 15.3202 2.1079 17.0175 1.30253 19.852C1.00751 20.8905 0.971209 21.2319 0.97071 22.981C0.970086 24.6556 1.01138 25.0846 1.25139 25.8995C2.33718 29.5849 5.22081 32.354 9.03629 33.3752C10.5017 33.7673 13.4609 33.7633 14.9414 33.3671C17.4263 32.7023 19.8024 31.0793 21.2758 29.0407C22.8847 26.8142 23.4846 23.5897 22.8552 20.5514C22.24 17.5825 21.0078 15.1665 17.0849 9.23819C13.9426 4.48933 12.4036 1.81808 12.1818 0.727612C12.106 0.354962 11.8862 0.183668 11.8841 0.49558ZM4.94387 22.8295C5.15869 23.041 5.26197 23.3569 5.37474 24.1486C5.71717 26.5536 7.2533 28.2702 9.60139 28.8717C9.99434 28.9724 10.5311 29.0548 10.7943 29.0548C11.7574 29.0548 12.2367 30.0699 11.5789 30.7168C11.1917 31.0978 10.4473 31.1171 9.11027 30.7806C5.8499 29.9604 3.71787 27.4806 3.33253 24.0604C3.24982 23.3261 3.26017 23.286 3.6268 22.9254C4.08412 22.4755 4.54955 22.4417 4.94387 22.8295Z" fill="white"/>
</svg>
