<svg width="25" height="24" viewBox="0 0 25 24" fill="none" xmlns="http://www.w3.org/2000/svg">
<g clip-path="url(#clip0_21_6592)">
<path d="M8.23854 9.14434C8.54414 12.5238 10.0722 15.9032 12.8226 15.9032C15.573 15.9032 17.4066 11.6021 17.4066 9.45156M8.23854 8.5299C8.23854 6.97598 9.2257 4.48452 10.2257 3.98452C10.2257 3.98452 11.0707 3.90618 11.2147 3.90618L11.7256 2.98462H13.7257L14.2707 3.90618H15.1875C16.0024 4.52065 17.4066 6.37944 17.4066 8.83712M7.01613 8.83712H17.4066M17.4066 8.83712H18.629M2.5 21.0645C2.99231 18.4838 6 15.9032 8.5 15.9999C8.84256 16.3225 11.423 19.2365 12.3461 20.4193C13.3717 20.0967 16.0154 18.7419 17 15.9032C20.3462 15.9999 22.5 17.9999 23.5 21.0645" stroke="black" stroke-width="1.5"/>
</g>
<defs>
<clipPath id="clip0_21_6592">
<rect width="24" height="24" fill="white" transform="translate(0.5)"/>
</clipPath>
</defs>
</svg>
