<svg width="14" height="12" viewBox="0 0 14 12" fill="none" xmlns="http://www.w3.org/2000/svg">
<path d="M13.0003 11.75C12.9244 11.75 12.8494 11.7327 12.7811 11.6994C12.7128 11.6661 12.6531 11.6177 12.6063 11.5578C11.8919 10.6431 11.2291 9.93719 10.315 9.46406C9.46909 9.0275 8.40659 8.79969 7.00034 8.75719V11.25C7.00005 11.3476 6.97119 11.443 6.91734 11.5244C6.86349 11.6058 6.78699 11.6696 6.69729 11.7081C6.60758 11.7465 6.50858 11.7578 6.41251 11.7407C6.31643 11.7235 6.22747 11.6787 6.15659 11.6116L0.656595 6.36156C0.607719 6.31488 0.568816 6.25876 0.542236 6.19662C0.515657 6.13448 0.501953 6.06759 0.501953 6C0.501953 5.93241 0.515657 5.86552 0.542236 5.80338C0.568816 5.74123 0.607719 5.68512 0.656595 5.63844L6.15659 0.388436C6.22747 0.321338 6.31643 0.276449 6.41251 0.259303C6.50858 0.242157 6.60758 0.253504 6.69729 0.291945C6.78699 0.330386 6.86349 0.39424 6.91734 0.475634C6.97119 0.557028 7.00005 0.652403 7.00034 0.749999V3.26125C9.31722 3.36781 11.0435 4.22719 12.1363 5.81969C13.0416 7.13875 13.5003 8.96562 13.5003 11.25C13.5003 11.3826 13.4477 11.5098 13.3539 11.6036C13.2601 11.6973 13.133 11.75 13.0003 11.75Z" fill="#99A2AD"/>
</svg>
