<svg width="32" height="36" viewBox="0 0 32 36" fill="none" xmlns="http://www.w3.org/2000/svg">
<rect x="0.876725" y="5.89577" width="18.4642" height="29.5632" rx="1.5" transform="rotate(-1.73499 0.876725 5.89577)" stroke="#7237EC"/>
<path d="M21.9103 31.9721L28.323 32.1352C29.425 32.1633 30.3419 31.2943 30.373 30.1923L31.1224 3.63407C31.1536 2.52994 30.2837 1.60961 29.1796 1.57846L14.0353 1.15114C12.9312 1.11998 12.0109 1.9898 11.9797 3.09393L11.9687 3.48593" stroke="#7237EC" stroke-linecap="round"/>
<path d="M10.5592 22.5252L13.0896 19.9949C13.7112 19.3701 13.8018 18.3486 13.2145 17.6957C13.0672 17.5312 12.8879 17.3984 12.6876 17.3055C12.4873 17.2126 12.2701 17.1616 12.0494 17.1554C11.8286 17.1493 11.609 17.1882 11.4038 17.2698C11.1986 17.3515 11.0122 17.4741 10.856 17.6301L10.3812 18.1081L9.97195 17.6957C9.34718 17.0741 8.32568 16.9835 7.67279 17.5708C7.50826 17.7181 7.37549 17.8974 7.28259 18.0977C7.18969 18.298 7.1386 18.5152 7.13246 18.7359C7.12632 18.9567 7.16526 19.1763 7.24688 19.3815C7.3285 19.5867 7.4511 19.7731 7.60719 19.9293L10.2031 22.5252C10.2505 22.5721 10.3145 22.5985 10.3812 22.5985C10.4479 22.5985 10.5119 22.5721 10.5592 22.5252Z" stroke="#7237EC" stroke-linecap="round" stroke-linejoin="round"/>
<path d="M21.3711 14.0452C21.5763 13.9636 21.796 13.9247 22.0167 13.9308C22.2374 13.9369 22.4546 13.988 22.6549 14.0809C22.8553 14.1738 23.0345 14.3066 23.1818 14.4711C23.7691 15.124 23.6785 16.1455 23.0569 16.7703L21.3711 18.4561" stroke="#7237EC" stroke-linecap="round" stroke-linejoin="round"/>
</svg>
