<svg width="36" height="35" viewBox="0 0 36 35" fill="none" xmlns="http://www.w3.org/2000/svg">
<path d="M24.5806 16.4084C24.0488 18.8073 22.6952 20.9448 20.754 22.4512C18.8128 23.9576 16.4061 24.7381 13.9503 24.6577" stroke="#7237EC" stroke-linecap="round"/>
<circle cx="24.8301" cy="14.0281" r="0.5" fill="#7237EC"/>
<path fill-rule="evenodd" clip-rule="evenodd" d="M27.2949 14.1282C27.2949 21.3079 21.4746 27.1282 14.2949 27.1282C7.11522 27.1282 1.29492 21.3079 1.29492 14.1282C1.29492 6.94847 7.11522 1.12817 14.2949 1.12817C21.4746 1.12817 27.2949 6.94847 27.2949 14.1282ZM23.9726 24.2446C21.4586 26.6503 18.0493 28.1282 14.2949 28.1282C6.56294 28.1282 0.294922 21.8602 0.294922 14.1282C0.294922 6.39619 6.56294 0.128174 14.2949 0.128174C22.0269 0.128174 28.2949 6.39619 28.2949 14.1282C28.2949 17.746 26.9226 21.0433 24.6702 23.528L27.0888 25.9466C28.1833 25.1856 29.6985 25.293 30.6743 26.2688L34.5398 30.1343C35.6362 31.2307 35.6362 33.0083 34.5398 34.1048C33.4434 35.2012 31.6657 35.2012 30.5693 34.1048L26.7038 30.2393C25.728 29.2635 25.6206 27.7482 26.3817 26.6537L23.9726 24.2446ZM27.4109 29.5321L31.2764 33.3977C31.9823 34.1036 33.1268 34.1036 33.8327 33.3977C34.5386 32.6918 34.5386 31.5473 33.8327 30.8414L29.9672 26.9759C29.2613 26.27 28.1168 26.27 27.4109 26.9759C26.705 27.6818 26.705 28.8263 27.4109 29.5321Z" fill="#7237EC"/>
</svg>
