<svg width="47" height="35" viewBox="0 0 47 35" fill="none" xmlns="http://www.w3.org/2000/svg">
<path fill-rule="evenodd" clip-rule="evenodd" d="M0.178711 5.55518C0.178711 2.51761 2.64115 0.0551758 5.67871 0.0551758H27.7888C30.8264 0.0551758 33.2888 2.51761 33.2888 5.55518V17.1862C33.2888 20.2238 30.8264 22.6862 27.7888 22.6862H24.5924L17.2722 30.2572C16.7764 30.77 15.9209 30.2994 16.0886 29.606L17.7622 22.6862H5.67871C2.64115 22.6862 0.178711 20.2238 0.178711 17.1862V5.55518ZM24.3751 21.6862C24.2116 21.6862 24.0664 21.7647 23.9752 21.886L17.3198 28.7693L18.8766 22.3323C18.884 22.3017 18.8884 22.2712 18.89 22.2408C18.892 22.2229 18.893 22.2047 18.893 22.1862C18.893 21.9101 18.6691 21.6862 18.393 21.6862H5.67871C3.19343 21.6862 1.17871 19.6715 1.17871 17.1862V5.55518C1.17871 3.06989 3.19343 1.05518 5.67871 1.05518H27.7888C30.2741 1.05518 32.2888 3.06989 32.2888 5.55518V17.1862C32.2888 19.6715 30.2741 21.6862 27.7888 21.6862H24.3751ZM11.6938 11.9062C11.6938 12.6725 11.0727 13.2936 10.3064 13.2936C9.54013 13.2936 8.91895 12.6725 8.91895 11.9062C8.91895 11.1399 9.54013 10.5187 10.3064 10.5187C11.0727 10.5187 11.6938 11.1399 11.6938 11.9062ZM12.6938 11.9062C12.6938 13.2247 11.6249 14.2936 10.3064 14.2936C8.98784 14.2936 7.91895 13.2247 7.91895 11.9062C7.91895 10.5876 8.98784 9.51874 10.3064 9.51874C11.6249 9.51874 12.6938 10.5876 12.6938 11.9062ZM16.7336 13.2936C17.4999 13.2936 18.1211 12.6725 18.1211 11.9062C18.1211 11.1399 17.4999 10.5187 16.7336 10.5187C15.9674 10.5187 15.3462 11.1399 15.3462 11.9062C15.3462 12.6725 15.9674 13.2936 16.7336 13.2936ZM16.7336 14.2936C18.0522 14.2936 19.1211 13.2247 19.1211 11.9062C19.1211 10.5876 18.0522 9.51874 16.7336 9.51874C15.4151 9.51874 14.3462 10.5876 14.3462 11.9062C14.3462 13.2247 15.4151 14.2936 16.7336 14.2936ZM24.5483 11.9062C24.5483 12.6725 23.9272 13.2936 23.1609 13.2936C22.3946 13.2936 21.7734 12.6725 21.7734 11.9062C21.7734 11.1399 22.3946 10.5187 23.1609 10.5187C23.9272 10.5187 24.5483 11.1399 24.5483 11.9062ZM25.5483 11.9062C25.5483 13.2247 24.4794 14.2936 23.1609 14.2936C21.8423 14.2936 20.7734 13.2247 20.7734 11.9062C20.7734 10.5876 21.8423 9.51874 23.1609 9.51874C24.4794 9.51874 25.5483 10.5876 25.5483 11.9062Z" fill="#717070"/>
<path fill-rule="evenodd" clip-rule="evenodd" d="M45.0205 10.0569C45.0205 7.5716 43.0058 5.55688 40.5205 5.55688H35.1745C34.8983 5.55688 34.6745 5.33303 34.6745 5.05688C34.6745 4.78074 34.8983 4.55688 35.1745 4.55688H40.5205C43.5581 4.55688 46.0205 7.01932 46.0205 10.0569V21.6879C46.0205 24.7255 43.5581 27.1879 40.5205 27.1879H28.437L30.1165 34.1322C30.2827 34.8191 29.442 35.2914 28.9417 34.7923L21.8054 27.6712C21.6099 27.4762 21.6096 27.1596 21.8046 26.9641C21.9997 26.7687 22.3162 26.7683 22.5117 26.9634L28.8942 33.3322L27.3226 26.834C27.3152 26.8035 27.3108 26.7729 27.3092 26.7426C27.3073 26.7246 27.3063 26.7064 27.3063 26.6879C27.3063 26.4118 27.5301 26.1879 27.8063 26.1879H40.5205C43.0058 26.1879 45.0205 24.1732 45.0205 21.6879V10.0569Z" fill="#717070"/>
<path d="M34.9716 17.8274C35.2565 17.9866 35.5778 18.0693 35.9042 18.0672C36.2306 18.0652 36.5508 17.9786 36.8337 17.8159C37.1166 17.6532 37.3525 17.4198 37.5183 17.1387C37.6841 16.8576 37.7742 16.5383 37.7798 16.212C37.7853 15.8857 37.7062 15.5635 37.55 15.2769C37.3939 14.9903 37.1661 14.7491 36.8889 14.5768C36.6117 14.4045 36.2946 14.307 35.9685 14.2939C35.6424 14.2808 35.3185 14.3524 35.0283 14.5019" stroke="#717070" stroke-linecap="round"/>
</svg>
