<svg width="33" height="35" viewBox="0 0 33 35" fill="none" xmlns="http://www.w3.org/2000/svg">
<path fill-rule="evenodd" clip-rule="evenodd" d="M24.7551 10.132V14.6472C24.7551 19.1965 21.0672 22.8844 16.5179 22.8844C11.9687 22.8844 8.28076 19.1965 8.28076 14.6472V10.132C8.28076 5.58269 11.9687 1.89478 16.5179 1.89478C21.0672 1.89478 24.7551 5.58269 24.7551 10.132ZM7.28076 10.132C7.28076 5.0304 11.4164 0.894775 16.5179 0.894775C21.6195 0.894775 25.7551 5.0304 25.7551 10.132V14.6472C25.7551 19.7488 21.6195 23.8844 16.5179 23.8844C11.4164 23.8844 7.28076 19.7488 7.28076 14.6472V10.132ZM25.1377 21.9695C24.8725 21.8927 24.5952 22.0454 24.5184 22.3107C24.4416 22.5759 24.5943 22.8532 24.8596 22.93L30.6254 24.5995C31.2668 24.7852 31.7083 25.3726 31.7083 26.0403V31.6604C31.7083 32.4888 31.0367 33.1604 30.2083 33.1604H2.52344C1.69501 33.1604 1.02344 32.4888 1.02344 31.6604V26.0482C1.02344 25.3776 1.46847 24.7885 2.11348 24.6053L8.00736 22.9307C8.27299 22.8552 8.42714 22.5787 8.35167 22.3131C8.2762 22.0475 7.99968 21.8933 7.73405 21.9688L1.84018 23.6433C0.765158 23.9488 0.0234375 24.9306 0.0234375 26.0482V31.6604C0.0234375 33.0411 1.14273 34.1604 2.52344 34.1604H30.2083C31.589 34.1604 32.7083 33.0411 32.7083 31.6604V26.0403C32.7083 24.9274 31.9726 23.9485 30.9036 23.6389L25.1377 21.9695Z" fill="#7237EC"/>
</svg>
