<svg width="47" height="35" viewBox="0 0 47 35" fill="none" xmlns="http://www.w3.org/2000/svg">
<path fill-rule="evenodd" clip-rule="evenodd" d="M0.179688 5.55518C0.179688 2.51761 2.64212 0.0551758 5.67969 0.0551758H27.7898C30.8274 0.0551758 33.2898 2.51761 33.2898 5.55518V17.1862C33.2898 20.2238 30.8274 22.6862 27.7898 22.6862H24.5934L17.2732 30.2572C16.7774 30.77 15.9219 30.2994 16.0896 29.606L17.7632 22.6862H5.67969C2.64212 22.6862 0.179688 20.2238 0.179688 17.1862V5.55518ZM24.376 21.6862C24.2126 21.6862 24.0674 21.7647 23.9762 21.886L17.3208 28.7693L18.8776 22.3323C18.885 22.3017 18.8894 22.2712 18.891 22.2408C18.8929 22.2229 18.8939 22.2047 18.8939 22.1862C18.8939 21.9101 18.6701 21.6862 18.3939 21.6862H5.67969C3.19441 21.6862 1.17969 19.6715 1.17969 17.1862V5.55518C1.17969 3.06989 3.19441 1.05518 5.67969 1.05518H27.7898C30.2751 1.05518 32.2898 3.06989 32.2898 5.55518V17.1862C32.2898 19.6715 30.2751 21.6862 27.7898 21.6862H24.376ZM11.6948 11.9062C11.6948 12.6725 11.0736 13.2936 10.3074 13.2936C9.54111 13.2936 8.91992 12.6725 8.91992 11.9062C8.91992 11.1399 9.54111 10.5187 10.3074 10.5187C11.0736 10.5187 11.6948 11.1399 11.6948 11.9062ZM12.6948 11.9062C12.6948 13.2247 11.6259 14.2936 10.3074 14.2936C8.98882 14.2936 7.91992 13.2247 7.91992 11.9062C7.91992 10.5876 8.98882 9.51874 10.3074 9.51874C11.6259 9.51874 12.6948 10.5876 12.6948 11.9062ZM16.7346 13.2936C17.5009 13.2936 18.1221 12.6725 18.1221 11.9062C18.1221 11.1399 17.5009 10.5187 16.7346 10.5187C15.9684 10.5187 15.3472 11.1399 15.3472 11.9062C15.3472 12.6725 15.9684 13.2936 16.7346 13.2936ZM16.7346 14.2936C18.0532 14.2936 19.1221 13.2247 19.1221 11.9062C19.1221 10.5876 18.0532 9.51874 16.7346 9.51874C15.4161 9.51874 14.3472 10.5876 14.3472 11.9062C14.3472 13.2247 15.4161 14.2936 16.7346 14.2936ZM24.5493 11.9062C24.5493 12.6725 23.9281 13.2936 23.1619 13.2936C22.3956 13.2936 21.7744 12.6725 21.7744 11.9062C21.7744 11.1399 22.3956 10.5187 23.1619 10.5187C23.9281 10.5187 24.5493 11.1399 24.5493 11.9062ZM25.5493 11.9062C25.5493 13.2247 24.4804 14.2936 23.1619 14.2936C21.8433 14.2936 20.7744 13.2247 20.7744 11.9062C20.7744 10.5876 21.8433 9.51874 23.1619 9.51874C24.4804 9.51874 25.5493 10.5876 25.5493 11.9062Z" fill="#7237EC"/>
<path fill-rule="evenodd" clip-rule="evenodd" d="M45.0215 10.0569C45.0215 7.57166 43.0068 5.55695 40.5215 5.55695H35.1755C34.8993 5.55695 34.6755 5.33309 34.6755 5.05695C34.6755 4.7808 34.8993 4.55695 35.1755 4.55695H40.5215C43.5591 4.55695 46.0215 7.01938 46.0215 10.0569V21.688C46.0215 24.7256 43.559 27.188 40.5215 27.188H28.438L30.1175 34.1323C30.2836 34.8192 29.4429 35.2915 28.9427 34.7923L21.8063 27.6713C21.6109 27.4763 21.6105 27.1597 21.8056 26.9642C22.0006 26.7687 22.3172 26.7684 22.5127 26.9634L28.8952 33.3322L27.3236 26.8341C27.3162 26.8035 27.3118 26.7729 27.3102 26.7426C27.3082 26.7247 27.3072 26.7065 27.3072 26.688C27.3072 26.4118 27.5311 26.188 27.8072 26.188H40.5215C43.0068 26.188 45.0215 24.1733 45.0215 21.688V10.0569Z" fill="#7237EC"/>
<path d="M34.9736 17.8274C35.2585 17.9866 35.5798 18.0693 35.9061 18.0672C36.2325 18.0652 36.5528 17.9786 36.8357 17.8159C37.1186 17.6532 37.3544 17.4198 37.5203 17.1387C37.6861 16.8576 37.7761 16.5383 37.7817 16.212C37.7873 15.8857 37.7081 15.5635 37.552 15.2769C37.3959 14.9903 37.1681 14.7491 36.8909 14.5768C36.6137 14.4045 36.2966 14.307 35.9705 14.2939C35.6444 14.2808 35.3204 14.3524 35.0303 14.5019" stroke="#7237EC" stroke-linecap="round"/>
</svg>
