<svg width="32" height="36" viewBox="0 0 32 36" fill="none" xmlns="http://www.w3.org/2000/svg">
<rect x="0.876725" y="5.89583" width="18.4642" height="29.5632" rx="1.5" transform="rotate(-1.73499 0.876725 5.89583)" stroke="#717070"/>
<path d="M21.9101 31.9722L28.3227 32.1353C29.4248 32.1633 30.3417 31.2943 30.3728 30.1924L31.1222 3.63413C31.1533 2.53 30.2835 1.60967 29.1794 1.57852L14.0351 1.1512C12.931 1.12004 12.0106 1.98986 11.9795 3.09399L11.9684 3.48599" stroke="#717070" stroke-linecap="round"/>
<path d="M10.5595 22.5253L13.0898 19.995C13.7114 19.3702 13.802 18.3487 13.2147 17.6958C13.0675 17.5313 12.8882 17.3985 12.6878 17.3056C12.4875 17.2127 12.2704 17.1616 12.0496 17.1555C11.8289 17.1493 11.6092 17.1883 11.404 17.2699C11.1988 17.3515 11.0124 17.4741 10.8562 17.6302L10.3814 18.1082L9.97219 17.6958C9.34742 17.0742 8.32592 16.9836 7.67304 17.5708C7.50851 17.7181 7.37573 17.8974 7.28283 18.0977C7.18993 18.2981 7.13885 18.5152 7.13271 18.736C7.12657 18.9567 7.1655 19.1764 7.24712 19.3816C7.32875 19.5868 7.45135 19.7732 7.60744 19.9294L10.2034 22.5253C10.2507 22.5722 10.3147 22.5985 10.3814 22.5985C10.4481 22.5985 10.5121 22.5722 10.5595 22.5253Z" stroke="#717070" stroke-linecap="round" stroke-linejoin="round"/>
<path d="M21.3713 14.0453C21.5765 13.9637 21.7962 13.9247 22.0169 13.9309C22.2377 13.937 22.4548 13.9881 22.6552 14.081C22.8555 14.1739 23.0348 14.3067 23.1821 14.4712C23.7694 15.1241 23.6788 16.1456 23.0571 16.7703L21.3713 18.4561" stroke="#717070" stroke-linecap="round" stroke-linejoin="round"/>
</svg>
