<svg width="33" height="35" viewBox="0 0 33 35" fill="none" xmlns="http://www.w3.org/2000/svg">
<path fill-rule="evenodd" clip-rule="evenodd" d="M24.7522 10.132V14.6472C24.7522 19.1965 21.0643 22.8844 16.515 22.8844C11.9657 22.8844 8.27783 19.1965 8.27783 14.6472V10.132C8.27783 5.58269 11.9657 1.89478 16.515 1.89478C21.0643 1.89478 24.7522 5.58269 24.7522 10.132ZM7.27783 10.132C7.27783 5.0304 11.4135 0.894775 16.515 0.894775C21.6166 0.894775 25.7522 5.0304 25.7522 10.132V14.6472C25.7522 19.7488 21.6166 23.8844 16.515 23.8844C11.4135 23.8844 7.27783 19.7488 7.27783 14.6472V10.132ZM25.1348 21.9695C24.8695 21.8927 24.5922 22.0454 24.5154 22.3107C24.4386 22.5759 24.5914 22.8532 24.8567 22.93L30.6225 24.5995C31.2639 24.7852 31.7053 25.3726 31.7053 26.0403V31.6604C31.7053 32.4888 31.0337 33.1604 30.2053 33.1604H2.52051C1.69208 33.1604 1.02051 32.4888 1.02051 31.6604V26.0482C1.02051 25.3776 1.46554 24.7885 2.11055 24.6053L8.00443 22.9307C8.27006 22.8552 8.42421 22.5787 8.34874 22.3131C8.27327 22.0475 7.99675 21.8933 7.73112 21.9688L1.83725 23.6433C0.762228 23.9488 0.0205078 24.9306 0.0205078 26.0482V31.6604C0.0205078 33.0411 1.1398 34.1604 2.52051 34.1604H30.2053C31.586 34.1604 32.7053 33.0411 32.7053 31.6604V26.0403C32.7053 24.9274 31.9696 23.9485 30.9006 23.6389L25.1348 21.9695Z" fill="#717070"/>
</svg>
