<svg width="36" height="35" viewBox="0 0 36 35" fill="none" xmlns="http://www.w3.org/2000/svg">
<path d="M24.5801 16.4085C24.0483 18.8074 22.6947 20.9449 20.7535 22.4513C18.8123 23.9577 16.4056 24.7382 13.9498 24.6577" stroke="#717070" stroke-linecap="round"/>
<circle cx="24.8298" cy="14.0281" r="0.5" fill="#717070"/>
<path fill-rule="evenodd" clip-rule="evenodd" d="M27.2947 14.1282C27.2947 21.3079 21.4744 27.1282 14.2947 27.1282C7.11498 27.1282 1.29468 21.3079 1.29468 14.1282C1.29468 6.94847 7.11498 1.12817 14.2947 1.12817C21.4744 1.12817 27.2947 6.94847 27.2947 14.1282ZM23.9724 24.2446C21.4583 26.6503 18.0491 28.1282 14.2947 28.1282C6.56269 28.1282 0.294678 21.8602 0.294678 14.1282C0.294678 6.39619 6.56269 0.128174 14.2947 0.128174C22.0267 0.128174 28.2947 6.39619 28.2947 14.1282C28.2947 17.746 26.9224 21.0433 24.67 23.528L27.0885 25.9466C28.183 25.1856 29.6983 25.293 30.674 26.2688L34.5396 30.1343C35.636 31.2307 35.636 33.0083 34.5396 34.1048C33.4431 35.2012 31.6655 35.2012 30.5691 34.1048L26.7035 30.2393C25.7278 29.2635 25.6204 27.7482 26.3814 26.6537L23.9724 24.2446ZM27.4107 29.5321L31.2762 33.3977C31.9821 34.1036 33.1265 34.1036 33.8324 33.3977C34.5383 32.6918 34.5383 31.5473 33.8324 30.8414L29.9669 26.9759C29.261 26.27 28.1166 26.27 27.4107 26.9759C26.7048 27.6818 26.7048 28.8263 27.4107 29.5321Z" fill="#717070"/>
</svg>
