<svg width="14" height="12" viewBox="0 0 14 12" fill="none" xmlns="http://www.w3.org/2000/svg">
<path d="M7.34628 10.916L12.2682 6.16994C13.4774 4.99807 13.6536 3.08205 12.5112 1.85744C12.2247 1.54883 11.876 1.29979 11.4863 1.12554C11.0966 0.951281 10.6742 0.855468 10.2448 0.843951C9.81546 0.832435 9.38816 0.905458 8.98904 1.05856C8.58993 1.21166 8.22737 1.44162 7.92353 1.73439L6.99992 2.63088L6.20391 1.85744C4.98864 0.691426 3.00166 0.521504 1.73169 1.62307C1.41165 1.89933 1.15339 2.23561 0.97268 2.61137C0.79197 2.98712 0.692608 3.39447 0.680665 3.8085C0.668722 4.22254 0.74445 4.63458 0.90322 5.01944C1.06199 5.4043 1.30047 5.75391 1.60409 6.04689L6.65357 10.916C6.74573 11.0041 6.8702 11.0534 6.99992 11.0534C7.12964 11.0534 7.25411 11.0041 7.34628 10.916Z" stroke="#717070" stroke-linecap="round" stroke-linejoin="round"/>
</svg>
