<svg width="20" height="13" viewBox="0 0 20 13" fill="none" xmlns="http://www.w3.org/2000/svg">
<path d="M1.47727 12.0625H0L4.27273 0.426163H5.72727L10 12.0625H8.52273L5.04545 2.26707H4.95455L1.47727 12.0625ZM2.02273 7.51707H7.97727V8.76707H2.02273V7.51707Z" fill="#717070"/>
<path d="M19.7216 12.0625H18.3125V1.67616H15.8352C15.2064 1.67616 14.7008 1.77275 14.3182 1.96594C13.9356 2.15533 13.6572 2.42427 13.483 2.77275C13.3087 3.12124 13.2216 3.52844 13.2216 3.99434C13.2216 4.46025 13.3068 4.86177 13.4773 5.19889C13.6515 5.53222 13.928 5.7898 14.3068 5.97162C14.6894 6.15344 15.1913 6.24434 15.8125 6.24434H18.9489V7.51707H15.767C14.8655 7.51707 14.125 7.36745 13.5455 7.06821C12.9659 6.76518 12.536 6.34851 12.2557 5.81821C11.9754 5.28791 11.8352 4.67995 11.8352 3.99434C11.8352 3.30874 11.9754 2.697 12.2557 2.15912C12.536 1.62124 12.9678 1.19889 13.5511 0.892072C14.1345 0.581466 14.8807 0.426163 15.7898 0.426163H19.7216V12.0625ZM14.2443 6.83525H15.8352L13.017 12.0625H11.3807L14.2443 6.83525Z" fill="#717070"/>
</svg>
