<svg width="64" height="64" viewBox="0 0 64 64" fill="none" xmlns="http://www.w3.org/2000/svg">
<path d="M7.55492 48.6462C7.55492 48.655 7.55492 48.6712 7.54492 48.6937C7.54867 48.6787 7.55117 48.6625 7.55492 48.6462Z" fill="#F0E9FF"/>
<path d="M54.9872 50.7C54.5756 50.6911 54.1692 50.6064 53.7884 50.45L46.6909 47.9338L46.6384 47.9125C46.4836 47.848 46.3174 47.8157 46.1497 47.8175C45.9951 47.8177 45.8418 47.8456 45.6972 47.9C45.5247 47.965 43.9709 48.5488 42.3409 48.9963C41.4572 49.2388 38.3809 50.03 35.9122 50.03C29.6022 50.03 23.7022 47.605 19.3009 43.2013C17.1508 41.0643 15.4459 38.5222 14.2849 35.7219C13.1239 32.9216 12.5299 29.9189 12.5372 26.8875C12.5371 25.308 12.7073 23.7331 13.0447 22.19C14.1434 17.1125 17.0534 12.4938 21.2384 9.19001C25.5314 5.82255 30.8311 3.9948 36.2872 4.00001C42.8134 4.00001 48.8947 6.50001 53.4122 11.0225C57.6822 15.3063 60.0222 20.9388 60.0034 26.8813C59.9997 31.297 58.6812 35.6116 56.2159 39.275L56.1922 39.31L56.0997 39.435C56.0784 39.4638 56.0572 39.4913 56.0372 39.52L56.0184 39.5538C55.9687 39.6383 55.9237 39.7255 55.8834 39.815L57.8509 46.8075C57.9379 47.096 57.985 47.395 57.9909 47.6963C57.9914 48.0909 57.9141 48.4817 57.7633 48.8463C57.6125 49.211 57.3913 49.5423 57.1122 49.8213C56.8332 50.1004 56.5019 50.3216 56.1372 50.4724C55.7726 50.6232 55.3818 50.7005 54.9872 50.7Z" fill="#F0E9FF"/>
<path d="M37.4838 53.1737C37.3547 52.9225 37.1729 52.7021 36.951 52.5274C36.729 52.3527 36.4721 52.2278 36.1976 52.1612C35.4751 51.97 34.6326 52.0025 33.9888 51.955C27.9105 51.5324 22.1906 48.9237 17.8863 44.6112C14.0597 40.8061 11.5729 35.8608 10.8001 30.52C10.6251 29.3025 10.6251 29 10.6251 29C10.625 28.5938 10.5012 28.1972 10.2702 27.8631C10.0392 27.5289 9.71198 27.2731 9.33199 27.1295C8.952 26.9859 8.5373 26.9614 8.14306 27.0593C7.74883 27.1572 7.39374 27.3728 7.12506 27.6775C7.12506 27.6775 6.14006 28.75 5.67506 29.8262C4.37091 32.8311 3.81475 36.1073 4.05422 39.3742C4.2937 42.6411 5.32167 45.8012 7.05006 48.5837C7.37506 49.125 7.37506 49.375 7.30256 49.9375C6.96131 51.7012 6.36381 54.8125 6.05256 56.4262C5.94951 56.9496 5.98784 57.4909 6.16361 57.9945C6.33938 58.4981 6.64624 58.9457 7.05256 59.2912L7.11006 59.34C7.64757 59.7669 8.31365 59.9995 9.00006 60C9.38615 60.0003 9.76848 59.9243 10.1251 59.7762L16.8138 57.195C17.0441 57.1075 17.2985 57.1075 17.5288 57.195C20.1626 58.175 22.9038 58.695 25.5013 58.695C28.7377 58.698 31.935 57.987 34.8651 56.6125C35.5476 56.2925 36.6151 55.945 37.2401 55.2225C37.4766 54.9422 37.6257 54.5988 37.6691 54.2347C37.7124 53.8705 37.648 53.5017 37.4838 53.1737Z" fill="#F0E9FF"/>
</svg>
