<svg width="28" height="26" viewBox="0 0 28 26" fill="none" xmlns="http://www.w3.org/2000/svg">
<path fill-rule="evenodd" clip-rule="evenodd" d="M0.283203 5.25C0.283203 2.48858 2.52178 0.25 5.2832 0.25H22.7167C25.4781 0.25 27.7167 2.48858 27.7167 5.25V13.8656C27.7167 16.627 25.4781 18.8656 22.7167 18.8656H12.5303L14.3194 25.5747C14.3704 25.766 14.1423 25.9072 13.9938 25.7762L6.16181 18.8656H5.2832C2.52178 18.8656 0.283203 16.627 0.283203 13.8656V5.25ZM10.0809 10.0477C10.0809 11.1299 9.20361 12.0072 8.12139 12.0072C7.03917 12.0072 6.16185 11.1299 6.16185 10.0477C6.16185 8.96546 7.03917 8.08815 8.12139 8.08815C9.20361 8.08815 10.0809 8.96546 10.0809 10.0477ZM14 12.0072C15.0822 12.0072 15.9595 11.1299 15.9595 10.0477C15.9595 8.96546 15.0822 8.08815 14 8.08815C12.9178 8.08815 12.0405 8.96546 12.0405 10.0477C12.0405 11.1299 12.9178 12.0072 14 12.0072ZM21.8381 10.0477C21.8381 11.1299 20.9608 12.0072 19.8786 12.0072C18.7964 12.0072 17.9191 11.1299 17.9191 10.0477C17.9191 8.96546 18.7964 8.08815 19.8786 8.08815C20.9608 8.08815 21.8381 8.96546 21.8381 10.0477ZM9.10112 10.0477C9.10112 10.5888 8.66246 11.0275 8.12135 11.0275C7.58024 11.0275 7.14158 10.5888 7.14158 10.0477C7.14158 9.50657 7.58024 9.06791 8.12135 9.06791C8.66246 9.06791 9.10112 9.50657 9.10112 10.0477ZM14 11.0275C14.5411 11.0275 14.9797 10.5888 14.9797 10.0477C14.9797 9.50657 14.5411 9.06791 14 9.06791C13.4588 9.06791 13.0202 9.50657 13.0202 10.0477C13.0202 10.5888 13.4588 11.0275 14 11.0275ZM20.8583 10.0477C20.8583 10.5888 20.4197 11.0275 19.8786 11.0275C19.3375 11.0275 18.8988 10.5888 18.8988 10.0477C18.8988 9.50657 19.3375 9.06791 19.8786 9.06791C20.4197 9.06791 20.8583 9.50657 20.8583 10.0477Z" fill="#7237EC"/>
</svg>
