<svg width="58" height="57" viewBox="0 0 58 57" fill="none" xmlns="http://www.w3.org/2000/svg">
<path d="M10.4663 22.06C10.6364 21.878 10.9065 21.85 11.105 21.9874C13.4454 23.6075 21.0514 28.9472 25.7603 33.1223C34.9882 41.304 37.2742 45.4778 37.7977 46.7219C37.8329 46.8056 37.8235 46.9267 37.7106 47.0475L34.8987 50.0571C34.662 49.8247 34.3179 49.4876 33.8875 49.0682C33.0261 48.2288 31.819 47.0595 30.4357 45.7393C27.6708 43.1007 24.1949 39.853 21.3678 37.4338C18.5298 35.0053 14.769 32.0626 11.7226 29.7305C10.1984 28.5637 8.85112 27.5483 7.88485 26.8245C7.42332 26.4788 7.04866 26.1996 6.7831 26.0022L10.4663 22.06Z" stroke="#7237EC"/>
<path d="M34.5149 50.2115C33.8499 50.9939 27.2287 46.6985 19.2073 39.8807C11.1858 33.063 6.20928 26.8139 6.87427 26.0315" stroke="#7237EC"/>
<circle cx="15.3995" cy="10.9281" r="2.09985" transform="rotate(43.0547 15.3995 10.9281)" stroke="#7237EC"/>
<circle cx="48.3143" cy="39.659" r="2.09985" transform="rotate(43.0547 48.3143 39.659)" stroke="#7237EC"/>
<circle cx="37.4889" cy="18.7897" r="2.69067" transform="rotate(43.0547 37.4889 18.7897)" stroke="#7237EC"/>
<circle cx="22.345" cy="17.2557" r="1.98169" transform="rotate(43.0547 22.345 17.2557)" stroke="#7237EC"/>
<circle cx="41.0867" cy="33.634" r="1.98169" transform="rotate(43.0547 41.0867 33.634)" stroke="#7237EC"/>
<path d="M11.9539 19.03L14.2955 12.8887M16.0521 12.9127C15.3617 15.1518 14.4721 19.814 16.4369 20.55C18.4017 21.2859 20.0304 19.6754 20.5991 18.7782M22.3727 19.3032C22.0947 20.5529 22.0188 23.1614 23.94 23.5978C26.3414 24.1432 30.4916 23.2498 34.8908 19.8396M39.5997 35.3985C38.8975 36.4675 37.6685 38.8503 38.3707 39.8298C39.0728 40.8092 43.8544 40.4518 46.1574 40.1506M40.6549 44.309L46.2749 41.1499M38.8428 33.7617C37.6149 34.124 34.2959 34.6317 33.7301 32.7446C33.0229 30.3857 33.6327 26.1845 36.7366 21.5641" stroke="#7237EC"/>
</svg>
