<svg width="13" height="13" viewBox="0 0 13 13" fill="none" xmlns="http://www.w3.org/2000/svg">
<path d="M12 3.79372L9.20625 0.999966C9.11384 0.906615 9.00385 0.832511 8.88262 0.781936C8.7614 0.731362 8.63135 0.705322 8.5 0.705322C8.36865 0.705322 8.2386 0.731362 8.11738 0.781936C7.99615 0.832511 7.88616 0.906615 7.79375 0.999966L6.14375 2.64372L0.29375 8.49997C0.200562 8.59245 0.126622 8.70247 0.0762023 8.8237C0.0257829 8.94492 -0.000116543 9.07493 3.94218e-07 9.20622V12C3.94218e-07 12.2652 0.105357 12.5195 0.292894 12.7071C0.48043 12.8946 0.734784 13 1 13H3.79375C3.92504 13.0001 4.05505 12.9742 4.17627 12.9238C4.29749 12.8733 4.40752 12.7994 4.5 12.7062L12 5.20622C12.1855 5.01795 12.2895 4.76426 12.2895 4.49997C12.2895 4.23567 12.1855 3.98198 12 3.79372ZM1.20625 8.99997L7 3.20622L8.04375 4.24997L2.25 10.0437L1.20625 8.99997ZM1 10.2062L2.79375 12H1V10.2062ZM4 11.7937L2.95625 10.75L8.75 4.95622L9.79375 5.99997L4 11.7937Z" fill="#99A2AD"/>
</svg>
