<svg width="20" height="21" viewBox="0 0 20 21" fill="none" xmlns="http://www.w3.org/2000/svg">
<path d="M7.24219 17.375H3.75C3.58424 17.375 3.42527 17.3092 3.30806 17.1919C3.19085 17.0747 3.125 16.9158 3.125 16.75V13.2578C3.12472 13.1767 3.14044 13.0962 3.17128 13.0212C3.20211 12.9461 3.24745 12.8778 3.30469 12.8203L12.6797 3.44531C12.7378 3.38626 12.8072 3.33936 12.8836 3.30735C12.9601 3.27534 13.0421 3.25886 13.125 3.25886C13.2079 3.25886 13.2899 3.27534 13.3664 3.30735C13.4428 3.33936 13.5122 3.38626 13.5703 3.44531L17.0547 6.92969C17.1137 6.98784 17.1606 7.05716 17.1927 7.13361C17.2247 7.21006 17.2411 7.29212 17.2411 7.375C17.2411 7.45788 17.2247 7.53993 17.1927 7.61638C17.1606 7.69283 17.1137 7.76215 17.0547 7.82031L7.67969 17.1953C7.62216 17.2526 7.55391 17.2979 7.47884 17.3287C7.40376 17.3596 7.32335 17.3753 7.24219 17.375Z" stroke="#717070" stroke-linecap="round" stroke-linejoin="round"/>
<path d="M10.625 5.5L15 9.875" stroke="#717070" stroke-linecap="round" stroke-linejoin="round"/>
<path d="M12.8125 7.6875L5.3125 15.1875" stroke="#717070" stroke-linecap="round" stroke-linejoin="round"/>
<path d="M7.46094 17.3359L3.16406 13.0391" stroke="#717070" stroke-linecap="round" stroke-linejoin="round"/>
</svg>
