<svg width="24" height="24" viewBox="0 0 24 24" fill="none" xmlns="http://www.w3.org/2000/svg">
<path d="M12.0006 0.381241C9.70262 0.381241 7.45625 1.06267 5.54556 2.33935C3.63487 3.61604 2.14566 5.43064 1.26627 7.55369C0.38687 9.67673 0.15678 12.0129 0.605092 14.2667C1.0534 16.5205 2.15998 18.5908 3.78489 20.2157C5.4098 21.8406 7.48007 22.9472 9.73388 23.3955C11.9877 23.8438 14.3238 23.6137 16.4469 22.7343C18.5699 21.8549 20.3845 20.3657 21.6612 18.455C22.9379 16.5443 23.6193 14.298 23.6193 12C23.6134 8.92032 22.3874 5.96848 20.2098 3.79082C18.0321 1.61316 15.0803 0.387146 12.0006 0.381241ZM11.7772 5.74374C12.0423 5.74374 12.3015 5.82237 12.522 5.96968C12.7424 6.11699 12.9143 6.32636 13.0157 6.57133C13.1172 6.8163 13.1437 7.08585 13.092 7.34591C13.0403 7.60596 12.9126 7.84484 12.7251 8.03233C12.5376 8.21982 12.2988 8.3475 12.0387 8.39923C11.7786 8.45096 11.5091 8.42441 11.2641 8.32294C11.0191 8.22147 10.8098 8.04964 10.6625 7.82918C10.5152 7.60871 10.4365 7.34952 10.4365 7.08436C10.4365 6.72881 10.5778 6.38782 10.8292 6.1364C11.0806 5.88498 11.4216 5.74374 11.7772 5.74374ZM12.8943 18.2562H12.0006C11.7636 18.2562 11.5362 18.1621 11.3686 17.9945C11.201 17.8269 11.1068 17.5995 11.1068 17.3625V12C10.8698 12 10.6425 11.9058 10.4749 11.7382C10.3073 11.5706 10.2131 11.3433 10.2131 11.1062C10.2131 10.8692 10.3073 10.6419 10.4749 10.4743C10.6425 10.3067 10.8698 10.2125 11.1068 10.2125H12.0006C12.2376 10.2125 12.465 10.3067 12.6326 10.4743C12.8002 10.6419 12.8943 10.8692 12.8943 11.1062V16.4687C13.1314 16.4687 13.3587 16.5629 13.5263 16.7305C13.6939 16.8981 13.7881 17.1255 13.7881 17.3625C13.7881 17.5995 13.6939 17.8269 13.5263 17.9945C13.3587 18.1621 13.1314 18.2562 12.8943 18.2562Z" fill="#7237EC"/>
</svg>
