<svg width="34" height="38" viewBox="0 0 34 38" fill="none" xmlns="http://www.w3.org/2000/svg">
<path d="M3.52548 27.6106C3.40221 27.6106 3.27894 27.6106 3.15566 27.593C1.2185 27.3993 -0.19034 25.6558 0.0209866 23.7187C1.18328 12.5888 7.3998 11.0567 11.5207 10.0353C15.0956 9.15474 16.7334 8.74969 17.2617 3.18476C17.4378 1.2476 19.1636 -0.161244 21.1008 0.0148619C23.038 0.190967 24.4644 1.9168 24.2707 3.85396C23.2669 14.4027 17.2089 15.882 13.2113 16.8682C9.51307 17.7839 7.66396 18.2418 7.02998 24.4407C6.83626 26.2546 5.30415 27.6106 3.52548 27.6106Z" fill="#FF2289"/>
<path d="M13.2113 37.2963C13.0881 37.2963 12.9648 37.2963 12.8415 37.2787C10.9044 37.085 9.49551 35.3416 9.70684 33.4044C10.8691 22.2745 17.0857 20.7424 21.2065 19.721C24.7815 18.8405 26.4192 18.4354 26.9476 12.8705C27.1237 10.9333 28.8671 9.50688 30.7867 9.7006C32.7238 9.8767 34.1503 11.6025 33.9566 13.5397C32.9528 24.0884 26.8947 25.5677 22.8971 26.5539C19.2165 27.4696 17.3498 27.9275 16.7158 34.1264C16.5221 35.9403 14.99 37.2963 13.2113 37.2963Z" fill="#FF2289"/>
</svg>
