<svg width="40" height="39" viewBox="0 0 40 39" fill="none" xmlns="http://www.w3.org/2000/svg">
<path d="M15.3564 0H4.61396C2.07804 0 0 2.06043 0 4.61396V15.3564C0 17.8923 2.06043 19.9704 4.61396 19.9704H15.3564C17.8923 19.9704 19.9704 17.9099 19.9704 15.3564V4.61396C19.9704 2.06043 17.9099 0 15.3564 0Z" fill="#FF2289"/>
<path d="M35.6966 2.58875H27.6661C25.7994 2.58875 24.2849 4.10326 24.2849 5.96997V14.0004C24.2849 15.8671 25.7994 17.3816 27.6661 17.3816H35.6966C37.5633 17.3816 39.0778 15.8671 39.0778 14.0004V5.96997C39.0778 4.10326 37.5633 2.58875 35.6966 2.58875Z" fill="#FF2289"/>
<path d="M14.0004 23.7919H5.96997C4.10325 23.7919 2.58875 25.3064 2.58875 27.1731V35.2035C2.58875 37.0702 4.10325 38.5847 5.96997 38.5847H14.0004C15.8671 38.5847 17.3816 37.0702 17.3816 35.2035V27.1731C17.3816 25.3064 15.8671 23.7919 14.0004 23.7919Z" fill="#FF2289"/>
<path d="M33.0198 20.9037H24.9894C23.1227 20.9037 21.6082 22.4183 21.6082 24.285V32.3154C21.6082 34.1821 23.1227 35.6966 24.9894 35.6966H33.0198C34.8866 35.6966 36.4011 34.1821 36.4011 32.3154V24.285C36.4011 22.4183 34.8866 20.9037 33.0198 20.9037Z" fill="#FF2289"/>
</svg>
