<svg width="37" height="37" viewBox="0 0 37 37" fill="none" xmlns="http://www.w3.org/2000/svg">
<path d="M18.4348 36.9376C28.3759 36.9376 36.4348 28.8787 36.4348 18.9376C36.4348 8.9965 28.3759 0.937622 18.4348 0.937622C8.49363 0.937622 0.434753 8.9965 0.434753 18.9376C0.434753 28.8787 8.49363 36.9376 18.4348 36.9376Z" fill="#3E327A"/>
<path d="M21.3951 18.9377L27.2042 13.1286C28.0281 12.3047 28.0281 10.9781 27.2042 10.1681C26.3803 9.34425 25.0537 9.34425 24.2438 10.1681L18.4346 15.9773L12.6115 10.1542C11.7876 9.33028 10.461 9.33028 9.65106 10.1542C8.82717 10.9781 8.82717 12.3047 9.65106 13.1146L15.4602 18.9238L9.65106 24.7469C8.82717 25.5708 8.82717 26.8974 9.65106 27.7073C10.056 28.1123 10.6006 28.3217 11.1313 28.3217C11.6619 28.3217 12.2065 28.1123 12.6115 27.7073L18.4207 21.8982L24.2298 27.7073C24.6348 28.1123 25.1794 28.3217 25.71 28.3217C26.2407 28.3217 26.7853 28.1123 27.1902 27.7073C28.0141 26.8834 28.0141 25.5568 27.1902 24.7469L21.3951 18.9377Z" fill="#FFF202"/>
</svg>
