<svg width="31" height="25" viewBox="0 0 31 25" fill="none" xmlns="http://www.w3.org/2000/svg">
<path d="M22.1496 10.7267C24.0216 8.86934 27.0562 8.86934 28.9282 10.7267C30.8002 12.5853 30.8002 15.5987 28.9282 17.456L21.6656 24.6667L14.4029 17.456C12.5309 15.5987 12.5309 12.5853 14.4029 10.7267C16.2749 8.86934 19.3096 8.86934 21.1816 10.7267L21.6656 11.2067L22.1496 10.7267ZM24.6562 2.34267C25.9096 3.6 26.6602 5.16667 26.9082 6.79334C25.1309 6.46267 23.2562 6.78 21.6656 7.744C18.7989 6.00667 15.0069 6.37067 12.5242 8.83467C9.68289 11.6547 9.60422 16.188 12.2869 19.1027L12.5242 19.3493L15.7522 22.5547L13.6656 24.6467L2.35889 13.324C-0.445109 10.1827 -0.339775 5.35867 2.67489 2.34267C5.69489 -0.675996 10.5256 -0.77733 13.6669 2.03867C16.7989 -0.77333 21.6389 -0.679996 24.6562 2.34267Z" fill="#7237EC"/>
</svg>
