<svg width="28" height="28" viewBox="0 0 28 28" fill="none" xmlns="http://www.w3.org/2000/svg">
<path d="M14.0013 15.3333C16.2106 15.3333 18.0013 17.124 18.0013 19.3333C18.0013 20.4667 17.5306 21.488 16.7746 22.216L14.228 24.6667H16.668C17.4043 24.6667 18.0013 25.2636 18.0013 26C18.0013 26.7364 17.4043 27.3333 16.668 27.3333H11.6139C10.7233 27.3333 10.0013 26.6113 10.0013 25.7207C10.0013 25.2823 10.1797 24.8629 10.4955 24.5589L14.9253 20.2947C15.1786 20.0507 15.3346 19.7107 15.3346 19.3333C15.3346 18.5973 14.7373 18 14.0013 18C13.6403 18 13.3127 18.1437 13.0725 18.377C12.65 18.7874 12.1904 19.3333 11.6013 19.3333C10.7176 19.3333 9.9716 18.5891 10.316 17.7753C10.9234 16.3401 12.3447 15.3333 14.0013 15.3333ZM20.668 15.3333C21.4043 15.3333 22.0013 15.9303 22.0013 16.6667V20.6667H24.668V16.6667C24.668 15.9303 25.2649 15.3333 26.0013 15.3333C26.7377 15.3333 27.3346 15.9303 27.3346 16.6667V26.7879C27.3346 27.0891 27.0904 27.3333 26.7892 27.3333H25.2013C24.9067 27.3333 24.668 27.0945 24.668 26.8V23.3333H20.0155C19.6395 23.3333 19.3346 23.0285 19.3346 22.6525V16.6667C19.3346 15.9303 19.9316 15.3333 20.668 15.3333ZM2.0013 14C2.73768 14 3.32587 14.5994 3.41672 15.3301C3.73759 17.9108 4.9799 20.2052 6.80417 21.8736C7.13001 22.1717 7.33463 22.585 7.33463 23.0265C7.33463 24.1472 6.13031 24.8211 5.28267 24.0879C2.77132 21.9158 1.07954 18.8218 0.733589 15.3313C0.66096 14.5986 1.26492 14 2.0013 14ZM14.0013 0.666656C20.4021 0.666656 25.7503 5.17796 27.0382 11.1941C27.2053 11.9747 26.5757 12.6667 25.7775 12.6667C25.0964 12.6667 24.5312 12.156 24.3718 11.4939C23.2446 6.81236 19.0296 3.33332 14.0013 3.33332C10.3346 3.33332 7.09997 5.18266 5.1813 7.99999H7.33463C8.07101 7.99999 8.66797 8.59694 8.66797 9.33332C8.66797 10.0697 8.07101 10.6667 7.33464 10.6667H1.66797C1.11568 10.6667 0.667969 10.2189 0.667969 9.66666V3.99999C0.667969 3.26361 1.26492 2.66666 2.0013 2.66666C2.73768 2.66666 3.33464 3.26361 3.33464 3.99999V5.99999C5.76663 2.75999 9.63997 0.666656 14.0013 0.666656Z" fill="#7237EC"/>
</svg>
