<svg width="25" height="27" viewBox="0 0 25 27" fill="none" xmlns="http://www.w3.org/2000/svg">
<path d="M17.2696 16.934C15.6905 18.0246 14.8432 21.7371 14.8432 21.7371C14.8432 21.7371 11.3915 20.0293 8.44518 16.5859C5.72998 13.4117 4.70937 9.89402 4.70937 9.89402C4.70937 9.89402 8.65219 9.80121 10.0627 8.51573C11.4733 7.23025 7.10684 0.273813 5.84552 0.431597C4.5842 0.584741 0.212919 2.19971 0.0781214 5.71737C-0.0807468 9.93579 2.57669 15.1009 5.85996 18.9388C9.22508 22.8741 13.8804 26.2572 18.2084 26.9069C21.8142 27.4499 24.2887 23.6166 24.6883 22.4564C25.0878 21.2916 18.8486 15.8434 17.2696 16.934Z" fill="#3E327A"/>
</svg>
