<svg width="17" height="18" viewBox="0 0 17 18" fill="none" xmlns="http://www.w3.org/2000/svg">
<path d="M15.4532 7.90623L2.28917 0.539043C2.06983 0.411134 1.81726 0.351716 1.56389 0.368421C1.31053 0.385127 1.06794 0.477192 0.867295 0.632793C0.662377 0.794471 0.513597 1.01659 0.442074 1.26762C0.370552 1.51865 0.379923 1.78583 0.468857 2.03123L2.66417 8.16404C2.68638 8.22519 2.72668 8.27813 2.77971 8.31581C2.83275 8.35349 2.89599 8.37413 2.96105 8.37498H8.60167C8.76385 8.37241 8.92097 8.43146 9.04132 8.54021C9.16167 8.64896 9.23628 8.79931 9.25011 8.96092C9.25545 9.04622 9.24324 9.13171 9.21423 9.21211C9.18522 9.2925 9.14003 9.3661 9.08145 9.42833C9.02288 9.49057 8.95216 9.54014 8.87366 9.57396C8.79517 9.60778 8.71058 9.62515 8.62511 9.62498H2.96105C2.89599 9.62583 2.83275 9.64647 2.77971 9.68415C2.72668 9.72183 2.68638 9.77477 2.66417 9.83592L0.468857 15.9687C0.402987 16.1577 0.383139 16.3596 0.410961 16.5577C0.438783 16.7559 0.513473 16.9445 0.628829 17.108C0.744184 17.2715 0.896876 17.4051 1.07423 17.4977C1.25158 17.5903 1.44846 17.6393 1.64854 17.6406C1.86146 17.6396 2.07082 17.586 2.25792 17.4844L15.4532 10.0937C15.6465 9.98395 15.8073 9.82489 15.9192 9.63276C16.031 9.44063 16.0899 9.22229 16.0899 8.99998C16.0899 8.77767 16.031 8.55933 15.9192 8.3672C15.8073 8.17507 15.6465 8.01601 15.4532 7.90623Z" fill="#7237EC"/>
</svg>
