<svg width="26" height="27" viewBox="0 0 26 27" fill="none" xmlns="http://www.w3.org/2000/svg">
<path fill-rule="evenodd" clip-rule="evenodd" d="M0.6248 1.1252C0.353454 1.39655 0.353454 1.83648 0.6248 2.10783L12.0171 13.5001L0.624928 24.8923C0.353583 25.1636 0.353582 25.6036 0.624928 25.8749C0.896274 26.1463 1.33621 26.1463 1.60756 25.8749L12.9997 14.4828L24.392 25.8751C24.6634 26.1464 25.1033 26.1464 25.3747 25.8751C25.646 25.6037 25.646 25.1638 25.3747 24.8924L13.9824 13.5001L25.3748 2.1077C25.6461 1.83636 25.6461 1.39642 25.3748 1.12507C25.1034 0.853724 24.6635 0.853726 24.3922 1.12507L12.9997 12.5175L1.60743 1.1252C1.33608 0.853854 0.896146 0.853854 0.6248 1.1252Z" fill="#CECECE"/>
</svg>
