<?xml version="1.0" standalone="no"?>
<!DOCTYPE svg PUBLIC "-//W3C//DTD SVG 20010904//EN"
 "http://www.w3.org/TR/2001/REC-SVG-20010904/DTD/svg10.dtd">
<svg version="1.0" xmlns="http://www.w3.org/2000/svg"
 width="832.000000pt" height="832.000000pt" viewBox="0 0 832.000000 832.000000"
 preserveAspectRatio="xMidYMid meet">
<metadata>
Created by potrace 1.14, written by Peter Selinger 2001-2017
</metadata>
<g transform="translate(0.000000,832.000000) scale(0.100000,-0.100000)"
fill="#000000" stroke="none">
<path d="M2959 7795 c-7 0 -1 -249 6 -253 6 -4 21 -7 35 -7 l25 -1 1 -421 1
-421 -480 0 c-263 0 -482 -3 -485 -7 -3 -3 -6 -191 -7 -418 l0 -412 -950 -1
c-522 -1 -955 -2 -961 -3 -9 -1 -12 -695 -12 -2651 l0 -2650 27 6 c14 3 40 7
56 9 17 2 44 6 60 9 52 10 78 15 150 26 95 16 114 19 155 24 19 3 44 7 56 10
29 6 125 19 147 20 9 0 17 3 17 6 0 3 10 5 23 6 30 1 167 18 227 29 14 3 50 7
80 11 50 5 71 8 150 18 55 8 118 15 180 21 36 3 76 8 90 10 28 4 96 12 185 20
33 3 78 7 100 10 22 2 72 6 110 10 139 13 152 14 181 19 16 3 67 8 114 11 47
4 105 8 130 10 25 2 86 6 135 10 50 4 115 8 145 11 30 2 100 6 155 9 55 3 138
8 185 11 172 11 209 12 405 20 261 10 1322 10 1585 0 297 -12 335 -13 335 -16
0 -1 38 -3 85 -5 47 -2 121 -6 165 -9 44 -3 127 -8 185 -11 58 -3 130 -8 160
-11 54 -5 92 -8 240 -19 41 -3 93 -8 115 -10 51 -7 101 -12 195 -20 41 -4 89
-9 105 -11 26 -3 72 -8 180 -19 17 -1 61 -6 99 -10 37 -4 85 -9 105 -10 20 -2
54 -6 76 -9 58 -8 123 -16 175 -22 25 -2 59 -6 75 -9 17 -2 53 -7 80 -10 28
-4 64 -9 80 -11 17 -3 50 -8 75 -10 25 -3 52 -8 60 -11 8 -3 33 -7 56 -9 22
-2 56 -6 75 -10 19 -3 45 -8 59 -10 14 -2 36 -5 50 -7 14 -3 48 -8 75 -12 28
-4 59 -9 70 -12 28 -6 132 -22 185 -29 25 -4 52 -10 60 -13 8 -4 22 -7 30 -7
13 1 15 302 15 2651 l0 2650 -960 0 -960 0 -1 415 -1 415 -486 3 -487 2 1 420
c1 450 -2 427 47 421 7 -1 12 10 13 26 1 28 0 209 0 228 -1 8 -1299 13 -2452
10z"/>
</g>
</svg>
