<svg width="88" height="88" viewBox="0 0 88 88" fill="none" xmlns="http://www.w3.org/2000/svg">
<ellipse rx="42.2573" ry="42.3511" transform="matrix(0.96576 -0.259438 0.258201 0.966091 43.808 44.4167)" fill="#F9DD70"/>
<path fill-rule="evenodd" clip-rule="evenodd" d="M33.0458 60.799L23.6281 63.329L23.4178 62.5422L32.8355 60.0122L33.0458 60.799Z" fill="#161314"/>
<path d="M23.6176 41.1513L25.2217 40.7204C25.3304 41.2562 25.3106 41.763 25.1623 42.241C25.0176 42.718 24.747 43.1327 24.3506 43.4852C23.9577 43.8367 23.4411 44.0985 22.8009 44.2705C22.3002 44.405 21.8283 44.4395 21.3853 44.374C20.9413 44.305 20.5345 44.1452 20.1647 43.8948C19.7985 43.6435 19.4803 43.3062 19.21 42.883C18.9397 42.4598 18.7279 41.9614 18.5746 41.3877L18.4294 40.8444C18.2761 40.2707 18.2127 39.7324 18.2393 39.2294C18.2685 38.722 18.3808 38.2671 18.5761 37.8649C18.775 37.4617 19.0495 37.119 19.3996 36.8366C19.7496 36.5543 20.1696 36.3473 20.6596 36.2157C21.3106 36.0408 21.8912 36.0116 22.4016 36.1282C22.9155 36.2438 23.3514 36.4764 23.7093 36.8261C24.0709 37.1748 24.3476 37.6077 24.5395 38.125L22.93 38.5574C22.8278 38.2466 22.6938 37.9963 22.5281 37.8064C22.3613 37.6129 22.154 37.4899 21.9062 37.4373C21.6609 37.3802 21.3594 37.3997 21.0018 37.4958C20.7335 37.5678 20.5127 37.681 20.3392 37.8352C20.1658 37.9894 20.0384 38.1869 19.9571 38.4279C19.8758 38.6688 19.8429 38.9543 19.8583 39.2845C19.8763 39.6102 19.9409 39.981 20.0521 40.397L20.2002 40.951C20.3085 41.3562 20.4342 41.7048 20.5775 41.9968C20.7197 42.2853 20.8817 42.5185 21.0634 42.6964C21.2478 42.8698 21.4545 42.9834 21.6835 43.0372C21.9152 43.0864 22.1741 43.0726 22.4602 42.9957C22.7964 42.9054 23.0592 42.7771 23.2486 42.6109C23.4381 42.4448 23.5617 42.2405 23.6196 41.9982C23.6811 41.7549 23.6804 41.4727 23.6176 41.1513Z" fill="#161314"/>
<path d="M26.9342 34.6511L29.0272 42.4825L27.4178 42.9149L25.3247 35.0835L26.9342 34.6511ZM31.5373 33.4146L29.7728 38.8176L27.8038 39.3465L27.2161 37.9651L28.5306 37.612L29.5845 33.9392L31.5373 33.4146ZM31.9726 41.6913L28.8479 38.7778L29.6561 37.327L33.8825 41.1782L31.9726 41.6913Z" fill="#161314"/>
<path d="M35.827 37.9348L37.551 31.7991L39.1605 31.3667L41.2535 39.1981L39.644 39.6305L38.2295 34.3378L36.5055 40.4736L34.8961 40.906L32.803 33.0746L34.4125 32.6422L35.827 37.9348Z" fill="#161314"/>
<path d="M49.0661 35.7504L49.4024 37.009L43.7746 38.5209L43.4382 37.2622L49.0661 35.7504ZM43.9157 37.134L44.7653 40.3128L43.2524 40.7192L42.317 37.5635L43.9157 37.134ZM50.2249 35.4391L50.9364 38.6608L49.4611 39.0571L48.61 35.8729L50.2249 35.4391ZM46.4242 29.4154L46.762 30.6794L43.0012 31.6897L42.6633 30.4257L46.4242 29.4154ZM47.5723 29.107L49.6653 36.9384L48.0612 37.3693L45.9682 29.5379L47.5723 29.107ZM42.4648 30.479L44.0743 30.0467L44.7176 33.2925C44.8262 33.8282 44.8936 34.3097 44.9196 34.737C44.9483 35.1598 44.9461 35.5389 44.9131 35.8745C44.8837 36.209 44.8317 36.5093 44.7571 36.7753C44.6816 37.0378 44.5912 37.2734 44.4861 37.4823C44.3799 37.6876 44.2672 37.8754 44.1479 38.0459C44.0277 38.2127 43.9086 38.3696 43.7907 38.5165L42.8679 38.7644L42.5316 37.5058L42.891 37.4092C42.9717 37.2953 43.0492 37.1477 43.1234 36.9663C43.2012 36.784 43.2579 36.5516 43.2936 36.2692C43.3319 35.9822 43.3377 35.6309 43.3109 35.2153C43.2878 34.7988 43.2201 34.3019 43.1081 33.7248L42.4648 30.479Z" fill="#161314"/>
<path d="M51.3541 28.0911L53.4472 35.9225L51.8377 36.3548L49.7446 28.5234L51.3541 28.0911ZM55.9573 26.8545L54.1927 32.2575L52.2238 32.7864L51.6361 31.4051L52.9505 31.052L54.0044 27.3791L55.9573 26.8545ZM56.3925 35.1312L53.2678 32.2177L54.0761 30.7669L58.3025 34.6181L56.3925 35.1312Z" fill="#161314"/>
<path d="M60.247 31.3748L61.9709 25.239L63.5804 24.8066L65.6735 32.638L64.064 33.0704L62.6494 27.7778L60.9255 33.9135L59.316 34.3459L57.223 26.5145L58.8324 26.0821L60.247 31.3748Z" fill="#161314"/>
<path d="M26.6825 58.3646L26.8747 59.0838L23.6588 59.9477L23.4666 59.2285L26.6825 58.3646ZM23.7395 59.1552L24.2249 60.9717L23.3604 61.2039L22.8259 59.4006L23.7395 59.1552ZM27.3447 58.1867L27.7513 60.0277L26.9082 60.2542L26.4219 58.4346L27.3447 58.1867ZM25.1729 54.7446L25.3659 55.4669L23.2169 56.0442L23.0238 55.3219L25.1729 54.7446ZM25.8289 54.5684L27.025 59.0435L26.1083 59.2897L24.9123 54.8146L25.8289 54.5684ZM22.9104 55.3524L23.8301 55.1053L24.1977 56.9601C24.2598 57.2662 24.2983 57.5414 24.3131 57.7856C24.3295 58.0271 24.3283 58.2438 24.3094 58.4355C24.2926 58.6267 24.2629 58.7983 24.2203 58.9503C24.1771 59.1002 24.1255 59.2349 24.0654 59.3543C24.0047 59.4716 23.9403 59.5789 23.8722 59.6763C23.8035 59.7716 23.7354 59.8613 23.668 59.9453L23.1407 60.0869L22.9485 59.3677L23.1539 59.3125C23.2001 59.2474 23.2443 59.1631 23.2867 59.0594C23.3312 58.9553 23.3636 58.8225 23.384 58.6611C23.4059 58.4971 23.4092 58.2963 23.3939 58.0589C23.3806 57.8208 23.342 57.5369 23.278 57.2071L22.9104 55.3524Z" fill="#161314"/>
<path d="M31.1675 55.4204L31.2242 55.6325C31.3151 55.9727 31.3507 56.2903 31.331 56.5855C31.3113 56.8807 31.2432 57.146 31.1265 57.3816C31.0093 57.6152 30.8476 57.8134 30.6415 57.9764C30.4373 58.1389 30.1943 58.258 29.9122 58.3337C29.6322 58.409 29.3623 58.4277 29.1025 58.3898C28.8447 58.3515 28.6058 58.2608 28.3858 58.1179C28.1652 57.9729 27.9718 57.7778 27.8055 57.5326C27.6412 57.2868 27.5136 56.9939 27.4227 56.6537L27.3661 56.4416C27.2746 56.0995 27.239 55.7818 27.2592 55.4887C27.2789 55.1935 27.3471 54.9281 27.4637 54.6925C27.5824 54.4564 27.7439 54.2571 27.948 54.0947C28.1541 53.9317 28.3972 53.8126 28.6772 53.7374C28.9592 53.6616 29.2292 53.6429 29.4869 53.6813C29.7468 53.7191 29.9859 53.8107 30.2045 53.9563C30.425 54.1013 30.6174 54.2966 30.7817 54.5424C30.9474 54.7856 31.0761 55.0783 31.1675 55.4204ZM30.2953 55.8821L30.237 55.6638C30.1734 55.4261 30.0961 55.2229 30.005 55.0541C29.9139 54.8853 29.81 54.7507 29.6934 54.6503C29.5767 54.5499 29.4499 54.4851 29.3129 54.456C29.1753 54.4249 29.0289 54.4302 28.8735 54.4719C28.7182 54.5137 28.5887 54.5825 28.4851 54.6784C28.383 54.7717 28.3065 54.8911 28.2556 55.0365C28.2067 55.1814 28.1849 55.3498 28.1901 55.5417C28.1954 55.7335 28.2298 55.9483 28.2933 56.186L28.3516 56.4042C28.4146 56.6398 28.4919 56.8431 28.5836 57.0139C28.6747 57.1827 28.7789 57.3183 28.8961 57.4208C29.0127 57.5212 29.1398 57.587 29.2774 57.6181C29.4149 57.6493 29.5614 57.644 29.7167 57.6022C29.872 57.5605 30.0015 57.4917 30.1051 57.3958C30.2087 57.2999 30.285 57.1794 30.3339 57.0345C30.3822 56.8876 30.4038 56.7182 30.3985 56.5264C30.3927 56.3325 30.3583 56.1177 30.2953 55.8821Z" fill="#161314"/>
<path d="M45.8943 57.6541L46.4488 59.7288L37.2885 62.1895L36.8154 60.4192L39.9027 54.5991C40.2082 53.9965 40.4374 53.4771 40.5902 53.0407C40.7414 52.5982 40.8327 52.2146 40.8642 51.8899C40.9002 51.5574 40.8821 51.2559 40.8098 50.9854C40.7013 50.5797 40.5411 50.2505 40.329 49.9978C40.1152 49.739 39.8552 49.5651 39.5488 49.4761C39.2486 49.3855 38.9084 49.3912 38.5282 49.4933C38.1236 49.602 37.8004 49.7943 37.5586 50.07C37.323 50.3442 37.1754 50.677 37.1158 51.0686C37.0623 51.4585 37.0947 51.8747 37.2129 52.3173L34.555 53.0313C34.3414 52.2322 34.336 51.4497 34.5387 50.6836C34.7398 49.9115 35.1342 49.2356 35.7219 48.6561C36.3079 48.0704 37.0761 47.6499 38.0265 47.3946C38.9646 47.1426 39.7966 47.0838 40.5225 47.2182C41.253 47.3448 41.8601 47.6495 42.344 48.1323C42.8324 48.6072 43.1817 49.2381 43.392 50.0249C43.5103 50.4675 43.5556 50.9198 43.5279 51.3818C43.4986 51.8377 43.408 52.3101 43.2561 52.7989C43.1086 53.2799 42.9077 53.782 42.6531 54.3049C42.3986 54.8279 42.1083 55.377 41.7823 55.9521L40.1553 59.1958L45.8943 57.6541Z" fill="#161314"/>
<path d="M55.0079 48.9699L55.6289 51.2935C55.8983 52.3017 56.0235 53.2003 56.0044 53.9894C55.9837 54.7724 55.8334 55.4519 55.5536 56.0278C55.2783 56.5959 54.8943 57.0647 54.4016 57.4342C53.9089 57.8038 53.3253 58.0791 52.6509 58.2603C52.1113 58.4052 51.5905 58.4727 51.0884 58.4626C50.5846 58.4464 50.1063 58.341 49.6534 58.1465C49.2067 57.9502 48.7884 57.664 48.3987 57.2877C48.0135 56.9036 47.6666 56.4171 47.358 55.8279C47.0494 55.2388 46.7867 54.5386 46.5698 53.7271L45.9488 51.4035C45.6793 50.3954 45.5558 49.5029 45.5782 48.7261C45.6051 47.9414 45.7562 47.265 46.0315 46.6969C46.3129 46.1272 46.7008 45.6606 47.1951 45.2973C47.6878 44.9277 48.2714 44.6524 48.9458 44.4712C49.4854 44.3262 50.004 44.2627 50.5016 44.2805C51.0038 44.2906 51.4804 44.3898 51.9317 44.5783C52.3829 44.7667 52.8011 45.053 53.1863 45.437C53.5699 45.8149 53.916 46.2985 54.2246 46.8876C54.5316 47.4705 54.7927 48.1647 55.0079 48.9699ZM53.0646 52.3579L52.2538 49.3244C52.124 48.8387 51.9831 48.422 51.831 48.0741C51.685 47.7246 51.5262 47.4379 51.3546 47.2138C51.1814 46.9837 50.9968 46.8093 50.8008 46.6906C50.6048 46.572 50.3988 46.5021 50.1829 46.4811C49.967 46.46 49.7394 46.4816 49.5003 46.5458C49.1999 46.6265 48.9488 46.7566 48.747 46.936C48.5514 47.1137 48.4083 47.3531 48.3179 47.6541C48.2258 47.9489 48.1936 48.32 48.2211 48.7672C48.2531 49.2066 48.3496 49.7275 48.5106 50.3299L49.3214 53.3635C49.4512 53.8491 49.5899 54.2698 49.7375 54.6254C49.8913 54.9794 50.0556 55.2746 50.2305 55.5109C50.4098 55.7394 50.5953 55.9169 50.7868 56.0433C50.9828 56.162 51.1887 56.2318 51.4047 56.2529C51.6267 56.2723 51.8573 56.2499 52.0964 56.1857C52.3907 56.1066 52.6357 55.9782 52.8313 55.8005C53.0315 55.6149 53.1767 55.3717 53.2672 55.0707C53.3621 54.7619 53.3927 54.3847 53.359 53.9391C53.3254 53.4936 53.2272 52.9665 53.0646 52.3579Z" fill="#161314"/>
<path d="M56.2576 46.2327L56.0679 45.5227C55.9315 45.0125 55.9179 44.5188 56.0269 44.0415C56.1359 43.5642 56.3621 43.1443 56.7056 42.7819C57.049 42.4196 57.5028 42.1626 58.0668 42.0111C58.6432 41.8562 59.1674 41.8505 59.6394 41.9938C60.1176 42.1355 60.5229 42.3857 60.8553 42.7444C61.1878 43.1031 61.4222 43.5375 61.5585 44.0477L61.7483 44.7577C61.8814 45.2557 61.8934 45.7433 61.7844 46.2206C61.6815 46.6962 61.4583 47.1152 61.1149 47.4776C60.7776 47.8383 60.3238 48.0953 59.7536 48.2485C59.1834 48.4017 58.6561 48.4082 58.1718 48.2682C57.6937 48.1265 57.2884 47.8764 56.9559 47.5177C56.6235 47.1589 56.3907 46.7306 56.2576 46.2327ZM57.3463 45.1793L57.536 45.8893C57.6116 46.1721 57.7352 46.4255 57.9068 46.6495C58.0845 46.8719 58.3051 47.0333 58.5685 47.1339C58.8303 47.2282 59.1268 47.231 59.4579 47.142C59.789 47.0531 60.0413 46.9029 60.2148 46.6916C60.3867 46.4741 60.4911 46.2254 60.5279 45.9454C60.5648 45.6653 60.5455 45.3839 60.4699 45.1012L60.2801 44.3912C60.2029 44.1023 60.0755 43.8466 59.8977 43.6242C59.7245 43.394 59.507 43.2318 59.2452 43.1374C58.9879 43.0352 58.6937 43.0286 58.3626 43.1175C58.0376 43.2048 57.7861 43.358 57.6081 43.5772C57.4346 43.7885 57.3271 44.0381 57.2858 44.3259C57.2489 44.6059 57.2691 44.8904 57.3463 45.1793ZM64.7991 52.0419L64.6069 51.3227C64.4722 50.8187 64.4593 50.328 64.5683 49.8507C64.6773 49.3734 64.9036 48.9536 65.247 48.5912C65.5905 48.2288 66.0442 47.9718 66.6083 47.8203C67.1847 47.6655 67.7088 47.6597 68.1809 47.803C68.659 47.9447 69.0643 48.1949 69.3968 48.5536C69.7292 48.9123 69.9628 49.3437 70.0975 49.8477L70.2897 50.567C70.4245 51.071 70.4373 51.5617 70.3283 52.039C70.2254 52.5146 70.0023 52.9337 69.6588 53.296C69.3215 53.6568 68.8677 53.9137 68.2975 54.0669C67.7273 54.2201 67.2031 54.2259 66.725 54.0842C66.2468 53.9425 65.8384 53.6931 65.4999 53.3361C65.1674 52.9774 64.9338 52.546 64.7991 52.0419ZM65.8853 50.9793L66.0775 51.6985C66.1531 51.9813 66.2775 52.2378 66.4507 52.4679C66.6284 52.6903 66.849 52.8518 67.1125 52.9523C67.3743 53.0467 67.6707 53.0494 68.0018 52.9605C68.3329 52.8715 68.5852 52.7214 68.7587 52.51C68.9368 52.2909 69.0442 52.0414 69.0811 51.7613C69.1179 51.4813 69.0978 51.1968 69.0206 50.9079L68.8283 50.1887C68.7511 49.8998 68.6237 49.6441 68.4459 49.4218C68.2743 49.1977 68.0576 49.0385 67.7958 48.9441C67.5385 48.842 67.2413 48.8362 66.904 48.9268C66.5791 49.0141 66.3276 49.1673 66.1496 49.3864C65.976 49.5977 65.8678 49.8442 65.8248 50.1259C65.7879 50.4059 65.8081 50.6904 65.8853 50.9793ZM65.5725 42.248L61.8378 54.4977L60.7187 54.1461L64.4533 41.8964L65.5725 42.248Z" fill="#161314"/>
</svg>
