<svg width="88" height="88" viewBox="0 0 88 88" fill="none" xmlns="http://www.w3.org/2000/svg">
<ellipse rx="42.2573" ry="42.3511" transform="matrix(0.96576 -0.259438 0.258201 0.966091 43.808 44.4167)" fill="#F9DD70"/>
<path d="M22.3186 48.9387L22.655 50.1974L18.5776 51.2927L18.2412 50.0341L22.3186 48.9387ZM17.8663 46.7162L19.9593 54.5476L18.3498 54.98L16.2568 47.1486L17.8663 46.7162ZM22.6142 45.4407L24.7073 53.2721L23.1032 53.7031L21.0101 45.8717L22.6142 45.4407Z" fill="#161314"/>
<path d="M31.8681 46.9556L31.9673 47.3268C32.1264 47.922 32.1887 48.4779 32.1543 48.9945C32.1198 49.511 32.0005 49.9755 31.7964 50.3877C31.5912 50.7964 31.3083 51.1434 30.9475 51.4286C30.5903 51.7129 30.1649 51.9213 29.6714 52.0539C29.1814 52.1855 28.709 52.2183 28.2543 52.1521C27.8032 52.085 27.3851 51.9263 27.0001 51.6762C26.6141 51.4224 26.2756 51.081 25.9846 50.6519C25.6971 50.2218 25.4739 49.7091 25.3148 49.1139L25.2156 48.7428C25.0555 48.1439 24.9932 47.588 25.0286 47.075C25.0631 46.5585 25.1824 46.0941 25.3865 45.6818C25.5942 45.2686 25.8767 44.9198 26.2339 44.6356C26.5947 44.3503 27.0201 44.1419 27.5101 44.0102C28.0037 43.8777 28.476 43.8449 28.9271 43.9121C29.3818 43.9782 29.8004 44.1387 30.1828 44.3934C30.5688 44.6471 30.9055 44.989 31.1929 45.4191C31.483 45.8446 31.7081 46.3568 31.8681 46.9556ZM30.3417 47.7635L30.2397 47.3816C30.1285 46.9656 29.9932 46.61 29.8337 46.3146C29.6743 46.0192 29.4925 45.7836 29.2884 45.6079C29.0842 45.4321 28.8623 45.3188 28.6225 45.2679C28.3817 45.2135 28.1255 45.2227 27.8536 45.2958C27.5818 45.3688 27.3553 45.4892 27.1739 45.6571C26.9952 45.8204 26.8613 46.0293 26.7722 46.2838C26.6866 46.5374 26.6485 46.8321 26.6577 47.1678C26.6669 47.5035 26.7271 47.8794 26.8383 48.2953L26.9403 48.6772C27.0506 49.0896 27.1859 49.4452 27.3463 49.7442C27.5057 50.0396 27.688 50.2769 27.8931 50.4563C28.0972 50.632 28.3197 50.7471 28.5604 50.8016C28.8011 50.8561 29.0574 50.8468 29.3292 50.7738C29.601 50.7008 29.8276 50.5803 30.0089 50.4125C30.1902 50.2446 30.3237 50.0339 30.4092 49.7803C30.4938 49.5232 30.5315 49.2267 30.5223 48.891C30.5121 48.5517 30.4519 48.1758 30.3417 47.7635Z" fill="#161314"/>
<path d="M36.7013 46.3664L34.6948 46.9054L34.3879 45.8002L36.0725 45.3477C36.3694 45.268 36.6025 45.165 36.772 45.0387C36.9404 44.9089 37.0515 44.758 37.1052 44.586C37.1615 44.4095 37.1609 44.2136 37.1034 43.9985C37.0383 43.7547 36.9391 43.5699 36.8058 43.4443C36.6762 43.3177 36.5057 43.2463 36.2943 43.2301C36.0865 43.2129 35.8324 43.2446 35.532 43.3253L34.4161 43.6251L36.1713 50.1925L34.5618 50.6248L32.4688 42.7935L35.1942 42.0613C35.6484 41.9393 36.0659 41.8733 36.4465 41.8633C36.8308 41.8523 37.1715 41.901 37.4689 42.0094C37.7662 42.1179 38.017 42.2888 38.2212 42.5222C38.4244 42.752 38.5749 43.0498 38.6727 43.4155C38.7589 43.7382 38.7652 44.0556 38.6913 44.3675C38.6211 44.6784 38.4534 44.9618 38.1882 45.2175C37.9267 45.4722 37.5497 45.6753 37.0573 45.8268L36.7013 46.3664ZM37.5501 49.8221L35.1734 50.4605L35.4648 49.0333L37.2137 48.5635C37.4963 48.4876 37.715 48.3808 37.8699 48.2431C38.0238 48.1018 38.1226 47.9408 38.1662 47.7599C38.2099 47.5791 38.2044 47.3865 38.1498 47.1821C38.0885 46.9526 37.9959 46.7642 37.8722 46.6168C37.7521 46.4684 37.596 46.372 37.4039 46.3275C37.2109 46.2794 36.9767 46.2924 36.7013 46.3664L35.1508 46.7829L34.8654 45.672L36.7968 45.1531L37.2834 45.4894C37.7572 45.3544 38.1624 45.3359 38.4991 45.4337C38.8383 45.5271 39.1111 45.694 39.3172 45.9346C39.5269 46.1742 39.6739 46.4518 39.7582 46.7673C39.8924 47.2693 39.8964 47.7217 39.7702 48.1246C39.6431 48.5238 39.3915 48.8662 39.0155 49.1517C38.643 49.4363 38.1546 49.6597 37.5501 49.8221Z" fill="#161314"/>
<path d="M42.8906 45.6664L44.6146 39.5307L46.2241 39.0983L48.3171 46.9297L46.7076 47.362L45.2931 42.0694L43.5691 48.2052L41.9597 48.6375L39.8666 40.8061L41.4761 40.3738L42.8906 45.6664Z" fill="#161314"/>
<path d="M54.1203 40.3957L54.4567 41.6543L50.3793 42.7496L50.0429 41.491L54.1203 40.3957ZM49.6679 38.1731L51.761 46.0045L50.1515 46.4369L48.0585 38.6055L49.6679 38.1731ZM54.4159 36.8977L56.509 44.7291L54.9048 45.16L52.8118 37.3286L54.4159 36.8977Z" fill="#161314"/>
<path d="M57.8705 35.9696L59.9636 43.801L58.3541 44.2334L56.261 36.402L57.8705 35.9696ZM62.4736 34.7331L60.7091 40.1361L58.7401 40.665L58.1525 39.2836L59.4669 38.9305L60.5208 35.2577L62.4736 34.7331ZM62.9089 43.0098L59.7842 40.0963L60.5925 38.6455L64.8188 42.4967L62.9089 43.0098Z" fill="#161314"/>
<path d="M67.3323 34.8633L66.9429 41.9261L65.2315 42.3859L66.0409 33.7748L67.13 33.4822L67.3323 34.8633ZM70.8325 40.8812L66.9675 34.9613L66.4379 33.6681L67.5377 33.3727L72.5493 40.42L70.8325 40.8812ZM69.9568 37.9919L70.2946 39.2559L66.169 40.3642L65.8312 39.1002L69.9568 37.9919Z" fill="#161314"/>
</svg>
