<svg width="32" height="32" viewBox="0 0 32 32" fill="none" xmlns="http://www.w3.org/2000/svg">
<path d="M1.07559 4.37683H4.40908L5.85568 7.66965M5.85568 7.66965H26.4614V16.2816L10.3068 17.8014M5.85568 7.66965L10.3068 17.8014M10.3068 17.8014C9.87941 17.8014 8.76825 17.9027 7.74256 18.308C6.46045 18.8146 5.69119 22.3607 9.53752 22.614C12.6146 22.8166 21.7603 22.6984 25.9485 22.614M25.9485 22.614C24.8156 22.614 23.8971 23.5212 23.8971 24.6403C23.8971 25.7594 24.8156 26.6667 25.9485 26.6667C27.0815 26.6667 27.9999 25.7594 27.9999 24.6403C27.9999 23.5212 27.0815 22.614 25.9485 22.614ZM9.53933 24.6403C9.53933 25.7594 8.6209 26.6667 7.48795 26.6667C6.35501 26.6667 5.43658 25.7594 5.43658 24.6403C5.43658 23.5212 6.35501 22.614 7.48795 22.614C8.6209 22.614 9.53933 23.5212 9.53933 24.6403Z" stroke="black" stroke-width="1.5"/>
</svg>
