<svg width="32" height="32" viewBox="0 0 32 32" fill="none" xmlns="http://www.w3.org/2000/svg">
<path d="M10.3181 12.1926C10.7255 16.6985 12.7629 21.2044 16.4301 21.2044C20.0974 21.2044 22.5422 15.4696 22.5422 12.6022M10.3181 11.3733C10.3181 9.30143 11.6343 5.97949 12.9676 5.31282C12.9676 5.31282 14.0943 5.20836 14.2862 5.20836L14.9675 3.97961H17.6343L18.3609 5.20836H19.5834C20.6699 6.02766 22.5422 8.50604 22.5422 11.7829M8.68819 11.7829H22.5422M22.5422 11.7829H24.1721M2.66669 28.0861C3.3231 24.6452 7.33335 21.2044 10.6667 21.3334C11.1234 21.7635 14.564 25.6488 15.7948 27.2259C17.1623 26.7958 20.6872 24.9893 22 21.2044C26.4616 21.3334 29.3334 24 30.6667 28.0861" stroke="black" stroke-width="1.5"/>
</svg>
