<svg width="227" height="48" viewBox="0 0 227 48" fill="none" xmlns="http://www.w3.org/2000/svg">
<g clip-path="url(#clip0_2_10865)">
<path fill-rule="evenodd" clip-rule="evenodd" d="M0 0H227V32H0V0Z" fill="#EF7800"/>
<path fill-rule="evenodd" clip-rule="evenodd" d="M-0.0383301 31.9187H226.913V48.0494H-0.0383301V31.9187Z" fill="black"/>
<path d="M24.1011 22.7801V19.5709C25.288 20.2718 26.63 20.6223 28.1233 20.6223C30.8578 20.6223 32.4014 19.3136 32.7584 16.6965H26.4748V13.7755H32.7817C32.3123 11.0843 30.7687 9.73678 28.1465 9.73678C26.6532 9.73678 25.3034 10.0562 24.1011 10.6949V7.37663C25.3655 6.9403 26.8394 6.72241 28.5189 6.72241C31.1059 6.72241 33.123 7.46997 34.5774 8.96562C36.0321 10.4613 36.7612 12.5487 36.7612 15.2245C36.7612 17.7596 36.0359 19.7928 34.5893 21.3352C33.1424 22.8734 31.1643 23.6446 28.6586 23.6446C26.8162 23.6446 25.2955 23.3564 24.1011 22.7801ZM50.1353 23.3602H46.5203V14.2194H44.5422C44.1271 17.7596 43.5025 20.1901 42.6726 21.5104C41.8425 22.8346 40.6826 23.4967 39.1893 23.4967C38.6734 23.4967 38.208 23.4226 37.793 23.2707V20.8172C38.0567 20.9379 38.3399 21 38.6348 21C39.3444 21 39.9381 20.3342 40.4072 19.0021C40.8766 17.6701 41.2996 15.2283 41.6795 11.6764H50.1353V23.3602ZM63.6102 18.5465H56.0194C56.1397 20.2406 57.2063 21.0896 59.2115 21.0896C60.4916 21.0896 61.6163 20.786 62.5862 20.1784V22.7801C61.5118 23.3564 60.1154 23.6446 58.3932 23.6446C56.5159 23.6446 55.0574 23.1228 54.0178 22.0751C52.9822 21.0313 52.4626 19.5709 52.4626 17.7013C52.4626 15.7617 53.0211 14.2235 54.1459 13.0901C55.2668 11.9567 56.644 11.392 58.2808 11.392C59.9757 11.392 61.2907 11.8983 62.2176 12.9069C63.1445 13.9196 63.6102 15.2945 63.6102 17.0276V18.5465ZM60.2822 16.3305C60.2822 14.6595 59.6071 13.8222 58.2573 13.8222C57.6833 13.8222 57.1831 14.0599 56.7642 14.5388C56.3413 15.018 56.0892 15.6176 55.9962 16.3305H60.2822ZM77.3604 23.3602H73.0509L69.3816 17.6546H69.3351V23.3602H65.7472V11.6764H69.3351V17.1638H69.3816L72.9617 11.6764H77.2245L72.9385 17.234L77.3604 23.3602ZM87.4606 14.4142H84.3461V23.3602H80.7311V14.4142H77.5969V11.6764H87.4606V14.4142ZM92.9723 22.001H92.9258V28.735H89.3379V11.6764H92.9258V13.4328H92.9723C93.8606 12.0736 95.1056 11.392 96.7116 11.392C98.2204 11.392 99.384 11.91 100.206 12.9498C101.029 13.9858 101.44 15.3995 101.44 17.1874C101.44 19.1345 100.959 20.6964 100.001 21.8765C99.0427 23.0566 97.7666 23.6446 96.1763 23.6446C94.7759 23.6446 93.7093 23.0994 92.9723 22.001ZM92.8715 17.2107V18.1452C92.8715 18.9517 93.081 19.6097 93.5077 20.1198C93.9303 20.6302 94.4889 20.8834 95.1794 20.8834C95.9939 20.8834 96.63 20.5678 97.08 19.9328C97.5299 19.2982 97.7588 18.3984 97.7588 17.234C97.7588 15.1775 96.9638 14.1532 95.3694 14.1532C94.6365 14.1532 94.0352 14.4297 93.5698 14.9906C93.1042 15.5514 92.8715 16.2914 92.8715 17.2107ZM109.314 23.6446C107.374 23.6446 105.85 23.0994 104.741 22.0089C103.631 20.9184 103.077 19.4344 103.077 17.5651C103.077 15.6334 103.651 14.1182 104.803 13.0277C105.955 11.9374 107.514 11.392 109.473 11.392C111.404 11.392 112.921 11.9374 114.018 13.0277C115.116 14.1182 115.667 15.5631 115.667 17.3586C115.667 19.2982 115.101 20.8326 113.968 21.9582C112.836 23.0837 111.284 23.6446 109.314 23.6446ZM109.407 14.1532C108.557 14.1532 107.898 14.4454 107.428 15.0296C106.959 15.6176 106.723 16.4471 106.723 17.5184C106.723 19.7616 107.626 20.8834 109.43 20.8834C111.148 20.8834 112.009 19.7304 112.009 17.4286C112.009 15.2437 111.14 14.1532 109.407 14.1532ZM136.919 23.3602H133.292V13.569C133.292 12.5137 133.339 11.3453 133.428 10.0678H133.339C133.149 11.0726 132.978 11.793 132.827 12.2372L129.01 23.3602H126.008L122.121 12.3501C122.017 12.0541 121.846 11.2908 121.609 10.0678H121.508C121.605 11.6802 121.656 13.0939 121.656 14.313V23.3602H118.347V6.99891H123.723L127.055 16.6965C127.319 17.4715 127.513 18.2505 127.633 19.0371H127.703C127.905 18.1298 128.122 17.3431 128.351 16.6732L131.679 6.99891H136.919V23.3602ZM149.951 23.3602H146.554V21.6817H146.507C145.728 22.9904 144.572 23.6446 143.04 23.6446C141.911 23.6446 141.023 23.3252 140.375 22.6827C139.727 22.0401 139.405 21.1794 139.405 20.1081C139.405 17.8416 140.743 16.5329 143.416 16.1823L146.577 15.7617C146.577 14.4842 145.887 13.8458 144.506 13.8458C143.121 13.8458 141.802 14.2585 140.553 15.088V12.3734C141.054 12.1124 141.736 11.8867 142.605 11.688C143.47 11.4894 144.261 11.392 144.975 11.392C148.291 11.392 149.951 13.0551 149.951 16.3771V23.3602ZM146.577 18.6128V17.8259L144.463 18.0986C143.296 18.2505 142.714 18.7802 142.714 19.6876C142.714 20.0965 142.853 20.4354 143.137 20.6964C143.424 20.9572 143.808 21.0896 144.292 21.0896C144.967 21.0896 145.514 20.856 145.941 20.3887C146.364 19.9212 146.577 19.3294 146.577 18.6128ZM156.429 22.001H156.383V28.735H152.795V11.6764H156.383V13.4328H156.429C157.317 12.0736 158.562 11.392 160.168 11.392C161.677 11.392 162.841 11.91 163.663 12.9498C164.485 13.9858 164.896 15.3995 164.896 17.1874C164.896 19.1345 164.415 20.6964 163.457 21.8765C162.499 23.0566 161.223 23.6446 159.633 23.6446C158.233 23.6446 157.166 23.0994 156.429 22.001ZM156.328 17.2107V18.1452C156.328 18.9517 156.538 19.6097 156.964 20.1198C157.387 20.6302 157.946 20.8834 158.636 20.8834C159.451 20.8834 160.087 20.5678 160.537 19.9328C160.987 19.2982 161.216 18.3984 161.216 17.234C161.216 15.1775 160.42 14.1532 158.826 14.1532C158.093 14.1532 157.492 14.4297 157.026 14.9906C156.561 15.5514 156.328 16.2914 156.328 17.2107ZM178.84 23.3602H174.531L170.862 17.6546H170.815V23.3602H167.228V11.6764H170.815V17.1638H170.862L174.442 11.6764H178.705L174.419 17.234L178.84 23.3602ZM190.314 18.5465H182.723C182.844 20.2406 183.91 21.0896 185.916 21.0896C187.195 21.0896 188.32 20.786 189.29 20.1784V22.7801C188.216 23.3564 186.819 23.6446 185.097 23.6446C183.22 23.6446 181.761 23.1228 180.722 22.0751C179.686 21.0313 179.166 19.5709 179.166 17.7013C179.166 15.7617 179.725 14.2235 180.85 13.0901C181.971 11.9567 183.348 11.392 184.985 11.392C186.68 11.392 187.995 11.8983 188.921 12.9069C189.849 13.9196 190.314 15.2945 190.314 17.0276V18.5465ZM186.986 16.3305C186.986 14.6595 186.311 13.8222 184.961 13.8222C184.387 13.8222 183.887 14.0599 183.468 14.5388C183.045 15.018 182.793 15.6176 182.7 16.3305H186.986ZM201.155 14.4142H198.041V23.3602H194.425V14.4142H191.291V11.6764H201.155V14.4142Z" fill="white"/>
<path fill-rule="evenodd" clip-rule="evenodd" d="M207.894 5.0542C210.233 5.0542 212.129 6.95796 212.129 9.30645C212.129 11.6547 210.233 13.5584 207.894 13.5584C205.555 13.5584 203.659 11.6547 203.659 9.30645C203.659 6.95796 205.555 5.0542 207.894 5.0542Z" stroke="#FEFEFE" stroke-width="0.944882" stroke-miterlimit="22.9256"/>
<path d="M210.496 11.8517H209.19L208.406 10.5481C208.347 10.4491 208.29 10.3612 208.236 10.2827C208.182 10.2057 208.128 10.1392 208.073 10.0838C208.018 10.0282 207.96 9.98616 207.9 9.95604C207.84 9.92701 207.775 9.91263 207.706 9.91263H207.399V11.8517H206.262V6.78564H208.063C209.288 6.78564 209.901 7.24503 209.901 8.16272C209.901 8.33991 209.874 8.50272 209.82 8.65223C209.765 8.80201 209.69 8.93687 209.591 9.05762C209.493 9.17701 209.374 9.28066 209.234 9.36749C209.094 9.45541 208.939 9.52297 208.767 9.57236V9.58701C208.843 9.61116 208.915 9.64834 208.986 9.70152C209.057 9.7547 209.124 9.81603 209.19 9.88712C209.256 9.95848 209.319 10.0345 209.379 10.115C209.439 10.1959 209.493 10.2757 209.542 10.3538L210.496 11.8517ZM207.399 7.64065V9.05029H207.892C208.136 9.05029 208.331 8.9792 208.479 8.8381C208.629 8.69456 208.705 8.51601 208.705 8.30491C208.705 7.86126 208.441 7.64065 207.912 7.64065H207.399Z" fill="#FEFEFE"/>
<path d="M55.1288 42.3614V41.1873C55.5631 41.4437 56.0538 41.5721 56.6002 41.5721C57.6007 41.5721 58.1652 41.0931 58.2957 40.1358H55.9971V39.0673H58.3044C58.1328 38.0828 57.568 37.5898 56.6086 37.5898C56.0625 37.5898 55.5687 37.7068 55.1288 37.9404V36.7264C55.5914 36.5668 56.1306 36.4871 56.7448 36.4871C57.6915 36.4871 58.4292 36.7606 58.9613 37.3079C59.4934 37.8549 59.7601 38.6185 59.7601 39.5972C59.7601 40.5249 59.4948 41.2684 58.9656 41.8328C58.4362 42.3956 57.7125 42.6775 56.7959 42.6775C56.1219 42.6775 55.5658 42.5722 55.1288 42.3614ZM65.5705 42.5736H64.2282V37.7108H63.0349C62.7144 40.0034 62.4136 41.4011 62.1339 41.9039C61.8531 42.4054 61.4288 42.6577 60.857 42.6577C60.6157 42.6577 60.3746 42.6178 60.1333 42.5408V41.4638C60.2952 41.5192 60.4327 41.5463 60.549 41.5463C60.6625 41.5463 60.7632 41.5107 60.8513 41.438C60.9378 41.3653 61.0343 41.1745 61.1394 40.8625C61.2456 40.5505 61.3721 40.0135 61.5196 39.2483C61.6685 38.4847 61.8104 37.5985 61.9466 36.5883H65.5705V42.5736ZM70.5099 42.5736H66.9341V36.5883H70.3724V37.6853H68.278V39.0174H70.2275V40.1103H68.278V41.4793H70.5099V42.5736ZM76.4211 42.5736H74.724L72.9872 39.9736C72.9531 39.9236 72.9007 39.8124 72.8283 39.6428H72.8086V42.5736H71.4647V36.5883H72.8086V39.4179H72.8283C72.8623 39.3394 72.9177 39.2282 72.9958 39.0844L74.6419 36.5883H76.2422L74.1635 39.4434L76.4211 42.5736ZM81.1773 37.6853H79.4762V42.5736H78.1296V37.6853H76.4381V36.5883H81.1773V37.6853ZM83.3227 40.5119V42.5736H81.9791V36.5883H84.0832C85.586 36.5883 86.3364 37.2238 86.3364 38.4961C86.3364 39.0971 86.1208 39.5831 85.6895 39.9549C85.2582 40.3252 84.6834 40.5119 83.9626 40.5119H83.3227ZM83.3227 37.6226V39.489H83.8505C84.5658 39.489 84.9233 39.1742 84.9233 38.5458C84.9233 37.9303 84.5658 37.6226 83.8505 37.6226H83.3227ZM92.5727 42.5736H91.3042V39.2838C91.3042 38.9064 91.3183 38.5829 91.3466 38.3165H91.3212C91.2631 38.4304 91.1637 38.5957 91.0218 38.8122L88.5613 42.5736H87.2093V36.5883H88.4778V39.8979C88.4778 40.3068 88.4664 40.5819 88.4451 40.72H88.4608C88.4748 40.6872 88.577 40.5249 88.7686 40.2314L91.134 36.5883H92.5727V42.5736ZM98.8955 42.5736H97.1984L95.4615 39.9736C95.4275 39.9236 95.3751 39.8124 95.3027 39.6428H95.2829V42.5736H93.939V36.5883H95.2829V39.4179H95.3027C95.3367 39.3394 95.3921 39.2282 95.4702 39.0844L97.1159 36.5883H98.7166L96.6379 39.4434L98.8955 42.5736ZM104.707 42.5736H103.244L102.82 41.2416H100.7L100.28 42.5736H98.8244L100.995 36.5883H102.587L104.707 42.5736ZM102.512 40.2072L101.872 38.1955C101.825 38.0443 101.791 37.865 101.772 37.6568H101.739C101.725 37.8321 101.691 38.0058 101.635 38.1784L100.987 40.2072H102.512ZM113.408 44.2063H112.228V42.5736H108.445V44.2063H107.28V41.4722H107.833C108.604 40.0718 109.029 38.4448 109.109 36.5883H112.56V41.4722H113.408V44.2063ZM111.213 41.4722V37.7108H110.198C110.167 38.2652 110.062 38.8879 109.882 39.5801C109.702 40.274 109.479 40.9037 109.214 41.4722H111.213ZM119.247 42.5736H117.905V37.7108H116.711C116.391 40.0034 116.09 41.4011 115.81 41.9039C115.529 42.4054 115.105 42.6577 114.533 42.6577C114.292 42.6577 114.051 42.6178 113.81 42.5408V41.4638C113.972 41.5192 114.109 41.5463 114.226 41.5463C114.339 41.5463 114.44 41.5107 114.528 41.438C114.614 41.3653 114.711 41.1745 114.816 40.8625C114.922 40.5505 115.048 40.0135 115.196 39.2483C115.345 38.4847 115.487 37.5985 115.623 36.5883H119.247V42.5736ZM124.697 42.5736H123.35V40.2484H122.993C122.661 40.2484 122.389 40.5022 122.178 41.0079L121.53 42.5736H119.979L120.815 40.7871C121.05 40.284 121.36 39.9706 121.741 39.8479V39.8308C120.863 39.623 120.425 39.1115 120.425 38.2994C120.425 37.7624 120.618 37.3434 121.006 37.0414C121.394 36.7394 121.94 36.5883 122.644 36.5883H124.697V42.5736ZM123.35 39.2382V37.6156H122.79C122.16 37.6156 121.847 37.8777 121.847 38.4033C121.847 38.654 121.932 38.8564 122.102 39.0089C122.272 39.1614 122.502 39.2382 122.79 39.2382H123.35ZM133.365 42.5736H131.668L129.931 39.9736C129.897 39.9236 129.845 39.8124 129.773 39.6428H129.753V42.5736H128.409V36.5883H129.753V39.4179H129.773C129.807 39.3394 129.862 39.2282 129.94 39.0844L131.586 36.5883H133.187L131.108 39.4434L133.365 42.5736ZM139.177 42.5736H137.714L137.29 41.2416H135.17L134.75 42.5736H133.294L135.465 36.5883H137.057L139.177 42.5736ZM136.982 40.2072L136.342 38.1955C136.295 38.0443 136.261 37.865 136.242 37.6568H136.209C136.195 37.8321 136.16 38.0058 136.105 38.1784L135.457 40.2072H136.982ZM147.932 42.5736H146.262L144.502 39.9934C144.455 39.928 144.402 39.8268 144.341 39.6927H144.325V42.5736H143.011V39.6927H142.994C142.966 39.7568 142.912 39.858 142.832 39.9934L141.07 42.5736H139.403L141.676 39.452L139.573 36.5883H141.174L142.832 39.0931C142.902 39.1983 142.956 39.2895 142.994 39.3679H143.011V36.5883H144.325V39.3679H144.341C144.38 39.2868 144.434 39.1956 144.502 39.0931L146.161 36.5883H147.762L145.659 39.452L147.932 42.5736ZM154.618 44.2063H153.437V42.5736H149.655V44.2063H148.49V41.4722H149.043C149.813 40.0718 150.239 38.4448 150.319 36.5883H153.769V41.4722H154.618V44.2063ZM152.423 41.4722V37.7108H151.408C151.377 38.2652 151.272 38.8879 151.092 39.5801C150.912 40.274 150.689 40.9037 150.424 41.4722H152.423ZM158.125 42.6775C157.271 42.6775 156.576 42.3983 156.038 41.8412C155.5 41.2828 155.232 40.5562 155.232 39.6599C155.232 38.714 155.505 37.9488 156.051 37.3649C156.597 36.7807 157.32 36.4871 158.221 36.4871C159.072 36.4871 159.76 36.7679 160.285 37.3263C160.81 37.8861 161.073 38.6242 161.073 39.5389C161.073 40.4794 160.8 41.2386 160.255 41.8141C159.712 42.3899 159.001 42.6775 158.125 42.6775ZM158.184 37.6481C157.713 37.6481 157.338 37.8251 157.061 38.1811C156.785 38.536 156.646 39.0046 156.646 39.5888C156.646 40.1814 156.785 40.6503 157.061 40.9963C157.338 41.3412 157.701 41.5135 158.149 41.5135C158.613 41.5135 158.98 41.3455 159.252 41.0107C159.523 40.6745 159.659 40.2099 159.659 39.6143C159.659 38.9932 159.527 38.5102 159.265 38.1653C159.001 37.8207 158.641 37.6481 158.184 37.6481ZM165.612 37.7024H163.405V42.5736H162.061V36.5883H165.612V37.7024ZM168.776 42.6775C167.922 42.6775 167.227 42.3983 166.689 41.8412C166.151 41.2828 165.883 40.5562 165.883 39.6599C165.883 38.714 166.155 37.9488 166.701 37.3649C167.248 36.7807 167.97 36.4871 168.871 36.4871C169.722 36.4871 170.41 36.7679 170.936 37.3263C171.461 37.8861 171.723 38.6242 171.723 39.5389C171.723 40.4794 171.451 41.2386 170.906 41.8141C170.362 42.3899 169.651 42.6775 168.776 42.6775ZM168.834 37.6481C168.363 37.6481 167.988 37.8251 167.712 38.1811C167.435 38.536 167.296 39.0046 167.296 39.5888C167.296 40.1814 167.435 40.6503 167.712 40.9963C167.988 41.3412 168.352 41.5135 168.8 41.5135C169.264 41.5135 169.63 41.3455 169.902 41.0107C170.173 40.6745 170.31 40.2099 170.31 39.6143C170.31 38.9932 170.178 38.5102 169.915 38.1653C169.651 37.8207 169.291 37.6481 168.834 37.6481Z" fill="#FEFEFE"/>
</g>
<defs>
<clipPath id="clip0_2_10865">
<rect width="227" height="48" fill="white"/>
</clipPath>
</defs>
</svg>
