<svg width="126" height="124" viewBox="0 0 126 124" fill="none" xmlns="http://www.w3.org/2000/svg">
<rect x="22.6055" y="37.8249" width="82" height="46" rx="23" transform="rotate(1.91177 22.6055 37.8249)" fill="#FF6B00"/>
<path d="M87.4311 50.8143C88.8475 51.4657 90.1727 52.5802 91.1195 53.917L88.9893 55.0332C87.7446 55.6854 87.0648 56.0387 86.6949 56.2164C86.6209 56.1146 86.5325 56.0015 86.4393 55.8876C86.2052 55.6017 85.9084 55.2722 85.6828 55.0722C84.4592 53.9877 82.7875 53.654 81.395 53.9132C80.0152 54.1701 78.7438 55.0606 78.6279 56.5669C78.593 57.0218 78.619 57.4565 78.7812 57.8726C78.9452 58.2931 79.2303 58.6492 79.6383 58.9783C80.425 59.6129 81.7594 60.2135 83.8493 61.0268C89.7012 63.3043 91.6904 64.8368 92.5805 67.2998L93.0507 67.1298L92.5805 67.2998C93.2665 69.1978 93.0508 71.6466 92.0807 73.2422L92.508 73.5019L92.0807 73.2422C91.1217 74.8198 89.3331 76.0164 87.0105 76.6775C84.6929 77.3371 81.8839 77.45 78.9584 76.8938C75.398 76.2168 72.3366 74.2722 70.8755 71.8666L73.1053 70.8125C73.8524 70.4593 74.5375 70.1389 75.0392 69.9072C75.2411 69.814 75.4124 69.7355 75.5458 69.6752C75.5877 69.7269 75.6331 69.7847 75.6796 69.8461C76.4998 70.9277 77.4104 71.7323 78.481 72.2697C79.5512 72.8068 80.7525 73.0626 82.1339 73.0881C83.7045 73.117 85.0375 72.8099 85.9551 72.1892C86.9004 71.5498 87.3899 70.5792 87.2015 69.4202C87.1372 69.0248 87.0214 68.6557 86.794 68.3046C86.5682 67.9559 86.2517 67.6547 85.8281 67.3648C84.9996 66.7977 83.6742 66.2186 81.5833 65.403L81.4016 65.8688L81.5833 65.403C78.7783 64.309 77.5102 63.7067 76.4019 62.9649C74.0151 61.3675 72.9073 59.3444 72.955 56.7859C73.0255 52.9975 76.1856 50.1735 81.1611 49.8568C83.438 49.7119 85.8627 50.0929 87.4311 50.8143ZM59.8059 71.1891L59.8059 71.189C59.8266 71.1565 59.8504 71.1216 59.876 71.0842C59.9707 70.9454 60.0901 70.7704 60.1701 70.5394C60.2704 70.2494 60.3247 69.8578 60.367 69.1965C60.4412 68.0371 60.4854 65.8801 60.573 61.6005C60.5864 60.9481 60.6007 60.2463 60.6164 59.4911L60.8176 49.7711L63.6781 49.8244L66.5376 49.8776L66.3586 59.4957C66.1633 69.9913 66.1509 70.1316 65.8652 71.2306L66.3491 71.3564L65.8652 71.2306C65.3941 73.0429 64.3483 74.4295 62.8029 75.3605C61.2474 76.2976 59.1575 76.7889 56.5902 76.7411C52.2484 76.6603 49.166 75.0663 47.2855 72.0382C47.4033 71.9795 47.5406 71.9113 47.6929 71.8358C48.2 71.5844 48.8718 71.2532 49.5445 70.9225C50.2173 70.5918 50.8906 70.2618 51.4008 70.013C51.6237 69.9044 51.815 69.8114 51.9615 69.7407C51.9916 69.7845 52.0256 69.8359 52.0636 69.8955L52.0636 69.8956C52.6452 70.8083 53.2442 71.4838 53.9621 71.9305C54.6872 72.3818 55.4913 72.5734 56.436 72.591C58.018 72.6204 59.1372 72.2413 59.8059 71.1891ZM52.257 69.6002C52.2569 69.6003 52.2547 69.6013 52.2509 69.6029C52.2551 69.601 52.257 69.6002 52.257 69.6002ZM46.8284 72.2495L46.8971 72.2074L46.8284 72.2495Z" stroke="white"/>
<path d="M39.0712 73.5265C39.0455 74.907 37.9055 76.0052 36.5251 75.9795C35.1446 75.9539 34.0463 74.8139 34.072 73.4335C34.0977 72.053 35.2376 70.9547 36.6181 70.9804C37.9986 71.0061 39.0968 72.146 39.0712 73.5265Z" stroke="white"/>
</svg>
