<svg width="129" height="46" viewBox="0 0 129 46" fill="none" xmlns="http://www.w3.org/2000/svg">
<rect x="0.776367" width="127.272" height="46" rx="23" fill="#FF6B00"/>
<path d="M21.0566 31.2645C21.8555 32.3907 21.5902 33.9512 20.4641 34.7501C19.338 35.5489 17.7774 35.2837 16.9786 34.1575C16.1797 33.0314 16.445 31.4709 17.5711 30.672C18.6972 29.8731 20.2577 30.1384 21.0566 31.2645Z" stroke="white"/>
<path d="M44.6851 34L43.8668 34.5747L44.1655 35H44.6851V34ZM40.1551 27.55L40.9735 26.9753L40.6483 26.5122L40.0839 26.5525L40.1551 27.55ZM33.6451 27.61V26.61H32.6451V27.61H33.6451ZM33.6451 34V35H34.6451V34H33.6451ZM30.6451 34H29.6451V35H30.6451V34ZM30.6451 13V12H29.6451V13H30.6451ZM46.3951 24.46L47.2137 25.0344L47.2137 25.0344L46.3951 24.46ZM42.9751 26.95L42.6436 26.0065L41.3944 26.4455L42.1583 27.527L42.9751 26.95ZM47.9551 34V35H49.8858L48.7719 33.423L47.9551 34ZM43.0951 16.84L42.461 17.6133L42.4704 17.6209L43.0951 16.84ZM33.6451 15.61V14.61H32.6451V15.61H33.6451ZM33.6451 25.06H32.6451V26.06H33.6451V25.06ZM45.5035 33.4253L40.9735 26.9753L39.3368 28.1247L43.8668 34.5747L45.5035 33.4253ZM40.0839 26.5525C39.5328 26.5919 39.1201 26.61 38.8351 26.61V28.61C39.1901 28.61 39.6574 28.5881 40.2264 28.5475L40.0839 26.5525ZM38.8351 26.61H33.6451V28.61H38.8351V26.61ZM32.6451 27.61V34H34.6451V27.61H32.6451ZM33.6451 33H30.6451V35H33.6451V33ZM31.6451 34V13H29.6451V34H31.6451ZM30.6451 14H38.8351V12H30.6451V14ZM38.8351 14C41.401 14 43.2877 14.6122 44.6149 15.7182L45.8953 14.1818C44.1026 12.6878 41.7093 12 38.8351 12V14ZM44.6149 15.7182C45.9172 16.8034 46.5951 18.2958 46.5951 20.32H48.5951C48.5951 17.7842 47.713 15.6966 45.8953 14.1818L44.6149 15.7182ZM46.5951 20.32C46.5951 21.769 46.2401 22.9401 45.5766 23.8856L47.2137 25.0344C48.1502 23.6999 48.5951 22.111 48.5951 20.32H46.5951ZM45.5766 23.8856C44.9113 24.8335 43.9527 25.5466 42.6436 26.0065L43.3066 27.8935C44.9576 27.3134 46.2789 26.3664 47.2137 25.0344L45.5766 23.8856ZM42.1583 27.527L47.1383 34.577L48.7719 33.423L43.7919 26.373L42.1583 27.527ZM47.9551 33H44.6851V35H47.9551V33ZM38.7451 26.06C40.7712 26.06 42.4832 25.625 43.7292 24.6033L42.461 23.0567C41.707 23.675 40.519 24.06 38.7451 24.06V26.06ZM43.7292 24.6033C45.0026 23.5591 45.5951 22.0811 45.5951 20.32H43.5951C43.5951 21.5989 43.1877 22.4609 42.461 23.0567L43.7292 24.6033ZM45.5951 20.32C45.5951 18.5595 45.0024 17.0852 43.7198 16.0591L42.4704 17.6209C43.1878 18.1948 43.5951 19.0405 43.5951 20.32H45.5951ZM43.7292 16.0667C42.4832 15.045 40.7712 14.61 38.7451 14.61V16.61C40.519 16.61 41.707 16.995 42.461 17.6133L43.7292 16.0667ZM38.7451 14.61H33.6451V16.61H38.7451V14.61ZM32.6451 15.61V25.06H34.6451V15.61H32.6451ZM33.6451 26.06H38.7451V24.06H33.6451V26.06ZM65.678 27.709V28.709H66.573L66.6719 27.8194L65.678 27.709ZM54.068 27.709V26.709H52.9312L53.0762 27.8365L54.068 27.709ZM55.715 30.76L55.0777 31.5306L55.0857 31.5373L55.0939 31.5437L55.715 30.76ZM63.383 30.166L64.1431 29.5162L63.4049 28.6527L62.642 29.4945L63.383 30.166ZM64.814 31.84L65.5732 32.4908L66.1303 31.8409L65.5741 31.1902L64.814 31.84ZM62.384 33.568L62.0067 32.6419L62.0006 32.6444L62.384 33.568ZM55.148 33.244L54.6739 34.1245L54.6845 34.1301L55.148 33.244ZM52.421 30.625L51.5501 31.1166L51.5562 31.1271L52.421 30.625ZM52.394 23.092L51.5231 22.6004L51.5172 22.6112L52.394 23.092ZM54.959 20.5L55.452 21.37L55.4567 21.3674L54.959 20.5ZM62.303 20.5L61.7928 21.3601L61.8013 21.3651L61.81 21.37L62.303 20.5ZM64.814 23.092L63.9312 23.5619L63.9372 23.5728L64.814 23.092ZM55.526 22.876L54.8596 22.1303L54.8517 22.1375L55.526 22.876ZM54.068 25.846L53.0748 25.7292L52.9434 26.846H54.068V25.846ZM63.248 25.846V26.846H64.3745L64.2409 25.7274L63.248 25.846ZM61.763 22.903L61.0801 23.6335L61.0883 23.6412L61.0967 23.6487L61.763 22.903ZM64.732 26.926C64.732 27.0712 64.7183 27.2911 64.6841 27.5986L66.6719 27.8194C66.7097 27.4789 66.732 27.1768 66.732 26.926H64.732ZM65.678 26.709H54.068V28.709H65.678V26.709ZM53.0762 27.8365C53.2689 29.3354 53.9366 30.587 55.0777 31.5306L56.3523 29.9894C55.6214 29.385 55.1911 28.6026 55.0598 27.5815L53.0762 27.8365ZM55.0939 31.5437C56.2511 32.4608 57.6588 32.894 59.252 32.894V30.894C58.0372 30.894 57.0869 30.5712 56.3361 29.9763L55.0939 31.5437ZM59.252 32.894C61.2128 32.894 62.8703 32.2209 64.124 30.8375L62.642 29.4945C61.8077 30.4151 60.7112 30.894 59.252 30.894V32.894ZM62.6229 30.8158L64.0539 32.4898L65.5741 31.1902L64.1431 29.5162L62.6229 30.8158ZM64.0547 31.1892C63.5159 31.8178 62.8395 32.3026 62.0067 32.6419L62.7613 34.4941C63.8725 34.0414 64.816 33.3742 65.5732 32.4908L64.0547 31.1892ZM62.0006 32.6444C61.185 32.983 60.247 33.162 59.171 33.162V35.162C60.471 35.162 61.675 34.945 62.7674 34.4916L62.0006 32.6444ZM59.171 33.162C57.7968 33.162 56.6189 32.8849 55.6115 32.3579L54.6845 34.1301C56.0171 34.8271 57.5212 35.162 59.171 35.162V33.162ZM55.6221 32.3635C54.6097 31.8184 53.8381 31.0742 53.2858 30.1229L51.5562 31.1271C52.2998 32.4078 53.3463 33.4096 54.6739 34.1245L55.6221 32.3635ZM53.2918 30.1334C52.7544 29.1815 52.476 28.0936 52.476 26.845H50.476C50.476 28.4044 50.8276 29.8365 51.5502 31.1166L53.2918 30.1334ZM52.476 26.845C52.476 25.6117 52.7467 24.5286 53.2708 23.5728L51.5172 22.6112C50.8173 23.8874 50.476 25.3062 50.476 26.845H52.476ZM53.2648 23.5836C53.8086 22.6203 54.5352 21.8895 55.452 21.37L54.466 19.63C53.2227 20.3345 52.2394 21.3317 51.5232 22.6004L53.2648 23.5836ZM55.4567 21.3674C56.3911 20.8312 57.4501 20.555 58.658 20.555V18.555C57.1299 18.555 55.7229 18.9088 54.4613 19.6326L55.4567 21.3674ZM58.658 20.555C59.8663 20.555 60.9015 20.8313 61.7928 21.3601L62.8132 19.6399C61.5805 18.9087 60.1856 18.555 58.658 18.555V20.555ZM61.81 21.37C62.7215 21.8865 63.4248 22.6103 63.9312 23.5618L65.6967 22.6221C65.0152 21.3417 64.0445 20.3374 62.796 19.63L61.81 21.37ZM63.9372 23.5728C64.4582 24.523 64.732 25.6317 64.732 26.926H66.732C66.732 25.3403 66.3938 23.893 65.6908 22.6112L63.9372 23.5728ZM58.658 20.742C57.1953 20.742 55.9069 21.1945 54.8597 22.1303L56.1923 23.6217C56.8371 23.0455 57.6366 22.742 58.658 22.742V20.742ZM54.8517 22.1375C53.8281 23.0722 53.2439 24.2918 53.0748 25.7292L55.0611 25.9628C55.18 24.9522 55.5679 24.1918 56.2003 23.6145L54.8517 22.1375ZM54.068 26.846H63.248V24.846H54.068V26.846ZM64.2409 25.7274C64.0703 24.2981 63.4704 23.0876 62.4293 22.1573L61.0967 23.6487C61.7476 24.2304 62.1377 24.9819 62.255 25.9646L64.2409 25.7274ZM62.4459 22.1725C61.4142 21.2081 60.1271 20.742 58.658 20.742V22.742C59.6729 22.742 60.4558 23.0499 61.0801 23.6335L62.4459 22.1725ZM79.6277 21.013L78.9463 21.7449L78.9525 21.7507L79.6277 21.013ZM81.2207 34V35H82.2207V34H81.2207ZM78.7637 34H77.7637V35H78.7637V34ZM78.7637 32.11H79.7637V28.7307L77.9247 31.5658L78.7637 32.11ZM76.9007 33.649L77.2972 34.5671L77.3068 34.5628L76.9007 33.649ZM70.2047 33.001L69.5746 33.7776L69.5818 33.7833L70.2047 33.001ZM70.1507 26.926L70.7865 27.698L70.7953 27.6905L70.1507 26.926ZM78.6287 25.765V26.765H79.6287V25.765H78.6287ZM77.6567 22.687L78.3324 21.9498L77.6567 22.687ZM72.3107 22.228L72.6269 23.1767L72.6364 23.1735L72.6457 23.1702L72.3107 22.228ZM70.2587 23.335L69.3845 23.8206L69.973 24.8798L70.9013 24.1012L70.2587 23.335ZM69.1787 21.391L68.5517 20.612L67.8954 21.1402L68.3046 21.8766L69.1787 21.391ZM71.8247 20.041L72.1105 20.9993L72.1182 20.997L72.1258 20.9946L71.8247 20.041ZM77.0627 31.516L77.5772 32.3735L77.585 32.3688L77.5927 32.364L77.0627 31.516ZM78.6287 29.626L79.5572 29.9974L79.6287 29.8186V29.626H78.6287ZM78.6287 27.628H79.6287V26.628H78.6287V27.628ZM75.0917 20.555C76.9177 20.555 78.1488 21.0024 78.9463 21.7449L80.3091 20.2811C79.0186 19.0796 77.2257 18.555 75.0917 18.555V20.555ZM78.9525 21.7507C79.7443 22.4753 80.2207 23.6154 80.2207 25.36H82.2207C82.2207 23.2526 81.6352 21.4947 80.3029 20.2753L78.9525 21.7507ZM80.2207 25.36V34H82.2207V25.36H80.2207ZM81.2207 33H78.7637V35H81.2207V33ZM79.7637 34V32.11H77.7637V34H79.7637ZM77.9247 31.5658C77.6102 32.0507 77.1489 32.4444 76.4946 32.7352L77.3068 34.5628C78.2725 34.1336 79.0532 33.5013 79.6027 32.6542L77.9247 31.5658ZM76.5043 32.7309C75.8666 33.0063 75.0631 33.162 74.0657 33.162V35.162C75.2643 35.162 76.3508 34.9757 77.2971 34.5671L76.5043 32.7309ZM74.0657 33.162C72.6237 33.162 71.5769 32.8154 70.8276 32.2187L69.5818 33.7833C70.7765 34.7346 72.3037 35.162 74.0657 35.162V33.162ZM70.8347 32.2244C70.1217 31.6459 69.7737 30.9176 69.7737 29.95H67.7737C67.7737 31.5024 68.3798 32.8081 69.5747 33.7776L70.8347 32.2244ZM69.7737 29.95C69.7737 28.9684 70.1144 28.2514 70.7864 27.6979L69.515 26.1541C68.351 27.1126 67.7737 28.4116 67.7737 29.95H69.7737ZM70.7953 27.6905C71.4468 27.1412 72.6179 26.765 74.5247 26.765V24.765C72.4355 24.765 70.6906 25.1628 69.5061 26.1615L70.7953 27.6905ZM74.5247 26.765H78.6287V24.765H74.5247V26.765ZM79.6287 25.765V25.252H77.6287V25.765H79.6287ZM79.6287 25.252C79.6287 23.9362 79.2398 22.7816 78.3324 21.9498L76.981 23.4242C77.3697 23.7804 77.6287 24.3358 77.6287 25.252H79.6287ZM78.3324 21.9498C77.4336 21.1259 76.1972 20.796 74.7947 20.796V22.796C75.9122 22.796 76.5838 23.0601 76.981 23.4242L78.3324 21.9498ZM74.7947 20.796C73.8327 20.796 72.8915 20.9602 71.9757 21.2858L72.6457 23.1702C73.3499 22.9198 74.0647 22.796 74.7947 22.796V20.796ZM71.9945 21.2793C71.0854 21.5823 70.2855 22.0073 69.6161 22.5688L70.9013 24.1012C71.3479 23.7266 71.916 23.4137 72.6269 23.1767L71.9945 21.2793ZM71.1329 22.8494L70.0529 20.9054L68.3046 21.8766L69.3845 23.8206L71.1329 22.8494ZM69.8057 22.17C70.4304 21.6672 71.1927 21.273 72.1105 20.9993L71.5389 19.0827C70.4047 19.421 69.403 19.9268 68.5517 20.612L69.8057 22.17ZM72.1258 20.9946C73.0478 20.7034 74.0346 20.555 75.0917 20.555V18.555C73.8448 18.555 72.6536 18.7306 71.5236 19.0874L72.1258 20.9946ZM74.4977 33.164C75.6362 33.164 76.6759 32.9143 77.5772 32.3735L76.5482 30.6585C76.0095 30.9817 75.3392 31.164 74.4977 31.164V33.164ZM77.5927 32.364C78.498 31.7982 79.1567 30.9987 79.5572 29.9974L77.7002 29.2546C77.4528 29.8733 77.0674 30.3338 76.5327 30.668L77.5927 32.364ZM79.6287 29.626V27.628H77.6287V29.626H79.6287ZM78.6287 26.628H74.6327V28.628H78.6287V26.628ZM74.6327 26.628C73.4541 26.628 72.3947 26.8203 71.6044 27.3515C70.7435 27.9302 70.3387 28.8162 70.3387 29.842H72.3387C72.3387 29.3918 72.4829 29.1708 72.72 29.0114C73.0277 28.8047 73.6153 28.628 74.6327 28.628V26.628ZM70.3387 29.842C70.3387 30.8651 70.757 31.7356 71.5799 32.3461L72.7716 30.7399C72.4784 30.5224 72.3387 30.2589 72.3387 29.842H70.3387ZM71.5799 32.3461C72.3697 32.9321 73.3814 33.164 74.4977 33.164V31.164C73.634 31.164 73.0977 30.9819 72.7716 30.7399L71.5799 32.3461ZM89.3635 33.217L88.8779 34.0912L88.8837 34.0944L89.3635 33.217ZM86.6905 30.625L85.8257 31.1271L85.8293 31.1333L86.6905 30.625ZM86.6905 23.092L87.5518 23.6003L87.5553 23.5941L86.6905 23.092ZM89.3635 20.5L89.8385 21.38L89.8433 21.3774L89.3635 20.5ZM96.7345 20.338L96.2747 21.226L96.2811 21.2293L96.7345 20.338ZM99.1105 22.606L99.6519 23.4468L100.445 22.9364L99.9817 22.115L99.1105 22.606ZM97.1395 23.875L96.3041 24.4246L96.8483 25.2518L97.6809 24.7158L97.1395 23.875ZM95.4655 22.336L95.0087 23.2256L95.4655 22.336ZM90.7135 22.444L90.2332 21.5669L90.2243 21.5719L90.7135 22.444ZM88.9585 24.226L88.0853 23.7386L88.0814 23.7457L88.9585 24.226ZM88.9585 29.518L88.0767 29.9897L88.0833 30.002L88.0903 30.0141L88.9585 29.518ZM90.7135 31.273L90.2243 32.1452L90.2332 32.1501L90.7135 31.273ZM97.1395 29.842L97.6726 28.996L96.843 28.4732L96.3041 29.2924L97.1395 29.842ZM99.1105 31.084L99.9817 31.575L100.449 30.7456L99.6436 30.238L99.1105 31.084ZM96.7345 33.379L97.1944 34.267L97.2003 34.2639L96.7345 33.379ZM93.2785 33.162C91.9693 33.162 90.8325 32.8806 89.8433 32.3396L88.8837 34.0944C90.1986 34.8134 91.6717 35.162 93.2785 35.162V33.162ZM89.8492 32.3428C88.8678 31.7976 88.1077 31.0588 87.5517 30.1167L85.8293 31.1333C86.5694 32.3872 87.5912 33.3764 88.8779 34.0912L89.8492 32.3428ZM87.5553 30.1229C87.0036 29.1726 86.7185 28.0886 86.7185 26.845H84.7185C84.7185 28.4094 85.0815 29.8453 85.8257 31.1271L87.5553 30.1229ZM86.7185 26.845C86.7185 25.6012 87.0036 24.529 87.5517 23.6003L85.8293 22.5837C85.0814 23.851 84.7185 25.2808 84.7185 26.845H86.7185ZM87.5553 23.5941C88.1108 22.6374 88.867 21.9043 89.8385 21.38L88.8886 19.62C87.592 20.3197 86.5662 21.3146 85.8257 22.5899L87.5553 23.5941ZM89.8433 21.3774C90.8325 20.8364 91.9693 20.555 93.2785 20.555V18.555C91.6717 18.555 90.1986 18.9036 88.8837 19.6226L89.8433 21.3774ZM93.2785 20.555C94.4373 20.555 95.4278 20.7874 96.2747 21.226L97.1944 19.45C96.0253 18.8446 94.7117 18.555 93.2785 18.555V20.555ZM96.2811 21.2293C97.1339 21.6632 97.7795 22.281 98.2394 23.097L99.9817 22.115C99.3256 20.951 98.3872 20.0568 97.188 19.4467L96.2811 21.2293ZM98.5692 21.7652L96.5982 23.0342L97.6809 24.7158L99.6519 23.4468L98.5692 21.7652ZM97.9749 23.3254C97.4393 22.5112 96.7558 21.8744 95.9223 21.4464L95.0087 23.2256C95.5072 23.4815 95.9398 23.8708 96.3041 24.4246L97.9749 23.3254ZM95.9223 21.4464C95.1036 21.026 94.2071 20.823 93.2515 20.823V22.823C93.916 22.823 94.4954 22.962 95.0087 23.2256L95.9223 21.4464ZM93.2515 20.823C92.1624 20.823 91.1489 21.0654 90.2332 21.5669L91.1938 23.3211C91.7901 22.9946 92.4686 22.823 93.2515 22.823V20.823ZM90.2243 21.5719C89.3174 22.0806 88.6029 22.8114 88.0853 23.7386L89.8317 24.7134C90.1782 24.0926 90.6337 23.6354 91.2028 23.3161L90.2243 21.5719ZM88.0814 23.7457C87.5755 24.6696 87.3375 25.7123 87.3375 26.845H89.3375C89.3375 25.9977 89.5135 25.2944 89.8356 24.7063L88.0814 23.7457ZM87.3375 26.845C87.3375 27.9929 87.5743 29.0503 88.0767 29.9897L89.8403 29.0463C89.5148 28.4377 89.3375 27.7131 89.3375 26.845H87.3375ZM88.0903 30.0141C88.6095 30.9227 89.3235 31.6398 90.2243 32.1451L91.2028 30.4009C90.6276 30.0782 90.1716 29.6253 89.8268 29.0219L88.0903 30.0141ZM90.2332 32.1501C91.1489 32.6516 92.1624 32.894 93.2515 32.894V30.894C92.4686 30.894 91.7901 30.7224 91.1938 30.3959L90.2332 32.1501ZM93.2515 32.894C94.2071 32.894 95.1036 32.691 95.9223 32.2706L95.0087 30.4914C94.4954 30.755 93.916 30.894 93.2515 30.894V32.894ZM95.9223 32.2706C96.7558 31.8425 97.4393 31.2058 97.9749 30.3916L96.3041 29.2924C95.9398 29.8462 95.5072 30.2354 95.0087 30.4914L95.9223 32.2706ZM96.6064 30.688L98.5774 31.93L99.6436 30.238L97.6726 28.996L96.6064 30.688ZM98.2394 30.593C97.7778 31.4119 97.1282 32.0417 96.2688 32.4941L97.2003 34.2639C98.3928 33.6363 99.3272 32.7361 99.9817 31.575L98.2394 30.593ZM96.2747 32.491C95.4278 32.9296 94.4373 33.162 93.2785 33.162V35.162C94.7117 35.162 96.0253 34.8724 97.1944 34.267L96.2747 32.491ZM111.642 33.163L112.293 33.9223L112.853 33.4416L112.559 32.7643L111.642 33.163ZM110.238 33.919L110.517 34.8793L110.531 34.8752L110.545 34.8707L110.238 33.919ZM105.162 33.001L104.463 33.7162L105.162 33.001ZM103.974 21.823H104.974V20.823H103.974V21.823ZM101.544 21.823H100.544V22.823H101.544V21.823ZM101.544 19.69V18.69H100.544V19.69H101.544ZM103.974 19.69V20.69H104.974V19.69H103.974ZM103.974 16.558V15.558H102.974V16.558H103.974ZM106.566 16.558H107.566V15.558H106.566V16.558ZM106.566 19.69H105.566V20.69H106.566V19.69ZM110.67 19.69H111.67V18.69H110.67V19.69ZM110.67 21.823V22.823H111.67V21.823H110.67ZM106.566 21.823V20.823H105.566V21.823H106.566ZM107.133 31.354L106.394 32.0283L106.402 32.0368L106.41 32.0452L107.133 31.354ZM110.832 31.3L111.749 30.9013L111.226 29.6978L110.204 30.5216L110.832 31.3ZM110.991 32.4037C110.73 32.6275 110.385 32.8209 109.931 32.9673L110.545 34.8707C111.207 34.6571 111.798 34.3465 112.293 33.9223L110.991 32.4037ZM109.959 32.9587C109.494 33.0938 109.012 33.162 108.51 33.162V35.162C109.196 35.162 109.866 35.0682 110.517 34.8793L109.959 32.9587ZM108.51 33.162C107.25 33.162 106.415 32.8272 105.861 32.2858L104.463 33.7162C105.493 34.7227 106.89 35.162 108.51 35.162V33.162ZM105.861 32.2858C105.314 31.7518 104.974 30.9354 104.974 29.68H102.974C102.974 31.3046 103.425 32.7022 104.463 33.7162L105.861 32.2858ZM104.974 29.68V21.823H102.974V29.68H104.974ZM103.974 20.823H101.544V22.823H103.974V20.823ZM102.544 21.823V19.69H100.544V21.823H102.544ZM101.544 20.69H103.974V18.69H101.544V20.69ZM104.974 19.69V16.558H102.974V19.69H104.974ZM103.974 17.558H106.566V15.558H103.974V17.558ZM105.566 16.558V19.69H107.566V16.558H105.566ZM106.566 20.69H110.67V18.69H106.566V20.69ZM109.67 19.69V21.823H111.67V19.69H109.67ZM110.67 20.823H106.566V22.823H110.67V20.823ZM105.566 21.823V29.572H107.566V21.823H105.566ZM105.566 29.572C105.566 30.4999 105.793 31.3699 106.394 32.0283L107.871 30.6797C107.717 30.5101 107.566 30.1921 107.566 29.572H105.566ZM106.41 32.0452C107.041 32.7044 107.888 32.975 108.807 32.975V30.975C108.285 30.975 108.017 30.8316 107.856 30.6628L106.41 32.0452ZM108.807 32.975C109.802 32.975 110.705 32.687 111.46 32.0784L110.204 30.5216C109.843 30.813 109.396 30.975 108.807 30.975V32.975ZM109.915 31.6987L110.725 33.5617L112.559 32.7643L111.749 30.9013L109.915 31.6987Z" fill="white"/>
</svg>
