<svg width="136" height="105" viewBox="0 0 136 105" fill="none" xmlns="http://www.w3.org/2000/svg">
<rect x="12.7295" y="29.2848" width="110.632" height="46" rx="23" transform="rotate(0.570249 12.7295 29.2848)" fill="#FF6B00"/>
<path d="M33.5148 61.2429C34.3024 62.377 34.0216 63.9348 32.8876 64.7224C31.7536 65.51 30.1958 65.2292 29.4082 64.0952C28.6205 62.9612 28.9013 61.4034 30.0353 60.6157C31.1694 59.8281 32.7272 60.1089 33.5148 61.2429Z" stroke="white"/>
<path d="M61.5236 43.2563L62.4354 43.667L63.064 42.2716L61.5336 42.2563L61.5236 43.2563ZM52.1051 64.1636L52.0951 65.1635L52.7484 65.17L53.0168 64.5743L52.1051 64.1636ZM49.1352 64.134L48.2159 64.5276L48.4728 65.1275L49.1252 65.134L49.1352 64.134ZM40.1047 43.0431L40.1146 42.0431L38.5822 42.0279L39.1854 43.4367L40.1047 43.0431ZM43.3445 43.0753L44.2644 42.6831L44.008 42.0819L43.3545 42.0754L43.3445 43.0753ZM50.7324 60.3997L49.8126 60.792L50.7041 62.8826L51.6431 60.8129L50.7324 60.3997ZM58.5238 43.2264L58.5337 42.2265L57.8823 42.22L57.6131 42.8133L58.5238 43.2264ZM60.6118 42.8455L51.1933 63.7528L53.0168 64.5743L62.4354 43.667L60.6118 42.8455ZM52.115 63.1636L49.1452 63.1341L49.1252 65.134L52.0951 65.1635L52.115 63.1636ZM50.0545 63.7404L41.0239 42.6495L39.1854 43.4367L48.2159 64.5276L50.0545 63.7404ZM40.0947 44.043L43.3346 44.0753L43.3545 42.0754L40.1146 42.0431L40.0947 44.043ZM42.4247 43.4676L49.8126 60.792L51.6523 60.0075L44.2644 42.6831L42.4247 43.4676ZM51.6431 60.8129L59.4344 43.6396L57.6131 42.8133L49.8218 59.9866L51.6431 60.8129ZM58.5138 44.2264L61.5136 44.2562L61.5336 42.2563L58.5337 42.2265L58.5138 44.2264ZM67.6632 62.1583L66.9403 62.8493L67.6632 62.1583ZM65.5108 43.296L65.5208 42.296L64.5208 42.2861L64.5109 43.286L65.5108 43.296ZM68.5107 43.3258L69.5106 43.3358L69.5206 42.3358L68.5206 42.3259L68.5107 43.3258ZM78.6618 60.3477L79.3883 61.0349L79.3944 61.0284L78.6618 60.3477ZM80.3601 43.4438L80.37 42.4438L79.3701 42.4339L79.3601 43.4338L80.3601 43.4438ZM83.2699 43.4727L84.2699 43.4827L84.2798 42.4827L83.2799 42.4728L83.2699 43.4727ZM80.7423 62.3185L81.4468 63.0282L81.4513 63.0237L80.7423 62.3185ZM74.1889 63.6233C71.5864 63.5974 69.6992 62.8412 68.3861 61.4674L66.9403 62.8493C68.7152 64.7063 71.1719 65.5934 74.169 65.6232L74.1889 63.6233ZM68.3861 61.4674C67.0771 60.0978 66.3638 58.0761 66.3919 55.2453L64.392 55.2254C64.3605 58.3944 65.1613 60.988 66.9403 62.8493L68.3861 61.4674ZM66.3919 55.2453L66.5108 43.3059L64.5109 43.286L64.392 55.2254L66.3919 55.2453ZM65.5009 44.2959L68.5007 44.3258L68.5206 42.3259L65.5208 42.296L65.5009 44.2959ZM67.5107 43.3159L67.3931 55.1353L69.393 55.1552L69.5106 43.3358L67.5107 43.3159ZM67.3931 55.1353C67.3695 57.5091 67.8666 59.4813 69.0612 60.8734C70.2777 62.2911 72.0645 62.9322 74.2256 62.9537L74.2455 60.9538C72.4668 60.9361 71.3099 60.4228 70.579 59.571C69.826 58.6936 69.3718 57.2812 69.393 55.1552L67.3931 55.1353ZM74.2256 62.9537C76.3412 62.9747 78.1159 62.38 79.3882 61.0349L77.9353 59.6605C77.1459 60.495 75.9697 60.9709 74.2455 60.9538L74.2256 62.9537ZM79.3944 61.0284C80.6631 59.6628 81.2184 57.6796 81.2424 55.2731L79.2425 55.2532C79.2211 57.4065 78.7226 58.813 77.9292 59.667L79.3944 61.0284ZM81.2424 55.2731L81.36 43.4537L79.3601 43.4338L79.2425 55.2532L81.2424 55.2731ZM80.3501 44.4437L83.26 44.4727L83.2799 42.4728L80.37 42.4438L80.3501 44.4437ZM82.27 43.4628L82.1512 55.4022L84.1511 55.4221L84.2699 43.4827L82.27 43.4628ZM82.1512 55.4022C82.1228 58.2551 81.3681 60.2712 80.0332 61.6133L81.4513 63.0237C83.2681 61.197 84.1193 58.6089 84.1511 55.4221L82.1512 55.4022ZM80.0377 61.6089C78.6984 62.9386 76.7951 63.6493 74.1889 63.6233L74.169 65.6232C77.1626 65.653 79.6348 64.8272 81.4468 63.0281L80.0377 61.6089ZM105.526 62.0852L106.526 62.0951L106.536 61.0952L105.536 61.0852L105.526 62.0852ZM105.5 64.695L105.49 65.695L106.49 65.7049L106.5 64.705L105.5 64.695ZM90.261 64.5433L89.2611 64.5334L89.2511 65.5333L90.2511 65.5433L90.261 64.5433ZM90.4701 43.5444L90.48 42.5444L89.4801 42.5345L89.4701 43.5344L90.4701 43.5444ZM105.289 43.6919L106.289 43.7018L106.299 42.7019L105.299 42.6919L105.289 43.6919ZM105.263 46.3018L105.253 47.3017L106.253 47.3117L106.263 46.3117L105.263 46.3018ZM93.4439 46.1841L93.4539 45.1842L92.4539 45.1742L92.444 46.1742L93.4439 46.1841ZM93.3797 52.6338L92.3798 52.6238L92.3698 53.6238L93.3698 53.6337L93.3797 52.6338ZM103.909 52.7386L104.909 52.7486L104.919 51.7486L103.919 51.7386L103.909 52.7386ZM103.884 55.2885L103.874 56.2884L104.874 56.2984L104.884 55.2984L103.884 55.2885ZM93.3544 55.1837L93.3643 54.1837L92.3644 54.1738L92.3544 55.1737L93.3544 55.1837ZM93.2869 61.9633L92.2869 61.9534L92.277 62.9533L93.2769 62.9633L93.2869 61.9633ZM104.526 62.0752L104.5 64.6851L106.5 64.705L106.526 62.0951L104.526 62.0752ZM105.51 63.6951L90.271 63.5434L90.2511 65.5433L105.49 65.695L105.51 63.6951ZM91.261 64.5533L91.47 43.5543L89.4701 43.5344L89.2611 64.5334L91.261 64.5533ZM90.4601 44.5443L105.279 44.6918L105.299 42.6919L90.48 42.5444L90.4601 44.5443ZM104.289 43.6819L104.263 46.2918L106.263 46.3117L106.289 43.7018L104.289 43.6819ZM105.273 45.3018L93.4539 45.1842L93.434 47.1841L105.253 47.3017L105.273 45.3018ZM92.444 46.1742L92.3798 52.6238L94.3797 52.6438L94.4439 46.1941L92.444 46.1742ZM93.3698 53.6337L103.899 53.7385L103.919 51.7386L93.3897 51.6338L93.3698 53.6337ZM102.909 52.7286L102.884 55.2785L104.884 55.2984L104.909 52.7486L102.909 52.7286ZM103.894 54.2885L93.3643 54.1837L93.3444 56.1836L103.874 56.2884L103.894 54.2885ZM92.3544 55.1737L92.2869 61.9534L94.2868 61.9733L94.3543 55.1936L92.3544 55.1737ZM93.2769 62.9633L105.516 63.0851L105.536 61.0852L93.2968 60.9634L93.2769 62.9633Z" fill="white"/>
</svg>
