<svg width="128" height="128" viewBox="0 0 128 128" fill="none" xmlns="http://www.w3.org/2000/svg">
<circle cx="64.0002" cy="64" r="52" transform="rotate(-15 64.0002 64)" fill="#F9DD70"/>
<line x1="39.0337" y1="86.7358" x2="50.6248" y2="83.63" stroke="black"/>
<path d="M39.1498 59.9931L41.1241 59.4641C41.2579 60.1218 41.2336 60.744 41.0511 61.3308C40.873 61.9163 40.54 62.4255 40.052 62.8582C39.5684 63.2897 38.9327 63.611 38.1447 63.8222C37.5284 63.9873 36.9477 64.0297 36.4024 63.9493C35.856 63.8646 35.3553 63.6685 34.9002 63.3611C34.4495 63.0525 34.0578 62.6384 33.7252 62.1189C33.3925 61.5994 33.1319 60.9875 32.9431 60.2832L32.7644 59.6163C32.5757 58.912 32.4977 58.2511 32.5304 57.6337C32.5664 57.0108 32.7046 56.4524 32.945 55.9586C33.1898 55.4637 33.5277 55.0429 33.9585 54.6963C34.3893 54.3496 34.9063 54.0955 35.5093 53.9339C36.3105 53.7193 37.0251 53.6835 37.6532 53.8266C38.2857 53.9685 38.8223 54.2541 39.2628 54.6833C39.7078 55.1114 40.0484 55.6429 40.2846 56.2779L38.3037 56.8087C38.1779 56.4272 38.0129 56.1199 37.8089 55.8867C37.6037 55.6492 37.3486 55.4982 37.0435 55.4337C36.7417 55.3636 36.3706 55.3875 35.9304 55.5055C35.6003 55.5939 35.3284 55.7328 35.115 55.9221C34.9015 56.1114 34.7447 56.3539 34.6447 56.6497C34.5446 56.9454 34.5041 57.296 34.5231 57.7014C34.5453 58.1012 34.6248 58.5564 34.7616 59.067L34.9438 59.7471C35.0771 60.2446 35.2319 60.6725 35.4082 61.031C35.5833 61.3852 35.7827 61.6714 36.0063 61.8899C36.2332 62.1027 36.4876 62.2422 36.7695 62.3082C37.0546 62.3686 37.3732 62.3516 37.7254 62.2573C38.1392 62.1464 38.4627 61.989 38.6958 61.7849C38.9289 61.5809 39.0811 61.3302 39.1524 61.0327C39.2281 60.7341 39.2272 60.3875 39.1498 59.9931ZM43.2319 52.0133L45.8079 61.6273L43.827 62.1581L41.251 52.5441L43.2319 52.0133ZM48.8972 50.4953L46.7255 57.1281L44.3022 57.7774L43.5789 56.0817L45.1966 55.6482L46.4937 51.1393L48.8972 50.4953ZM49.433 60.656L45.5871 57.0793L46.5819 55.2982L51.7836 60.0261L49.433 60.656ZM54.1769 56.0445L56.2987 48.5121L58.2796 47.9813L60.8556 57.5953L58.8747 58.126L57.1338 51.6287L55.012 59.1611L53.0311 59.6919L50.455 50.0779L52.4359 49.5471L54.1769 56.0445ZM70.4711 53.3628L70.8851 54.9079L63.9585 56.7639L63.5445 55.2187L70.4711 53.3628ZM64.1322 55.0613L65.1778 58.9637L63.3158 59.4626L62.1645 55.5885L64.1322 55.0613ZM71.8973 52.9806L72.7731 56.9356L70.9572 57.4222L69.9098 53.5132L71.8973 52.9806ZM67.2195 45.5858L67.6353 47.1375L63.0066 48.3778L62.5908 46.8261L67.2195 45.5858ZM68.6326 45.2072L71.2086 54.8212L69.2343 55.3502L66.6583 45.7362L68.6326 45.2072ZM62.3465 46.8916L64.3274 46.3608L65.1191 50.3454C65.2528 51.0031 65.3358 51.5942 65.3678 52.1188C65.4031 52.6377 65.4004 53.1032 65.3598 53.5151C65.3236 53.9258 65.2596 54.2945 65.1678 54.621C65.0748 54.9432 64.9636 55.2325 64.8342 55.4889C64.7035 55.7409 64.5648 55.9715 64.418 56.1807C64.27 56.3855 64.1234 56.5781 63.9783 56.7585L62.8426 57.0629L62.4286 55.5178L62.871 55.3992C62.9704 55.2594 63.0657 55.0781 63.157 54.8555C63.2528 54.6317 63.3226 54.3464 63.3665 53.9997C63.4136 53.6473 63.4207 53.2161 63.3878 52.7059C63.3593 52.1946 63.2761 51.5846 63.1382 50.8761L62.3465 46.8916ZM73.2872 43.96L75.8632 53.574L73.8823 54.1048L71.3063 44.4908L73.2872 43.96ZM78.9526 42.442L76.7808 49.0748L74.3575 49.7241L73.6342 48.0284L75.2519 47.5949L76.5491 43.086L78.9526 42.442ZM79.4883 52.6027L75.6425 49.026L76.6373 47.2449L81.839 51.9728L79.4883 52.6027ZM84.2322 47.9912L86.354 40.4588L88.3349 39.928L90.911 49.542L88.9301 50.0728L87.1891 43.5754L85.0673 51.1078L83.0864 51.6386L80.5103 42.0246L82.4912 41.4938L84.2322 47.9912Z" fill="#161314"/>
<path d="M42.9222 81.1244L43.1588 82.0073L39.2008 83.0678L38.9642 82.1849L42.9222 81.1244ZM39.3 82.0949L39.8975 84.3249L38.8335 84.61L38.1756 82.3962L39.3 82.0949ZM43.7372 80.906L44.2376 83.166L43.2 83.444L42.6015 81.2103L43.7372 80.906ZM41.0642 76.6804L41.3018 77.5671L38.6568 78.2758L38.4192 77.3891L41.0642 76.6804ZM41.8717 76.464L43.3437 81.9577L42.2155 82.26L40.7435 76.7663L41.8717 76.464ZM38.2796 77.4265L39.4116 77.1232L39.8639 79.4001C39.9404 79.7759 39.9878 80.1137 40.0061 80.4135C40.0262 80.71 40.0247 80.976 40.0015 81.2114C39.9808 81.4461 39.9442 81.6567 39.8918 81.8433C39.8386 82.0274 39.7751 82.1927 39.7011 82.3393C39.6265 82.4833 39.5472 82.6151 39.4633 82.7346C39.3787 82.8516 39.295 82.9617 39.2121 83.0648L38.5631 83.2387L38.3265 82.3558L38.5793 82.288C38.6361 82.2081 38.6906 82.1045 38.7428 81.9773C38.7975 81.8494 38.8374 81.6864 38.8625 81.4883C38.8894 81.2869 38.8935 81.0405 38.8747 80.749C38.8584 80.4568 38.8108 80.1083 38.732 79.7034L38.2796 77.4265ZM48.4422 77.51L48.512 77.7704C48.6238 78.1879 48.6677 78.5779 48.6434 78.9403C48.6192 79.3026 48.5353 79.6284 48.3917 79.9176C48.2475 80.2043 48.0485 80.4477 47.7948 80.6478C47.5435 80.8472 47.2444 80.9934 46.8972 81.0864C46.5526 81.1788 46.2204 81.2017 45.9006 81.1553C45.5834 81.1082 45.2893 80.9969 45.0185 80.8215C44.7471 80.6435 44.509 80.404 44.3043 80.1029C44.1022 79.8012 43.9451 79.4416 43.8333 79.024L43.7635 78.7637C43.6509 78.3436 43.6071 77.9536 43.632 77.5938C43.6562 77.2314 43.7401 76.9056 43.8837 76.6164C44.0298 76.3265 44.2285 76.0819 44.4797 75.8825C44.7334 75.6824 45.0326 75.5362 45.3772 75.4438C45.7243 75.3508 46.0565 75.3279 46.3738 75.375C46.6936 75.4214 46.988 75.5339 47.2569 75.7126C47.5284 75.8906 47.7652 76.1304 47.9674 76.4321C48.1714 76.7306 48.3296 77.0899 48.4422 77.51ZM47.3687 78.0767L47.2969 77.8088C47.2187 77.517 47.1236 77.2675 47.0114 77.0603C46.8993 76.8531 46.7714 76.6879 46.6279 76.5646C46.4843 76.4413 46.3282 76.3618 46.1596 76.3261C45.9903 76.2879 45.81 76.2944 45.6188 76.3456C45.4277 76.3968 45.2683 76.4813 45.1408 76.5991C45.0151 76.7136 44.921 76.8602 44.8583 77.0387C44.7981 77.2166 44.7712 77.4233 44.7777 77.6588C44.7842 77.8944 44.8266 78.158 44.9047 78.4498L44.9765 78.7177C45.054 79.007 45.1492 79.2565 45.262 79.4662C45.3741 79.6734 45.5023 79.8399 45.6466 79.9657C45.7902 80.089 45.9466 80.1697 46.1159 80.208C46.2852 80.2462 46.4654 80.2397 46.6566 80.1884C46.8478 80.1372 47.0071 80.0527 47.1346 79.935C47.2622 79.8172 47.356 79.6694 47.4162 79.4915C47.4757 79.3111 47.5022 79.1032 47.4957 78.8677C47.4885 78.6296 47.4462 78.366 47.3687 78.0767Z" fill="#161314"/>
<path d="M56.7279 75.2698L58.4711 74.8027C59.0295 74.6531 59.4645 74.4354 59.7762 74.1497C60.0859 73.8564 60.281 73.513 60.3615 73.1193C60.4476 72.7161 60.4279 72.2806 60.3026 71.8127C60.1893 71.3901 60.0062 71.0388 59.7533 70.7588C59.5058 70.4693 59.1918 70.2784 58.8113 70.1863C58.4287 70.0866 57.9846 70.1045 57.479 70.2399C57.079 70.3471 56.7305 70.5254 56.4334 70.7749C56.1363 71.0243 55.9242 71.3198 55.7973 71.6611C55.6704 72.0025 55.6615 72.3769 55.7707 72.7844L52.4994 73.6609C52.2568 72.7554 52.287 71.9021 52.59 71.1011C52.9005 70.298 53.4165 69.5976 54.1379 68.9999C54.8594 68.4022 55.7144 67.9709 56.703 67.706C57.8198 67.4067 58.8456 67.326 59.7803 67.4638C60.713 67.594 61.5062 67.9436 62.1601 68.5125C62.814 69.0814 63.2785 69.879 63.5535 70.9053C63.693 71.4259 63.7077 71.9639 63.5977 72.5191C63.4856 73.0668 63.2558 73.5975 62.9081 74.1112C62.566 74.6154 62.1056 75.0704 61.5268 75.4762C60.9461 75.8744 60.2557 76.1807 59.4558 76.3951L57.1919 77.0017L56.7279 75.2698ZM57.3921 77.7487L56.9402 76.0621L59.2041 75.4555C60.1021 75.2149 60.918 75.1055 61.6517 75.1273C62.3855 75.149 63.0341 75.2907 63.5975 75.5522C64.159 75.8062 64.6264 76.1622 64.9999 76.6202C65.3713 77.0706 65.6409 77.609 65.8087 78.2354C66.015 79.0051 66.0518 79.7312 65.9193 80.4138C65.7847 81.0888 65.5052 81.7056 65.0806 82.2642C64.6636 82.8208 64.1297 83.3036 63.479 83.7125C62.8262 84.1139 62.0811 84.4268 61.2434 84.6512C60.5492 84.8372 59.8409 84.9259 59.1188 84.9172C58.4021 84.8989 57.7206 84.7702 57.0741 84.5309C56.4332 84.282 55.8716 83.9068 55.3894 83.4051C54.9127 82.8939 54.5652 82.2308 54.3468 81.4158L57.6181 80.5392C57.7314 80.9618 57.9381 81.3108 58.2384 81.5863C58.5386 81.8617 58.8989 82.0442 59.3193 82.1338C59.7471 82.2213 60.1912 82.2034 60.6515 82.0801C61.1722 81.9406 61.5922 81.7269 61.9114 81.4392C62.2362 81.1419 62.4501 80.7934 62.5533 80.3937C62.662 79.9844 62.6537 79.5458 62.5283 79.078C62.3666 78.4743 62.1277 78.0206 61.8118 77.717C61.4939 77.4059 61.108 77.2182 60.6539 77.1538C60.1999 77.0894 59.6937 77.132 59.1353 77.2817L57.3921 77.7487ZM76.0663 62.7724L76.5364 64.5269L74.1096 80.9611L70.6685 81.8831L73.3076 66.2413L65.101 68.4403L64.4186 65.8934L76.0663 62.7724ZM79.3224 66.2311L79.0889 65.3595C78.9211 64.7331 78.9042 64.127 79.0384 63.5411C79.1726 62.9551 79.451 62.4397 79.8737 61.9948C80.2964 61.55 80.8549 61.2345 81.5491 61.0485C82.2585 60.8584 82.9036 60.8514 83.4846 61.0273C84.0731 61.2012 84.5719 61.5084 84.9811 61.9487C85.3903 62.3891 85.6788 62.9224 85.8466 63.5488L86.0801 64.4204C86.2439 65.0316 86.2587 65.6302 86.1246 66.2161C85.9979 66.8001 85.7233 67.3145 85.3006 67.7593C84.8854 68.2022 84.327 68.5176 83.6251 68.7057C82.9233 68.8937 82.2744 68.9018 81.6784 68.7299C81.0899 68.556 80.591 68.2488 80.1819 67.8085C79.7727 67.3681 79.4862 66.8423 79.3224 66.2311ZM80.6623 64.9379L80.8958 65.8095C80.9888 66.1566 81.141 66.4677 81.3521 66.7427C81.5709 67.0157 81.8424 67.2139 82.1666 67.3373C82.4888 67.4532 82.8537 67.4565 83.2612 67.3474C83.6687 67.2382 83.9792 67.0539 84.1928 66.7944C84.4043 66.5275 84.5328 66.2221 84.5782 65.8783C84.6236 65.5345 84.5998 65.1891 84.5067 64.842L84.2732 63.9704C84.1782 63.6157 84.0213 63.3018 83.8025 63.0288C83.5893 62.7463 83.3216 62.5471 82.9994 62.4312C82.6827 62.3058 82.3206 62.2976 81.9131 62.4068C81.5132 62.514 81.2036 62.7021 80.9845 62.9711C80.771 63.2305 80.6387 63.5369 80.5878 63.8902C80.5424 64.234 80.5673 64.5832 80.6623 64.9379ZM89.835 73.3626L89.5984 72.4797C89.4326 71.8609 89.4168 71.2585 89.551 70.6726C89.6851 70.0866 89.9636 69.5712 90.3863 69.1264C90.809 68.6815 91.3675 68.366 92.0617 68.18C92.7711 67.9899 93.4162 67.9829 93.9972 68.1588C94.5857 68.3327 95.0845 68.6399 95.4937 69.0802C95.9028 69.5206 96.1903 70.0502 96.3561 70.669L96.5927 71.5519C96.7585 72.1707 96.7743 72.773 96.6402 73.359C96.5135 73.9429 96.2389 74.4573 95.8162 74.9022C95.401 75.345 94.8426 75.6605 94.1408 75.8485C93.4389 76.0366 92.7938 76.0436 92.2053 75.8697C91.6168 75.6958 91.1142 75.3897 90.6975 74.9513C90.2883 74.511 90.0008 73.9814 89.835 73.3626ZM91.1718 72.0581L91.4084 72.941C91.5014 73.2881 91.6545 73.603 91.8677 73.8856C92.0865 74.1586 92.358 74.3568 92.6822 74.4802C93.0044 74.596 93.3693 74.5994 93.7768 74.4902C94.1843 74.381 94.4948 74.1967 94.7084 73.9373C94.9275 73.6683 95.0597 73.3619 95.1051 73.0181C95.1505 72.6743 95.1257 72.3251 95.0306 71.9704L94.7941 71.0875C94.699 70.7328 94.5421 70.419 94.3234 70.146C94.1122 69.871 93.8455 69.6755 93.5233 69.5597C93.2066 69.4342 92.8407 69.4271 92.4257 69.5383C92.0257 69.6455 91.7162 69.8336 91.4971 70.1026C91.2835 70.362 91.1503 70.6646 91.0974 71.0104C91.052 71.3542 91.0768 71.7034 91.1718 72.0581ZM90.7869 61.3394L86.1903 76.3774L84.8129 75.9457L89.4094 60.9077L90.7869 61.3394Z" fill="#161314"/>
</svg>
