<svg width="128" height="128" viewBox="0 0 128 128" fill="none" xmlns="http://www.w3.org/2000/svg">
<circle cx="64.0002" cy="64" r="52" transform="rotate(-15 64.0002 64)" fill="#F9DD70"/>
<path d="M37.2381 70.24L37.6521 71.7851L32.6338 73.1297L32.2198 71.5846L37.2381 70.24ZM31.7583 67.5116L34.3343 77.1255L32.3534 77.6563L29.7774 68.0423L31.7583 67.5116ZM37.6019 65.9457L40.178 75.5597L38.2037 76.0887L35.6276 66.4748L37.6019 65.9457ZM48.9913 67.8055L49.1134 68.2611C49.3092 68.9918 49.3859 69.6742 49.3435 70.3084C49.3011 70.9425 49.1543 71.5127 48.903 72.0188C48.6505 72.5205 48.3023 72.9464 47.8583 73.2966C47.4186 73.6455 46.8951 73.9014 46.2876 74.0642C45.6845 74.2258 45.1032 74.266 44.5436 74.1847C43.9883 74.1023 43.4738 73.9076 42.9999 73.6005C42.5248 73.289 42.1082 72.8699 41.75 72.3431C41.3962 71.8151 41.1214 71.1857 40.9256 70.455L40.8036 69.9994C40.6066 69.2642 40.5299 68.5818 40.5735 67.9521C40.6159 67.3179 40.7627 66.7478 41.014 66.2417C41.2696 65.7344 41.6173 65.3063 42.0569 64.9573C42.5009 64.6071 43.0245 64.3512 43.6276 64.1896C44.235 64.0269 44.8164 63.9867 45.3716 64.0691C45.9312 64.1503 46.4464 64.3473 46.917 64.6599C47.3921 64.9714 47.8065 65.3912 48.1603 65.9192C48.5173 66.4416 48.7943 67.0703 48.9913 67.8055ZM47.1127 68.7972L46.987 68.3284C46.8502 67.8177 46.6837 67.3811 46.4875 67.0185C46.2912 66.6559 46.0675 66.3667 45.8162 66.1509C45.565 65.9352 45.2918 65.7961 44.9967 65.7336C44.7004 65.6667 44.385 65.6781 44.0504 65.7678C43.7159 65.8574 43.437 66.0052 43.2139 66.2113C42.9939 66.4118 42.8291 66.6682 42.7194 66.9807C42.6141 67.292 42.5671 67.6538 42.5785 68.0659C42.5898 68.478 42.6639 68.9394 42.8007 69.4501L42.9264 69.9189C43.062 70.4251 43.2285 70.8617 43.426 71.2287C43.6222 71.5913 43.8465 71.8827 44.099 72.1029C44.3502 72.3187 44.624 72.46 44.9203 72.5268C45.2166 72.5937 45.532 72.5823 45.8665 72.4927C46.2011 72.403 46.4799 72.2552 46.7031 72.0491C46.9262 71.8431 47.0905 71.5844 47.1958 71.2731C47.2999 70.9574 47.3463 70.5935 47.3349 70.1813C47.3224 69.7648 47.2483 69.3034 47.1127 68.7972ZM54.9398 67.0821L52.4703 67.7438L52.0926 66.3871L54.1659 65.8315C54.5313 65.7336 54.8183 65.6072 55.0268 65.4522C55.2342 65.2929 55.3709 65.1076 55.437 64.8965C55.5063 64.6798 55.5056 64.4393 55.4348 64.1752C55.3546 63.8759 55.2325 63.6491 55.0685 63.4949C54.9089 63.3395 54.699 63.2518 54.4389 63.2319C54.1832 63.2107 53.8705 63.2497 53.5007 63.3488L52.1273 63.7168L54.2876 71.7791L52.3067 72.3099L49.7306 62.6959L53.0849 61.7971C53.644 61.6473 54.1578 61.5662 54.6263 61.5539C55.0992 61.5405 55.5186 61.6003 55.8845 61.7334C56.2505 61.8665 56.5591 62.0764 56.8105 62.3629C57.0606 62.645 57.2458 63.0105 57.3662 63.4595C57.4723 63.8557 57.48 64.2453 57.3891 64.6282C57.3027 65.0099 57.0963 65.3577 56.7699 65.6716C56.448 65.9844 55.984 66.2337 55.378 66.4197L54.9398 67.0821ZM55.9845 71.3244L53.0594 72.1082L53.4179 70.3561L55.5705 69.7793C55.9183 69.6861 56.1875 69.555 56.3781 69.386C56.5675 69.2125 56.6891 69.0148 56.7428 68.7928C56.7966 68.5708 56.7899 68.3344 56.7226 68.0835C56.6471 67.8017 56.5333 67.5704 56.381 67.3894C56.2331 67.2073 56.041 67.089 55.8046 67.0343C55.567 66.9753 55.2788 66.9912 54.9398 67.0821L53.0315 67.5934L52.6803 66.2296L55.0574 65.5927L55.6563 66.0054C56.2394 65.8398 56.7381 65.817 57.1525 65.9372C57.5701 66.0517 57.9057 66.2567 58.1594 66.552C58.4175 66.8461 58.5984 67.1869 58.7022 67.5743C58.8674 68.1905 58.8723 68.7459 58.717 69.2405C58.5605 69.7306 58.2509 70.1509 57.7881 70.5014C57.3296 70.8507 56.7285 71.125 55.9845 71.3244ZM62.5575 66.2228L64.6793 58.6904L66.6602 58.1596L69.2362 67.7736L67.2553 68.3044L65.5144 61.807L63.3926 69.3394L61.4117 69.8702L58.8356 60.2562L60.8165 59.7254L62.5575 66.2228ZM76.3786 59.7523L76.7926 61.2974L71.7743 62.642L71.3603 61.0969L76.3786 59.7523ZM70.8988 57.0239L73.4748 66.6379L71.4939 67.1686L68.9179 57.5547L70.8988 57.0239ZM76.7424 55.4581L79.3185 65.0721L77.3442 65.6011L74.7681 55.9871L76.7424 55.4581ZM80.9943 54.3188L83.5703 63.9328L81.5894 64.4636L79.0134 54.8496L80.9943 54.3188ZM86.6596 52.8008L84.4879 59.4336L82.0646 60.0829L81.3413 58.3871L82.959 57.9537L84.2561 53.4448L86.6596 52.8008ZM87.1954 62.9615L83.3495 59.3848L84.3443 57.6037L89.546 62.3316L87.1954 62.9615ZM92.6396 52.9606L92.1603 61.6311L90.0539 62.1955L91.0501 51.6243L92.3905 51.2652L92.6396 52.9606ZM96.9475 60.3484L92.1906 53.081L91.5387 51.4934L92.8923 51.1307L99.0604 59.7822L96.9475 60.3484ZM95.8697 56.8014L96.2855 58.3531L91.2077 59.7137L90.792 58.162L95.8697 56.8014Z" fill="#161314"/>
</svg>
