<svg width="352" height="258" viewBox="0 0 352 258" fill="none" xmlns="http://www.w3.org/2000/svg">
<rect width="347" height="258" rx="20" fill="#CECECE"/>
<mask id="mask0_2_37635" style="mask-type:alpha" maskUnits="userSpaceOnUse" x="0" y="0" width="347" height="258">
<rect width="347" height="258" rx="20" fill="#A3A3A3"/>
</mask>
<g mask="url(#mask0_2_37635)">
<path fill-rule="evenodd" clip-rule="evenodd" d="M204.624 35.8459C244.993 14.3631 279.741 -29.0179 323.843 -16.9716C370.892 -4.12 399.783 44.3614 410.199 91.9986C419.65 135.221 402.795 179.207 374.107 212.913C349.052 242.352 310.218 248.754 271.976 254.4C227.964 260.899 180.644 273.764 145.365 246.688C103.837 214.817 70.2401 160.852 84.4071 110.446C97.8291 62.6918 160.823 59.1554 204.624 35.8459Z" fill="#EFEAE6"/>
</g>
<rect width="243" height="226" rx="20" transform="matrix(-1 0 0 1 352 16)"/>
</svg>
