<svg width="347" height="258" viewBox="0 0 347 258" fill="none" xmlns="http://www.w3.org/2000/svg">
<rect width="347" height="258" rx="20" fill="#EFEAE6"/>
<mask id="mask0_303_33726" style="mask-type:alpha" maskUnits="userSpaceOnUse" x="0" y="0" width="347" height="258">
<rect width="347" height="258" rx="20" fill="#A3A3A3"/>
</mask>
<g mask="url(#mask0_303_33726)">
<path fill-rule="evenodd" clip-rule="evenodd" d="M265.296 41.7514C220.742 31.4489 175.951 -1.46055 136.47 21.5895C94.3496 46.1806 78.9911 100.487 81.2595 149.197C83.3176 193.392 110.982 231.518 147.416 256.651C179.238 278.601 218.405 274.734 256.806 270.29C300.999 265.176 350.037 265.356 377.107 230.072C408.97 188.538 427.455 127.716 400.725 82.6954C375.4 40.0419 313.638 52.9299 265.296 41.7514Z" fill="#FCBF87"/>
<rect width="264" height="350" transform="matrix(-1 0 0 1 347 0)"/>
</g>
</svg>
