<svg width="147" height="42" viewBox="0 0 147 42" fill="none" xmlns="http://www.w3.org/2000/svg">
<g filter="url(#filter0_b_16_4745)">
<mask id="path-1-inside-1_16_4745" fill="white">
<path fill-rule="evenodd" clip-rule="evenodd" d="M138.6 5.6V2.8L135.8 2.8L133 2.8V0L14 6.80297e-06V2.80001H11.2H8.4V5.60001H5.6V8.40001H2.8V11.2V14H0V28H2.8V30.8V33.6H5.6V36.4H8.4V39.2H11.2H14V42L133 42V39.2H135.8H138.6V36.4H141.4V33.6H144.2V30.8V28H147V14H144.2V11.2V8.4H141.4V5.6L138.6 5.6Z"/>
</mask>
<path fill-rule="evenodd" clip-rule="evenodd" d="M138.6 5.6V2.8L135.8 2.8L133 2.8V0L14 6.80297e-06V2.80001H11.2H8.4V5.60001H5.6V8.40001H2.8V11.2V14H0V28H2.8V30.8V33.6H5.6V36.4H8.4V39.2H11.2H14V42L133 42V39.2H135.8H138.6V36.4H141.4V33.6H144.2V30.8V28H147V14H144.2V11.2V8.4H141.4V5.6L138.6 5.6Z" fill="white" fill-opacity="0.01"/>
<path d="M138.6 2.8H139.6V1.8L138.6 1.8L138.6 2.8ZM138.6 5.6H137.6V6.6L138.6 6.6L138.6 5.6ZM133 2.8H132V3.8L133 3.8L133 2.8ZM133 0H134V-1L133 -1L133 0ZM14 6.80297e-06L14 -0.999993L13 -0.999993V6.80297e-06H14ZM14 2.80001V3.80001H15V2.80001H14ZM8.4 2.80001V1.80001H7.4V2.80001H8.4ZM8.4 5.60001V6.60001H9.4V5.60001H8.4ZM5.6 5.60001V4.60001H4.6V5.60001H5.6ZM5.6 8.40001V9.40001H6.6V8.40001H5.6ZM2.8 8.40001V7.40001H1.8V8.40001H2.8ZM2.8 14V15H3.8V14H2.8ZM0 14V13H-1V14H0ZM0 28H-1V29H0V28ZM2.8 28H3.8V27H2.8V28ZM2.8 33.6H1.8V34.6H2.8V33.6ZM5.6 33.6H6.6V32.6H5.6V33.6ZM5.6 36.4H4.6V37.4H5.6V36.4ZM8.4 36.4H9.4V35.4H8.4V36.4ZM8.4 39.2H7.4V40.2H8.4V39.2ZM14 39.2H15V38.2H14V39.2ZM14 42H13V43L14 43L14 42ZM133 42L133 43L134 43V42H133ZM133 39.2V38.2H132V39.2H133ZM138.6 39.2V40.2H139.6V39.2H138.6ZM138.6 36.4V35.4H137.6V36.4H138.6ZM141.4 36.4V37.4H142.4V36.4H141.4ZM141.4 33.6V32.6H140.4V33.6H141.4ZM144.2 33.6V34.6H145.2V33.6H144.2ZM144.2 28V27H143.2V28H144.2ZM147 28V29H148V28H147ZM147 14H148V13H147V14ZM144.2 14H143.2V15H144.2V14ZM144.2 8.4H145.2V7.4H144.2V8.4ZM141.4 8.4H140.4V9.4H141.4V8.4ZM141.4 5.6H142.4V4.6L141.4 4.6L141.4 5.6ZM137.6 2.8V5.6H139.6V2.8H137.6ZM135.8 3.8L138.6 3.8L138.6 1.8L135.8 1.8L135.8 3.8ZM133 3.8L135.8 3.8L135.8 1.8L133 1.8L133 3.8ZM132 0V2.8H134V0H132ZM14 1.00001L133 1L133 -1L14 -0.999993L14 1.00001ZM15 2.80001V6.80297e-06H13V2.80001H15ZM11.2 3.80001H14V1.80001H11.2V3.80001ZM8.4 3.80001H11.2V1.80001H8.4V3.80001ZM9.4 5.60001V2.80001H7.4V5.60001H9.4ZM5.6 6.60001H8.4V4.60001H5.6V6.60001ZM6.6 8.40001V5.60001H4.6V8.40001H6.6ZM2.8 9.40001H5.6V7.40001H2.8V9.40001ZM3.8 11.2V8.40001H1.8V11.2H3.8ZM3.8 14V11.2H1.8V14H3.8ZM0 15H2.8V13H0V15ZM1 28V14H-1V28H1ZM2.8 27H0V29H2.8V27ZM3.8 30.8V28H1.8V30.8H3.8ZM3.8 33.6V30.8H1.8V33.6H3.8ZM5.6 32.6H2.8V34.6H5.6V32.6ZM6.6 36.4V33.6H4.6V36.4H6.6ZM8.4 35.4H5.6V37.4H8.4V35.4ZM9.4 39.2V36.4H7.4V39.2H9.4ZM11.2 38.2H8.4V40.2H11.2V38.2ZM14 38.2H11.2V40.2H14V38.2ZM15 42V39.2H13V42H15ZM133 41L14 41L14 43L133 43L133 41ZM134 42V39.2H132V42H134ZM133 40.2H135.8V38.2H133V40.2ZM138.6 38.2H135.8V40.2H138.6V38.2ZM137.6 36.4V39.2H139.6V36.4H137.6ZM141.4 35.4H138.6V37.4H141.4V35.4ZM140.4 33.6V36.4H142.4V33.6H140.4ZM144.2 32.6H141.4V34.6H144.2V32.6ZM143.2 30.8V33.6H145.2V30.8H143.2ZM143.2 28V30.8H145.2V28H143.2ZM147 27H144.2V29H147V27ZM146 14V28H148V14H146ZM144.2 15H147V13H144.2V15ZM143.2 11.2V14H145.2V11.2H143.2ZM143.2 8.4V11.2H145.2V8.4H143.2ZM141.4 9.4H144.2V7.4H141.4V9.4ZM140.4 5.6V8.4H142.4V5.6H140.4ZM138.6 6.6L141.4 6.6L141.4 4.6L138.6 4.6L138.6 6.6Z" fill="white" fill-opacity="0.05" mask="url(#path-1-inside-1_16_4745)"/>
</g>
<defs>
<filter id="filter0_b_16_4745" x="-45" y="-45" width="237" height="132" filterUnits="userSpaceOnUse" color-interpolation-filters="sRGB">
<feFlood flood-opacity="0" result="BackgroundImageFix"/>
<feGaussianBlur in="BackgroundImageFix" stdDeviation="22.5"/>
<feComposite in2="SourceAlpha" operator="in" result="effect1_backgroundBlur_16_4745"/>
<feBlend mode="normal" in="SourceGraphic" in2="effect1_backgroundBlur_16_4745" result="shape"/>
</filter>
</defs>
</svg>
