<svg width="15" height="17" viewBox="0 0 15 17" fill="none" xmlns="http://www.w3.org/2000/svg">
<path fill-rule="evenodd" clip-rule="evenodd" d="M0 0.566667C0 0.253705 0.258297 0 0.576923 0H14.4231C14.7417 0 15 0.253705 15 0.566667V16.4333C15 16.6297 14.8965 16.8121 14.7264 16.9154C14.5563 17.0186 14.3439 17.028 14.1651 16.9402L12.1154 15.9336L10.0657 16.9402C9.90328 17.0199 9.71211 17.0199 9.54969 16.9402L7.5 15.9335L5.45032 16.9402C5.2879 17.0199 5.09672 17.0199 4.9343 16.9402L2.88462 15.9335L0.834931 16.9402C0.656091 17.028 0.443703 17.0186 0.273617 16.9154C0.10353 16.8121 0 16.6297 0 16.4333V0.566667ZM3.46154 5.66667H5.76923V4.53333H3.46154V5.66667ZM8.07692 5.66667H11.5385V4.53333H8.07692V5.66667ZM5.76923 9.06667H3.46154V7.93333H5.76923V9.06667ZM8.07692 9.06667H11.5385V7.93333H8.07692V9.06667ZM11.5385 12.4667H8.07692V11.3333H11.5385V12.4667Z" fill="#617E8C"/>
</svg>
