<svg width="14" height="42" viewBox="0 0 14 42" fill="none" xmlns="http://www.w3.org/2000/svg">
<rect y="11.2" width="2.8" height="2.8" fill="#447EF7"/>
<rect y="8.39999" width="2.8" height="2.8" fill="#447EF7"/>
<rect y="5.60001" width="2.8" height="2.8" fill="#447EF7"/>
<rect y="2.8" width="2.8" height="2.8" fill="#447EF7"/>
<rect x="2.7998" y="2.8" width="2.8" height="2.8" fill="#447EF7"/>
<rect x="2.7998" width="2.8" height="2.8" fill="#447EF7"/>
<rect x="5.6001" width="2.8" height="2.8" fill="#447EF7"/>
<rect width="2.8" height="2.8" fill="#447EF7"/>
<rect y="28" width="2.8" height="2.8" fill="#447EF7"/>
<rect y="30.8" width="2.8" height="2.8" fill="#447EF7"/>
<rect y="33.6" width="2.8" height="2.8" fill="#447EF7"/>
<rect y="36.4" width="2.8" height="2.8" fill="#447EF7"/>
<rect y="39.2" width="2.8" height="2.8" fill="#447EF7"/>
<rect x="2.7998" y="39.2" width="2.8" height="2.8" fill="#447EF7"/>
<rect x="5.6001" y="39.2" width="2.8" height="2.8" fill="#447EF7"/>
<rect x="8.3999" y="39.2" width="2.8" height="2.8" fill="#447EF7"/>
<rect x="11.2002" y="39.2" width="2.8" height="2.8" fill="#447EF7"/>
<rect x="5.6001" y="36.4" width="2.8" height="2.8" fill="#447EF7"/>
<rect x="2.7998" y="36.4" width="2.8" height="2.8" fill="#447EF7"/>
<rect x="2.7998" y="33.6" width="2.8" height="2.8" fill="#447EF7"/>
<rect x="2.7998" y="5.60001" width="2.8" height="2.8" fill="#447EF7"/>
<rect x="5.6001" y="2.8" width="2.8" height="2.8" fill="#447EF7"/>
<rect x="8.3999" width="2.8" height="2.8" fill="#447EF7"/>
<rect x="11.2002" width="2.8" height="2.8" fill="#447EF7"/>
</svg>
