<svg width="46" height="46" viewBox="0 0 46 46" fill="none" xmlns="http://www.w3.org/2000/svg">
<path d="M22.1088 0.285609C22.6419 -0.0952029 23.3581 -0.0952029 23.8912 0.285609L45.3579 15.6189C45.7609 15.9068 46 16.3715 46 16.8667V44.4667C46 45.3135 45.3135 46 44.4667 46H39.8667V21.4667H6.13333V46H1.53333C0.686497 46 0 45.3135 0 44.4667V16.8667C0 16.3715 0.239147 15.9068 0.642101 15.6189L22.1088 0.285609Z" fill="#617E8C"/>
<path fill-rule="evenodd" clip-rule="evenodd" d="M9.2 46H36.8V33.7333H9.2V46ZM27.6 39.8667H18.4V36.8H27.6V39.8667Z" fill="#617E8C"/>
<path d="M36.8 30.6667V24.5333H9.2V30.6667H36.8Z" fill="#617E8C"/>
</svg>
