<svg width="147" height="48" viewBox="0 0 147 48" fill="none" xmlns="http://www.w3.org/2000/svg">
<g clip-path="url(#clip0_17_4491)">
<path d="M16.7774 10.325H35.9281V13.0669H19.8071V20.0363H29.5582V22.7725H19.8071V31.3767H36.9185V34.1185H16.7774V10.325Z" fill="white"/>
<path d="M49.2246 34.1358L37.4576 10.325H40.7568L50.1329 29.4207L59.5091 10.325H62.8493L51.0999 34.1358H49.2246Z" fill="white"/>
<path d="M73.9893 34.1358L62.2516 10.325H65.5449L74.9211 29.4207L84.2972 10.325H87.6374L75.888 34.1358H73.9893Z" fill="white"/>
<path d="M89.6123 10.325H91.1945L107.017 28.1415V10.325H110.04V34.1358H108.505L92.683 16.3193V34.1358H89.6592L89.6123 10.325Z" fill="white"/>
<path d="M122.804 13.0497H112.549V10.325H136.077V13.0669H125.828V34.1358H122.804V13.0497Z" fill="white"/>
<path d="M0 0V44.4436H86.6588V41.8738H2.60187V2.54684H144.416V41.8738H130.375V44.4206H147V0H0Z" fill="white"/>
<path d="M95.3024 45.6711H94.1656V45.0975L94.0894 45.1663C94.0247 45.2243 93.9562 45.278 93.8843 45.327C93.7752 45.4006 93.6617 45.4676 93.5444 45.5277C93.3957 45.5941 93.2406 45.646 93.0814 45.6826C92.891 45.7358 92.6935 45.761 92.4954 45.7572C91.9926 45.7736 91.5016 45.6059 91.1183 45.2868C90.9505 45.1583 90.814 44.9949 90.7187 44.8084C90.6235 44.6218 90.5718 44.4169 90.5675 44.2084C90.5566 43.8016 90.7079 43.4066 90.9894 43.1071C91.3028 42.792 91.7158 42.5898 92.1614 42.5335L94.148 42.195C94.1506 42.062 94.1237 41.93 94.0691 41.8082C94.0144 41.6863 93.9334 41.5776 93.8315 41.4895C93.6073 41.2956 93.3159 41.193 93.017 41.2027C92.7452 41.1998 92.4764 41.2587 92.2317 41.3748C92.0457 41.4583 91.88 41.5795 91.7453 41.7304L91.5988 41.9197L90.8605 41.2027C90.8892 41.1625 90.9205 41.1242 90.9542 41.088C91.034 41.0033 91.1202 40.9247 91.2121 40.8528C91.3477 40.7381 91.4928 40.6345 91.6457 40.543C91.8307 40.4405 92.0274 40.3596 92.2317 40.3021C92.4834 40.2325 92.7438 40.1978 93.0053 40.1989C93.6039 40.1748 94.1885 40.3806 94.6344 40.7725C94.8397 40.9502 95.0032 41.1694 95.1135 41.415C95.2237 41.6606 95.2782 41.9268 95.2731 42.195L95.3024 45.6711ZM92.6947 44.782C92.894 44.7932 93.0936 44.7633 93.2804 44.6941C93.4671 44.6249 93.6369 44.5181 93.7788 44.3805C94.0537 44.061 94.1922 43.6501 94.1656 43.2333V43.1243L92.4075 43.3996C92.2211 43.4294 92.049 43.5157 91.9153 43.6463C91.8533 43.7095 91.8048 43.7841 91.7726 43.8659C91.7404 43.9476 91.7252 44.0348 91.7278 44.1224C91.7302 44.2149 91.7554 44.3055 91.8013 44.3864C91.8472 44.4673 91.9125 44.5361 91.9915 44.587C92.1972 44.7268 92.4446 44.7954 92.6947 44.782V44.782Z" fill="white"/>
<path d="M100.735 45.3499V44.8967L100.664 44.9656C100.598 45.0235 100.527 45.0771 100.453 45.1262C100.345 45.201 100.232 45.2681 100.114 45.327C99.9668 45.3947 99.8137 45.4485 99.6564 45.4876C99.4658 45.5398 99.2684 45.5649 99.0704 45.5621C98.7376 45.5617 98.4087 45.4919 98.1056 45.3574C97.8025 45.2229 97.5321 45.0268 97.3124 44.782C96.8225 44.2706 96.5499 43.5959 96.5499 42.8948C96.5499 42.1938 96.8225 41.519 97.3124 41.0076C97.5343 40.7659 97.8052 40.5722 98.1079 40.4388C98.4107 40.3055 98.7385 40.2355 99.0704 40.2333C99.3659 40.2336 99.6584 40.29 99.9319 40.3996C100.145 40.4804 100.343 40.5947 100.518 40.738L100.705 40.8987V40.325H101.842V45.3155C101.846 45.6661 101.779 46.0139 101.643 46.3385C101.508 46.6632 101.308 46.9581 101.055 47.2061C100.801 47.454 100.5 47.6499 100.168 47.7823C99.8367 47.9147 99.4813 47.9809 99.1232 47.9771C98.8239 47.9785 98.5259 47.9379 98.2383 47.8566C97.9957 47.7972 97.7629 47.7045 97.5468 47.5813C97.3799 47.4871 97.2211 47.3797 97.0721 47.26C96.9619 47.1798 96.8633 47.0853 96.7791 46.979L96.6854 46.8642L97.4238 46.1472L97.4941 46.2333C97.5611 46.3054 97.6336 46.3725 97.7109 46.434C97.817 46.5313 97.9328 46.6177 98.0566 46.6922C98.2052 46.7751 98.3624 46.8424 98.5254 46.8929C98.7155 46.9492 98.9129 46.9782 99.1115 46.979C99.3233 46.9851 99.534 46.9474 99.7299 46.8683C99.9258 46.7892 100.102 46.6705 100.248 46.5201C100.561 46.2078 100.736 45.7874 100.735 45.3499V45.3499ZM98.1328 41.7189C97.8387 42.0441 97.6763 42.4634 97.6763 42.8977C97.6763 43.332 97.8387 43.7513 98.1328 44.0765C98.2654 44.2279 98.4299 44.3495 98.615 44.4329C98.8001 44.5162 99.0015 44.5594 99.2052 44.5594C99.409 44.5594 99.6103 44.5162 99.7954 44.4329C99.9805 44.3495 100.145 44.2279 100.278 44.0765C100.572 43.7513 100.734 43.332 100.734 42.8977C100.734 42.4634 100.572 42.0441 100.278 41.7189C100.145 41.5675 99.9805 41.4459 99.7954 41.3626C99.6103 41.2792 99.409 41.2361 99.2052 41.2361C99.0015 41.2361 98.8001 41.2792 98.615 41.3626C98.4299 41.4459 98.2654 41.5675 98.1328 41.7189V41.7189Z" fill="white"/>
<path d="M108.493 43.3939H104.245C104.312 43.7781 104.52 44.125 104.831 44.369C105.143 44.6417 105.549 44.7892 105.968 44.782C106.515 44.7669 107.035 44.5472 107.421 44.1683L107.591 43.9618L108.323 44.6845C108.294 44.7271 108.26 44.7674 108.224 44.805C108.13 44.9007 108.03 44.9907 107.925 45.0746C107.776 45.1983 107.615 45.3078 107.444 45.4015C107.235 45.5148 107.013 45.6034 106.782 45.6654C106.29 45.818 105.764 45.8328 105.264 45.7081C104.764 45.5834 104.309 45.3242 103.952 44.9598C103.685 44.6962 103.475 44.3825 103.335 44.0375C103.195 43.6925 103.128 43.3233 103.137 42.9522C103.139 42.2325 103.431 41.5427 103.951 41.0333C104.47 40.5239 105.174 40.2363 105.909 40.2333C106.262 40.2246 106.612 40.2862 106.94 40.4143C107.267 40.5424 107.565 40.7343 107.814 40.9784C108.064 41.2225 108.26 41.5137 108.391 41.8343C108.521 42.1548 108.584 42.4981 108.575 42.8432L108.493 43.3939ZM105.886 41.1797C105.509 41.1687 105.141 41.2955 104.854 41.5354C104.563 41.7716 104.358 42.0935 104.268 42.4532H107.415C107.364 42.0899 107.177 41.7581 106.89 41.5227C106.603 41.2872 106.237 41.1649 105.862 41.1797H105.886Z" fill="white"/>
<path d="M110.925 40.348V40.9216L110.996 40.8528C111.062 40.7949 111.133 40.7413 111.207 40.6922C111.315 40.6178 111.429 40.5507 111.547 40.4914C111.695 40.4228 111.85 40.369 112.009 40.3308C112.2 40.2781 112.397 40.253 112.595 40.2562C112.892 40.2456 113.187 40.2963 113.461 40.405C113.736 40.5138 113.984 40.6781 114.189 40.8872C114.61 41.3623 114.82 41.9811 114.775 42.608V45.7113H113.644V42.5679C113.651 42.3926 113.621 42.2179 113.556 42.0543C113.492 41.8907 113.394 41.7415 113.269 41.6157C113.151 41.4925 113.007 41.395 112.848 41.3298C112.688 41.2646 112.516 41.233 112.344 41.2371C112.152 41.2277 111.96 41.2593 111.782 41.3296C111.604 41.3999 111.444 41.5073 111.312 41.6444C111.037 41.9635 110.898 42.3746 110.925 42.7916V45.6597H109.794V40.348H110.925Z" fill="white"/>
<path d="M116.867 44.9541C116.478 44.566 116.214 44.0747 116.108 43.541C116.001 43.0073 116.058 42.4547 116.269 41.9519C116.481 41.4491 116.838 41.0182 117.298 40.7127C117.758 40.4072 118.299 40.2405 118.854 40.2333C119.591 40.2453 120.295 40.5326 120.823 41.0363L121.063 41.2887L120.325 42.0115C120.276 41.9335 120.219 41.8604 120.155 41.7935C120.011 41.6538 119.845 41.5376 119.663 41.4493C119.344 41.2691 118.971 41.2004 118.607 41.2546C118.243 41.3088 117.909 41.4827 117.659 41.7476C117.331 42.0882 117.148 42.5386 117.148 43.0067C117.148 43.4748 117.331 43.9252 117.659 44.2658C117.907 44.5326 118.241 44.7082 118.606 44.7635C118.97 44.8188 119.343 44.7504 119.663 44.5698C119.871 44.4703 120.057 44.3297 120.208 44.1568L120.384 43.9503L121.116 44.673C121.086 44.7157 121.053 44.7559 121.016 44.7935C120.927 44.89 120.832 44.9801 120.729 45.0631C120.585 45.1854 120.43 45.2948 120.266 45.3901C120.067 45.5017 119.854 45.5902 119.633 45.6539C119.383 45.738 119.119 45.7806 118.854 45.7801C118.483 45.7825 118.115 45.7104 117.773 45.5683C117.432 45.4263 117.123 45.2172 116.867 44.9541V44.9541Z" fill="white"/>
<path d="M123.554 46.2218L123.777 45.6482L121.567 40.3251H122.739L124.327 44.2084L125.915 40.3251H127.087L124.644 46.1989C124.474 46.7151 124.203 47.1943 123.847 47.6099C123.711 47.7408 123.55 47.8434 123.373 47.9114C123.195 47.9795 123.006 48.0116 122.815 48.0057C122.674 48.0056 122.533 47.996 122.394 47.9771C122.293 47.9647 122.193 47.9455 122.095 47.9197H122.018V46.8872C122.205 46.9602 122.404 46.9991 122.604 47.0019C122.827 46.9866 123.038 46.9029 123.209 46.7628C123.379 46.6226 123.5 46.4333 123.554 46.2218V46.2218Z" fill="white"/>
</g>
<defs>
<clipPath id="clip0_17_4491">
<rect width="147" height="48" fill="white"/>
</clipPath>
</defs>
</svg>
