<svg width="47" height="47" viewBox="0 0 47 47" fill="none" xmlns="http://www.w3.org/2000/svg">
<path d="M18.8827 23.5001C18.8827 20.9078 20.9492 18.8015 23.4967 18.8015C26.0442 18.8015 28.1107 20.9078 28.1107 23.5001C28.1107 26.0924 26.0441 28.1989 23.4967 28.1989C20.9493 28.1989 18.8827 26.0924 18.8827 23.5001Z" fill="#617E8C"/>
<path fill-rule="evenodd" clip-rule="evenodd" d="M17.4476 0H29.5437L30.056 2.62159L30.0578 2.63055L30.9005 6.81489C32.1023 7.35507 33.2168 8.02388 34.2475 8.78087L38.4601 7.34522L40.9569 6.55676L42.2609 8.83539L45.6673 14.6453L46.9999 16.9746L45.0154 18.7379L41.8558 21.4774C41.955 22.0923 42.047 22.7865 42.047 23.4999C42.047 24.2133 41.955 24.9076 41.8558 25.5226L45.0295 28.2744L47 30.0255L45.659 32.3689L42.2613 38.164L40.9569 40.449L38.4278 39.6441L34.2475 38.2191C33.2167 38.9761 32.1022 39.6448 30.9005 40.1849L30.0578 44.3692L30.056 44.3782L29.5437 47H17.4476L16.94 44.3725L16.0942 40.1852C14.8922 39.645 13.7775 38.9762 12.7466 38.2191L8.53699 39.6538L6.03485 40.4497L4.73518 38.1628L1.32533 32.352L0 30.0255L1.97871 28.262L5.13943 25.5216C5.04057 24.9083 4.94713 24.2115 4.94713 23.4999C4.94713 22.7883 5.04057 22.0916 5.13942 21.4784L1.9629 18.7241L6.67376e-05 16.9745L1.33543 14.6303L4.73561 8.83649L6.03487 6.55602L8.56632 7.35584L12.7466 8.78087C13.7775 8.02376 14.8922 7.35487 16.0942 6.81464L16.94 2.62722L17.4476 0ZM23.4967 15.6662C19.2523 15.6662 15.8067 19.1743 15.8067 23.5001C15.8067 27.8258 19.2523 31.3342 23.4967 31.3342C27.7411 31.3342 31.1868 27.8258 31.1868 23.5001C31.1868 19.1743 27.7411 15.6662 23.4967 15.6662Z" fill="#617E8C"/>
</svg>
