<svg width="16" height="25" viewBox="0 0 16 25" fill="none" xmlns="http://www.w3.org/2000/svg">
<path d="M12.3322 0H3.63313C2.66956 0 1.74546 0.410318 1.06412 1.14069C0.382775 1.87106 0 2.86165 0 3.89455L0 20.1529C0.00270928 21.1839 0.38668 22.1717 1.06773 22.8997C1.74878 23.6277 2.67133 24.0365 3.63313 24.0365H12.3322C13.2922 24.0336 14.2121 23.6235 14.8909 22.8958C15.5698 22.1682 15.9524 21.182 15.9551 20.1529V3.89455C15.9551 2.86355 15.5737 1.87461 14.8946 1.14456C14.2154 0.414504 13.2939 0.00290423 12.3322 0V0ZM2.35386 3.89455C2.35386 3.53085 2.48864 3.18205 2.72855 2.92488C2.96846 2.66771 3.29384 2.52323 3.63313 2.52323H12.3322C12.6697 2.52612 12.9924 2.67188 13.2301 2.92874C13.4678 3.1856 13.6012 3.53275 13.6012 3.89455V20.1529C13.5985 20.5128 13.464 20.8572 13.2265 21.1117C12.9891 21.3662 12.6679 21.5104 12.3322 21.5133H3.63313C3.29561 21.5133 2.97176 21.3703 2.73214 21.1155C2.49253 20.8607 2.35656 20.5147 2.35386 20.1529V3.89455Z" fill="#F2EDDF"/>
<path d="M9.04695 20.1639H6.90801C6.59587 20.1639 6.29651 20.031 6.07579 19.7944C5.85508 19.5578 5.73108 19.2369 5.73108 18.9023V18.9023C5.73375 18.5686 5.85861 18.2493 6.07875 18.0133C6.29889 17.7774 6.59669 17.6435 6.90801 17.6407H9.04695C9.20236 17.6392 9.35651 17.6708 9.50048 17.7335C9.64446 17.7963 9.77541 17.889 9.88578 18.0063C9.99616 18.1236 10.0838 18.2631 10.1436 18.4169C10.2033 18.5707 10.2341 18.7357 10.2341 18.9023C10.2355 19.0693 10.2057 19.2349 10.1464 19.3894C10.0871 19.5438 9.99951 19.684 9.88886 19.8016C9.77821 19.9192 9.6467 20.0118 9.5021 20.0741C9.3575 20.1363 9.20274 20.1668 9.04695 20.1639V20.1639Z" fill="#F2EDDF"/>
</svg>
