<svg width="23" height="23" viewBox="0 0 23 23" fill="none" xmlns="http://www.w3.org/2000/svg">
<path d="M17.0856 4.00257C16.9048 3.98827 16.723 4.01169 16.5516 4.07137C16.3803 4.13104 16.223 4.22568 16.0898 4.34933C15.9567 4.47297 15.8504 4.62296 15.7777 4.78985C15.705 4.95675 15.6675 5.13694 15.6675 5.3191C15.6675 5.50126 15.705 5.68146 15.7777 5.84835C15.8504 6.01524 15.9567 6.16523 16.0898 6.28888C16.223 6.41253 16.3803 6.50716 16.5516 6.56684C16.723 6.62651 16.9048 6.64994 17.0856 6.63564C17.4155 6.60955 17.7234 6.45953 17.948 6.21551C18.1725 5.97149 18.2973 5.6514 18.2973 5.3191C18.2973 4.9868 18.1725 4.66671 17.948 4.42269C17.7234 4.17867 17.4155 4.02866 17.0856 4.00257Z" fill="#F2EDDF"/>
<path d="M11.2577 5.70633C10.1693 5.70633 9.10536 6.03048 8.20038 6.6378C7.2954 7.24511 6.59006 8.10831 6.17354 9.11824C5.75702 10.1282 5.64804 11.2395 5.86038 12.3116C6.07272 13.3837 6.59684 14.3685 7.36646 15.1415C8.13608 15.9145 9.11664 16.4409 10.1841 16.6541C11.2516 16.8674 12.3581 16.7579 13.3637 16.3396C14.3692 15.9213 15.2287 15.2129 15.8334 14.304C16.4381 13.3951 16.7608 12.3265 16.7608 11.2333C16.7608 9.76748 16.1811 8.36166 15.149 7.32515C14.117 6.28864 12.7173 5.70633 11.2577 5.70633ZM11.2577 14.7713C10.561 14.7713 9.87997 14.5638 9.30067 14.175C8.72138 13.7863 8.26987 13.2337 8.00325 12.5872C7.73663 11.9408 7.66687 11.2294 7.80279 10.5431C7.93872 9.85682 8.27421 9.22642 8.76686 8.73163C9.25951 8.23685 9.88719 7.89989 10.5705 7.76338C11.2538 7.62687 11.9621 7.69693 12.6058 7.96471C13.2495 8.23248 13.7996 8.68595 14.1867 9.26776C14.5738 9.84957 14.7804 10.5336 14.7804 11.2333C14.774 12.1682 14.4003 13.0626 13.7406 13.7221C13.0809 14.3816 12.1885 14.7528 11.2577 14.755V14.7713Z" fill="#F2EDDF"/>
<path d="M15.6246 22.4341H6.69625C4.91947 22.4276 3.21753 21.7147 1.96266 20.4514C0.7078 19.188 0.00213423 17.477 0 15.6924L0 6.72533C0.00643639 4.94083 0.716225 3.2315 1.97413 1.97119C3.23204 0.710874 4.93569 0.0021435 6.71249 0L15.6408 0C17.4204 0.00215731 19.1265 0.713128 20.3849 1.97696C21.6433 3.2408 22.3512 4.95431 22.3533 6.74164V15.7087C22.3469 17.4961 21.6348 19.2079 20.3734 20.4686C19.112 21.7294 17.4042 22.4362 15.6246 22.4341ZM6.71249 2.11135C5.49043 2.1135 4.31903 2.60203 3.4549 3.46991C2.59078 4.33779 2.10436 5.51427 2.10222 6.74164V15.7087C2.10436 16.9361 2.59078 18.1126 3.4549 18.9805C4.31903 19.8484 5.49043 20.3369 6.71249 20.339H15.6408C16.8629 20.3369 18.0343 19.8484 18.8984 18.9805C19.7625 18.1126 20.2489 16.9361 20.2511 15.7087V6.74164C20.2489 5.51427 19.7625 4.33779 18.8984 3.46991C18.0343 2.60203 16.8629 2.1135 15.6408 2.11135H6.71249Z" fill="#F2EDDF"/>
</svg>
