<svg width="21" height="16" viewBox="0 0 21 16" fill="none" xmlns="http://www.w3.org/2000/svg">
<path d="M17.6404 0H3.36929C2.4757 0 1.61871 0.340468 0.986843 0.946506C0.354978 1.55254 0 2.37451 0 3.23157L0 11.2269C0 12.4928 0.524307 13.7069 1.45758 14.602C2.39085 15.4971 3.65664 16 4.97648 16H16.0332C17.3513 15.9975 18.6147 15.4936 19.5458 14.5987C20.477 13.7039 21 12.4912 21 11.2269V3.23157C21.0013 2.80764 20.9153 2.38762 20.747 1.99561C20.5788 1.60359 20.3315 1.24727 20.0194 0.947067C19.7073 0.646865 19.3365 0.408683 18.9283 0.246167C18.52 0.0836519 18.0824 -1.76039e-06 17.6404 0V0ZM17.0788 2.13581L11.6182 8.16251C11.4811 8.31094 11.3126 8.42977 11.124 8.51115C10.9354 8.59254 10.731 8.63461 10.5242 8.63461C10.3174 8.63461 10.1129 8.59254 9.92436 8.51115C9.73576 8.42977 9.56732 8.31094 9.43015 8.16251L3.92116 2.13581H17.0788ZM16.0332 13.8642H4.97648C4.24723 13.8642 3.54785 13.5863 3.03219 13.0918C2.51653 12.5972 2.22683 11.9264 2.22683 11.2269V3.51944L7.7455 9.56471C8.08996 9.94622 8.51594 10.2522 8.99454 10.4619C9.47314 10.6716 9.99317 10.7802 10.5194 10.7802C11.0455 10.7802 11.5656 10.6716 12.0442 10.4619C12.5228 10.2522 12.9487 9.94622 13.2932 9.56471L18.7925 3.51944V11.2269C18.7925 11.574 18.7211 11.9177 18.5823 12.2383C18.4435 12.5589 18.2401 12.85 17.9837 13.095C17.7274 13.3401 17.4231 13.5341 17.0884 13.6661C16.7537 13.7981 16.3951 13.8654 16.0332 13.8642Z" fill="#F2EDDF"/>
</svg>
