<svg width="44" height="44" viewBox="0 0 44 44" fill="none" xmlns="http://www.w3.org/2000/svg">
<path d="M39.2967 5.9771C39.0126 5.73157 38.6667 5.56852 38.2965 5.50562C37.9263 5.44272 37.546 5.48238 37.1967 5.62029L5.47599 18.0821C5.06139 18.245 4.71068 18.5379 4.47636 18.9167C4.24203 19.2956 4.13667 19.7402 4.17604 20.1839C4.21541 20.6277 4.3974 21.0467 4.69478 21.3784C4.99216 21.7101 5.38894 21.9366 5.82576 22.024L14.4357 23.7462V34.3736C14.4314 34.7825 14.5506 35.1831 14.7778 35.5231C15.005 35.8631 15.3295 36.1265 15.7089 36.279C15.963 36.3855 16.2357 36.4406 16.5112 36.4414C16.7805 36.4406 17.047 36.3863 17.2951 36.2817C17.5432 36.1771 17.7681 36.0242 17.9567 35.832L22.8716 30.917L30.1236 37.2987C30.4972 37.6306 30.9795 37.8142 31.4793 37.8147C31.6966 37.8145 31.9125 37.7803 32.1192 37.7133C32.4601 37.6052 32.7666 37.4096 33.0083 37.146C33.2499 36.8824 33.4183 36.5601 33.4964 36.2111L39.9613 8.00075C40.0457 7.63491 40.0284 7.25294 39.9112 6.89624C39.7941 6.53953 39.5816 6.22167 39.2967 5.9771ZM5.54543 20.0623C5.52839 19.9138 5.5619 19.7639 5.64055 19.6368C5.71921 19.5097 5.83841 19.4128 5.9789 19.3619L35.0559 7.93854L14.9637 22.4496L6.09543 20.6758C5.94809 20.6504 5.81364 20.5759 5.71383 20.4646C5.61403 20.3533 5.5547 20.2115 5.54543 20.0623ZM16.9842 34.8598C16.8881 34.956 16.7656 35.0214 16.6322 35.0479C16.4989 35.0744 16.3606 35.0608 16.235 35.0088C16.1094 34.9567 16.002 34.8686 15.9265 34.7555C15.851 34.6425 15.8107 34.5096 15.8107 34.3736V24.7032L21.8373 30.0068L16.9842 34.8598ZM38.6211 7.69361L32.156 35.904C32.1294 36.0201 32.0731 36.1272 31.9926 36.215C31.9121 36.3028 31.8102 36.3682 31.6969 36.4047C31.5836 36.4413 31.4627 36.4478 31.3461 36.4236C31.2295 36.3994 31.1212 36.3453 31.0317 36.2666L16.224 23.2354L38.5099 7.14018C38.5685 7.21825 38.6089 7.30847 38.6282 7.4042C38.6474 7.49994 38.645 7.59877 38.6211 7.69344V7.69361Z" fill="black"/>
</svg>
