<svg width="43" height="43" viewBox="0 0 43 43" fill="none" xmlns="http://www.w3.org/2000/svg">
<path d="M21.5 4.70312C18.5593 4.7039 15.6703 5.47648 13.1218 6.94365C10.5733 8.41082 8.45449 10.5212 6.97717 13.0638C5.49986 15.6065 4.71577 18.4924 4.70328 21.433C4.69079 24.3736 5.45033 27.2661 6.90599 29.8212L5.39344 35.1149C5.29472 35.4605 5.29022 35.8262 5.3804 36.1742C5.47059 36.5221 5.65217 36.8396 5.90634 37.0938C6.16051 37.3479 6.47802 37.5295 6.82597 37.6196C7.17392 37.7098 7.53964 37.7053 7.88525 37.6065L13.1791 36.0941C15.4141 37.3684 17.9119 38.1122 20.4799 38.2683C23.0479 38.4244 25.6174 37.9885 27.9903 36.9943C30.3632 36.0001 32.476 34.4742 34.1657 32.5342C35.8555 30.5942 37.0771 28.292 37.7363 25.8052C38.3955 23.3184 38.4746 20.7134 37.9677 18.1911C37.4607 15.6688 36.3812 13.2967 34.8123 11.2577C33.2435 9.21864 31.2272 7.56723 28.9191 6.4308C26.611 5.29436 24.0727 4.70327 21.5 4.70312ZM21.5 36.9531C18.7246 36.955 16.0001 36.2084 13.6135 34.7919C13.5348 34.745 13.4474 34.7148 13.3565 34.703C13.2657 34.6912 13.1734 34.6981 13.0854 34.7233L7.51606 36.3145C7.40086 36.3474 7.27896 36.3489 7.163 36.3188C7.04704 36.2887 6.94122 36.2282 6.85652 36.1435C6.77182 36.0588 6.71131 35.9529 6.68126 35.837C6.65121 35.721 6.65272 35.5991 6.68562 35.4839L8.27662 29.9147C8.30178 29.8267 8.30868 29.7344 8.29689 29.6436C8.28511 29.5528 8.25489 29.4653 8.20809 29.3866C6.46757 26.4542 5.74575 23.0285 6.15508 19.6432C6.56442 16.2578 8.08192 13.1028 10.4712 10.6698C12.8605 8.23673 15.9873 6.6622 19.3647 6.19147C22.7421 5.72075 26.1804 6.38025 29.1439 8.06725C32.1074 9.75424 34.4297 12.374 35.7492 15.5184C37.0686 18.6629 37.311 22.1554 36.4387 25.452C35.5663 28.7485 33.6282 31.664 30.9262 33.7443C28.2242 35.8245 24.91 36.9527 21.5 36.9531ZM29.9844 24.6146L26.5478 22.6509C26.2368 22.4735 25.8843 22.382 25.5263 22.3858C25.1684 22.3896 24.8179 22.4886 24.5108 22.6726L22.1917 24.064C20.7878 23.3527 19.6473 22.2122 18.9361 20.8083L20.3275 18.4892C20.5115 18.1821 20.6105 17.8316 20.6143 17.4736C20.6181 17.1156 20.5265 16.7631 20.349 16.4522L18.3855 13.0156C18.2251 12.7358 17.9938 12.5032 17.7149 12.3414C17.436 12.1795 17.1193 12.0941 16.7968 12.0937C15.3749 12.0941 14.011 12.6577 13.0036 13.6613C11.9963 14.6649 11.4275 16.0267 11.4218 17.4486C11.4192 19.3031 11.7822 21.14 12.4901 22.8541C13.198 24.5683 14.2368 26.126 15.5472 27.4384C16.8576 28.7507 18.4139 29.7918 20.127 30.5021C21.8402 31.2124 23.6765 31.5781 25.531 31.5781H25.5512C26.9732 31.5725 28.335 31.0037 29.3386 29.9964C30.3422 28.989 30.9059 27.6251 30.9062 26.2031C30.9059 25.8807 30.8204 25.564 30.6586 25.2851C30.4967 25.0062 30.2642 24.7749 29.9844 24.6146ZM25.5494 30.2344H25.5312C23.8533 30.2344 22.1918 29.9036 20.6419 29.2609C19.0919 28.6183 17.6838 27.6764 16.4982 26.4891C15.3126 25.3018 14.3726 23.8924 13.7321 22.3415C13.0917 20.7906 12.7632 19.1287 12.7656 17.4508C12.7702 16.3847 13.197 15.3639 13.9525 14.6117C14.708 13.8596 15.7307 13.4374 16.7968 13.4375C16.8825 13.4376 16.9666 13.4603 17.0406 13.5032C17.1147 13.5462 17.1762 13.6079 17.2188 13.6822L19.1823 17.119C19.2415 17.2227 19.272 17.3401 19.2708 17.4595C19.2695 17.5788 19.2366 17.6956 19.1753 17.798L17.598 20.4263C17.5423 20.5193 17.5098 20.6243 17.5034 20.7325C17.4971 20.8407 17.517 20.9488 17.5614 21.0477C18.4384 22.9994 20.0007 24.5617 21.9525 25.4385C22.0513 25.483 22.1594 25.5029 22.2676 25.4966C22.3758 25.4902 22.4809 25.4577 22.5738 25.4019L25.202 23.8247C25.3044 23.7634 25.4212 23.7304 25.5406 23.7291C25.6599 23.7278 25.7774 23.7583 25.8811 23.8175L29.3177 25.7814C29.392 25.8239 29.4538 25.8853 29.4967 25.9594C29.5397 26.0334 29.5624 26.1175 29.5625 26.2031C29.5626 27.2692 29.1404 28.2919 28.3883 29.0474C27.6362 29.8029 26.6154 30.2297 25.5494 30.2344Z" fill="black"/>
</svg>
