<svg width="20" height="20" viewBox="0 0 20 20" fill="none" xmlns="http://www.w3.org/2000/svg">
<path d="M14.5889 11.9226L14.5814 11.9851C12.7489 11.0718 12.5572 10.9502 12.3206 11.3052C12.1564 11.551 11.6781 12.1085 11.5339 12.2735C11.3881 12.436 11.2431 12.4485 10.9956 12.336C10.7456 12.211 9.94312 11.9485 8.99314 11.0985C8.25315 10.436 7.75649 9.62352 7.60983 9.37353C7.36566 8.95187 7.87649 8.89187 8.34148 8.01189C8.42481 7.83689 8.38231 7.69939 8.32065 7.57523C8.25815 7.45023 7.76066 6.22526 7.55233 5.73693C7.35233 5.25027 7.1465 5.31194 6.99234 5.31194C6.51235 5.27027 6.16152 5.27694 5.85236 5.5986C4.50738 7.07691 4.84654 8.60188 5.99735 10.2235C8.25898 13.1835 9.46396 13.7284 11.6673 14.4851C12.2623 14.6743 12.8047 14.6476 13.2339 14.5859C13.7122 14.5101 14.7064 13.9851 14.9139 13.3976C15.1264 12.8101 15.1264 12.3226 15.0639 12.2101C15.0022 12.0976 14.8389 12.0351 14.5889 11.9226V11.9226Z" fill="white"/>
<path d="M17.0997 2.87447C10.6923 -3.31958 0.0883317 1.17284 0.0841651 9.91101C0.0841651 11.6576 0.541657 13.3609 1.41331 14.8651L0 20L5.27907 18.6233C11.8664 22.1816 19.9963 17.4567 19.9996 9.91601C19.9996 7.26939 18.9663 4.77861 17.0872 2.90697L17.0997 2.87447ZM18.3347 9.88851C18.3297 16.2492 11.3473 20.2217 5.82489 16.975L5.5249 16.7967L2.39996 17.6092L3.23744 14.5718L3.03828 14.2593C-0.398326 8.78853 3.54993 1.63866 10.0598 1.63866C12.2714 1.63866 14.3472 2.50115 15.9105 4.06362C17.473 5.61276 18.3347 7.68855 18.3347 9.88851V9.88851Z" fill="white"/>
</svg>
