<svg width="24" height="24" viewBox="0 0 24 24" fill="none" xmlns="http://www.w3.org/2000/svg">
<g clip-path="url(#clip0_21_26001)">
<path d="M6.56298 11.9797L4.87482 16.6959C5.16896 16.8657 6.00097 17.3461 6.42685 17.5919M6.56298 11.9797L9.02716 7.71166L9.80318 8.15969L12.5192 9.72781L13.2953 10.1758L10.8311 14.4439L7.59087 18.264C7.42166 18.1663 6.93726 17.8866 6.42685 17.5919M6.56298 11.9797L8.89103 13.3238M6.42685 17.5919C5.71 18.8336 4.61099 20.4046 5.57472 21.7561C6.52474 23.0883 9.02716 23.5 10.8311 21C13.1008 17.9261 14.219 12.1734 18.0048 13.1137C19.5949 13.5086 20.3238 15.8959 19 17.5919C17.7127 19.2412 15.9008 20.4174 15.0193 22.5678M12.6554 4.11562L13.3274 2.9516L15.2675 4.07168L14.5954 5.2357M14.893 2.36811L15.565 1.20409M10.4752 6.99567L11.5953 5.05563L14.3114 6.62374L13.1913 8.56378" stroke="black" stroke-width="1.4"/>
</g>
<defs>
<clipPath id="clip0_21_26001">
<rect width="24" height="24" fill="white"/>
</clipPath>
</defs>
</svg>
