<svg width="24" height="24" viewBox="0 0 24 24" fill="none" xmlns="http://www.w3.org/2000/svg">
<g clip-path="url(#clip0_21_26005)">
<path d="M5.81646 14.4094L13.6967 18.959M5.81646 14.4094C5.7225 14.3551 5.69031 14.235 5.74456 14.141L9.31378 7.95896C10.6244 5.68894 13.527 4.91117 15.7971 6.22177C18.0671 7.53237 18.8449 10.435 17.5343 12.7051L13.965 18.8871C13.9108 18.9811 13.7907 19.0133 13.6967 18.959M5.81646 14.4094C4.52536 13.664 1.73491 15.0422 2.48223 15.4736C3.97634 16.3362 11.8246 20.8674 14.4407 22.3779C15.0465 22.7276 15.0552 19.7434 13.6967 18.959" stroke="black" stroke-width="1.4"/>
<path d="M14.9324 7.71566C13.5957 7.44212 12.0432 7.54224 10.9646 9.41053" stroke="black" stroke-width="1.4"/>
<path d="M6.81152 4.52224L8.83774 6.19029M10.6792 1.27492L11.4997 3.99999M16.1563 1.21875L15.3435 4.15627M20.5938 4.4375L18.4687 6.03125M22.5785 9.14139L19.8473 9.55736M19.4581 12.8202L21.9599 13.6107" stroke="black" stroke-width="1.4"/>
</g>
<defs>
<clipPath id="clip0_21_26005">
<rect width="24" height="24" fill="white"/>
</clipPath>
</defs>
</svg>
