<svg width="22" height="20" viewBox="0 0 22 20" fill="none" xmlns="http://www.w3.org/2000/svg">
<path d="M11.0607 3.06066C11.6464 2.47487 11.6464 1.52513 11.0607 0.93934C10.4749 0.353553 9.52513 0.353553 8.93934 0.93934L0.93934 8.93934C0.658035 9.22064 0.5 9.60217 0.5 10C0.5 10.3978 0.658035 10.7794 0.93934 11.0607L8.93934 19.0607C9.52513 19.6464 10.4749 19.6464 11.0607 19.0607C11.6464 18.4749 11.6464 17.5251 11.0607 16.9393L5.62132 11.5H20C20.8284 11.5 21.5 10.8284 21.5 10C21.5 9.17157 20.8284 8.5 20 8.5H5.62132L11.0607 3.06066Z" fill="#161314" stroke="white" stroke-linecap="round" stroke-linejoin="round"/>
</svg>
