<svg width="35" height="35" viewBox="0 0 35 35" fill="none" xmlns="http://www.w3.org/2000/svg">
<path fill-rule="evenodd" clip-rule="evenodd" d="M24.7917 26.2501H10.2083C9.40333 26.2501 8.75 25.5967 8.75 24.7917V17.5001C8.75 16.6951 9.40333 16.0417 10.2083 16.0417H24.7917C25.5967 16.0417 26.25 16.6951 26.25 17.5001V24.7917C26.25 25.5967 25.5967 26.2501 24.7917 26.2501Z" stroke="#DBA237" stroke-width="1.5" stroke-linecap="round" stroke-linejoin="round"/>
<path fill-rule="evenodd" clip-rule="evenodd" d="M7.29167 30.625H27.7083C29.3198 30.625 30.625 29.3198 30.625 27.7083V7.29167C30.625 5.68021 29.3198 4.375 27.7083 4.375H7.29167C5.68021 4.375 4.375 5.68021 4.375 7.29167V27.7083C4.375 29.3198 5.68021 30.625 7.29167 30.625Z" stroke="#DBA237" stroke-width="1.5" stroke-linecap="round" stroke-linejoin="round"/>
<path d="M30.625 11.6667H4.375" stroke="#DBA237" stroke-width="1.5" stroke-linecap="round" stroke-linejoin="round"/>
</svg>
