<svg width="35" height="35" viewBox="0 0 35 35" fill="none" xmlns="http://www.w3.org/2000/svg">
<path d="M27.7082 8.75V7.29167C27.7082 5.68021 26.403 4.375 24.7915 4.375V4.375C23.18 4.375 21.8748 5.68021 21.8748 7.29167V27.7083C21.8748 29.3198 20.5696 30.625 18.9582 30.625H10.2082C8.59671 30.625 7.2915 29.3198 7.2915 27.7083V8.75C7.2915 6.33354 9.25005 4.375 11.6665 4.375H24.7915" stroke="#DBA237" stroke-width="1.5" stroke-linecap="round" stroke-linejoin="round"/>
<path d="M27.7083 13.125V21.875C27.7083 23.4865 26.4031 24.7917 24.7917 24.7917H21.875" stroke="#DBA237" stroke-width="1.5" stroke-linecap="round" stroke-linejoin="round"/>
<path d="M21.875 13.125H29.8958C31.1033 13.125 32.0833 12.145 32.0833 10.9375V10.9375C32.0833 9.73 31.1033 8.75 29.8958 8.75H21.875" stroke="#DBA237" stroke-width="1.5" stroke-linecap="round" stroke-linejoin="round"/>
<path d="M7.2915 8.75H5.104C3.8965 8.75 2.9165 9.73 2.9165 10.9375V10.9375C2.9165 12.145 3.8965 13.125 5.104 13.125H7.2915" stroke="#DBA237" stroke-width="1.5" stroke-linecap="round" stroke-linejoin="round"/>
</svg>
