<svg width="35" height="35" viewBox="0 0 35 35" fill="none" xmlns="http://www.w3.org/2000/svg">
<path d="M8.21058 19.9529V7.93917C8.21058 5.97042 9.806 4.375 11.7747 4.375C13.7435 4.375 15.3389 5.97042 15.3389 7.93917V19.9529V19.9558C16.7739 21.0408 17.716 22.7442 17.716 24.6808C17.716 27.965 15.056 30.625 11.7747 30.625C8.4935 30.625 5.8335 27.965 5.8335 24.6838C5.8335 22.7471 6.77558 21.0408 8.21058 19.9588" stroke="#DBA237" stroke-width="1.5" stroke-linecap="round" stroke-linejoin="round"/>
<path d="M21.875 10.2084H29.1667" stroke="#DBA237" stroke-width="1.5" stroke-linecap="round" stroke-linejoin="round"/>
<path d="M21.875 5.83341H29.1667" stroke="#DBA237" stroke-width="1.5" stroke-linecap="round" stroke-linejoin="round"/>
<path d="M21.875 14.5834H29.1667" stroke="#DBA237" stroke-width="1.5" stroke-linecap="round" stroke-linejoin="round"/>
<path d="M21.875 18.9584H29.1667" stroke="#DBA237" stroke-width="1.5" stroke-linecap="round" stroke-linejoin="round"/>
<path fill-rule="evenodd" clip-rule="evenodd" d="M11.667 26.9792C12.8751 26.9792 13.8545 25.9999 13.8545 24.7917C13.8545 23.5836 12.8751 22.6042 11.667 22.6042C10.4589 22.6042 9.47949 23.5836 9.47949 24.7917C9.47949 25.9999 10.4589 26.9792 11.667 26.9792Z" stroke="#DBA237" stroke-width="1.5" stroke-linecap="round" stroke-linejoin="round"/>
<path d="M11.6667 22.6042V13.125" stroke="#DBA237" stroke-width="1.5" stroke-linecap="round" stroke-linejoin="round"/>
</svg>
