<svg width="35" height="35" viewBox="0 0 35 35" fill="none" xmlns="http://www.w3.org/2000/svg">
<path d="M27.7082 7.29175H29.1665C30.778 7.29175 32.0832 8.59696 32.0832 10.2084V27.7084C32.0832 29.3199 30.778 30.6251 29.1665 30.6251H5.83317C4.22171 30.6251 2.9165 29.3199 2.9165 27.7084V10.2084C2.9165 8.59696 4.22171 7.29175 5.83317 7.29175H7.2915" stroke="#3A3A3A" stroke-width="1.5" stroke-linecap="round" stroke-linejoin="round"/>
<path fill-rule="evenodd" clip-rule="evenodd" d="M17.4998 8.75C17.4998 6.33354 15.5413 4.375 13.1248 4.375H8.74984C7.94484 4.375 7.2915 5.02833 7.2915 5.83333V24.7917C7.2915 25.5967 7.94484 26.25 8.74984 26.25H13.1248C15.5413 26.25 17.4998 28.2085 17.4998 30.625C17.4998 28.2085 19.4584 26.25 21.8748 26.25H26.2498C27.0548 26.25 27.7082 25.5967 27.7082 24.7917V5.83333C27.7082 5.02833 27.0548 4.375 26.2498 4.375H21.8748C19.4584 4.375 17.4998 6.33354 17.4998 8.75Z" stroke="#3A3A3A" stroke-width="1.5" stroke-linecap="round" stroke-linejoin="round"/>
<path d="M17.4997 8.75V30.625" stroke="#3A3A3A" stroke-width="1.5" stroke-linecap="round" stroke-linejoin="round"/>
</svg>
