<svg width="35" height="35" viewBox="0 0 35 35" fill="none" xmlns="http://www.w3.org/2000/svg">
<path fill-rule="evenodd" clip-rule="evenodd" d="M8.74394 18.6404C7.28998 18.3633 5.92207 17.551 5.05873 16.0504C4.0554 14.3077 4.15748 12.0473 5.33144 10.4169C6.96915 8.14188 9.88728 7.595 12.1798 8.70771C12.6523 6.24312 14.85 4.375 17.4998 4.375C20.1496 4.375 22.3473 6.24312 22.8183 8.70771C25.1064 7.59792 28.0158 8.13896 29.655 10.3994C30.8348 12.0269 30.9398 14.2829 29.9481 16.0315C29.0862 17.551 27.7139 18.3575 26.2556 18.6331L26.2454 27.7083C26.2439 29.3183 24.9387 30.6221 23.3287 30.6221L11.6504 30.625C10.0375 30.625 8.73082 29.3169 8.73373 27.7054L8.74394 18.6404Z" stroke="#DBA237" stroke-width="1.5" stroke-linecap="round" stroke-linejoin="round"/>
<path d="M26.25 24.0624H8.75" stroke="#DBA237" stroke-width="1.5" stroke-linecap="round" stroke-linejoin="round"/>
</svg>
