<svg width="35" height="35" viewBox="0 0 35 35" fill="none" xmlns="http://www.w3.org/2000/svg">
<path d="M13.125 11.6667V11.6667C13.125 7.64021 16.3902 4.375 20.4167 4.375V4.375C24.4431 4.375 27.7083 7.64021 27.7083 11.6667V30.625" stroke="#DBA237" stroke-width="1.5" stroke-linecap="round" stroke-linejoin="round"/>
<path fill-rule="evenodd" clip-rule="evenodd" d="M16.6485 18.5909H9.60187C8.02687 18.5909 6.91416 17.048 7.41291 15.5532V15.5532C8.18583 13.2315 10.3573 11.6667 12.8044 11.6667H13.446C15.8917 11.6667 18.0646 13.2315 18.8375 15.5532V15.5532C19.3362 17.048 18.2235 18.5909 16.6485 18.5909V18.5909Z" stroke="#DBA237" stroke-width="1.5" stroke-linecap="round" stroke-linejoin="round"/>
<path d="M13.1252 29.1667V30.6251" stroke="#DBA237" stroke-width="1.5" stroke-linecap="round" stroke-linejoin="round"/>
<path d="M13.1252 24.7916V23.3333" stroke="#DBA237" stroke-width="1.5" stroke-linecap="round" stroke-linejoin="round"/>
<path d="M21.8748 28.6562L21.0728 27.4457" stroke="#DBA237" stroke-width="1.5" stroke-linecap="round" stroke-linejoin="round"/>
<path d="M17.8501 22.6042L18.6522 23.8146" stroke="#DBA237" stroke-width="1.5" stroke-linecap="round" stroke-linejoin="round"/>
<path d="M8.40023 22.6042L7.59814 23.8146" stroke="#DBA237" stroke-width="1.5" stroke-linecap="round" stroke-linejoin="round"/>
<path d="M5.17708 27.4457L4.375 28.6562" stroke="#DBA237" stroke-width="1.5" stroke-linecap="round" stroke-linejoin="round"/>
</svg>
