<svg width="35" height="35" viewBox="0 0 35 35" fill="none" xmlns="http://www.w3.org/2000/svg">
<path fill-rule="evenodd" clip-rule="evenodd" d="M26.2498 20.4168H8.74984V16.771C8.74984 15.5635 7.76984 14.5835 6.56234 14.5835H5.104C3.8965 14.5835 2.9165 15.5635 2.9165 16.771V23.3335C2.9165 24.945 4.22171 26.2502 5.83317 26.2502H29.1665C30.778 26.2502 32.0832 24.945 32.0832 23.3335V16.771C32.0832 15.5635 31.1032 14.5835 29.8957 14.5835H28.4373C27.2298 14.5835 26.2498 15.5635 26.2498 16.771V20.4168Z" stroke="#DBA237" stroke-width="1.5" stroke-linecap="round" stroke-linejoin="round"/>
<path d="M7.29167 26.25V29.1667" stroke="#DBA237" stroke-width="1.5" stroke-linecap="round" stroke-linejoin="round"/>
<path d="M27.7082 26.25V29.1667" stroke="#DBA237" stroke-width="1.5" stroke-linecap="round" stroke-linejoin="round"/>
<path d="M5.83301 14.5834V11.6667C5.83301 9.25029 7.79155 7.29175 10.208 7.29175H24.7913C27.2078 7.29175 29.1663 9.25029 29.1663 11.6667V14.5834" stroke="#DBA237" stroke-width="1.5" stroke-linecap="round" stroke-linejoin="round"/>
</svg>
