<svg width="35" height="35" viewBox="0 0 35 35" fill="none" xmlns="http://www.w3.org/2000/svg">
<path fill-rule="evenodd" clip-rule="evenodd" d="M30.625 15.1272V8.72805C30.625 7.63284 29.8142 6.7068 28.7292 6.55951L13.0098 4.44492C8.43938 3.82951 4.375 7.38346 4.375 11.9947V11.9947C4.375 16.6322 8.48313 20.1935 13.074 19.5358L28.7481 17.2914C29.8244 17.1383 30.625 16.2151 30.625 15.1272Z" stroke="#3A3A3A" stroke-width="1.5" stroke-linecap="round" stroke-linejoin="round"/>
<path d="M14.3537 10.1159C15.3504 11.1125 15.3504 12.7284 14.3537 13.7251C13.3571 14.7217 11.7412 14.7217 10.7446 13.7251C9.74791 12.7284 9.74791 11.1125 10.7446 10.1159C11.7412 9.11925 13.3571 9.11925 14.3537 10.1159" stroke="#3A3A3A" stroke-width="1.5" stroke-linecap="round" stroke-linejoin="round"/>
<path d="M25.8854 6.2854V17.5437" stroke="#3A3A3A" stroke-width="1.5" stroke-linecap="round" stroke-linejoin="round"/>
<path d="M10.2114 19.3944C10.5716 21.9187 11.0587 25.321 11.4 27.7171C11.6391 29.3883 13.0698 30.625 14.7585 30.625V30.625C16.8221 30.625 18.4087 28.8021 18.1171 26.7589C17.7568 24.2331 17.3821 21.6125 17.0043 18.9744" stroke="#3A3A3A" stroke-width="1.5" stroke-linecap="round" stroke-linejoin="round"/>
</svg>
