<svg width="35" height="35" viewBox="0 0 35 35" fill="none" xmlns="http://www.w3.org/2000/svg">
<path d="M18.9585 6.18759C21.375 3.77113 25.292 3.77113 27.7085 6.18759" stroke="#DBA237" stroke-width="1.5" stroke-linecap="round" stroke-linejoin="round"/>
<path d="M21.146 9.10434C22.3535 7.89684 24.3135 7.89684 25.521 9.10434" stroke="#DBA237" stroke-width="1.5" stroke-linecap="round" stroke-linejoin="round"/>
<path d="M18.9585 24.7917H10.2085" stroke="#DBA237" stroke-width="1.5" stroke-linecap="round" stroke-linejoin="round"/>
<path d="M23.2824 24.8427C23.2532 24.8135 23.2532 24.7683 23.2824 24.7392C23.3115 24.71 23.3568 24.71 23.3859 24.7392C23.4151 24.7683 23.4151 24.8135 23.3859 24.8427C23.3568 24.8719 23.3101 24.8719 23.2824 24.8427" stroke="#DBA237" stroke-width="1.5" stroke-linecap="round" stroke-linejoin="round"/>
<path d="M23.3332 18.9583V13.125" stroke="#DBA237" stroke-width="1.5" stroke-linecap="round" stroke-linejoin="round"/>
<path fill-rule="evenodd" clip-rule="evenodd" d="M7.29167 18.9583H27.7083C29.3198 18.9583 30.625 20.2635 30.625 21.8749V27.7083C30.625 29.3197 29.3198 30.6249 27.7083 30.6249H7.29167C5.68021 30.6249 4.375 29.3197 4.375 27.7083V21.8749C4.375 20.2635 5.68021 18.9583 7.29167 18.9583Z" stroke="#DBA237" stroke-width="1.5" stroke-linecap="round" stroke-linejoin="round"/>
</svg>
