<svg width="35" height="35" viewBox="0 0 35 35" fill="none" xmlns="http://www.w3.org/2000/svg">
<path fill-rule="evenodd" clip-rule="evenodd" d="M29.1665 17.5977H5.83317C4.22171 17.5977 2.9165 18.9029 2.9165 20.5143V24.7916C2.9165 25.5966 3.56984 26.2499 4.37484 26.2499H30.6248C31.4298 26.2499 32.0832 25.5966 32.0832 24.7916V20.5143C32.0832 18.9029 30.778 17.5977 29.1665 17.5977Z" stroke="#DBA237" stroke-width="1.5" stroke-linecap="round" stroke-linejoin="round"/>
<path d="M5.104 17.6896V17.5977V17.5977C5.104 15.1273 7.1063 13.125 9.57671 13.125H12.979C15.0732 13.125 16.7707 14.8225 16.7707 16.9167V17.5977" stroke="#DBA237" stroke-width="1.5" stroke-linecap="round" stroke-linejoin="round"/>
<path d="M16.7705 17.5977V17.5977C16.7705 15.1273 18.7728 13.125 21.2432 13.125H25.4243C27.8947 13.125 29.897 15.1273 29.897 17.5977V17.5977V17.6896" stroke="#DBA237" stroke-width="1.5" stroke-linecap="round" stroke-linejoin="round"/>
<path d="M5.83301 15.152V10.2083C5.83301 7.79179 7.79155 5.83325 10.208 5.83325H24.7913C27.2078 5.83325 29.1663 7.79179 29.1663 10.2083V15.152" stroke="#DBA237" stroke-width="1.5" stroke-linecap="round" stroke-linejoin="round"/>
<path d="M30.6247 26.25V29.1667" stroke="#DBA237" stroke-width="1.5" stroke-linecap="round" stroke-linejoin="round"/>
<path d="M4.37467 26.25V29.1667" stroke="#DBA237" stroke-width="1.5" stroke-linecap="round" stroke-linejoin="round"/>
</svg>
