<svg width="35" height="35" viewBox="0 0 35 35" fill="none" xmlns="http://www.w3.org/2000/svg">
<path fill-rule="evenodd" clip-rule="evenodd" d="M7.29167 30.625H27.386C28.9975 30.625 30.3027 29.3198 30.3027 27.7083V7.29167C30.3027 5.68021 28.9975 4.375 27.386 4.375H7.29167C5.68021 4.375 4.375 5.68021 4.375 7.29167V27.7083C4.375 29.3198 5.68021 30.625 7.29167 30.625Z" stroke="#DBA237" stroke-width="1.5" stroke-linecap="round" stroke-linejoin="round"/>
<path d="M30.3042 11.6667H4.375" stroke="#DBA237" stroke-width="1.5" stroke-linecap="round" stroke-linejoin="round"/>
<path d="M12.4486 24.0626V24.0626C11.7179 22.7967 12.0898 21.1824 13.3002 20.3642L13.3017 20.3628C14.2729 19.7051 15.5519 19.7269 16.4998 20.4167L18.5006 21.8736C19.4486 22.5634 20.7275 22.5853 21.6988 21.9276L21.7002 21.9261C22.9106 21.108 23.2811 19.4936 22.5519 18.2278V18.2278" stroke="#DBA237" stroke-width="1.5" stroke-linecap="round" stroke-linejoin="round"/>
<path d="M21.6246 17.021C23.9027 19.2991 23.9027 22.9926 21.6246 25.2706C19.3466 27.5487 15.6531 27.5487 13.3751 25.2706C11.097 22.9926 11.097 19.2991 13.3751 17.021C15.6531 14.743 19.3466 14.743 21.6246 17.021" stroke="#DBA237" stroke-width="1.5" stroke-linecap="round" stroke-linejoin="round"/>
<path d="M23.3335 8.02091H26.2502" stroke="#DBA237" stroke-width="1.5" stroke-linecap="round" stroke-linejoin="round"/>
</svg>
