<svg width="35" height="35" viewBox="0 0 35 35" fill="none" xmlns="http://www.w3.org/2000/svg">
<path fill-rule="evenodd" clip-rule="evenodd" d="M21.1852 13.3H16.733C15.7369 13.3 15.034 12.3244 15.349 11.3809V11.3809C15.8375 9.9138 17.2098 8.92505 18.7557 8.92505H19.1611C20.7069 8.92505 22.0792 9.9138 22.5677 11.3809V11.3809C22.8827 12.3244 22.1798 13.3 21.1852 13.3V13.3Z" stroke="#DBA237" stroke-width="1.5" stroke-linecap="round" stroke-linejoin="round"/>
<path d="M10.198 19.3418H5.83323C4.93781 19.3418 4.25386 20.141 4.3924 21.0247L4.89406 24.233C5.3374 27.0739 7.78302 29.1666 10.6574 29.1666H24.3424C27.2168 29.1666 29.6624 27.0739 30.1057 24.2345L30.6074 21.0262C30.7459 20.1424 30.062 19.3433 29.1666 19.3433H17.8834" stroke="#DBA237" stroke-width="1.5" stroke-linecap="round" stroke-linejoin="round"/>
<path d="M18.9585 8.925V8.75C18.9585 6.33354 20.917 4.375 23.3335 4.375V4.375C25.75 4.375 27.7085 6.33354 27.7085 8.75V19.3419" stroke="#DBA237" stroke-width="1.5" stroke-linecap="round" stroke-linejoin="round"/>
<path fill-rule="evenodd" clip-rule="evenodd" d="M14.8139 25.1752H13.2783C11.5837 25.1752 10.2085 23.8015 10.2085 22.1054V19.1815C10.2085 18.2525 10.961 17.5 11.89 17.5H16.2022C17.1312 17.5 17.8837 18.2525 17.8837 19.1815V22.1054C17.8837 23.8015 16.51 25.1752 14.8139 25.1752Z" stroke="#DBA237" stroke-width="1.5" stroke-linecap="round" stroke-linejoin="round"/>
<path d="M8.80817 28.875L7.2915 30.625" stroke="#DBA237" stroke-width="1.5" stroke-linecap="round" stroke-linejoin="round"/>
<path d="M27.7086 30.625L26.1919 28.875" stroke="#DBA237" stroke-width="1.5" stroke-linecap="round" stroke-linejoin="round"/>
</svg>
