<svg width="162" height="47" viewBox="0 0 162 47" fill="none" xmlns="http://www.w3.org/2000/svg">
<rect x="0.980835" width="161.019" height="46.3805" rx="8" fill="#898989"/>
<path d="M55.0382 15.4583C54.504 15.4583 53.9977 15.3706 53.5193 15.1952C53.0409 15.0198 52.5984 14.7368 52.1918 14.3461L52.9452 13.4012C53.2721 13.7042 53.599 13.9235 53.9259 14.059C54.2608 14.1866 54.6276 14.2504 55.0262 14.2504C55.4807 14.2504 55.8594 14.1388 56.1624 13.9155C56.4734 13.6923 56.6288 13.3733 56.6288 12.9587C56.6288 12.5441 56.4774 12.2412 56.1744 12.0498C55.8794 11.8584 55.4448 11.7628 54.8708 11.7628H53.902V10.7223H54.6316C55.2056 10.7223 55.6163 10.6266 55.8634 10.4352C56.1186 10.2439 56.2461 9.9688 56.2461 9.61C56.2461 9.25121 56.1186 8.9881 55.8634 8.82066C55.6163 8.64525 55.3053 8.55755 54.9306 8.55755C54.5957 8.55755 54.2887 8.61734 54.0097 8.73694C53.7306 8.84857 53.4635 9.00803 53.2084 9.21533L52.5027 8.29443C52.8137 7.99942 53.1804 7.7682 53.603 7.60076C54.0336 7.43333 54.488 7.34961 54.9664 7.34961C55.7877 7.34961 56.4295 7.53299 56.892 7.89976C57.3624 8.26652 57.5976 8.76883 57.5976 9.40669C57.5976 9.79737 57.5059 10.1482 57.3225 10.4591C57.1391 10.7621 56.872 10.9854 56.5212 11.1289V11.1767C56.9438 11.2724 57.2946 11.4837 57.5737 11.8106C57.8527 12.1375 57.9923 12.5521 57.9923 13.0544C57.9923 13.5727 57.8607 14.0112 57.5976 14.37C57.3345 14.7288 56.9797 14.9999 56.5332 15.1833C56.0867 15.3666 55.5883 15.4583 55.0382 15.4583Z" fill="white"/>
<path d="M60.9534 15.4583C60.4431 15.4583 60.0245 15.2989 59.6976 14.9799C59.3787 14.661 59.2193 14.2464 59.2193 13.7361C59.2193 13.1062 59.4943 12.6199 60.0445 12.277C60.5946 11.9262 61.4717 11.687 62.6756 11.5594C62.6676 11.2485 62.5839 10.9814 62.4245 10.7581C62.273 10.5269 61.9979 10.4113 61.5992 10.4113C61.3122 10.4113 61.0292 10.4671 60.7501 10.5787C60.479 10.6904 60.2119 10.8259 59.9488 10.9854L59.4465 10.0645C59.7734 9.85717 60.1402 9.67778 60.5468 9.52629C60.9614 9.3748 61.3999 9.29905 61.8624 9.29905C62.5959 9.29905 63.1421 9.51831 63.5008 9.95684C63.8676 10.3874 64.051 11.0133 64.051 11.8345V15.3148H62.9148L62.8191 14.669H62.7713C62.5082 14.8922 62.2251 15.0796 61.9222 15.2311C61.6271 15.3826 61.3042 15.4583 60.9534 15.4583ZM61.3959 14.3819C61.6351 14.3819 61.8504 14.3261 62.0418 14.2145C62.2411 14.0949 62.4524 13.9355 62.6756 13.7361V12.4205C61.8783 12.5242 61.3242 12.6797 61.0132 12.887C60.7023 13.0863 60.5468 13.3335 60.5468 13.6285C60.5468 13.8916 60.6265 14.083 60.786 14.2026C60.9454 14.3221 61.1488 14.3819 61.3959 14.3819Z" fill="white"/>
<path d="M65.9362 15.3148V9.44257H69.7992V10.5309H67.3115V15.3148H65.9362Z" fill="white"/>
<path d="M71.2209 17.635V9.44257H72.357L72.4527 10.0645H72.5006C72.7477 9.85717 73.0228 9.67778 73.3258 9.52629C73.6367 9.3748 73.9517 9.29905 74.2706 9.29905C75.0041 9.29905 75.5702 9.57014 75.9689 10.1123C76.3755 10.6545 76.5788 11.38 76.5788 12.289C76.5788 12.9587 76.4592 13.5328 76.22 14.0112C75.9809 14.4816 75.6699 14.8404 75.2872 15.0876C74.9124 15.3347 74.5058 15.4583 74.0673 15.4583C73.8122 15.4583 73.557 15.4025 73.3019 15.2909C73.0467 15.1713 72.7996 15.0118 72.5604 14.8125L72.5962 15.7932V17.635H71.2209ZM73.7803 14.3221C74.1709 14.3221 74.4978 14.1507 74.761 13.8079C75.0241 13.465 75.1556 12.9627 75.1556 12.301C75.1556 11.7109 75.056 11.2525 74.8566 10.9256C74.6573 10.5987 74.3344 10.4352 73.8879 10.4352C73.4733 10.4352 73.0427 10.6545 72.5962 11.093V13.8318C72.8115 14.0072 73.0188 14.1348 73.2181 14.2145C73.4175 14.2863 73.6048 14.3221 73.7803 14.3221Z" fill="white"/>
<path d="M78.5354 17.7307C78.3759 17.7307 78.2364 17.7187 78.1168 17.6948C77.9972 17.6709 77.8816 17.643 77.77 17.6111L78.0211 16.5347C78.0769 16.5507 78.1407 16.5666 78.2125 16.5825C78.2922 16.6065 78.3679 16.6184 78.4397 16.6184C78.7507 16.6184 78.9978 16.5227 79.1812 16.3314C79.3726 16.148 79.5161 15.9088 79.6118 15.6138L79.7194 15.2431L77.4112 9.44257H78.8105L79.827 12.3249C79.9147 12.58 79.9985 12.8511 80.0782 13.1381C80.1659 13.4172 80.2536 13.6963 80.3413 13.9753H80.3891C80.4609 13.7042 80.5327 13.4292 80.6044 13.1501C80.6842 12.8631 80.7599 12.588 80.8317 12.3249L81.7167 9.44257H83.0442L80.9154 15.5779C80.6682 16.2397 80.3692 16.7619 80.0184 17.1447C79.6676 17.5353 79.1732 17.7307 78.5354 17.7307Z" fill="white"/>
<path d="M85.8726 15.4583C85.4739 15.4583 85.0912 15.4105 84.7245 15.3148C84.3577 15.2112 83.9909 15.0198 83.6242 14.7407L84.1863 13.8557C84.4414 14.055 84.7045 14.1946 84.9756 14.2743C85.2467 14.354 85.5058 14.3939 85.753 14.3939C86.1038 14.3939 86.4028 14.3182 86.65 14.1667C86.8972 14.0152 87.0207 13.8039 87.0207 13.5328C87.0207 13.0145 86.6221 12.7554 85.8248 12.7554H84.9517V11.8226H85.7052C86.0799 11.8226 86.359 11.7588 86.5424 11.6312C86.7257 11.4957 86.8174 11.3123 86.8174 11.0811C86.8174 10.8419 86.7217 10.6625 86.5304 10.5429C86.347 10.4233 86.0959 10.3635 85.7769 10.3635C85.4819 10.3635 85.2148 10.3993 84.9756 10.4711C84.7444 10.5429 84.5132 10.6585 84.282 10.8179L83.7438 9.92096C84.0467 9.71365 84.3697 9.55818 84.7125 9.45453C85.0633 9.35088 85.446 9.29905 85.8606 9.29905C86.2673 9.29905 86.642 9.35885 86.9849 9.47845C87.3357 9.59007 87.6147 9.76548 87.822 10.0047C88.0373 10.2439 88.145 10.5508 88.145 10.9256C88.145 11.1887 88.0652 11.4398 87.9058 11.679C87.7463 11.9103 87.5071 12.0817 87.1882 12.1933V12.2412C87.539 12.3289 87.826 12.4883 88.0493 12.7195C88.2725 12.9428 88.3842 13.2577 88.3842 13.6644C88.3842 14.0471 88.2646 14.374 88.0254 14.6451C87.7862 14.9082 87.4752 15.1115 87.0925 15.255C86.7098 15.3906 86.3032 15.4583 85.8726 15.4583Z" fill="white"/>
<path d="M89.9248 15.3148V9.44257H91.2643V11.4638C91.2643 11.7667 91.2484 12.1056 91.2165 12.4803C91.1925 12.8471 91.1686 13.2179 91.1447 13.5926H91.1806C91.2842 13.4092 91.4078 13.2019 91.5513 12.9707C91.6949 12.7315 91.8145 12.5242 91.9101 12.3488L93.7759 9.44257H95.0436V15.3148H93.7041V13.2936C93.7041 12.9906 93.7161 12.6518 93.74 12.277C93.7719 11.9023 93.8038 11.5315 93.8357 11.1648H93.7878C93.6842 11.3402 93.5606 11.5475 93.4171 11.7867C93.2815 12.0259 93.1619 12.2332 93.0583 12.4086L91.1925 15.3148H89.9248Z" fill="white"/>
<path d="M98.3112 15.3148V10.5309H96.4694V9.44257H101.54V10.5309H99.6986V15.3148H98.3112Z" fill="white"/>
<path d="M105.283 15.4583C104.741 15.4583 104.251 15.3387 103.812 15.0995C103.374 14.8524 103.027 14.5015 102.772 14.0471C102.517 13.5846 102.389 13.0305 102.389 12.3847C102.389 11.7468 102.517 11.1967 102.772 10.7342C103.035 10.2718 103.374 9.91697 103.788 9.6698C104.203 9.42263 104.637 9.29905 105.092 9.29905C105.626 9.29905 106.073 9.41865 106.431 9.65784C106.79 9.88906 107.061 10.216 107.245 10.6385C107.428 11.0531 107.52 11.5355 107.52 12.0857C107.52 12.3727 107.5 12.596 107.46 12.7554H103.729C103.792 13.2737 103.98 13.6763 104.291 13.9634C104.602 14.2504 104.992 14.3939 105.463 14.3939C105.718 14.3939 105.953 14.358 106.168 14.2863C106.392 14.2065 106.611 14.0989 106.826 13.9634L107.293 14.8245C107.013 15.0078 106.703 15.1593 106.36 15.2789C106.017 15.3985 105.658 15.4583 105.283 15.4583ZM103.717 11.8226H106.324C106.324 11.3681 106.224 11.0133 106.025 10.7581C105.825 10.495 105.526 10.3635 105.128 10.3635C104.785 10.3635 104.478 10.491 104.207 10.7462C103.944 10.9933 103.78 11.3521 103.717 11.8226Z" fill="white"/>
<path d="M111.706 15.3148V9.44257H114.086C114.525 9.44257 114.911 9.49041 115.246 9.58608C115.589 9.68176 115.86 9.84123 116.059 10.0645C116.259 10.2877 116.358 10.5867 116.358 10.9615C116.358 11.2485 116.275 11.5036 116.107 11.7269C115.948 11.9422 115.705 12.0976 115.378 12.1933V12.2412C115.729 12.3209 116.02 12.4724 116.251 12.6956C116.482 12.9109 116.598 13.2219 116.598 13.6285C116.598 14.0192 116.49 14.3421 116.275 14.5972C116.067 14.8444 115.784 15.0278 115.426 15.1474C115.067 15.259 114.66 15.3148 114.206 15.3148H111.706ZM113.058 11.8226H113.954C114.337 11.8226 114.612 11.7588 114.78 11.6312C114.947 11.5036 115.031 11.3282 115.031 11.105C115.031 10.8738 114.951 10.6944 114.792 10.5668C114.632 10.4392 114.365 10.3754 113.99 10.3754H113.058V11.8226ZM113.058 14.3819H114.11C114.509 14.3819 114.796 14.3062 114.971 14.1547C115.154 14.0032 115.246 13.7999 115.246 13.5448C115.246 13.3056 115.146 13.1142 114.947 12.9707C114.756 12.8272 114.461 12.7554 114.062 12.7554H113.058V14.3819Z" fill="white"/>
<path d="M36.3845 22.9282C36.3494 19.0265 39.5748 17.1284 39.7223 17.04C37.8956 14.3731 35.0643 14.0088 34.0693 13.9797C31.6913 13.7291 29.3847 15.4045 28.1733 15.4045C26.9378 15.4045 25.0724 14.0039 23.0619 14.0451C20.4748 14.085 18.0545 15.5849 16.7271 17.914C13.9876 22.6631 16.0307 29.6419 18.6553 33.4806C19.9683 35.3606 21.5024 37.4598 23.5104 37.3859C25.475 37.3048 26.2088 36.1318 28.5795 36.1318C30.9285 36.1318 31.6176 37.3859 33.6655 37.3387C35.7739 37.3048 37.1014 35.4502 38.3683 33.5533C39.8855 31.3985 40.4949 29.2764 40.519 29.1674C40.4695 29.1505 36.4243 27.6046 36.3845 22.9282Z" fill="white"/>
<path d="M32.515 11.4549C33.5716 10.1318 34.2945 8.33168 34.0939 6.50494C32.5645 6.57274 30.652 7.56419 29.5507 8.85827C28.5762 9.99862 27.7058 11.8677 27.9307 13.6255C29.6486 13.7538 31.4124 12.7575 32.515 11.4549Z" fill="white"/>
<path d="M64.8135 37.1169H62.068L60.564 32.3848H55.3366L53.904 37.1169H51.231L56.4101 21.0067H59.609L64.8135 37.1169ZM60.1107 30.3995L58.7506 26.1928C58.6068 25.763 58.3372 24.751 57.9394 23.1579H57.8911C57.7327 23.8431 57.4776 24.8551 57.127 26.1928L55.7911 30.3995H60.1107Z" fill="white"/>
<path d="M78.1333 31.1655C78.1333 33.1411 77.6002 34.7028 76.5339 35.8492C75.5788 36.8697 74.3928 37.3793 72.9772 37.3793C71.4491 37.3793 70.3514 36.8297 69.6828 35.7305H69.6345V41.8499H67.057V29.3242C67.057 28.0822 67.0244 26.8075 66.9615 25.5001H69.2283L69.3721 27.3413H69.4205C70.28 25.954 71.5845 25.2616 73.335 25.2616C74.7035 25.2616 75.846 25.8027 76.76 26.8862C77.6763 27.9708 78.1333 29.3969 78.1333 31.1655ZM75.5075 31.2599C75.5075 30.1293 75.2536 29.1971 74.7434 28.4635C74.1861 27.6985 73.4378 27.3159 72.4996 27.3159C71.8637 27.3159 71.2859 27.529 70.7696 27.949C70.2522 28.3727 69.9137 28.926 69.7553 29.6111C69.6756 29.9307 69.6357 30.1922 69.6357 30.398V32.3349C69.6357 33.1799 69.8944 33.8929 70.4118 34.4752C70.9292 35.0575 71.6014 35.348 72.4283 35.348C73.3991 35.348 74.1547 34.9727 74.6951 34.2246C75.2367 33.4753 75.5075 32.4874 75.5075 31.2599Z" fill="white"/>
<path d="M91.4758 31.1655C91.4758 33.1411 90.9427 34.7028 89.8752 35.8492C88.9214 36.8697 87.7354 37.3793 86.3197 37.3793C84.7916 37.3793 83.6939 36.8297 83.0266 35.7305H82.9782V41.8499H80.4007V29.3242C80.4007 28.0822 80.3681 26.8075 80.3052 25.5001H82.572L82.7159 27.3413H82.7642C83.6226 25.954 84.927 25.2616 86.6788 25.2616C88.0461 25.2616 89.1885 25.8027 90.1049 26.8862C91.0177 27.9708 91.4758 29.3969 91.4758 31.1655ZM88.85 31.2599C88.85 30.1293 88.5949 29.1971 88.0848 28.4635C87.5274 27.6985 86.7815 27.3159 85.8422 27.3159C85.2051 27.3159 84.6284 27.529 84.111 27.949C83.5936 28.3727 83.2563 28.926 83.0979 29.6111C83.0193 29.9307 82.9782 30.1922 82.9782 30.398V32.3349C82.9782 33.1799 83.2369 33.8929 83.7519 34.4752C84.2693 35.0562 84.9415 35.348 85.7709 35.348C86.7416 35.348 87.4972 34.9727 88.0376 34.2246C88.5792 33.4753 88.85 32.4874 88.85 31.2599Z" fill="white"/>
<path d="M106.392 32.5988C106.392 33.9691 105.917 35.0841 104.963 35.9448C103.915 36.8854 102.455 37.3551 100.58 37.3551C98.8491 37.3551 97.4613 37.021 96.4107 36.3515L97.0079 34.2004C98.1395 34.8855 99.3811 35.2293 100.734 35.2293C101.705 35.2293 102.46 35.009 103.003 34.5708C103.543 34.1326 103.813 33.5442 103.813 32.8106C103.813 32.1569 103.591 31.6061 103.145 31.1594C102.701 30.7127 101.96 30.2975 100.925 29.9138C98.1081 28.8618 96.7009 27.3207 96.7009 25.2943C96.7009 23.9699 97.1941 22.884 98.1818 22.0391C99.1659 21.1929 100.479 20.7704 102.121 20.7704C103.585 20.7704 104.801 21.0258 105.772 21.5355L105.127 23.6394C104.22 23.1455 103.195 22.8986 102.048 22.8986C101.141 22.8986 100.433 23.1225 99.9251 23.568C99.4959 23.9663 99.2807 24.4517 99.2807 25.0267C99.2807 25.6635 99.5261 26.1901 100.019 26.6041C100.449 26.9866 101.228 27.4006 102.36 27.8473C103.744 28.4054 104.761 29.0579 105.415 29.806C106.067 30.5517 106.392 31.4851 106.392 32.5988Z" fill="white"/>
<path d="M114.913 27.4367H112.072V33.0767C112.072 34.5112 112.573 35.2279 113.576 35.2279C114.037 35.2279 114.419 35.1879 114.721 35.108L114.792 37.0679C114.285 37.258 113.616 37.3536 112.788 37.3536C111.77 37.3536 110.975 37.0425 110.4 36.4215C109.828 35.7993 109.541 34.7557 109.541 33.2898V27.4343H107.848V25.4974H109.541V23.3704L112.072 22.6053V25.4974H114.913V27.4367Z" fill="white"/>
<path d="M127.734 31.2125C127.734 32.9981 127.224 34.4641 126.206 35.6105C125.139 36.7907 123.722 37.3791 121.956 37.3791C120.254 37.3791 118.898 36.8138 117.888 35.6831C116.877 34.5524 116.372 33.1252 116.372 31.405C116.372 29.6049 116.891 28.1304 117.935 26.984C118.976 25.8364 120.38 25.2626 122.147 25.2626C123.849 25.2626 125.219 25.8279 126.252 26.9598C127.241 28.0578 127.734 29.4753 127.734 31.2125ZM125.06 31.296C125.06 30.2247 124.832 29.3058 124.369 28.5396C123.828 27.6123 123.056 27.1498 122.055 27.1498C121.019 27.1498 120.232 27.6135 119.691 28.5396C119.228 29.3071 119 30.2404 119 31.3444C119 32.4158 119.228 33.3346 119.691 34.0997C120.249 35.027 121.027 35.4894 122.032 35.4894C123.016 35.4894 123.788 35.0173 124.346 34.0755C124.821 33.2946 125.06 32.3661 125.06 31.296Z" fill="white"/>
<path d="M136.11 27.7699C135.855 27.7227 135.582 27.6985 135.297 27.6985C134.39 27.6985 133.689 28.041 133.196 28.7274C132.767 29.3327 132.552 30.0978 132.552 31.0214V37.1166H129.975L130 29.1584C130 27.8195 129.967 26.6005 129.903 25.5013H132.148L132.242 27.7239H132.314C132.586 26.96 133.015 26.345 133.602 25.8838C134.176 25.4686 134.797 25.2616 135.465 25.2616C135.703 25.2616 135.919 25.2785 136.11 25.3088V27.7699Z" fill="white"/>
<path d="M147.639 30.7591C147.639 31.2215 147.608 31.6113 147.544 31.9297H139.812C139.842 33.0773 140.216 33.9549 140.934 34.5602C141.585 35.1013 142.428 35.3725 143.463 35.3725C144.608 35.3725 145.652 35.1897 146.592 34.8229L146.995 36.6145C145.898 37.0939 144.602 37.3324 143.106 37.3324C141.307 37.3324 139.895 36.8022 138.868 35.7429C137.842 34.6837 137.329 33.2613 137.329 31.4769C137.329 29.7252 137.806 28.2665 138.762 27.1032C139.763 25.8611 141.116 25.2401 142.818 25.2401C144.49 25.2401 145.756 25.8611 146.616 27.1032C147.296 28.0898 147.639 29.31 147.639 30.7591ZM145.181 30.0896C145.198 29.3245 145.03 28.6636 144.68 28.1055C144.234 27.3876 143.549 27.0293 142.626 27.0293C141.784 27.0293 141.098 27.3792 140.575 28.0813C140.146 28.6394 139.89 29.3088 139.812 30.0884H145.181V30.0896Z" fill="white"/>
</svg>
