<svg width="25" height="24" viewBox="0 0 25 24" fill="none" xmlns="http://www.w3.org/2000/svg">
<path fill-rule="evenodd" clip-rule="evenodd" d="M6.01201 10.5964C10.0385 8.76182 12.7235 7.55233 14.0669 6.96797C17.9027 5.2995 18.6998 5.00967 19.2193 5.0001C19.3335 4.998 19.589 5.02761 19.7545 5.16804C19.8942 5.28661 19.9327 5.44679 19.9511 5.55921C19.9695 5.67163 19.9924 5.92773 19.9742 6.12784C19.7663 8.41185 18.8669 13.9545 18.4093 16.5127C18.2157 17.5951 17.8345 17.958 17.4654 17.9936C16.6633 18.0707 16.0542 17.4392 15.2773 16.9067C14.0617 16.0733 13.3749 15.5545 12.1949 14.7413C10.8312 13.8015 11.7153 13.285 12.4924 12.4409C12.6958 12.22 16.2299 8.8583 16.2983 8.55334C16.3068 8.5152 16.3148 8.37304 16.234 8.29797C16.1532 8.2229 16.034 8.24857 15.948 8.26899C15.8261 8.29792 13.8841 9.64029 10.122 12.2961C9.57075 12.6919 9.07146 12.8848 8.62411 12.8747C8.13094 12.8635 7.18229 12.5831 6.47707 12.3433C5.61208 12.0493 4.92461 11.8938 4.98447 11.3944C5.01565 11.1343 5.35816 10.8683 6.01201 10.5964Z" fill="#898989"/>
</svg>
