<svg width="25" height="24" viewBox="0 0 25 24" fill="none" xmlns="http://www.w3.org/2000/svg">
<path d="M18.919 12.1614C18.6272 11.845 18.7116 11.7064 18.919 11.4262C18.9226 11.4232 21.3238 8.57884 21.5734 7.61466C21.6964 7.26214 21.5734 7.00603 20.9792 7.00603H19.0105C18.5077 7.00603 18.2792 7.22899 18.1561 7.47606C18.1561 7.47606 17.1542 9.53097 15.7373 10.8627C15.2803 11.2484 15.0694 11.3719 14.8197 11.3719C14.6967 11.3719 14.5068 11.2484 14.5068 10.8959V7.60864C14.5068 7.18681 14.3662 7 13.9514 7H10.8575C10.5446 7 10.3548 7.19585 10.3548 7.37965C10.3548 7.78038 11.065 7.87077 11.1388 8.99766V11.4382C11.1388 11.9715 11.0263 12.071 10.7732 12.071C10.1052 12.071 8.48093 10.007 7.51763 7.64479C7.32075 7.18681 7.1309 7 6.62464 7H4.65585C4.09334 7 3.98083 7.22297 3.98083 7.47004C3.98083 7.90693 4.64882 10.0884 7.09223 12.9689C8.72 14.9334 11.0122 16 13.097 16C14.3486 16 14.5033 15.762 14.5033 15.3552C14.5033 13.4781 14.3908 13.3003 15.0166 13.3003C15.3084 13.3003 15.8077 13.4238 16.9784 14.3729C18.3143 15.4968 18.5358 16 19.2847 16H21.2535C21.816 16 22.0972 15.762 21.9355 15.298C21.5593 14.3157 19.0315 12.2939 18.919 12.1614Z" fill="#898989"/>
</svg>
