<svg width="25" height="24" viewBox="0 0 25 24" fill="none" xmlns="http://www.w3.org/2000/svg">
<path fill-rule="evenodd" clip-rule="evenodd" d="M13.0612 5C9.28988 5 6.23312 8.0533 6.23312 11.8203C6.23312 13.1088 6.59121 14.3136 7.21298 15.3419L5.98083 19L9.76109 17.7912C10.7393 18.3318 11.864 18.6399 13.0612 18.6399C16.8317 18.6399 19.8884 15.5866 19.8884 11.8203C19.8884 8.05412 16.8317 5 13.0612 5Z" fill="#898989"/>
<path fill-rule="evenodd" clip-rule="evenodd" d="M11.4596 8.99869C11.3489 8.73205 11.2643 8.72311 11.0934 8.71498C11.0348 8.71254 10.9713 8.70929 10.9013 8.70929C10.6816 8.70929 10.4529 8.77432 10.3153 8.91496C10.1477 9.08567 9.72937 9.48643 9.72937 10.3091C9.72937 11.1318 10.3292 11.9268 10.413 12.0382C10.4968 12.1495 11.5825 13.8624 13.272 14.5615C14.5904 15.1069 14.9818 15.0581 15.283 14.9931C15.7208 14.898 16.2701 14.5753 16.4101 14.1851C16.5493 13.7949 16.5493 13.46 16.5078 13.3909C16.4663 13.3209 16.354 13.2795 16.1871 13.1958C16.0195 13.112 15.1967 12.708 15.0437 12.6519C14.8899 12.5958 14.7483 12.6129 14.6303 12.7763C14.4675 13.0015 14.3104 13.2332 14.181 13.3697C14.0793 13.477 13.9157 13.4925 13.7749 13.4323C13.5894 13.3535 13.0685 13.1722 12.4289 12.6023C11.9316 12.1593 11.5955 11.6122 11.4978 11.4447C11.4002 11.2773 11.4889 11.1781 11.5646 11.0871C11.65 10.983 11.7298 10.909 11.8136 10.8115C11.8974 10.7139 11.9438 10.6619 12 10.5497C12.0561 10.4384 12.0179 10.3229 11.9764 10.2392C11.934 10.1555 11.5996 9.33279 11.4604 8.99787L11.4596 8.99869Z" fill="white"/>
</svg>
