<svg width="24" height="24" viewBox="0 0 24 24" fill="none" xmlns="http://www.w3.org/2000/svg">
<g filter="url(#filter0_bii_100_3900)">
<path d="M12 0C5.3724 0 0 5.3724 0 12C0 18.6276 5.3724 24 12 24C18.6276 24 24 18.6276 24 12C24 5.3724 18.6276 0 12 0ZM15.816 18.1824C15.7712 18.2945 15.703 18.3957 15.6158 18.4793C15.5287 18.5628 15.4247 18.6267 15.3108 18.6668C15.1969 18.7068 15.0757 18.7219 14.9555 18.7113C14.8352 18.7006 14.7187 18.6643 14.6136 18.6048L11.3556 16.0728L9.2652 18.0024C9.21668 18.0382 9.15993 18.0613 9.10018 18.0695C9.04042 18.0776 8.97956 18.0707 8.9232 18.0492L9.324 14.4624L9.336 14.4732L9.3444 14.4024C9.3444 14.4024 15.2064 9.0648 15.4452 8.838C15.6876 8.6112 15.6072 8.562 15.6072 8.562C15.6216 8.286 15.174 8.562 15.174 8.562L7.4064 13.5588L4.1724 12.4572C4.1724 12.4572 3.6756 12.2784 3.6288 11.8872C3.5796 11.4984 4.188 11.2872 4.188 11.2872L17.0484 6.1776C17.0484 6.1776 18.1056 5.7072 18.1056 6.4872L15.816 18.1824V18.1824Z" fill="black"/>
</g>
<defs>
<filter id="filter0_bii_100_3900" x="-4" y="-4" width="32" height="32" filterUnits="userSpaceOnUse" color-interpolation-filters="sRGB">
<feFlood flood-opacity="0" result="BackgroundImageFix"/>
<feGaussianBlur in="BackgroundImageFix" stdDeviation="2"/>
<feComposite in2="SourceAlpha" operator="in" result="effect1_backgroundBlur_100_3900"/>
<feBlend mode="normal" in="SourceGraphic" in2="effect1_backgroundBlur_100_3900" result="shape"/>
<feColorMatrix in="SourceAlpha" type="matrix" values="0 0 0 0 0 0 0 0 0 0 0 0 0 0 0 0 0 0 127 0" result="hardAlpha"/>
<feOffset dy="-4"/>
<feGaussianBlur stdDeviation="2"/>
<feComposite in2="hardAlpha" operator="arithmetic" k2="-1" k3="1"/>
<feColorMatrix type="matrix" values="0 0 0 0 1 0 0 0 0 1 0 0 0 0 1 0 0 0 0.05 0"/>
<feBlend mode="normal" in2="shape" result="effect2_innerShadow_100_3900"/>
<feColorMatrix in="SourceAlpha" type="matrix" values="0 0 0 0 0 0 0 0 0 0 0 0 0 0 0 0 0 0 127 0" result="hardAlpha"/>
<feOffset dx="-4" dy="-4"/>
<feGaussianBlur stdDeviation="2"/>
<feComposite in2="hardAlpha" operator="arithmetic" k2="-1" k3="1"/>
<feColorMatrix type="matrix" values="0 0 0 0 1 0 0 0 0 1 0 0 0 0 1 0 0 0 0.05 0"/>
<feBlend mode="normal" in2="effect2_innerShadow_100_3900" result="effect3_innerShadow_100_3900"/>
</filter>
</defs>
</svg>
