<svg width="26" height="24" viewBox="0 0 26 24" fill="none" xmlns="http://www.w3.org/2000/svg">
<path fill-rule="evenodd" clip-rule="evenodd" d="M15.46 2.49312C16.2488 2.16628 17.0943 1.99805 17.9482 1.99805C18.802 1.99805 19.6475 2.16628 20.4363 2.49312C21.225 2.81991 21.9416 3.29885 22.5451 3.9026C23.1489 4.50615 23.6281 5.22306 23.9549 6.01173C24.2818 6.80054 24.45 7.64602 24.45 8.49987C24.45 9.35372 24.2818 10.1992 23.9549 10.988C23.6281 11.7768 23.1491 12.4934 22.5453 13.097C22.5452 13.097 22.5453 13.0969 22.5453 13.097L13.7053 21.937C13.3147 22.3275 12.6816 22.3275 12.2911 21.937L3.45106 13.097C2.23183 11.8778 1.54688 10.2241 1.54688 8.49987C1.54688 6.77562 2.23183 5.12199 3.45106 3.90277C4.67029 2.68354 6.32392 1.99858 8.04817 1.99858C9.77242 1.99858 11.426 2.68354 12.6453 3.90277L12.9982 4.25566L13.3509 3.90293C13.3509 3.90288 13.3508 3.90299 13.3509 3.90293C13.9545 3.29911 14.6713 2.81994 15.46 2.49312ZM17.9482 3.99805C17.357 3.99805 16.7717 4.11451 16.2256 4.34079C15.6795 4.56707 15.1833 4.89873 14.7654 5.31681L13.7053 6.37698C13.3147 6.7675 12.6816 6.7675 12.2911 6.37698L11.2311 5.31698C10.3869 4.47282 9.24198 3.99858 8.04817 3.99858C6.85435 3.99858 5.70943 4.47282 4.86527 5.31698C4.02112 6.16114 3.54688 7.30606 3.54688 8.49987C3.54688 9.69369 4.02112 10.8386 4.86527 11.6828L12.9982 19.8157L21.1311 11.6828C21.5491 11.2649 21.881 10.7685 22.1072 10.2224C22.3335 9.67633 22.45 9.091 22.45 8.49987C22.45 7.90875 22.3335 7.32341 22.1072 6.77731C21.881 6.23121 21.5493 5.73504 21.1312 5.31715C20.7133 4.89906 20.2168 4.56707 19.6707 4.34079C19.1246 4.11451 18.5393 3.99805 17.9482 3.99805Z" fill="#A3A3A3"/>
</svg>
