<svg width="785" height="445" viewBox="0 0 785 445" fill="none" xmlns="http://www.w3.org/2000/svg">
<mask id="path-1-inside-1_16_8304" fill="white">
<path fill-rule="evenodd" clip-rule="evenodd" d="M775 4.99998L770 4.99998V-9.49701e-06L15 0V4.99998H10V0H9.99998V4.99998L4.99999 4.99998L4.99999 0H4.99998L4.99998 4.99998H0V4.99999H4.99998V9.99998H0V10L4.99998 10L4.99998 15L0 15V445L2.2014e-05 440L2.15768e-05 435L2.15768e-05 430H5.00001V435L5.00001 440L5.00001 445L5.00003 440L5.00003 435H10L10 440H15V445H770V440H775V435H780V430L785 430V15L780 15V9.99999L775 9.99999V5L780 5L785 4.99999L780 4.99998L775 4.99998ZM9.99998 9.99998V4.99999L4.99999 4.99999V9.99998H9.99998Z"/>
</mask>
<path fill-rule="evenodd" clip-rule="evenodd" d="M775 4.99998L770 4.99998V-9.49701e-06L15 0V4.99998H10V0H9.99998V4.99998L4.99999 4.99998L4.99999 0H4.99998L4.99998 4.99998H0V4.99999H4.99998V9.99998H0V10L4.99998 10L4.99998 15L0 15V445L2.2014e-05 440L2.15768e-05 435L2.15768e-05 430H5.00001V435L5.00001 440L5.00001 445L5.00003 440L5.00003 435H10L10 440H15V445H770V440H775V435H780V430L785 430V15L780 15V9.99999L775 9.99999V5L780 5L785 4.99999L780 4.99998L775 4.99998ZM9.99998 9.99998V4.99999L4.99999 4.99999V9.99998H9.99998Z" fill="white"/>
<path d="M770 4.99998H769V5.99998L770 5.99998L770 4.99998ZM775 4.99998L775 5.99998L775 5.99998L775 4.99998ZM770 -9.49701e-06H771V-1.00001L770 -1.00001L770 -9.49701e-06ZM15 0L15 -1L14 -1V0H15ZM15 4.99998V5.99998H16V4.99998H15ZM10 4.99998H9V5.99998H10V4.99998ZM10 0H11V-1H10V0ZM9.99998 0V-1H8.99998V0H9.99998ZM9.99998 4.99998L9.99998 5.99998L11 5.99998V4.99998H9.99998ZM4.99999 4.99998L3.99999 4.99998L3.99999 5.99998L4.99999 5.99998L4.99999 4.99998ZM4.99999 0L5.99999 9.53678e-08L5.99999 -1H4.99999V0ZM4.99998 0V-1H3.99998L3.99998 -9.53678e-08L4.99998 0ZM4.99998 4.99998V5.99998H5.99998L5.99998 4.99998L4.99998 4.99998ZM0 4.99998V3.99998H-1V4.99998H0ZM0 4.99999H-1V5.99999H0V4.99999ZM4.99998 4.99999H5.99998V3.99999H4.99998V4.99999ZM4.99998 9.99998V11H5.99998V9.99998H4.99998ZM0 9.99998V8.99998H-1V9.99998H0ZM0 10H-1V11L-1.90736e-07 11L0 10ZM4.99998 10L5.99998 10L5.99998 9L4.99998 9L4.99998 10ZM4.99998 15L4.99998 16L5.99998 16L5.99998 15L4.99998 15ZM0 15L1.90736e-07 14L-1 14V15H0ZM2.2014e-05 440L1.00002 440L1.00002 440L2.2014e-05 440ZM2.15768e-05 435L-0.999978 435L-0.999978 435L2.15768e-05 435ZM2.15768e-05 430V429H-0.999978L-0.999978 430L2.15768e-05 430ZM5.00001 430H6.00001V429H5.00001V430ZM5.00001 435L4.00001 435L4.00001 435L5.00001 435ZM5.00003 440L6.00003 440L6.00003 440L5.00003 440ZM5.00003 435V434H4.00003L4.00003 435L5.00003 435ZM10 435L11 435L11 434H10V435ZM10 440L9.00002 440L9.00002 441H10V440ZM15 440H16V439H15V440ZM15 445H14V446H15V445ZM770 445V446H771V445H770ZM770 440V439H769V440H770ZM775 440V441H776V440H775ZM775 435V434H774V435H775ZM780 435V436H781V435H780ZM780 430L780 429L779 429V430H780ZM785 430L785 431L786 431V430H785ZM785 15H786V14L785 14L785 15ZM780 15H779V16L780 16L780 15ZM780 9.99999H781V8.99999L780 8.99999L780 9.99999ZM775 9.99999H774V11L775 11L775 9.99999ZM775 5L775 4L774 4V5H775ZM780 5L780 6L780 6L780 5ZM9.99998 4.99999H11V3.99999L9.99998 3.99999L9.99998 4.99999ZM9.99998 9.99998V11H11V9.99998H9.99998ZM4.99999 4.99999L4.99999 3.99999L3.99999 3.99999V4.99999H4.99999ZM4.99999 9.99998H3.99999V11H4.99999V9.99998ZM770 5.99998L775 5.99998L775 3.99998L770 3.99998L770 5.99998ZM769 -9.49701e-06V4.99998H771V-9.49701e-06H769ZM15 1L770 0.999991L770 -1.00001L15 -1L15 1ZM16 4.99998V0H14V4.99998H16ZM10 5.99998H15V3.99998H10V5.99998ZM9 0V4.99998H11V0H9ZM9.99998 1H10V-1H9.99998V1ZM11 4.99998V0H8.99998V4.99998H11ZM4.99999 5.99998L9.99998 5.99998L9.99998 3.99998L4.99999 3.99998L4.99999 5.99998ZM3.99999 -9.53678e-08L3.99999 4.99998L5.99999 4.99998L5.99999 9.53678e-08L3.99999 -9.53678e-08ZM4.99998 1H4.99999V-1H4.99998V1ZM5.99998 4.99998L5.99998 9.53678e-08L3.99998 -9.53678e-08L3.99998 4.99998L5.99998 4.99998ZM0 5.99998H4.99998V3.99998H0V5.99998ZM1 4.99999V4.99998H-1V4.99999H1ZM4.99998 3.99999H0V5.99999H4.99998V3.99999ZM5.99998 9.99998V4.99999H3.99998V9.99998H5.99998ZM0 11H4.99998V8.99998H0V11ZM1 10V9.99998H-1V10H1ZM4.99998 9L1.90736e-07 9L-1.90736e-07 11L4.99998 11L4.99998 9ZM5.99998 15L5.99998 10L3.99998 10L3.99998 15L5.99998 15ZM-1.90736e-07 16L4.99998 16L4.99998 14L1.90736e-07 14L-1.90736e-07 16ZM1 445V15H-1V445H1ZM-0.999978 440L-1 445L1 445L1.00002 440L-0.999978 440ZM-0.999978 435L-0.999978 440L1.00002 440L1.00002 435L-0.999978 435ZM-0.999978 430L-0.999978 435L1.00002 435L1.00002 430L-0.999978 430ZM5.00001 429H2.15768e-05V431H5.00001V429ZM6.00001 435V430H4.00001V435H6.00001ZM6.00001 440L6.00001 435L4.00001 435L4.00001 440L6.00001 440ZM6.00001 445L6.00001 440L4.00001 440L4.00001 445L6.00001 445ZM4.00003 440L4.00001 445L6.00001 445L6.00003 440L4.00003 440ZM4.00003 435L4.00003 440L6.00003 440L6.00003 435L4.00003 435ZM10 434H5.00003V436H10V434ZM11 440L11 435L9.00002 435L9.00002 440L11 440ZM15 439H10V441H15V439ZM16 445V440H14V445H16ZM770 444H15V446H770V444ZM769 440V445H771V440H769ZM775 439H770V441H775V439ZM776 440V435H774V440H776ZM775 436H780V434H775V436ZM779 430V435H781V430H779ZM785 429L780 429L780 431L785 431L785 429ZM784 15V430H786V15H784ZM780 16L785 16L785 14L780 14L780 16ZM779 9.99999V15H781V9.99999H779ZM775 11L780 11L780 8.99999L775 8.99999L775 11ZM774 5V9.99999H776V5H774ZM780 4L775 4L775 6L780 6L780 4ZM785 3.99999L780 4L780 6L785 5.99999L785 3.99999ZM780 5.99998L785 5.99999L785 3.99999L780 3.99998L780 5.99998ZM775 5.99998L780 5.99998L780 3.99998L775 3.99998L775 5.99998ZM8.99998 4.99999V9.99998H11V4.99999H8.99998ZM4.99999 5.99999L9.99998 5.99999L9.99998 3.99999L4.99999 3.99999L4.99999 5.99999ZM5.99999 9.99998V4.99999H3.99999V9.99998H5.99999ZM9.99998 8.99998H4.99999V11H9.99998V8.99998Z" fill="white" mask="url(#path-1-inside-1_16_8304)"/>
</svg>
