<svg width="142" height="44" viewBox="0 0 142 44" fill="none" xmlns="http://www.w3.org/2000/svg">
<path fill-rule="evenodd" clip-rule="evenodd" d="M138.5 3.46668V6.9667L142 6.9667L142 36H138.467L138.467 40L134.467 40V44L0 44L2.96668 44V40.5L0 40.5H2.96668V37L0 37V0H135V3.46668L138.5 3.46668ZM7.92238e-06 3.46669H3.46667V6.93335H7.92237e-06L7.92238e-06 3.46669ZM6.93335 9.91431e-06L3.46668 9.91431e-06V3.46668H6.93335V9.91431e-06ZM7.61931e-06 1.02174e-05L3.46667 1.02174e-05V3.46668H7.61931e-06L7.61931e-06 1.02174e-05ZM6.46668 40.5H2.96669V44H6.46668L6.46668 40.5Z" fill="#408CFF"/>
<path d="M31.3846 21.4615V20.3846H27.0769L27.0769 21.4615H31.3846Z" fill="white"/>
<path d="M27.0769 16.0769H26L26 20.3846H27.0769V16.0769Z" fill="white"/>
<path d="M31.3846 16.0769V15L27.0769 15V16.0769L31.3846 16.0769Z" fill="white"/>
<path d="M32.4615 16.0769L31.3846 16.0769V20.3846H32.4615V16.0769Z" fill="white"/>
<path d="M34.6154 16.0769H33.5385V20.3846H34.6154V16.0769Z" fill="white"/>
<path d="M38.9231 16.0769V15L34.6154 15V16.0769L38.9231 16.0769Z" fill="white"/>
<path d="M38.9231 21.4615V20.3846H34.6154V21.4615H38.9231Z" fill="white"/>
<path d="M40 16.0769L38.9231 16.0769V20.3846H40V16.0769Z" fill="white"/>
<path d="M27.0769 23.6154H26L26 27.9231H27.0769V23.6154Z" fill="white"/>
<path d="M31.3846 23.6154V22.5385H27.0769V23.6154H31.3846Z" fill="white"/>
<path d="M31.3846 29V27.9231H27.0769L27.0769 29H31.3846Z" fill="white"/>
<path d="M32.4615 23.6154H31.3846V27.9231H32.4615V23.6154Z" fill="white"/>
<path d="M34.6154 23.6154H33.5385V27.9231H34.6154V23.6154Z" fill="white"/>
<path d="M38.9231 29V27.9231H34.6154V29H38.9231Z" fill="white"/>
<path d="M40 23.6154H38.9231V27.9231H40V23.6154Z" fill="white"/>
<path d="M38.9231 23.6154V22.5385H34.6154V23.6154H38.9231Z" fill="white"/>
<path d="M31.3846 16.0769V15L27.0769 15V16.0769M31.3846 16.0769L32.4615 16.0769V20.3846H31.3846M31.3846 16.0769L27.0769 16.0769M31.3846 16.0769V20.3846M31.3846 23.6154V22.5385H27.0769V23.6154M31.3846 23.6154H32.4615V27.9231H31.3846M31.3846 23.6154H27.0769M31.3846 23.6154V27.9231M38.9231 16.0769V15L34.6154 15V16.0769M38.9231 16.0769L40 16.0769V20.3846H38.9231M38.9231 16.0769L34.6154 16.0769M38.9231 16.0769V20.3846M38.9231 23.6154V22.5385H34.6154V23.6154M38.9231 23.6154H40V27.9231H38.9231M38.9231 23.6154H34.6154M38.9231 23.6154V27.9231M27.0769 16.0769L26 16.0769L26 20.3846H27.0769M27.0769 16.0769V20.3846M27.0769 23.6154H26L26 27.9231H27.0769M27.0769 23.6154V27.9231M34.6154 16.0769L33.5385 16.0769V20.3846H34.6154M34.6154 16.0769V20.3846M34.6154 23.6154H33.5385V27.9231H34.6154M34.6154 23.6154V27.9231M31.3846 20.3846V21.4615H27.0769L27.0769 20.3846M31.3846 20.3846H27.0769M31.3846 27.9231V29H27.0769L27.0769 27.9231M31.3846 27.9231H27.0769M38.9231 20.3846V21.4615H34.6154V20.3846M38.9231 20.3846H34.6154M38.9231 27.9231V29H34.6154V27.9231M38.9231 27.9231H34.6154" stroke="white" stroke-width="0.5"/>
<path d="M55.1 24.2H52.244L51.836 26H50.18L52.184 17.6H55.16L57.164 26H55.508L55.1 24.2ZM52.58 22.688H54.752L53.78 18.392H53.564L52.58 22.688ZM58.2477 24.56H60.3357V19.04H58.3197V17.6H61.8477V24.56H63.7917V26H58.2477V24.56ZM65.5953 24.56H67.6833V19.04H65.6673V17.6H69.1953V24.56H71.1393V26H65.5953V24.56ZM82.2226 21.728C82.2226 21.92 82.3226 22.06 82.5226 22.148C82.7226 22.228 83.0866 22.296 83.6146 22.352C84.2226 22.416 84.7186 22.6 85.1026 22.904C85.4866 23.2 85.6786 23.616 85.6786 24.152V24.224C85.6786 24.816 85.4626 25.288 85.0306 25.64C84.5986 25.992 83.9906 26.168 83.2066 26.168C82.7426 26.168 82.3466 26.108 82.0186 25.988C81.6906 25.868 81.4186 25.72 81.2026 25.544C80.9866 25.36 80.8186 25.16 80.6986 24.944C80.5866 24.72 80.5106 24.504 80.4706 24.296L81.8626 23.84C81.9266 24.096 82.0586 24.32 82.2586 24.512C82.4666 24.704 82.7826 24.8 83.2066 24.8C83.5826 24.8 83.8386 24.744 83.9746 24.632C84.1186 24.512 84.1906 24.384 84.1906 24.248C84.1906 24.168 84.1706 24.096 84.1306 24.032C84.0986 23.96 84.0346 23.896 83.9386 23.84C83.8426 23.776 83.7106 23.724 83.5426 23.684C83.3826 23.644 83.1786 23.612 82.9306 23.588C82.2586 23.532 81.7226 23.36 81.3226 23.072C80.9306 22.776 80.7346 22.344 80.7346 21.776V21.704C80.7346 21.408 80.7986 21.148 80.9266 20.924C81.0546 20.7 81.2226 20.512 81.4306 20.36C81.6386 20.2 81.8786 20.08 82.1506 20C82.4226 19.92 82.7026 19.88 82.9906 19.88C83.3666 19.88 83.6906 19.928 83.9626 20.024C84.2426 20.112 84.4786 20.232 84.6706 20.384C84.8626 20.528 85.0186 20.692 85.1386 20.876C85.2586 21.052 85.3506 21.224 85.4146 21.392L84.0466 21.944C83.9746 21.728 83.8506 21.56 83.6746 21.44C83.4986 21.312 83.2706 21.248 82.9906 21.248C82.7346 21.248 82.5426 21.296 82.4146 21.392C82.2866 21.48 82.2226 21.592 82.2226 21.728ZM87.6383 24.56H89.7263V19.04H87.7103V17.6H91.2383V24.56H93.1823V26H87.6383V24.56ZM100.854 23.096C100.854 23.592 100.77 24.032 100.602 24.416C100.434 24.792 100.206 25.112 99.9179 25.376C99.6299 25.632 99.2979 25.828 98.9219 25.964C98.5539 26.1 98.1659 26.168 97.7579 26.168C97.3499 26.168 96.9579 26.1 96.5819 25.964C96.2139 25.828 95.8859 25.632 95.5979 25.376C95.3099 25.112 95.0819 24.792 94.9139 24.416C94.7459 24.032 94.6619 23.592 94.6619 23.096V22.952C94.6619 22.464 94.7459 22.032 94.9139 21.656C95.0819 21.272 95.3099 20.948 95.5979 20.684C95.8859 20.42 96.2139 20.22 96.5819 20.084C96.9579 19.948 97.3499 19.88 97.7579 19.88C98.1659 19.88 98.5539 19.948 98.9219 20.084C99.2979 20.22 99.6299 20.42 99.9179 20.684C100.206 20.948 100.434 21.272 100.602 21.656C100.77 22.032 100.854 22.464 100.854 22.952V23.096ZM97.7579 24.728C97.9739 24.728 98.1779 24.692 98.3699 24.62C98.5619 24.548 98.7299 24.444 98.8739 24.308C99.0179 24.172 99.1299 24.008 99.2099 23.816C99.2979 23.616 99.3419 23.392 99.3419 23.144V22.904C99.3419 22.656 99.2979 22.436 99.2099 22.244C99.1299 22.044 99.0179 21.876 98.8739 21.74C98.7299 21.604 98.5619 21.5 98.3699 21.428C98.1779 21.356 97.9739 21.32 97.7579 21.32C97.5419 21.32 97.3379 21.356 97.1459 21.428C96.9539 21.5 96.7859 21.604 96.6419 21.74C96.4979 21.876 96.3819 22.044 96.2939 22.244C96.2139 22.436 96.1739 22.656 96.1739 22.904V23.144C96.1739 23.392 96.2139 23.616 96.2939 23.816C96.3819 24.008 96.4979 24.172 96.6419 24.308C96.7859 24.444 96.9539 24.548 97.1459 24.62C97.3379 24.692 97.5419 24.728 97.7579 24.728ZM102.202 20.048H103.966V17.6H105.478V20.048H107.626V21.488H105.478V24.2C105.478 24.44 105.586 24.56 105.802 24.56H107.41V26H104.89C104.618 26 104.394 25.912 104.218 25.736C104.05 25.56 103.966 25.336 103.966 25.064V21.488H102.202V20.048ZM111.613 21.728C111.613 21.92 111.713 22.06 111.913 22.148C112.113 22.228 112.477 22.296 113.005 22.352C113.613 22.416 114.109 22.6 114.493 22.904C114.877 23.2 115.069 23.616 115.069 24.152V24.224C115.069 24.816 114.853 25.288 114.421 25.64C113.989 25.992 113.381 26.168 112.597 26.168C112.133 26.168 111.737 26.108 111.409 25.988C111.081 25.868 110.809 25.72 110.593 25.544C110.377 25.36 110.209 25.16 110.089 24.944C109.977 24.72 109.901 24.504 109.861 24.296L111.253 23.84C111.317 24.096 111.449 24.32 111.649 24.512C111.857 24.704 112.173 24.8 112.597 24.8C112.973 24.8 113.229 24.744 113.365 24.632C113.509 24.512 113.581 24.384 113.581 24.248C113.581 24.168 113.561 24.096 113.521 24.032C113.489 23.96 113.425 23.896 113.329 23.84C113.233 23.776 113.101 23.724 112.933 23.684C112.773 23.644 112.569 23.612 112.321 23.588C111.649 23.532 111.113 23.36 110.713 23.072C110.321 22.776 110.125 22.344 110.125 21.776V21.704C110.125 21.408 110.189 21.148 110.317 20.924C110.445 20.7 110.613 20.512 110.821 20.36C111.029 20.2 111.269 20.08 111.541 20C111.813 19.92 112.093 19.88 112.381 19.88C112.757 19.88 113.081 19.928 113.353 20.024C113.633 20.112 113.869 20.232 114.061 20.384C114.253 20.528 114.409 20.692 114.529 20.876C114.649 21.052 114.741 21.224 114.805 21.392L113.437 21.944C113.365 21.728 113.241 21.56 113.065 21.44C112.889 21.312 112.661 21.248 112.381 21.248C112.125 21.248 111.933 21.296 111.805 21.392C111.677 21.48 111.613 21.592 111.613 21.728Z" fill="white"/>
</svg>
