<svg width="91" height="16" viewBox="0 0 91 16" fill="none" xmlns="http://www.w3.org/2000/svg">
<path d="M6.38461 7.46154V6.38462H2.07692L2.07692 7.46154H6.38461Z" fill="white"/>
<path d="M2.07692 2.07692H1L1 6.38462H2.07692V2.07692Z" fill="white"/>
<path d="M6.38461 2.07692V1L2.07692 1V2.07692L6.38461 2.07692Z" fill="white"/>
<path d="M7.46154 2.07692L6.38461 2.07692V6.38462H7.46154V2.07692Z" fill="white"/>
<path d="M9.61538 2.07692H8.53846V6.38462H9.61538V2.07692Z" fill="white"/>
<path d="M13.9231 2.07692V1L9.61538 1V2.07692L13.9231 2.07692Z" fill="white"/>
<path d="M13.9231 7.46154V6.38462H9.61538V7.46154H13.9231Z" fill="white"/>
<path d="M15 2.07692L13.9231 2.07692V6.38462H15V2.07692Z" fill="white"/>
<path d="M2.07692 9.61539H1L1 13.9231H2.07692V9.61539Z" fill="white"/>
<path d="M6.38461 9.61539V8.53846H2.07692V9.61539H6.38461Z" fill="white"/>
<path d="M6.38461 15V13.9231H2.07692L2.07692 15H6.38461Z" fill="white"/>
<path d="M7.46154 9.61539H6.38461V13.9231H7.46154V9.61539Z" fill="white"/>
<path d="M9.61538 9.61539H8.53846V13.9231H9.61538V9.61539Z" fill="white"/>
<path d="M13.9231 15V13.9231H9.61538V15H13.9231Z" fill="white"/>
<path d="M15 9.61539H13.9231V13.9231H15V9.61539Z" fill="white"/>
<path d="M13.9231 9.61539V8.53846H9.61538V9.61539H13.9231Z" fill="white"/>
<path fill-rule="evenodd" clip-rule="evenodd" d="M2.32692 1.25V1.82692L6.13461 1.82692V1.25L2.32692 1.25ZM6.63461 1.82692V0.75L1.82692 0.75V1.82692H0.75L0.75 6.63462H1.82692L1.82692 7.71154H6.63461V6.63462H7.71154V1.82692L6.63461 1.82692ZM6.13461 2.32692L2.32692 2.32692V6.13462H6.13461V2.32692ZM6.63461 6.13462V2.32692L7.21154 2.32692V6.13462H6.63461ZM6.13461 6.63462H2.32692L2.32692 7.21154H6.13461V6.63462ZM1.82692 6.13462V2.32692H1.25L1.25 6.13462H1.82692ZM9.86538 1.25V1.82692L13.6731 1.82692V1.25L9.86538 1.25ZM14.1731 1.82692V0.75L9.36538 0.75V1.82692H8.28846V6.63462H9.36538V7.71154H14.1731V6.63462H15.25V1.82692L14.1731 1.82692ZM13.6731 2.32692L9.86538 2.32692V6.13462H13.6731V2.32692ZM14.1731 6.13462V2.32692L14.75 2.32692V6.13462H14.1731ZM13.6731 6.63462H9.86538V7.21154H13.6731V6.63462ZM9.36538 6.13462V2.32692H8.78846V6.13462H9.36538ZM1.82692 8.28846H6.63461V9.36539H7.71154V14.1731H6.63461V15.25H1.82692L1.82692 14.1731H0.75L0.75 9.36539H1.82692V8.28846ZM1.82692 9.86539H1.25L1.25 13.6731H1.82692V9.86539ZM2.32692 13.6731V9.86539H6.13461V13.6731H2.32692ZM2.32692 14.1731L2.32692 14.75H6.13461V14.1731H2.32692ZM6.63461 13.6731H7.21154V9.86539H6.63461V13.6731ZM6.13461 9.36539H2.32692V8.78846H6.13461V9.36539ZM9.36538 8.28846H14.1731V9.36539H15.25V14.1731H14.1731V15.25H9.36538V14.1731H8.28846V9.36539H9.36538V8.28846ZM9.36538 9.86539H8.78846V13.6731H9.36538V9.86539ZM9.86538 13.6731V9.86539H13.6731V13.6731H9.86538ZM9.86538 14.1731V14.75H13.6731V14.1731H9.86538ZM14.1731 13.6731H14.75V9.86539H14.1731V13.6731ZM13.6731 9.36539H9.86538V8.78846H13.6731V9.36539Z" fill="white"/>
<path d="M30.1002 10.2H27.2442L26.8362 12H25.1802L27.1842 3.60001H30.1602L32.1642 12H30.5082L30.1002 10.2ZM27.5802 8.68801H29.7522L28.7802 4.39201H28.5642L27.5802 8.68801Z" fill="white"/>
<path d="M33.2478 10.56H35.3358V5.04001H33.3198V3.60001H36.8478V10.56H38.7918V12H33.2478V10.56Z" fill="white"/>
<path d="M40.5955 10.56H42.6835V5.04001H40.6675V3.60001H44.1955V10.56H46.1395V12H40.5955V10.56Z" fill="white"/>
<path d="M57.2228 7.72801C57.2228 7.92001 57.3228 8.06001 57.5228 8.14801C57.7228 8.22801 58.0868 8.29601 58.6148 8.35201C59.2228 8.41601 59.7188 8.60001 60.1028 8.90401C60.4868 9.20001 60.6788 9.61601 60.6788 10.152V10.224C60.6788 10.816 60.4628 11.288 60.0308 11.64C59.5988 11.992 58.9908 12.168 58.2068 12.168C57.7428 12.168 57.3468 12.108 57.0188 11.988C56.6908 11.868 56.4188 11.72 56.2028 11.544C55.9868 11.36 55.8188 11.16 55.6988 10.944C55.5868 10.72 55.5108 10.504 55.4708 10.296L56.8628 9.84001C56.9268 10.096 57.0588 10.32 57.2588 10.512C57.4668 10.704 57.7828 10.8 58.2068 10.8C58.5828 10.8 58.8388 10.744 58.9748 10.632C59.1188 10.512 59.1908 10.384 59.1908 10.248C59.1908 10.168 59.1708 10.096 59.1308 10.032C59.0988 9.96001 59.0348 9.89601 58.9388 9.84001C58.8428 9.77601 58.7108 9.72401 58.5428 9.68401C58.3828 9.64401 58.1788 9.61201 57.9308 9.58801C57.2588 9.53201 56.7228 9.36001 56.3228 9.07201C55.9308 8.77601 55.7348 8.34401 55.7348 7.77601V7.70401C55.7348 7.40801 55.7988 7.14801 55.9268 6.92401C56.0548 6.70001 56.2228 6.51201 56.4308 6.36001C56.6388 6.20001 56.8788 6.08001 57.1508 6.00001C57.4228 5.92001 57.7028 5.88001 57.9908 5.88001C58.3668 5.88001 58.6908 5.92801 58.9628 6.02401C59.2428 6.11201 59.4788 6.23201 59.6708 6.38401C59.8628 6.52801 60.0188 6.69201 60.1388 6.87601C60.2588 7.05201 60.3508 7.22401 60.4148 7.39201L59.0468 7.94401C58.9748 7.72801 58.8508 7.56001 58.6748 7.44001C58.4988 7.31201 58.2708 7.24801 57.9908 7.24801C57.7348 7.24801 57.5428 7.29601 57.4148 7.39201C57.2868 7.48001 57.2228 7.59201 57.2228 7.72801Z" fill="white"/>
<path d="M62.6385 10.56H64.7265V5.04001H62.7105V3.60001H66.2385V10.56H68.1825V12H62.6385V10.56Z" fill="white"/>
<path d="M75.8541 9.09601C75.8541 9.59201 75.7701 10.032 75.6021 10.416C75.4341 10.792 75.2061 11.112 74.9181 11.376C74.6301 11.632 74.2981 11.828 73.9221 11.964C73.5541 12.1 73.1661 12.168 72.7581 12.168C72.3501 12.168 71.9581 12.1 71.5821 11.964C71.2141 11.828 70.8861 11.632 70.5981 11.376C70.3101 11.112 70.0821 10.792 69.9141 10.416C69.7461 10.032 69.6621 9.59201 69.6621 9.09601V8.95201C69.6621 8.46401 69.7461 8.03201 69.9141 7.65601C70.0821 7.27201 70.3101 6.94801 70.5981 6.68401C70.8861 6.42001 71.2141 6.22001 71.5821 6.08401C71.9581 5.94801 72.3501 5.88001 72.7581 5.88001C73.1661 5.88001 73.5541 5.94801 73.9221 6.08401C74.2981 6.22001 74.6301 6.42001 74.9181 6.68401C75.2061 6.94801 75.4341 7.27201 75.6021 7.65601C75.7701 8.03201 75.8541 8.46401 75.8541 8.95201V9.09601ZM72.7581 10.728C72.9741 10.728 73.1781 10.692 73.3701 10.62C73.5621 10.548 73.7301 10.444 73.8741 10.308C74.0181 10.172 74.1301 10.008 74.2101 9.81601C74.2981 9.61601 74.3421 9.39201 74.3421 9.14401V8.90401C74.3421 8.65601 74.2981 8.43601 74.2101 8.24401C74.1301 8.04401 74.0181 7.87601 73.8741 7.74001C73.7301 7.60401 73.5621 7.50001 73.3701 7.42801C73.1781 7.35601 72.9741 7.32001 72.7581 7.32001C72.5421 7.32001 72.3381 7.35601 72.1461 7.42801C71.9541 7.50001 71.7861 7.60401 71.6421 7.74001C71.4981 7.87601 71.3821 8.04401 71.2941 8.24401C71.2141 8.43601 71.1741 8.65601 71.1741 8.90401V9.14401C71.1741 9.39201 71.2141 9.61601 71.2941 9.81601C71.3821 10.008 71.4981 10.172 71.6421 10.308C71.7861 10.444 71.9541 10.548 72.1461 10.62C72.3381 10.692 72.5421 10.728 72.7581 10.728Z" fill="white"/>
<path d="M77.2018 6.04801H78.9658V3.60001H80.4778V6.04801H82.6258V7.48801H80.4778V10.2C80.4778 10.44 80.5858 10.56 80.8018 10.56H82.4098V12H79.8898C79.6178 12 79.3938 11.912 79.2178 11.736C79.0498 11.56 78.9658 11.336 78.9658 11.064V7.48801H77.2018V6.04801Z" fill="white"/>
<path d="M86.6134 7.72801C86.6134 7.92001 86.7134 8.06001 86.9134 8.14801C87.1134 8.22801 87.4774 8.29601 88.0054 8.35201C88.6134 8.41601 89.1094 8.60001 89.4934 8.90401C89.8774 9.20001 90.0694 9.61601 90.0694 10.152V10.224C90.0694 10.816 89.8534 11.288 89.4214 11.64C88.9894 11.992 88.3814 12.168 87.5974 12.168C87.1334 12.168 86.7374 12.108 86.4094 11.988C86.0814 11.868 85.8094 11.72 85.5934 11.544C85.3774 11.36 85.2094 11.16 85.0894 10.944C84.9774 10.72 84.9014 10.504 84.8614 10.296L86.2534 9.84001C86.3174 10.096 86.4494 10.32 86.6494 10.512C86.8574 10.704 87.1734 10.8 87.5974 10.8C87.9734 10.8 88.2294 10.744 88.3654 10.632C88.5094 10.512 88.5814 10.384 88.5814 10.248C88.5814 10.168 88.5614 10.096 88.5214 10.032C88.4894 9.96001 88.4254 9.89601 88.3294 9.84001C88.2334 9.77601 88.1014 9.72401 87.9334 9.68401C87.7734 9.64401 87.5694 9.61201 87.3214 9.58801C86.6494 9.53201 86.1134 9.36001 85.7134 9.07201C85.3214 8.77601 85.1254 8.34401 85.1254 7.77601V7.70401C85.1254 7.40801 85.1894 7.14801 85.3174 6.92401C85.4454 6.70001 85.6134 6.51201 85.8214 6.36001C86.0294 6.20001 86.2694 6.08001 86.5414 6.00001C86.8134 5.92001 87.0934 5.88001 87.3814 5.88001C87.7574 5.88001 88.0814 5.92801 88.3534 6.02401C88.6334 6.11201 88.8694 6.23201 89.0614 6.38401C89.2534 6.52801 89.4094 6.69201 89.5294 6.87601C89.6494 7.05201 89.7414 7.22401 89.8054 7.39201L88.4374 7.94401C88.3654 7.72801 88.2414 7.56001 88.0654 7.44001C87.8894 7.31201 87.6614 7.24801 87.3814 7.24801C87.1254 7.24801 86.9334 7.29601 86.8054 7.39201C86.6774 7.48001 86.6134 7.59201 86.6134 7.72801Z" fill="white"/>
</svg>
