<svg width="578" height="385" viewBox="0 0 578 385" fill="none" xmlns="http://www.w3.org/2000/svg">
<path d="M135.946 61.2843H18.573V139.801H135.946V61.2843Z" fill="white"/>
<path d="M135.938 139.809C135.938 139.809 135.938 139.316 135.938 138.377C135.938 137.437 135.938 136.067 135.938 134.234C135.938 130.6 135.938 125.271 135.899 118.441C135.899 104.805 135.845 85.1928 135.807 61.2843L135.976 61.4537L18.6193 61.4999L18.8273 61.2843C18.8273 89.2584 18.8273 115.862 18.8273 139.824L18.6347 139.632L103.192 139.724L127.345 139.778H133.772H135.429H136H135.452H133.819H127.43L103.316 139.824L18.6347 139.924H18.442V139.732C18.442 115.785 18.442 89.1814 18.442 61.1919V60.984H18.6655L136.023 61.0302H136.192V61.1919C136.154 85.1466 136.123 104.789 136.107 118.457C136.107 125.264 136.069 130.584 136.061 134.211C136.061 136.005 136.061 137.383 136.061 138.323C136.061 139.262 135.938 139.809 135.938 139.809Z" fill="#E0E0E0"/>
<path d="M18.573 68.2913C18.573 68.1758 44.8219 68.0834 77.2053 68.0834C109.589 68.0834 135.845 68.1758 135.845 68.2913C135.845 68.4068 109.596 68.5069 77.2053 68.5069C44.8142 68.5069 18.573 68.4145 18.573 68.2913Z" fill="#E0E0E0"/>
<g opacity="0.3">
<path d="M23.1971 64.757C23.1971 65.0061 23.098 65.2451 22.9217 65.4213C22.7454 65.5974 22.5062 65.6964 22.2569 65.6964C22.0075 65.6964 21.7684 65.5974 21.592 65.4213C21.4157 65.2451 21.3167 65.0061 21.3167 64.757C21.3167 64.5079 21.4157 64.2689 21.592 64.0927C21.7684 63.9166 22.0075 63.8176 22.2569 63.8176C22.5062 63.8176 22.7454 63.9166 22.9217 64.0927C23.098 64.2689 23.1971 64.5079 23.1971 64.757Z" fill="#E0E0E0"/>
</g>
<g opacity="0.3">
<path d="M26.4261 64.757C26.4261 64.9428 26.3709 65.1244 26.2676 65.2789C26.1643 65.4334 26.0175 65.5538 25.8457 65.6249C25.6739 65.696 25.4848 65.7146 25.3024 65.6783C25.1201 65.6421 24.9525 65.5526 24.821 65.4213C24.6895 65.2899 24.6 65.1225 24.5637 64.9403C24.5274 64.758 24.5461 64.5692 24.6172 64.3975C24.6884 64.2259 24.8089 64.0791 24.9635 63.9759C25.1181 63.8727 25.2999 63.8176 25.4859 63.8176C25.7352 63.8176 25.9744 63.9166 26.1507 64.0927C26.327 64.2689 26.4261 64.5079 26.4261 64.757Z" fill="#E0E0E0"/>
</g>
<g opacity="0.3">
<path d="M29.6013 64.757C29.6013 64.9428 29.5461 65.1244 29.4428 65.2789C29.3395 65.4334 29.1926 65.5538 29.0208 65.6249C28.849 65.696 28.66 65.7146 28.4776 65.6783C28.2952 65.6421 28.1277 65.5526 27.9962 65.4213C27.8647 65.2899 27.7752 65.1225 27.7389 64.9403C27.7026 64.758 27.7212 64.5692 27.7924 64.3975C27.8636 64.2259 27.9841 64.0791 28.1387 63.9759C28.2933 63.8727 28.4751 63.8176 28.661 63.8176C28.9104 63.8176 29.1495 63.9166 29.3259 64.0927C29.5022 64.2689 29.6013 64.5079 29.6013 64.757Z" fill="#E0E0E0"/>
</g>
<path d="M59.9655 76.4841H28.661V107.769H59.9655V76.4841Z" fill="#E0E0E0"/>
<path d="M119.846 85.3237C119.846 85.4392 107.631 85.5316 92.5725 85.5316C77.5136 85.5316 65.2986 85.4392 65.2986 85.3237C65.2986 85.2082 77.5136 85.1158 92.5725 85.1158C107.631 85.1158 119.846 85.2082 119.846 85.3237Z" fill="#E0E0E0"/>
<path d="M119.846 91.1372C119.846 91.2527 107.631 91.3451 92.5725 91.3451C77.5136 91.3451 65.2986 91.2527 65.2986 91.1372C65.2986 91.0217 77.5136 90.9293 92.5725 90.9293C107.631 90.9293 119.846 91.0217 119.846 91.1372Z" fill="#E0E0E0"/>
<path d="M119.846 96.9507C119.846 97.0662 107.631 97.1586 92.5725 97.1586C77.5136 97.1586 65.2986 97.0662 65.2986 96.9507C65.2986 96.8352 77.5136 96.7428 92.5725 96.7428C107.631 96.7428 119.846 96.8352 119.846 96.9507Z" fill="#E0E0E0"/>
<path d="M97.5356 102.764C97.1174 102.828 96.6946 102.856 96.2717 102.849L92.8191 102.91C89.8983 102.91 85.8831 102.972 81.4209 102.972C76.9588 102.972 72.9436 102.972 70.0228 102.91L66.5702 102.849C66.1447 102.856 65.7194 102.827 65.2986 102.764C65.7194 102.701 66.1447 102.673 66.5702 102.68L70.0228 102.618C72.9359 102.579 76.9588 102.556 81.4209 102.556C85.8831 102.556 89.8983 102.556 92.8191 102.618L96.2717 102.68C96.6946 102.672 97.1174 102.701 97.5356 102.764Z" fill="#E0E0E0"/>
<path d="M45.3306 118.311H30.6185V133.01H45.3306V118.311Z" fill="#E0E0E0"/>
<path d="M72.011 118.311H57.299V133.01H72.011V118.311Z" fill="#E0E0E0"/>
<path d="M98.6993 118.311H83.9872V133.01H98.6993V118.311Z" fill="#E0E0E0"/>
<path d="M125.38 118.311H110.668V133.01H125.38V118.311Z" fill="#E0E0E0"/>
<path d="M254.366 23.1308H153.262V64.1641H254.366V23.1308Z" fill="white"/>
<path d="M254.366 64.1641C254.366 64.1641 254.366 63.91 254.366 63.3941C254.366 62.8782 254.366 62.1929 254.366 61.2612C254.366 59.3901 254.366 56.6412 254.366 53.0992C254.366 46.0152 254.328 35.7742 254.305 23.0692L254.42 23.1847L153.316 23.2309L153.471 23.0692C153.471 37.4374 153.471 51.3128 153.471 64.1025L153.324 63.9485L225.813 64.0178L246.837 64.064H252.47H246.875L225.882 64.1025L153.293 64.1795H153.139V64.0255C153.139 51.2358 153.139 37.3604 153.139 22.9922V22.8305H153.301L254.405 22.8844H254.513V23.1C254.513 35.8127 254.466 46.0768 254.451 53.1762C254.451 56.7028 254.451 59.4517 254.451 61.3151C254.451 62.2391 254.451 62.9398 254.451 63.4249C254.451 63.91 254.366 64.1641 254.366 64.1641Z" fill="#E0E0E0"/>
<path d="M153.363 28.6671C153.363 28.5747 175.959 28.5054 203.826 28.5054C231.693 28.5054 254.305 28.5747 254.305 28.6671C254.305 28.7595 231.709 28.8288 203.826 28.8288C175.943 28.8288 153.363 28.7518 153.363 28.6671Z" fill="#E0E0E0"/>
<g opacity="0.3">
<path d="M157.594 26.18C157.593 26.323 157.551 26.4628 157.472 26.5821C157.394 26.7015 157.281 26.7951 157.15 26.8514C157.018 26.9077 156.873 26.9243 156.732 26.899C156.591 26.8738 156.461 26.8078 156.357 26.7093C156.253 26.6109 156.181 26.4841 156.148 26.3449C156.116 26.2056 156.125 26.0599 156.175 25.9257C156.224 25.7916 156.312 25.6749 156.427 25.5901C156.542 25.5053 156.68 25.456 156.823 25.4485C157.021 25.4483 157.211 25.5241 157.355 25.6603C157.498 25.7964 157.584 25.9825 157.594 26.18Z" fill="#EBEBEB"/>
</g>
<g opacity="0.3">
<path d="M160.106 26.18C160.106 26.3247 160.063 26.4661 159.983 26.5864C159.902 26.7067 159.788 26.8005 159.654 26.8558C159.52 26.9112 159.373 26.9257 159.231 26.8975C159.089 26.8692 158.959 26.7996 158.856 26.6973C158.754 26.595 158.684 26.4646 158.656 26.3227C158.628 26.1808 158.642 26.0337 158.697 25.9001C158.753 25.7664 158.847 25.6522 158.967 25.5718C159.087 25.4914 159.229 25.4485 159.374 25.4485C159.565 25.4578 159.746 25.5379 159.881 25.6731C160.017 25.8083 160.097 25.989 160.106 26.18Z" fill="#EBEBEB"/>
</g>
<g opacity="0.3">
<path d="M161.855 26.9192C162.26 26.9192 162.588 26.5917 162.588 26.1877C162.588 25.7837 162.26 25.4562 161.855 25.4562C161.451 25.4562 161.123 25.7837 161.123 26.1877C161.123 26.5917 161.451 26.9192 161.855 26.9192Z" fill="#EBEBEB"/>
</g>
<path d="M186.278 35.3353H161.855V59.7366H186.278V35.3353Z" fill="#E0E0E0"/>
<path d="M247.384 41.8726C247.384 41.965 234.814 42.0343 219.316 42.0343C203.818 42.0343 191.249 41.965 191.249 41.8726C191.249 41.7802 203.818 41.7109 219.316 41.7109C234.814 41.7109 247.384 41.7879 247.384 41.8726Z" fill="#E0E0E0"/>
<path d="M247.384 46.8468C247.384 46.9315 234.814 47.0008 219.316 47.0008C203.818 47.0008 191.249 46.9315 191.249 46.8468C191.249 46.7621 203.818 46.6851 219.316 46.6851C234.814 46.6851 247.384 46.7544 247.384 46.8468Z" fill="#E0E0E0"/>
<path d="M227.347 51.8133C227.224 51.8318 227.099 51.8318 226.977 51.8133H225.929L222.075 51.8672L209.305 51.9134L196.52 51.9288L192.667 51.8749H191.611C191.488 51.8926 191.364 51.8926 191.241 51.8749C191.364 51.8621 191.488 51.8621 191.611 51.8749H192.667L196.52 51.8287L209.298 51.7748L222.068 51.8287L225.921 51.8749H226.969C227.092 51.8402 227.219 51.8195 227.347 51.8133Z" fill="#E0E0E0"/>
<path d="M527.136 77.8932C527.299 77.6529 527.49 77.4331 527.706 77.2387C528.161 76.7921 528.716 76.23 529.371 75.5755C530.781 74.1741 532.754 72.2645 534.951 70.1855L535.005 70.1393V70.4165C532.793 68.3683 530.804 66.4972 529.386 65.1266L527.714 63.4942C527.498 63.3034 527.304 63.0891 527.136 62.8551C527.383 63.0014 527.61 63.1772 527.814 63.3787L529.571 64.9187C531.036 66.2354 533.055 68.0757 535.267 70.1239L535.421 70.2702L535.267 70.4088L535.22 70.455C533.024 72.5494 531.02 74.4282 529.556 75.768L527.814 77.3542C527.605 77.5544 527.378 77.7349 527.136 77.8932Z" fill="#E0E0E0"/>
<path d="M510.081 62.8474C509.914 63.0822 509.723 63.299 509.511 63.4942L507.869 65.1651C506.459 66.5588 504.486 68.4684 502.29 70.5551L502.236 70.6013V70.3164C504.448 72.3723 506.436 74.2434 507.854 75.614L509.526 77.2464C509.745 77.4348 509.939 77.6494 510.104 77.8855C509.859 77.7343 509.632 77.5561 509.426 77.3542L507.669 75.8142C506.205 74.4975 504.185 72.6572 501.974 70.6013L501.82 70.4627L501.974 70.3241L502.02 70.2702C504.216 68.1835 506.22 66.3047 507.684 64.9572L509.411 63.3864C509.612 63.1805 509.837 62.9996 510.081 62.8474Z" fill="#E0E0E0"/>
<path d="M514.466 81.4352C514.366 81.3967 516.154 76.3686 518.466 70.2009C520.778 64.0332 522.728 59.059 522.828 59.0975C522.928 59.136 521.132 64.1641 518.828 70.3318C516.524 76.4995 514.566 81.4737 514.466 81.4352Z" fill="#E0E0E0"/>
<path d="M546.549 92.1998C546.549 92.1998 546.549 91.9072 546.549 91.3605C546.549 90.8138 546.549 89.9899 546.549 88.9427C546.549 86.8175 546.549 83.7144 546.549 79.772C546.549 71.8795 546.503 60.599 546.464 47.0008L546.626 47.1625H491.138L491.331 46.97C491.331 63.3094 491.331 78.7402 491.331 92.169L491.161 91.9996L531.236 92.0843L542.596 92.1305H545.617H546.665H546.41H545.64H542.657L531.328 92.1767L491.123 92.2614H490.953V92.0843C490.953 78.6555 490.953 63.2247 490.953 46.8853V46.6928H491.154H546.642H546.803V46.97C546.803 60.6067 546.742 71.9257 546.719 79.8413C546.719 83.776 546.719 86.856 546.719 88.9735C546.719 90.013 546.719 90.8138 546.719 91.3682C546.719 91.9226 546.549 92.1998 546.549 92.1998Z" fill="#E0E0E0"/>
<path d="M546.988 53.7075C546.988 53.8153 534.45 53.9 518.99 53.9C503.53 53.9 490.999 53.8153 490.999 53.7075C490.999 53.5997 503.53 53.515 518.99 53.515C534.45 53.515 546.988 53.5997 546.988 53.7075Z" fill="#E0E0E0"/>
<path d="M495.539 50.4042C495.539 50.5565 495.493 50.7054 495.409 50.832C495.324 50.9586 495.204 51.0573 495.063 51.1156C494.922 51.1739 494.767 51.1891 494.618 51.1594C494.468 51.1297 494.331 51.0564 494.223 50.9487C494.115 50.841 494.042 50.7038 494.012 50.5544C493.982 50.4051 493.998 50.2502 494.056 50.1096C494.114 49.9689 494.213 49.8486 494.34 49.764C494.467 49.6794 494.616 49.6342 494.768 49.6342C494.972 49.6342 495.168 49.7153 495.313 49.8597C495.457 50.0041 495.539 50.2 495.539 50.4042Z" fill="#E0E0E0"/>
<path d="M498.282 50.4042C498.282 50.5565 498.237 50.7054 498.152 50.832C498.068 50.9586 497.947 51.0573 497.806 51.1156C497.666 51.1739 497.511 51.1891 497.361 51.1594C497.212 51.1297 497.074 51.0564 496.967 50.9487C496.859 50.841 496.785 50.7038 496.756 50.5544C496.726 50.4051 496.741 50.2502 496.799 50.1096C496.858 49.9689 496.957 49.8486 497.083 49.764C497.21 49.6794 497.359 49.6342 497.512 49.6342C497.716 49.6342 497.912 49.7153 498.056 49.8597C498.201 50.0041 498.282 50.2 498.282 50.4042Z" fill="#E0E0E0"/>
<path d="M501.003 50.4042C501.003 50.5565 500.957 50.7054 500.873 50.832C500.788 50.9586 500.668 51.0573 500.527 51.1156C500.386 51.1739 500.231 51.1891 500.082 51.1594C499.932 51.1297 499.795 51.0564 499.687 50.9487C499.579 50.841 499.506 50.7038 499.476 50.5544C499.446 50.4051 499.462 50.2502 499.52 50.1096C499.578 49.9689 499.677 49.8486 499.804 49.764C499.931 49.6794 500.08 49.6342 500.232 49.6342C500.436 49.6342 500.632 49.7153 500.777 49.8597C500.921 50.0041 501.003 50.2 501.003 50.4042Z" fill="#E0E0E0"/>
<path d="M533.756 290.983C536.962 289.327 540.746 289.112 544.306 289.705C546.218 290.02 548.214 290.59 549.516 292.015C550.819 293.439 551.057 295.973 549.57 297.212C548.604 297.859 547.445 298.153 546.287 298.044C543.497 298.044 540.399 297.52 538.172 299.199C536.9 300.154 536.06 301.74 534.534 302.21C533.774 302.386 532.977 302.31 532.263 301.993C531.55 301.677 530.959 301.136 530.581 300.454C529.859 299.057 529.699 297.437 530.134 295.926C530.318 294.88 530.74 293.89 531.369 293.033C531.997 292.176 532.813 291.474 533.756 290.983Z" fill="#EBEBEB"/>
<path d="M526.404 276.807C528.369 279.602 532.184 278.678 533.949 276.969C535.714 275.26 536.461 272.78 537.147 270.424C538.688 265.034 540.23 259.367 539.112 253.869C538.831 252.202 538.098 250.644 536.993 249.365C536.436 248.73 535.722 248.254 534.922 247.984C534.123 247.713 533.266 247.658 532.438 247.825C530.511 248.333 529.356 250.212 528.454 251.998C525.91 257.285 524.578 263.072 524.554 268.938C524.554 271.664 524.862 274.52 526.404 276.777" fill="#EBEBEB"/>
<path d="M521.017 280.819C523.144 278.293 523.552 274.613 522.604 271.448C521.529 268.304 519.606 265.517 517.048 263.394C514.144 260.812 510.765 258.819 507.099 257.527C505.679 256.952 504.152 256.689 502.621 256.757C501.853 256.806 501.109 257.042 500.453 257.445C499.798 257.847 499.251 258.404 498.86 259.067C497.82 261.061 498.86 263.486 499.908 265.458C501.822 268.94 504.008 272.266 506.444 275.406C508.401 277.924 510.644 280.419 513.634 281.566C516.624 282.713 519.722 282.575 521.302 280.503" fill="#EBEBEB"/>
<path d="M526.273 319.042C526.375 318.623 526.434 318.195 526.45 317.764C526.542 316.84 526.65 315.677 526.789 314.291C526.928 312.905 527.167 311.095 527.56 309.201C528.018 307.151 528.639 305.14 529.417 303.188C530.183 301.239 531.221 299.409 532.5 297.751C533.532 296.406 534.847 295.305 536.353 294.525C537.385 294.016 538.49 293.673 539.628 293.509C540.055 293.493 540.479 293.431 540.892 293.324C540.464 293.282 540.033 293.282 539.605 293.324C538.423 293.411 537.267 293.711 536.191 294.209C534.595 294.963 533.195 296.075 532.099 297.459C530.767 299.142 529.692 301.013 528.908 303.01C528.122 304.989 527.508 307.032 527.074 309.117C526.745 310.821 526.518 312.544 526.396 314.276C526.288 315.754 526.242 316.947 526.219 317.771C526.19 318.196 526.209 318.622 526.273 319.042Z" fill="#E0E0E0"/>
<path d="M526.512 316.37C526.534 316.173 526.534 315.974 526.512 315.777V314.091C526.512 312.62 526.512 310.503 526.589 307.885C526.712 302.649 527.167 297.012 528.038 289.073C528.862 281.604 529.972 272.903 531.12 267.252C531.367 265.966 531.621 264.811 531.891 263.802C532.161 262.793 532.307 261.908 532.492 261.199C532.677 260.491 532.785 259.991 532.893 259.559C532.949 259.369 532.983 259.172 532.993 258.974C532.908 259.153 532.838 259.338 532.785 259.529C532.662 259.949 532.5 260.488 532.299 261.146C532.084 261.854 531.86 262.686 531.606 263.733C531.352 264.78 531.059 265.896 530.781 267.175C529.334 273.859 528.246 280.617 527.521 287.418C526.65 295.38 526.257 302.633 526.219 307.877C526.219 310.503 526.219 312.628 526.311 314.091C526.358 314.776 526.388 315.338 526.419 315.777C526.43 315.977 526.461 316.176 526.512 316.37Z" fill="#E0E0E0"/>
<path d="M526.55 302.387C526.589 301.8 526.589 301.211 526.55 300.623C526.489 299.492 526.327 297.851 526.011 295.849C525.626 293.513 525.112 291.199 524.469 288.919C523.711 286.103 522.737 283.348 521.556 280.68C519.532 275.763 516.634 271.253 513.002 267.367C512.372 266.704 511.7 266.081 510.99 265.504C510.682 265.242 510.405 264.98 510.127 264.772L509.357 264.233C508.887 263.878 508.39 263.562 507.869 263.286C509.581 264.632 511.207 266.083 512.74 267.629C516.256 271.542 519.076 276.026 521.079 280.888C522.239 283.54 523.22 286.267 524.015 289.05C524.658 291.309 525.185 293.599 525.595 295.911C525.965 297.898 526.173 299.515 526.304 300.639C526.336 301.227 526.419 301.812 526.55 302.387Z" fill="#E0E0E0"/>
<path d="M513.025 327.05L514.428 346.238H539.104L540.507 327.05H513.025Z" fill="#E0E0E0"/>
<path d="M543.443 319.481H510.636V327.042H543.443V319.481Z" fill="#E0E0E0"/>
<path d="M510.636 345.507V347.601H512.177H542.904V345.507H510.636Z" fill="#EBEBEB"/>
<path d="M513.688 351.297L512.177 347.601H541.732L539.968 351.297H513.688Z" fill="#E0E0E0"/>
<path d="M540.045 333.318C540.045 333.318 540.045 333.387 539.929 333.495L539.559 333.988L538.126 335.82L538.064 335.905L537.995 335.82C537.093 334.573 535.891 332.902 534.465 330.938H534.673L531.19 335.859L531.082 336.013L530.959 335.866L526.835 330.969H527.074L526.851 331.254L523.159 335.874L523.036 336.028L522.928 335.866C521.672 334.095 520.501 332.447 519.445 330.946H519.645L515.368 335.82L515.291 335.905L515.229 335.812L513.888 333.556L513.541 332.956C513.501 332.89 513.467 332.821 513.441 332.748C513.441 332.748 513.495 332.802 513.58 332.933L513.965 333.51L515.376 335.72H515.237L519.452 330.784L519.56 330.661L519.653 330.792L523.167 335.689H522.928L526.612 331.069L526.835 330.784L526.951 330.638L527.074 330.784L531.182 335.697H530.989L534.504 330.8L534.611 330.661L534.712 330.8L538.164 335.735H538.041L539.536 333.941L539.937 333.479C539.967 333.422 540.003 333.367 540.045 333.318Z" fill="#F5F5F5"/>
<path d="M540.846 326.919C540.846 327.004 534.681 327.073 527.036 327.073C519.391 327.073 513.225 327.004 513.225 326.919C513.225 326.834 519.391 326.765 527.036 326.765C534.681 326.765 540.846 326.834 540.846 326.919Z" fill="#F5F5F5"/>
<path d="M542.095 347.809C542.095 347.894 535.374 347.963 527.09 347.963C518.805 347.963 512.077 347.894 512.077 347.809C512.077 347.724 518.797 347.655 527.09 347.655C535.382 347.655 542.095 347.724 542.095 347.809Z" fill="#F5F5F5"/>
<path d="M84.1106 80.1493H477.813C479.191 80.1493 480.512 80.6961 481.486 81.6694C482.46 82.6426 483.008 83.9627 483.008 85.3391V336.49C483.008 339.465 481.825 342.319 479.719 344.423C477.613 346.527 474.757 347.709 471.779 347.709H89.3973C87.9202 347.713 86.4567 347.426 85.0909 346.864C83.725 346.302 82.4835 345.476 81.4376 344.434C80.3916 343.392 79.5618 342.154 78.9956 340.79C78.4293 339.427 78.1379 337.966 78.1379 336.49V86.1245C78.1369 85.3402 78.2906 84.5634 78.5903 83.8385C78.89 83.1136 79.3298 82.4548 79.8845 81.8999C80.4392 81.3449 81.098 80.9047 81.8231 80.6043C82.5483 80.3039 83.3256 80.1493 84.1106 80.1493Z" fill="#455A64"/>
<path d="M61.2064 327.889H499.878V340.725C499.878 343.527 498.764 346.214 496.781 348.195C494.798 350.176 492.108 351.289 489.304 351.289H71.7799C68.9756 351.289 66.2862 350.176 64.3033 348.195C62.3204 346.214 61.2064 343.527 61.2064 340.725V327.889Z" fill="#455A64"/>
<path d="M471.024 90.783H89.0043V316.701H471.024V90.783Z" fill="#E0E0E0"/>
<path d="M240.672 327.889L246.112 336.536H322.709L327.765 327.889H240.672Z" fill="#263238"/>
<path d="M460.612 103.873H100.341V316.701H460.612V103.873Z" fill="#263238"/>
<path d="M127.985 310.449C127.8 310.449 127.646 265.126 127.646 209.224C127.646 153.322 127.8 107.977 127.985 107.977C128.17 107.977 128.324 153.299 128.324 209.224C128.324 265.149 128.17 310.449 127.985 310.449Z" fill="#E0E0E0"/>
<path d="M120.717 126.334C120.717 126.519 118.097 126.673 114.868 126.673C111.639 126.673 109.011 126.519 109.011 126.334C109.011 126.149 111.631 125.995 114.868 125.995C118.105 125.995 120.717 126.149 120.717 126.334Z" fill="#E0E0E0"/>
<path d="M121.164 114.845C121.164 115.03 118.544 115.184 115.315 115.184C112.086 115.184 109.466 115.03 109.466 114.845C109.466 114.661 112.086 114.507 115.315 114.507C118.544 114.507 121.164 114.661 121.164 114.845Z" fill="#E0E0E0"/>
<path d="M120.717 138.715C120.717 138.9 118.097 139.054 114.868 139.054C111.639 139.054 109.011 138.9 109.011 138.715C109.011 138.531 111.631 138.377 114.868 138.377C118.105 138.377 120.717 138.531 120.717 138.715Z" fill="#E0E0E0"/>
<path d="M120.717 151.097C120.717 151.29 118.097 151.436 114.868 151.436C111.639 151.436 109.011 151.29 109.011 151.097C109.011 150.905 111.631 150.766 114.868 150.766C118.105 150.766 120.717 150.92 120.717 151.097Z" fill="#E0E0E0"/>
<path d="M120.717 163.486C120.717 163.671 118.097 163.825 114.868 163.825C111.639 163.825 109.011 163.671 109.011 163.486C109.011 163.302 111.631 163.148 114.868 163.148C118.105 163.148 120.717 163.294 120.717 163.486Z" fill="#E0E0E0"/>
<path d="M120.717 175.868C120.717 176.053 118.097 176.207 114.868 176.207C111.639 176.207 109.011 176.053 109.011 175.868C109.011 175.683 111.631 175.529 114.868 175.529C118.105 175.529 120.717 175.683 120.717 175.868Z" fill="#E0E0E0"/>
<path d="M120.717 188.25C120.717 188.434 118.097 188.588 114.868 188.588C111.639 188.588 109.011 188.434 109.011 188.25C109.011 188.065 111.631 187.911 114.868 187.911C118.105 187.911 120.717 188.065 120.717 188.25Z" fill="#E0E0E0"/>
<path d="M120.717 200.631C120.717 200.824 118.097 200.97 114.868 200.97C111.639 200.97 109.011 200.824 109.011 200.631C109.011 200.439 111.631 200.3 114.868 200.3C118.105 200.3 120.717 200.446 120.717 200.631Z" fill="#E0E0E0"/>
<path d="M120.717 213.02C120.717 213.205 118.097 213.352 114.868 213.352C111.639 213.352 109.011 213.205 109.011 213.02C109.011 212.836 111.631 212.682 114.868 212.682C118.105 212.682 120.717 212.828 120.717 213.02Z" fill="#E0E0E0"/>
<path d="M120.717 225.402C120.717 225.587 118.097 225.741 114.868 225.741C111.639 225.741 109.011 225.587 109.011 225.402C109.011 225.217 111.631 225.063 114.868 225.063C118.105 225.063 120.717 225.217 120.717 225.402Z" fill="#E0E0E0"/>
<path d="M120.717 237.784C120.717 237.968 118.097 238.122 114.868 238.122C111.639 238.122 109.011 237.968 109.011 237.784C109.011 237.599 111.631 237.445 114.868 237.445C118.105 237.445 120.717 237.599 120.717 237.784Z" fill="#E0E0E0"/>
<path d="M120.717 250.165C120.717 250.358 118.097 250.504 114.868 250.504C111.639 250.504 109.011 250.358 109.011 250.165C109.011 249.973 111.631 249.834 114.868 249.834C118.105 249.834 120.717 249.981 120.717 250.165Z" fill="#E0E0E0"/>
<path d="M120.717 262.57C120.717 262.755 118.097 262.901 114.868 262.901C111.639 262.901 109.011 262.755 109.011 262.57C109.011 262.385 111.631 262.231 114.868 262.231C118.105 262.231 120.717 262.362 120.717 262.57Z" fill="#E0E0E0"/>
<path d="M120.717 274.936C120.717 275.121 118.097 275.275 114.868 275.275C111.639 275.275 109.011 275.121 109.011 274.936C109.011 274.751 111.631 274.597 114.868 274.597C118.105 274.597 120.717 274.751 120.717 274.936Z" fill="#E0E0E0"/>
<path d="M120.717 287.318C120.717 287.503 118.097 287.657 114.868 287.657C111.639 287.657 109.011 287.503 109.011 287.318C109.011 287.133 111.631 286.979 114.868 286.979C118.105 286.979 120.717 287.133 120.717 287.318Z" fill="#E0E0E0"/>
<path d="M120.717 299.699C120.717 299.892 118.097 300.038 114.868 300.038C111.639 300.038 109.011 299.892 109.011 299.699C109.011 299.507 111.631 299.361 114.868 299.361C118.105 299.361 120.717 299.53 120.717 299.699Z" fill="#E0E0E0"/>
<path d="M167.628 125.602C167.628 125.787 160.83 125.941 152.446 125.941C144.061 125.941 137.256 125.787 137.256 125.602C137.256 125.418 144.053 125.264 152.446 125.264C160.838 125.264 167.628 125.418 167.628 125.602Z" fill="#F5627C"/>
<path d="M167.628 299.699C167.628 299.892 160.83 300.038 152.446 300.038C144.061 300.038 137.256 299.892 137.256 299.699C137.256 299.507 144.053 299.361 152.446 299.361C160.838 299.361 167.628 299.53 167.628 299.699Z" fill="#F5627C"/>
<path d="M209.93 151.097C209.93 151.29 197.206 151.436 181.515 151.436C165.824 151.436 153.101 151.29 153.101 151.097C153.101 150.905 165.817 150.766 181.515 150.766C197.214 150.766 209.93 150.92 209.93 151.097Z" fill="#F5627C"/>
<path d="M275.652 151.097C275.652 151.29 262.928 151.436 247.238 151.436C231.547 151.436 218.815 151.29 218.815 151.097C218.815 150.905 231.539 150.766 247.238 150.766C262.936 150.766 275.652 150.92 275.652 151.097Z" fill="#E0E0E0"/>
<path d="M250.536 163.486C250.536 163.671 231.786 163.825 208.658 163.825C185.53 163.825 166.78 163.671 166.78 163.486C166.78 163.302 185.523 163.148 208.658 163.148C231.793 163.148 250.536 163.294 250.536 163.486Z" fill="#E0E0E0"/>
<path d="M250.536 175.868C250.536 176.053 231.786 176.207 208.658 176.207C185.53 176.207 166.78 176.053 166.78 175.868C166.78 175.683 185.523 175.529 208.658 175.529C231.793 175.529 250.536 175.683 250.536 175.868Z" fill="#E0E0E0"/>
<path d="M308.19 213.02C308.19 213.205 289.432 213.352 266.312 213.352C243.192 213.352 224.426 213.205 224.426 213.02C224.426 212.836 243.176 212.682 266.312 212.682C289.447 212.682 308.19 212.828 308.19 213.02Z" fill="#E0E0E0"/>
<path d="M283.305 188.25C283.305 188.434 264.554 188.588 241.434 188.588C218.314 188.588 199.549 188.434 199.549 188.25C199.549 188.065 218.299 187.911 241.434 187.911C264.57 187.911 283.305 188.065 283.305 188.25Z" fill="#E0E0E0"/>
<path d="M385.657 188.25C385.657 188.434 366.907 188.588 343.787 188.588C320.667 188.588 301.901 188.434 301.901 188.25C301.901 188.065 320.651 187.911 343.787 187.911C366.922 187.911 385.657 188.065 385.657 188.25Z" fill="#E0E0E0"/>
<path d="M350.068 163.486C350.068 163.671 331.31 163.825 308.19 163.825C285.07 163.825 266.312 163.671 266.312 163.486C266.312 163.302 285.054 163.148 308.19 163.148C331.325 163.148 350.068 163.294 350.068 163.486Z" fill="#FAFAFA"/>
<path d="M407.922 213.02C407.922 213.205 389.171 213.352 366.044 213.352C342.916 213.352 324.166 213.205 324.166 213.02C324.166 212.836 342.908 212.682 366.044 212.682C389.179 212.682 407.922 212.828 407.922 213.02Z" fill="#FAFAFA"/>
<path d="M396.369 175.868C396.369 176.053 367.254 176.207 331.34 176.207C295.427 176.207 266.312 176.053 266.312 175.868C266.312 175.683 295.42 175.529 331.34 175.529C367.261 175.529 396.369 175.683 396.369 175.868Z" fill="#455A64"/>
<path d="M167.628 138.715C167.628 138.9 160.83 139.054 152.446 139.054C144.061 139.054 137.256 138.9 137.256 138.715C137.256 138.531 144.053 138.377 152.446 138.377C160.838 138.377 167.628 138.531 167.628 138.715Z" fill="#FAFAFA"/>
<path d="M167.628 287.318C167.628 287.503 160.83 287.657 152.446 287.657C144.061 287.657 137.256 287.503 137.256 287.318C137.256 287.133 144.053 286.979 152.446 286.979C160.838 286.979 167.628 287.133 167.628 287.318Z" fill="#FAFAFA"/>
<path d="M182.648 188.25C182.648 188.434 175.851 188.588 167.458 188.588C159.066 188.588 152.268 188.434 152.268 188.25C152.268 188.065 159.073 187.911 167.458 187.911C175.843 187.911 182.648 188.065 182.648 188.25Z" fill="#FAFAFA"/>
<path d="M426.125 188.25C426.125 188.434 419.327 188.588 410.943 188.588C402.558 188.588 395.753 188.434 395.753 188.25C395.753 188.065 402.55 187.911 410.943 187.911C419.335 187.911 426.125 188.065 426.125 188.25Z" fill="#F5627C"/>
<path d="M209.93 237.714C209.93 237.899 197.206 238.053 181.515 238.053C165.824 238.053 153.101 237.899 153.101 237.714C153.101 237.53 165.817 237.376 181.515 237.376C197.214 237.376 209.93 237.522 209.93 237.714Z" fill="#F5627C"/>
<path d="M275.652 237.714C275.652 237.899 262.928 238.053 247.238 238.053C231.547 238.053 218.815 237.899 218.815 237.714C218.815 237.53 231.539 237.376 247.238 237.376C262.936 237.376 275.652 237.522 275.652 237.714Z" fill="#E0E0E0"/>
<path d="M250.536 250.096C250.536 250.281 231.786 250.435 208.658 250.435C185.53 250.435 166.78 250.281 166.78 250.096C166.78 249.911 185.523 249.757 208.658 249.757C231.793 249.757 250.536 249.911 250.536 250.096Z" fill="#E0E0E0"/>
<path d="M250.536 262.478C250.536 262.662 231.786 262.816 208.658 262.816C185.53 262.816 166.78 262.662 166.78 262.478C166.78 262.293 185.523 262.139 208.658 262.139C231.793 262.139 250.536 262.293 250.536 262.478Z" fill="#E0E0E0"/>
<path d="M283.305 274.89C283.305 275.082 264.554 275.229 241.434 275.229C218.314 275.229 199.549 275.082 199.549 274.89C199.549 274.697 218.299 274.559 241.434 274.559C264.57 274.559 283.305 274.674 283.305 274.89Z" fill="#E0E0E0"/>
<path d="M385.657 274.89C385.657 275.082 366.907 275.229 343.787 275.229C320.667 275.229 301.901 275.082 301.901 274.89C301.901 274.697 320.651 274.559 343.787 274.559C366.922 274.559 385.657 274.674 385.657 274.89Z" fill="#E0E0E0"/>
<path d="M350.068 250.096C350.068 250.281 331.31 250.435 308.19 250.435C285.07 250.435 266.312 250.281 266.312 250.096C266.312 249.911 285.054 249.757 308.19 249.757C331.325 249.757 350.068 249.911 350.068 250.096Z" fill="#FAFAFA"/>
<path d="M396.369 262.478C396.369 262.662 367.254 262.816 331.34 262.816C295.427 262.816 266.312 262.662 266.312 262.478C266.312 262.293 295.42 262.139 331.34 262.139C367.261 262.139 396.369 262.293 396.369 262.478Z" fill="#455A64"/>
<path d="M182.648 274.89C182.648 275.082 175.851 275.229 167.458 275.229C159.066 275.229 152.268 275.082 152.268 274.89C152.268 274.697 159.073 274.559 167.458 274.559C175.843 274.559 182.648 274.674 182.648 274.89Z" fill="#FAFAFA"/>
<path d="M426.125 274.89C426.125 275.082 419.327 275.229 410.943 275.229C402.558 275.229 395.753 275.082 395.753 274.89C395.753 274.697 402.55 274.559 410.943 274.559C419.335 274.559 426.125 274.674 426.125 274.89Z" fill="#F5627C"/>
<path d="M434.224 335.72C434.224 335.828 356.665 335.92 261.009 335.92C165.354 335.92 87.7789 335.812 87.7789 335.72C87.7789 335.628 165.323 335.52 261.009 335.52C356.695 335.52 434.224 335.597 434.224 335.72Z" fill="#263238"/>
<path d="M74.8086 267.829C69.4146 262.438 62.7095 258.542 55.3523 256.524C47.995 254.505 40.2388 254.434 32.8458 256.318C45.3717 264.845 60.1528 269.458 75.3096 269.569" fill="#F5627C"/>
<path d="M60.5744 217.471C62.3239 205.113 57.4918 191.214 48.2438 182.236C47.9432 194.479 53.1144 208.254 60.5744 217.471Z" fill="#F5627C"/>
<path d="M67.9805 240.81C61.2931 228.118 50.6465 217.951 37.6548 211.85C39.6856 218.963 43.5761 225.408 48.9263 230.521C54.2766 235.634 60.8933 239.23 68.0961 240.941" fill="#F5627C"/>
<path d="M69.5142 245.307C62.0464 245.522 54.4862 245.26 47.265 243.351C40.0439 241.441 33.1387 237.768 28.3143 232.055C42.9446 232.1 57.2362 236.458 69.3986 244.583" fill="#F5627C"/>
<path d="M65.7225 230.476C69.5142 216.278 75.7411 206.46 86.9389 198.506C87.7948 205.487 86.1277 212.543 82.2379 218.405C78.3481 224.266 72.4913 228.547 65.7225 230.476Z" fill="#F5627C"/>
<path d="M93.9135 254.962C93.9417 250.821 92.7437 246.763 90.4702 243.299C88.1967 239.836 84.9492 237.121 81.1358 235.497C81.76 242.827 87.5246 251.305 93.9135 254.962Z" fill="#F5627C"/>
<path d="M97.4816 242.989C98.0023 237.045 100.211 231.374 103.848 226.642C107.485 221.91 112.399 218.314 118.012 216.278C115.43 228.143 108.572 238.022 97.4816 242.989Z" fill="#F5627C"/>
<path d="M92.1024 264.233C94.7381 260.468 99.0384 258.127 103.485 256.964C107.932 255.802 112.579 255.694 117.172 255.602C114.043 258.995 110.216 261.671 105.953 263.446C101.691 265.222 97.0949 266.055 92.48 265.889" fill="#F5627C"/>
<path d="M86.7694 294.487C95.1512 291.903 104.198 292.551 112.124 296.304C120.051 300.058 126.282 306.643 129.588 314.761C114.059 311.85 98.6839 304.92 86.7694 294.487Z" fill="#F5627C"/>
<path d="M69.6991 283.976C72.2808 291.607 71.7799 300.831 66.0384 307.407C64.8942 303.472 64.629 299.334 65.2615 295.285C65.8941 291.236 67.409 287.376 69.6991 283.976Z" fill="#F5627C"/>
<path d="M59.6034 279.733C59.1871 284.653 57.508 289.381 54.7283 293.463C51.9487 297.545 48.1624 300.841 43.7354 303.033C43.5295 303.165 43.299 303.253 43.0578 303.293C42.8167 303.333 42.5701 303.323 42.3328 303.265C41.6315 302.98 41.5621 302.025 41.6546 301.27C42.7798 291.499 50.0318 282.02 59.6034 279.71" fill="#F5627C"/>
<path d="M53.0142 278.74C50.8217 281.107 48.166 282.998 45.2117 284.297C42.2574 285.597 39.0675 286.275 35.8398 286.292C32.6121 286.309 29.4154 285.663 26.4479 284.394C23.4803 283.125 20.8053 281.261 18.5885 278.917C29.532 277.724 42.1555 276.923 53.0142 278.74Z" fill="#F5627C"/>
<path d="M51.3727 191.337C51.3727 191.337 51.3727 191.453 51.4729 191.661L51.812 192.585C52.1202 193.416 52.5826 194.602 53.1298 196.127C53.677 197.651 54.4014 199.546 55.1875 201.74L56.4514 205.251L57.8 209.201C59.7421 214.738 61.8923 221.383 64.2197 228.782C66.5471 236.182 68.8976 244.375 71.2559 253.014C73.6141 261.654 75.641 269.954 77.4212 277.485C79.2015 285.016 80.5964 291.876 81.6522 297.651C81.9245 299.094 82.1814 300.464 82.4228 301.763C82.6643 303.062 82.8724 304.286 83.0471 305.436C83.4401 307.746 83.7792 309.709 84.0104 311.334C84.2416 312.959 84.4497 314.191 84.5807 315.069C84.6526 315.474 84.7066 315.798 84.7425 316.039C84.7567 316.151 84.7799 316.262 84.8119 316.37C84.8222 316.257 84.8222 316.144 84.8119 316.031C84.8119 315.792 84.7425 315.469 84.6886 315.061C84.573 314.183 84.4112 312.92 84.1954 311.311C83.9796 309.702 83.679 307.7 83.3014 305.397C83.1164 304.25 82.9161 303.018 82.708 301.717C82.4999 300.416 82.2225 299.037 81.9373 297.597C80.9123 291.815 79.4789 284.977 77.7911 277.4C76.1034 269.823 73.984 261.554 71.672 252.899C69.36 244.244 66.9093 236.082 64.605 228.69C62.3007 221.298 60.0735 214.653 58.1006 209.132C57.5868 207.746 57.1219 206.429 56.7057 205.182L55.4033 201.678C54.6326 199.492 53.8619 197.613 53.2839 196.088C52.7059 194.564 52.2127 193.401 51.889 192.577C51.7272 192.192 51.6039 191.892 51.5191 191.668C51.479 191.554 51.4301 191.444 51.3727 191.337Z" fill="#263238"/>
<path d="M111.485 222.615C111.485 222.615 111.415 222.669 111.292 222.792L110.768 223.338C110.313 223.824 109.65 224.555 108.826 225.518C106.479 228.216 104.326 231.078 102.383 234.08C99.4822 238.548 97.2154 243.396 95.6474 248.487C93.8364 254.215 92.7189 260.73 91.6014 267.544C89.3819 281.173 86.6461 293.385 84.6654 302.194C83.6713 306.591 82.8621 310.156 82.2918 312.651C82.0221 313.86 81.814 314.815 81.6675 315.492C81.5982 315.8 81.5519 316.047 81.5134 316.262C81.5 316.346 81.5 316.432 81.5134 316.516C81.5134 316.516 81.5134 316.431 81.5905 316.27C81.6675 316.108 81.7061 315.839 81.7831 315.538L82.4922 312.712C83.0856 310.218 83.941 306.668 84.9891 302.279C87.0391 293.462 89.8212 281.258 92.0484 267.629C93.1659 260.814 94.2679 254.316 96.0405 248.61C97.5846 243.547 99.8118 238.719 102.661 234.257C104.581 231.246 106.692 228.36 108.98 225.618C109.751 224.648 110.429 223.901 110.86 223.4L111.354 222.823L111.485 222.615Z" fill="#263238"/>
<path d="M49.7466 278.278C49.8734 278.321 50.0059 278.344 50.1396 278.347L51.2725 278.478L52.0894 278.555L53.0604 278.702C53.754 278.802 54.5478 278.909 55.3724 279.094L56.7365 279.371L58.1931 279.733C59.2027 279.964 60.2508 280.334 61.3682 280.673C63.7591 281.512 66.0786 282.542 68.3042 283.753C70.5081 284.988 72.5882 286.432 74.5158 288.065C75.3522 288.79 76.1472 289.561 76.8972 290.375C77.5674 291.062 78.1978 291.787 78.7853 292.546C79.2837 293.163 79.7493 293.805 80.1802 294.471C80.5335 294.962 80.8528 295.477 81.1358 296.011L81.7138 296.989C81.8526 297.212 81.9296 297.328 81.945 297.32C81.9139 297.192 81.8618 297.07 81.7909 296.958L81.2746 295.934C81.013 295.399 80.7116 294.884 80.3729 294.394C79.9599 293.711 79.5069 293.053 79.0165 292.423C78.4428 291.64 77.8199 290.894 77.1515 290.19C76.3991 289.378 75.6042 288.607 74.7701 287.88C72.8477 286.166 70.7562 284.652 68.5277 283.36C66.2826 282.135 63.9363 281.104 61.5147 280.28C60.3895 279.957 59.3337 279.595 58.3087 279.379L56.8367 279.033L55.488 278.809C54.6172 278.632 53.8157 278.547 53.1144 278.47L52.1434 278.355L51.3187 278.317L50.1782 278.27C50.0347 278.251 49.8893 278.254 49.7466 278.278Z" fill="#263238"/>
<path d="M46.6254 222.877C46.8549 223.159 47.1131 223.417 47.396 223.647L49.6695 225.61C51.5808 227.242 54.2473 229.46 57.1989 231.932C60.1506 234.403 62.8556 236.552 64.8131 238.153L67.1251 240.009C67.404 240.245 67.7032 240.456 68.0191 240.64C67.7877 240.359 67.5296 240.102 67.2484 239.87L64.9981 237.93C63.0868 236.298 60.428 234.08 57.4686 231.616C54.5093 229.152 51.8197 226.996 49.8622 225.394L47.5502 223.539C47.2663 223.286 46.9563 223.064 46.6254 222.877Z" fill="#263238"/>
<path d="M43.928 237.337C43.928 237.453 49.6463 239.239 56.7596 241.341C63.8728 243.443 69.6837 245.06 69.7145 244.952C69.7453 244.845 64.0038 243.043 56.8829 240.941C49.7619 238.839 43.9742 237.229 43.928 237.337Z" fill="#263238"/>
<path d="M65.1522 231.577C65.3808 231.326 65.5799 231.05 65.7456 230.754L67.2869 228.444C68.5662 226.503 70.3696 223.824 72.5506 221.028C74.7315 218.233 76.7892 215.754 78.3151 213.998L80.1339 211.927C80.375 211.695 80.5895 211.437 80.7736 211.157C80.4923 211.354 80.2338 211.581 80.0029 211.835C79.5328 212.297 78.8777 212.974 78.0839 213.829C76.4887 215.531 74.3693 217.972 72.2038 220.797C70.0382 223.623 68.2425 226.318 67.0172 228.305C66.4083 229.298 65.9305 230.114 65.6146 230.684C65.4332 230.967 65.2784 231.266 65.1522 231.577Z" fill="#263238"/>
<path d="M85.1047 239.609C85.5071 240.375 85.9575 241.116 86.4534 241.826C87.3165 243.174 88.4803 245.045 89.6825 247.162C90.8847 249.28 91.9097 251.236 92.6264 252.668C92.9814 253.464 93.3881 254.235 93.8441 254.978C93.6085 254.143 93.291 253.333 92.8962 252.56C92.2411 251.097 91.2624 249.11 90.0447 246.978C88.8271 244.845 87.6248 242.989 86.7 241.68C86.2359 240.94 85.7017 240.246 85.1047 239.609Z" fill="#263238"/>
<path d="M91.9329 264.626C91.9329 264.68 93.058 264.148 94.8537 263.34C96.6493 262.531 99.154 261.477 101.982 260.491C104.811 259.505 107.431 258.759 109.342 258.273C111.253 257.788 112.425 257.503 112.425 257.465C112.137 257.453 111.849 257.482 111.569 257.55C111.022 257.634 110.236 257.781 109.257 257.988C104.222 259.089 99.3392 260.796 94.715 263.07C93.8287 263.509 93.1197 263.887 92.6419 264.164C92.3868 264.287 92.1485 264.442 91.9329 264.626Z" fill="#263238"/>
<path d="M86.5613 294.533C86.5613 294.533 86.6769 294.594 86.9158 294.656L87.9485 294.918L91.8018 295.803C96.0147 296.684 100.179 297.781 104.279 299.091C108.36 300.454 112.268 302.289 115.924 304.558C117.319 305.444 118.405 306.229 119.137 306.791C119.506 307.098 119.892 307.383 120.293 307.646C120.293 307.646 120.209 307.538 120.031 307.369C119.854 307.199 119.592 306.953 119.261 306.66C118.255 305.818 117.203 305.034 116.109 304.312C112.474 301.952 108.553 300.066 104.441 298.698C100.326 297.377 96.1334 296.312 91.8866 295.511L88.0333 294.741C87.5475 294.64 87.0558 294.571 86.5613 294.533Z" fill="#263238"/>
<path d="M67.1251 301.909C67.2407 301.909 67.8957 297.898 68.6664 292.916C69.4371 287.934 69.8995 283.876 69.7839 283.86C69.6683 283.845 69.0132 287.872 68.2425 292.854C67.4719 297.836 67.048 301.894 67.1251 301.909Z" fill="#263238"/>
<path d="M46.8874 294.571C47.5435 293.891 48.1536 293.168 48.7139 292.408C49.8082 291.045 51.3187 289.173 53.0373 287.133C54.7559 285.092 56.3358 283.283 57.4918 281.974C58.1537 281.29 58.7715 280.565 59.3414 279.803C59.1245 279.942 58.9275 280.111 58.7557 280.303C58.4011 280.634 57.9079 281.142 57.2991 281.774C56.0891 283.037 54.463 284.854 52.7445 286.863C51.0259 288.873 49.5462 290.814 48.5135 292.253C47.9894 292.962 47.581 293.539 47.3113 293.94C47.142 294.13 46.9994 294.343 46.8874 294.571Z" fill="#263238"/>
<path d="M100.441 313.321V323.308H97.9364L89.0506 351.336H69.3446L60.7363 323.585L57.3993 323.308V313.321H100.441Z" fill="#F5627C"/>
<g opacity="0.3">
<path d="M100.441 313.321V323.308H97.9364L89.0506 351.336H69.3446L60.7363 323.585L57.3993 323.308V313.321H100.441Z" fill="black"/>
</g>
<path d="M59.0639 323.585C59.0639 323.7 67.7724 323.793 78.5001 323.793C89.2278 323.793 97.9363 323.7 97.9363 323.585C97.9363 323.469 89.2355 323.377 78.5001 323.377C67.7647 323.377 59.0639 323.469 59.0639 323.585Z" fill="#263238"/>
<path d="M44.8914 259.328C45.3023 259.477 45.7251 259.59 46.1553 259.667L49.6155 260.506C52.5287 261.223 56.5515 262.316 60.875 263.779C65.1984 265.242 69.0749 266.782 71.8339 267.968L75.0938 269.392C75.4835 269.588 75.8881 269.753 76.3037 269.885C75.9425 269.64 75.5609 269.426 75.1631 269.246C74.3925 268.861 73.3213 268.33 71.9495 267.706C68.3798 266.082 64.7298 264.64 61.0137 263.386C57.2948 262.136 53.5134 261.08 49.6849 260.222C48.2129 259.898 47.0184 259.659 46.1861 259.521C45.7611 259.418 45.3278 259.354 44.8914 259.328Z" fill="#263238"/>
<path d="M65.6069 339.147C65.6069 339.262 71.7183 339.354 79.2477 339.354C86.7771 339.354 92.8808 339.262 92.8808 339.147C92.8808 339.031 86.7771 338.939 79.2477 338.939C71.7183 338.939 65.6069 339.031 65.6069 339.147Z" fill="#FAFAFA"/>
<path d="M64.8439 336.829C64.8439 336.944 71.3175 337.037 79.2939 337.037C87.2703 337.037 93.7439 336.944 93.7439 336.829C93.7439 336.713 87.278 336.621 79.2939 336.621C71.3098 336.621 64.8439 336.713 64.8439 336.829Z" fill="#FAFAFA"/>
<path d="M546.757 351.49C546.757 351.605 429.277 351.697 284.391 351.697C139.506 351.697 21.9949 351.605 21.9949 351.49C21.9949 351.374 139.491 351.289 284.376 351.289C429.261 351.289 546.757 351.382 546.757 351.49Z" fill="#263238"/>
<path d="M474.761 58.6201H268.231V186.409H442.093L452.859 211.149L462.4 186.409H474.761V58.6201Z" fill="#FAFAFA"/>
<path d="M474.731 58.6124C474.731 59.8521 474.785 107.892 474.885 186.432V186.586H462.4L462.546 186.486C459.564 194.24 456.343 202.595 453.013 211.226L452.867 211.619L452.697 211.234C449.322 203.488 445.676 195.103 441.908 186.494L442.07 186.602H284.854H268.03V186.402C268.03 140.856 268.03 97.636 268.03 58.5816V58.4045H268.215L474.754 58.5816L268.215 58.7664L268.4 58.5816C268.4 97.6129 268.4 140.833 268.4 186.402L268.2 186.201H284.831H442.047H442.162L442.209 186.309L452.998 211.057H452.682L462.254 186.34L462.292 186.232H474.731L474.577 186.386C474.731 107.862 474.731 59.8521 474.731 58.6124Z" fill="#263238"/>
<path d="M474.654 71.0864C474.654 71.2404 428.506 71.3713 371.6 71.3713C314.694 71.3713 268.539 71.2404 268.539 71.0864C268.539 70.9324 314.679 70.84 371.6 70.84C428.521 70.84 474.654 70.9324 474.654 71.0864Z" fill="#263238"/>
<path d="M279.205 65.45C279.205 65.7854 279.105 66.1132 278.919 66.3919C278.732 66.6707 278.467 66.8878 278.156 67.0158C277.846 67.1438 277.505 67.1769 277.176 67.1109C276.847 67.0449 276.545 66.8828 276.308 66.6451C276.071 66.4074 275.91 66.1048 275.846 65.7757C275.781 65.4466 275.816 65.1058 275.945 64.7964C276.075 64.487 276.293 64.2229 276.573 64.0377C276.853 63.8525 277.181 63.7545 277.517 63.756C277.965 63.758 278.395 63.9374 278.711 64.2549C279.027 64.5723 279.205 65.0021 279.205 65.45Z" fill="#263238"/>
<path d="M285.332 65.45C285.332 65.7854 285.232 66.1132 285.045 66.3919C284.859 66.6707 284.593 66.8878 284.283 67.0158C283.973 67.1438 283.632 67.1769 283.303 67.1109C282.973 67.0449 282.671 66.8828 282.435 66.6451C282.198 66.4074 282.037 66.1048 281.972 65.7757C281.908 65.4466 281.942 65.1058 282.072 64.7964C282.201 64.487 282.42 64.2229 282.7 64.0377C282.98 63.8525 283.308 63.7545 283.644 63.756C284.092 63.758 284.521 63.9374 284.838 64.2549C285.154 64.5723 285.332 65.0021 285.332 65.45Z" fill="#263238"/>
<path d="M291.458 65.45C291.458 65.7851 291.359 66.1126 291.173 66.3911C290.986 66.6697 290.722 66.8868 290.412 67.0151C290.102 67.1433 289.761 67.1768 289.432 67.1115C289.103 67.0461 288.801 66.8848 288.564 66.6478C288.327 66.4109 288.166 66.1091 288.1 65.7805C288.035 65.4519 288.068 65.1113 288.197 64.8017C288.325 64.4922 288.542 64.2276 288.821 64.0415C289.1 63.8554 289.428 63.756 289.763 63.756C290.213 63.756 290.644 63.9345 290.962 64.2522C291.28 64.5699 291.458 65.0007 291.458 65.45Z" fill="#263238"/>
<path d="M290.757 93.94L285.856 95.8342L290.757 97.7207V98.868L284.592 96.4271V95.249L290.757 92.8004V93.94Z" fill="#263238"/>
<path d="M295.859 89.0505H297.061L292.499 102.048H291.312L295.859 89.0505Z" fill="#263238"/>
<path d="M303.643 95.249V96.4348L297.477 98.8757V97.7284L302.394 95.8419L297.477 93.94V92.7927L303.643 95.249Z" fill="#263238"/>
<path d="M305.23 99.7997C305.228 99.6758 305.251 99.5527 305.298 99.4378C305.344 99.3229 305.413 99.2185 305.501 99.1308C305.589 99.0432 305.693 98.9741 305.808 98.9276C305.923 98.8811 306.046 98.8582 306.17 98.8603C306.293 98.8592 306.415 98.8829 306.528 98.93C306.641 98.9771 306.744 99.0467 306.83 99.1344C306.915 99.2222 306.982 99.3264 307.027 99.4407C307.071 99.5551 307.092 99.6772 307.088 99.7997C307.092 99.923 307.071 100.046 307.027 100.161C306.983 100.276 306.916 100.381 306.831 100.47C306.745 100.559 306.643 100.63 306.529 100.679C306.416 100.728 306.294 100.754 306.17 100.755C306.046 100.755 305.922 100.73 305.807 100.682C305.692 100.633 305.588 100.563 305.5 100.474C305.413 100.385 305.344 100.28 305.297 100.164C305.251 100.048 305.228 99.9244 305.23 99.7997Z" fill="#263238"/>
<path d="M308.375 99.7997C308.371 99.6755 308.394 99.5519 308.44 99.4365C308.486 99.3211 308.555 99.2163 308.643 99.1284C308.731 99.0405 308.836 98.9714 308.951 98.9254C309.067 98.8793 309.19 98.8571 309.315 98.8603C309.437 98.8602 309.558 98.8847 309.67 98.9323C309.782 98.9799 309.884 99.0496 309.969 99.1372C310.054 99.2249 310.12 99.3287 310.164 99.4425C310.208 99.5564 310.228 99.6778 310.224 99.7997C310.228 99.9223 310.208 100.045 310.164 100.159C310.121 100.274 310.054 100.379 309.97 100.468C309.885 100.556 309.784 100.628 309.671 100.677C309.559 100.726 309.438 100.753 309.315 100.755C309.19 100.756 309.066 100.732 308.95 100.684C308.835 100.636 308.73 100.565 308.642 100.476C308.554 100.387 308.485 100.281 308.439 100.165C308.394 100.049 308.371 99.9246 308.375 99.7997Z" fill="#263238"/>
<path d="M311.511 99.7997C311.508 99.6755 311.53 99.5519 311.576 99.4365C311.622 99.3211 311.692 99.2163 311.779 99.1284C311.867 99.0405 311.972 98.9714 312.088 98.9254C312.203 98.8793 312.327 98.8571 312.451 98.8603C312.573 98.8602 312.694 98.8847 312.807 98.9323C312.919 98.9799 313.021 99.0496 313.106 99.1372C313.19 99.2249 313.257 99.3287 313.301 99.4425C313.344 99.5564 313.365 99.6778 313.361 99.7997C313.365 99.9223 313.345 100.045 313.301 100.159C313.257 100.274 313.191 100.379 313.106 100.468C313.022 100.556 312.92 100.628 312.808 100.677C312.695 100.726 312.574 100.753 312.451 100.755C312.326 100.756 312.202 100.732 312.087 100.684C311.971 100.636 311.866 100.565 311.779 100.476C311.691 100.387 311.622 100.281 311.576 100.165C311.53 100.049 311.508 99.9246 311.511 99.7997Z" fill="#263238"/>
<path d="M421.169 112.197C421.169 112.351 390.643 112.474 352.988 112.474C315.334 112.474 284.8 112.351 284.8 112.197C284.8 112.043 315.326 111.912 352.988 111.912C390.651 111.912 421.169 112.035 421.169 112.197Z" fill="#455A64"/>
<path d="M443.442 112.597C443.442 112.751 440.513 112.882 436.891 112.882C433.269 112.882 430.34 112.751 430.34 112.597C430.34 112.443 433.277 112.312 436.891 112.312C440.505 112.312 443.442 112.42 443.442 112.597Z" fill="#263238"/>
<path d="M462.593 112.597C462.593 112.751 459.387 112.882 455.441 112.882C451.495 112.882 448.281 112.751 448.281 112.597C448.281 112.443 451.487 112.312 455.441 112.312C459.394 112.312 462.593 112.42 462.593 112.597Z" fill="#263238"/>
<path d="M371.639 123.677C371.639 123.831 352.233 123.955 328.296 123.955C304.359 123.955 284.962 123.831 284.962 123.677C284.962 123.523 304.359 123.393 328.296 123.393C352.233 123.393 371.639 123.516 371.639 123.677Z" fill="#455A64"/>
<path d="M371.014 166.512C371.014 166.666 351.609 166.79 327.68 166.79C303.751 166.79 284.337 166.666 284.337 166.512C284.337 166.358 303.743 166.228 327.68 166.228C351.617 166.228 371.014 166.358 371.014 166.512Z" fill="#455A64"/>
<path d="M403.128 123.677C403.128 123.831 397.849 123.955 391.337 123.955C384.825 123.955 379.546 123.831 379.546 123.677C379.546 123.523 384.825 123.393 391.337 123.393C397.849 123.393 403.128 123.516 403.128 123.677Z" fill="#263238"/>
<path d="M402.881 166.512C402.881 166.666 397.602 166.79 391.09 166.79C384.578 166.79 379.299 166.666 379.299 166.512C379.299 166.358 384.578 166.228 391.09 166.228C397.602 166.228 402.881 166.358 402.881 166.512Z" fill="#263238"/>
<path d="M290.649 129.514C290.649 129.668 289.339 129.799 287.721 129.799C286.102 129.799 284.8 129.668 284.8 129.514C284.8 129.36 286.11 129.237 287.721 129.237C289.331 129.237 290.649 129.36 290.649 129.514Z" fill="#F5627C"/>
<path d="M310.802 129.637C310.802 129.791 307.958 129.914 304.452 129.914C300.945 129.914 298.102 129.791 298.102 129.637C298.102 129.483 300.945 129.352 304.452 129.352C307.958 129.352 310.802 129.483 310.802 129.637Z" fill="#263238"/>
<path d="M323.68 129.637C323.68 129.791 321.245 129.914 318.239 129.914C315.234 129.914 312.798 129.791 312.798 129.637C312.798 129.483 315.234 129.352 318.239 129.352C321.245 129.352 323.68 129.483 323.68 129.637Z" fill="#263238"/>
<path d="M340.034 129.637C340.034 129.791 337.552 129.914 334.492 129.914C331.433 129.914 328.944 129.791 328.944 129.637C328.944 129.483 331.425 129.352 334.492 129.352C337.56 129.352 340.034 129.483 340.034 129.637Z" fill="#263238"/>
<path d="M354.345 129.637C354.345 129.791 352.087 129.914 349.305 129.914C346.523 129.914 344.265 129.791 344.265 129.637C344.265 129.483 346.523 129.352 349.305 129.352C352.087 129.352 354.345 129.483 354.345 129.637Z" fill="#263238"/>
<path d="M401.718 129.637C401.718 129.791 391.792 129.914 379.546 129.914C367.3 129.914 357.366 129.791 357.366 129.637C357.366 129.483 367.292 129.352 379.546 129.352C391.799 129.352 401.718 129.483 401.718 129.637Z" fill="#263238"/>
<path d="M289.84 136.968C289.84 137.122 288.715 137.253 287.32 137.253C285.925 137.253 284.8 137.122 284.8 136.968C284.8 136.814 285.925 136.683 287.32 136.683C288.715 136.683 289.84 136.814 289.84 136.968Z" fill="#F5627C"/>
<path d="M290.04 144.621C290.04 144.775 288.869 144.906 287.42 144.906C285.971 144.906 284.8 144.775 284.8 144.621C284.8 144.467 285.971 144.337 287.42 144.337C288.869 144.337 290.04 144.467 290.04 144.621Z" fill="#F5627C"/>
<path d="M290.04 153.284C290.04 153.438 288.869 153.561 287.42 153.561C285.971 153.561 284.8 153.438 284.8 153.284C284.8 153.13 285.971 152.999 287.42 152.999C288.869 152.999 290.04 153.122 290.04 153.284Z" fill="#F5627C"/>
<path d="M337.814 152.876C337.814 153.038 329.059 153.161 318.262 153.161C307.465 153.161 298.71 153.038 298.71 152.876C298.71 152.714 307.465 152.599 318.262 152.599C329.059 152.599 337.814 152.722 337.814 152.876Z" fill="#263238"/>
<path d="M334.392 144.621C334.392 144.775 326.038 144.906 315.742 144.906C305.446 144.906 297.1 144.775 297.1 144.621C297.1 144.467 305.446 144.337 315.742 144.337C326.038 144.337 334.392 144.467 334.392 144.621Z" fill="#263238"/>
<path d="M424.499 136.567C424.499 136.721 396.061 136.844 361.003 136.844C325.946 136.844 297.5 136.721 297.5 136.567C297.5 136.413 325.923 136.282 361.003 136.282C396.084 136.282 424.499 136.406 424.499 136.567Z" fill="#263238"/>
<path d="M487.447 110.88V219.481L470.546 233.564H487.447H489.111H558.934V110.88H487.447Z" fill="#FAFAFA"/>
<path d="M487.447 110.88C487.447 110.88 487.871 110.88 488.695 110.88H492.394H506.629L558.934 110.803H559.088V110.957C559.088 143.736 559.088 186.548 559.134 233.641V233.841H546.541H470.546H470.037L470.43 233.51L487.339 219.427L487.269 219.566C487.308 187.095 487.339 159.929 487.362 140.872C487.362 131.362 487.4 123.878 487.408 118.765C487.408 116.224 487.408 114.276 487.408 112.944C487.408 112.297 487.408 111.796 487.408 111.458C487.408 111.119 487.408 110.965 487.408 110.965C487.408 110.965 487.408 111.142 487.408 111.481C487.408 111.819 487.408 112.328 487.408 113.021C487.408 114.353 487.408 116.316 487.408 118.873C487.408 123.993 487.408 131.493 487.454 141.01C487.454 160.045 487.501 187.21 487.539 219.596V219.673L487.477 219.727L470.584 233.826L470.461 233.495H546.457H558.849L558.649 233.695C558.649 186.602 558.649 143.79 558.695 111.011L558.849 111.157L506.636 111.08L492.456 110.88H488.726H487.447Z" fill="#263238"/>
<path d="M493.943 116.27C493.943 116.556 493.858 116.836 493.699 117.074C493.54 117.312 493.314 117.498 493.049 117.607C492.784 117.717 492.493 117.746 492.212 117.69C491.931 117.634 491.673 117.496 491.47 117.294C491.267 117.091 491.129 116.833 491.073 116.552C491.018 116.272 491.046 115.981 491.156 115.716C491.266 115.452 491.451 115.225 491.69 115.066C491.928 114.907 492.208 114.822 492.495 114.822C492.879 114.822 493.247 114.975 493.519 115.246C493.791 115.518 493.943 115.886 493.943 116.27Z" fill="#263238"/>
<path d="M499.184 116.27C499.184 116.556 499.099 116.836 498.94 117.074C498.781 117.312 498.554 117.498 498.29 117.607C498.025 117.717 497.733 117.746 497.452 117.69C497.171 117.634 496.913 117.496 496.711 117.294C496.508 117.091 496.37 116.833 496.314 116.552C496.258 116.272 496.287 115.981 496.396 115.716C496.506 115.452 496.692 115.225 496.93 115.066C497.168 114.907 497.448 114.822 497.735 114.822C498.119 114.822 498.488 114.975 498.76 115.246C499.031 115.518 499.184 115.886 499.184 116.27Z" fill="#263238"/>
<path d="M504.424 116.27C504.424 116.556 504.339 116.836 504.18 117.074C504.021 117.312 503.795 117.498 503.53 117.607C503.265 117.717 502.974 117.746 502.693 117.69C502.412 117.634 502.154 117.496 501.951 117.294C501.748 117.091 501.61 116.833 501.555 116.552C501.499 116.272 501.527 115.981 501.637 115.716C501.747 115.452 501.932 115.225 502.171 115.066C502.409 114.907 502.689 114.822 502.976 114.822C503.36 114.822 503.728 114.975 504 115.246C504.272 115.518 504.424 115.886 504.424 116.27Z" fill="#263238"/>
<path d="M539.282 149.742C539.282 149.873 530.219 149.973 519.044 149.973C507.869 149.973 498.806 149.873 498.806 149.742C498.806 149.611 507.862 149.511 519.044 149.511C530.226 149.511 539.282 149.611 539.282 149.742Z" fill="#F5627C"/>
<path d="M547.728 159.567C547.728 159.69 536.7 159.798 523.067 159.798C509.434 159.798 498.406 159.69 498.406 159.567C498.406 159.444 509.434 159.336 523.067 159.336C536.7 159.336 547.728 159.436 547.728 159.567Z" fill="#F5627C"/>
<path d="M549.732 196.219C549.732 196.35 537.972 196.45 523.468 196.45C508.964 196.45 497.203 196.35 497.203 196.219C497.203 196.088 508.964 195.988 523.468 195.988C537.972 195.988 549.732 196.096 549.732 196.219Z" fill="#F5627C"/>
<path d="M502.598 164.564C500.945 164.872 499.249 164.872 497.596 164.564C499.249 164.256 500.945 164.256 502.598 164.564Z" fill="#F5627C"/>
<path d="M519.853 164.664C519.853 164.795 517.418 164.895 514.459 164.895C511.499 164.895 509.064 164.795 509.064 164.664C512.679 164.357 516.315 164.357 519.93 164.664H519.853Z" fill="#F5627C"/>
<path d="M530.889 164.665C530.889 164.795 528.808 164.896 526.265 164.896C523.722 164.896 521.603 164.795 521.603 164.665C524.701 164.356 527.822 164.356 530.92 164.665H530.889Z" fill="#F5627C"/>
<path d="M501.912 170.94C500.49 171.248 499.018 171.248 497.596 170.94C499.018 170.632 500.49 170.632 501.912 170.94Z" fill="#F5627C"/>
<path d="M502.082 177.493C500.602 177.801 499.076 177.801 497.596 177.493C499.074 177.174 500.603 177.174 502.082 177.493Z" fill="#F5627C"/>
<path d="M502.082 184.9C500.602 185.208 499.076 185.208 497.596 184.9C499.076 184.592 500.602 184.592 502.082 184.9Z" fill="#F5627C"/>
<path d="M542.966 184.554C542.966 184.684 535.475 184.785 526.234 184.785C516.994 184.785 509.503 184.684 509.503 184.554C509.503 184.423 516.994 184.323 526.234 184.323C535.475 184.323 542.966 184.43 542.966 184.554Z" fill="#F5627C"/>
<path d="M540.029 177.493C540.029 177.616 532.885 177.724 524.076 177.724C515.268 177.724 508.124 177.616 508.124 177.493C508.124 177.37 515.26 177.254 524.076 177.254C532.893 177.254 540.029 177.362 540.029 177.493Z" fill="#F5627C"/>
<path d="M505.349 206.006C503.87 206.314 502.343 206.314 500.864 206.006C502.343 205.698 503.87 205.698 505.349 206.006Z" fill="#F5627C"/>
<path d="M505.349 213.421C503.87 213.729 502.343 213.729 500.864 213.421C502.342 213.103 503.871 213.103 505.349 213.421Z" fill="#F5627C"/>
<path d="M546.233 213.074C546.233 213.198 538.742 213.305 529.502 213.305C520.262 213.305 512.771 213.198 512.771 213.074C512.771 212.951 520.254 212.843 529.502 212.843C538.75 212.843 546.233 212.944 546.233 213.074Z" fill="#F5627C"/>
<path d="M543.32 206.006C543.32 206.137 536.176 206.237 527.367 206.237C518.558 206.237 511.407 206.137 511.407 206.006C511.407 205.875 518.551 205.775 527.367 205.775C536.184 205.775 543.32 205.875 543.32 206.006Z" fill="#F5627C"/>
<path d="M551.898 170.594C551.898 170.724 542.172 170.825 530.18 170.825C518.189 170.825 508.463 170.724 508.463 170.594C508.463 170.463 518.189 170.363 530.18 170.363C542.172 170.363 551.898 170.47 551.898 170.594Z" fill="#F5627C"/>
<path d="M558.263 121.953C558.263 122.076 542.565 122.184 523.206 122.184C503.846 122.184 488.148 122.076 488.148 121.953C488.148 121.829 503.839 121.722 523.206 121.722C542.572 121.722 558.263 121.822 558.263 121.953Z" fill="#263238"/>
<path d="M513.595 143.821C508.663 144.129 503.716 144.129 498.783 143.821C498.783 143.69 502.097 143.59 506.189 143.59C510.282 143.59 513.595 143.69 513.595 143.821Z" fill="#F5627C"/>
<path d="M505.211 130.415C505.211 130.546 503.669 130.646 501.719 130.646C499.77 130.646 498.228 130.546 498.228 130.415C500.545 130.107 502.893 130.107 505.211 130.415Z" fill="#F5627C"/>
<path d="M443.341 288.565L458.863 273.235L431.18 225.872C428.299 222.578 424.653 220.042 420.561 218.488L410.812 214.784L386.574 210.341L369.373 217.14C367.256 217.972 365.475 219.481 364.308 221.431C363.141 223.382 362.654 225.663 362.922 227.92L367.423 265.773L370.074 315.053L432.598 304.212L426.31 285.986L426.518 257.557L443.341 288.565Z" fill="#F5627C"/>
<path d="M426.88 284.761C427.026 284.761 427.065 274.913 426.965 262.77C426.865 250.627 426.672 240.779 426.525 240.779C426.379 240.779 426.341 250.627 426.441 262.77C426.541 274.913 426.734 284.761 426.88 284.761Z" fill="#263238"/>
<path d="M424.591 291.984L386.828 276.792C385.334 276.191 384.037 275.184 383.084 273.886C382.131 272.589 381.56 271.051 381.434 269.446L378.675 233.256C378.675 233.256 378.998 217.856 369.381 217.086L363.901 219.234C356.819 223.023 355.069 233.31 356.048 241.256C357.412 252.545 357.982 268.522 359.516 278.324C360.772 286.34 365.589 292.677 373.218 295.457L419.751 305.521L424.591 291.984Z" fill="#F5627C"/>
<path d="M379.207 238.777C379.264 239.049 379.303 239.324 379.322 239.601C379.384 240.194 379.469 240.987 379.569 241.988C379.761 244.105 380.031 247.093 380.339 250.766C380.648 254.439 381.033 258.897 381.457 263.787C381.557 265.011 381.665 266.266 381.773 267.552C381.848 268.845 382.01 270.131 382.258 271.402C382.52 272.697 383.173 273.88 384.131 274.79C385.169 275.696 386.348 276.427 387.622 276.954C398.034 281.458 407.66 285.177 414.596 287.788L422.873 290.868L425.123 291.691C425.389 291.775 425.647 291.883 425.894 292.015C425.632 291.958 425.374 291.884 425.123 291.792L422.811 291.022C420.83 290.367 417.979 289.381 414.472 288.126C407.467 285.593 397.849 281.966 387.399 277.416C386.076 276.863 384.853 276.098 383.777 275.152C382.745 274.175 382.043 272.902 381.765 271.51C381.515 270.208 381.355 268.891 381.287 267.567C381.179 266.284 381.079 265.029 380.987 263.802C380.601 258.905 380.262 254.493 379.969 250.766C379.677 247.039 379.492 244.105 379.33 241.98C379.268 240.979 379.222 240.178 379.183 239.585C379.173 239.316 379.181 239.046 379.207 238.777Z" fill="#263238"/>
<path d="M357.589 258.45C357.643 258.607 357.669 258.771 357.666 258.936C357.666 259.313 357.743 259.775 357.79 260.329C357.905 261.623 358.059 263.355 358.237 265.465C358.414 267.575 358.707 270.208 359.084 273.057C359.457 276.148 360.029 279.211 360.795 282.228C361.147 283.78 361.771 285.258 362.637 286.594C363.472 287.831 364.416 288.991 365.458 290.059C367.223 291.879 369.265 293.41 371.508 294.594C373.595 295.654 375.833 296.387 378.143 296.766C377.979 296.784 377.814 296.784 377.65 296.766C377.179 296.74 376.71 296.68 376.247 296.589C374.53 296.264 372.867 295.699 371.307 294.91C369.005 293.75 366.907 292.223 365.096 290.39C364.022 289.31 363.052 288.132 362.198 286.871C361.295 285.492 360.642 283.965 360.271 282.359C359.502 279.321 358.941 276.233 358.591 273.119C358.244 270.255 358.013 267.667 357.821 265.496C357.628 263.325 357.582 261.561 357.535 260.345C357.535 259.783 357.535 259.321 357.535 258.936C357.533 258.772 357.551 258.609 357.589 258.45Z" fill="#263238"/>
<path d="M373.719 283.776C373.814 283.065 374.047 282.38 374.405 281.758C375.18 280.213 376.258 278.838 377.573 277.715C378.889 276.592 380.417 275.744 382.066 275.221C382.734 274.966 383.446 274.843 384.162 274.859C384.162 274.944 383.391 275.098 382.189 275.56C380.63 276.164 379.182 277.023 377.904 278.101C376.633 279.196 375.557 280.497 374.721 281.951C374.074 283.044 373.773 283.799 373.719 283.776Z" fill="#263238"/>
<g opacity="0.3">
<path d="M413.732 287.672C409.694 285.362 405.741 283.637 401.517 281.72C397.294 279.803 393.156 277.339 390.397 273.62C385.179 266.597 385.773 256.464 380.44 249.534L381.48 263.509C381.804 267.783 381.149 271.979 383.9 274.905C386.212 277.346 390.743 279.225 393.919 280.295C400.354 282.413 407.282 285.562 413.709 287.687" fill="black"/>
</g>
<path opacity="0.3" d="M426.525 243.443L429.793 263.586L426.703 257.881L426.525 243.443Z" fill="black"/>
<path d="M378.066 231C377.78 231.062 377.487 231.085 377.195 231.069L374.806 231.131C372.795 231.185 370.02 231.285 366.961 231.501C363.901 231.716 361.142 232.016 359.138 232.271L356.772 232.548C356.485 232.598 356.193 232.618 355.902 232.609C356.172 232.498 356.458 232.425 356.749 232.394C357.304 232.278 358.106 232.14 359.061 231.986C361.057 231.678 363.824 231.339 366.891 231.116C369.959 230.892 372.748 230.838 374.767 230.861C375.777 230.861 376.594 230.9 377.157 230.931C377.461 230.921 377.766 230.944 378.066 231Z" fill="#455A64"/>
<path d="M379.168 250.296C379.168 250.404 374.22 250.905 368.109 251.405C361.998 251.906 357.019 252.237 357.011 252.121C357.004 252.006 361.951 251.513 368.07 251.005C374.19 250.496 379.168 250.181 379.168 250.296Z" fill="#455A64"/>
<path d="M380.964 270.555C380.724 270.731 380.465 270.881 380.193 271.002C379.677 271.271 378.921 271.625 377.958 272.026C372.957 274.115 367.628 275.309 362.213 275.552C361.173 275.598 360.333 275.598 359.755 275.552C359.455 275.569 359.154 275.546 358.861 275.483C359.155 275.424 359.455 275.396 359.755 275.398C360.333 275.398 361.165 275.329 362.198 275.244C364.867 275.057 367.52 274.681 370.136 274.12C372.757 273.535 375.332 272.763 377.842 271.81C378.806 271.44 379.584 271.132 380.154 270.909C380.41 270.76 380.681 270.642 380.964 270.555Z" fill="#455A64"/>
<path d="M394.396 280.95C393.031 281.796 391.773 282.804 390.651 283.953C389.628 285.191 388.752 286.542 388.038 287.98C388.089 287.499 388.23 287.031 388.455 286.602C389.41 284.452 391.031 282.665 393.079 281.504C393.476 281.233 393.924 281.044 394.396 280.95Z" fill="#455A64"/>
<path d="M408.06 294.286C408.66 291.492 410.064 288.933 412.099 286.925C412.191 287.002 411.004 288.465 409.894 290.506C408.785 292.546 408.176 294.325 408.06 294.286Z" fill="#455A64"/>
<path d="M386.528 219.681C384.778 220.198 382.993 220.59 381.187 220.851C379.41 221.238 377.607 221.496 375.792 221.621C377.541 221.099 379.326 220.707 381.133 220.451C382.91 220.064 384.713 219.807 386.528 219.681Z" fill="#455A64"/>
<path d="M422.695 221.329C420.214 221.235 417.739 221.009 415.281 220.651C412.81 220.427 410.353 220.067 407.922 219.573C410.403 219.671 412.877 219.898 415.335 220.251C417.806 220.48 420.263 220.839 422.695 221.329Z" fill="#455A64"/>
<path d="M425.778 238.13C425.622 238.153 425.464 238.153 425.308 238.13H423.951H418.965C414.757 238.13 408.947 238.13 402.527 238.323C396.107 238.515 390.304 238.754 386.096 238.977L381.118 239.239L379.769 239.293C379.611 239.317 379.45 239.317 379.291 239.293C379.446 239.256 379.603 239.232 379.761 239.224L381.11 239.085C382.281 238.977 383.977 238.846 386.081 238.7C390.281 238.407 396.1 238.099 402.519 237.93C408.939 237.761 414.757 237.776 418.973 237.853C421.077 237.892 422.78 237.938 423.951 237.992L425.308 238.053C425.467 238.064 425.624 238.09 425.778 238.13Z" fill="#455A64"/>
<path d="M426.225 259.421C426.225 259.529 416.322 260.268 404.091 261.076C391.861 261.885 381.935 262.439 381.927 262.331C381.919 262.224 391.83 261.477 404.061 260.676C416.291 259.875 426.217 259.305 426.225 259.421Z" fill="#455A64"/>
<path d="M425.169 278.17C424.904 278.316 424.626 278.435 424.337 278.524C423.79 278.732 422.996 279.002 422.025 279.294C420.044 279.941 417.277 280.75 414.187 281.497C411.097 282.243 408.268 282.775 406.211 283.09C405.178 283.26 404.346 283.375 403.768 283.437C403.467 283.487 403.163 283.508 402.858 283.499C403.145 283.394 403.442 283.322 403.745 283.283L406.157 282.813C408.199 282.421 411.012 281.843 414.095 281.104C417.177 280.365 419.944 279.602 421.94 279.025L424.306 278.34C424.586 278.248 424.875 278.191 425.169 278.17Z" fill="#455A64"/>
<path d="M441.022 244.182C438.662 245 436.259 245.689 433.824 246.246C431.423 246.935 428.986 247.495 426.525 247.925C428.886 247.11 431.289 246.421 433.723 245.861C436.124 245.169 438.56 244.608 441.022 244.182Z" fill="#455A64"/>
<path d="M433.461 229.791C432.437 230.179 431.367 230.438 430.279 230.561C429.209 230.821 428.112 230.951 427.011 230.946C428.04 230.564 429.111 230.306 430.202 230.176C431.268 229.916 432.363 229.787 433.461 229.791Z" fill="#455A64"/>
<path d="M379.322 234.257C379.245 234.257 379.122 232.979 378.42 231.046C377.51 228.52 375.988 226.258 373.99 224.463C371.991 222.668 369.579 221.395 366.968 220.759C364.965 220.266 363.662 220.289 363.67 220.212C363.97 220.158 364.276 220.146 364.579 220.174C365.404 220.207 366.224 220.313 367.03 220.49C369.72 221.059 372.213 222.326 374.259 224.163C376.304 226 377.83 228.342 378.682 230.954C378.947 231.735 379.138 232.539 379.253 233.356C379.317 233.652 379.34 233.955 379.322 234.257Z" fill="#263238"/>
<path d="M424.329 223.993C424.909 226.311 425.354 228.661 425.662 231.031C426.11 233.38 426.421 235.753 426.595 238.138C426.024 235.816 425.581 233.463 425.269 231.092C424.823 228.745 424.509 226.375 424.329 223.993Z" fill="#263238"/>
<path d="M466.438 337.483C466.438 337.483 495.477 345.507 496.641 345.953C498.39 346.569 498.097 352.968 495.377 352.883C494.09 352.837 473.074 353.653 470.415 353.499C467.756 353.345 459.749 350.181 459.749 350.181L466.438 337.483Z" fill="#F5627C"/>
<path d="M478.538 348.548C478.684 348.548 478.877 347.008 479.817 345.468C480.757 343.928 481.959 342.912 481.867 342.796C481.775 342.681 480.372 343.505 479.393 345.222C478.414 346.939 478.414 348.564 478.538 348.548Z" fill="#263238"/>
<path d="M475.501 347.178C475.64 347.178 475.933 345.83 476.711 344.313C477.49 342.796 478.399 341.741 478.253 341.641C477.353 342.245 476.651 343.099 476.233 344.098C475.501 345.73 475.386 347.17 475.501 347.178Z" fill="#263238"/>
<path d="M472.665 346.423C472.812 346.423 472.665 344.96 473.343 343.343C474.022 341.726 475.031 340.74 474.931 340.633C474.831 340.525 473.567 341.403 472.896 343.174C472.226 344.945 472.55 346.5 472.665 346.423Z" fill="#263238"/>
<path d="M473.189 342.65C473.448 341.96 473.555 341.222 473.505 340.486C473.496 339.689 473.395 338.896 473.205 338.122C473.096 337.663 472.952 337.212 472.773 336.775C472.685 336.502 472.525 336.257 472.311 336.067C472.166 335.956 471.987 335.899 471.805 335.908C471.623 335.916 471.45 335.989 471.317 336.113C471.089 336.33 470.949 336.623 470.924 336.937C470.908 337.193 470.908 337.45 470.924 337.707C470.925 338.187 470.985 338.665 471.101 339.131C471.296 339.907 471.597 340.654 471.995 341.349C472.318 342.006 472.76 342.598 473.297 343.097C473.367 343.05 472.881 342.373 472.295 341.187C471.956 340.501 471.697 339.777 471.525 339.031C471.434 338.595 471.388 338.152 471.386 337.707C471.386 337.26 471.386 336.706 471.656 336.49C471.707 336.44 471.776 336.412 471.848 336.412C471.92 336.412 471.989 336.44 472.041 336.49C472.189 336.629 472.298 336.804 472.357 336.998C472.532 337.414 472.679 337.841 472.796 338.276C473 339.016 473.129 339.775 473.182 340.54C473.236 341.88 473.105 342.65 473.189 342.65Z" fill="#263238"/>
<path d="M473.189 342.38C472.596 342.13 471.951 342.025 471.309 342.072C470.615 342.073 469.924 342.158 469.251 342.327C468.837 342.416 468.437 342.564 468.064 342.765C467.827 342.886 467.634 343.08 467.516 343.319C467.398 343.557 467.361 343.828 467.409 344.09C467.474 344.34 467.606 344.569 467.791 344.75C467.975 344.932 468.206 345.06 468.457 345.122C468.885 345.23 469.332 345.23 469.76 345.122C470.447 344.944 471.09 344.627 471.648 344.19C472.174 343.83 472.63 343.379 472.997 342.858C472.458 343.169 471.943 343.519 471.455 343.905C470.917 344.273 470.312 344.535 469.675 344.675C469.321 344.764 468.95 344.764 468.596 344.675C468.429 344.632 468.275 344.547 468.151 344.427C468.026 344.306 467.935 344.156 467.887 343.99C467.861 343.825 467.889 343.657 467.967 343.51C468.045 343.363 468.168 343.245 468.319 343.174C468.653 342.995 469.007 342.858 469.375 342.765C470.014 342.587 470.67 342.473 471.332 342.427C472.419 342.342 473.135 342.457 473.189 342.38Z" fill="#263238"/>
<path d="M483 348.864C483.139 348.864 483 347.609 483.57 346.246C484.14 344.883 485.112 344.082 484.988 343.974C484.865 343.867 483.732 344.544 483.123 346.061C482.514 347.578 482.877 348.91 483 348.864Z" fill="#263238"/>
<path d="M462.739 350.204C463.092 350.417 463.467 350.592 463.857 350.727C464.911 351.136 465.992 351.47 467.093 351.728C470.731 352.524 474.453 352.876 478.176 352.776C482.53 352.729 486.453 352.537 489.296 352.421L492.656 352.244C493.071 352.24 493.483 352.196 493.889 352.113C493.479 352.047 493.063 352.026 492.649 352.052H489.281L478.176 352.267C474.483 352.359 470.792 352.059 467.163 351.374C464.388 350.827 462.77 350.111 462.739 350.204Z" fill="#263238"/>
<path d="M461.876 350.866C461.876 350.927 462.708 350.465 464.049 349.88C465.758 349.065 467.663 348.748 469.544 348.964C471.394 349.365 473.063 350.357 474.299 351.79C474.817 352.397 475.375 352.969 475.971 353.499C475.586 352.789 475.106 352.134 474.546 351.551C473.976 350.882 473.333 350.28 472.627 349.757C471.74 349.101 470.71 348.665 469.621 348.487C467.66 348.258 465.677 348.64 463.941 349.58C463.188 349.895 462.491 350.329 461.876 350.866Z" fill="#263238"/>
<path d="M432.074 330.746C432.074 330.746 404.6 348.718 403.606 349.465C402.126 350.581 403.822 355.902 406.388 354.978C407.598 354.547 430.656 348.132 433.138 347.17C435.619 346.207 442.293 340.771 442.293 340.771L432.074 330.746Z" fill="#F5627C"/>
<path d="M423.913 344.96C424.029 344.96 423.543 343.351 422.071 342.026C420.599 340.702 418.988 340.34 418.988 340.486C418.988 340.633 420.391 341.148 421.755 342.404C423.119 343.659 423.782 345.029 423.913 344.96Z" fill="#263238"/>
<path d="M426.379 342.735C426.495 342.696 425.963 341.31 424.707 340.04C423.451 338.769 422.086 338.192 422.04 338.307C421.994 338.423 423.173 339.154 424.352 340.378C425.531 341.603 426.248 342.804 426.379 342.735Z" fill="#263238"/>
<path d="M428.853 341.148C428.976 341.148 428.853 339.609 427.651 338.13C426.448 336.652 424.969 336.213 424.946 336.336C424.923 336.459 426.194 337.106 427.258 338.438C428.321 339.77 428.714 341.187 428.853 341.148Z" fill="#263238"/>
<path d="M427.227 337.737C427.296 337.737 426.918 336.967 426.603 335.682C426.422 334.936 426.314 334.176 426.279 333.41C426.252 332.959 426.252 332.506 426.279 332.055C426.279 331.853 426.33 331.655 426.425 331.477C426.466 331.418 426.527 331.377 426.597 331.361C426.667 331.345 426.741 331.357 426.803 331.393C427.119 331.516 427.281 332.047 427.427 332.471C427.563 332.893 427.654 333.33 427.697 333.772C427.768 334.542 427.745 335.318 427.628 336.082C427.435 337.383 427.181 338.176 427.258 338.199C427.621 337.564 427.861 336.867 427.967 336.143C428.135 335.36 428.194 334.557 428.144 333.757C428.111 333.278 428.023 332.806 427.882 332.347C427.808 332.103 427.718 331.864 427.612 331.631C427.494 331.343 427.275 331.107 426.996 330.969C426.831 330.891 426.644 330.873 426.467 330.92C426.291 330.966 426.137 331.074 426.032 331.223C425.886 331.471 425.807 331.752 425.801 332.039C425.77 332.511 425.77 332.984 425.801 333.456C425.855 334.241 426.003 335.016 426.24 335.766C426.419 336.488 426.756 337.161 427.227 337.737Z" fill="#263238"/>
<path d="M427.165 337.445C427.204 337.514 427.843 337.191 428.953 336.921C429.597 336.766 430.256 336.676 430.918 336.652C431.297 336.628 431.678 336.652 432.051 336.721C432.214 336.744 432.366 336.818 432.484 336.933C432.602 337.048 432.68 337.198 432.706 337.36C432.712 337.534 432.673 337.706 432.592 337.86C432.51 338.014 432.391 338.144 432.244 338.238C431.934 338.43 431.582 338.546 431.219 338.577C430.57 338.636 429.916 338.571 429.292 338.384C428.706 338.167 428.106 337.989 427.497 337.853C428.002 338.243 428.578 338.533 429.192 338.708C429.853 338.959 430.559 339.067 431.265 339.023C431.707 338.995 432.135 338.86 432.514 338.631C432.733 338.493 432.912 338.298 433.031 338.068C433.15 337.838 433.206 337.58 433.192 337.322C433.16 337.057 433.042 336.81 432.858 336.619C432.673 336.427 432.43 336.301 432.167 336.259C431.75 336.185 431.325 336.167 430.903 336.205C430.209 336.249 429.523 336.379 428.861 336.59C428.238 336.742 427.658 337.035 427.165 337.445Z" fill="#263238"/>
<path d="M409.887 353.977C409.887 354.023 410.349 353.7 410.565 352.914C410.785 351.891 410.6 350.823 410.049 349.934C409.777 349.453 409.468 348.995 409.124 348.564C408.861 348.188 408.547 347.851 408.191 347.563C407.94 347.358 407.635 347.229 407.313 347.193C407.089 347.193 406.966 347.239 406.974 347.27C407.344 347.379 407.687 347.568 407.976 347.824C408.264 348.133 408.522 348.468 408.746 348.825C409.057 349.257 409.345 349.704 409.609 350.165C410.099 350.968 410.31 351.91 410.21 352.845C410.123 353.228 410.015 353.606 409.887 353.977Z" fill="#263238"/>
<path d="M419.751 346.615C419.882 346.615 419.844 345.229 418.788 343.982C417.732 342.735 416.376 342.442 416.368 342.565C416.36 342.688 417.478 343.15 418.41 344.298C419.343 345.445 419.613 346.639 419.751 346.615Z" fill="#263238"/>
<path d="M439.465 341.741C439.039 341.984 438.634 342.262 438.255 342.573C437.167 343.327 436.038 344.018 434.872 344.644C433.128 345.559 431.326 346.359 429.477 347.039C427.396 347.809 425.061 348.54 422.595 349.257C417.647 350.681 413.17 351.982 409.941 352.953L406.087 354.123C405.613 354.244 405.151 354.409 404.708 354.616C405.193 354.549 405.673 354.443 406.141 354.3L409.995 353.284C413.247 352.398 417.701 351.151 422.68 349.726C425.154 349.01 427.497 348.263 429.616 347.455C431.473 346.751 433.276 345.912 435.011 344.945C436.178 344.288 437.293 343.544 438.347 342.719C438.753 342.434 439.128 342.106 439.465 341.741Z" fill="#263238"/>
<path d="M440.482 342.111C439.75 341.783 438.969 341.575 438.17 341.495C436.22 341.127 434.203 341.372 432.398 342.196C431.416 342.698 430.568 343.426 429.924 344.321C429.408 345.039 428.976 345.814 428.637 346.631C428.277 347.362 428.017 348.14 427.866 348.941C428.273 348.256 428.631 347.543 428.938 346.808C429.593 345.53 430.625 343.659 432.606 342.673C434.338 341.908 436.249 341.642 438.124 341.903C439.573 341.988 440.467 342.188 440.482 342.111Z" fill="#263238"/>
<path d="M489.196 285.793C489.196 285.793 497.435 288.75 497.473 297.99C497.535 315.7 461.699 335.181 461.699 335.181L414.002 303.611L411.012 302.402C411.012 302.402 475.393 278.209 489.196 285.793Z" fill="#263238"/>
<path d="M438.163 319.55C438.602 319.311 439.018 319.03 439.403 318.711C440.174 318.149 441.299 317.302 442.671 316.247C445.399 314.145 449.114 311.149 453.113 307.723C457.113 304.296 460.627 301.078 463.132 298.698C464.381 297.513 465.382 296.535 466.061 295.849C466.433 295.515 466.774 295.146 467.078 294.748C466.67 295.038 466.286 295.36 465.93 295.711L462.901 298.444C460.342 300.754 456.79 303.934 452.797 307.353C448.805 310.772 445.137 313.806 442.463 315.985L439.28 318.541C438.881 318.846 438.507 319.184 438.163 319.55Z" fill="#455A64"/>
<path d="M475.733 292.4C474.18 292.156 472.591 292.302 471.109 292.823C468.619 293.547 466.947 294.872 467.024 294.964C467.101 295.056 468.843 293.986 471.247 293.285C473.652 292.585 475.733 292.554 475.733 292.4Z" fill="#455A64"/>
<path d="M471.648 289.612C470.511 290.013 469.526 290.756 468.827 291.738C467.556 293.278 467.217 294.933 467.34 294.948C467.463 294.964 468.003 293.516 469.205 292.046C470.407 290.575 471.694 289.743 471.648 289.612Z" fill="#455A64"/>
<path d="M491.816 345.63C491.816 345.576 491.246 345.461 490.583 346C489.811 346.728 489.324 347.708 489.211 348.764C489.046 349.811 489.196 350.883 489.643 351.844C489.982 352.568 490.352 352.914 490.414 352.876C490.475 352.837 490.221 352.429 489.982 351.721C489.673 350.802 489.581 349.824 489.712 348.864C489.82 347.911 490.212 347.012 490.838 346.284C491.323 345.73 491.824 345.73 491.816 345.63Z" fill="#263238"/>
<path d="M485.782 260.668L472.218 297.22C471.84 298.239 471.155 299.116 470.259 299.731C469.362 300.345 468.296 300.668 467.209 300.654L392.516 299.669V294.001L420.26 295.01L432.02 258.558C432.216 257.958 432.596 257.436 433.107 257.065C433.618 256.694 434.233 256.495 434.864 256.495L483.046 256.633C483.524 256.642 483.993 256.765 484.414 256.993C484.834 257.22 485.194 257.546 485.462 257.941C485.73 258.337 485.899 258.791 485.955 259.266C486.011 259.74 485.951 260.221 485.782 260.668Z" fill="#E0E0E0"/>
<path d="M485.782 260.668C485.782 260.668 485.782 260.668 485.782 260.553C485.823 260.443 485.854 260.329 485.875 260.214C485.986 259.761 485.986 259.288 485.875 258.836C485.719 258.236 485.377 257.701 484.898 257.308C484.419 256.915 483.827 256.684 483.208 256.649C482.699 256.649 482.137 256.649 481.551 256.649H461.452H447.372H439.457H435.303C434.611 256.58 433.914 256.734 433.315 257.088C432.719 257.462 432.278 258.039 432.074 258.712L420.345 295.103V295.187H420.252L392.508 294.186L392.632 294.063V299.73L392.516 299.615L439.48 300.238L459.895 300.523L464.604 300.585H466.916C467.652 300.629 468.389 300.521 469.082 300.269C469.755 300.024 470.369 299.642 470.885 299.146C471.401 298.65 471.808 298.052 472.08 297.389C472.573 296.065 473.058 294.764 473.536 293.501C477.32 283.36 480.38 275.167 482.491 269.5C483.555 266.682 484.372 264.487 484.934 262.993C485.497 261.5 485.797 260.737 485.797 260.737C485.797 260.737 485.528 261.507 484.981 263.047L482.561 269.5C480.464 275.175 477.436 283.36 473.675 293.524L472.226 297.428C471.947 298.111 471.528 298.728 470.998 299.241C470.467 299.754 469.836 300.151 469.143 300.408C468.426 300.67 467.663 300.786 466.901 300.747H464.589L459.888 300.685L439.473 300.431L392.501 299.823H392.385V293.909H392.508L420.252 294.925L420.137 295.01L431.897 258.628C432.113 257.908 432.584 257.292 433.223 256.895C433.855 256.524 434.589 256.362 435.319 256.433H439.473H447.387L461.467 256.495L481.566 256.587C482.152 256.587 482.707 256.587 483.231 256.587C483.863 256.629 484.465 256.869 484.952 257.275C485.438 257.68 485.782 258.229 485.936 258.843C486.05 259.298 486.05 259.774 485.936 260.229C485.897 260.38 485.846 260.526 485.782 260.668Z" fill="#263238"/>
<path d="M452.667 274.474C453.244 274.182 453.894 274.063 454.538 274.131C455.182 274.2 455.793 274.452 456.296 274.859C456.722 275.264 457.017 275.787 457.143 276.36C457.269 276.934 457.221 277.532 457.005 278.078C456.771 278.616 456.392 279.079 455.911 279.414C455.429 279.75 454.864 279.946 454.277 279.98C453.655 280.02 453.036 279.856 452.516 279.513C451.996 279.169 451.602 278.666 451.395 278.078C451.048 276.884 451.395 275.106 452.667 274.474Z" fill="white"/>
<path d="M469.737 337.145C469.737 337.145 402.427 294.071 399.46 292.377C396.932 290.937 390.165 286.779 383.499 288.619C376.833 290.459 370.852 296.45 367.862 305.159C366.159 310.148 365.35 318.657 364.972 325.04C364.463 332.684 366.95 340.225 371.908 346.069C374.102 348.794 377.01 350.857 380.309 352.029C381.01 352.244 381.742 352.429 382.49 352.591C395.229 355.355 408.322 349.642 415.482 338.731L417.023 336.344C417.023 336.344 461.105 352.514 461.791 352.29L469.737 337.145Z" fill="#263238"/>
<path d="M402.935 294.764C402.935 294.764 402.874 294.764 402.766 294.664L402.296 294.34C401.88 294.055 401.271 293.64 400.477 293.124C398.235 291.653 395.836 290.437 393.325 289.497C391.591 288.861 389.774 288.479 387.93 288.365C385.828 288.277 383.73 288.621 381.765 289.374C379.585 290.215 377.571 291.435 375.816 292.977C374.876 293.781 373.993 294.648 373.172 295.572C372.342 296.524 371.609 297.556 370.984 298.652C369.745 300.839 368.772 303.165 368.086 305.582C367.446 307.931 366.938 310.248 366.46 312.435C365.57 316.309 365.054 320.259 364.918 324.232C364.87 326.912 365.074 329.59 365.527 332.232C365.674 333.171 365.843 333.887 365.943 334.38L366.051 334.942C366.061 335.006 366.061 335.071 366.051 335.135C366.025 335.075 366.004 335.013 365.99 334.95C365.99 334.804 365.897 334.619 365.843 334.396C365.712 333.911 365.519 333.202 365.35 332.263C364.823 329.618 364.565 326.928 364.579 324.232C364.682 320.242 365.181 316.273 366.067 312.381C366.544 310.179 367.038 307.877 367.67 305.498C368.369 303.05 369.355 300.693 370.606 298.475C371.245 297.349 371.993 296.289 372.841 295.31C373.675 294.371 374.574 293.491 375.53 292.677C377.324 291.112 379.38 289.877 381.603 289.027C383.626 288.261 385.785 287.92 387.946 288.026C389.813 288.164 391.65 288.568 393.402 289.227C395.926 290.193 398.324 291.457 400.546 292.993C401.317 293.532 401.926 293.971 402.327 294.279L402.774 294.633C402.834 294.668 402.888 294.712 402.935 294.764Z" fill="#455A64"/>
<path d="M386.374 324.986C386.494 325.05 386.617 325.106 386.744 325.156L387.846 325.587L392.115 327.25L407.991 333.225C414.734 335.735 422.819 338.731 431.882 342.026C440.945 345.322 450.986 348.956 461.714 352.56L461.914 352.622L462.007 352.444C463.687 349.226 465.467 345.838 467.271 342.396L469.953 337.26L470.06 337.06L469.868 336.944L418.472 304.343L403.059 294.61L398.866 291.992L397.772 291.33C397.65 291.251 397.524 291.179 397.394 291.114C397.394 291.114 397.51 291.206 397.749 291.368L398.82 292.076L402.966 294.764L418.326 304.62L469.637 337.352L469.552 337.037C468.704 338.661 467.795 340.402 466.87 342.157L461.614 352.206L461.899 352.083C451.179 348.464 441.13 344.868 432.059 341.603L408.168 332.91L392.238 327.073L387.938 325.533L386.821 325.14L386.374 324.986Z" fill="#455A64"/>
<path d="M389.857 182.082C388.595 179.817 387.592 177.418 386.867 174.929C386.143 172.42 386.285 169.74 387.268 167.321C387.892 165.943 388.878 164.734 389.372 163.302C390.042 161.33 389.765 159.005 390.99 157.319C392.894 154.678 396.978 155.294 399.93 153.915C402.242 152.837 403.837 150.52 406.249 149.742C408.361 149.064 410.665 149.742 412.7 150.589C414.734 151.436 416.73 152.568 418.927 152.853C420.505 152.941 422.088 152.941 423.666 152.853C425.267 152.786 426.831 153.338 428.036 154.393C429.146 155.509 429.377 157.58 428.175 158.605C430.941 158.135 433.569 160.915 433.508 163.694C433.446 166.474 431.358 168.961 428.807 170.132C426.256 171.302 423.35 171.371 420.553 171.148C412.638 170.532 404.685 167.529 399.298 161.708" fill="#F5627C"/>
<path d="M391.56 172.187L386.166 211.342C385.948 212.92 386.053 214.525 386.475 216.061C386.897 217.597 387.627 219.031 388.621 220.276C389.615 221.521 390.852 222.552 392.257 223.304C393.662 224.057 395.205 224.517 396.793 224.655C399.804 224.916 402.8 224.011 405.162 222.126C407.523 220.241 409.068 217.521 409.478 214.53C409.879 211.581 410.249 209.14 410.249 208.824C410.249 208.824 420.352 209.255 422.433 199.492C423.435 194.771 424.745 184.862 425.763 175.922C426.304 171.29 425.083 166.623 422.342 162.848C419.601 159.073 415.541 156.464 410.966 155.54L410.018 155.355C399.706 153.9 392.716 161.846 391.56 172.187Z" fill="#FFBE9D"/>
<path d="M410.341 208.67C405.802 207.854 401.607 205.711 398.288 202.51C398.288 202.51 399.899 210.164 409.848 211.234L410.341 208.67Z" fill="#EB996E"/>
<path d="M421.416 184.246C421.347 184.611 421.137 184.935 420.831 185.148C420.526 185.361 420.149 185.446 419.782 185.385C419.602 185.363 419.429 185.306 419.271 185.217C419.114 185.127 418.976 185.007 418.866 184.864C418.755 184.72 418.674 184.556 418.628 184.382C418.582 184.207 418.57 184.024 418.595 183.845C418.663 183.48 418.871 183.155 419.175 182.941C419.479 182.727 419.854 182.639 420.221 182.698C420.403 182.719 420.578 182.776 420.737 182.865C420.895 182.955 421.035 183.075 421.146 183.22C421.257 183.364 421.339 183.529 421.385 183.705C421.431 183.882 421.442 184.065 421.416 184.246Z" fill="#263238"/>
<path d="M422.742 180.303C422.533 180.45 421.632 179.456 420.121 179.164C418.611 178.871 417.362 179.395 417.239 179.164C417.177 179.063 417.416 178.771 418.01 178.517C418.737 178.201 419.545 178.118 420.322 178.278C421.107 178.43 421.822 178.83 422.364 179.418C422.757 179.88 422.849 180.242 422.742 180.303Z" fill="#263238"/>
<path d="M407.374 181.82C407.305 182.186 407.095 182.509 406.79 182.722C406.485 182.935 406.108 183.021 405.741 182.96C405.56 182.939 405.386 182.882 405.228 182.793C405.071 182.704 404.932 182.584 404.822 182.44C404.711 182.297 404.63 182.132 404.584 181.957C404.538 181.782 404.528 181.599 404.554 181.42C404.621 181.055 404.83 180.731 405.134 180.518C405.438 180.305 405.813 180.219 406.18 180.28C406.36 180.301 406.535 180.358 406.693 180.447C406.851 180.536 406.99 180.656 407.101 180.799C407.213 180.943 407.294 181.107 407.341 181.282C407.388 181.457 407.399 181.64 407.374 181.82Z" fill="#263238"/>
<path d="M407.891 177.631C407.675 177.778 406.773 176.784 405.263 176.484C403.752 176.184 402.504 176.723 402.381 176.484C402.319 176.384 402.558 176.091 403.151 175.837C403.879 175.522 404.686 175.438 405.463 175.599C406.246 175.752 406.961 176.148 407.505 176.73C407.899 177.208 407.991 177.562 407.891 177.631Z" fill="#263238"/>
<path d="M411.12 189.882C411.964 189.789 412.816 189.804 413.655 189.928C414.048 189.967 414.426 189.928 414.542 189.713C414.665 189.324 414.665 188.907 414.542 188.519C414.372 187.518 414.187 186.471 413.994 185.37C413.224 180.888 412.792 177.239 412.969 177.208C413.147 177.177 413.902 180.788 414.649 185.27C414.819 186.371 414.989 187.418 415.15 188.427C415.295 188.936 415.259 189.48 415.05 189.967C414.964 190.094 414.85 190.2 414.716 190.276C414.583 190.352 414.433 190.396 414.28 190.406C414.055 190.42 413.83 190.404 413.609 190.359C412.762 190.306 411.926 190.146 411.12 189.882Z" fill="#263238"/>
<path d="M406.48 190.036C406.727 190.036 406.403 191.707 407.575 193.116C408.746 194.525 410.519 194.725 410.48 194.956C410.48 195.064 410.033 195.195 409.293 195.072C408.332 194.891 407.465 194.379 406.843 193.624C406.263 192.895 405.987 191.972 406.072 191.045C406.141 190.375 406.373 190.005 406.48 190.036Z" fill="#263238"/>
<path d="M409.455 171.81C409.224 172.187 407.76 171.695 405.949 171.556C404.138 171.417 402.619 171.61 402.458 171.202C402.388 171.002 402.712 170.671 403.367 170.386C404.234 170.058 405.164 169.931 406.087 170.012C407.01 170.093 407.904 170.382 408.7 170.855C409.293 171.24 409.555 171.633 409.455 171.81Z" fill="#F5627C"/>
<path d="M423.096 175.837C422.757 176.13 421.794 175.568 420.553 175.298C419.312 175.029 418.241 175.067 418.025 174.667C417.956 174.467 418.187 174.159 418.719 173.897C419.416 173.633 420.175 173.583 420.901 173.751C421.627 173.92 422.286 174.3 422.795 174.844C423.135 175.314 423.212 175.699 423.096 175.837Z" fill="#F5627C"/>
<path d="M390.913 179.595C390.759 179.487 384.578 176.261 383.453 182.998C382.328 189.736 389.333 189.474 389.372 189.281C389.41 189.089 390.913 179.595 390.913 179.595Z" fill="#FFBE9D"/>
<path d="M387.738 186.386C387.738 186.386 387.607 186.448 387.399 186.502C387.098 186.577 386.781 186.533 386.512 186.379C385.842 185.994 385.434 184.769 385.603 183.545C385.684 182.965 385.892 182.411 386.212 181.92C386.31 181.719 386.455 181.544 386.634 181.41C386.814 181.276 387.023 181.187 387.245 181.15C387.386 181.138 387.527 181.175 387.643 181.255C387.76 181.335 387.845 181.453 387.884 181.589C387.946 181.797 387.884 181.92 387.884 181.936C387.884 181.951 388.046 181.851 388.038 181.566C388.029 181.392 387.961 181.227 387.846 181.096C387.683 180.925 387.458 180.825 387.221 180.819C386.935 180.827 386.656 180.909 386.411 181.056C386.165 181.203 385.961 181.41 385.819 181.658C385.435 182.194 385.188 182.815 385.102 183.468C384.917 184.831 385.403 186.217 386.327 186.663C386.501 186.745 386.691 186.787 386.882 186.787C387.074 186.787 387.264 186.745 387.437 186.663C387.699 186.548 387.761 186.402 387.738 186.386Z" fill="#EB996E"/>
<path d="M427.72 166.828C426.564 169.315 420.614 170.278 416.252 168.961C412.237 167.752 410.773 165.203 408.222 162.978C406.604 161.569 406.604 161.569 403.96 161.3C401.826 161.076 400.107 163.201 398.496 164.611C399.398 170.001 397.017 175.267 394.689 180.172C394.493 180.745 394.111 181.236 393.603 181.566C392.693 182.013 391.599 181.304 391.052 180.442C390.284 178.991 389.955 177.348 390.104 175.714C390.125 171.987 390.888 168.302 392.346 164.872C393.809 161.418 396.259 158.471 399.39 156.402C403.402 153.952 408.211 153.157 412.8 154.185C417.362 155.24 421.474 157.705 424.553 161.23C426.056 162.79 427.145 164.702 427.72 166.79" fill="#F5627C"/>
<path d="M414.033 183.106C414.095 183.106 414.033 182.529 414.341 181.566C414.735 180.18 415.575 178.963 416.73 178.101C417.576 177.476 418.564 177.071 419.605 176.922C420.646 176.773 421.708 176.884 422.695 177.246C423.86 177.673 424.872 178.437 425.601 179.441C426.386 180.512 426.81 181.805 426.81 183.133C426.81 184.461 426.386 185.754 425.601 186.825C424.872 187.829 423.86 188.593 422.695 189.02C421.707 189.382 420.645 189.493 419.604 189.343C418.562 189.192 417.575 188.785 416.73 188.157C415.574 187.3 414.734 186.084 414.341 184.7C414.071 183.714 414.095 183.16 414.033 183.16C414.015 183.3 414.015 183.443 414.033 183.583C414.03 183.985 414.077 184.386 414.172 184.777C414.497 186.254 415.332 187.571 416.53 188.496C417.24 189.038 418.052 189.433 418.918 189.657C419.783 189.881 420.685 189.93 421.569 189.801C422.454 189.672 423.304 189.367 424.069 188.905C424.834 188.443 425.499 187.833 426.024 187.11C426.889 185.953 427.357 184.547 427.357 183.102C427.357 181.658 426.889 180.252 426.024 179.094C425.494 178.372 424.824 177.763 424.054 177.304C423.284 176.845 422.43 176.544 421.542 176.421C420.654 176.297 419.75 176.353 418.884 176.585C418.018 176.817 417.207 177.22 416.499 177.77C415.301 178.692 414.467 180.006 414.141 181.481C414.046 181.875 414 182.278 414.002 182.683C413.993 182.824 414.003 182.967 414.033 183.106Z" fill="#263238"/>
<path d="M398.042 180.319C398.103 180.319 398.042 179.741 398.35 178.779C398.742 177.392 399.582 176.174 400.739 175.314C401.584 174.687 402.572 174.281 403.613 174.132C404.655 173.983 405.717 174.095 406.704 174.459C407.869 174.883 408.88 175.644 409.609 176.646C410.396 177.718 410.82 179.012 410.82 180.342C410.82 181.671 410.396 182.966 409.609 184.038C408.883 185.042 407.87 185.804 406.704 186.224C405.717 186.588 404.655 186.7 403.613 186.551C402.572 186.402 401.584 185.996 400.739 185.37C399.582 184.509 398.742 183.291 398.35 181.905C398.08 180.927 398.103 180.365 398.042 180.365C398.024 180.503 398.024 180.643 398.042 180.781C398.039 181.185 398.086 181.588 398.18 181.982C398.506 183.459 399.34 184.776 400.539 185.701C401.247 186.25 402.059 186.653 402.925 186.884C403.792 187.115 404.696 187.171 405.585 187.047C406.473 186.924 407.328 186.624 408.099 186.165C408.869 185.707 409.54 185.098 410.072 184.376C410.935 183.217 411.401 181.81 411.401 180.365C411.401 178.92 410.935 177.513 410.072 176.353C409.541 175.631 408.872 175.022 408.102 174.563C407.332 174.103 406.477 173.803 405.589 173.68C404.701 173.556 403.797 173.612 402.931 173.844C402.065 174.075 401.254 174.478 400.546 175.029C399.35 175.955 398.515 177.271 398.188 178.748C398.094 179.141 398.047 179.544 398.049 179.949C398.032 180.071 398.029 180.196 398.042 180.319Z" fill="#263238"/>
<path d="M411.22 180.55C411.289 180.68 412.145 180.28 413.139 180.588C414.133 180.896 414.634 181.689 414.765 181.612C414.896 181.535 414.765 181.327 414.572 180.988C414.265 180.545 413.817 180.219 413.3 180.064C412.784 179.909 412.229 179.933 411.729 180.134C411.351 180.288 411.181 180.488 411.22 180.55Z" fill="#263238"/>
<path d="M388.986 178.594C388.986 178.748 391.136 178.833 393.788 178.802C396.439 178.771 398.581 178.609 398.581 178.455C398.581 178.301 396.431 178.216 393.78 178.255C391.129 178.293 388.986 178.44 388.986 178.594Z" fill="#263238"/>
<path d="M430.903 160.399C430.902 160.616 430.866 160.832 430.795 161.038C430.604 161.607 430.253 162.109 429.785 162.485C429.094 163.052 428.248 163.399 427.358 163.479C426.284 163.565 425.203 163.508 424.144 163.309C422.22 163.025 420.311 162.642 418.426 162.162C417.701 161.97 417.116 161.808 416.723 161.685L416.26 161.538L416.106 161.477C416.106 161.477 416.168 161.477 416.268 161.477L416.738 161.592L418.449 162.016C419.898 162.362 421.917 162.786 424.167 163.125C425.213 163.321 426.281 163.381 427.342 163.302C428.208 163.231 429.034 162.907 429.716 162.37C430.175 162.012 430.527 161.536 430.733 160.992C430.872 160.63 430.88 160.391 430.903 160.399Z" fill="white"/>
<path d="M432.398 161.923C432.303 162.566 432.108 163.189 431.82 163.771C431.152 165.201 430.07 166.397 428.714 167.206C427.358 168.014 425.79 168.398 424.213 168.307C423.567 168.285 422.927 168.163 422.318 167.945C422.49 167.965 422.66 167.998 422.826 168.045C423.287 168.13 423.753 168.182 424.221 168.199C425.77 168.255 427.302 167.862 428.631 167.067C429.96 166.271 431.031 165.108 431.712 163.717C431.927 163.301 432.103 162.865 432.236 162.416C432.279 162.248 432.333 162.084 432.398 161.923Z" fill="white"/>
</svg>
